solid ascii
  facet normal 9.709374e-001 2.393146e-001 -3.015772e-003
    outer loop
      vertex   3.305453e+001 8.342482e-001 4.000000e+000
      vertex   3.310756e+001 7.242741e-001 1.234622e+001
      vertex   3.326016e+001 2.198426e-016 4.000000e+000
    endloop
  endfacet
  facet normal 8.205033e-001 5.716370e-001 2.318900e-003
    outer loop
      vertex   3.305453e+001 8.342482e-001 4.000000e+000
      vertex   3.271076e+001 1.292542e+000 1.266343e+001
      vertex   3.310756e+001 7.242741e-001 1.234622e+001
    endloop
  endfacet
  facet normal 7.484999e-001 6.631131e-001 -5.377326e-003
    outer loop
      vertex   3.305453e+001 8.342482e-001 4.000000e+000
      vertex   3.248477e+001 1.477380e+000 4.000000e+000
      vertex   3.271076e+001 1.292542e+000 1.266343e+001
    endloop
  endfacet
  facet normal 5.496752e-001 8.353712e-001 3.484373e-003
    outer loop
      vertex   3.271076e+001 1.292542e+000 1.266343e+001
      vertex   3.248477e+001 1.477380e+000 4.000000e+000
      vertex   3.215271e+001 1.658199e+000 1.303203e+001
    endloop
  endfacet
  facet normal 3.545992e-001 9.350011e-001 -5.681988e-003
    outer loop
      vertex   3.215271e+001 1.658199e+000 1.303203e+001
      vertex   3.248477e+001 1.477380e+000 4.000000e+000
      vertex   3.168139e+001 1.782062e+000 4.000000e+000
    endloop
  endfacet
  facet normal -1.205356e-001 9.927000e-001 -4.232269e-003
    outer loop
      vertex   3.146501e+001 1.795151e+000 1.323259e+001
      vertex   3.168139e+001 1.782062e+000 4.000000e+000
      vertex   3.082844e+001 1.678495e+000 4.000000e+000
    endloop
  endfacet
  facet normal -5.475053e-001 8.368013e-001 -1.219533e-003
    outer loop
      vertex   3.077730e+001 1.658199e+000 1.303203e+001
      vertex   3.082844e+001 1.678495e+000 4.000000e+000
      vertex   3.021925e+001 1.292542e+000 1.266343e+001
    endloop
  endfacet
  facet normal -1.956145e-001 9.806803e-001 1.096147e-003
    outer loop
      vertex   3.077730e+001 1.658199e+000 1.303203e+001
      vertex   3.146501e+001 1.795151e+000 1.323259e+001
      vertex   3.082844e+001 1.678495e+000 4.000000e+000
    endloop
  endfacet
  facet normal 1.962060e-001 9.805574e-001 3.208327e-003
    outer loop
      vertex   3.215271e+001 1.658199e+000 1.303203e+001
      vertex   3.168139e+001 1.782062e+000 4.000000e+000
      vertex   3.146501e+001 1.795151e+000 1.323259e+001
    endloop
  endfacet
  facet normal -5.680617e-001 8.229794e-001 -3.280755e-003
    outer loop
      vertex   3.082844e+001 1.678495e+000 4.000000e+000
      vertex   3.012132e+001 1.190405e+000 4.000000e+000
      vertex   3.021925e+001 1.292542e+000 1.266343e+001
    endloop
  endfacet
  facet normal -8.205602e-001 5.715545e-001 2.537761e-003
    outer loop
      vertex   3.021925e+001 1.292542e+000 1.266343e+001
      vertex   3.012132e+001 1.190405e+000 4.000000e+000
      vertex   2.982245e+001 7.242741e-001 1.234622e+001
    endloop
  endfacet
  facet normal -8.854414e-001 4.647155e-001 -5.752442e-003
    outer loop
      vertex   2.982245e+001 7.242741e-001 1.234622e+001
      vertex   3.012132e+001 1.190405e+000 4.000000e+000
      vertex   2.972202e+001 4.296077e-001 4.000000e+000
    endloop
  endfacet
  facet normal -9.999799e-001 -0.000000e+000 -6.348154e-003
    outer loop
      vertex   2.966985e+001 2.428613e-016 1.221700e+001
      vertex   2.972202e+001 4.296077e-001 4.000000e+000
      vertex   2.972202e+001 -4.296077e-001 4.000000e+000
    endloop
  endfacet
  facet normal -8.854414e-001 -4.647155e-001 -5.752442e-003
    outer loop
      vertex   2.982245e+001 -7.242741e-001 1.234622e+001
      vertex   2.972202e+001 -4.296077e-001 4.000000e+000
      vertex   3.012132e+001 -1.190405e+000 4.000000e+000
    endloop
  endfacet
  facet normal -5.680617e-001 -8.229794e-001 -3.280755e-003
    outer loop
      vertex   3.021925e+001 -1.292542e+000 1.266343e+001
      vertex   3.012132e+001 -1.190405e+000 4.000000e+000
      vertex   3.082844e+001 -1.678495e+000 4.000000e+000
    endloop
  endfacet
  facet normal -1.956145e-001 -9.806803e-001 1.096147e-003
    outer loop
      vertex   3.077730e+001 -1.658199e+000 1.303203e+001
      vertex   3.082844e+001 -1.678495e+000 4.000000e+000
      vertex   3.146501e+001 -1.795151e+000 1.323259e+001
    endloop
  endfacet
  facet normal -5.475053e-001 -8.368013e-001 -1.219533e-003
    outer loop
      vertex   3.077730e+001 -1.658199e+000 1.303203e+001
      vertex   3.021925e+001 -1.292542e+000 1.266343e+001
      vertex   3.082844e+001 -1.678495e+000 4.000000e+000
    endloop
  endfacet
  facet normal -9.786710e-001 2.053841e-001 4.525178e-003
    outer loop
      vertex   2.982245e+001 7.242741e-001 1.234622e+001
      vertex   2.972202e+001 4.296077e-001 4.000000e+000
      vertex   2.966985e+001 2.428613e-016 1.221700e+001
    endloop
  endfacet
  facet normal -9.786710e-001 -2.053841e-001 4.525178e-003
    outer loop
      vertex   2.966985e+001 2.428613e-016 1.221700e+001
      vertex   2.972202e+001 -4.296077e-001 4.000000e+000
      vertex   2.982245e+001 -7.242741e-001 1.234622e+001
    endloop
  endfacet
  facet normal -8.205602e-001 -5.715545e-001 2.537761e-003
    outer loop
      vertex   2.982245e+001 -7.242741e-001 1.234622e+001
      vertex   3.012132e+001 -1.190405e+000 4.000000e+000
      vertex   3.021925e+001 -1.292542e+000 1.266343e+001
    endloop
  endfacet
  facet normal -1.205356e-001 -9.927000e-001 -4.232269e-003
    outer loop
      vertex   3.082844e+001 -1.678495e+000 4.000000e+000
      vertex   3.168139e+001 -1.782062e+000 4.000000e+000
      vertex   3.146501e+001 -1.795151e+000 1.323259e+001
    endloop
  endfacet
  facet normal 1.962060e-001 -9.805574e-001 3.208327e-003
    outer loop
      vertex   3.146501e+001 -1.795151e+000 1.323259e+001
      vertex   3.168139e+001 -1.782062e+000 4.000000e+000
      vertex   3.215271e+001 -1.658199e+000 1.303203e+001
    endloop
  endfacet
  facet normal 3.545992e-001 -9.350011e-001 -5.681988e-003
    outer loop
      vertex   3.215271e+001 -1.658199e+000 1.303203e+001
      vertex   3.168139e+001 -1.782062e+000 4.000000e+000
      vertex   3.248477e+001 -1.477380e+000 4.000000e+000
    endloop
  endfacet
  facet normal 7.484999e-001 -6.631131e-001 -5.377326e-003
    outer loop
      vertex   3.271076e+001 -1.292542e+000 1.266343e+001
      vertex   3.248477e+001 -1.477380e+000 4.000000e+000
      vertex   3.305453e+001 -8.342482e-001 4.000000e+000
    endloop
  endfacet
  facet normal 9.709374e-001 -2.393146e-001 -3.015772e-003
    outer loop
      vertex   3.310756e+001 -7.242741e-001 1.234622e+001
      vertex   3.305453e+001 -8.342482e-001 4.000000e+000
      vertex   3.326016e+001 2.198426e-016 4.000000e+000
    endloop
  endfacet
  facet normal 9.785184e-001 2.061593e-001 2.466589e-017
    outer loop
      vertex   3.326016e+001 -7.632783e-016 1.221700e+001
      vertex   3.326016e+001 2.198426e-016 4.000000e+000
      vertex   3.310756e+001 7.242741e-001 1.234622e+001
    endloop
  endfacet
  facet normal 9.785184e-001 -2.061593e-001 -2.509954e-017
    outer loop
      vertex   3.326016e+001 -7.632783e-016 1.221700e+001
      vertex   3.310756e+001 -7.242741e-001 1.234622e+001
      vertex   3.326016e+001 2.198426e-016 4.000000e+000
    endloop
  endfacet
  facet normal 5.496752e-001 -8.353712e-001 3.484373e-003
    outer loop
      vertex   3.215271e+001 -1.658199e+000 1.303203e+001
      vertex   3.248477e+001 -1.477380e+000 4.000000e+000
      vertex   3.271076e+001 -1.292542e+000 1.266343e+001
    endloop
  endfacet
  facet normal 8.205033e-001 -5.716370e-001 2.318900e-003
    outer loop
      vertex   3.271076e+001 -1.292542e+000 1.266343e+001
      vertex   3.305453e+001 -8.342482e-001 4.000000e+000
      vertex   3.310756e+001 -7.242741e-001 1.234622e+001
    endloop
  endfacet
  facet normal 0.000000e+000 0.000000e+000 -1.000000e+000
    outer loop
      vertex   3.305453e+001 -8.342482e-001 4.000000e+000
      vertex   2.972202e+001 -4.296077e-001 4.000000e+000
      vertex   3.326016e+001 2.198426e-016 4.000000e+000
    endloop
  endfacet
  facet normal -0.000000e+000 0.000000e+000 -1.000000e+000
    outer loop
      vertex   3.305453e+001 -8.342482e-001 4.000000e+000
      vertex   3.012132e+001 -1.190405e+000 4.000000e+000
      vertex   2.972202e+001 -4.296077e-001 4.000000e+000
    endloop
  endfacet
  facet normal -0.000000e+000 0.000000e+000 -1.000000e+000
    outer loop
      vertex   3.305453e+001 -8.342482e-001 4.000000e+000
      vertex   3.248477e+001 -1.477380e+000 4.000000e+000
      vertex   3.012132e+001 -1.190405e+000 4.000000e+000
    endloop
  endfacet
  facet normal 0.000000e+000 -0.000000e+000 -1.000000e+000
    outer loop
      vertex   3.012132e+001 -1.190405e+000 4.000000e+000
      vertex   3.248477e+001 -1.477380e+000 4.000000e+000
      vertex   3.082844e+001 -1.678495e+000 4.000000e+000
    endloop
  endfacet
  facet normal 0.000000e+000 -0.000000e+000 -1.000000e+000
    outer loop
      vertex   3.082844e+001 -1.678495e+000 4.000000e+000
      vertex   3.248477e+001 -1.477380e+000 4.000000e+000
      vertex   3.168139e+001 -1.782062e+000 4.000000e+000
    endloop
  endfacet
  facet normal 0.000000e+000 0.000000e+000 -1.000000e+000
    outer loop
      vertex   2.972202e+001 -4.296077e-001 4.000000e+000
      vertex   2.972202e+001 4.296077e-001 4.000000e+000
      vertex   3.326016e+001 2.198426e-016 4.000000e+000
    endloop
  endfacet
  facet normal 0.000000e+000 0.000000e+000 -1.000000e+000
    outer loop
      vertex   3.326016e+001 2.198426e-016 4.000000e+000
      vertex   2.972202e+001 4.296077e-001 4.000000e+000
      vertex   3.305453e+001 8.342482e-001 4.000000e+000
    endloop
  endfacet
  facet normal -0.000000e+000 0.000000e+000 -1.000000e+000
    outer loop
      vertex   3.305453e+001 8.342482e-001 4.000000e+000
      vertex   2.972202e+001 4.296077e-001 4.000000e+000
      vertex   3.012132e+001 1.190405e+000 4.000000e+000
    endloop
  endfacet
  facet normal -0.000000e+000 0.000000e+000 -1.000000e+000
    outer loop
      vertex   3.248477e+001 1.477380e+000 4.000000e+000
      vertex   3.012132e+001 1.190405e+000 4.000000e+000
      vertex   3.082844e+001 1.678495e+000 4.000000e+000
    endloop
  endfacet
  facet normal -0.000000e+000 -0.000000e+000 -1.000000e+000
    outer loop
      vertex   3.168139e+001 1.782062e+000 4.000000e+000
      vertex   3.248477e+001 1.477380e+000 4.000000e+000
      vertex   3.082844e+001 1.678495e+000 4.000000e+000
    endloop
  endfacet
  facet normal 0.000000e+000 0.000000e+000 -1.000000e+000
    outer loop
      vertex   3.305453e+001 8.342482e-001 4.000000e+000
      vertex   3.012132e+001 1.190405e+000 4.000000e+000
      vertex   3.248477e+001 1.477380e+000 4.000000e+000
    endloop
  endfacet
  facet normal -1.338640e-003 8.279674e-001 -5.607746e-001
    outer loop
      vertex   3.077730e+001 1.658199e+000 1.303203e+001
      vertex   1.700000e+001 1.886938e+000 1.340264e+001
      vertex   3.146501e+001 1.795151e+000 1.323259e+001
    endloop
  endfacet
  facet normal -3.791646e-003 7.818259e-001 -6.234853e-001
    outer loop
      vertex   3.077730e+001 1.658199e+000 1.303203e+001
      vertex   1.700000e+001 1.305801e+000 1.267392e+001
      vertex   1.700000e+001 1.886938e+000 1.340264e+001
    endloop
  endfacet
  facet normal 1.531848e-004 7.098141e-001 -7.043891e-001
    outer loop
      vertex   3.077730e+001 1.658199e+000 1.303203e+001
      vertex   3.021925e+001 1.292542e+000 1.266343e+001
      vertex   1.700000e+001 1.305801e+000 1.267392e+001
    endloop
  endfacet
  facet normal -2.036383e-004 4.875189e-001 -8.731124e-001
    outer loop
      vertex   1.700000e+001 1.305801e+000 1.267392e+001
      vertex   3.021925e+001 1.292542e+000 1.266343e+001
      vertex   2.982245e+001 7.242741e-001 1.234622e+001
    endloop
  endfacet
  facet normal 2.362533e-003 1.751597e-001 -9.845372e-001
    outer loop
      vertex   1.700000e+001 4.660351e-001 1.226951e+001
      vertex   2.982245e+001 7.242741e-001 1.234622e+001
      vertex   2.966985e+001 2.428613e-016 1.221700e+001
    endloop
  endfacet
  facet normal -1.777386e-018 -1.119645e-001 -9.937122e-001
    outer loop
      vertex   1.000000e+001 5.551115e-016 1.221700e+001
      vertex   2.966985e+001 2.428613e-016 1.221700e+001
      vertex   1.700000e+001 -4.660351e-001 1.226951e+001
    endloop
  endfacet
  facet normal 7.007774e-003 -4.338731e-001 -9.009467e-001
    outer loop
      vertex   9.967741e+000 -8.025787e-001 1.237688e+001
      vertex   1.700000e+001 -4.660351e-001 1.226951e+001
      vertex   1.700000e+001 -1.305801e+000 1.267392e+001
    endloop
  endfacet
  facet normal 5.533701e-003 -7.818195e-001 -6.234803e-001
    outer loop
      vertex   9.889730e+000 -1.480962e+000 1.283046e+001
      vertex   1.700000e+001 -1.305801e+000 1.267392e+001
      vertex   1.700000e+001 -1.886938e+000 1.340264e+001
    endloop
  endfacet
  facet normal 3.161310e-003 -9.749230e-001 -2.225198e-001
    outer loop
      vertex   9.811105e+000 -1.934482e+000 1.350881e+001
      vertex   1.700000e+001 -1.886938e+000 1.340264e+001
      vertex   1.700000e+001 -2.094343e+000 1.431134e+001
    endloop
  endfacet
  facet normal 0.000000e+000 -9.807319e-001 1.953585e-001
    outer loop
      vertex   9.778227e+000 -2.094343e+000 1.431134e+001
      vertex   1.700000e+001 -2.094343e+000 1.431134e+001
      vertex   9.811105e+000 -1.934482e+000 1.511387e+001
    endloop
  endfacet
  facet normal 0.000000e+000 -9.807319e-001 -1.953585e-001
    outer loop
      vertex   9.778227e+000 -2.094343e+000 1.431134e+001
      vertex   9.811105e+000 -1.934482e+000 1.350881e+001
      vertex   1.700000e+001 -2.094343e+000 1.431134e+001
    endloop
  endfacet
  facet normal -3.348012e-003 4.338813e-001 -9.009638e-001
    outer loop
      vertex   1.700000e+001 1.305801e+000 1.267392e+001
      vertex   2.982245e+001 7.242741e-001 1.234622e+001
      vertex   1.700000e+001 4.660351e-001 1.226951e+001
    endloop
  endfacet
  facet normal -5.635397e-003 1.951503e-001 -9.807572e-001
    outer loop
      vertex   9.967741e+000 8.025787e-001 1.237688e+001
      vertex   1.700000e+001 4.660351e-001 1.226951e+001
      vertex   1.000000e+001 5.551115e-016 1.221700e+001
    endloop
  endfacet
  facet normal 7.007774e-003 4.338731e-001 -9.009467e-001
    outer loop
      vertex   9.967741e+000 8.025787e-001 1.237688e+001
      vertex   1.700000e+001 1.305801e+000 1.267392e+001
      vertex   1.700000e+001 4.660351e-001 1.226951e+001
    endloop
  endfacet
  facet normal -4.623540e-003 5.554455e-001 -8.315401e-001
    outer loop
      vertex   9.967741e+000 8.025787e-001 1.237688e+001
      vertex   9.889730e+000 1.480962e+000 1.283046e+001
      vertex   1.700000e+001 1.305801e+000 1.267392e+001
    endloop
  endfacet
  facet normal 5.533701e-003 7.818195e-001 -6.234803e-001
    outer loop
      vertex   1.700000e+001 1.305801e+000 1.267392e+001
      vertex   9.889730e+000 1.480962e+000 1.283046e+001
      vertex   1.700000e+001 1.886938e+000 1.340264e+001
    endloop
  endfacet
  facet normal -2.714575e-003 8.311763e-001 -5.560024e-001
    outer loop
      vertex   1.700000e+001 1.886938e+000 1.340264e+001
      vertex   9.889730e+000 1.480962e+000 1.283046e+001
      vertex   9.811105e+000 1.934482e+000 1.350881e+001
    endloop
  endfacet
  facet normal 9.863150e-017 9.807319e-001 -1.953585e-001
    outer loop
      vertex   1.700000e+001 2.094343e+000 1.431134e+001
      vertex   9.811105e+000 1.934482e+000 1.350881e+001
      vertex   9.778227e+000 2.094343e+000 1.431134e+001
    endloop
  endfacet
  facet normal -9.610561e-017 9.807319e-001 1.953585e-001
    outer loop
      vertex   9.811105e+000 1.934482e+000 1.511387e+001
      vertex   1.700000e+001 2.094343e+000 1.431134e+001
      vertex   9.778227e+000 2.094343e+000 1.431134e+001
    endloop
  endfacet
  facet normal 3.161310e-003 9.749230e-001 2.225198e-001
    outer loop
      vertex   9.811105e+000 1.934482e+000 1.511387e+001
      vertex   1.700000e+001 1.886938e+000 1.522004e+001
      vertex   1.700000e+001 2.094343e+000 1.431134e+001
    endloop
  endfacet
  facet normal -2.714575e-003 8.311763e-001 5.560024e-001
    outer loop
      vertex   9.811105e+000 1.934482e+000 1.511387e+001
      vertex   9.889730e+000 1.480962e+000 1.579223e+001
      vertex   1.700000e+001 1.886938e+000 1.522004e+001
    endloop
  endfacet
  facet normal 5.533701e-003 7.818195e-001 6.234803e-001
    outer loop
      vertex   1.700000e+001 1.886938e+000 1.522004e+001
      vertex   9.889730e+000 1.480962e+000 1.579223e+001
      vertex   1.700000e+001 1.305801e+000 1.594876e+001
    endloop
  endfacet
  facet normal 0.000000e+000 4.338837e-001 9.009689e-001
    outer loop
      vertex   3.400000e+001 1.305801e+000 1.594876e+001
      vertex   1.700000e+001 1.305801e+000 1.594876e+001
      vertex   3.400000e+001 4.660351e-001 1.635317e+001
    endloop
  endfacet
  facet normal 0.000000e+000 7.818315e-001 6.234898e-001
    outer loop
      vertex   3.400000e+001 1.305801e+000 1.594876e+001
      vertex   1.700000e+001 1.886938e+000 1.522004e+001
      vertex   1.700000e+001 1.305801e+000 1.594876e+001
    endloop
  endfacet
  facet normal 0.000000e+000 7.818315e-001 6.234898e-001
    outer loop
      vertex   3.400000e+001 1.305801e+000 1.594876e+001
      vertex   3.400000e+001 1.886938e+000 1.522004e+001
      vertex   1.700000e+001 1.886938e+000 1.522004e+001
    endloop
  endfacet
  facet normal -0.000000e+000 9.749279e-001 2.225209e-001
    outer loop
      vertex   1.700000e+001 1.886938e+000 1.522004e+001
      vertex   3.400000e+001 1.886938e+000 1.522004e+001
      vertex   1.700000e+001 2.094343e+000 1.431134e+001
    endloop
  endfacet
  facet normal 0.000000e+000 9.749279e-001 2.225209e-001
    outer loop
      vertex   1.700000e+001 2.094343e+000 1.431134e+001
      vertex   3.400000e+001 1.886938e+000 1.522004e+001
      vertex   3.400000e+001 2.094343e+000 1.431134e+001
    endloop
  endfacet
  facet normal 0.000000e+000 9.749279e-001 -2.225209e-001
    outer loop
      vertex   1.700000e+001 1.886938e+000 1.340264e+001
      vertex   3.400000e+001 2.094343e+000 1.431134e+001
      vertex   3.400000e+001 1.886938e+000 1.340264e+001
    endloop
  endfacet
  facet normal 6.523805e-003 8.360954e-001 -5.485453e-001
    outer loop
      vertex   3.146501e+001 1.795151e+000 1.323259e+001
      vertex   3.400000e+001 1.886938e+000 1.340264e+001
      vertex   3.215271e+001 1.658199e+000 1.303203e+001
    endloop
  endfacet
  facet normal 0.000000e+000 8.799928e-001 -4.749870e-001
    outer loop
      vertex   3.146501e+001 1.795151e+000 1.323259e+001
      vertex   1.700000e+001 1.886938e+000 1.340264e+001
      vertex   3.400000e+001 1.886938e+000 1.340264e+001
    endloop
  endfacet
  facet normal 2.362533e-003 -1.751597e-001 -9.845372e-001
    outer loop
      vertex   2.966985e+001 2.428613e-016 1.221700e+001
      vertex   2.982245e+001 -7.242741e-001 1.234622e+001
      vertex   1.700000e+001 -4.660351e-001 1.226951e+001
    endloop
  endfacet
  facet normal -3.348012e-003 -4.338813e-001 -9.009638e-001
    outer loop
      vertex   1.700000e+001 -4.660351e-001 1.226951e+001
      vertex   2.982245e+001 -7.242741e-001 1.234622e+001
      vertex   1.700000e+001 -1.305801e+000 1.267392e+001
    endloop
  endfacet
  facet normal -2.036383e-004 -4.875189e-001 -8.731124e-001
    outer loop
      vertex   1.700000e+001 -1.305801e+000 1.267392e+001
      vertex   2.982245e+001 -7.242741e-001 1.234622e+001
      vertex   3.021925e+001 -1.292542e+000 1.266343e+001
    endloop
  endfacet
  facet normal 1.531848e-004 -7.098141e-001 -7.043891e-001
    outer loop
      vertex   3.077730e+001 -1.658199e+000 1.303203e+001
      vertex   1.700000e+001 -1.305801e+000 1.267392e+001
      vertex   3.021925e+001 -1.292542e+000 1.266343e+001
    endloop
  endfacet
  facet normal -3.791646e-003 -7.818259e-001 -6.234853e-001
    outer loop
      vertex   3.077730e+001 -1.658199e+000 1.303203e+001
      vertex   1.700000e+001 -1.886938e+000 1.340264e+001
      vertex   1.700000e+001 -1.305801e+000 1.267392e+001
    endloop
  endfacet
  facet normal -1.338640e-003 -8.279674e-001 -5.607746e-001
    outer loop
      vertex   3.077730e+001 -1.658199e+000 1.303203e+001
      vertex   3.146501e+001 -1.795151e+000 1.323259e+001
      vertex   1.700000e+001 -1.886938e+000 1.340264e+001
    endloop
  endfacet
  facet normal 0.000000e+000 -8.799928e-001 -4.749870e-001
    outer loop
      vertex   1.700000e+001 -1.886938e+000 1.340264e+001
      vertex   3.146501e+001 -1.795151e+000 1.323259e+001
      vertex   3.400000e+001 -1.886938e+000 1.340264e+001
    endloop
  endfacet
  facet normal 0.000000e+000 -9.749279e-001 -2.225209e-001
    outer loop
      vertex   1.700000e+001 -2.094343e+000 1.431134e+001
      vertex   3.400000e+001 -1.886938e+000 1.340264e+001
      vertex   3.400000e+001 -2.094343e+000 1.431134e+001
    endloop
  endfacet
  facet normal 0.000000e+000 -9.749279e-001 2.225209e-001
    outer loop
      vertex   1.700000e+001 -1.886938e+000 1.522004e+001
      vertex   3.400000e+001 -2.094343e+000 1.431134e+001
      vertex   3.400000e+001 -1.886938e+000 1.522004e+001
    endloop
  endfacet
  facet normal -1.051003e-017 -7.818315e-001 6.234898e-001
    outer loop
      vertex   1.700000e+001 -1.305801e+000 1.594876e+001
      vertex   3.400000e+001 -1.886938e+000 1.522004e+001
      vertex   3.400000e+001 -1.305801e+000 1.594876e+001
    endloop
  endfacet
  facet normal 0.000000e+000 -4.338837e-001 9.009689e-001
    outer loop
      vertex   1.700000e+001 -4.660351e-001 1.635317e+001
      vertex   3.400000e+001 -1.305801e+000 1.594876e+001
      vertex   3.400000e+001 -4.660351e-001 1.635317e+001
    endloop
  endfacet
  facet normal -0.000000e+000 0.000000e+000 1.000000e+000
    outer loop
      vertex   1.700000e+001 4.660351e-001 1.635317e+001
      vertex   3.400000e+001 -4.660351e-001 1.635317e+001
      vertex   3.400000e+001 4.660351e-001 1.635317e+001
    endloop
  endfacet
  facet normal -0.000000e+000 4.338837e-001 9.009689e-001
    outer loop
      vertex   1.700000e+001 1.305801e+000 1.594876e+001
      vertex   1.700000e+001 4.660351e-001 1.635317e+001
      vertex   3.400000e+001 4.660351e-001 1.635317e+001
    endloop
  endfacet
  facet normal 7.007774e-003 4.338731e-001 9.009467e-001
    outer loop
      vertex   1.700000e+001 1.305801e+000 1.594876e+001
      vertex   9.967741e+000 8.025787e-001 1.624580e+001
      vertex   1.700000e+001 4.660351e-001 1.635317e+001
    endloop
  endfacet
  facet normal -4.623540e-003 5.554455e-001 8.315401e-001
    outer loop
      vertex   1.700000e+001 1.305801e+000 1.594876e+001
      vertex   9.889730e+000 1.480962e+000 1.579223e+001
      vertex   9.967741e+000 8.025787e-001 1.624580e+001
    endloop
  endfacet
  facet normal 6.523805e-003 -8.360954e-001 -5.485453e-001
    outer loop
      vertex   3.146501e+001 -1.795151e+000 1.323259e+001
      vertex   3.215271e+001 -1.658199e+000 1.303203e+001
      vertex   3.400000e+001 -1.886938e+000 1.340264e+001
    endloop
  endfacet
  facet normal 2.826747e-002 -7.815191e-001 -6.232407e-001
    outer loop
      vertex   3.400000e+001 -1.886938e+000 1.340264e+001
      vertex   3.215271e+001 -1.658199e+000 1.303203e+001
      vertex   3.400000e+001 -1.305801e+000 1.267392e+001
    endloop
  endfacet
  facet normal -1.551118e-003 -7.087541e-001 -7.054539e-001
    outer loop
      vertex   3.400000e+001 -1.305801e+000 1.267392e+001
      vertex   3.215271e+001 -1.658199e+000 1.303203e+001
      vertex   3.271076e+001 -1.292542e+000 1.266343e+001
    endloop
  endfacet
  facet normal 2.073246e-003 -4.885128e-001 -8.725542e-001
    outer loop
      vertex   3.310756e+001 -7.242741e-001 1.234622e+001
      vertex   3.400000e+001 -1.305801e+000 1.267392e+001
      vertex   3.271076e+001 -1.292542e+000 1.266343e+001
    endloop
  endfacet
  facet normal 4.804857e-002 -4.333826e-001 -8.999282e-001
    outer loop
      vertex   3.310756e+001 -7.242741e-001 1.234622e+001
      vertex   3.400000e+001 -4.660351e-001 1.226951e+001
      vertex   3.400000e+001 -1.305801e+000 1.267392e+001
    endloop
  endfacet
  facet normal -3.601558e-002 -1.681699e-001 -9.850999e-001
    outer loop
      vertex   3.310756e+001 -7.242741e-001 1.234622e+001
      vertex   3.326016e+001 -7.632783e-016 1.221700e+001
      vertex   3.400000e+001 -4.660351e-001 1.226951e+001
    endloop
  endfacet
  facet normal 7.079572e-002 0.000000e+000 -9.974908e-001
    outer loop
      vertex   3.400000e+001 -4.660351e-001 1.226951e+001
      vertex   3.326016e+001 -7.632783e-016 1.221700e+001
      vertex   3.400000e+001 4.660351e-001 1.226951e+001
    endloop
  endfacet
  facet normal -3.601558e-002 1.681699e-001 -9.850999e-001
    outer loop
      vertex   3.400000e+001 4.660351e-001 1.226951e+001
      vertex   3.326016e+001 -7.632783e-016 1.221700e+001
      vertex   3.310756e+001 7.242741e-001 1.234622e+001
    endloop
  endfacet
  facet normal 2.073246e-003 4.885128e-001 -8.725542e-001
    outer loop
      vertex   3.400000e+001 1.305801e+000 1.267392e+001
      vertex   3.310756e+001 7.242741e-001 1.234622e+001
      vertex   3.271076e+001 1.292542e+000 1.266343e+001
    endloop
  endfacet
  facet normal -1.551118e-003 7.087541e-001 -7.054539e-001
    outer loop
      vertex   3.215271e+001 1.658199e+000 1.303203e+001
      vertex   3.400000e+001 1.305801e+000 1.267392e+001
      vertex   3.271076e+001 1.292542e+000 1.266343e+001
    endloop
  endfacet
  facet normal 2.826747e-002 7.815191e-001 -6.232407e-001
    outer loop
      vertex   3.215271e+001 1.658199e+000 1.303203e+001
      vertex   3.400000e+001 1.886938e+000 1.340264e+001
      vertex   3.400000e+001 1.305801e+000 1.267392e+001
    endloop
  endfacet
  facet normal 4.804857e-002 4.333826e-001 -8.999282e-001
    outer loop
      vertex   3.400000e+001 4.660351e-001 1.226951e+001
      vertex   3.310756e+001 7.242741e-001 1.234622e+001
      vertex   3.400000e+001 1.305801e+000 1.267392e+001
    endloop
  endfacet
  facet normal 0.000000e+000 9.749279e-001 -2.225209e-001
    outer loop
      vertex   1.700000e+001 2.094343e+000 1.431134e+001
      vertex   3.400000e+001 2.094343e+000 1.431134e+001
      vertex   1.700000e+001 1.886938e+000 1.340264e+001
    endloop
  endfacet
  facet normal 3.161310e-003 9.749230e-001 -2.225198e-001
    outer loop
      vertex   9.811105e+000 1.934482e+000 1.350881e+001
      vertex   1.700000e+001 2.094343e+000 1.431134e+001
      vertex   1.700000e+001 1.886938e+000 1.340264e+001
    endloop
  endfacet
  facet normal 0.000000e+000 -9.749279e-001 -2.225209e-001
    outer loop
      vertex   1.700000e+001 -1.886938e+000 1.340264e+001
      vertex   3.400000e+001 -1.886938e+000 1.340264e+001
      vertex   1.700000e+001 -2.094343e+000 1.431134e+001
    endloop
  endfacet
  facet normal 0.000000e+000 -9.749279e-001 2.225209e-001
    outer loop
      vertex   1.700000e+001 -2.094343e+000 1.431134e+001
      vertex   3.400000e+001 -2.094343e+000 1.431134e+001
      vertex   1.700000e+001 -1.886938e+000 1.522004e+001
    endloop
  endfacet
  facet normal -2.714575e-003 -8.311763e-001 5.560024e-001
    outer loop
      vertex   9.811105e+000 -1.934482e+000 1.511387e+001
      vertex   1.700000e+001 -1.886938e+000 1.522004e+001
      vertex   9.889730e+000 -1.480962e+000 1.579223e+001
    endloop
  endfacet
  facet normal 3.161310e-003 -9.749230e-001 2.225198e-001
    outer loop
      vertex   9.811105e+000 -1.934482e+000 1.511387e+001
      vertex   1.700000e+001 -2.094343e+000 1.431134e+001
      vertex   1.700000e+001 -1.886938e+000 1.522004e+001
    endloop
  endfacet
  facet normal 0.000000e+000 -7.818315e-001 6.234898e-001
    outer loop
      vertex   1.700000e+001 -1.886938e+000 1.522004e+001
      vertex   3.400000e+001 -1.886938e+000 1.522004e+001
      vertex   1.700000e+001 -1.305801e+000 1.594876e+001
    endloop
  endfacet
  facet normal -4.623540e-003 -5.554455e-001 8.315401e-001
    outer loop
      vertex   9.889730e+000 -1.480962e+000 1.579223e+001
      vertex   1.700000e+001 -1.305801e+000 1.594876e+001
      vertex   9.967741e+000 -8.025787e-001 1.624580e+001
    endloop
  endfacet
  facet normal 5.533701e-003 -7.818195e-001 6.234803e-001
    outer loop
      vertex   9.889730e+000 -1.480962e+000 1.579223e+001
      vertex   1.700000e+001 -1.886938e+000 1.522004e+001
      vertex   1.700000e+001 -1.305801e+000 1.594876e+001
    endloop
  endfacet
  facet normal -5.667150e-018 -4.338837e-001 9.009689e-001
    outer loop
      vertex   1.700000e+001 -1.305801e+000 1.594876e+001
      vertex   3.400000e+001 -1.305801e+000 1.594876e+001
      vertex   1.700000e+001 -4.660351e-001 1.635317e+001
    endloop
  endfacet
  facet normal -5.635397e-003 -1.951503e-001 9.807572e-001
    outer loop
      vertex   9.967741e+000 -8.025787e-001 1.624580e+001
      vertex   1.700000e+001 -4.660351e-001 1.635317e+001
      vertex   1.000000e+001 6.938894e-017 1.640568e+001
    endloop
  endfacet
  facet normal 7.007774e-003 -4.338731e-001 9.009467e-001
    outer loop
      vertex   9.967741e+000 -8.025787e-001 1.624580e+001
      vertex   1.700000e+001 -1.305801e+000 1.594876e+001
      vertex   1.700000e+001 -4.660351e-001 1.635317e+001
    endloop
  endfacet
  facet normal 0.000000e+000 -0.000000e+000 1.000000e+000
    outer loop
      vertex   1.700000e+001 -4.660351e-001 1.635317e+001
      vertex   3.400000e+001 -4.660351e-001 1.635317e+001
      vertex   1.700000e+001 4.660351e-001 1.635317e+001
    endloop
  endfacet
  facet normal -5.635397e-003 1.951503e-001 9.807572e-001
    outer loop
      vertex   1.000000e+001 6.938894e-017 1.640568e+001
      vertex   1.700000e+001 4.660351e-001 1.635317e+001
      vertex   9.967741e+000 8.025787e-001 1.624580e+001
    endloop
  endfacet
  facet normal 7.501152e-003 -0.000000e+000 9.999719e-001
    outer loop
      vertex   1.000000e+001 6.938894e-017 1.640568e+001
      vertex   1.700000e+001 -4.660351e-001 1.635317e+001
      vertex   1.700000e+001 4.660351e-001 1.635317e+001
    endloop
  endfacet
  facet normal -2.714575e-003 -8.311763e-001 -5.560024e-001
    outer loop
      vertex   9.811105e+000 -1.934482e+000 1.350881e+001
      vertex   9.889730e+000 -1.480962e+000 1.283046e+001
      vertex   1.700000e+001 -1.886938e+000 1.340264e+001
    endloop
  endfacet
  facet normal -4.623540e-003 -5.554455e-001 -8.315401e-001
    outer loop
      vertex   9.889730e+000 -1.480962e+000 1.283046e+001
      vertex   9.967741e+000 -8.025787e-001 1.237688e+001
      vertex   1.700000e+001 -1.305801e+000 1.267392e+001
    endloop
  endfacet
  facet normal -5.635397e-003 -1.951503e-001 -9.807572e-001
    outer loop
      vertex   9.967741e+000 -8.025787e-001 1.237688e+001
      vertex   1.000000e+001 5.551115e-016 1.221700e+001
      vertex   1.700000e+001 -4.660351e-001 1.226951e+001
    endloop
  endfacet
  facet normal 1.777386e-018 1.119645e-001 -9.937122e-001
    outer loop
      vertex   2.966985e+001 2.428613e-016 1.221700e+001
      vertex   1.000000e+001 5.551115e-016 1.221700e+001
      vertex   1.700000e+001 4.660351e-001 1.226951e+001
    endloop
  endfacet
  facet normal 1.000000e+000 0.000000e+000 0.000000e+000
    outer loop
      vertex   3.400000e+001 2.094343e+000 1.431134e+001
      vertex   3.400000e+001 1.886938e+000 1.522004e+001
      vertex   3.400000e+001 1.886938e+000 1.340264e+001
    endloop
  endfacet
  facet normal 1.000000e+000 0.000000e+000 -0.000000e+000
    outer loop
      vertex   3.400000e+001 1.886938e+000 1.340264e+001
      vertex   3.400000e+001 1.886938e+000 1.522004e+001
      vertex   3.400000e+001 1.305801e+000 1.267392e+001
    endloop
  endfacet
  facet normal 1.000000e+000 0.000000e+000 -0.000000e+000
    outer loop
      vertex   3.400000e+001 1.305801e+000 1.267392e+001
      vertex   3.400000e+001 1.886938e+000 1.522004e+001
      vertex   3.400000e+001 1.305801e+000 1.594876e+001
    endloop
  endfacet
  facet normal 1.000000e+000 0.000000e+000 -0.000000e+000
    outer loop
      vertex   3.400000e+001 4.660351e-001 1.226951e+001
      vertex   3.400000e+001 1.305801e+000 1.594876e+001
      vertex   3.400000e+001 4.660351e-001 1.635317e+001
    endloop
  endfacet
  facet normal 1.000000e+000 0.000000e+000 -0.000000e+000
    outer loop
      vertex   3.400000e+001 -4.660351e-001 1.226951e+001
      vertex   3.400000e+001 4.660351e-001 1.635317e+001
      vertex   3.400000e+001 -4.660351e-001 1.635317e+001
    endloop
  endfacet
  facet normal 1.000000e+000 0.000000e+000 -0.000000e+000
    outer loop
      vertex   3.400000e+001 -1.305801e+000 1.267392e+001
      vertex   3.400000e+001 -4.660351e-001 1.635317e+001
      vertex   3.400000e+001 -1.305801e+000 1.594876e+001
    endloop
  endfacet
  facet normal 1.000000e+000 0.000000e+000 -0.000000e+000
    outer loop
      vertex   3.400000e+001 -1.886938e+000 1.340264e+001
      vertex   3.400000e+001 -1.305801e+000 1.594876e+001
      vertex   3.400000e+001 -1.886938e+000 1.522004e+001
    endloop
  endfacet
  facet normal 1.000000e+000 -0.000000e+000 0.000000e+000
    outer loop
      vertex   3.400000e+001 -2.094343e+000 1.431134e+001
      vertex   3.400000e+001 -1.886938e+000 1.340264e+001
      vertex   3.400000e+001 -1.886938e+000 1.522004e+001
    endloop
  endfacet
  facet normal 1.000000e+000 0.000000e+000 -0.000000e+000
    outer loop
      vertex   3.400000e+001 1.305801e+000 1.267392e+001
      vertex   3.400000e+001 1.305801e+000 1.594876e+001
      vertex   3.400000e+001 4.660351e-001 1.226951e+001
    endloop
  endfacet
  facet normal 1.000000e+000 0.000000e+000 -0.000000e+000
    outer loop
      vertex   3.400000e+001 4.660351e-001 1.226951e+001
      vertex   3.400000e+001 4.660351e-001 1.635317e+001
      vertex   3.400000e+001 -4.660351e-001 1.226951e+001
    endloop
  endfacet
  facet normal 1.000000e+000 0.000000e+000 -0.000000e+000
    outer loop
      vertex   3.400000e+001 -4.660351e-001 1.226951e+001
      vertex   3.400000e+001 -4.660351e-001 1.635317e+001
      vertex   3.400000e+001 -1.305801e+000 1.267392e+001
    endloop
  endfacet
  facet normal 1.000000e+000 0.000000e+000 -0.000000e+000
    outer loop
      vertex   3.400000e+001 -1.305801e+000 1.267392e+001
      vertex   3.400000e+001 -1.305801e+000 1.594876e+001
      vertex   3.400000e+001 -1.886938e+000 1.340264e+001
    endloop
  endfacet
  facet normal 9.724643e-001 2.329593e-001 -6.565161e-003
    outer loop
      vertex   9.811105e+000 1.934482e+000 1.350881e+001
      vertex   9.510565e+000 3.090170e+000 1.000000e+001
      vertex   9.778227e+000 2.094343e+000 1.431134e+001
    endloop
  endfacet
  facet normal 9.780331e-001 2.078874e-001 -1.530002e-002
    outer loop
      vertex   9.811105e+000 1.934482e+000 1.350881e+001
      vertex   9.945219e+000 1.045285e+000 1.000000e+001
      vertex   9.510565e+000 3.090170e+000 1.000000e+001
    endloop
  endfacet
  facet normal 9.828988e-001 1.839244e-001 -9.041398e-003
    outer loop
      vertex   9.811105e+000 1.934482e+000 1.350881e+001
      vertex   9.889730e+000 1.480962e+000 1.283046e+001
      vertex   9.945219e+000 1.045285e+000 1.000000e+001
    endloop
  endfacet
  facet normal 9.936096e-001 1.128520e-001 2.108386e-003
    outer loop
      vertex   9.945219e+000 1.045285e+000 1.000000e+001
      vertex   9.889730e+000 1.480962e+000 1.283046e+001
      vertex   9.967741e+000 8.025787e-001 1.237688e+001
    endloop
  endfacet
  facet normal 9.991368e-001 4.120686e-002 -5.259750e-003
    outer loop
      vertex   1.000000e+001 5.551115e-016 1.221700e+001
      vertex   9.945219e+000 1.045285e+000 1.000000e+001
      vertex   9.967741e+000 8.025787e-001 1.237688e+001
    endloop
  endfacet
  facet normal 9.996949e-001 0.000000e+000 -2.470201e-002
    outer loop
      vertex   1.000000e+001 5.551115e-016 1.221700e+001
      vertex   9.945219e+000 -1.045285e+000 1.000000e+001
      vertex   9.945219e+000 1.045285e+000 1.000000e+001
    endloop
  endfacet
  facet normal 9.991368e-001 -4.120686e-002 -5.259750e-003
    outer loop
      vertex   1.000000e+001 5.551115e-016 1.221700e+001
      vertex   9.967741e+000 -8.025787e-001 1.237688e+001
      vertex   9.945219e+000 -1.045285e+000 1.000000e+001
    endloop
  endfacet
  facet normal 9.936096e-001 -1.128520e-001 2.108386e-003
    outer loop
      vertex   9.945219e+000 -1.045285e+000 1.000000e+001
      vertex   9.967741e+000 -8.025787e-001 1.237688e+001
      vertex   9.889730e+000 -1.480962e+000 1.283046e+001
    endloop
  endfacet
  facet normal 9.828988e-001 -1.839244e-001 -9.041398e-003
    outer loop
      vertex   9.811105e+000 -1.934482e+000 1.350881e+001
      vertex   9.945219e+000 -1.045285e+000 1.000000e+001
      vertex   9.889730e+000 -1.480962e+000 1.283046e+001
    endloop
  endfacet
  facet normal 9.780331e-001 -2.078874e-001 -1.530002e-002
    outer loop
      vertex   9.811105e+000 -1.934482e+000 1.350881e+001
      vertex   9.510565e+000 -3.090170e+000 1.000000e+001
      vertex   9.945219e+000 -1.045285e+000 1.000000e+001
    endloop
  endfacet
  facet normal 9.724643e-001 -2.329593e-001 -6.565161e-003
    outer loop
      vertex   9.811105e+000 -1.934482e+000 1.350881e+001
      vertex   9.778227e+000 -2.094343e+000 1.431134e+001
      vertex   9.510565e+000 -3.090170e+000 1.000000e+001
    endloop
  endfacet
  facet normal 9.570061e-001 -2.899693e-001 7.562617e-003
    outer loop
      vertex   9.510565e+000 -3.090170e+000 1.000000e+001
      vertex   9.778227e+000 -2.094343e+000 1.431134e+001
      vertex   9.135455e+000 -4.067366e+000 2.000000e+001
    endloop
  endfacet
  facet normal 8.660124e-001 -4.999925e-001 5.478022e-003
    outer loop
      vertex   8.660254e+000 -5.000000e+000 1.000000e+001
      vertex   9.135455e+000 -4.067366e+000 2.000000e+001
      vertex   8.090170e+000 -5.877853e+000 2.000000e+001
    endloop
  endfacet
  facet normal 7.431337e-001 -6.691206e-001 5.478022e-003
    outer loop
      vertex   7.431448e+000 -6.691306e+000 1.000000e+001
      vertex   8.090170e+000 -5.877853e+000 2.000000e+001
      vertex   6.691306e+000 -7.431448e+000 2.000000e+001
    endloop
  endfacet
  facet normal 5.877764e-001 -8.090049e-001 5.478022e-003
    outer loop
      vertex   5.877853e+000 -8.090170e+000 1.000000e+001
      vertex   6.691306e+000 -7.431448e+000 2.000000e+001
      vertex   5.000000e+000 -8.660254e+000 2.000000e+001
    endloop
  endfacet
  facet normal 4.067305e-001 -9.135318e-001 5.478022e-003
    outer loop
      vertex   4.067366e+000 -9.135455e+000 1.000000e+001
      vertex   5.000000e+000 -8.660254e+000 2.000000e+001
      vertex   3.090170e+000 -9.510565e+000 2.000000e+001
    endloop
  endfacet
  facet normal 2.079086e-001 -9.781329e-001 5.478022e-003
    outer loop
      vertex   2.079117e+000 -9.781476e+000 1.000000e+001
      vertex   3.090170e+000 -9.510565e+000 2.000000e+001
      vertex   1.045285e+000 -9.945219e+000 2.000000e+001
    endloop
  endfacet
  facet normal 0.000000e+000 -9.999850e-001 5.478022e-003
    outer loop
      vertex   0.000000e+000 -1.000000e+001 1.000000e+001
      vertex   1.045285e+000 -9.945219e+000 2.000000e+001
      vertex   -1.045285e+000 -9.945219e+000 2.000000e+001
    endloop
  endfacet
  facet normal -2.079086e-001 -9.781329e-001 5.478022e-003
    outer loop
      vertex   -2.079117e+000 -9.781476e+000 1.000000e+001
      vertex   -1.045285e+000 -9.945219e+000 2.000000e+001
      vertex   -3.090170e+000 -9.510565e+000 2.000000e+001
    endloop
  endfacet
  facet normal -4.067305e-001 -9.135318e-001 5.478022e-003
    outer loop
      vertex   -4.067366e+000 -9.135455e+000 1.000000e+001
      vertex   -3.090170e+000 -9.510565e+000 2.000000e+001
      vertex   -5.000000e+000 -8.660254e+000 2.000000e+001
    endloop
  endfacet
  facet normal -5.877764e-001 -8.090049e-001 5.478022e-003
    outer loop
      vertex   -5.877853e+000 -8.090170e+000 1.000000e+001
      vertex   -5.000000e+000 -8.660254e+000 2.000000e+001
      vertex   -6.691306e+000 -7.431448e+000 2.000000e+001
    endloop
  endfacet
  facet normal -7.431337e-001 -6.691206e-001 5.478022e-003
    outer loop
      vertex   -7.431448e+000 -6.691306e+000 1.000000e+001
      vertex   -6.691306e+000 -7.431448e+000 2.000000e+001
      vertex   -8.090170e+000 -5.877853e+000 2.000000e+001
    endloop
  endfacet
  facet normal -8.660124e-001 -4.999925e-001 5.478022e-003
    outer loop
      vertex   -8.660254e+000 -5.000000e+000 1.000000e+001
      vertex   -8.090170e+000 -5.877853e+000 2.000000e+001
      vertex   -9.135455e+000 -4.067366e+000 2.000000e+001
    endloop
  endfacet
  facet normal -9.510422e-001 -3.090124e-001 5.478022e-003
    outer loop
      vertex   -9.510565e+000 -3.090170e+000 1.000000e+001
      vertex   -9.135455e+000 -4.067366e+000 2.000000e+001
      vertex   -9.781476e+000 -2.079117e+000 2.000000e+001
    endloop
  endfacet
  facet normal -9.945070e-001 -1.045269e-001 5.478022e-003
    outer loop
      vertex   -9.945219e+000 -1.045285e+000 1.000000e+001
      vertex   -9.781476e+000 -2.079117e+000 2.000000e+001
      vertex   -1.000000e+001 0.000000e+000 2.000000e+001
    endloop
  endfacet
  facet normal -9.945070e-001 1.045269e-001 5.478022e-003
    outer loop
      vertex   -9.945219e+000 1.045285e+000 1.000000e+001
      vertex   -1.000000e+001 0.000000e+000 2.000000e+001
      vertex   -9.781476e+000 2.079117e+000 2.000000e+001
    endloop
  endfacet
  facet normal -9.510422e-001 3.090124e-001 5.478022e-003
    outer loop
      vertex   -9.510565e+000 3.090170e+000 1.000000e+001
      vertex   -9.781476e+000 2.079117e+000 2.000000e+001
      vertex   -9.135455e+000 4.067366e+000 2.000000e+001
    endloop
  endfacet
  facet normal -8.660124e-001 4.999925e-001 5.478022e-003
    outer loop
      vertex   -8.660254e+000 5.000000e+000 1.000000e+001
      vertex   -9.135455e+000 4.067366e+000 2.000000e+001
      vertex   -8.090170e+000 5.877853e+000 2.000000e+001
    endloop
  endfacet
  facet normal -7.431337e-001 6.691206e-001 5.478022e-003
    outer loop
      vertex   -7.431448e+000 6.691306e+000 1.000000e+001
      vertex   -8.090170e+000 5.877853e+000 2.000000e+001
      vertex   -6.691306e+000 7.431448e+000 2.000000e+001
    endloop
  endfacet
  facet normal -5.877764e-001 8.090049e-001 5.478022e-003
    outer loop
      vertex   -5.877853e+000 8.090170e+000 1.000000e+001
      vertex   -6.691306e+000 7.431448e+000 2.000000e+001
      vertex   -5.000000e+000 8.660254e+000 2.000000e+001
    endloop
  endfacet
  facet normal -4.067305e-001 9.135318e-001 5.478022e-003
    outer loop
      vertex   -4.067366e+000 9.135455e+000 1.000000e+001
      vertex   -5.000000e+000 8.660254e+000 2.000000e+001
      vertex   -3.090170e+000 9.510565e+000 2.000000e+001
    endloop
  endfacet
  facet normal -2.079086e-001 9.781329e-001 5.478022e-003
    outer loop
      vertex   -2.079117e+000 9.781476e+000 1.000000e+001
      vertex   -3.090170e+000 9.510565e+000 2.000000e+001
      vertex   -1.045285e+000 9.945219e+000 2.000000e+001
    endloop
  endfacet
  facet normal -0.000000e+000 9.999850e-001 5.478022e-003
    outer loop
      vertex   0.000000e+000 1.000000e+001 1.000000e+001
      vertex   -1.045285e+000 9.945219e+000 2.000000e+001
      vertex   1.045285e+000 9.945219e+000 2.000000e+001
    endloop
  endfacet
  facet normal 2.079086e-001 9.781329e-001 5.478022e-003
    outer loop
      vertex   2.079117e+000 9.781476e+000 1.000000e+001
      vertex   1.045285e+000 9.945219e+000 2.000000e+001
      vertex   3.090170e+000 9.510565e+000 2.000000e+001
    endloop
  endfacet
  facet normal 4.067305e-001 9.135318e-001 5.478022e-003
    outer loop
      vertex   4.067366e+000 9.135455e+000 1.000000e+001
      vertex   3.090170e+000 9.510565e+000 2.000000e+001
      vertex   5.000000e+000 8.660254e+000 2.000000e+001
    endloop
  endfacet
  facet normal 5.877764e-001 8.090049e-001 5.478022e-003
    outer loop
      vertex   5.877853e+000 8.090170e+000 1.000000e+001
      vertex   5.000000e+000 8.660254e+000 2.000000e+001
      vertex   6.691306e+000 7.431448e+000 2.000000e+001
    endloop
  endfacet
  facet normal 7.431337e-001 6.691206e-001 5.478022e-003
    outer loop
      vertex   7.431448e+000 6.691306e+000 1.000000e+001
      vertex   6.691306e+000 7.431448e+000 2.000000e+001
      vertex   8.090170e+000 5.877853e+000 2.000000e+001
    endloop
  endfacet
  facet normal 8.660124e-001 4.999925e-001 5.478022e-003
    outer loop
      vertex   8.660254e+000 5.000000e+000 1.000000e+001
      vertex   8.090170e+000 5.877853e+000 2.000000e+001
      vertex   9.135455e+000 4.067366e+000 2.000000e+001
    endloop
  endfacet
  facet normal 9.510422e-001 3.090124e-001 5.478022e-003
    outer loop
      vertex   9.510565e+000 3.090170e+000 1.000000e+001
      vertex   9.135455e+000 4.067366e+000 2.000000e+001
      vertex   9.781476e+000 2.079117e+000 2.000000e+001
    endloop
  endfacet
  facet normal 9.795195e-001 2.013493e-001 -2.047815e-005
    outer loop
      vertex   9.778227e+000 2.094343e+000 1.431134e+001
      vertex   9.781476e+000 2.079117e+000 2.000000e+001
      vertex   9.811105e+000 1.934482e+000 1.511387e+001
    endloop
  endfacet
  facet normal 9.655666e-001 2.601558e-001 1.448864e-004
    outer loop
      vertex   9.778227e+000 2.094343e+000 1.431134e+001
      vertex   9.510565e+000 3.090170e+000 1.000000e+001
      vertex   9.781476e+000 2.079117e+000 2.000000e+001
    endloop
  endfacet
  facet normal 9.510565e-001 -3.090170e-001 2.839502e-004
    outer loop
      vertex   9.135455e+000 -4.067366e+000 2.000000e+001
      vertex   9.778227e+000 -2.094343e+000 1.431134e+001
      vertex   9.781476e+000 -2.079117e+000 2.000000e+001
    endloop
  endfacet
  facet normal 9.795195e-001 -2.013493e-001 -2.047815e-005
    outer loop
      vertex   9.781476e+000 -2.079117e+000 2.000000e+001
      vertex   9.778227e+000 -2.094343e+000 1.431134e+001
      vertex   9.811105e+000 -1.934482e+000 1.511387e+001
    endloop
  endfacet
  facet normal 9.850801e-001 -1.720939e-001 8.792338e-004
    outer loop
      vertex   9.889730e+000 -1.480962e+000 1.579223e+001
      vertex   9.781476e+000 -2.079117e+000 2.000000e+001
      vertex   9.811105e+000 -1.934482e+000 1.511387e+001
    endloop
  endfacet
  facet normal 9.927557e-001 -1.198490e-001 8.503571e-003
    outer loop
      vertex   9.889730e+000 -1.480962e+000 1.579223e+001
      vertex   9.967741e+000 -8.025787e-001 1.624580e+001
      vertex   9.781476e+000 -2.079117e+000 2.000000e+001
    endloop
  endfacet
  facet normal 9.944272e-001 -1.045185e-001 1.379934e-002
    outer loop
      vertex   9.781476e+000 -2.079117e+000 2.000000e+001
      vertex   9.967741e+000 -8.025787e-001 1.624580e+001
      vertex   1.000000e+001 1.224647e-015 2.000000e+001
    endloop
  endfacet
  facet normal 9.991932e-001 -4.016133e-002 1.201727e-017
    outer loop
      vertex   1.000000e+001 1.224647e-015 2.000000e+001
      vertex   9.967741e+000 -8.025787e-001 1.624580e+001
      vertex   1.000000e+001 6.938894e-017 1.640568e+001
    endloop
  endfacet
  facet normal 9.991932e-001 4.016133e-002 -1.290835e-017
    outer loop
      vertex   9.967741e+000 8.025787e-001 1.624580e+001
      vertex   1.000000e+001 1.224647e-015 2.000000e+001
      vertex   1.000000e+001 6.938894e-017 1.640568e+001
    endloop
  endfacet
  facet normal 9.918033e-001 1.264269e-001 1.850550e-002
    outer loop
      vertex   9.967741e+000 8.025787e-001 1.624580e+001
      vertex   9.889730e+000 1.480962e+000 1.579223e+001
      vertex   1.000000e+001 1.224647e-015 2.000000e+001
    endloop
  endfacet
  facet normal 9.597329e-001 2.719108e-001 7.055025e-002
    outer loop
      vertex   1.000000e+001 1.224647e-015 2.000000e+001
      vertex   9.889730e+000 1.480962e+000 1.579223e+001
      vertex   9.811105e+000 1.934482e+000 1.511387e+001
    endloop
  endfacet
  facet normal 9.945176e-001 1.045280e-001 2.936493e-003
    outer loop
      vertex   9.781476e+000 2.079117e+000 2.000000e+001
      vertex   1.000000e+001 1.224647e-015 2.000000e+001
      vertex   9.811105e+000 1.934482e+000 1.511387e+001
    endloop
  endfacet
  facet normal 9.135318e-001 -4.067305e-001 -5.478022e-003
    outer loop
      vertex   9.510565e+000 -3.090170e+000 1.000000e+001
      vertex   9.135455e+000 -4.067366e+000 2.000000e+001
      vertex   8.660254e+000 -5.000000e+000 1.000000e+001
    endloop
  endfacet
  facet normal 8.090049e-001 -5.877764e-001 -5.478022e-003
    outer loop
      vertex   8.660254e+000 -5.000000e+000 1.000000e+001
      vertex   8.090170e+000 -5.877853e+000 2.000000e+001
      vertex   7.431448e+000 -6.691306e+000 1.000000e+001
    endloop
  endfacet
  facet normal 6.691206e-001 -7.431337e-001 -5.478022e-003
    outer loop
      vertex   7.431448e+000 -6.691306e+000 1.000000e+001
      vertex   6.691306e+000 -7.431448e+000 2.000000e+001
      vertex   5.877853e+000 -8.090170e+000 1.000000e+001
    endloop
  endfacet
  facet normal 4.999925e-001 -8.660124e-001 -5.478022e-003
    outer loop
      vertex   5.877853e+000 -8.090170e+000 1.000000e+001
      vertex   5.000000e+000 -8.660254e+000 2.000000e+001
      vertex   4.067366e+000 -9.135455e+000 1.000000e+001
    endloop
  endfacet
  facet normal 3.090124e-001 -9.510422e-001 -5.478022e-003
    outer loop
      vertex   4.067366e+000 -9.135455e+000 1.000000e+001
      vertex   3.090170e+000 -9.510565e+000 2.000000e+001
      vertex   2.079117e+000 -9.781476e+000 1.000000e+001
    endloop
  endfacet
  facet normal 1.045269e-001 -9.945070e-001 -5.478022e-003
    outer loop
      vertex   2.079117e+000 -9.781476e+000 1.000000e+001
      vertex   1.045285e+000 -9.945219e+000 2.000000e+001
      vertex   0.000000e+000 -1.000000e+001 1.000000e+001
    endloop
  endfacet
  facet normal -1.045269e-001 -9.945070e-001 -5.478022e-003
    outer loop
      vertex   0.000000e+000 -1.000000e+001 1.000000e+001
      vertex   -1.045285e+000 -9.945219e+000 2.000000e+001
      vertex   -2.079117e+000 -9.781476e+000 1.000000e+001
    endloop
  endfacet
  facet normal -3.090124e-001 -9.510422e-001 -5.478022e-003
    outer loop
      vertex   -2.079117e+000 -9.781476e+000 1.000000e+001
      vertex   -3.090170e+000 -9.510565e+000 2.000000e+001
      vertex   -4.067366e+000 -9.135455e+000 1.000000e+001
    endloop
  endfacet
  facet normal -4.999925e-001 -8.660124e-001 -5.478022e-003
    outer loop
      vertex   -4.067366e+000 -9.135455e+000 1.000000e+001
      vertex   -5.000000e+000 -8.660254e+000 2.000000e+001
      vertex   -5.877853e+000 -8.090170e+000 1.000000e+001
    endloop
  endfacet
  facet normal -6.691206e-001 -7.431337e-001 -5.478022e-003
    outer loop
      vertex   -5.877853e+000 -8.090170e+000 1.000000e+001
      vertex   -6.691306e+000 -7.431448e+000 2.000000e+001
      vertex   -7.431448e+000 -6.691306e+000 1.000000e+001
    endloop
  endfacet
  facet normal -8.090049e-001 -5.877764e-001 -5.478022e-003
    outer loop
      vertex   -7.431448e+000 -6.691306e+000 1.000000e+001
      vertex   -8.090170e+000 -5.877853e+000 2.000000e+001
      vertex   -8.660254e+000 -5.000000e+000 1.000000e+001
    endloop
  endfacet
  facet normal -9.135318e-001 -4.067305e-001 -5.478022e-003
    outer loop
      vertex   -8.660254e+000 -5.000000e+000 1.000000e+001
      vertex   -9.135455e+000 -4.067366e+000 2.000000e+001
      vertex   -9.510565e+000 -3.090170e+000 1.000000e+001
    endloop
  endfacet
  facet normal -9.781329e-001 -2.079086e-001 -5.478022e-003
    outer loop
      vertex   -9.510565e+000 -3.090170e+000 1.000000e+001
      vertex   -9.781476e+000 -2.079117e+000 2.000000e+001
      vertex   -9.945219e+000 -1.045285e+000 1.000000e+001
    endloop
  endfacet
  facet normal -9.999850e-001 0.000000e+000 -5.478022e-003
    outer loop
      vertex   -9.945219e+000 -1.045285e+000 1.000000e+001
      vertex   -1.000000e+001 0.000000e+000 2.000000e+001
      vertex   -9.945219e+000 1.045285e+000 1.000000e+001
    endloop
  endfacet
  facet normal -9.781329e-001 2.079086e-001 -5.478022e-003
    outer loop
      vertex   -9.945219e+000 1.045285e+000 1.000000e+001
      vertex   -9.781476e+000 2.079117e+000 2.000000e+001
      vertex   -9.510565e+000 3.090170e+000 1.000000e+001
    endloop
  endfacet
  facet normal -9.135318e-001 4.067305e-001 -5.478022e-003
    outer loop
      vertex   -9.510565e+000 3.090170e+000 1.000000e+001
      vertex   -9.135455e+000 4.067366e+000 2.000000e+001
      vertex   -8.660254e+000 5.000000e+000 1.000000e+001
    endloop
  endfacet
  facet normal -8.090049e-001 5.877764e-001 -5.478022e-003
    outer loop
      vertex   -8.660254e+000 5.000000e+000 1.000000e+001
      vertex   -8.090170e+000 5.877853e+000 2.000000e+001
      vertex   -7.431448e+000 6.691306e+000 1.000000e+001
    endloop
  endfacet
  facet normal -6.691206e-001 7.431337e-001 -5.478022e-003
    outer loop
      vertex   -7.431448e+000 6.691306e+000 1.000000e+001
      vertex   -6.691306e+000 7.431448e+000 2.000000e+001
      vertex   -5.877853e+000 8.090170e+000 1.000000e+001
    endloop
  endfacet
  facet normal -4.999925e-001 8.660124e-001 -5.478022e-003
    outer loop
      vertex   -5.877853e+000 8.090170e+000 1.000000e+001
      vertex   -5.000000e+000 8.660254e+000 2.000000e+001
      vertex   -4.067366e+000 9.135455e+000 1.000000e+001
    endloop
  endfacet
  facet normal -3.090124e-001 9.510422e-001 -5.478022e-003
    outer loop
      vertex   -4.067366e+000 9.135455e+000 1.000000e+001
      vertex   -3.090170e+000 9.510565e+000 2.000000e+001
      vertex   -2.079117e+000 9.781476e+000 1.000000e+001
    endloop
  endfacet
  facet normal -1.045269e-001 9.945070e-001 -5.478022e-003
    outer loop
      vertex   -2.079117e+000 9.781476e+000 1.000000e+001
      vertex   -1.045285e+000 9.945219e+000 2.000000e+001
      vertex   0.000000e+000 1.000000e+001 1.000000e+001
    endloop
  endfacet
  facet normal 1.045269e-001 9.945070e-001 -5.478022e-003
    outer loop
      vertex   0.000000e+000 1.000000e+001 1.000000e+001
      vertex   1.045285e+000 9.945219e+000 2.000000e+001
      vertex   2.079117e+000 9.781476e+000 1.000000e+001
    endloop
  endfacet
  facet normal 3.090124e-001 9.510422e-001 -5.478022e-003
    outer loop
      vertex   2.079117e+000 9.781476e+000 1.000000e+001
      vertex   3.090170e+000 9.510565e+000 2.000000e+001
      vertex   4.067366e+000 9.135455e+000 1.000000e+001
    endloop
  endfacet
  facet normal 4.999925e-001 8.660124e-001 -5.478022e-003
    outer loop
      vertex   4.067366e+000 9.135455e+000 1.000000e+001
      vertex   5.000000e+000 8.660254e+000 2.000000e+001
      vertex   5.877853e+000 8.090170e+000 1.000000e+001
    endloop
  endfacet
  facet normal 6.691206e-001 7.431337e-001 -5.478022e-003
    outer loop
      vertex   5.877853e+000 8.090170e+000 1.000000e+001
      vertex   6.691306e+000 7.431448e+000 2.000000e+001
      vertex   7.431448e+000 6.691306e+000 1.000000e+001
    endloop
  endfacet
  facet normal 8.090049e-001 5.877764e-001 -5.478022e-003
    outer loop
      vertex   7.431448e+000 6.691306e+000 1.000000e+001
      vertex   8.090170e+000 5.877853e+000 2.000000e+001
      vertex   8.660254e+000 5.000000e+000 1.000000e+001
    endloop
  endfacet
  facet normal 9.135318e-001 4.067305e-001 -5.478022e-003
    outer loop
      vertex   8.660254e+000 5.000000e+000 1.000000e+001
      vertex   9.135455e+000 4.067366e+000 2.000000e+001
      vertex   9.510565e+000 3.090170e+000 1.000000e+001
    endloop
  endfacet
  facet normal 0.000000e+000 0.000000e+000 1.000000e+000
    outer loop
      vertex   9.781476e+000 2.079117e+000 2.000000e+001
      vertex   -9.781476e+000 2.079117e+000 2.000000e+001
      vertex   1.000000e+001 1.224647e-015 2.000000e+001
    endloop
  endfacet
  facet normal 0.000000e+000 0.000000e+000 1.000000e+000
    outer loop
      vertex   9.781476e+000 2.079117e+000 2.000000e+001
      vertex   -9.135455e+000 4.067366e+000 2.000000e+001
      vertex   -9.781476e+000 2.079117e+000 2.000000e+001
    endloop
  endfacet
  facet normal 0.000000e+000 0.000000e+000 1.000000e+000
    outer loop
      vertex   9.781476e+000 2.079117e+000 2.000000e+001
      vertex   9.135455e+000 4.067366e+000 2.000000e+001
      vertex   -9.135455e+000 4.067366e+000 2.000000e+001
    endloop
  endfacet
  facet normal 0.000000e+000 -0.000000e+000 1.000000e+000
    outer loop
      vertex   -9.135455e+000 4.067366e+000 2.000000e+001
      vertex   9.135455e+000 4.067366e+000 2.000000e+001
      vertex   -8.090170e+000 5.877853e+000 2.000000e+001
    endloop
  endfacet
  facet normal -0.000000e+000 -0.000000e+000 1.000000e+000
    outer loop
      vertex   -8.090170e+000 5.877853e+000 2.000000e+001
      vertex   9.135455e+000 4.067366e+000 2.000000e+001
      vertex   8.090170e+000 5.877853e+000 2.000000e+001
    endloop
  endfacet
  facet normal -0.000000e+000 -0.000000e+000 1.000000e+000
    outer loop
      vertex   -6.691306e+000 7.431448e+000 2.000000e+001
      vertex   8.090170e+000 5.877853e+000 2.000000e+001
      vertex   6.691306e+000 7.431448e+000 2.000000e+001
    endloop
  endfacet
  facet normal -0.000000e+000 -0.000000e+000 1.000000e+000
    outer loop
      vertex   -5.000000e+000 8.660254e+000 2.000000e+001
      vertex   6.691306e+000 7.431448e+000 2.000000e+001
      vertex   5.000000e+000 8.660254e+000 2.000000e+001
    endloop
  endfacet
  facet normal -0.000000e+000 -0.000000e+000 1.000000e+000
    outer loop
      vertex   -3.090170e+000 9.510565e+000 2.000000e+001
      vertex   5.000000e+000 8.660254e+000 2.000000e+001
      vertex   3.090170e+000 9.510565e+000 2.000000e+001
    endloop
  endfacet
  facet normal -0.000000e+000 -0.000000e+000 1.000000e+000
    outer loop
      vertex   -1.045285e+000 9.945219e+000 2.000000e+001
      vertex   3.090170e+000 9.510565e+000 2.000000e+001
      vertex   1.045285e+000 9.945219e+000 2.000000e+001
    endloop
  endfacet
  facet normal -0.000000e+000 0.000000e+000 1.000000e+000
    outer loop
      vertex   -1.045285e+000 9.945219e+000 2.000000e+001
      vertex   -3.090170e+000 9.510565e+000 2.000000e+001
      vertex   3.090170e+000 9.510565e+000 2.000000e+001
    endloop
  endfacet
  facet normal 0.000000e+000 -0.000000e+000 1.000000e+000
    outer loop
      vertex   -8.090170e+000 5.877853e+000 2.000000e+001
      vertex   8.090170e+000 5.877853e+000 2.000000e+001
      vertex   -6.691306e+000 7.431448e+000 2.000000e+001
    endloop
  endfacet
  facet normal -0.000000e+000 -0.000000e+000 1.000000e+000
    outer loop
      vertex   -6.691306e+000 7.431448e+000 2.000000e+001
      vertex   6.691306e+000 7.431448e+000 2.000000e+001
      vertex   -5.000000e+000 8.660254e+000 2.000000e+001
    endloop
  endfacet
  facet normal -0.000000e+000 -0.000000e+000 1.000000e+000
    outer loop
      vertex   -5.000000e+000 8.660254e+000 2.000000e+001
      vertex   5.000000e+000 8.660254e+000 2.000000e+001
      vertex   -3.090170e+000 9.510565e+000 2.000000e+001
    endloop
  endfacet
  facet normal -0.000000e+000 0.000000e+000 1.000000e+000
    outer loop
      vertex   -9.781476e+000 2.079117e+000 2.000000e+001
      vertex   -1.000000e+001 0.000000e+000 2.000000e+001
      vertex   1.000000e+001 1.224647e-015 2.000000e+001
    endloop
  endfacet
  facet normal 0.000000e+000 0.000000e+000 1.000000e+000
    outer loop
      vertex   1.000000e+001 1.224647e-015 2.000000e+001
      vertex   -1.000000e+001 0.000000e+000 2.000000e+001
      vertex   9.781476e+000 -2.079117e+000 2.000000e+001
    endloop
  endfacet
  facet normal 0.000000e+000 0.000000e+000 1.000000e+000
    outer loop
      vertex   9.781476e+000 -2.079117e+000 2.000000e+001
      vertex   -1.000000e+001 0.000000e+000 2.000000e+001
      vertex   -9.781476e+000 -2.079117e+000 2.000000e+001
    endloop
  endfacet
  facet normal 0.000000e+000 0.000000e+000 1.000000e+000
    outer loop
      vertex   9.135455e+000 -4.067366e+000 2.000000e+001
      vertex   -9.781476e+000 -2.079117e+000 2.000000e+001
      vertex   -9.135455e+000 -4.067366e+000 2.000000e+001
    endloop
  endfacet
  facet normal 0.000000e+000 0.000000e+000 1.000000e+000
    outer loop
      vertex   8.090170e+000 -5.877853e+000 2.000000e+001
      vertex   -9.135455e+000 -4.067366e+000 2.000000e+001
      vertex   -8.090170e+000 -5.877853e+000 2.000000e+001
    endloop
  endfacet
  facet normal 0.000000e+000 0.000000e+000 1.000000e+000
    outer loop
      vertex   6.691306e+000 -7.431448e+000 2.000000e+001
      vertex   -8.090170e+000 -5.877853e+000 2.000000e+001
      vertex   -6.691306e+000 -7.431448e+000 2.000000e+001
    endloop
  endfacet
  facet normal 0.000000e+000 0.000000e+000 1.000000e+000
    outer loop
      vertex   5.000000e+000 -8.660254e+000 2.000000e+001
      vertex   -6.691306e+000 -7.431448e+000 2.000000e+001
      vertex   -5.000000e+000 -8.660254e+000 2.000000e+001
    endloop
  endfacet
  facet normal 0.000000e+000 0.000000e+000 1.000000e+000
    outer loop
      vertex   3.090170e+000 -9.510565e+000 2.000000e+001
      vertex   -5.000000e+000 -8.660254e+000 2.000000e+001
      vertex   -3.090170e+000 -9.510565e+000 2.000000e+001
    endloop
  endfacet
  facet normal 0.000000e+000 0.000000e+000 1.000000e+000
    outer loop
      vertex   1.045285e+000 -9.945219e+000 2.000000e+001
      vertex   -3.090170e+000 -9.510565e+000 2.000000e+001
      vertex   -1.045285e+000 -9.945219e+000 2.000000e+001
    endloop
  endfacet
  facet normal 0.000000e+000 -0.000000e+000 1.000000e+000
    outer loop
      vertex   1.045285e+000 -9.945219e+000 2.000000e+001
      vertex   3.090170e+000 -9.510565e+000 2.000000e+001
      vertex   -3.090170e+000 -9.510565e+000 2.000000e+001
    endloop
  endfacet
  facet normal 0.000000e+000 0.000000e+000 1.000000e+000
    outer loop
      vertex   9.781476e+000 -2.079117e+000 2.000000e+001
      vertex   -9.781476e+000 -2.079117e+000 2.000000e+001
      vertex   9.135455e+000 -4.067366e+000 2.000000e+001
    endloop
  endfacet
  facet normal 0.000000e+000 0.000000e+000 1.000000e+000
    outer loop
      vertex   9.135455e+000 -4.067366e+000 2.000000e+001
      vertex   -9.135455e+000 -4.067366e+000 2.000000e+001
      vertex   8.090170e+000 -5.877853e+000 2.000000e+001
    endloop
  endfacet
  facet normal 0.000000e+000 0.000000e+000 1.000000e+000
    outer loop
      vertex   8.090170e+000 -5.877853e+000 2.000000e+001
      vertex   -8.090170e+000 -5.877853e+000 2.000000e+001
      vertex   6.691306e+000 -7.431448e+000 2.000000e+001
    endloop
  endfacet
  facet normal 0.000000e+000 0.000000e+000 1.000000e+000
    outer loop
      vertex   6.691306e+000 -7.431448e+000 2.000000e+001
      vertex   -6.691306e+000 -7.431448e+000 2.000000e+001
      vertex   5.000000e+000 -8.660254e+000 2.000000e+001
    endloop
  endfacet
  facet normal 0.000000e+000 0.000000e+000 1.000000e+000
    outer loop
      vertex   5.000000e+000 -8.660254e+000 2.000000e+001
      vertex   -5.000000e+000 -8.660254e+000 2.000000e+001
      vertex   3.090170e+000 -9.510565e+000 2.000000e+001
    endloop
  endfacet
  facet normal 0.000000e+000 0.000000e+000 1.000000e+000
    outer loop
      vertex   0.000000e+000 -1.000000e+001 1.000000e+001
      vertex   -2.079117e+000 -9.781476e+000 1.000000e+001
      vertex   -1.500000e+001 -1.000000e+001 1.000000e+001
    endloop
  endfacet
  facet normal 0.000000e+000 -0.000000e+000 1.000000e+000
    outer loop
      vertex   -1.500000e+001 -1.000000e+001 1.000000e+001
      vertex   -2.079117e+000 -9.781476e+000 1.000000e+001
      vertex   -4.067366e+000 -9.135455e+000 1.000000e+001
    endloop
  endfacet
  facet normal -0.000000e+000 0.000000e+000 1.000000e+000
    outer loop
      vertex   -5.877853e+000 -8.090170e+000 1.000000e+001
      vertex   -1.500000e+001 -1.000000e+001 1.000000e+001
      vertex   -4.067366e+000 -9.135455e+000 1.000000e+001
    endloop
  endfacet
  facet normal 0.000000e+000 0.000000e+000 1.000000e+000
    outer loop
      vertex   -5.877853e+000 -8.090170e+000 1.000000e+001
      vertex   -7.431448e+000 -6.691306e+000 1.000000e+001
      vertex   -1.500000e+001 -1.000000e+001 1.000000e+001
    endloop
  endfacet
  facet normal 0.000000e+000 -0.000000e+000 1.000000e+000
    outer loop
      vertex   -1.500000e+001 -1.000000e+001 1.000000e+001
      vertex   -7.431448e+000 -6.691306e+000 1.000000e+001
      vertex   -8.660254e+000 -5.000000e+000 1.000000e+001
    endloop
  endfacet
  facet normal -0.000000e+000 0.000000e+000 1.000000e+000
    outer loop
      vertex   -9.510565e+000 -3.090170e+000 1.000000e+001
      vertex   -1.500000e+001 -1.000000e+001 1.000000e+001
      vertex   -8.660254e+000 -5.000000e+000 1.000000e+001
    endloop
  endfacet
  facet normal 0.000000e+000 0.000000e+000 1.000000e+000
    outer loop
      vertex   -9.510565e+000 -3.090170e+000 1.000000e+001
      vertex   -9.945219e+000 -1.045285e+000 1.000000e+001
      vertex   -1.500000e+001 -1.000000e+001 1.000000e+001
    endloop
  endfacet
  facet normal 0.000000e+000 0.000000e+000 1.000000e+000
    outer loop
      vertex   -1.500000e+001 -1.000000e+001 1.000000e+001
      vertex   -9.945219e+000 -1.045285e+000 1.000000e+001
      vertex   -9.945219e+000 1.045285e+000 1.000000e+001
    endloop
  endfacet
  facet normal -0.000000e+000 0.000000e+000 1.000000e+000
    outer loop
      vertex   -1.500000e+001 1.000000e+001 1.000000e+001
      vertex   -9.945219e+000 1.045285e+000 1.000000e+001
      vertex   -9.510565e+000 3.090170e+000 1.000000e+001
    endloop
  endfacet
  facet normal 0.000000e+000 0.000000e+000 1.000000e+000
    outer loop
      vertex   -8.660254e+000 5.000000e+000 1.000000e+001
      vertex   -1.500000e+001 1.000000e+001 1.000000e+001
      vertex   -9.510565e+000 3.090170e+000 1.000000e+001
    endloop
  endfacet
  facet normal 0.000000e+000 -0.000000e+000 1.000000e+000
    outer loop
      vertex   -8.660254e+000 5.000000e+000 1.000000e+001
      vertex   -7.431448e+000 6.691306e+000 1.000000e+001
      vertex   -1.500000e+001 1.000000e+001 1.000000e+001
    endloop
  endfacet
  facet normal -0.000000e+000 0.000000e+000 1.000000e+000
    outer loop
      vertex   -1.500000e+001 1.000000e+001 1.000000e+001
      vertex   -7.431448e+000 6.691306e+000 1.000000e+001
      vertex   -5.877853e+000 8.090170e+000 1.000000e+001
    endloop
  endfacet
  facet normal 0.000000e+000 0.000000e+000 1.000000e+000
    outer loop
      vertex   -4.067366e+000 9.135455e+000 1.000000e+001
      vertex   -1.500000e+001 1.000000e+001 1.000000e+001
      vertex   -5.877853e+000 8.090170e+000 1.000000e+001
    endloop
  endfacet
  facet normal 0.000000e+000 -0.000000e+000 1.000000e+000
    outer loop
      vertex   -4.067366e+000 9.135455e+000 1.000000e+001
      vertex   -2.079117e+000 9.781476e+000 1.000000e+001
      vertex   -1.500000e+001 1.000000e+001 1.000000e+001
    endloop
  endfacet
  facet normal -0.000000e+000 0.000000e+000 1.000000e+000
    outer loop
      vertex   -1.500000e+001 1.000000e+001 1.000000e+001
      vertex   -2.079117e+000 9.781476e+000 1.000000e+001
      vertex   0.000000e+000 1.000000e+001 1.000000e+001
    endloop
  endfacet
  facet normal 0.000000e+000 -0.000000e+000 1.000000e+000
    outer loop
      vertex   -1.500000e+001 -1.000000e+001 1.000000e+001
      vertex   -9.945219e+000 1.045285e+000 1.000000e+001
      vertex   -1.500000e+001 1.000000e+001 1.000000e+001
    endloop
  endfacet
  facet normal -0.000000e+000 0.000000e+000 1.000000e+000
    outer loop
      vertex   0.000000e+000 1.000000e+001 1.000000e+001
      vertex   2.079117e+000 9.781476e+000 1.000000e+001
      vertex   1.500000e+001 1.000000e+001 1.000000e+001
    endloop
  endfacet
  facet normal 0.000000e+000 0.000000e+000 1.000000e+000
    outer loop
      vertex   1.500000e+001 1.000000e+001 1.000000e+001
      vertex   2.079117e+000 9.781476e+000 1.000000e+001
      vertex   4.067366e+000 9.135455e+000 1.000000e+001
    endloop
  endfacet
  facet normal 0.000000e+000 -0.000000e+000 1.000000e+000
    outer loop
      vertex   5.877853e+000 8.090170e+000 1.000000e+001
      vertex   1.500000e+001 1.000000e+001 1.000000e+001
      vertex   4.067366e+000 9.135455e+000 1.000000e+001
    endloop
  endfacet
  facet normal -0.000000e+000 0.000000e+000 1.000000e+000
    outer loop
      vertex   5.877853e+000 8.090170e+000 1.000000e+001
      vertex   7.431448e+000 6.691306e+000 1.000000e+001
      vertex   1.500000e+001 1.000000e+001 1.000000e+001
    endloop
  endfacet
  facet normal 0.000000e+000 0.000000e+000 1.000000e+000
    outer loop
      vertex   1.500000e+001 1.000000e+001 1.000000e+001
      vertex   7.431448e+000 6.691306e+000 1.000000e+001
      vertex   8.660254e+000 5.000000e+000 1.000000e+001
    endloop
  endfacet
  facet normal 0.000000e+000 -0.000000e+000 1.000000e+000
    outer loop
      vertex   9.510565e+000 3.090170e+000 1.000000e+001
      vertex   1.500000e+001 1.000000e+001 1.000000e+001
      vertex   8.660254e+000 5.000000e+000 1.000000e+001
    endloop
  endfacet
  facet normal -0.000000e+000 0.000000e+000 1.000000e+000
    outer loop
      vertex   9.510565e+000 3.090170e+000 1.000000e+001
      vertex   9.945219e+000 1.045285e+000 1.000000e+001
      vertex   1.500000e+001 1.000000e+001 1.000000e+001
    endloop
  endfacet
  facet normal 0.000000e+000 0.000000e+000 1.000000e+000
    outer loop
      vertex   1.500000e+001 1.000000e+001 1.000000e+001
      vertex   9.945219e+000 1.045285e+000 1.000000e+001
      vertex   1.500000e+001 -1.000000e+001 1.000000e+001
    endloop
  endfacet
  facet normal 0.000000e+000 0.000000e+000 1.000000e+000
    outer loop
      vertex   1.500000e+001 -1.000000e+001 1.000000e+001
      vertex   9.945219e+000 1.045285e+000 1.000000e+001
      vertex   9.945219e+000 -1.045285e+000 1.000000e+001
    endloop
  endfacet
  facet normal -0.000000e+000 -0.000000e+000 1.000000e+000
    outer loop
      vertex   9.510565e+000 -3.090170e+000 1.000000e+001
      vertex   1.500000e+001 -1.000000e+001 1.000000e+001
      vertex   9.945219e+000 -1.045285e+000 1.000000e+001
    endloop
  endfacet
  facet normal 0.000000e+000 0.000000e+000 1.000000e+000
    outer loop
      vertex   9.510565e+000 -3.090170e+000 1.000000e+001
      vertex   8.660254e+000 -5.000000e+000 1.000000e+001
      vertex   1.500000e+001 -1.000000e+001 1.000000e+001
    endloop
  endfacet
  facet normal 0.000000e+000 0.000000e+000 1.000000e+000
    outer loop
      vertex   1.500000e+001 -1.000000e+001 1.000000e+001
      vertex   8.660254e+000 -5.000000e+000 1.000000e+001
      vertex   7.431448e+000 -6.691306e+000 1.000000e+001
    endloop
  endfacet
  facet normal -0.000000e+000 -0.000000e+000 1.000000e+000
    outer loop
      vertex   5.877853e+000 -8.090170e+000 1.000000e+001
      vertex   1.500000e+001 -1.000000e+001 1.000000e+001
      vertex   7.431448e+000 -6.691306e+000 1.000000e+001
    endloop
  endfacet
  facet normal 0.000000e+000 0.000000e+000 1.000000e+000
    outer loop
      vertex   5.877853e+000 -8.090170e+000 1.000000e+001
      vertex   4.067366e+000 -9.135455e+000 1.000000e+001
      vertex   1.500000e+001 -1.000000e+001 1.000000e+001
    endloop
  endfacet
  facet normal 0.000000e+000 0.000000e+000 1.000000e+000
    outer loop
      vertex   1.500000e+001 -1.000000e+001 1.000000e+001
      vertex   4.067366e+000 -9.135455e+000 1.000000e+001
      vertex   2.079117e+000 -9.781476e+000 1.000000e+001
    endloop
  endfacet
  facet normal 0.000000e+000 -0.000000e+000 1.000000e+000
    outer loop
      vertex   0.000000e+000 -1.000000e+001 1.000000e+001
      vertex   1.500000e+001 -1.000000e+001 1.000000e+001
      vertex   2.079117e+000 -9.781476e+000 1.000000e+001
    endloop
  endfacet
  facet normal -1.000000e+000 0.000000e+000 0.000000e+000
    outer loop
      vertex   -1.500000e+001 1.000000e+001 0.000000e+000
      vertex   -1.500000e+001 -1.000000e+001 0.000000e+000
      vertex   -1.500000e+001 1.000000e+001 1.000000e+001
    endloop
  endfacet
  facet normal -1.000000e+000 -0.000000e+000 0.000000e+000
    outer loop
      vertex   -1.500000e+001 1.000000e+001 1.000000e+001
      vertex   -1.500000e+001 -1.000000e+001 0.000000e+000
      vertex   -1.500000e+001 -1.000000e+001 1.000000e+001
    endloop
  endfacet
  facet normal 0.000000e+000 1.000000e+000 0.000000e+000
    outer loop
      vertex   1.500000e+001 1.000000e+001 1.000000e+001
      vertex   1.500000e+001 1.000000e+001 0.000000e+000
      vertex   0.000000e+000 1.000000e+001 1.000000e+001
    endloop
  endfacet
  facet normal 0.000000e+000 1.000000e+000 0.000000e+000
    outer loop
      vertex   0.000000e+000 1.000000e+001 1.000000e+001
      vertex   1.500000e+001 1.000000e+001 0.000000e+000
      vertex   -1.500000e+001 1.000000e+001 0.000000e+000
    endloop
  endfacet
  facet normal -0.000000e+000 1.000000e+000 0.000000e+000
    outer loop
      vertex   -1.500000e+001 1.000000e+001 1.000000e+001
      vertex   0.000000e+000 1.000000e+001 1.000000e+001
      vertex   -1.500000e+001 1.000000e+001 0.000000e+000
    endloop
  endfacet
  facet normal 1.000000e+000 0.000000e+000 -0.000000e+000
    outer loop
      vertex   1.500000e+001 -1.000000e+001 0.000000e+000
      vertex   1.500000e+001 1.000000e+001 0.000000e+000
      vertex   1.500000e+001 -1.000000e+001 1.000000e+001
    endloop
  endfacet
  facet normal 1.000000e+000 -0.000000e+000 0.000000e+000
    outer loop
      vertex   1.500000e+001 -1.000000e+001 1.000000e+001
      vertex   1.500000e+001 1.000000e+001 0.000000e+000
      vertex   1.500000e+001 1.000000e+001 1.000000e+001
    endloop
  endfacet
  facet normal 0.000000e+000 -1.000000e+000 0.000000e+000
    outer loop
      vertex   -1.500000e+001 -1.000000e+001 1.000000e+001
      vertex   -1.500000e+001 -1.000000e+001 0.000000e+000
      vertex   0.000000e+000 -1.000000e+001 1.000000e+001
    endloop
  endfacet
  facet normal 0.000000e+000 -1.000000e+000 -0.000000e+000
    outer loop
      vertex   0.000000e+000 -1.000000e+001 1.000000e+001
      vertex   -1.500000e+001 -1.000000e+001 0.000000e+000
      vertex   1.500000e+001 -1.000000e+001 0.000000e+000
    endloop
  endfacet
  facet normal -0.000000e+000 -1.000000e+000 -0.000000e+000
    outer loop
      vertex   1.500000e+001 -1.000000e+001 1.000000e+001
      vertex   0.000000e+000 -1.000000e+001 1.000000e+001
      vertex   1.500000e+001 -1.000000e+001 0.000000e+000
    endloop
  endfacet
  facet normal 0.000000e+000 0.000000e+000 -1.000000e+000
    outer loop
      vertex   1.500000e+001 -1.000000e+001 0.000000e+000
      vertex   -1.500000e+001 -1.000000e+001 0.000000e+000
      vertex   1.500000e+001 1.000000e+001 0.000000e+000
    endloop
  endfacet
  facet normal -0.000000e+000 0.000000e+000 -1.000000e+000
    outer loop
      vertex   1.500000e+001 1.000000e+001 0.000000e+000
      vertex   -1.500000e+001 -1.000000e+001 0.000000e+000
      vertex   -1.500000e+001 1.000000e+001 0.000000e+000
    endloop
  endfacet
endsolid
