solid 
facet normal 0.995623 0.038992 0.084944
outer loop
vertex -112.95890000 349.01630000 327.31200000
vertex -109.97690000 272.87470000 327.31200000
vertex -112.50170000 349.03410000 321.94500000
endloop
endfacet
facet normal 0.966948 0.037869 0.252147
outer loop
vertex -112.95890000 349.01630000 327.31200000
vertex -111.33330000 272.82140000 332.52160000
vertex -109.97690000 272.87470000 327.31200000
endloop
endfacet
facet normal 0.966952 0.037868 0.252130
outer loop
vertex -112.95890000 349.01630000 327.31200000
vertex -114.31520000 348.96300000 332.52160000
vertex -111.33330000 272.82140000 332.52160000
endloop
endfacet
facet normal 0.910462 0.035656 0.412053
outer loop
vertex -111.33330000 272.82140000 332.52160000
vertex -114.31520000 348.96300000 332.52160000
vertex -113.55070000 272.73250000 337.42880000
endloop
endfacet
facet normal 0.910644 0.035632 0.411653
outer loop
vertex -113.55070000 272.73250000 337.42880000
vertex -114.31520000 348.96300000 332.52160000
vertex -116.53010000 348.87660000 337.42880000
endloop
endfacet
facet normal 0.827786 0.032419 0.560107
outer loop
vertex -116.56310000 272.61570000 341.89160000
vertex -116.53010000 348.87660000 337.42880000
vertex -119.54510000 348.75720000 341.89160000
endloop
endfacet
facet normal 0.721237 0.028245 0.692112
outer loop
vertex -120.28680000 272.47090000 345.77780000
vertex -119.54510000 348.75720000 341.89160000
vertex -123.26870000 348.61250000 345.77780000
endloop
endfacet
facet normal 0.594328 0.023276 0.803886
outer loop
vertex -124.61240000 272.30070000 348.98080000
vertex -123.26870000 348.61250000 345.77780000
vertex -127.59440000 348.44230000 348.98080000
endloop
endfacet
facet normal 0.449994 0.017623 0.892858
outer loop
vertex -129.41810000 272.11270000 351.40650000
vertex -127.59440000 348.44230000 348.98080000
vertex -132.40000000 348.25430000 351.40650000
endloop
endfacet
facet normal 0.292331 0.011448 0.956249
outer loop
vertex -134.56160000 271.91210000 352.98130000
vertex -132.40000000 348.25430000 351.40650000
vertex -137.54350000 348.05370000 352.98130000
endloop
endfacet
facet normal 0.127207 0.004982 0.991864
outer loop
vertex -139.90070000 271.70130000 353.66710000
vertex -137.54350000 348.05370000 352.98130000
vertex -142.88260000 347.84280000 353.66710000
endloop
endfacet
facet normal -0.042429 -0.001662 0.999098
outer loop
vertex -145.27530000 271.49040000 353.43850000
vertex -142.88260000 347.84280000 353.66710000
vertex -148.25730000 347.63200000 353.43850000
endloop
endfacet
facet normal -0.210669 -0.008251 0.977523
outer loop
vertex -150.53560000 271.28470000 352.30310000
vertex -148.25730000 347.63200000 353.43850000
vertex -153.51760000 347.42630000 352.30310000
endloop
endfacet
facet normal -0.372326 -0.014581 0.927987
outer loop
vertex -155.52930000 271.08910000 350.29650000
vertex -153.51760000 347.42630000 352.30310000
vertex -158.51120000 347.23070000 350.29650000
endloop
endfacet
facet normal -0.524041 -0.020523 0.851446
outer loop
vertex -160.11140000 270.91130000 347.47200000
vertex -158.51120000 347.23070000 350.29650000
vertex -163.09340000 347.05290000 347.47200000
endloop
endfacet
facet normal -0.660305 -0.025838 0.750553
outer loop
vertex -164.15260000 270.75130000 343.91350000
vertex -163.09340000 347.05290000 347.47200000
vertex -167.13200000 346.89290000 343.91350000
endloop
endfacet
facet normal -0.777322 -0.030442 0.628366
outer loop
vertex -167.53080000 270.61920000 339.72500000
vertex -167.13200000 346.89290000 343.91350000
vertex -170.51270000 346.76080000 339.72500000
endloop
endfacet
facet normal -0.872390 -0.034138 0.487617
outer loop
vertex -170.15710000 270.51760000 335.02350000
vertex -170.51270000 346.76080000 339.72500000
vertex -173.13660000 346.65920000 335.02350000
endloop
endfacet
facet normal -0.942119 -0.036897 0.333241
outer loop
vertex -171.94780000 270.44650000 329.94600000
vertex -173.13660000 346.65920000 335.02350000
vertex -174.92980000 346.58810000 329.94600000
endloop
endfacet
facet normal -0.984869 -0.038570 0.168955
outer loop
vertex -172.85720000 270.41090000 324.63740000
vertex -174.92980000 346.58810000 329.94600000
vertex -175.83910000 346.55250000 324.63740000
endloop
endfacet
facet normal -0.999234 -0.039133 -0.000000
outer loop
vertex -172.85720000 270.41090000 319.25260000
vertex -175.83910000 346.55250000 324.63740000
vertex -175.83910000 346.55250000 319.25260000
endloop
endfacet
facet normal -0.984869 -0.038571 -0.168955
outer loop
vertex -171.94780000 270.44650000 313.94400000
vertex -175.83910000 346.55250000 319.25260000
vertex -174.92980000 346.58810000 313.94400000
endloop
endfacet
facet normal -0.942121 -0.036866 -0.333241
outer loop
vertex -170.15710000 270.51760000 308.86650000
vertex -174.92980000 346.58810000 313.94400000
vertex -173.13660000 346.65920000 308.86650000
endloop
endfacet
facet normal -0.872389 -0.034165 -0.487617
outer loop
vertex -167.53080000 270.61920000 304.16500000
vertex -173.13660000 346.65920000 308.86650000
vertex -170.51270000 346.76080000 304.16500000
endloop
endfacet
facet normal -0.777323 -0.030416 -0.628366
outer loop
vertex -164.15260000 270.75130000 299.97650000
vertex -170.51270000 346.76080000 304.16500000
vertex -167.13200000 346.89290000 299.97650000
endloop
endfacet
facet normal -0.660304 -0.025860 -0.750553
outer loop
vertex -160.11140000 270.91130000 296.41800000
vertex -167.13200000 346.89290000 299.97650000
vertex -163.09340000 347.05290000 296.41800000
endloop
endfacet
facet normal -0.524041 -0.020523 -0.851446
outer loop
vertex -155.52930000 271.08910000 293.59350000
vertex -163.09340000 347.05290000 296.41800000
vertex -158.51120000 347.23070000 293.59350000
endloop
endfacet
facet normal -0.372326 -0.014582 -0.927987
outer loop
vertex -150.53560000 271.28470000 291.58690000
vertex -158.51120000 347.23070000 293.59350000
vertex -153.51760000 347.42630000 291.58690000
endloop
endfacet
facet normal -0.210669 -0.008251 -0.977523
outer loop
vertex -145.27530000 271.49040000 290.45150000
vertex -153.51760000 347.42630000 291.58690000
vertex -148.25730000 347.63200000 290.45150000
endloop
endfacet
facet normal -0.042429 -0.001662 -0.999098
outer loop
vertex -139.90070000 271.70130000 290.22290000
vertex -148.25730000 347.63200000 290.45150000
vertex -142.88260000 347.84280000 290.22290000
endloop
endfacet
facet normal 0.127207 0.004982 -0.991864
outer loop
vertex -134.56160000 271.91210000 290.90870000
vertex -142.88260000 347.84280000 290.22290000
vertex -137.54350000 348.05370000 290.90870000
endloop
endfacet
facet normal 0.292331 0.011448 -0.956249
outer loop
vertex -129.41810000 272.11270000 292.48350000
vertex -137.54350000 348.05370000 290.90870000
vertex -132.40000000 348.25430000 292.48350000
endloop
endfacet
facet normal 0.449994 0.017624 -0.892858
outer loop
vertex -124.61240000 272.30070000 294.90920000
vertex -132.40000000 348.25430000 292.48350000
vertex -127.59440000 348.44230000 294.90920000
endloop
endfacet
facet normal 0.594328 0.023275 -0.803886
outer loop
vertex -120.28680000 272.47090000 298.11220000
vertex -127.59440000 348.44230000 294.90920000
vertex -123.26870000 348.61250000 298.11220000
endloop
endfacet
facet normal 0.721237 0.028246 -0.692112
outer loop
vertex -116.56310000 272.61570000 301.99840000
vertex -123.26870000 348.61250000 298.11220000
vertex -119.54510000 348.75720000 301.99840000
endloop
endfacet
facet normal 0.827787 0.032390 -0.560107
outer loop
vertex -113.55070000 272.73250000 306.46120000
vertex -119.54510000 348.75720000 301.99840000
vertex -116.53010000 348.87660000 306.46120000
endloop
endfacet
facet normal 0.910643 0.035663 -0.411653
outer loop
vertex -111.33330000 272.82140000 311.36840000
vertex -116.53010000 348.87660000 306.46120000
vertex -114.31520000 348.96300000 311.36840000
endloop
endfacet
facet normal 0.966952 0.037870 -0.252130
outer loop
vertex -109.97690000 272.87470000 316.57800000
vertex -114.31520000 348.96300000 311.36840000
vertex -112.95890000 349.01630000 316.57800000
endloop
endfacet
facet normal 0.995624 0.038958 -0.084944
outer loop
vertex -109.52230000 272.89250000 321.94500000
vertex -112.95890000 349.01630000 316.57800000
vertex -112.50170000 349.03410000 321.94500000
endloop
endfacet
facet normal 0.995664 0.038960 0.084465
outer loop
vertex -109.97690000 272.87470000 327.31200000
vertex -109.52230000 272.89250000 321.94500000
vertex -112.50170000 349.03410000 321.94500000
endloop
endfacet
facet normal 0.828019 0.032399 0.559763
outer loop
vertex -113.55070000 272.73250000 337.42880000
vertex -116.53010000 348.87660000 337.42880000
vertex -116.56310000 272.61570000 341.89160000
endloop
endfacet
facet normal 0.721228 0.028246 0.692122
outer loop
vertex -116.56310000 272.61570000 341.89160000
vertex -119.54510000 348.75720000 341.89160000
vertex -120.28680000 272.47090000 345.77780000
endloop
endfacet
facet normal 0.594337 0.023276 0.803879
outer loop
vertex -120.28680000 272.47090000 345.77780000
vertex -123.26870000 348.61250000 345.77780000
vertex -124.61240000 272.30070000 348.98080000
endloop
endfacet
facet normal 0.449987 0.017623 0.892861
outer loop
vertex -124.61240000 272.30070000 348.98080000
vertex -127.59440000 348.44230000 348.98080000
vertex -129.41810000 272.11270000 351.40650000
endloop
endfacet
facet normal 0.292331 0.011448 0.956249
outer loop
vertex -129.41810000 272.11270000 351.40650000
vertex -132.40000000 348.25430000 351.40650000
vertex -134.56160000 271.91210000 352.98130000
endloop
endfacet
facet normal 0.127207 0.004982 0.991864
outer loop
vertex -134.56160000 271.91210000 352.98130000
vertex -137.54350000 348.05370000 352.98130000
vertex -139.90070000 271.70130000 353.66710000
endloop
endfacet
facet normal -0.042430 -0.001662 0.999098
outer loop
vertex -139.90070000 271.70130000 353.66710000
vertex -142.88260000 347.84280000 353.66710000
vertex -145.27530000 271.49040000 353.43850000
endloop
endfacet
facet normal -0.210669 -0.008251 0.977523
outer loop
vertex -145.27530000 271.49040000 353.43850000
vertex -148.25730000 347.63200000 353.43850000
vertex -150.53560000 271.28470000 352.30310000
endloop
endfacet
facet normal -0.372320 -0.014581 0.927990
outer loop
vertex -150.53560000 271.28470000 352.30310000
vertex -153.51760000 347.42630000 352.30310000
vertex -155.52930000 271.08910000 350.29650000
endloop
endfacet
facet normal -0.524049 -0.020523 0.851441
outer loop
vertex -155.52930000 271.08910000 350.29650000
vertex -158.51120000 347.23070000 350.29650000
vertex -160.11140000 270.91130000 347.47200000
endloop
endfacet
facet normal -0.660065 -0.025851 0.750763
outer loop
vertex -160.11140000 270.91130000 347.47200000
vertex -163.09340000 347.05290000 347.47200000
vertex -164.15260000 270.75130000 343.91350000
endloop
endfacet
facet normal -0.777549 -0.030425 0.628085
outer loop
vertex -164.15260000 270.75130000 343.91350000
vertex -167.13200000 346.89290000 343.91350000
vertex -167.53080000 270.61920000 339.72500000
endloop
endfacet
facet normal -0.872199 -0.034158 0.487957
outer loop
vertex -167.53080000 270.61920000 339.72500000
vertex -170.51270000 346.76080000 339.72500000
vertex -170.15710000 270.51760000 335.02350000
endloop
endfacet
facet normal -0.942266 -0.036872 0.332829
outer loop
vertex -170.15710000 270.51760000 335.02350000
vertex -173.13660000 346.65920000 335.02350000
vertex -171.94780000 270.44650000 329.94600000
endloop
endfacet
facet normal -0.984866 -0.038571 0.168973
outer loop
vertex -171.94780000 270.44650000 329.94600000
vertex -174.92980000 346.58810000 329.94600000
vertex -172.85720000 270.41090000 324.63740000
endloop
endfacet
facet normal -0.999234 -0.039133 0.000000
outer loop
vertex -172.85720000 270.41090000 324.63740000
vertex -175.83910000 346.55250000 324.63740000
vertex -172.85720000 270.41090000 319.25260000
endloop
endfacet
facet normal -0.984866 -0.038570 -0.168973
outer loop
vertex -172.85720000 270.41090000 319.25260000
vertex -175.83910000 346.55250000 319.25260000
vertex -171.94780000 270.44650000 313.94400000
endloop
endfacet
facet normal -0.942265 -0.036903 -0.332829
outer loop
vertex -171.94780000 270.44650000 313.94400000
vertex -174.92980000 346.58810000 313.94400000
vertex -170.15710000 270.51760000 308.86650000
endloop
endfacet
facet normal -0.872200 -0.034130 -0.487957
outer loop
vertex -170.15710000 270.51760000 308.86650000
vertex -173.13660000 346.65920000 308.86650000
vertex -167.53080000 270.61920000 304.16500000
endloop
endfacet
facet normal -0.777548 -0.030451 -0.628085
outer loop
vertex -167.53080000 270.61920000 304.16500000
vertex -170.51270000 346.76080000 304.16500000
vertex -164.15260000 270.75130000 299.97650000
endloop
endfacet
facet normal -0.660066 -0.025828 -0.750763
outer loop
vertex -164.15260000 270.75130000 299.97650000
vertex -167.13200000 346.89290000 299.97650000
vertex -160.11140000 270.91130000 296.41800000
endloop
endfacet
facet normal -0.524049 -0.020524 -0.851441
outer loop
vertex -160.11140000 270.91130000 296.41800000
vertex -163.09340000 347.05290000 296.41800000
vertex -155.52930000 271.08910000 293.59350000
endloop
endfacet
facet normal -0.372320 -0.014581 -0.927990
outer loop
vertex -155.52930000 271.08910000 293.59350000
vertex -158.51120000 347.23070000 293.59350000
vertex -150.53560000 271.28470000 291.58690000
endloop
endfacet
facet normal -0.210669 -0.008251 -0.977523
outer loop
vertex -150.53560000 271.28470000 291.58690000
vertex -153.51760000 347.42630000 291.58690000
vertex -145.27530000 271.49040000 290.45150000
endloop
endfacet
facet normal -0.042430 -0.001662 -0.999098
outer loop
vertex -145.27530000 271.49040000 290.45150000
vertex -148.25730000 347.63200000 290.45150000
vertex -139.90070000 271.70130000 290.22290000
endloop
endfacet
facet normal 0.127207 0.004982 -0.991864
outer loop
vertex -139.90070000 271.70130000 290.22290000
vertex -142.88260000 347.84280000 290.22290000
vertex -134.56160000 271.91210000 290.90870000
endloop
endfacet
facet normal 0.292331 0.011448 -0.956249
outer loop
vertex -134.56160000 271.91210000 290.90870000
vertex -137.54350000 348.05370000 290.90870000
vertex -129.41810000 272.11270000 292.48350000
endloop
endfacet
facet normal 0.449987 0.017623 -0.892861
outer loop
vertex -129.41810000 272.11270000 292.48350000
vertex -132.40000000 348.25430000 292.48350000
vertex -124.61240000 272.30070000 294.90920000
endloop
endfacet
facet normal 0.594337 0.023277 -0.803879
outer loop
vertex -124.61240000 272.30070000 294.90920000
vertex -127.59440000 348.44230000 294.90920000
vertex -120.28680000 272.47090000 298.11220000
endloop
endfacet
facet normal 0.721228 0.028245 -0.692122
outer loop
vertex -120.28680000 272.47090000 298.11220000
vertex -123.26870000 348.61250000 298.11220000
vertex -116.56310000 272.61570000 301.99840000
endloop
endfacet
facet normal 0.828018 0.032428 -0.559763
outer loop
vertex -116.56310000 272.61570000 301.99840000
vertex -119.54510000 348.75720000 301.99840000
vertex -113.55070000 272.73250000 306.46120000
endloop
endfacet
facet normal 0.910463 0.035625 -0.412053
outer loop
vertex -113.55070000 272.73250000 306.46120000
vertex -116.53010000 348.87660000 306.46120000
vertex -111.33330000 272.82140000 311.36840000
endloop
endfacet
facet normal 0.966948 0.037868 -0.252147
outer loop
vertex -111.33330000 272.82140000 311.36840000
vertex -114.31520000 348.96300000 311.36840000
vertex -109.97690000 272.87470000 316.57800000
endloop
endfacet
facet normal 0.995663 0.038994 -0.084465
outer loop
vertex -109.97690000 272.87470000 316.57800000
vertex -112.95890000 349.01630000 316.57800000
vertex -109.52230000 272.89250000 321.94500000
endloop
endfacet
facet normal -0.038903 0.999243 0.000000
outer loop
vertex -112.50170000 349.03410000 321.94500000
vertex -112.95890000 349.01630000 316.57800000
vertex -112.95890000 349.01630000 327.31200000
endloop
endfacet
facet normal -0.039268 0.999229 0.000000
outer loop
vertex -112.95890000 349.01630000 327.31200000
vertex -112.95890000 349.01630000 316.57800000
vertex -114.31520000 348.96300000 332.52160000
endloop
endfacet
facet normal -0.039268 0.999229 0.000000
outer loop
vertex -114.31520000 348.96300000 332.52160000
vertex -112.95890000 349.01630000 316.57800000
vertex -114.31520000 348.96300000 311.36840000
endloop
endfacet
facet normal -0.038979 0.999240 0.000000
outer loop
vertex -116.53010000 348.87660000 337.42880000
vertex -114.31520000 348.96300000 311.36840000
vertex -116.53010000 348.87660000 306.46120000
endloop
endfacet
facet normal -0.039571 0.999217 0.000000
outer loop
vertex -119.54510000 348.75720000 341.89160000
vertex -116.53010000 348.87660000 306.46120000
vertex -119.54510000 348.75720000 301.99840000
endloop
endfacet
facet normal -0.038831 0.999246 0.000000
outer loop
vertex -123.26870000 348.61250000 345.77780000
vertex -119.54510000 348.75720000 301.99840000
vertex -123.26870000 348.61250000 298.11220000
endloop
endfacet
facet normal -0.039316 0.999227 0.000000
outer loop
vertex -127.59440000 348.44230000 348.98080000
vertex -123.26870000 348.61250000 298.11220000
vertex -127.59440000 348.44230000 294.90920000
endloop
endfacet
facet normal -0.039091 0.999236 0.000000
outer loop
vertex -132.40000000 348.25430000 351.40650000
vertex -127.59440000 348.44230000 294.90920000
vertex -132.40000000 348.25430000 292.48350000
endloop
endfacet
facet normal -0.038971 0.999240 0.000000
outer loop
vertex -137.54350000 348.05370000 352.98130000
vertex -132.40000000 348.25430000 292.48350000
vertex -137.54350000 348.05370000 290.90870000
endloop
endfacet
facet normal -0.039470 0.999221 0.000000
outer loop
vertex -142.88260000 347.84280000 353.66710000
vertex -137.54350000 348.05370000 290.90870000
vertex -142.88260000 347.84280000 290.22290000
endloop
endfacet
facet normal -0.039191 0.999232 0.000000
outer loop
vertex -148.25730000 347.63200000 353.43850000
vertex -142.88260000 347.84280000 290.22290000
vertex -148.25730000 347.63200000 290.45150000
endloop
endfacet
facet normal -0.039074 0.999236 0.000000
outer loop
vertex -153.51760000 347.42630000 352.30310000
vertex -148.25730000 347.63200000 290.45150000
vertex -153.51760000 347.42630000 291.58690000
endloop
endfacet
facet normal -0.039140 0.999234 0.000000
outer loop
vertex -158.51120000 347.23070000 350.29650000
vertex -153.51760000 347.42630000 291.58690000
vertex -158.51120000 347.23070000 293.59350000
endloop
endfacet
facet normal -0.038773 0.999248 0.000000
outer loop
vertex -163.09340000 347.05290000 347.47200000
vertex -158.51120000 347.23070000 293.59350000
vertex -163.09340000 347.05290000 296.41800000
endloop
endfacet
facet normal -0.039587 0.999216 0.000000
outer loop
vertex -167.13200000 346.89290000 343.91350000
vertex -163.09340000 347.05290000 296.41800000
vertex -167.13200000 346.89290000 299.97650000
endloop
endfacet
facet normal -0.039045 0.999237 0.000000
outer loop
vertex -170.51270000 346.76080000 339.72500000
vertex -167.13200000 346.89290000 299.97650000
vertex -170.51270000 346.76080000 304.16500000
endloop
endfacet
facet normal -0.038692 0.999251 0.000000
outer loop
vertex -173.13660000 346.65920000 335.02350000
vertex -170.51270000 346.76080000 304.16500000
vertex -173.13660000 346.65920000 308.86650000
endloop
endfacet
facet normal -0.039619 0.999215 0.000000
outer loop
vertex -174.92980000 346.58810000 329.94600000
vertex -173.13660000 346.65920000 308.86650000
vertex -174.92980000 346.58810000 313.94400000
endloop
endfacet
facet normal -0.039121 0.999234 0.000000
outer loop
vertex -175.83910000 346.55250000 324.63740000
vertex -174.92980000 346.58810000 313.94400000
vertex -175.83910000 346.55250000 319.25260000
endloop
endfacet
facet normal -0.039121 0.999234 0.000000
outer loop
vertex -175.83910000 346.55250000 324.63740000
vertex -174.92980000 346.58810000 329.94600000
vertex -174.92980000 346.58810000 313.94400000
endloop
endfacet
facet normal -0.038979 0.999240 0.000000
outer loop
vertex -114.31520000 348.96300000 332.52160000
vertex -114.31520000 348.96300000 311.36840000
vertex -116.53010000 348.87660000 337.42880000
endloop
endfacet
facet normal -0.039571 0.999217 0.000000
outer loop
vertex -116.53010000 348.87660000 337.42880000
vertex -116.53010000 348.87660000 306.46120000
vertex -119.54510000 348.75720000 341.89160000
endloop
endfacet
facet normal -0.038831 0.999246 0.000000
outer loop
vertex -119.54510000 348.75720000 341.89160000
vertex -119.54510000 348.75720000 301.99840000
vertex -123.26870000 348.61250000 345.77780000
endloop
endfacet
facet normal -0.039316 0.999227 0.000000
outer loop
vertex -123.26870000 348.61250000 345.77780000
vertex -123.26870000 348.61250000 298.11220000
vertex -127.59440000 348.44230000 348.98080000
endloop
endfacet
facet normal -0.039091 0.999236 0.000000
outer loop
vertex -127.59440000 348.44230000 348.98080000
vertex -127.59440000 348.44230000 294.90920000
vertex -132.40000000 348.25430000 351.40650000
endloop
endfacet
facet normal -0.038971 0.999240 0.000000
outer loop
vertex -132.40000000 348.25430000 351.40650000
vertex -132.40000000 348.25430000 292.48350000
vertex -137.54350000 348.05370000 352.98130000
endloop
endfacet
facet normal -0.039470 0.999221 0.000000
outer loop
vertex -137.54350000 348.05370000 352.98130000
vertex -137.54350000 348.05370000 290.90870000
vertex -142.88260000 347.84280000 353.66710000
endloop
endfacet
facet normal -0.039191 0.999232 0.000000
outer loop
vertex -142.88260000 347.84280000 353.66710000
vertex -142.88260000 347.84280000 290.22290000
vertex -148.25730000 347.63200000 353.43850000
endloop
endfacet
facet normal -0.039074 0.999236 0.000000
outer loop
vertex -148.25730000 347.63200000 353.43850000
vertex -148.25730000 347.63200000 290.45150000
vertex -153.51760000 347.42630000 352.30310000
endloop
endfacet
facet normal -0.039140 0.999234 0.000000
outer loop
vertex -153.51760000 347.42630000 352.30310000
vertex -153.51760000 347.42630000 291.58690000
vertex -158.51120000 347.23070000 350.29650000
endloop
endfacet
facet normal -0.038773 0.999248 0.000000
outer loop
vertex -158.51120000 347.23070000 350.29650000
vertex -158.51120000 347.23070000 293.59350000
vertex -163.09340000 347.05290000 347.47200000
endloop
endfacet
facet normal -0.039587 0.999216 0.000000
outer loop
vertex -163.09340000 347.05290000 347.47200000
vertex -163.09340000 347.05290000 296.41800000
vertex -167.13200000 346.89290000 343.91350000
endloop
endfacet
facet normal -0.039045 0.999237 0.000000
outer loop
vertex -167.13200000 346.89290000 343.91350000
vertex -167.13200000 346.89290000 299.97650000
vertex -170.51270000 346.76080000 339.72500000
endloop
endfacet
facet normal -0.038692 0.999251 0.000000
outer loop
vertex -170.51270000 346.76080000 339.72500000
vertex -170.51270000 346.76080000 304.16500000
vertex -173.13660000 346.65920000 335.02350000
endloop
endfacet
facet normal -0.039619 0.999215 0.000000
outer loop
vertex -173.13660000 346.65920000 335.02350000
vertex -173.13660000 346.65920000 308.86650000
vertex -174.92980000 346.58810000 329.94600000
endloop
endfacet
facet normal 0.036914 -0.999318 0.000975
outer loop
vertex -170.15710000 270.51760000 335.02350000
vertex -171.94780000 270.44650000 329.94600000
vertex -167.53080000 270.61920000 339.72500000
endloop
endfacet
facet normal 0.039040 -0.999238 0.000013
outer loop
vertex -171.94780000 270.44650000 329.94600000
vertex -172.85720000 270.41090000 324.63740000
vertex -167.53080000 270.61920000 339.72500000
endloop
endfacet
facet normal 0.039077 -0.999236 0.000000
outer loop
vertex -172.85720000 270.41090000 324.63740000
vertex -172.85720000 270.41090000 319.25260000
vertex -167.53080000 270.61920000 339.72500000
endloop
endfacet
facet normal 0.039093 -0.999236 -0.000004
outer loop
vertex -172.85720000 270.41090000 319.25260000
vertex -171.94780000 270.44650000 313.94400000
vertex -167.53080000 270.61920000 339.72500000
endloop
endfacet
facet normal 0.039075 -0.999236 -0.000001
outer loop
vertex -167.53080000 270.61920000 339.72500000
vertex -171.94780000 270.44650000 313.94400000
vertex -164.15260000 270.75130000 343.91350000
endloop
endfacet
facet normal 0.039707 -0.999211 -0.000166
outer loop
vertex -164.15260000 270.75130000 343.91350000
vertex -171.94780000 270.44650000 313.94400000
vertex -160.11140000 270.91130000 347.47200000
endloop
endfacet
facet normal 0.038645 -0.999253 0.000210
outer loop
vertex -160.11140000 270.91130000 347.47200000
vertex -171.94780000 270.44650000 313.94400000
vertex -155.52930000 271.08910000 350.29650000
endloop
endfacet
facet normal 0.039146 -0.999233 -0.000017
outer loop
vertex -155.52930000 271.08910000 350.29650000
vertex -171.94780000 270.44650000 313.94400000
vertex -150.53560000 271.28470000 352.30310000
endloop
endfacet
facet normal 0.039069 -0.999237 0.000026
outer loop
vertex -150.53560000 271.28470000 352.30310000
vertex -171.94780000 270.44650000 313.94400000
vertex -145.27530000 271.49040000 353.43850000
endloop
endfacet
facet normal 0.039213 -0.999231 -0.000071
outer loop
vertex -145.27530000 271.49040000 353.43850000
vertex -171.94780000 270.44650000 313.94400000
vertex -139.90070000 271.70130000 353.66710000
endloop
endfacet
facet normal 0.039421 -0.999223 -0.000239
outer loop
vertex -139.90070000 271.70130000 353.66710000
vertex -171.94780000 270.44650000 313.94400000
vertex -134.56160000 271.91210000 352.98130000
endloop
endfacet
facet normal 0.039017 -0.999239 0.000149
outer loop
vertex -134.56160000 271.91210000 352.98130000
vertex -171.94780000 270.44650000 313.94400000
vertex -129.41810000 272.11270000 351.40650000
endloop
endfacet
facet normal 0.039111 -0.999235 0.000041
outer loop
vertex -129.41810000 272.11270000 351.40650000
vertex -171.94780000 270.44650000 313.94400000
vertex -124.61240000 272.30070000 348.98080000
endloop
endfacet
facet normal 0.039229 -0.999230 -0.000119
outer loop
vertex -124.61240000 272.30070000 348.98080000
vertex -171.94780000 270.44650000 313.94400000
vertex -120.28680000 272.47090000 345.77780000
endloop
endfacet
facet normal 0.039045 -0.999237 0.000181
outer loop
vertex -120.28680000 272.47090000 345.77780000
vertex -171.94780000 270.44650000 313.94400000
vertex -116.56310000 272.61570000 341.89160000
endloop
endfacet
facet normal 0.039036 -0.999238 0.000198
outer loop
vertex -116.56310000 272.61570000 341.89160000
vertex -171.94780000 270.44650000 313.94400000
vertex -113.55070000 272.73250000 337.42880000
endloop
endfacet
facet normal 0.039261 -0.999229 -0.000362
outer loop
vertex -113.55070000 272.73250000 337.42880000
vertex -171.94780000 270.44650000 313.94400000
vertex -111.33330000 272.82140000 332.52160000
endloop
endfacet
facet normal 0.039159 -0.999233 -0.000028
outer loop
vertex -111.33330000 272.82140000 332.52160000
vertex -171.94780000 270.44650000 313.94400000
vertex -109.97690000 272.87470000 327.31200000
endloop
endfacet
facet normal 0.039152 -0.999233 0.000002
outer loop
vertex -109.97690000 272.87470000 327.31200000
vertex -171.94780000 270.44650000 313.94400000
vertex -109.52230000 272.89250000 321.94500000
endloop
endfacet
facet normal 0.039153 -0.999233 -0.000002
outer loop
vertex -109.52230000 272.89250000 321.94500000
vertex -171.94780000 270.44650000 313.94400000
vertex -109.97690000 272.87470000 316.57800000
endloop
endfacet
facet normal 0.039152 -0.999233 0.000030
outer loop
vertex -109.97690000 272.87470000 316.57800000
vertex -171.94780000 270.44650000 313.94400000
vertex -111.33330000 272.82140000 311.36840000
endloop
endfacet
facet normal 0.039167 -0.999233 0.000404
outer loop
vertex -111.33330000 272.82140000 311.36840000
vertex -171.94780000 270.44650000 313.94400000
vertex -113.55070000 272.73250000 306.46120000
endloop
endfacet
facet normal 0.039089 -0.999236 -0.000206
outer loop
vertex -171.94780000 270.44650000 313.94400000
vertex -170.15710000 270.51760000 308.86650000
vertex -113.55070000 272.73250000 306.46120000
endloop
endfacet
facet normal 0.039109 -0.999235 0.000253
outer loop
vertex -170.15710000 270.51760000 308.86650000
vertex -167.53080000 270.61920000 304.16500000
vertex -113.55070000 272.73250000 306.46120000
endloop
endfacet
facet normal 0.039131 -0.999234 -0.000261
outer loop
vertex -113.55070000 272.73250000 306.46120000
vertex -167.53080000 270.61920000 304.16500000
vertex -116.56310000 272.61570000 301.99840000
endloop
endfacet
facet normal 0.039131 -0.999234 -0.000263
outer loop
vertex -116.56310000 272.61570000 301.99840000
vertex -167.53080000 270.61920000 304.16500000
vertex -120.28680000 272.47090000 298.11220000
endloop
endfacet
facet normal 0.039175 -0.999232 0.000082
outer loop
vertex -167.53080000 270.61920000 304.16500000
vertex -164.15260000 270.75130000 299.97650000
vertex -120.28680000 272.47090000 298.11220000
endloop
endfacet
facet normal 0.039152 -0.999233 -0.000466
outer loop
vertex -164.15260000 270.75130000 299.97650000
vertex -160.11140000 270.91130000 296.41800000
vertex -120.28680000 272.47090000 298.11220000
endloop
endfacet
facet normal 0.039120 -0.999234 0.000265
outer loop
vertex -120.28680000 272.47090000 298.11220000
vertex -160.11140000 270.91130000 296.41800000
vertex -124.61240000 272.30070000 294.90920000
endloop
endfacet
facet normal 0.039108 -0.999235 -0.000035
outer loop
vertex -124.61240000 272.30070000 294.90920000
vertex -160.11140000 270.91130000 296.41800000
vertex -129.41810000 272.11270000 292.48350000
endloop
endfacet
facet normal 0.039071 -0.999236 -0.000325
outer loop
vertex -129.41810000 272.11270000 292.48350000
vertex -160.11140000 270.91130000 296.41800000
vertex -134.56160000 271.91210000 290.90870000
endloop
endfacet
facet normal 0.039338 -0.999226 0.000916
outer loop
vertex -160.11140000 270.91130000 296.41800000
vertex -155.52930000 271.08910000 293.59350000
vertex -134.56160000 271.91210000 290.90870000
endloop
endfacet
facet normal 0.039259 -0.999229 0.000297
outer loop
vertex -155.52930000 271.08910000 293.59350000
vertex -150.53560000 271.28470000 291.58690000
vertex -134.56160000 271.91210000 290.90870000
endloop
endfacet
facet normal 0.039288 -0.999227 0.000992
outer loop
vertex -150.53560000 271.28470000 291.58690000
vertex -145.27530000 271.49040000 290.45150000
vertex -134.56160000 271.91210000 290.90870000
endloop
endfacet
facet normal 0.039270 -0.999228 0.001415
outer loop
vertex -134.56160000 271.91210000 290.90870000
vertex -145.27530000 271.49040000 290.45150000
vertex -139.90070000 271.70130000 290.22290000
endloop
endfacet
endsolid 
