solid 
facet normal 0.000000 0.000000 1.000000
outer loop
vertex -105.38210000 273.05250000 283.84500000
vertex -116.49960000 314.48250000 283.84500000
vertex -181.53890000 270.07060000 283.84500000
endloop
endfacet
facet normal -0.000000 -0.000000 1.000000
outer loop
vertex -105.38210000 273.05250000 283.84500000
vertex -18.56990000 144.86380000 283.84500000
vertex -116.49960000 314.48250000 283.84500000
endloop
endfacet
facet normal 0.000000 0.000000 1.000000
outer loop
vertex -105.38210000 273.05250000 283.84500000
vertex -79.01430000 201.54650000 283.84500000
vertex -18.56990000 144.86380000 283.84500000
endloop
endfacet
facet normal 0.000000 0.000000 1.000000
outer loop
vertex -18.56990000 144.86380000 283.84500000
vertex -79.01430000 201.54650000 283.84500000
vertex -29.68500000 143.00200000 283.84500000
endloop
endfacet
facet normal 0.000000 0.000000 1.000000
outer loop
vertex -29.68500000 143.00200000 283.84500000
vertex -79.01430000 201.54650000 283.84500000
vertex -40.62480000 140.28670000 283.84500000
endloop
endfacet
facet normal 0.000000 0.000000 1.000000
outer loop
vertex -40.62480000 140.28670000 283.84500000
vertex -79.01430000 201.54650000 283.84500000
vertex -51.32070000 136.73580000 283.84500000
endloop
endfacet
facet normal 0.000000 0.000000 1.000000
outer loop
vertex -51.32070000 136.73580000 283.84500000
vertex -79.01430000 201.54650000 283.84500000
vertex -61.71180000 132.37210000 283.84500000
endloop
endfacet
facet normal 0.000000 0.000000 1.000000
outer loop
vertex -61.71180000 132.37210000 283.84500000
vertex -79.01430000 201.54650000 283.84500000
vertex -71.73720000 127.21840000 283.84500000
endloop
endfacet
facet normal 0.000000 0.000000 1.000000
outer loop
vertex -71.73720000 127.21840000 283.84500000
vertex -79.01430000 201.54650000 283.84500000
vertex -81.33330000 121.30790000 283.84500000
endloop
endfacet
facet normal 0.000000 -0.000000 1.000000
outer loop
vertex -81.33330000 121.30790000 283.84500000
vertex -79.01430000 201.54650000 283.84500000
vertex -138.87200000 154.37100000 283.84500000
endloop
endfacet
facet normal 0.000000 0.000000 1.000000
outer loop
vertex -90.44430000 114.67590000 283.84500000
vertex -138.87200000 154.37100000 283.84500000
vertex -99.01940000 107.35820000 283.84500000
endloop
endfacet
facet normal 0.000000 -0.000000 1.000000
outer loop
vertex -90.44430000 114.67590000 283.84500000
vertex -81.33330000 121.30790000 283.84500000
vertex -138.87200000 154.37100000 283.84500000
endloop
endfacet
facet normal -0.000000 -0.000000 1.000000
outer loop
vertex -202.23480000 196.72300000 283.84500000
vertex -126.95940000 72.19440000 283.84500000
vertex -138.87200000 154.37100000 283.84500000
endloop
endfacet
facet normal -0.000000 0.000000 1.000000
outer loop
vertex -202.23480000 196.72300000 283.84500000
vertex -132.14860000 62.18940000 283.84500000
vertex -126.95940000 72.19440000 283.84500000
endloop
endfacet
facet normal 0.000000 0.000000 1.000000
outer loop
vertex -202.23480000 196.72300000 283.84500000
vertex -237.48240000 244.63250000 283.84500000
vertex -132.14860000 62.18940000 283.84500000
endloop
endfacet
facet normal 0.000000 -0.000000 1.000000
outer loop
vertex -202.23480000 196.72300000 283.84500000
vertex -181.53890000 270.07060000 283.84500000
vertex -237.48240000 244.63250000 283.84500000
endloop
endfacet
facet normal 0.000000 0.000000 1.000000
outer loop
vertex -237.48240000 244.63250000 283.84500000
vertex -181.53890000 270.07060000 283.84500000
vertex -116.49960000 314.48250000 283.84500000
endloop
endfacet
facet normal 0.000000 -0.000000 1.000000
outer loop
vertex -126.95940000 72.19440000 283.84500000
vertex -121.01580000 81.76770000 283.84500000
vertex -138.87200000 154.37100000 283.84500000
endloop
endfacet
facet normal -0.000000 0.000000 1.000000
outer loop
vertex -138.87200000 154.37100000 283.84500000
vertex -121.01580000 81.76770000 283.84500000
vertex -114.34830000 90.85580000 283.84500000
endloop
endfacet
facet normal 0.000000 0.000000 1.000000
outer loop
vertex -107.00260000 99.40290000 283.84500000
vertex -138.87200000 154.37100000 283.84500000
vertex -114.34830000 90.85580000 283.84500000
endloop
endfacet
facet normal 0.000000 -0.000000 1.000000
outer loop
vertex -107.00260000 99.40290000 283.84500000
vertex -99.01940000 107.35820000 283.84500000
vertex -138.87200000 154.37100000 283.84500000
endloop
endfacet
facet normal 0.866025 0.500001 0.000000
outer loop
vertex -18.56990000 144.86380000 283.84500000
vertex -18.56990000 144.86380000 207.64500000
vertex -116.49960000 314.48250000 283.84500000
endloop
endfacet
facet normal 0.866025 0.500001 0.000000
outer loop
vertex -116.49960000 314.48250000 283.84500000
vertex -18.56990000 144.86380000 207.64500000
vertex -116.49960000 314.48250000 207.64500000
endloop
endfacet
facet normal -0.500003 0.866024 0.000000
outer loop
vertex -116.49960000 314.48250000 283.84500000
vertex -116.49960000 314.48250000 207.64500000
vertex -237.48240000 244.63250000 283.84500000
endloop
endfacet
facet normal -0.500003 0.866024 0.000000
outer loop
vertex -237.48240000 244.63250000 283.84500000
vertex -116.49960000 314.48250000 207.64500000
vertex -237.48240000 244.63250000 207.64500000
endloop
endfacet
facet normal -0.000000 0.000000 -1.000000
outer loop
vertex -18.56990000 144.86380000 207.64500000
vertex -29.68500000 143.00200000 207.64500000
vertex -116.49960000 314.48250000 207.64500000
endloop
endfacet
facet normal 0.000000 -0.000000 -1.000000
outer loop
vertex -116.49960000 314.48250000 207.64500000
vertex -29.68500000 143.00200000 207.64500000
vertex -40.62480000 140.28670000 207.64500000
endloop
endfacet
facet normal 0.000000 0.000000 -1.000000
outer loop
vertex -51.32070000 136.73580000 207.64500000
vertex -116.49960000 314.48250000 207.64500000
vertex -40.62480000 140.28670000 207.64500000
endloop
endfacet
facet normal -0.000000 0.000000 -1.000000
outer loop
vertex -51.32070000 136.73580000 207.64500000
vertex -61.71180000 132.37210000 207.64500000
vertex -116.49960000 314.48250000 207.64500000
endloop
endfacet
facet normal 0.000000 -0.000000 -1.000000
outer loop
vertex -116.49960000 314.48250000 207.64500000
vertex -61.71180000 132.37210000 207.64500000
vertex -71.73720000 127.21840000 207.64500000
endloop
endfacet
facet normal 0.000000 0.000000 -1.000000
outer loop
vertex -81.33330000 121.30790000 207.64500000
vertex -116.49960000 314.48250000 207.64500000
vertex -71.73720000 127.21840000 207.64500000
endloop
endfacet
facet normal 0.000000 0.000000 -1.000000
outer loop
vertex -81.33330000 121.30790000 207.64500000
vertex -237.48240000 244.63250000 207.64500000
vertex -116.49960000 314.48250000 207.64500000
endloop
endfacet
facet normal -0.000000 0.000000 -1.000000
outer loop
vertex -81.33330000 121.30790000 207.64500000
vertex -90.44430000 114.67590000 207.64500000
vertex -237.48240000 244.63250000 207.64500000
endloop
endfacet
facet normal 0.000000 -0.000000 -1.000000
outer loop
vertex -237.48240000 244.63250000 207.64500000
vertex -90.44430000 114.67590000 207.64500000
vertex -99.01940000 107.35820000 207.64500000
endloop
endfacet
facet normal 0.000000 0.000000 -1.000000
outer loop
vertex -107.00260000 99.40290000 207.64500000
vertex -237.48240000 244.63250000 207.64500000
vertex -99.01940000 107.35820000 207.64500000
endloop
endfacet
facet normal -0.000000 0.000000 -1.000000
outer loop
vertex -107.00260000 99.40290000 207.64500000
vertex -114.34830000 90.85580000 207.64500000
vertex -237.48240000 244.63250000 207.64500000
endloop
endfacet
facet normal 0.000000 -0.000000 -1.000000
outer loop
vertex -237.48240000 244.63250000 207.64500000
vertex -114.34830000 90.85580000 207.64500000
vertex -121.01580000 81.76770000 207.64500000
endloop
endfacet
facet normal 0.000000 0.000000 -1.000000
outer loop
vertex -126.95940000 72.19440000 207.64500000
vertex -237.48240000 244.63250000 207.64500000
vertex -121.01580000 81.76770000 207.64500000
endloop
endfacet
facet normal -0.000000 0.000000 -1.000000
outer loop
vertex -126.95940000 72.19440000 207.64500000
vertex -132.14860000 62.18940000 207.64500000
vertex -237.48240000 244.63250000 207.64500000
endloop
endfacet
facet normal -0.866025 -0.500001 0.000000
outer loop
vertex -132.14860000 62.18940000 207.64500000
vertex -132.14860000 62.18940000 283.84500000
vertex -237.48240000 244.63250000 207.64500000
endloop
endfacet
facet normal -0.866025 -0.500001 0.000000
outer loop
vertex -237.48240000 244.63250000 207.64500000
vertex -132.14860000 62.18940000 283.84500000
vertex -237.48240000 244.63250000 283.84500000
endloop
endfacet
facet normal 0.000000 -0.000000 1.000000
outer loop
vertex -138.87200000 154.37100000 283.84500000
vertex -79.01430000 201.54650000 283.84500000
vertex -202.23480000 196.72300000 283.84500000
endloop
endfacet
facet normal 0.000000 0.000000 1.000000
outer loop
vertex -79.01430000 201.54650000 283.84500000
vertex -105.38210000 273.05250000 283.84500000
vertex -202.23480000 196.72300000 283.84500000
endloop
endfacet
facet normal 0.000000 0.000000 1.000000
outer loop
vertex -105.38210000 273.05250000 283.84500000
vertex -181.53890000 270.07060000 283.84500000
vertex -202.23480000 196.72300000 283.84500000
endloop
endfacet
facet normal 0.165200 -0.986260 0.000000
outer loop
vertex -18.56990000 144.86380000 283.84500000
vertex -29.68500000 143.00200000 283.84500000
vertex -18.56990000 144.86380000 207.64500000
endloop
endfacet
facet normal 0.165200 -0.986260 0.000000
outer loop
vertex -18.56990000 144.86380000 207.64500000
vertex -29.68500000 143.00200000 283.84500000
vertex -29.68500000 143.00200000 207.64500000
endloop
endfacet
facet normal 0.240895 -0.970551 0.000000
outer loop
vertex -29.68500000 143.00200000 283.84500000
vertex -40.62480000 140.28670000 283.84500000
vertex -29.68500000 143.00200000 207.64500000
endloop
endfacet
facet normal 0.240895 -0.970551 0.000000
outer loop
vertex -29.68500000 143.00200000 207.64500000
vertex -40.62480000 140.28670000 283.84500000
vertex -40.62480000 140.28670000 207.64500000
endloop
endfacet
facet normal 0.315078 -0.949066 0.000000
outer loop
vertex -40.62480000 140.28670000 283.84500000
vertex -51.32070000 136.73580000 283.84500000
vertex -40.62480000 140.28670000 207.64500000
endloop
endfacet
facet normal 0.315078 -0.949066 0.000000
outer loop
vertex -40.62480000 140.28670000 207.64500000
vertex -51.32070000 136.73580000 283.84500000
vertex -51.32070000 136.73580000 207.64500000
endloop
endfacet
facet normal 0.387190 -0.922000 0.000000
outer loop
vertex -51.32070000 136.73580000 283.84500000
vertex -61.71180000 132.37210000 283.84500000
vertex -51.32070000 136.73580000 207.64500000
endloop
endfacet
facet normal 0.387190 -0.922000 0.000000
outer loop
vertex -51.32070000 136.73580000 207.64500000
vertex -61.71180000 132.37210000 283.84500000
vertex -61.71180000 132.37210000 207.64500000
endloop
endfacet
facet normal 0.457192 -0.889368 0.000000
outer loop
vertex -61.71180000 132.37210000 283.84500000
vertex -71.73720000 127.21840000 283.84500000
vertex -61.71180000 132.37210000 207.64500000
endloop
endfacet
facet normal 0.457192 -0.889368 0.000000
outer loop
vertex -61.71180000 132.37210000 207.64500000
vertex -71.73720000 127.21840000 283.84500000
vertex -71.73720000 127.21840000 207.64500000
endloop
endfacet
facet normal 0.524433 -0.851452 0.000000
outer loop
vertex -71.73720000 127.21840000 283.84500000
vertex -81.33330000 121.30790000 283.84500000
vertex -71.73720000 127.21840000 207.64500000
endloop
endfacet
facet normal 0.524433 -0.851452 0.000000
outer loop
vertex -71.73720000 127.21840000 207.64500000
vertex -81.33330000 121.30790000 283.84500000
vertex -81.33330000 121.30790000 207.64500000
endloop
endfacet
facet normal 0.588509 -0.808490 0.000000
outer loop
vertex -81.33330000 121.30790000 283.84500000
vertex -90.44430000 114.67590000 283.84500000
vertex -81.33330000 121.30790000 207.64500000
endloop
endfacet
facet normal 0.588509 -0.808490 0.000000
outer loop
vertex -81.33330000 121.30790000 207.64500000
vertex -90.44430000 114.67590000 283.84500000
vertex -90.44430000 114.67590000 207.64500000
endloop
endfacet
facet normal 0.649134 -0.760674 0.000000
outer loop
vertex -90.44430000 114.67590000 283.84500000
vertex -99.01940000 107.35820000 283.84500000
vertex -90.44430000 114.67590000 207.64500000
endloop
endfacet
facet normal 0.649134 -0.760674 0.000000
outer loop
vertex -90.44430000 114.67590000 207.64500000
vertex -99.01940000 107.35820000 283.84500000
vertex -99.01940000 107.35820000 207.64500000
endloop
endfacet
facet normal 0.705868 -0.708343 0.000000
outer loop
vertex -99.01940000 107.35820000 283.84500000
vertex -107.00260000 99.40290000 283.84500000
vertex -99.01940000 107.35820000 207.64500000
endloop
endfacet
facet normal 0.705868 -0.708343 0.000000
outer loop
vertex -99.01940000 107.35820000 207.64500000
vertex -107.00260000 99.40290000 283.84500000
vertex -107.00260000 99.40290000 207.64500000
endloop
endfacet
facet normal 0.758396 -0.651794 0.000000
outer loop
vertex -107.00260000 99.40290000 283.84500000
vertex -114.34830000 90.85580000 283.84500000
vertex -107.00260000 99.40290000 207.64500000
endloop
endfacet
facet normal 0.758396 -0.651794 0.000000
outer loop
vertex -107.00260000 99.40290000 207.64500000
vertex -114.34830000 90.85580000 283.84500000
vertex -114.34830000 90.85580000 207.64500000
endloop
endfacet
facet normal 0.806283 -0.591531 0.000000
outer loop
vertex -114.34830000 90.85580000 283.84500000
vertex -121.01580000 81.76770000 283.84500000
vertex -114.34830000 90.85580000 207.64500000
endloop
endfacet
facet normal 0.806283 -0.591531 0.000000
outer loop
vertex -114.34830000 90.85580000 207.64500000
vertex -121.01580000 81.76770000 283.84500000
vertex -121.01580000 81.76770000 207.64500000
endloop
endfacet
facet normal 0.849578 -0.527462 0.000000
outer loop
vertex -121.01580000 81.76770000 283.84500000
vertex -126.95940000 72.19440000 283.84500000
vertex -121.01580000 81.76770000 207.64500000
endloop
endfacet
facet normal 0.849578 -0.527462 0.000000
outer loop
vertex -121.01580000 81.76770000 207.64500000
vertex -126.95940000 72.19440000 283.84500000
vertex -126.95940000 72.19440000 207.64500000
endloop
endfacet
facet normal 0.887703 -0.460417 0.000000
outer loop
vertex -126.95940000 72.19440000 283.84500000
vertex -132.14860000 62.18940000 283.84500000
vertex -126.95940000 72.19440000 207.64500000
endloop
endfacet
facet normal 0.887703 -0.460417 0.000000
outer loop
vertex -132.14860000 62.18940000 207.64500000
vertex -126.95940000 72.19440000 207.64500000
vertex -132.14860000 62.18940000 283.84500000
endloop
endfacet
endsolid 
