solid 
facet normal -0.038839 0.999245 0.000024
outer loop
vertex -109.97690000 272.87470000 327.31200000
vertex -105.38210000 273.05250000 360.04500000
vertex -109.52230000 272.89250000 321.94500000
endloop
endfacet
facet normal -0.039055 0.999237 0.000055
outer loop
vertex -109.97690000 272.87470000 327.31200000
vertex -111.33330000 272.82140000 332.52160000
vertex -105.38210000 273.05250000 360.04500000
endloop
endfacet
facet normal -0.039653 0.999214 0.000184
outer loop
vertex -105.38210000 273.05250000 360.04500000
vertex -111.33330000 272.82140000 332.52160000
vertex -113.55070000 272.73250000 337.42880000
endloop
endfacet
facet normal -0.038884 0.999244 -0.000094
outer loop
vertex -116.56310000 272.61570000 341.89160000
vertex -105.38210000 273.05250000 360.04500000
vertex -113.55070000 272.73250000 337.42880000
endloop
endfacet
facet normal -0.038927 0.999242 -0.000068
outer loop
vertex -116.56310000 272.61570000 341.89160000
vertex -120.28680000 272.47090000 345.77780000
vertex -105.38210000 273.05250000 360.04500000
endloop
endfacet
facet normal -0.039175 0.999232 0.000192
outer loop
vertex -105.38210000 273.05250000 360.04500000
vertex -120.28680000 272.47090000 345.77780000
vertex -124.61240000 272.30070000 348.98080000
endloop
endfacet
facet normal -0.039078 0.999236 0.000024
outer loop
vertex -129.41810000 272.11270000 351.40650000
vertex -105.38210000 273.05250000 360.04500000
vertex -124.61240000 272.30070000 348.98080000
endloop
endfacet
facet normal -0.039016 0.999239 -0.000149
outer loop
vertex -129.41810000 272.11270000 351.40650000
vertex -134.56160000 271.91210000 352.98130000
vertex -105.38210000 273.05250000 360.04500000
endloop
endfacet
facet normal -0.039313 0.999226 0.001079
outer loop
vertex -105.38210000 273.05250000 360.04500000
vertex -134.56160000 271.91210000 352.98130000
vertex -139.90070000 271.70130000 353.66710000
endloop
endfacet
facet normal -0.039193 0.999232 -0.000391
outer loop
vertex -181.53890000 270.07060000 360.04500000
vertex -139.90070000 271.70130000 353.66710000
vertex -145.27530000 271.49040000 353.43850000
endloop
endfacet
facet normal -0.039100 0.999235 0.000120
outer loop
vertex -150.53560000 271.28470000 352.30310000
vertex -181.53890000 270.07060000 360.04500000
vertex -145.27530000 271.49040000 353.43850000
endloop
endfacet
facet normal -0.039134 0.999234 -0.000014
outer loop
vertex -150.53560000 271.28470000 352.30310000
vertex -155.52930000 271.08910000 350.29650000
vertex -181.53890000 270.07060000 360.04500000
endloop
endfacet
facet normal -0.038995 0.999239 0.000358
outer loop
vertex -181.53890000 270.07060000 360.04500000
vertex -155.52930000 271.08910000 350.29650000
vertex -160.11140000 270.91130000 347.47200000
endloop
endfacet
facet normal -0.039347 0.999226 -0.000244
outer loop
vertex -164.15260000 270.75130000 343.91350000
vertex -181.53890000 270.07060000 360.04500000
vertex -160.11140000 270.91130000 347.47200000
endloop
endfacet
facet normal -0.039101 0.999235 0.000022
outer loop
vertex -164.15260000 270.75130000 343.91350000
vertex -167.53080000 270.61920000 339.72500000
vertex -181.53890000 270.07060000 360.04500000
endloop
endfacet
facet normal -0.038920 0.999242 0.000147
outer loop
vertex -181.53890000 270.07060000 360.04500000
vertex -167.53080000 270.61920000 339.72500000
vertex -170.15710000 270.51760000 335.02350000
endloop
endfacet
facet normal -0.039431 0.999222 -0.000086
outer loop
vertex -171.94780000 270.44650000 329.94600000
vertex -181.53890000 270.07060000 360.04500000
vertex -170.15710000 270.51760000 335.02350000
endloop
endfacet
facet normal -0.039147 0.999233 0.000005
outer loop
vertex -171.94780000 270.44650000 329.94600000
vertex -172.85720000 270.41090000 324.63740000
vertex -181.53890000 270.07060000 360.04500000
endloop
endfacet
facet normal -0.039167 0.999233 0.000000
outer loop
vertex -181.53890000 270.07060000 360.04500000
vertex -172.85720000 270.41090000 324.63740000
vertex -181.53890000 270.07060000 283.84500000
endloop
endfacet
facet normal -0.039167 0.999233 0.000000
outer loop
vertex -181.53890000 270.07060000 283.84500000
vertex -172.85720000 270.41090000 324.63740000
vertex -172.85720000 270.41090000 319.25260000
endloop
endfacet
facet normal -0.039147 0.999233 -0.000005
outer loop
vertex -171.94780000 270.44650000 313.94400000
vertex -181.53890000 270.07060000 283.84500000
vertex -172.85720000 270.41090000 319.25260000
endloop
endfacet
facet normal -0.039431 0.999222 0.000086
outer loop
vertex -171.94780000 270.44650000 313.94400000
vertex -170.15710000 270.51760000 308.86650000
vertex -181.53890000 270.07060000 283.84500000
endloop
endfacet
facet normal -0.038920 0.999242 -0.000147
outer loop
vertex -181.53890000 270.07060000 283.84500000
vertex -170.15710000 270.51760000 308.86650000
vertex -167.53080000 270.61920000 304.16500000
endloop
endfacet
facet normal -0.039101 0.999235 -0.000022
outer loop
vertex -164.15260000 270.75130000 299.97650000
vertex -181.53890000 270.07060000 283.84500000
vertex -167.53080000 270.61920000 304.16500000
endloop
endfacet
facet normal -0.039347 0.999226 0.000244
outer loop
vertex -164.15260000 270.75130000 299.97650000
vertex -160.11140000 270.91130000 296.41800000
vertex -181.53890000 270.07060000 283.84500000
endloop
endfacet
facet normal -0.038995 0.999239 -0.000358
outer loop
vertex -181.53890000 270.07060000 283.84500000
vertex -160.11140000 270.91130000 296.41800000
vertex -155.52930000 271.08910000 293.59350000
endloop
endfacet
facet normal -0.039134 0.999234 0.000014
outer loop
vertex -150.53560000 271.28470000 291.58690000
vertex -181.53890000 270.07060000 283.84500000
vertex -155.52930000 271.08910000 293.59350000
endloop
endfacet
facet normal -0.039100 0.999235 -0.000120
outer loop
vertex -150.53560000 271.28470000 291.58690000
vertex -145.27530000 271.49040000 290.45150000
vertex -181.53890000 270.07060000 283.84500000
endloop
endfacet
facet normal -0.039193 0.999232 0.000391
outer loop
vertex -181.53890000 270.07060000 283.84500000
vertex -145.27530000 271.49040000 290.45150000
vertex -139.90070000 271.70130000 290.22290000
endloop
endfacet
facet normal -0.039313 0.999226 -0.001079
outer loop
vertex -105.38210000 273.05250000 283.84500000
vertex -139.90070000 271.70130000 290.22290000
vertex -134.56160000 271.91210000 290.90870000
endloop
endfacet
facet normal -0.039016 0.999239 0.000149
outer loop
vertex -129.41810000 272.11270000 292.48350000
vertex -105.38210000 273.05250000 283.84500000
vertex -134.56160000 271.91210000 290.90870000
endloop
endfacet
facet normal -0.039078 0.999236 -0.000024
outer loop
vertex -129.41810000 272.11270000 292.48350000
vertex -124.61240000 272.30070000 294.90920000
vertex -105.38210000 273.05250000 283.84500000
endloop
endfacet
facet normal -0.039175 0.999232 -0.000192
outer loop
vertex -105.38210000 273.05250000 283.84500000
vertex -124.61240000 272.30070000 294.90920000
vertex -120.28680000 272.47090000 298.11220000
endloop
endfacet
facet normal -0.038927 0.999242 0.000068
outer loop
vertex -116.56310000 272.61570000 301.99840000
vertex -105.38210000 273.05250000 283.84500000
vertex -120.28680000 272.47090000 298.11220000
endloop
endfacet
facet normal -0.038884 0.999244 0.000094
outer loop
vertex -116.56310000 272.61570000 301.99840000
vertex -113.55070000 272.73250000 306.46120000
vertex -105.38210000 273.05250000 283.84500000
endloop
endfacet
facet normal -0.039653 0.999214 -0.000184
outer loop
vertex -105.38210000 273.05250000 283.84500000
vertex -113.55070000 272.73250000 306.46120000
vertex -111.33330000 272.82140000 311.36840000
endloop
endfacet
facet normal -0.039055 0.999237 -0.000055
outer loop
vertex -109.97690000 272.87470000 316.57800000
vertex -105.38210000 273.05250000 283.84500000
vertex -111.33330000 272.82140000 311.36840000
endloop
endfacet
facet normal -0.038839 0.999245 -0.000024
outer loop
vertex -109.97690000 272.87470000 316.57800000
vertex -109.52230000 272.89250000 321.94500000
vertex -105.38210000 273.05250000 283.84500000
endloop
endfacet
facet normal -0.038617 0.999254 0.000000
outer loop
vertex -105.38210000 273.05250000 283.84500000
vertex -109.52230000 272.89250000 321.94500000
vertex -105.38210000 273.05250000 360.04500000
endloop
endfacet
facet normal -0.039125 0.999234 0.000057
outer loop
vertex -105.38210000 273.05250000 360.04500000
vertex -139.90070000 271.70130000 353.66710000
vertex -181.53890000 270.07060000 360.04500000
endloop
endfacet
facet normal -0.039125 0.999234 -0.000057
outer loop
vertex -181.53890000 270.07060000 283.84500000
vertex -139.90070000 271.70130000 290.22290000
vertex -105.38210000 273.05250000 283.84500000
endloop
endfacet
facet normal 0.938243 0.345977 0.000000
outer loop
vertex -79.01430000 201.54650000 283.84500000
vertex -105.38210000 273.05250000 283.84500000
vertex -79.01430000 201.54650000 360.04500000
endloop
endfacet
facet normal 0.938243 0.345977 -0.000000
outer loop
vertex -79.01430000 201.54650000 360.04500000
vertex -105.38210000 273.05250000 283.84500000
vertex -105.38210000 273.05250000 360.04500000
endloop
endfacet
facet normal 0.618993 -0.785397 0.000000
outer loop
vertex -138.87200000 154.37100000 283.84500000
vertex -79.01430000 201.54650000 283.84500000
vertex -138.87200000 154.37100000 360.04500000
endloop
endfacet
facet normal 0.618993 -0.785397 0.000000
outer loop
vertex -138.87200000 154.37100000 360.04500000
vertex -79.01430000 201.54650000 283.84500000
vertex -79.01430000 201.54650000 360.04500000
endloop
endfacet
facet normal -0.555700 -0.831383 0.000000
outer loop
vertex -202.23480000 196.72300000 283.84500000
vertex -138.87200000 154.37100000 283.84500000
vertex -202.23480000 196.72300000 360.04500000
endloop
endfacet
facet normal -0.555700 -0.831383 0.000000
outer loop
vertex -202.23480000 196.72300000 360.04500000
vertex -138.87200000 154.37100000 283.84500000
vertex -138.87200000 154.37100000 360.04500000
endloop
endfacet
facet normal -0.962422 0.271559 0.000000
outer loop
vertex -181.53890000 270.07060000 283.84500000
vertex -202.23480000 196.72300000 283.84500000
vertex -181.53890000 270.07060000 360.04500000
endloop
endfacet
facet normal -0.962422 0.271559 0.000000
outer loop
vertex -181.53890000 270.07060000 360.04500000
vertex -202.23480000 196.72300000 283.84500000
vertex -202.23480000 196.72300000 360.04500000
endloop
endfacet
facet normal 0.000000 0.000000 1.000000
outer loop
vertex -105.38210000 273.05250000 360.04500000
vertex -181.53890000 270.07060000 360.04500000
vertex -79.01430000 201.54650000 360.04500000
endloop
endfacet
facet normal 0.000000 0.000000 1.000000
outer loop
vertex -79.01430000 201.54650000 360.04500000
vertex -181.53890000 270.07060000 360.04500000
vertex -202.23480000 196.72300000 360.04500000
endloop
endfacet
facet normal 0.000000 -0.000000 1.000000
outer loop
vertex -138.87200000 154.37100000 360.04500000
vertex -79.01430000 201.54650000 360.04500000
vertex -202.23480000 196.72300000 360.04500000
endloop
endfacet
facet normal -0.036914 0.999318 -0.000975
outer loop
vertex -170.15710000 270.51760000 335.02350000
vertex -167.53080000 270.61920000 339.72500000
vertex -171.94780000 270.44650000 329.94600000
endloop
endfacet
facet normal -0.039040 0.999238 -0.000013
outer loop
vertex -171.94780000 270.44650000 329.94600000
vertex -167.53080000 270.61920000 339.72500000
vertex -172.85720000 270.41090000 324.63740000
endloop
endfacet
facet normal -0.039077 0.999236 0.000000
outer loop
vertex -172.85720000 270.41090000 324.63740000
vertex -167.53080000 270.61920000 339.72500000
vertex -172.85720000 270.41090000 319.25260000
endloop
endfacet
facet normal -0.039093 0.999236 0.000004
outer loop
vertex -172.85720000 270.41090000 319.25260000
vertex -167.53080000 270.61920000 339.72500000
vertex -171.94780000 270.44650000 313.94400000
endloop
endfacet
facet normal -0.039075 0.999236 0.000001
outer loop
vertex -167.53080000 270.61920000 339.72500000
vertex -164.15260000 270.75130000 343.91350000
vertex -171.94780000 270.44650000 313.94400000
endloop
endfacet
facet normal -0.039707 0.999211 0.000166
outer loop
vertex -164.15260000 270.75130000 343.91350000
vertex -160.11140000 270.91130000 347.47200000
vertex -171.94780000 270.44650000 313.94400000
endloop
endfacet
facet normal -0.038645 0.999253 -0.000210
outer loop
vertex -160.11140000 270.91130000 347.47200000
vertex -155.52930000 271.08910000 350.29650000
vertex -171.94780000 270.44650000 313.94400000
endloop
endfacet
facet normal -0.039146 0.999233 0.000017
outer loop
vertex -155.52930000 271.08910000 350.29650000
vertex -150.53560000 271.28470000 352.30310000
vertex -171.94780000 270.44650000 313.94400000
endloop
endfacet
facet normal -0.039069 0.999237 -0.000026
outer loop
vertex -150.53560000 271.28470000 352.30310000
vertex -145.27530000 271.49040000 353.43850000
vertex -171.94780000 270.44650000 313.94400000
endloop
endfacet
facet normal -0.039213 0.999231 0.000071
outer loop
vertex -145.27530000 271.49040000 353.43850000
vertex -139.90070000 271.70130000 353.66710000
vertex -171.94780000 270.44650000 313.94400000
endloop
endfacet
facet normal -0.039421 0.999223 0.000239
outer loop
vertex -139.90070000 271.70130000 353.66710000
vertex -134.56160000 271.91210000 352.98130000
vertex -171.94780000 270.44650000 313.94400000
endloop
endfacet
facet normal -0.039017 0.999239 -0.000149
outer loop
vertex -134.56160000 271.91210000 352.98130000
vertex -129.41810000 272.11270000 351.40650000
vertex -171.94780000 270.44650000 313.94400000
endloop
endfacet
facet normal -0.039111 0.999235 -0.000041
outer loop
vertex -129.41810000 272.11270000 351.40650000
vertex -124.61240000 272.30070000 348.98080000
vertex -171.94780000 270.44650000 313.94400000
endloop
endfacet
facet normal -0.039229 0.999230 0.000119
outer loop
vertex -124.61240000 272.30070000 348.98080000
vertex -120.28680000 272.47090000 345.77780000
vertex -171.94780000 270.44650000 313.94400000
endloop
endfacet
facet normal -0.039045 0.999237 -0.000181
outer loop
vertex -120.28680000 272.47090000 345.77780000
vertex -116.56310000 272.61570000 341.89160000
vertex -171.94780000 270.44650000 313.94400000
endloop
endfacet
facet normal -0.039036 0.999238 -0.000198
outer loop
vertex -116.56310000 272.61570000 341.89160000
vertex -113.55070000 272.73250000 337.42880000
vertex -171.94780000 270.44650000 313.94400000
endloop
endfacet
facet normal -0.039261 0.999229 0.000362
outer loop
vertex -113.55070000 272.73250000 337.42880000
vertex -111.33330000 272.82140000 332.52160000
vertex -171.94780000 270.44650000 313.94400000
endloop
endfacet
facet normal -0.039159 0.999233 0.000028
outer loop
vertex -111.33330000 272.82140000 332.52160000
vertex -109.97690000 272.87470000 327.31200000
vertex -171.94780000 270.44650000 313.94400000
endloop
endfacet
facet normal -0.039152 0.999233 -0.000002
outer loop
vertex -109.97690000 272.87470000 327.31200000
vertex -109.52230000 272.89250000 321.94500000
vertex -171.94780000 270.44650000 313.94400000
endloop
endfacet
facet normal -0.039153 0.999233 0.000002
outer loop
vertex -109.52230000 272.89250000 321.94500000
vertex -109.97690000 272.87470000 316.57800000
vertex -171.94780000 270.44650000 313.94400000
endloop
endfacet
facet normal -0.039152 0.999233 -0.000030
outer loop
vertex -109.97690000 272.87470000 316.57800000
vertex -111.33330000 272.82140000 311.36840000
vertex -171.94780000 270.44650000 313.94400000
endloop
endfacet
facet normal -0.039167 0.999233 -0.000404
outer loop
vertex -111.33330000 272.82140000 311.36840000
vertex -113.55070000 272.73250000 306.46120000
vertex -171.94780000 270.44650000 313.94400000
endloop
endfacet
facet normal -0.039089 0.999236 0.000206
outer loop
vertex -171.94780000 270.44650000 313.94400000
vertex -113.55070000 272.73250000 306.46120000
vertex -170.15710000 270.51760000 308.86650000
endloop
endfacet
facet normal -0.039109 0.999235 -0.000253
outer loop
vertex -170.15710000 270.51760000 308.86650000
vertex -113.55070000 272.73250000 306.46120000
vertex -167.53080000 270.61920000 304.16500000
endloop
endfacet
facet normal -0.039131 0.999234 0.000261
outer loop
vertex -113.55070000 272.73250000 306.46120000
vertex -116.56310000 272.61570000 301.99840000
vertex -167.53080000 270.61920000 304.16500000
endloop
endfacet
facet normal -0.039131 0.999234 0.000263
outer loop
vertex -116.56310000 272.61570000 301.99840000
vertex -120.28680000 272.47090000 298.11220000
vertex -167.53080000 270.61920000 304.16500000
endloop
endfacet
facet normal -0.039175 0.999232 -0.000082
outer loop
vertex -167.53080000 270.61920000 304.16500000
vertex -120.28680000 272.47090000 298.11220000
vertex -164.15260000 270.75130000 299.97650000
endloop
endfacet
facet normal -0.039152 0.999233 0.000466
outer loop
vertex -164.15260000 270.75130000 299.97650000
vertex -120.28680000 272.47090000 298.11220000
vertex -160.11140000 270.91130000 296.41800000
endloop
endfacet
facet normal -0.039120 0.999234 -0.000265
outer loop
vertex -120.28680000 272.47090000 298.11220000
vertex -124.61240000 272.30070000 294.90920000
vertex -160.11140000 270.91130000 296.41800000
endloop
endfacet
facet normal -0.039108 0.999235 0.000035
outer loop
vertex -124.61240000 272.30070000 294.90920000
vertex -129.41810000 272.11270000 292.48350000
vertex -160.11140000 270.91130000 296.41800000
endloop
endfacet
facet normal -0.039071 0.999236 0.000325
outer loop
vertex -129.41810000 272.11270000 292.48350000
vertex -134.56160000 271.91210000 290.90870000
vertex -160.11140000 270.91130000 296.41800000
endloop
endfacet
facet normal -0.039338 0.999226 -0.000916
outer loop
vertex -160.11140000 270.91130000 296.41800000
vertex -134.56160000 271.91210000 290.90870000
vertex -155.52930000 271.08910000 293.59350000
endloop
endfacet
facet normal -0.039259 0.999229 -0.000297
outer loop
vertex -155.52930000 271.08910000 293.59350000
vertex -134.56160000 271.91210000 290.90870000
vertex -150.53560000 271.28470000 291.58690000
endloop
endfacet
facet normal -0.039288 0.999227 -0.000992
outer loop
vertex -150.53560000 271.28470000 291.58690000
vertex -134.56160000 271.91210000 290.90870000
vertex -145.27530000 271.49040000 290.45150000
endloop
endfacet
facet normal -0.039270 0.999228 -0.001415
outer loop
vertex -145.27530000 271.49040000 290.45150000
vertex -134.56160000 271.91210000 290.90870000
vertex -139.90070000 271.70130000 290.22290000
endloop
endfacet
facet normal 0.000000 0.000000 -1.000000
outer loop
vertex -138.87200000 154.37100000 283.84500000
vertex -202.23480000 196.72300000 283.84500000
vertex -79.01430000 201.54650000 283.84500000
endloop
endfacet
facet normal -0.000000 0.000000 -1.000000
outer loop
vertex -79.01430000 201.54650000 283.84500000
vertex -202.23480000 196.72300000 283.84500000
vertex -105.38210000 273.05250000 283.84500000
endloop
endfacet
facet normal -0.000000 0.000000 -1.000000
outer loop
vertex -105.38210000 273.05250000 283.84500000
vertex -202.23480000 196.72300000 283.84500000
vertex -181.53890000 270.07060000 283.84500000
endloop
endfacet
endsolid 
