solid ascii
  facet normal -9.932384e-001 -1.160929e-001 -0.000000e+000
    outer loop
      vertex   5.502503e+001 3.269693e+001 8.000000e+001
      vertex   5.502503e+001 3.269693e+001 0.000000e+000
      vertex   5.542596e+001 2.926678e+001 8.000000e+001
    endloop
  endfacet
  facet normal -9.396926e-001 -3.420201e-001 0.000000e+000
    outer loop
      vertex   5.502503e+001 3.269693e+001 8.000000e+001
      vertex   5.384387e+001 3.594216e+001 0.000000e+000
      vertex   5.502503e+001 3.269693e+001 0.000000e+000
    endloop
  endfacet
  facet normal -9.396926e-001 -3.420201e-001 -0.000000e+000
    outer loop
      vertex   5.502503e+001 3.269693e+001 8.000000e+001
      vertex   5.384387e+001 3.594216e+001 8.000000e+001
      vertex   5.384387e+001 3.594216e+001 0.000000e+000
    endloop
  endfacet
  facet normal -8.354878e-001 -5.495090e-001 0.000000e+000
    outer loop
      vertex   5.384387e+001 3.594216e+001 0.000000e+000
      vertex   5.384387e+001 3.594216e+001 8.000000e+001
      vertex   5.194614e+001 3.882752e+001 0.000000e+000
    endloop
  endfacet
  facet normal -8.354878e-001 -5.495090e-001 0.000000e+000
    outer loop
      vertex   5.194614e+001 3.882752e+001 0.000000e+000
      vertex   5.384387e+001 3.594216e+001 8.000000e+001
      vertex   5.194614e+001 3.882752e+001 8.000000e+001
    endloop
  endfacet
  facet normal -6.862416e-001 -7.273736e-001 0.000000e+000
    outer loop
      vertex   4.943415e+001 4.119746e+001 0.000000e+000
      vertex   5.194614e+001 3.882752e+001 8.000000e+001
      vertex   4.943415e+001 4.119746e+001 8.000000e+001
    endloop
  endfacet
  facet normal -5.000000e-001 -8.660254e-001 0.000000e+000
    outer loop
      vertex   4.644333e+001 4.292421e+001 0.000000e+000
      vertex   4.943415e+001 4.119746e+001 8.000000e+001
      vertex   4.644333e+001 4.292421e+001 8.000000e+001
    endloop
  endfacet
  facet normal -2.868032e-001 -9.579895e-001 0.000000e+000
    outer loop
      vertex   4.313492e+001 4.391468e+001 0.000000e+000
      vertex   4.644333e+001 4.292421e+001 8.000000e+001
      vertex   4.313492e+001 4.391468e+001 8.000000e+001
    endloop
  endfacet
  facet normal -5.814483e-002 -9.983082e-001 0.000000e+000
    outer loop
      vertex   3.968726e+001 4.411548e+001 0.000000e+000
      vertex   4.313492e+001 4.391468e+001 8.000000e+001
      vertex   3.968726e+001 4.411548e+001 8.000000e+001
    endloop
  endfacet
  facet normal 1.736482e-001 -9.848078e-001 1.607388e-017
    outer loop
      vertex   3.628622e+001 4.351579e+001 0.000000e+000
      vertex   3.968726e+001 4.411548e+001 8.000000e+001
      vertex   3.628622e+001 4.351579e+001 8.000000e+001
    endloop
  endfacet
  facet normal 3.960798e-001 -9.182161e-001 3.536253e-017
    outer loop
      vertex   3.311516e+001 4.214793e+001 0.000000e+000
      vertex   3.628622e+001 4.351579e+001 8.000000e+001
      vertex   3.311516e+001 4.214793e+001 8.000000e+001
    endloop
  endfacet
  facet normal 5.971586e-001 -8.021232e-001 0.000000e+000
    outer loop
      vertex   3.034503e+001 4.008564e+001 0.000000e+000
      vertex   3.311516e+001 4.214793e+001 8.000000e+001
      vertex   3.034503e+001 4.008564e+001 8.000000e+001
    endloop
  endfacet
  facet normal 7.660444e-001 -6.427876e-001 0.000000e+000
    outer loop
      vertex   2.812516e+001 3.744011e+001 0.000000e+000
      vertex   3.034503e+001 4.008564e+001 8.000000e+001
      vertex   2.812516e+001 3.744011e+001 8.000000e+001
    endloop
  endfacet
  facet normal 8.936326e-001 -4.487992e-001 0.000000e+000
    outer loop
      vertex   2.657524e+001 3.435395e+001 0.000000e+000
      vertex   2.812516e+001 3.744011e+001 8.000000e+001
      vertex   2.657524e+001 3.435395e+001 8.000000e+001
    endloop
  endfacet
  facet normal 9.730449e-001 -2.306159e-001 0.000000e+000
    outer loop
      vertex   2.577880e+001 3.099353e+001 0.000000e+000
      vertex   2.657524e+001 3.435395e+001 8.000000e+001
      vertex   2.577880e+001 3.099353e+001 8.000000e+001
    endloop
  endfacet
  facet normal 1.000000e+000 0.000000e+000 -0.000000e+000
    outer loop
      vertex   2.577880e+001 2.754003e+001 0.000000e+000
      vertex   2.577880e+001 3.099353e+001 8.000000e+001
      vertex   2.577880e+001 2.754003e+001 8.000000e+001
    endloop
  endfacet
  facet normal 9.730449e-001 2.306159e-001 0.000000e+000
    outer loop
      vertex   2.657524e+001 2.417962e+001 0.000000e+000
      vertex   2.577880e+001 2.754003e+001 8.000000e+001
      vertex   2.657524e+001 2.417962e+001 8.000000e+001
    endloop
  endfacet
  facet normal 8.936326e-001 4.487992e-001 0.000000e+000
    outer loop
      vertex   2.812516e+001 2.109346e+001 0.000000e+000
      vertex   2.657524e+001 2.417962e+001 8.000000e+001
      vertex   2.812516e+001 2.109346e+001 8.000000e+001
    endloop
  endfacet
  facet normal 7.660444e-001 6.427876e-001 0.000000e+000
    outer loop
      vertex   3.034503e+001 1.844793e+001 0.000000e+000
      vertex   2.812516e+001 2.109346e+001 8.000000e+001
      vertex   3.034503e+001 1.844793e+001 8.000000e+001
    endloop
  endfacet
  facet normal 5.971586e-001 8.021232e-001 -5.143641e-017
    outer loop
      vertex   3.311516e+001 1.638564e+001 0.000000e+000
      vertex   3.034503e+001 1.844793e+001 8.000000e+001
      vertex   3.311516e+001 1.638564e+001 8.000000e+001
    endloop
  endfacet
  facet normal 3.960798e-001 9.182161e-001 -1.607388e-017
    outer loop
      vertex   3.628622e+001 1.501778e+001 0.000000e+000
      vertex   3.311516e+001 1.638564e+001 8.000000e+001
      vertex   3.628622e+001 1.501778e+001 8.000000e+001
    endloop
  endfacet
  facet normal 1.736482e-001 9.848078e-001 0.000000e+000
    outer loop
      vertex   3.968726e+001 1.441808e+001 0.000000e+000
      vertex   3.628622e+001 1.501778e+001 8.000000e+001
      vertex   3.968726e+001 1.441808e+001 8.000000e+001
    endloop
  endfacet
  facet normal -5.814483e-002 9.983082e-001 -2.210158e-017
    outer loop
      vertex   4.313492e+001 1.461889e+001 0.000000e+000
      vertex   3.968726e+001 1.441808e+001 8.000000e+001
      vertex   4.313492e+001 1.461889e+001 8.000000e+001
    endloop
  endfacet
  facet normal -2.868032e-001 9.579895e-001 -2.089604e-017
    outer loop
      vertex   4.644333e+001 1.560936e+001 0.000000e+000
      vertex   4.313492e+001 1.461889e+001 8.000000e+001
      vertex   4.644333e+001 1.560936e+001 8.000000e+001
    endloop
  endfacet
  facet normal -5.000000e-001 8.660254e-001 0.000000e+000
    outer loop
      vertex   4.943415e+001 1.733611e+001 0.000000e+000
      vertex   4.644333e+001 1.560936e+001 8.000000e+001
      vertex   4.943415e+001 1.733611e+001 8.000000e+001
    endloop
  endfacet
  facet normal -6.862416e-001 7.273736e-001 0.000000e+000
    outer loop
      vertex   5.194614e+001 1.970605e+001 0.000000e+000
      vertex   4.943415e+001 1.733611e+001 8.000000e+001
      vertex   5.194614e+001 1.970605e+001 8.000000e+001
    endloop
  endfacet
  facet normal -8.354878e-001 5.495090e-001 0.000000e+000
    outer loop
      vertex   5.384387e+001 2.259141e+001 0.000000e+000
      vertex   5.194614e+001 1.970605e+001 8.000000e+001
      vertex   5.384387e+001 2.259141e+001 8.000000e+001
    endloop
  endfacet
  facet normal -9.396926e-001 3.420201e-001 0.000000e+000
    outer loop
      vertex   5.502503e+001 2.583664e+001 0.000000e+000
      vertex   5.384387e+001 2.259141e+001 8.000000e+001
      vertex   5.502503e+001 2.583664e+001 8.000000e+001
    endloop
  endfacet
  facet normal -9.932384e-001 1.160929e-001 0.000000e+000
    outer loop
      vertex   5.542596e+001 2.926678e+001 0.000000e+000
      vertex   5.502503e+001 2.583664e+001 8.000000e+001
      vertex   5.542596e+001 2.926678e+001 8.000000e+001
    endloop
  endfacet
  facet normal -9.932384e-001 -1.160929e-001 0.000000e+000
    outer loop
      vertex   5.502503e+001 3.269693e+001 0.000000e+000
      vertex   5.542596e+001 2.926678e+001 0.000000e+000
      vertex   5.542596e+001 2.926678e+001 8.000000e+001
    endloop
  endfacet
  facet normal -6.862416e-001 -7.273736e-001 0.000000e+000
    outer loop
      vertex   5.194614e+001 3.882752e+001 0.000000e+000
      vertex   5.194614e+001 3.882752e+001 8.000000e+001
      vertex   4.943415e+001 4.119746e+001 0.000000e+000
    endloop
  endfacet
  facet normal -5.000000e-001 -8.660254e-001 0.000000e+000
    outer loop
      vertex   4.943415e+001 4.119746e+001 0.000000e+000
      vertex   4.943415e+001 4.119746e+001 8.000000e+001
      vertex   4.644333e+001 4.292421e+001 0.000000e+000
    endloop
  endfacet
  facet normal -2.868032e-001 -9.579895e-001 0.000000e+000
    outer loop
      vertex   4.644333e+001 4.292421e+001 0.000000e+000
      vertex   4.644333e+001 4.292421e+001 8.000000e+001
      vertex   4.313492e+001 4.391468e+001 0.000000e+000
    endloop
  endfacet
  facet normal -5.814483e-002 -9.983082e-001 0.000000e+000
    outer loop
      vertex   4.313492e+001 4.391468e+001 0.000000e+000
      vertex   4.313492e+001 4.391468e+001 8.000000e+001
      vertex   3.968726e+001 4.411548e+001 0.000000e+000
    endloop
  endfacet
  facet normal 1.736482e-001 -9.848078e-001 0.000000e+000
    outer loop
      vertex   3.968726e+001 4.411548e+001 0.000000e+000
      vertex   3.968726e+001 4.411548e+001 8.000000e+001
      vertex   3.628622e+001 4.351579e+001 0.000000e+000
    endloop
  endfacet
  facet normal 3.960798e-001 -9.182161e-001 3.517895e-017
    outer loop
      vertex   3.628622e+001 4.351579e+001 0.000000e+000
      vertex   3.628622e+001 4.351579e+001 8.000000e+001
      vertex   3.311516e+001 4.214793e+001 0.000000e+000
    endloop
  endfacet
  facet normal 5.971586e-001 -8.021232e-001 5.303834e-017
    outer loop
      vertex   3.311516e+001 4.214793e+001 0.000000e+000
      vertex   3.311516e+001 4.214793e+001 8.000000e+001
      vertex   3.034503e+001 4.008564e+001 0.000000e+000
    endloop
  endfacet
  facet normal 7.660444e-001 -6.427876e-001 0.000000e+000
    outer loop
      vertex   3.034503e+001 4.008564e+001 0.000000e+000
      vertex   3.034503e+001 4.008564e+001 8.000000e+001
      vertex   2.812516e+001 3.744011e+001 0.000000e+000
    endloop
  endfacet
  facet normal 8.936326e-001 -4.487992e-001 0.000000e+000
    outer loop
      vertex   2.812516e+001 3.744011e+001 0.000000e+000
      vertex   2.812516e+001 3.744011e+001 8.000000e+001
      vertex   2.657524e+001 3.435395e+001 0.000000e+000
    endloop
  endfacet
  facet normal 9.730449e-001 -2.306159e-001 0.000000e+000
    outer loop
      vertex   2.657524e+001 3.435395e+001 0.000000e+000
      vertex   2.657524e+001 3.435395e+001 8.000000e+001
      vertex   2.577880e+001 3.099353e+001 0.000000e+000
    endloop
  endfacet
  facet normal 1.000000e+000 0.000000e+000 -0.000000e+000
    outer loop
      vertex   2.577880e+001 3.099353e+001 0.000000e+000
      vertex   2.577880e+001 3.099353e+001 8.000000e+001
      vertex   2.577880e+001 2.754003e+001 0.000000e+000
    endloop
  endfacet
  facet normal 9.730449e-001 2.306159e-001 -0.000000e+000
    outer loop
      vertex   2.577880e+001 2.754003e+001 0.000000e+000
      vertex   2.577880e+001 2.754003e+001 8.000000e+001
      vertex   2.657524e+001 2.417962e+001 0.000000e+000
    endloop
  endfacet
  facet normal 8.936326e-001 4.487992e-001 -0.000000e+000
    outer loop
      vertex   2.657524e+001 2.417962e+001 0.000000e+000
      vertex   2.657524e+001 2.417962e+001 8.000000e+001
      vertex   2.812516e+001 2.109346e+001 0.000000e+000
    endloop
  endfacet
  facet normal 7.660444e-001 6.427876e-001 -0.000000e+000
    outer loop
      vertex   2.812516e+001 2.109346e+001 0.000000e+000
      vertex   2.812516e+001 2.109346e+001 8.000000e+001
      vertex   3.034503e+001 1.844793e+001 0.000000e+000
    endloop
  endfacet
  facet normal 5.971586e-001 8.021232e-001 -0.000000e+000
    outer loop
      vertex   3.034503e+001 1.844793e+001 0.000000e+000
      vertex   3.034503e+001 1.844793e+001 8.000000e+001
      vertex   3.311516e+001 1.638564e+001 0.000000e+000
    endloop
  endfacet
  facet normal 3.960798e-001 9.182161e-001 -3.517895e-017
    outer loop
      vertex   3.311516e+001 1.638564e+001 0.000000e+000
      vertex   3.311516e+001 1.638564e+001 8.000000e+001
      vertex   3.628622e+001 1.501778e+001 0.000000e+000
    endloop
  endfacet
  facet normal 1.736482e-001 9.848078e-001 6.444068e-018
    outer loop
      vertex   3.628622e+001 1.501778e+001 0.000000e+000
      vertex   3.628622e+001 1.501778e+001 8.000000e+001
      vertex   3.968726e+001 1.441808e+001 0.000000e+000
    endloop
  endfacet
  facet normal -5.814483e-002 9.983082e-001 0.000000e+000
    outer loop
      vertex   3.968726e+001 1.441808e+001 0.000000e+000
      vertex   3.968726e+001 1.441808e+001 8.000000e+001
      vertex   4.313492e+001 1.461889e+001 0.000000e+000
    endloop
  endfacet
  facet normal -2.868032e-001 9.579895e-001 -2.127164e-017
    outer loop
      vertex   4.313492e+001 1.461889e+001 0.000000e+000
      vertex   4.313492e+001 1.461889e+001 8.000000e+001
      vertex   4.644333e+001 1.560936e+001 0.000000e+000
    endloop
  endfacet
  facet normal -5.000000e-001 8.660254e-001 -1.922963e-017
    outer loop
      vertex   4.644333e+001 1.560936e+001 0.000000e+000
      vertex   4.644333e+001 1.560936e+001 8.000000e+001
      vertex   4.943415e+001 1.733611e+001 0.000000e+000
    endloop
  endfacet
  facet normal -6.862416e-001 7.273736e-001 0.000000e+000
    outer loop
      vertex   4.943415e+001 1.733611e+001 0.000000e+000
      vertex   4.943415e+001 1.733611e+001 8.000000e+001
      vertex   5.194614e+001 1.970605e+001 0.000000e+000
    endloop
  endfacet
  facet normal -8.354878e-001 5.495090e-001 0.000000e+000
    outer loop
      vertex   5.194614e+001 1.970605e+001 0.000000e+000
      vertex   5.194614e+001 1.970605e+001 8.000000e+001
      vertex   5.384387e+001 2.259141e+001 0.000000e+000
    endloop
  endfacet
  facet normal -9.396926e-001 3.420201e-001 0.000000e+000
    outer loop
      vertex   5.384387e+001 2.259141e+001 0.000000e+000
      vertex   5.384387e+001 2.259141e+001 8.000000e+001
      vertex   5.502503e+001 2.583664e+001 0.000000e+000
    endloop
  endfacet
  facet normal -9.932384e-001 1.160929e-001 0.000000e+000
    outer loop
      vertex   5.502503e+001 2.583664e+001 0.000000e+000
      vertex   5.502503e+001 2.583664e+001 8.000000e+001
      vertex   5.542596e+001 2.926678e+001 0.000000e+000
    endloop
  endfacet
  facet normal 9.957342e-001 -9.226836e-002 1.229261e-017
    outer loop
      vertex   6.286458e+001 2.509586e+001 8.000000e+001
      vertex   6.286458e+001 2.509586e+001 0.000000e+000
      vertex   6.325107e+001 2.926678e+001 8.000000e+001
    endloop
  endfacet
  facet normal 9.618256e-001 -2.736630e-001 3.445597e-017
    outer loop
      vertex   6.286458e+001 2.509586e+001 8.000000e+001
      vertex   6.171826e+001 2.106697e+001 8.000000e+001
      vertex   6.286458e+001 2.509586e+001 0.000000e+000
    endloop
  endfacet
  facet normal 9.618256e-001 -2.736630e-001 0.000000e+000
    outer loop
      vertex   6.286458e+001 2.509586e+001 0.000000e+000
      vertex   6.171826e+001 2.106697e+001 8.000000e+001
      vertex   6.171826e+001 2.106697e+001 0.000000e+000
    endloop
  endfacet
  facet normal 8.951633e-001 -4.457384e-001 0.000000e+000
    outer loop
      vertex   6.171826e+001 2.106697e+001 0.000000e+000
      vertex   6.171826e+001 2.106697e+001 8.000000e+001
      vertex   5.985115e+001 1.731731e+001 8.000000e+001
    endloop
  endfacet
  facet normal 7.980172e-001 -6.026346e-001 0.000000e+000
    outer loop
      vertex   5.985115e+001 1.731731e+001 0.000000e+000
      vertex   5.985115e+001 1.731731e+001 8.000000e+001
      vertex   5.732684e+001 1.397458e+001 8.000000e+001
    endloop
  endfacet
  facet normal 6.736956e-001 -7.390089e-001 5.800984e-018
    outer loop
      vertex   5.732684e+001 1.397458e+001 0.000000e+000
      vertex   5.732684e+001 1.397458e+001 8.000000e+001
      vertex   5.423129e+001 1.115261e+001 8.000000e+001
    endloop
  endfacet
  facet normal 5.264322e-001 -8.502171e-001 0.000000e+000
    outer loop
      vertex   5.423129e+001 1.115261e+001 0.000000e+000
      vertex   5.423129e+001 1.115261e+001 8.000000e+001
      vertex   5.066990e+001 8.947494e+000 8.000000e+001
    endloop
  endfacet
  facet normal 3.612417e-001 -9.324722e-001 6.006085e-017
    outer loop
      vertex   5.066990e+001 8.947494e+000 0.000000e+000
      vertex   5.066990e+001 8.947494e+000 8.000000e+001
      vertex   4.676397e+001 7.434326e+000 8.000000e+001
    endloop
  endfacet
  facet normal 1.837495e-001 -9.829731e-001 0.000000e+000
    outer loop
      vertex   4.676397e+001 7.434326e+000 0.000000e+000
      vertex   4.676397e+001 7.434326e+000 8.000000e+001
      vertex   4.264649e+001 6.664637e+000 8.000000e+001
    endloop
  endfacet
  facet normal 0.000000e+000 -1.000000e+000 0.000000e+000
    outer loop
      vertex   4.264649e+001 6.664637e+000 0.000000e+000
      vertex   4.264649e+001 6.664637e+000 8.000000e+001
      vertex   3.845770e+001 6.664637e+000 8.000000e+001
    endloop
  endfacet
  facet normal -1.837495e-001 -9.829731e-001 -3.824573e-017
    outer loop
      vertex   3.845770e+001 6.664637e+000 0.000000e+000
      vertex   3.845770e+001 6.664637e+000 8.000000e+001
      vertex   3.434023e+001 7.434326e+000 8.000000e+001
    endloop
  endfacet
  facet normal -3.612417e-001 -9.324722e-001 0.000000e+000
    outer loop
      vertex   3.434023e+001 7.434326e+000 0.000000e+000
      vertex   3.434023e+001 7.434326e+000 8.000000e+001
      vertex   3.043429e+001 8.947494e+000 8.000000e+001
    endloop
  endfacet
  facet normal -5.264322e-001 -8.502171e-001 4.675657e-017
    outer loop
      vertex   3.043429e+001 8.947494e+000 0.000000e+000
      vertex   3.043429e+001 8.947494e+000 8.000000e+001
      vertex   2.687291e+001 1.115261e+001 8.000000e+001
    endloop
  endfacet
  facet normal -6.736956e-001 -7.390089e-001 0.000000e+000
    outer loop
      vertex   2.687291e+001 1.115261e+001 0.000000e+000
      vertex   2.687291e+001 1.115261e+001 8.000000e+001
      vertex   2.377735e+001 1.397458e+001 8.000000e+001
    endloop
  endfacet
  facet normal -7.980172e-001 -6.026346e-001 0.000000e+000
    outer loop
      vertex   2.377735e+001 1.397458e+001 0.000000e+000
      vertex   2.377735e+001 1.397458e+001 8.000000e+001
      vertex   2.125304e+001 1.731731e+001 8.000000e+001
    endloop
  endfacet
  facet normal -8.951633e-001 -4.457384e-001 3.991695e-017
    outer loop
      vertex   2.125304e+001 1.731731e+001 0.000000e+000
      vertex   2.125304e+001 1.731731e+001 8.000000e+001
      vertex   1.938593e+001 2.106697e+001 8.000000e+001
    endloop
  endfacet
  facet normal -9.618256e-001 -2.736630e-001 6.254405e-018
    outer loop
      vertex   1.938593e+001 2.106697e+001 0.000000e+000
      vertex   1.938593e+001 2.106697e+001 8.000000e+001
      vertex   1.823961e+001 2.509586e+001 8.000000e+001
    endloop
  endfacet
  facet normal -9.957342e-001 -9.226836e-002 0.000000e+000
    outer loop
      vertex   1.823961e+001 2.509586e+001 0.000000e+000
      vertex   1.823961e+001 2.509586e+001 8.000000e+001
      vertex   1.785312e+001 2.926678e+001 8.000000e+001
    endloop
  endfacet
  facet normal -9.957342e-001 9.226836e-002 0.000000e+000
    outer loop
      vertex   1.785312e+001 2.926678e+001 0.000000e+000
      vertex   1.785312e+001 2.926678e+001 8.000000e+001
      vertex   1.823961e+001 3.343771e+001 8.000000e+001
    endloop
  endfacet
  facet normal -9.618256e-001 2.736630e-001 0.000000e+000
    outer loop
      vertex   1.823961e+001 3.343771e+001 0.000000e+000
      vertex   1.823961e+001 3.343771e+001 8.000000e+001
      vertex   1.938593e+001 3.746660e+001 8.000000e+001
    endloop
  endfacet
  facet normal -8.951633e-001 4.457384e-001 -1.637170e-019
    outer loop
      vertex   1.938593e+001 3.746660e+001 0.000000e+000
      vertex   1.938593e+001 3.746660e+001 8.000000e+001
      vertex   2.125304e+001 4.121626e+001 8.000000e+001
    endloop
  endfacet
  facet normal -7.980172e-001 6.026346e-001 3.617125e-017
    outer loop
      vertex   2.125304e+001 4.121626e+001 0.000000e+000
      vertex   2.125304e+001 4.121626e+001 8.000000e+001
      vertex   2.377735e+001 4.455899e+001 8.000000e+001
    endloop
  endfacet
  facet normal -6.736956e-001 7.390089e-001 0.000000e+000
    outer loop
      vertex   2.377735e+001 4.455899e+001 0.000000e+000
      vertex   2.377735e+001 4.455899e+001 8.000000e+001
      vertex   2.687291e+001 4.738096e+001 8.000000e+001
    endloop
  endfacet
  facet normal -5.264322e-001 8.502171e-001 0.000000e+000
    outer loop
      vertex   2.687291e+001 4.738096e+001 0.000000e+000
      vertex   2.687291e+001 4.738096e+001 8.000000e+001
      vertex   3.043429e+001 4.958608e+001 8.000000e+001
    endloop
  endfacet
  facet normal -3.612417e-001 9.324722e-001 -3.208471e-017
    outer loop
      vertex   3.043429e+001 4.958608e+001 0.000000e+000
      vertex   3.043429e+001 4.958608e+001 8.000000e+001
      vertex   3.434023e+001 5.109924e+001 8.000000e+001
    endloop
  endfacet
  facet normal -1.837495e-001 9.829731e-001 0.000000e+000
    outer loop
      vertex   3.434023e+001 5.109924e+001 0.000000e+000
      vertex   3.434023e+001 5.109924e+001 8.000000e+001
      vertex   3.845770e+001 5.186893e+001 8.000000e+001
    endloop
  endfacet
  facet normal -3.392588e-015 1.000000e+000 1.776357e-016
    outer loop
      vertex   3.845770e+001 5.186893e+001 0.000000e+000
      vertex   3.845770e+001 5.186893e+001 8.000000e+001
      vertex   4.264649e+001 5.186893e+001 8.000000e+001
    endloop
  endfacet
  facet normal 1.837495e-001 9.829731e-001 -0.000000e+000
    outer loop
      vertex   4.264649e+001 5.186893e+001 0.000000e+000
      vertex   4.264649e+001 5.186893e+001 8.000000e+001
      vertex   4.676397e+001 5.109924e+001 8.000000e+001
    endloop
  endfacet
  facet normal 3.612417e-001 9.324722e-001 -0.000000e+000
    outer loop
      vertex   4.676397e+001 5.109924e+001 0.000000e+000
      vertex   4.676397e+001 5.109924e+001 8.000000e+001
      vertex   5.066990e+001 4.958608e+001 8.000000e+001
    endloop
  endfacet
  facet normal 5.264322e-001 8.502171e-001 -5.751577e-017
    outer loop
      vertex   5.066990e+001 4.958608e+001 0.000000e+000
      vertex   5.066990e+001 4.958608e+001 8.000000e+001
      vertex   5.423129e+001 4.738096e+001 8.000000e+001
    endloop
  endfacet
  facet normal 6.736956e-001 7.390089e-001 -0.000000e+000
    outer loop
      vertex   5.423129e+001 4.738096e+001 0.000000e+000
      vertex   5.423129e+001 4.738096e+001 8.000000e+001
      vertex   5.732684e+001 4.455899e+001 8.000000e+001
    endloop
  endfacet
  facet normal 7.980172e-001 6.026346e-001 1.735346e-017
    outer loop
      vertex   5.732684e+001 4.455899e+001 0.000000e+000
      vertex   5.732684e+001 4.455899e+001 8.000000e+001
      vertex   5.985115e+001 4.121626e+001 8.000000e+001
    endloop
  endfacet
  facet normal 8.951633e-001 4.457384e-001 -0.000000e+000
    outer loop
      vertex   5.985115e+001 4.121626e+001 0.000000e+000
      vertex   5.985115e+001 4.121626e+001 8.000000e+001
      vertex   6.171826e+001 3.746660e+001 8.000000e+001
    endloop
  endfacet
  facet normal 9.618256e-001 2.736630e-001 -0.000000e+000
    outer loop
      vertex   6.171826e+001 3.746660e+001 0.000000e+000
      vertex   6.171826e+001 3.746660e+001 8.000000e+001
      vertex   6.286458e+001 3.343771e+001 8.000000e+001
    endloop
  endfacet
  facet normal 9.957342e-001 9.226836e-002 -8.195077e-018
    outer loop
      vertex   6.286458e+001 3.343771e+001 0.000000e+000
      vertex   6.286458e+001 3.343771e+001 8.000000e+001
      vertex   6.325107e+001 2.926678e+001 0.000000e+000
    endloop
  endfacet
  facet normal 9.618256e-001 2.736630e-001 -2.385413e-017
    outer loop
      vertex   6.286458e+001 3.343771e+001 0.000000e+000
      vertex   6.171826e+001 3.746660e+001 0.000000e+000
      vertex   6.286458e+001 3.343771e+001 8.000000e+001
    endloop
  endfacet
  facet normal 8.951633e-001 -4.457384e-001 0.000000e+000
    outer loop
      vertex   6.171826e+001 2.106697e+001 0.000000e+000
      vertex   5.985115e+001 1.731731e+001 8.000000e+001
      vertex   5.985115e+001 1.731731e+001 0.000000e+000
    endloop
  endfacet
  facet normal 7.980172e-001 -6.026346e-001 -1.735346e-017
    outer loop
      vertex   5.985115e+001 1.731731e+001 0.000000e+000
      vertex   5.732684e+001 1.397458e+001 8.000000e+001
      vertex   5.732684e+001 1.397458e+001 0.000000e+000
    endloop
  endfacet
  facet normal 6.736956e-001 -7.390089e-001 0.000000e+000
    outer loop
      vertex   5.732684e+001 1.397458e+001 0.000000e+000
      vertex   5.423129e+001 1.115261e+001 8.000000e+001
      vertex   5.423129e+001 1.115261e+001 0.000000e+000
    endloop
  endfacet
  facet normal 5.264322e-001 -8.502171e-001 1.975854e-017
    outer loop
      vertex   5.423129e+001 1.115261e+001 0.000000e+000
      vertex   5.066990e+001 8.947494e+000 8.000000e+001
      vertex   5.066990e+001 8.947494e+000 0.000000e+000
    endloop
  endfacet
  facet normal 3.612417e-001 -9.324722e-001 0.000000e+000
    outer loop
      vertex   5.066990e+001 8.947494e+000 0.000000e+000
      vertex   4.676397e+001 7.434326e+000 8.000000e+001
      vertex   4.676397e+001 7.434326e+000 0.000000e+000
    endloop
  endfacet
  facet normal 1.837495e-001 -9.829731e-001 0.000000e+000
    outer loop
      vertex   4.676397e+001 7.434326e+000 0.000000e+000
      vertex   4.264649e+001 6.664637e+000 8.000000e+001
      vertex   4.264649e+001 6.664637e+000 0.000000e+000
    endloop
  endfacet
  facet normal -1.060184e-015 -1.000000e+000 -5.551115e-017
    outer loop
      vertex   4.264649e+001 6.664637e+000 0.000000e+000
      vertex   3.845770e+001 6.664637e+000 8.000000e+001
      vertex   3.845770e+001 6.664637e+000 0.000000e+000
    endloop
  endfacet
  facet normal -1.837495e-001 -9.829731e-001 -0.000000e+000
    outer loop
      vertex   3.845770e+001 6.664637e+000 0.000000e+000
      vertex   3.434023e+001 7.434326e+000 8.000000e+001
      vertex   3.434023e+001 7.434326e+000 0.000000e+000
    endloop
  endfacet
  facet normal -3.612417e-001 -9.324722e-001 3.208471e-017
    outer loop
      vertex   3.434023e+001 7.434326e+000 0.000000e+000
      vertex   3.043429e+001 8.947494e+000 8.000000e+001
      vertex   3.043429e+001 8.947494e+000 0.000000e+000
    endloop
  endfacet
  facet normal -5.264322e-001 -8.502171e-001 -0.000000e+000
    outer loop
      vertex   3.043429e+001 8.947494e+000 0.000000e+000
      vertex   2.687291e+001 1.115261e+001 8.000000e+001
      vertex   2.687291e+001 1.115261e+001 0.000000e+000
    endloop
  endfacet
  facet normal -6.736956e-001 -7.390089e-001 -0.000000e+000
    outer loop
      vertex   2.687291e+001 1.115261e+001 0.000000e+000
      vertex   2.377735e+001 1.397458e+001 8.000000e+001
      vertex   2.377735e+001 1.397458e+001 0.000000e+000
    endloop
  endfacet
  facet normal -7.980172e-001 -6.026346e-001 1.735346e-017
    outer loop
      vertex   2.377735e+001 1.397458e+001 0.000000e+000
      vertex   2.125304e+001 1.731731e+001 8.000000e+001
      vertex   2.125304e+001 1.731731e+001 0.000000e+000
    endloop
  endfacet
  facet normal -8.951633e-001 -4.457384e-001 -1.963104e-017
    outer loop
      vertex   2.125304e+001 1.731731e+001 0.000000e+000
      vertex   1.938593e+001 2.106697e+001 8.000000e+001
      vertex   1.938593e+001 2.106697e+001 0.000000e+000
    endloop
  endfacet
  facet normal -9.618256e-001 -2.736630e-001 -0.000000e+000
    outer loop
      vertex   1.938593e+001 2.106697e+001 0.000000e+000
      vertex   1.823961e+001 2.509586e+001 8.000000e+001
      vertex   1.823961e+001 2.509586e+001 0.000000e+000
    endloop
  endfacet
  facet normal -9.957342e-001 -9.226836e-002 -0.000000e+000
    outer loop
      vertex   1.823961e+001 2.509586e+001 0.000000e+000
      vertex   1.785312e+001 2.926678e+001 8.000000e+001
      vertex   1.785312e+001 2.926678e+001 0.000000e+000
    endloop
  endfacet
  facet normal -9.957342e-001 9.226836e-002 0.000000e+000
    outer loop
      vertex   1.785312e+001 2.926678e+001 0.000000e+000
      vertex   1.823961e+001 3.343771e+001 8.000000e+001
      vertex   1.823961e+001 3.343771e+001 0.000000e+000
    endloop
  endfacet
  facet normal -9.618256e-001 2.736630e-001 -1.840748e-017
    outer loop
      vertex   1.823961e+001 3.343771e+001 0.000000e+000
      vertex   1.938593e+001 3.746660e+001 8.000000e+001
      vertex   1.938593e+001 3.746660e+001 0.000000e+000
    endloop
  endfacet
  facet normal -8.951633e-001 4.457384e-001 -3.274341e-019
    outer loop
      vertex   1.938593e+001 3.746660e+001 0.000000e+000
      vertex   2.125304e+001 4.121626e+001 8.000000e+001
      vertex   2.125304e+001 4.121626e+001 0.000000e+000
    endloop
  endfacet
  facet normal -7.980172e-001 6.026346e-001 0.000000e+000
    outer loop
      vertex   2.125304e+001 4.121626e+001 0.000000e+000
      vertex   2.377735e+001 4.455899e+001 8.000000e+001
      vertex   2.377735e+001 4.455899e+001 0.000000e+000
    endloop
  endfacet
  facet normal -6.736956e-001 7.390089e-001 0.000000e+000
    outer loop
      vertex   2.377735e+001 4.455899e+001 0.000000e+000
      vertex   2.687291e+001 4.738096e+001 8.000000e+001
      vertex   2.687291e+001 4.738096e+001 0.000000e+000
    endloop
  endfacet
  facet normal -5.264322e-001 8.502171e-001 -4.675657e-017
    outer loop
      vertex   2.687291e+001 4.738096e+001 0.000000e+000
      vertex   3.043429e+001 4.958608e+001 8.000000e+001
      vertex   3.043429e+001 4.958608e+001 0.000000e+000
    endloop
  endfacet
  facet normal -3.612417e-001 9.324722e-001 0.000000e+000
    outer loop
      vertex   3.043429e+001 4.958608e+001 0.000000e+000
      vertex   3.434023e+001 5.109924e+001 8.000000e+001
      vertex   3.434023e+001 5.109924e+001 0.000000e+000
    endloop
  endfacet
  facet normal -1.837495e-001 9.829731e-001 1.582909e-016
    outer loop
      vertex   3.434023e+001 5.109924e+001 0.000000e+000
      vertex   3.845770e+001 5.186893e+001 8.000000e+001
      vertex   3.845770e+001 5.186893e+001 0.000000e+000
    endloop
  endfacet
  facet normal -0.000000e+000 1.000000e+000 0.000000e+000
    outer loop
      vertex   3.845770e+001 5.186893e+001 0.000000e+000
      vertex   4.264649e+001 5.186893e+001 8.000000e+001
      vertex   4.264649e+001 5.186893e+001 0.000000e+000
    endloop
  endfacet
  facet normal 1.837495e-001 9.829731e-001 0.000000e+000
    outer loop
      vertex   4.264649e+001 5.186893e+001 0.000000e+000
      vertex   4.676397e+001 5.109924e+001 8.000000e+001
      vertex   4.676397e+001 5.109924e+001 0.000000e+000
    endloop
  endfacet
  facet normal 3.612417e-001 9.324722e-001 -1.014709e-016
    outer loop
      vertex   4.676397e+001 5.109924e+001 0.000000e+000
      vertex   5.066990e+001 4.958608e+001 8.000000e+001
      vertex   5.066990e+001 4.958608e+001 0.000000e+000
    endloop
  endfacet
  facet normal 5.264322e-001 8.502171e-001 0.000000e+000
    outer loop
      vertex   5.066990e+001 4.958608e+001 0.000000e+000
      vertex   5.423129e+001 4.738096e+001 8.000000e+001
      vertex   5.423129e+001 4.738096e+001 0.000000e+000
    endloop
  endfacet
  facet normal 6.736956e-001 7.390089e-001 -5.800984e-018
    outer loop
      vertex   5.423129e+001 4.738096e+001 0.000000e+000
      vertex   5.732684e+001 4.455899e+001 8.000000e+001
      vertex   5.732684e+001 4.455899e+001 0.000000e+000
    endloop
  endfacet
  facet normal 7.980172e-001 6.026346e-001 0.000000e+000
    outer loop
      vertex   5.732684e+001 4.455899e+001 0.000000e+000
      vertex   5.985115e+001 4.121626e+001 8.000000e+001
      vertex   5.985115e+001 4.121626e+001 0.000000e+000
    endloop
  endfacet
  facet normal 8.951633e-001 4.457384e-001 0.000000e+000
    outer loop
      vertex   5.985115e+001 4.121626e+001 0.000000e+000
      vertex   6.171826e+001 3.746660e+001 8.000000e+001
      vertex   6.171826e+001 3.746660e+001 0.000000e+000
    endloop
  endfacet
  facet normal 9.957342e-001 9.226836e-002 0.000000e+000
    outer loop
      vertex   6.286458e+001 3.343771e+001 8.000000e+001
      vertex   6.325107e+001 2.926678e+001 8.000000e+001
      vertex   6.325107e+001 2.926678e+001 0.000000e+000
    endloop
  endfacet
  facet normal 9.957342e-001 -9.226836e-002 0.000000e+000
    outer loop
      vertex   6.325107e+001 2.926678e+001 0.000000e+000
      vertex   6.325107e+001 2.926678e+001 8.000000e+001
      vertex   6.286458e+001 2.509586e+001 0.000000e+000
    endloop
  endfacet
  facet normal 0.000000e+000 -0.000000e+000 -1.000000e+000
    outer loop
      vertex   5.502503e+001 3.269693e+001 0.000000e+000
      vertex   6.286458e+001 3.343771e+001 0.000000e+000
      vertex   5.542596e+001 2.926678e+001 0.000000e+000
    endloop
  endfacet
  facet normal 0.000000e+000 0.000000e+000 -1.000000e+000
    outer loop
      vertex   5.502503e+001 3.269693e+001 0.000000e+000
      vertex   6.171826e+001 3.746660e+001 0.000000e+000
      vertex   6.286458e+001 3.343771e+001 0.000000e+000
    endloop
  endfacet
  facet normal 0.000000e+000 0.000000e+000 -1.000000e+000
    outer loop
      vertex   5.502503e+001 3.269693e+001 0.000000e+000
      vertex   5.384387e+001 3.594216e+001 0.000000e+000
      vertex   6.171826e+001 3.746660e+001 0.000000e+000
    endloop
  endfacet
  facet normal -0.000000e+000 0.000000e+000 -1.000000e+000
    outer loop
      vertex   6.171826e+001 3.746660e+001 0.000000e+000
      vertex   5.384387e+001 3.594216e+001 0.000000e+000
      vertex   5.985115e+001 4.121626e+001 0.000000e+000
    endloop
  endfacet
  facet normal -0.000000e+000 0.000000e+000 -1.000000e+000
    outer loop
      vertex   5.985115e+001 4.121626e+001 0.000000e+000
      vertex   5.384387e+001 3.594216e+001 0.000000e+000
      vertex   5.194614e+001 3.882752e+001 0.000000e+000
    endloop
  endfacet
  facet normal -0.000000e+000 0.000000e+000 -1.000000e+000
    outer loop
      vertex   5.732684e+001 4.455899e+001 0.000000e+000
      vertex   5.194614e+001 3.882752e+001 0.000000e+000
      vertex   4.943415e+001 4.119746e+001 0.000000e+000
    endloop
  endfacet
  facet normal -0.000000e+000 0.000000e+000 -1.000000e+000
    outer loop
      vertex   5.423129e+001 4.738096e+001 0.000000e+000
      vertex   4.943415e+001 4.119746e+001 0.000000e+000
      vertex   5.066990e+001 4.958608e+001 0.000000e+000
    endloop
  endfacet
  facet normal 0.000000e+000 -0.000000e+000 -1.000000e+000
    outer loop
      vertex   5.423129e+001 4.738096e+001 0.000000e+000
      vertex   5.732684e+001 4.455899e+001 0.000000e+000
      vertex   4.943415e+001 4.119746e+001 0.000000e+000
    endloop
  endfacet
  facet normal -0.000000e+000 0.000000e+000 -1.000000e+000
    outer loop
      vertex   5.985115e+001 4.121626e+001 0.000000e+000
      vertex   5.194614e+001 3.882752e+001 0.000000e+000
      vertex   5.732684e+001 4.455899e+001 0.000000e+000
    endloop
  endfacet
  facet normal 0.000000e+000 0.000000e+000 -1.000000e+000
    outer loop
      vertex   4.943415e+001 4.119746e+001 0.000000e+000
      vertex   4.644333e+001 4.292421e+001 0.000000e+000
      vertex   5.066990e+001 4.958608e+001 0.000000e+000
    endloop
  endfacet
  facet normal -0.000000e+000 0.000000e+000 -1.000000e+000
    outer loop
      vertex   5.066990e+001 4.958608e+001 0.000000e+000
      vertex   4.644333e+001 4.292421e+001 0.000000e+000
      vertex   4.676397e+001 5.109924e+001 0.000000e+000
    endloop
  endfacet
  facet normal -0.000000e+000 0.000000e+000 -1.000000e+000
    outer loop
      vertex   4.676397e+001 5.109924e+001 0.000000e+000
      vertex   4.644333e+001 4.292421e+001 0.000000e+000
      vertex   4.313492e+001 4.391468e+001 0.000000e+000
    endloop
  endfacet
  facet normal -0.000000e+000 -0.000000e+000 -1.000000e+000
    outer loop
      vertex   4.264649e+001 5.186893e+001 0.000000e+000
      vertex   4.313492e+001 4.391468e+001 0.000000e+000
      vertex   3.968726e+001 4.411548e+001 0.000000e+000
    endloop
  endfacet
  facet normal 0.000000e+000 -0.000000e+000 -1.000000e+000
    outer loop
      vertex   3.845770e+001 5.186893e+001 0.000000e+000
      vertex   3.968726e+001 4.411548e+001 0.000000e+000
      vertex   3.628622e+001 4.351579e+001 0.000000e+000
    endloop
  endfacet
  facet normal -0.000000e+000 -0.000000e+000 -1.000000e+000
    outer loop
      vertex   3.434023e+001 5.109924e+001 0.000000e+000
      vertex   3.628622e+001 4.351579e+001 0.000000e+000
      vertex   3.043429e+001 4.958608e+001 0.000000e+000
    endloop
  endfacet
  facet normal 0.000000e+000 -0.000000e+000 -1.000000e+000
    outer loop
      vertex   3.434023e+001 5.109924e+001 0.000000e+000
      vertex   3.845770e+001 5.186893e+001 0.000000e+000
      vertex   3.628622e+001 4.351579e+001 0.000000e+000
    endloop
  endfacet
  facet normal -0.000000e+000 0.000000e+000 -1.000000e+000
    outer loop
      vertex   4.676397e+001 5.109924e+001 0.000000e+000
      vertex   4.313492e+001 4.391468e+001 0.000000e+000
      vertex   4.264649e+001 5.186893e+001 0.000000e+000
    endloop
  endfacet
  facet normal -0.000000e+000 0.000000e+000 -1.000000e+000
    outer loop
      vertex   4.264649e+001 5.186893e+001 0.000000e+000
      vertex   3.968726e+001 4.411548e+001 0.000000e+000
      vertex   3.845770e+001 5.186893e+001 0.000000e+000
    endloop
  endfacet
  facet normal -0.000000e+000 0.000000e+000 -1.000000e+000
    outer loop
      vertex   3.628622e+001 4.351579e+001 0.000000e+000
      vertex   3.311516e+001 4.214793e+001 0.000000e+000
      vertex   3.043429e+001 4.958608e+001 0.000000e+000
    endloop
  endfacet
  facet normal -0.000000e+000 -0.000000e+000 -1.000000e+000
    outer loop
      vertex   3.043429e+001 4.958608e+001 0.000000e+000
      vertex   3.311516e+001 4.214793e+001 0.000000e+000
      vertex   2.687291e+001 4.738096e+001 0.000000e+000
    endloop
  endfacet
  facet normal 0.000000e+000 -0.000000e+000 -1.000000e+000
    outer loop
      vertex   2.687291e+001 4.738096e+001 0.000000e+000
      vertex   3.311516e+001 4.214793e+001 0.000000e+000
      vertex   3.034503e+001 4.008564e+001 0.000000e+000
    endloop
  endfacet
  facet normal 0.000000e+000 -0.000000e+000 -1.000000e+000
    outer loop
      vertex   2.377735e+001 4.455899e+001 0.000000e+000
      vertex   3.034503e+001 4.008564e+001 0.000000e+000
      vertex   2.812516e+001 3.744011e+001 0.000000e+000
    endloop
  endfacet
  facet normal 0.000000e+000 -0.000000e+000 -1.000000e+000
    outer loop
      vertex   2.125304e+001 4.121626e+001 0.000000e+000
      vertex   2.812516e+001 3.744011e+001 0.000000e+000
      vertex   2.657524e+001 3.435395e+001 0.000000e+000
    endloop
  endfacet
  facet normal 0.000000e+000 -0.000000e+000 -1.000000e+000
    outer loop
      vertex   1.938593e+001 3.746660e+001 0.000000e+000
      vertex   2.657524e+001 3.435395e+001 0.000000e+000
      vertex   1.823961e+001 3.343771e+001 0.000000e+000
    endloop
  endfacet
  facet normal 0.000000e+000 0.000000e+000 -1.000000e+000
    outer loop
      vertex   1.938593e+001 3.746660e+001 0.000000e+000
      vertex   2.125304e+001 4.121626e+001 0.000000e+000
      vertex   2.657524e+001 3.435395e+001 0.000000e+000
    endloop
  endfacet
  facet normal -0.000000e+000 -0.000000e+000 -1.000000e+000
    outer loop
      vertex   2.687291e+001 4.738096e+001 0.000000e+000
      vertex   3.034503e+001 4.008564e+001 0.000000e+000
      vertex   2.377735e+001 4.455899e+001 0.000000e+000
    endloop
  endfacet
  facet normal -0.000000e+000 -0.000000e+000 -1.000000e+000
    outer loop
      vertex   2.377735e+001 4.455899e+001 0.000000e+000
      vertex   2.812516e+001 3.744011e+001 0.000000e+000
      vertex   2.125304e+001 4.121626e+001 0.000000e+000
    endloop
  endfacet
  facet normal -0.000000e+000 0.000000e+000 -1.000000e+000
    outer loop
      vertex   2.657524e+001 3.435395e+001 0.000000e+000
      vertex   2.577880e+001 3.099353e+001 0.000000e+000
      vertex   1.823961e+001 3.343771e+001 0.000000e+000
    endloop
  endfacet
  facet normal 0.000000e+000 -0.000000e+000 -1.000000e+000
    outer loop
      vertex   1.823961e+001 3.343771e+001 0.000000e+000
      vertex   2.577880e+001 3.099353e+001 0.000000e+000
      vertex   1.785312e+001 2.926678e+001 0.000000e+000
    endloop
  endfacet
  facet normal 0.000000e+000 0.000000e+000 -1.000000e+000
    outer loop
      vertex   1.785312e+001 2.926678e+001 0.000000e+000
      vertex   2.577880e+001 3.099353e+001 0.000000e+000
      vertex   2.577880e+001 2.754003e+001 0.000000e+000
    endloop
  endfacet
  facet normal 0.000000e+000 0.000000e+000 -1.000000e+000
    outer loop
      vertex   1.823961e+001 2.509586e+001 0.000000e+000
      vertex   2.577880e+001 2.754003e+001 0.000000e+000
      vertex   2.657524e+001 2.417962e+001 0.000000e+000
    endloop
  endfacet
  facet normal 0.000000e+000 -0.000000e+000 -1.000000e+000
    outer loop
      vertex   1.938593e+001 2.106697e+001 0.000000e+000
      vertex   2.657524e+001 2.417962e+001 0.000000e+000
      vertex   2.125304e+001 1.731731e+001 0.000000e+000
    endloop
  endfacet
  facet normal 0.000000e+000 0.000000e+000 -1.000000e+000
    outer loop
      vertex   1.938593e+001 2.106697e+001 0.000000e+000
      vertex   1.823961e+001 2.509586e+001 0.000000e+000
      vertex   2.657524e+001 2.417962e+001 0.000000e+000
    endloop
  endfacet
  facet normal 0.000000e+000 -0.000000e+000 -1.000000e+000
    outer loop
      vertex   1.785312e+001 2.926678e+001 0.000000e+000
      vertex   2.577880e+001 2.754003e+001 0.000000e+000
      vertex   1.823961e+001 2.509586e+001 0.000000e+000
    endloop
  endfacet
  facet normal 0.000000e+000 -0.000000e+000 -1.000000e+000
    outer loop
      vertex   2.657524e+001 2.417962e+001 0.000000e+000
      vertex   2.812516e+001 2.109346e+001 0.000000e+000
      vertex   2.125304e+001 1.731731e+001 0.000000e+000
    endloop
  endfacet
  facet normal 0.000000e+000 -0.000000e+000 -1.000000e+000
    outer loop
      vertex   2.125304e+001 1.731731e+001 0.000000e+000
      vertex   2.812516e+001 2.109346e+001 0.000000e+000
      vertex   2.377735e+001 1.397458e+001 0.000000e+000
    endloop
  endfacet
  facet normal 0.000000e+000 0.000000e+000 -1.000000e+000
    outer loop
      vertex   2.377735e+001 1.397458e+001 0.000000e+000
      vertex   2.812516e+001 2.109346e+001 0.000000e+000
      vertex   3.034503e+001 1.844793e+001 0.000000e+000
    endloop
  endfacet
  facet normal 0.000000e+000 0.000000e+000 -1.000000e+000
    outer loop
      vertex   2.687291e+001 1.115261e+001 0.000000e+000
      vertex   3.034503e+001 1.844793e+001 0.000000e+000
      vertex   3.311516e+001 1.638564e+001 0.000000e+000
    endloop
  endfacet
  facet normal 0.000000e+000 0.000000e+000 -1.000000e+000
    outer loop
      vertex   3.043429e+001 8.947494e+000 0.000000e+000
      vertex   3.311516e+001 1.638564e+001 0.000000e+000
      vertex   3.628622e+001 1.501778e+001 0.000000e+000
    endloop
  endfacet
  facet normal 0.000000e+000 0.000000e+000 -1.000000e+000
    outer loop
      vertex   3.434023e+001 7.434326e+000 0.000000e+000
      vertex   3.628622e+001 1.501778e+001 0.000000e+000
      vertex   3.845770e+001 6.664637e+000 0.000000e+000
    endloop
  endfacet
  facet normal 0.000000e+000 0.000000e+000 -1.000000e+000
    outer loop
      vertex   3.434023e+001 7.434326e+000 0.000000e+000
      vertex   3.043429e+001 8.947494e+000 0.000000e+000
      vertex   3.628622e+001 1.501778e+001 0.000000e+000
    endloop
  endfacet
  facet normal 0.000000e+000 -0.000000e+000 -1.000000e+000
    outer loop
      vertex   2.377735e+001 1.397458e+001 0.000000e+000
      vertex   3.034503e+001 1.844793e+001 0.000000e+000
      vertex   2.687291e+001 1.115261e+001 0.000000e+000
    endloop
  endfacet
  facet normal 0.000000e+000 -0.000000e+000 -1.000000e+000
    outer loop
      vertex   2.687291e+001 1.115261e+001 0.000000e+000
      vertex   3.311516e+001 1.638564e+001 0.000000e+000
      vertex   3.043429e+001 8.947494e+000 0.000000e+000
    endloop
  endfacet
  facet normal 0.000000e+000 -0.000000e+000 -1.000000e+000
    outer loop
      vertex   3.628622e+001 1.501778e+001 0.000000e+000
      vertex   3.968726e+001 1.441808e+001 0.000000e+000
      vertex   3.845770e+001 6.664637e+000 0.000000e+000
    endloop
  endfacet
  facet normal 0.000000e+000 0.000000e+000 -1.000000e+000
    outer loop
      vertex   3.845770e+001 6.664637e+000 0.000000e+000
      vertex   3.968726e+001 1.441808e+001 0.000000e+000
      vertex   4.264649e+001 6.664637e+000 0.000000e+000
    endloop
  endfacet
  facet normal 0.000000e+000 0.000000e+000 -1.000000e+000
    outer loop
      vertex   4.264649e+001 6.664637e+000 0.000000e+000
      vertex   3.968726e+001 1.441808e+001 0.000000e+000
      vertex   4.313492e+001 1.461889e+001 0.000000e+000
    endloop
  endfacet
  facet normal 0.000000e+000 0.000000e+000 -1.000000e+000
    outer loop
      vertex   4.676397e+001 7.434326e+000 0.000000e+000
      vertex   4.313492e+001 1.461889e+001 0.000000e+000
      vertex   4.644333e+001 1.560936e+001 0.000000e+000
    endloop
  endfacet
  facet normal 0.000000e+000 0.000000e+000 -1.000000e+000
    outer loop
      vertex   5.066990e+001 8.947494e+000 0.000000e+000
      vertex   4.644333e+001 1.560936e+001 0.000000e+000
      vertex   4.943415e+001 1.733611e+001 0.000000e+000
    endloop
  endfacet
  facet normal 0.000000e+000 0.000000e+000 -1.000000e+000
    outer loop
      vertex   5.423129e+001 1.115261e+001 0.000000e+000
      vertex   4.943415e+001 1.733611e+001 0.000000e+000
      vertex   5.732684e+001 1.397458e+001 0.000000e+000
    endloop
  endfacet
  facet normal -0.000000e+000 0.000000e+000 -1.000000e+000
    outer loop
      vertex   5.423129e+001 1.115261e+001 0.000000e+000
      vertex   5.066990e+001 8.947494e+000 0.000000e+000
      vertex   4.943415e+001 1.733611e+001 0.000000e+000
    endloop
  endfacet
  facet normal 0.000000e+000 0.000000e+000 -1.000000e+000
    outer loop
      vertex   4.264649e+001 6.664637e+000 0.000000e+000
      vertex   4.313492e+001 1.461889e+001 0.000000e+000
      vertex   4.676397e+001 7.434326e+000 0.000000e+000
    endloop
  endfacet
  facet normal 0.000000e+000 0.000000e+000 -1.000000e+000
    outer loop
      vertex   4.676397e+001 7.434326e+000 0.000000e+000
      vertex   4.644333e+001 1.560936e+001 0.000000e+000
      vertex   5.066990e+001 8.947494e+000 0.000000e+000
    endloop
  endfacet
  facet normal 0.000000e+000 0.000000e+000 -1.000000e+000
    outer loop
      vertex   4.943415e+001 1.733611e+001 0.000000e+000
      vertex   5.194614e+001 1.970605e+001 0.000000e+000
      vertex   5.732684e+001 1.397458e+001 0.000000e+000
    endloop
  endfacet
  facet normal 0.000000e+000 0.000000e+000 -1.000000e+000
    outer loop
      vertex   5.732684e+001 1.397458e+001 0.000000e+000
      vertex   5.194614e+001 1.970605e+001 0.000000e+000
      vertex   5.985115e+001 1.731731e+001 0.000000e+000
    endloop
  endfacet
  facet normal 0.000000e+000 0.000000e+000 -1.000000e+000
    outer loop
      vertex   5.985115e+001 1.731731e+001 0.000000e+000
      vertex   5.194614e+001 1.970605e+001 0.000000e+000
      vertex   5.384387e+001 2.259141e+001 0.000000e+000
    endloop
  endfacet
  facet normal 0.000000e+000 0.000000e+000 -1.000000e+000
    outer loop
      vertex   6.171826e+001 2.106697e+001 0.000000e+000
      vertex   5.384387e+001 2.259141e+001 0.000000e+000
      vertex   5.502503e+001 2.583664e+001 0.000000e+000
    endloop
  endfacet
  facet normal 0.000000e+000 0.000000e+000 -1.000000e+000
    outer loop
      vertex   6.286458e+001 2.509586e+001 0.000000e+000
      vertex   5.502503e+001 2.583664e+001 0.000000e+000
      vertex   5.542596e+001 2.926678e+001 0.000000e+000
    endloop
  endfacet
  facet normal -0.000000e+000 0.000000e+000 -1.000000e+000
    outer loop
      vertex   6.325107e+001 2.926678e+001 0.000000e+000
      vertex   5.542596e+001 2.926678e+001 0.000000e+000
      vertex   6.286458e+001 3.343771e+001 0.000000e+000
    endloop
  endfacet
  facet normal -0.000000e+000 0.000000e+000 -1.000000e+000
    outer loop
      vertex   6.325107e+001 2.926678e+001 0.000000e+000
      vertex   6.286458e+001 2.509586e+001 0.000000e+000
      vertex   5.542596e+001 2.926678e+001 0.000000e+000
    endloop
  endfacet
  facet normal 0.000000e+000 0.000000e+000 -1.000000e+000
    outer loop
      vertex   5.985115e+001 1.731731e+001 0.000000e+000
      vertex   5.384387e+001 2.259141e+001 0.000000e+000
      vertex   6.171826e+001 2.106697e+001 0.000000e+000
    endloop
  endfacet
  facet normal 0.000000e+000 0.000000e+000 -1.000000e+000
    outer loop
      vertex   6.171826e+001 2.106697e+001 0.000000e+000
      vertex   5.502503e+001 2.583664e+001 0.000000e+000
      vertex   6.286458e+001 2.509586e+001 0.000000e+000
    endloop
  endfacet
  facet normal -0.000000e+000 -0.000000e+000 1.000000e+000
    outer loop
      vertex   5.502503e+001 2.583664e+001 8.000000e+001
      vertex   6.286458e+001 2.509586e+001 8.000000e+001
      vertex   5.542596e+001 2.926678e+001 8.000000e+001
    endloop
  endfacet
  facet normal -0.000000e+000 0.000000e+000 1.000000e+000
    outer loop
      vertex   5.502503e+001 2.583664e+001 8.000000e+001
      vertex   6.171826e+001 2.106697e+001 8.000000e+001
      vertex   6.286458e+001 2.509586e+001 8.000000e+001
    endloop
  endfacet
  facet normal 0.000000e+000 0.000000e+000 1.000000e+000
    outer loop
      vertex   5.502503e+001 2.583664e+001 8.000000e+001
      vertex   5.384387e+001 2.259141e+001 8.000000e+001
      vertex   6.171826e+001 2.106697e+001 8.000000e+001
    endloop
  endfacet
  facet normal 0.000000e+000 0.000000e+000 1.000000e+000
    outer loop
      vertex   6.171826e+001 2.106697e+001 8.000000e+001
      vertex   5.384387e+001 2.259141e+001 8.000000e+001
      vertex   5.985115e+001 1.731731e+001 8.000000e+001
    endloop
  endfacet
  facet normal 0.000000e+000 0.000000e+000 1.000000e+000
    outer loop
      vertex   5.985115e+001 1.731731e+001 8.000000e+001
      vertex   5.384387e+001 2.259141e+001 8.000000e+001
      vertex   5.194614e+001 1.970605e+001 8.000000e+001
    endloop
  endfacet
  facet normal 0.000000e+000 0.000000e+000 1.000000e+000
    outer loop
      vertex   5.732684e+001 1.397458e+001 8.000000e+001
      vertex   5.194614e+001 1.970605e+001 8.000000e+001
      vertex   4.943415e+001 1.733611e+001 8.000000e+001
    endloop
  endfacet
  facet normal 0.000000e+000 0.000000e+000 1.000000e+000
    outer loop
      vertex   5.423129e+001 1.115261e+001 8.000000e+001
      vertex   4.943415e+001 1.733611e+001 8.000000e+001
      vertex   5.066990e+001 8.947494e+000 8.000000e+001
    endloop
  endfacet
  facet normal 0.000000e+000 -0.000000e+000 1.000000e+000
    outer loop
      vertex   5.423129e+001 1.115261e+001 8.000000e+001
      vertex   5.732684e+001 1.397458e+001 8.000000e+001
      vertex   4.943415e+001 1.733611e+001 8.000000e+001
    endloop
  endfacet
  facet normal 0.000000e+000 0.000000e+000 1.000000e+000
    outer loop
      vertex   5.985115e+001 1.731731e+001 8.000000e+001
      vertex   5.194614e+001 1.970605e+001 8.000000e+001
      vertex   5.732684e+001 1.397458e+001 8.000000e+001
    endloop
  endfacet
  facet normal 0.000000e+000 0.000000e+000 1.000000e+000
    outer loop
      vertex   4.943415e+001 1.733611e+001 8.000000e+001
      vertex   4.644333e+001 1.560936e+001 8.000000e+001
      vertex   5.066990e+001 8.947494e+000 8.000000e+001
    endloop
  endfacet
  facet normal 0.000000e+000 0.000000e+000 1.000000e+000
    outer loop
      vertex   5.066990e+001 8.947494e+000 8.000000e+001
      vertex   4.644333e+001 1.560936e+001 8.000000e+001
      vertex   4.676397e+001 7.434326e+000 8.000000e+001
    endloop
  endfacet
  facet normal 0.000000e+000 0.000000e+000 1.000000e+000
    outer loop
      vertex   4.676397e+001 7.434326e+000 8.000000e+001
      vertex   4.644333e+001 1.560936e+001 8.000000e+001
      vertex   4.313492e+001 1.461889e+001 8.000000e+001
    endloop
  endfacet
  facet normal 0.000000e+000 -0.000000e+000 1.000000e+000
    outer loop
      vertex   4.264649e+001 6.664637e+000 8.000000e+001
      vertex   4.313492e+001 1.461889e+001 8.000000e+001
      vertex   3.968726e+001 1.441808e+001 8.000000e+001
    endloop
  endfacet
  facet normal 0.000000e+000 -0.000000e+000 1.000000e+000
    outer loop
      vertex   3.845770e+001 6.664637e+000 8.000000e+001
      vertex   3.968726e+001 1.441808e+001 8.000000e+001
      vertex   3.628622e+001 1.501778e+001 8.000000e+001
    endloop
  endfacet
  facet normal 0.000000e+000 -0.000000e+000 1.000000e+000
    outer loop
      vertex   3.434023e+001 7.434326e+000 8.000000e+001
      vertex   3.628622e+001 1.501778e+001 8.000000e+001
      vertex   3.043429e+001 8.947494e+000 8.000000e+001
    endloop
  endfacet
  facet normal -0.000000e+000 -0.000000e+000 1.000000e+000
    outer loop
      vertex   3.434023e+001 7.434326e+000 8.000000e+001
      vertex   3.845770e+001 6.664637e+000 8.000000e+001
      vertex   3.628622e+001 1.501778e+001 8.000000e+001
    endloop
  endfacet
  facet normal 0.000000e+000 0.000000e+000 1.000000e+000
    outer loop
      vertex   4.676397e+001 7.434326e+000 8.000000e+001
      vertex   4.313492e+001 1.461889e+001 8.000000e+001
      vertex   4.264649e+001 6.664637e+000 8.000000e+001
    endloop
  endfacet
  facet normal 0.000000e+000 0.000000e+000 1.000000e+000
    outer loop
      vertex   4.264649e+001 6.664637e+000 8.000000e+001
      vertex   3.968726e+001 1.441808e+001 8.000000e+001
      vertex   3.845770e+001 6.664637e+000 8.000000e+001
    endloop
  endfacet
  facet normal 0.000000e+000 0.000000e+000 1.000000e+000
    outer loop
      vertex   3.628622e+001 1.501778e+001 8.000000e+001
      vertex   3.311516e+001 1.638564e+001 8.000000e+001
      vertex   3.043429e+001 8.947494e+000 8.000000e+001
    endloop
  endfacet
  facet normal 0.000000e+000 -0.000000e+000 1.000000e+000
    outer loop
      vertex   3.043429e+001 8.947494e+000 8.000000e+001
      vertex   3.311516e+001 1.638564e+001 8.000000e+001
      vertex   2.687291e+001 1.115261e+001 8.000000e+001
    endloop
  endfacet
  facet normal 0.000000e+000 -0.000000e+000 1.000000e+000
    outer loop
      vertex   2.687291e+001 1.115261e+001 8.000000e+001
      vertex   3.311516e+001 1.638564e+001 8.000000e+001
      vertex   3.034503e+001 1.844793e+001 8.000000e+001
    endloop
  endfacet
  facet normal 0.000000e+000 -0.000000e+000 1.000000e+000
    outer loop
      vertex   2.377735e+001 1.397458e+001 8.000000e+001
      vertex   3.034503e+001 1.844793e+001 8.000000e+001
      vertex   2.812516e+001 2.109346e+001 8.000000e+001
    endloop
  endfacet
  facet normal 0.000000e+000 -0.000000e+000 1.000000e+000
    outer loop
      vertex   2.125304e+001 1.731731e+001 8.000000e+001
      vertex   2.812516e+001 2.109346e+001 8.000000e+001
      vertex   2.657524e+001 2.417962e+001 8.000000e+001
    endloop
  endfacet
  facet normal 0.000000e+000 -0.000000e+000 1.000000e+000
    outer loop
      vertex   1.938593e+001 2.106697e+001 8.000000e+001
      vertex   2.657524e+001 2.417962e+001 8.000000e+001
      vertex   1.823961e+001 2.509586e+001 8.000000e+001
    endloop
  endfacet
  facet normal -0.000000e+000 0.000000e+000 1.000000e+000
    outer loop
      vertex   1.938593e+001 2.106697e+001 8.000000e+001
      vertex   2.125304e+001 1.731731e+001 8.000000e+001
      vertex   2.657524e+001 2.417962e+001 8.000000e+001
    endloop
  endfacet
  facet normal 0.000000e+000 -0.000000e+000 1.000000e+000
    outer loop
      vertex   2.687291e+001 1.115261e+001 8.000000e+001
      vertex   3.034503e+001 1.844793e+001 8.000000e+001
      vertex   2.377735e+001 1.397458e+001 8.000000e+001
    endloop
  endfacet
  facet normal 0.000000e+000 -0.000000e+000 1.000000e+000
    outer loop
      vertex   2.377735e+001 1.397458e+001 8.000000e+001
      vertex   2.812516e+001 2.109346e+001 8.000000e+001
      vertex   2.125304e+001 1.731731e+001 8.000000e+001
    endloop
  endfacet
  facet normal 0.000000e+000 0.000000e+000 1.000000e+000
    outer loop
      vertex   2.657524e+001 2.417962e+001 8.000000e+001
      vertex   2.577880e+001 2.754003e+001 8.000000e+001
      vertex   1.823961e+001 2.509586e+001 8.000000e+001
    endloop
  endfacet
  facet normal 0.000000e+000 -0.000000e+000 1.000000e+000
    outer loop
      vertex   1.823961e+001 2.509586e+001 8.000000e+001
      vertex   2.577880e+001 2.754003e+001 8.000000e+001
      vertex   1.785312e+001 2.926678e+001 8.000000e+001
    endloop
  endfacet
  facet normal -0.000000e+000 0.000000e+000 1.000000e+000
    outer loop
      vertex   1.785312e+001 2.926678e+001 8.000000e+001
      vertex   2.577880e+001 2.754003e+001 8.000000e+001
      vertex   2.577880e+001 3.099353e+001 8.000000e+001
    endloop
  endfacet
  facet normal -0.000000e+000 0.000000e+000 1.000000e+000
    outer loop
      vertex   1.823961e+001 3.343771e+001 8.000000e+001
      vertex   2.577880e+001 3.099353e+001 8.000000e+001
      vertex   2.657524e+001 3.435395e+001 8.000000e+001
    endloop
  endfacet
  facet normal -0.000000e+000 -0.000000e+000 1.000000e+000
    outer loop
      vertex   1.938593e+001 3.746660e+001 8.000000e+001
      vertex   2.657524e+001 3.435395e+001 8.000000e+001
      vertex   2.125304e+001 4.121626e+001 8.000000e+001
    endloop
  endfacet
  facet normal -0.000000e+000 0.000000e+000 1.000000e+000
    outer loop
      vertex   1.938593e+001 3.746660e+001 8.000000e+001
      vertex   1.823961e+001 3.343771e+001 8.000000e+001
      vertex   2.657524e+001 3.435395e+001 8.000000e+001
    endloop
  endfacet
  facet normal 0.000000e+000 -0.000000e+000 1.000000e+000
    outer loop
      vertex   1.785312e+001 2.926678e+001 8.000000e+001
      vertex   2.577880e+001 3.099353e+001 8.000000e+001
      vertex   1.823961e+001 3.343771e+001 8.000000e+001
    endloop
  endfacet
  facet normal 0.000000e+000 -0.000000e+000 1.000000e+000
    outer loop
      vertex   2.657524e+001 3.435395e+001 8.000000e+001
      vertex   2.812516e+001 3.744011e+001 8.000000e+001
      vertex   2.125304e+001 4.121626e+001 8.000000e+001
    endloop
  endfacet
  facet normal -0.000000e+000 -0.000000e+000 1.000000e+000
    outer loop
      vertex   2.125304e+001 4.121626e+001 8.000000e+001
      vertex   2.812516e+001 3.744011e+001 8.000000e+001
      vertex   2.377735e+001 4.455899e+001 8.000000e+001
    endloop
  endfacet
  facet normal -0.000000e+000 0.000000e+000 1.000000e+000
    outer loop
      vertex   2.377735e+001 4.455899e+001 8.000000e+001
      vertex   2.812516e+001 3.744011e+001 8.000000e+001
      vertex   3.034503e+001 4.008564e+001 8.000000e+001
    endloop
  endfacet
  facet normal -0.000000e+000 0.000000e+000 1.000000e+000
    outer loop
      vertex   2.687291e+001 4.738096e+001 8.000000e+001
      vertex   3.034503e+001 4.008564e+001 8.000000e+001
      vertex   3.311516e+001 4.214793e+001 8.000000e+001
    endloop
  endfacet
  facet normal -0.000000e+000 0.000000e+000 1.000000e+000
    outer loop
      vertex   3.043429e+001 4.958608e+001 8.000000e+001
      vertex   3.311516e+001 4.214793e+001 8.000000e+001
      vertex   3.628622e+001 4.351579e+001 8.000000e+001
    endloop
  endfacet
  facet normal -0.000000e+000 0.000000e+000 1.000000e+000
    outer loop
      vertex   3.434023e+001 5.109924e+001 8.000000e+001
      vertex   3.628622e+001 4.351579e+001 8.000000e+001
      vertex   3.845770e+001 5.186893e+001 8.000000e+001
    endloop
  endfacet
  facet normal 0.000000e+000 0.000000e+000 1.000000e+000
    outer loop
      vertex   3.434023e+001 5.109924e+001 8.000000e+001
      vertex   3.043429e+001 4.958608e+001 8.000000e+001
      vertex   3.628622e+001 4.351579e+001 8.000000e+001
    endloop
  endfacet
  facet normal -0.000000e+000 -0.000000e+000 1.000000e+000
    outer loop
      vertex   2.377735e+001 4.455899e+001 8.000000e+001
      vertex   3.034503e+001 4.008564e+001 8.000000e+001
      vertex   2.687291e+001 4.738096e+001 8.000000e+001
    endloop
  endfacet
  facet normal -0.000000e+000 -0.000000e+000 1.000000e+000
    outer loop
      vertex   2.687291e+001 4.738096e+001 8.000000e+001
      vertex   3.311516e+001 4.214793e+001 8.000000e+001
      vertex   3.043429e+001 4.958608e+001 8.000000e+001
    endloop
  endfacet
  facet normal 0.000000e+000 -0.000000e+000 1.000000e+000
    outer loop
      vertex   3.628622e+001 4.351579e+001 8.000000e+001
      vertex   3.968726e+001 4.411548e+001 8.000000e+001
      vertex   3.845770e+001 5.186893e+001 8.000000e+001
    endloop
  endfacet
  facet normal -0.000000e+000 0.000000e+000 1.000000e+000
    outer loop
      vertex   3.845770e+001 5.186893e+001 8.000000e+001
      vertex   3.968726e+001 4.411548e+001 8.000000e+001
      vertex   4.264649e+001 5.186893e+001 8.000000e+001
    endloop
  endfacet
  facet normal 0.000000e+000 0.000000e+000 1.000000e+000
    outer loop
      vertex   4.264649e+001 5.186893e+001 8.000000e+001
      vertex   3.968726e+001 4.411548e+001 8.000000e+001
      vertex   4.313492e+001 4.391468e+001 8.000000e+001
    endloop
  endfacet
  facet normal 0.000000e+000 0.000000e+000 1.000000e+000
    outer loop
      vertex   4.676397e+001 5.109924e+001 8.000000e+001
      vertex   4.313492e+001 4.391468e+001 8.000000e+001
      vertex   4.644333e+001 4.292421e+001 8.000000e+001
    endloop
  endfacet
  facet normal 0.000000e+000 0.000000e+000 1.000000e+000
    outer loop
      vertex   5.066990e+001 4.958608e+001 8.000000e+001
      vertex   4.644333e+001 4.292421e+001 8.000000e+001
      vertex   4.943415e+001 4.119746e+001 8.000000e+001
    endloop
  endfacet
  facet normal -0.000000e+000 0.000000e+000 1.000000e+000
    outer loop
      vertex   5.423129e+001 4.738096e+001 8.000000e+001
      vertex   4.943415e+001 4.119746e+001 8.000000e+001
      vertex   5.732684e+001 4.455899e+001 8.000000e+001
    endloop
  endfacet
  facet normal 0.000000e+000 0.000000e+000 1.000000e+000
    outer loop
      vertex   5.423129e+001 4.738096e+001 8.000000e+001
      vertex   5.066990e+001 4.958608e+001 8.000000e+001
      vertex   4.943415e+001 4.119746e+001 8.000000e+001
    endloop
  endfacet
  facet normal -0.000000e+000 0.000000e+000 1.000000e+000
    outer loop
      vertex   4.264649e+001 5.186893e+001 8.000000e+001
      vertex   4.313492e+001 4.391468e+001 8.000000e+001
      vertex   4.676397e+001 5.109924e+001 8.000000e+001
    endloop
  endfacet
  facet normal -0.000000e+000 0.000000e+000 1.000000e+000
    outer loop
      vertex   4.676397e+001 5.109924e+001 8.000000e+001
      vertex   4.644333e+001 4.292421e+001 8.000000e+001
      vertex   5.066990e+001 4.958608e+001 8.000000e+001
    endloop
  endfacet
  facet normal -0.000000e+000 0.000000e+000 1.000000e+000
    outer loop
      vertex   4.943415e+001 4.119746e+001 8.000000e+001
      vertex   5.194614e+001 3.882752e+001 8.000000e+001
      vertex   5.732684e+001 4.455899e+001 8.000000e+001
    endloop
  endfacet
  facet normal -0.000000e+000 0.000000e+000 1.000000e+000
    outer loop
      vertex   5.732684e+001 4.455899e+001 8.000000e+001
      vertex   5.194614e+001 3.882752e+001 8.000000e+001
      vertex   5.985115e+001 4.121626e+001 8.000000e+001
    endloop
  endfacet
  facet normal 0.000000e+000 0.000000e+000 1.000000e+000
    outer loop
      vertex   5.985115e+001 4.121626e+001 8.000000e+001
      vertex   5.194614e+001 3.882752e+001 8.000000e+001
      vertex   5.384387e+001 3.594216e+001 8.000000e+001
    endloop
  endfacet
  facet normal 0.000000e+000 0.000000e+000 1.000000e+000
    outer loop
      vertex   6.171826e+001 3.746660e+001 8.000000e+001
      vertex   5.384387e+001 3.594216e+001 8.000000e+001
      vertex   5.502503e+001 3.269693e+001 8.000000e+001
    endloop
  endfacet
  facet normal 0.000000e+000 0.000000e+000 1.000000e+000
    outer loop
      vertex   6.286458e+001 3.343771e+001 8.000000e+001
      vertex   5.502503e+001 3.269693e+001 8.000000e+001
      vertex   5.542596e+001 2.926678e+001 8.000000e+001
    endloop
  endfacet
  facet normal 0.000000e+000 0.000000e+000 1.000000e+000
    outer loop
      vertex   6.325107e+001 2.926678e+001 8.000000e+001
      vertex   5.542596e+001 2.926678e+001 8.000000e+001
      vertex   6.286458e+001 2.509586e+001 8.000000e+001
    endloop
  endfacet
  facet normal 0.000000e+000 0.000000e+000 1.000000e+000
    outer loop
      vertex   6.325107e+001 2.926678e+001 8.000000e+001
      vertex   6.286458e+001 3.343771e+001 8.000000e+001
      vertex   5.542596e+001 2.926678e+001 8.000000e+001
    endloop
  endfacet
  facet normal -0.000000e+000 0.000000e+000 1.000000e+000
    outer loop
      vertex   5.985115e+001 4.121626e+001 8.000000e+001
      vertex   5.384387e+001 3.594216e+001 8.000000e+001
      vertex   6.171826e+001 3.746660e+001 8.000000e+001
    endloop
  endfacet
  facet normal -0.000000e+000 0.000000e+000 1.000000e+000
    outer loop
      vertex   6.171826e+001 3.746660e+001 8.000000e+001
      vertex   5.502503e+001 3.269693e+001 8.000000e+001
      vertex   6.286458e+001 3.343771e+001 8.000000e+001
    endloop
  endfacet
endsolid
