solid ASCII
  facet normal -0.000000e+00 9.906859e-01 1.361666e-01
    outer loop
      vertex   0.000000e+00 1.504804e+01 1.655250e+01
      vertex   8.946605e+00 1.504804e+01 1.655250e+01
      vertex   0.000000e+00 1.514075e+01 1.587801e+01
    endloop
  endfacet
  facet normal -0.000000e+00 9.906859e-01 1.361666e-01
    outer loop
      vertex   0.000000e+00 1.514075e+01 1.587801e+01
      vertex   8.946605e+00 1.504804e+01 1.655250e+01
      vertex   8.946605e+00 1.514075e+01 1.587801e+01
    endloop
  endfacet
  facet normal 0.000000e+00 9.906859e-01 -1.361666e-01
    outer loop
      vertex   0.000000e+00 1.514075e+01 1.587801e+01
      vertex   8.946605e+00 1.514075e+01 1.587801e+01
      vertex   0.000000e+00 1.504804e+01 1.520352e+01
    endloop
  endfacet
  facet normal 0.000000e+00 9.906859e-01 -1.361666e-01
    outer loop
      vertex   0.000000e+00 1.504804e+01 1.520352e+01
      vertex   8.946605e+00 1.514075e+01 1.587801e+01
      vertex   8.946605e+00 1.504804e+01 1.520352e+01
    endloop
  endfacet
  facet normal 0.000000e+00 9.172113e-01 -3.984011e-01
    outer loop
      vertex   0.000000e+00 1.504804e+01 1.520352e+01
      vertex   8.946605e+00 1.504804e+01 1.520352e+01
      vertex   0.000000e+00 1.477680e+01 1.457905e+01
    endloop
  endfacet
  facet normal 0.000000e+00 9.172113e-01 -3.984011e-01
    outer loop
      vertex   0.000000e+00 1.477680e+01 1.457905e+01
      vertex   8.946605e+00 1.504804e+01 1.520352e+01
      vertex   8.946605e+00 1.477680e+01 1.457905e+01
    endloop
  endfacet
  facet normal 0.000000e+00 7.757113e-01 -6.310879e-01
    outer loop
      vertex   0.000000e+00 1.477680e+01 1.457905e+01
      vertex   8.946605e+00 1.477680e+01 1.457905e+01
      vertex   0.000000e+00 1.434713e+01 1.405092e+01
    endloop
  endfacet
  facet normal -1.253031e-16 7.757113e-01 -6.310879e-01
    outer loop
      vertex   0.000000e+00 1.434713e+01 1.405092e+01
      vertex   8.946605e+00 1.477680e+01 1.457905e+01
      vertex   8.946605e+00 1.434713e+01 1.405092e+01
    endloop
  endfacet
  facet normal -1.622101e-16 5.766803e-01 -8.169699e-01
    outer loop
      vertex   0.000000e+00 1.434713e+01 1.405092e+01
      vertex   8.946605e+00 1.434713e+01 1.405092e+01
      vertex   0.000000e+00 1.379091e+01 1.365830e+01
    endloop
  endfacet
  facet normal 0.000000e+00 5.766803e-01 -8.169699e-01
    outer loop
      vertex   0.000000e+00 1.379091e+01 1.365830e+01
      vertex   8.946605e+00 1.434713e+01 1.405092e+01
      vertex   8.946605e+00 1.379091e+01 1.365830e+01
    endloop
  endfacet
  facet normal 0.000000e+00 3.348796e-01 -9.422609e-01
    outer loop
      vertex   0.000000e+00 1.379091e+01 1.365830e+01
      vertex   8.946605e+00 1.379091e+01 1.365830e+01
      vertex   0.000000e+00 1.314939e+01 1.343030e+01
    endloop
  endfacet
  facet normal 0.000000e+00 3.348796e-01 -9.422609e-01
    outer loop
      vertex   0.000000e+00 1.314939e+01 1.343030e+01
      vertex   8.946605e+00 1.379091e+01 1.365830e+01
      vertex   8.946605e+00 1.314939e+01 1.343030e+01
    endloop
  endfacet
  facet normal 0.000000e+00 6.824241e-02 -9.976688e-01
    outer loop
      vertex   0.000000e+00 1.314939e+01 1.343030e+01
      vertex   8.946605e+00 1.314939e+01 1.343030e+01
      vertex   0.000000e+00 1.247014e+01 1.338384e+01
    endloop
  endfacet
  facet normal 0.000000e+00 6.824241e-02 -9.976688e-01
    outer loop
      vertex   0.000000e+00 1.247014e+01 1.338384e+01
      vertex   8.946605e+00 1.314939e+01 1.343030e+01
      vertex   8.946605e+00 1.247014e+01 1.338384e+01
    endloop
  endfacet
  facet normal 0.000000e+00 -2.034560e-01 -9.790841e-01
    outer loop
      vertex   0.000000e+00 1.247014e+01 1.338384e+01
      vertex   8.946605e+00 1.247014e+01 1.338384e+01
      vertex   0.000000e+00 1.180355e+01 1.352236e+01
    endloop
  endfacet
  facet normal 0.000000e+00 -2.034560e-01 -9.790841e-01
    outer loop
      vertex   0.000000e+00 1.180355e+01 1.352236e+01
      vertex   8.946605e+00 1.247014e+01 1.338384e+01
      vertex   8.946605e+00 1.180355e+01 1.352236e+01
    endloop
  endfacet
  facet normal 0.000000e+00 -4.600650e-01 -8.878852e-01
    outer loop
      vertex   0.000000e+00 1.180355e+01 1.352236e+01
      vertex   8.946605e+00 1.180355e+01 1.352236e+01
      vertex   0.000000e+00 1.119905e+01 1.383559e+01
    endloop
  endfacet
  facet normal 0.000000e+00 -4.600650e-01 -8.878852e-01
    outer loop
      vertex   0.000000e+00 1.119905e+01 1.383559e+01
      vertex   8.946605e+00 1.180355e+01 1.352236e+01
      vertex   8.946605e+00 1.119905e+01 1.383559e+01
    endloop
  endfacet
  facet normal 0.000000e+00 -6.825531e-01 -7.308360e-01
    outer loop
      vertex   0.000000e+00 1.119905e+01 1.383559e+01
      vertex   8.946605e+00 1.119905e+01 1.383559e+01
      vertex   0.000000e+00 1.070147e+01 1.430029e+01
    endloop
  endfacet
  facet normal 0.000000e+00 -6.825531e-01 -7.308360e-01
    outer loop
      vertex   0.000000e+00 1.070147e+01 1.430029e+01
      vertex   8.946605e+00 1.119905e+01 1.383559e+01
      vertex   8.946605e+00 1.070147e+01 1.430029e+01
    endloop
  endfacet
  facet normal 0.000000e+00 -8.544194e-01 -5.195840e-01
    outer loop
      vertex   0.000000e+00 1.070147e+01 1.430029e+01
      vertex   8.946605e+00 1.070147e+01 1.430029e+01
      vertex   0.000000e+00 1.034772e+01 1.488201e+01
    endloop
  endfacet
  facet normal 0.000000e+00 -8.544194e-01 -5.195840e-01
    outer loop
      vertex   0.000000e+00 1.034772e+01 1.488201e+01
      vertex   8.946605e+00 1.070147e+01 1.430029e+01
      vertex   8.946605e+00 1.034772e+01 1.488201e+01
    endloop
  endfacet
  facet normal 0.000000e+00 -9.629173e-01 -2.697968e-01
    outer loop
      vertex   0.000000e+00 1.034772e+01 1.488201e+01
      vertex   8.946605e+00 1.034772e+01 1.488201e+01
      vertex   0.000000e+00 1.016403e+01 1.553759e+01
    endloop
  endfacet
  facet normal 0.000000e+00 -9.629173e-01 -2.697968e-01
    outer loop
      vertex   0.000000e+00 1.016403e+01 1.553759e+01
      vertex   8.946605e+00 1.034772e+01 1.488201e+01
      vertex   8.946605e+00 1.016403e+01 1.553759e+01
    endloop
  endfacet
  facet normal 0.000000e+00 -1.000000e+00 0.000000e+00
    outer loop
      vertex   0.000000e+00 1.016403e+01 1.553759e+01
      vertex   8.946605e+00 1.016403e+01 1.553759e+01
      vertex   0.000000e+00 1.016403e+01 1.621843e+01
    endloop
  endfacet
  facet normal 0.000000e+00 -1.000000e+00 0.000000e+00
    outer loop
      vertex   0.000000e+00 1.016403e+01 1.621843e+01
      vertex   8.946605e+00 1.016403e+01 1.553759e+01
      vertex   8.946605e+00 1.016403e+01 1.621843e+01
    endloop
  endfacet
  facet normal 0.000000e+00 -9.629173e-01 2.697968e-01
    outer loop
      vertex   0.000000e+00 1.016403e+01 1.621843e+01
      vertex   8.946605e+00 1.016403e+01 1.621843e+01
      vertex   0.000000e+00 1.034772e+01 1.687401e+01
    endloop
  endfacet
  facet normal 0.000000e+00 -9.629173e-01 2.697968e-01
    outer loop
      vertex   0.000000e+00 1.034772e+01 1.687401e+01
      vertex   8.946605e+00 1.016403e+01 1.621843e+01
      vertex   8.946605e+00 1.034772e+01 1.687401e+01
    endloop
  endfacet
  facet normal 0.000000e+00 -8.544194e-01 5.195840e-01
    outer loop
      vertex   0.000000e+00 1.034772e+01 1.687401e+01
      vertex   8.946605e+00 1.034772e+01 1.687401e+01
      vertex   0.000000e+00 1.070147e+01 1.745573e+01
    endloop
  endfacet
  facet normal 0.000000e+00 -8.544194e-01 5.195840e-01
    outer loop
      vertex   0.000000e+00 1.070147e+01 1.745573e+01
      vertex   8.946605e+00 1.034772e+01 1.687401e+01
      vertex   8.946605e+00 1.070147e+01 1.745573e+01
    endloop
  endfacet
  facet normal 0.000000e+00 -6.825531e-01 7.308360e-01
    outer loop
      vertex   0.000000e+00 1.070147e+01 1.745573e+01
      vertex   8.946605e+00 1.070147e+01 1.745573e+01
      vertex   0.000000e+00 1.119905e+01 1.792044e+01
    endloop
  endfacet
  facet normal 0.000000e+00 -6.825531e-01 7.308360e-01
    outer loop
      vertex   0.000000e+00 1.119905e+01 1.792044e+01
      vertex   8.946605e+00 1.070147e+01 1.745573e+01
      vertex   8.946605e+00 1.119905e+01 1.792044e+01
    endloop
  endfacet
  facet normal 0.000000e+00 -4.600650e-01 8.878852e-01
    outer loop
      vertex   0.000000e+00 1.119905e+01 1.792044e+01
      vertex   8.946605e+00 1.119905e+01 1.792044e+01
      vertex   0.000000e+00 1.180355e+01 1.823366e+01
    endloop
  endfacet
  facet normal 0.000000e+00 -4.600650e-01 8.878852e-01
    outer loop
      vertex   0.000000e+00 1.180355e+01 1.823366e+01
      vertex   8.946605e+00 1.119905e+01 1.792044e+01
      vertex   8.946605e+00 1.180355e+01 1.823366e+01
    endloop
  endfacet
  facet normal 0.000000e+00 -2.034560e-01 9.790841e-01
    outer loop
      vertex   0.000000e+00 1.180355e+01 1.823366e+01
      vertex   8.946605e+00 1.180355e+01 1.823366e+01
      vertex   0.000000e+00 1.247014e+01 1.837218e+01
    endloop
  endfacet
  facet normal 0.000000e+00 -2.034560e-01 9.790841e-01
    outer loop
      vertex   0.000000e+00 1.247014e+01 1.837218e+01
      vertex   8.946605e+00 1.180355e+01 1.823366e+01
      vertex   8.946605e+00 1.247014e+01 1.837218e+01
    endloop
  endfacet
  facet normal -0.000000e+00 6.824241e-02 9.976688e-01
    outer loop
      vertex   0.000000e+00 1.247014e+01 1.837218e+01
      vertex   8.946605e+00 1.247014e+01 1.837218e+01
      vertex   0.000000e+00 1.314939e+01 1.832572e+01
    endloop
  endfacet
  facet normal -0.000000e+00 6.824241e-02 9.976688e-01
    outer loop
      vertex   0.000000e+00 1.314939e+01 1.832572e+01
      vertex   8.946605e+00 1.247014e+01 1.837218e+01
      vertex   8.946605e+00 1.314939e+01 1.832572e+01
    endloop
  endfacet
  facet normal -0.000000e+00 3.348796e-01 9.422609e-01
    outer loop
      vertex   0.000000e+00 1.314939e+01 1.832572e+01
      vertex   8.946605e+00 1.314939e+01 1.832572e+01
      vertex   0.000000e+00 1.379091e+01 1.809772e+01
    endloop
  endfacet
  facet normal -0.000000e+00 3.348796e-01 9.422609e-01
    outer loop
      vertex   0.000000e+00 1.379091e+01 1.809772e+01
      vertex   8.946605e+00 1.314939e+01 1.832572e+01
      vertex   8.946605e+00 1.379091e+01 1.809772e+01
    endloop
  endfacet
  facet normal -0.000000e+00 5.766803e-01 8.169699e-01
    outer loop
      vertex   0.000000e+00 1.379091e+01 1.809772e+01
      vertex   8.946605e+00 1.379091e+01 1.809772e+01
      vertex   0.000000e+00 1.434713e+01 1.770510e+01
    endloop
  endfacet
  facet normal -0.000000e+00 5.766803e-01 8.169699e-01
    outer loop
      vertex   0.000000e+00 1.434713e+01 1.770510e+01
      vertex   8.946605e+00 1.379091e+01 1.809772e+01
      vertex   8.946605e+00 1.434713e+01 1.770510e+01
    endloop
  endfacet
  facet normal -0.000000e+00 7.757113e-01 6.310879e-01
    outer loop
      vertex   0.000000e+00 1.434713e+01 1.770510e+01
      vertex   8.946605e+00 1.434713e+01 1.770510e+01
      vertex   0.000000e+00 1.477680e+01 1.717697e+01
    endloop
  endfacet
  facet normal -0.000000e+00 7.757113e-01 6.310879e-01
    outer loop
      vertex   0.000000e+00 1.477680e+01 1.717697e+01
      vertex   8.946605e+00 1.434713e+01 1.770510e+01
      vertex   8.946605e+00 1.477680e+01 1.717697e+01
    endloop
  endfacet
  facet normal -0.000000e+00 9.172113e-01 3.984011e-01
    outer loop
      vertex   0.000000e+00 1.477680e+01 1.717697e+01
      vertex   8.946605e+00 1.477680e+01 1.717697e+01
      vertex   0.000000e+00 1.504804e+01 1.655250e+01
    endloop
  endfacet
  facet normal -0.000000e+00 9.172113e-01 3.984011e-01
    outer loop
      vertex   0.000000e+00 1.504804e+01 1.655250e+01
      vertex   8.946605e+00 1.477680e+01 1.717697e+01
      vertex   8.946605e+00 1.504804e+01 1.655250e+01
    endloop
  endfacet
  facet normal 1.781004e-16 9.951360e-01 9.851106e-02
    outer loop
      vertex   1.787389e+01 1.509291e+01 1.636121e+01
      vertex   1.789321e+01 1.514075e+01 1.587801e+01
      vertex   8.946605e+00 1.514075e+01 1.587801e+01
    endloop
  endfacet
  facet normal 2.171447e-16 9.951360e-01 -9.851106e-02
    outer loop
      vertex   8.946605e+00 1.514075e+01 1.587801e+01
      vertex   1.789321e+01 1.514075e+01 1.587801e+01
      vertex   1.787389e+01 1.509291e+01 1.539481e+01
    endloop
  endfacet
  facet normal -2.061982e-03 9.906838e-01 -1.361664e-01
    outer loop
      vertex   8.946605e+00 1.514075e+01 1.587801e+01
      vertex   1.787389e+01 1.509291e+01 1.539481e+01
      vertex   8.946605e+00 1.504804e+01 1.520352e+01
    endloop
  endfacet
  facet normal 1.374683e-03 9.574062e-01 -2.887413e-01
    outer loop
      vertex   8.946605e+00 1.504804e+01 1.520352e+01
      vertex   1.787389e+01 1.509291e+01 1.539481e+01
      vertex   1.781895e+01 1.494950e+01 1.491903e+01
    endloop
  endfacet
  facet normal -2.587991e-03 9.172082e-01 -3.983998e-01
    outer loop
      vertex   8.946605e+00 1.504804e+01 1.520352e+01
      vertex   1.781895e+01 1.494950e+01 1.491903e+01
      vertex   8.946605e+00 1.477680e+01 1.457905e+01
    endloop
  endfacet
  facet normal 1.037794e-03 8.803606e-01 -4.743038e-01
    outer loop
      vertex   8.946605e+00 1.477680e+01 1.457905e+01
      vertex   1.781895e+01 1.494950e+01 1.491903e+01
      vertex   1.773613e+01 1.471514e+01 1.448384e+01
    endloop
  endfacet
  facet normal -1.394735e-03 7.757105e-01 -6.310873e-01
    outer loop
      vertex   8.946605e+00 1.477680e+01 1.457905e+01
      vertex   1.773613e+01 1.471514e+01 1.448384e+01
      vertex   8.946605e+00 1.434713e+01 1.405092e+01
    endloop
  endfacet
  facet normal -1.198147e-03 7.737876e-01 -6.334440e-01
    outer loop
      vertex   8.946605e+00 1.434713e+01 1.405092e+01
      vertex   1.773613e+01 1.471514e+01 1.448384e+01
      vertex   1.764147e+01 1.441209e+01 1.411383e+01
    endloop
  endfacet
  facet normal 8.219733e-04 6.367055e-01 -7.711066e-01
    outer loop
      vertex   8.946605e+00 1.434713e+01 1.405092e+01
      vertex   1.764147e+01 1.441209e+01 1.411383e+01
      vertex   1.754528e+01 1.404371e+01 1.380955e+01
    endloop
  endfacet
  facet normal -2.583569e-03 5.766784e-01 -8.169672e-01
    outer loop
      vertex   8.946605e+00 1.434713e+01 1.405092e+01
      vertex   1.754528e+01 1.404371e+01 1.380955e+01
      vertex   8.946605e+00 1.379091e+01 1.365830e+01
    endloop
  endfacet
  facet normal 1.405615e-03 4.777891e-01 -8.784735e-01
    outer loop
      vertex   8.946605e+00 1.379091e+01 1.365830e+01
      vertex   1.754528e+01 1.404371e+01 1.380955e+01
      vertex   1.745681e+01 1.361023e+01 1.357364e+01
    endloop
  endfacet
  facet normal -2.263033e-03 3.348788e-01 -9.422585e-01
    outer loop
      vertex   8.946605e+00 1.379091e+01 1.365830e+01
      vertex   1.745681e+01 1.361023e+01 1.357364e+01
      vertex   8.946605e+00 1.314939e+01 1.343030e+01
    endloop
  endfacet
  facet normal 2.344412e-04 2.930620e-01 -9.560934e-01
    outer loop
      vertex   8.946605e+00 1.314939e+01 1.343030e+01
      vertex   1.745681e+01 1.361023e+01 1.357364e+01
      vertex   1.739056e+01 1.313579e+01 1.342820e+01
    endloop
  endfacet
  facet normal -8.062288e-05 1.033434e-01 -9.946457e-01
    outer loop
      vertex   8.946605e+00 1.314939e+01 1.343030e+01
      vertex   1.739056e+01 1.313579e+01 1.342820e+01
      vertex   1.735377e+01 1.265298e+01 1.337804e+01
    endloop
  endfacet
  facet normal -2.171977e-03 6.824225e-02 -9.976664e-01
    outer loop
      vertex   8.946605e+00 1.314939e+01 1.343030e+01
      vertex   1.735377e+01 1.265298e+01 1.337804e+01
      vertex   8.946605e+00 1.247014e+01 1.338384e+01
    endloop
  endfacet
  facet normal 1.351811e-03 -9.372122e-02 -9.955976e-01
    outer loop
      vertex   8.946605e+00 1.247014e+01 1.338384e+01
      vertex   1.735377e+01 1.265298e+01 1.337804e+01
      vertex   1.734894e+01 1.216928e+01 1.342357e+01
    endloop
  endfacet
  facet normal -2.655508e-03 -2.034553e-01 -9.790806e-01
    outer loop
      vertex   8.946605e+00 1.247014e+01 1.338384e+01
      vertex   1.734894e+01 1.216928e+01 1.342357e+01
      vertex   8.946605e+00 1.180355e+01 1.352236e+01
    endloop
  endfacet
  facet normal 1.110266e-03 -2.844615e-01 -9.586868e-01
    outer loop
      vertex   8.946605e+00 1.180355e+01 1.352236e+01
      vertex   1.734894e+01 1.216928e+01 1.342357e+01
      vertex   1.737421e+01 1.169037e+01 1.356570e+01
    endloop
  endfacet
  facet normal -1.612235e-03 -4.600644e-01 -8.878841e-01
    outer loop
      vertex   8.946605e+00 1.180355e+01 1.352236e+01
      vertex   1.737421e+01 1.169037e+01 1.356570e+01
      vertex   8.946605e+00 1.119905e+01 1.383559e+01
    endloop
  endfacet
  facet normal -7.360361e-04 -4.717226e-01 -8.817467e-01
    outer loop
      vertex   8.946605e+00 1.119905e+01 1.383559e+01
      vertex   1.737421e+01 1.169037e+01 1.356570e+01
      vertex   1.742513e+01 1.125077e+01 1.380084e+01
    endloop
  endfacet
  facet normal 6.864159e-04 -6.327386e-01 -7.743651e-01
    outer loop
      vertex   8.946605e+00 1.119905e+01 1.383559e+01
      vertex   1.742513e+01 1.125077e+01 1.380084e+01
      vertex   1.748912e+01 1.087660e+01 1.410663e+01
    endloop
  endfacet
  facet normal -2.575000e-03 -6.825509e-01 -7.308335e-01
    outer loop
      vertex   8.946605e+00 1.119905e+01 1.383559e+01
      vertex   1.748912e+01 1.087660e+01 1.410663e+01
      vertex   8.946605e+00 1.070147e+01 1.430029e+01
    endloop
  endfacet
  facet normal 1.392367e-03 -7.714806e-01 -6.362514e-01
    outer loop
      vertex   8.946605e+00 1.070147e+01 1.430029e+01
      vertex   1.748912e+01 1.087660e+01 1.410663e+01
      vertex   1.755659e+01 1.056966e+01 1.447896e+01
    endloop
  endfacet
  facet normal -2.298297e-03 -8.544171e-01 -5.195826e-01
    outer loop
      vertex   8.946605e+00 1.070147e+01 1.430029e+01
      vertex   1.755659e+01 1.056966e+01 1.447896e+01
      vertex   8.946605e+00 1.034772e+01 1.488201e+01
    endloop
  endfacet
  facet normal 4.045827e-04 -8.796014e-01 -4.757113e-01
    outer loop
      vertex   8.946605e+00 1.034772e+01 1.488201e+01
      vertex   1.755659e+01 1.056966e+01 1.447896e+01
      vertex   1.761775e+01 1.033301e+01 1.491658e+01
    endloop
  endfacet
  facet normal -4.707377e-04 -9.572668e-01 -2.892059e-01
    outer loop
      vertex   8.946605e+00 1.034772e+01 1.488201e+01
      vertex   1.761775e+01 1.033301e+01 1.491658e+01
      vertex   1.765901e+01 1.018871e+01 1.539415e+01
    endloop
  endfacet
  facet normal -1.714786e-03 -9.629159e-01 -2.697964e-01
    outer loop
      vertex   8.946605e+00 1.034772e+01 1.488201e+01
      vertex   1.765901e+01 1.018871e+01 1.539415e+01
      vertex   8.946605e+00 1.016403e+01 1.553759e+01
    endloop
  endfacet
  facet normal 1.193891e-03 -9.951190e-01 -9.867502e-02
    outer loop
      vertex   8.946605e+00 1.016403e+01 1.553759e+01
      vertex   1.765901e+01 1.018871e+01 1.539415e+01
      vertex   1.767365e+01 1.014075e+01 1.587801e+01
    endloop
  endfacet
  facet normal -2.668149e-03 -9.999964e-01 6.961447e-18
    outer loop
      vertex   8.946605e+00 1.016403e+01 1.553759e+01
      vertex   1.767365e+01 1.014075e+01 1.587801e+01
      vertex   8.946605e+00 1.016403e+01 1.621843e+01
    endloop
  endfacet
  facet normal 1.193891e-03 -9.951190e-01 9.867502e-02
    outer loop
      vertex   8.946605e+00 1.016403e+01 1.621843e+01
      vertex   1.767365e+01 1.014075e+01 1.587801e+01
      vertex   1.765901e+01 1.018871e+01 1.636188e+01
    endloop
  endfacet
  facet normal -1.714786e-03 -9.629159e-01 2.697964e-01
    outer loop
      vertex   8.946605e+00 1.016403e+01 1.621843e+01
      vertex   1.765901e+01 1.018871e+01 1.636188e+01
      vertex   8.946605e+00 1.034772e+01 1.687401e+01
    endloop
  endfacet
  facet normal -4.707377e-04 -9.572668e-01 2.892059e-01
    outer loop
      vertex   8.946605e+00 1.034772e+01 1.687401e+01
      vertex   1.765901e+01 1.018871e+01 1.636188e+01
      vertex   1.761775e+01 1.033301e+01 1.683944e+01
    endloop
  endfacet
  facet normal 4.045827e-04 -8.796014e-01 4.757113e-01
    outer loop
      vertex   8.946605e+00 1.034772e+01 1.687401e+01
      vertex   1.761775e+01 1.033301e+01 1.683944e+01
      vertex   1.755659e+01 1.056966e+01 1.727706e+01
    endloop
  endfacet
  facet normal -2.298297e-03 -8.544171e-01 5.195826e-01
    outer loop
      vertex   8.946605e+00 1.034772e+01 1.687401e+01
      vertex   1.755659e+01 1.056966e+01 1.727706e+01
      vertex   8.946605e+00 1.070147e+01 1.745573e+01
    endloop
  endfacet
  facet normal 1.392367e-03 -7.714806e-01 6.362514e-01
    outer loop
      vertex   8.946605e+00 1.070147e+01 1.745573e+01
      vertex   1.755659e+01 1.056966e+01 1.727706e+01
      vertex   1.748912e+01 1.087660e+01 1.764939e+01
    endloop
  endfacet
  facet normal -2.575000e-03 -6.825509e-01 7.308335e-01
    outer loop
      vertex   8.946605e+00 1.070147e+01 1.745573e+01
      vertex   1.748912e+01 1.087660e+01 1.764939e+01
      vertex   8.946605e+00 1.119905e+01 1.792044e+01
    endloop
  endfacet
  facet normal 6.864159e-04 -6.327386e-01 7.743651e-01
    outer loop
      vertex   8.946605e+00 1.119905e+01 1.792044e+01
      vertex   1.748912e+01 1.087660e+01 1.764939e+01
      vertex   1.742513e+01 1.125077e+01 1.795519e+01
    endloop
  endfacet
  facet normal -7.360361e-04 -4.717226e-01 8.817467e-01
    outer loop
      vertex   8.946605e+00 1.119905e+01 1.792044e+01
      vertex   1.742513e+01 1.125077e+01 1.795519e+01
      vertex   1.737421e+01 1.169037e+01 1.819032e+01
    endloop
  endfacet
  facet normal -1.612235e-03 -4.600644e-01 8.878841e-01
    outer loop
      vertex   8.946605e+00 1.119905e+01 1.792044e+01
      vertex   1.737421e+01 1.169037e+01 1.819032e+01
      vertex   8.946605e+00 1.180355e+01 1.823366e+01
    endloop
  endfacet
  facet normal 1.110266e-03 -2.844615e-01 9.586868e-01
    outer loop
      vertex   8.946605e+00 1.180355e+01 1.823366e+01
      vertex   1.737421e+01 1.169037e+01 1.819032e+01
      vertex   1.734894e+01 1.216928e+01 1.833245e+01
    endloop
  endfacet
  facet normal -2.655508e-03 -2.034553e-01 9.790806e-01
    outer loop
      vertex   8.946605e+00 1.180355e+01 1.823366e+01
      vertex   1.734894e+01 1.216928e+01 1.833245e+01
      vertex   8.946605e+00 1.247014e+01 1.837218e+01
    endloop
  endfacet
  facet normal 1.351811e-03 -9.372122e-02 9.955976e-01
    outer loop
      vertex   8.946605e+00 1.247014e+01 1.837218e+01
      vertex   1.734894e+01 1.216928e+01 1.833245e+01
      vertex   1.735377e+01 1.265298e+01 1.837798e+01
    endloop
  endfacet
  facet normal -2.171977e-03 6.824225e-02 9.976664e-01
    outer loop
      vertex   8.946605e+00 1.247014e+01 1.837218e+01
      vertex   1.735377e+01 1.265298e+01 1.837798e+01
      vertex   8.946605e+00 1.314939e+01 1.832572e+01
    endloop
  endfacet
  facet normal -8.062288e-05 1.033434e-01 9.946457e-01
    outer loop
      vertex   8.946605e+00 1.314939e+01 1.832572e+01
      vertex   1.735377e+01 1.265298e+01 1.837798e+01
      vertex   1.739056e+01 1.313579e+01 1.832782e+01
    endloop
  endfacet
  facet normal 2.344412e-04 2.930620e-01 9.560934e-01
    outer loop
      vertex   8.946605e+00 1.314939e+01 1.832572e+01
      vertex   1.739056e+01 1.313579e+01 1.832782e+01
      vertex   1.745681e+01 1.361023e+01 1.818238e+01
    endloop
  endfacet
  facet normal -2.263033e-03 3.348788e-01 9.422585e-01
    outer loop
      vertex   8.946605e+00 1.314939e+01 1.832572e+01
      vertex   1.745681e+01 1.361023e+01 1.818238e+01
      vertex   8.946605e+00 1.379091e+01 1.809772e+01
    endloop
  endfacet
  facet normal 1.405615e-03 4.777891e-01 8.784735e-01
    outer loop
      vertex   8.946605e+00 1.379091e+01 1.809772e+01
      vertex   1.745681e+01 1.361023e+01 1.818238e+01
      vertex   1.754528e+01 1.404371e+01 1.794647e+01
    endloop
  endfacet
  facet normal -2.583569e-03 5.766784e-01 8.169672e-01
    outer loop
      vertex   8.946605e+00 1.379091e+01 1.809772e+01
      vertex   1.754528e+01 1.404371e+01 1.794647e+01
      vertex   8.946605e+00 1.434713e+01 1.770510e+01
    endloop
  endfacet
  facet normal 8.219733e-04 6.367055e-01 7.711066e-01
    outer loop
      vertex   8.946605e+00 1.434713e+01 1.770510e+01
      vertex   1.754528e+01 1.404371e+01 1.794647e+01
      vertex   1.764147e+01 1.441209e+01 1.764219e+01
    endloop
  endfacet
  facet normal -1.198147e-03 7.737876e-01 6.334440e-01
    outer loop
      vertex   8.946605e+00 1.434713e+01 1.770510e+01
      vertex   1.764147e+01 1.441209e+01 1.764219e+01
      vertex   1.773613e+01 1.471514e+01 1.727219e+01
    endloop
  endfacet
  facet normal -1.394735e-03 7.757105e-01 6.310873e-01
    outer loop
      vertex   8.946605e+00 1.434713e+01 1.770510e+01
      vertex   1.773613e+01 1.471514e+01 1.727219e+01
      vertex   8.946605e+00 1.477680e+01 1.717697e+01
    endloop
  endfacet
  facet normal 1.037794e-03 8.803606e-01 4.743038e-01
    outer loop
      vertex   8.946605e+00 1.477680e+01 1.717697e+01
      vertex   1.773613e+01 1.471514e+01 1.727219e+01
      vertex   1.781895e+01 1.494950e+01 1.683700e+01
    endloop
  endfacet
  facet normal -2.587991e-03 9.172082e-01 3.983998e-01
    outer loop
      vertex   8.946605e+00 1.477680e+01 1.717697e+01
      vertex   1.781895e+01 1.494950e+01 1.683700e+01
      vertex   8.946605e+00 1.504804e+01 1.655250e+01
    endloop
  endfacet
  facet normal 1.374683e-03 9.574062e-01 2.887413e-01
    outer loop
      vertex   8.946605e+00 1.504804e+01 1.655250e+01
      vertex   1.781895e+01 1.494950e+01 1.683700e+01
      vertex   1.787389e+01 1.509291e+01 1.636121e+01
    endloop
  endfacet
  facet normal -2.061982e-03 9.906838e-01 1.361664e-01
    outer loop
      vertex   8.946605e+00 1.504804e+01 1.655250e+01
      vertex   1.787389e+01 1.509291e+01 1.636121e+01
      vertex   8.946605e+00 1.514075e+01 1.587801e+01
    endloop
  endfacet
  facet normal -1.000000e+00 -0.000000e+00 0.000000e+00
    outer loop
      vertex   0.000000e+00 1.514075e+01 1.587801e+01
      vertex   0.000000e+00 1.504804e+01 1.520352e+01
      vertex   0.000000e+00 1.504804e+01 1.655250e+01
    endloop
  endfacet
  facet normal -1.000000e+00 -0.000000e+00 -0.000000e+00
    outer loop
      vertex   0.000000e+00 1.504804e+01 1.655250e+01
      vertex   0.000000e+00 1.504804e+01 1.520352e+01
      vertex   0.000000e+00 1.477680e+01 1.717697e+01
    endloop
  endfacet
  facet normal -1.000000e+00 0.000000e+00 0.000000e+00
    outer loop
      vertex   0.000000e+00 1.477680e+01 1.717697e+01
      vertex   0.000000e+00 1.504804e+01 1.520352e+01
      vertex   0.000000e+00 1.477680e+01 1.457905e+01
    endloop
  endfacet
  facet normal -1.000000e+00 -0.000000e+00 -0.000000e+00
    outer loop
      vertex   0.000000e+00 1.477680e+01 1.717697e+01
      vertex   0.000000e+00 1.477680e+01 1.457905e+01
      vertex   0.000000e+00 1.434713e+01 1.770510e+01
    endloop
  endfacet
  facet normal -1.000000e+00 0.000000e+00 0.000000e+00
    outer loop
      vertex   0.000000e+00 1.434713e+01 1.770510e+01
      vertex   0.000000e+00 1.477680e+01 1.457905e+01
      vertex   0.000000e+00 1.434713e+01 1.405092e+01
    endloop
  endfacet
  facet normal -1.000000e+00 -0.000000e+00 -0.000000e+00
    outer loop
      vertex   0.000000e+00 1.434713e+01 1.770510e+01
      vertex   0.000000e+00 1.434713e+01 1.405092e+01
      vertex   0.000000e+00 1.379091e+01 1.809772e+01
    endloop
  endfacet
  facet normal -1.000000e+00 0.000000e+00 0.000000e+00
    outer loop
      vertex   0.000000e+00 1.379091e+01 1.809772e+01
      vertex   0.000000e+00 1.434713e+01 1.405092e+01
      vertex   0.000000e+00 1.379091e+01 1.365830e+01
    endloop
  endfacet
  facet normal -1.000000e+00 -0.000000e+00 -0.000000e+00
    outer loop
      vertex   0.000000e+00 1.379091e+01 1.809772e+01
      vertex   0.000000e+00 1.379091e+01 1.365830e+01
      vertex   0.000000e+00 1.314939e+01 1.832572e+01
    endloop
  endfacet
  facet normal -1.000000e+00 0.000000e+00 0.000000e+00
    outer loop
      vertex   0.000000e+00 1.314939e+01 1.832572e+01
      vertex   0.000000e+00 1.379091e+01 1.365830e+01
      vertex   0.000000e+00 1.314939e+01 1.343030e+01
    endloop
  endfacet
  facet normal -1.000000e+00 -0.000000e+00 -0.000000e+00
    outer loop
      vertex   0.000000e+00 1.314939e+01 1.832572e+01
      vertex   0.000000e+00 1.314939e+01 1.343030e+01
      vertex   0.000000e+00 1.247014e+01 1.837218e+01
    endloop
  endfacet
  facet normal -1.000000e+00 0.000000e+00 0.000000e+00
    outer loop
      vertex   0.000000e+00 1.247014e+01 1.837218e+01
      vertex   0.000000e+00 1.314939e+01 1.343030e+01
      vertex   0.000000e+00 1.247014e+01 1.338384e+01
    endloop
  endfacet
  facet normal -1.000000e+00 0.000000e+00 -0.000000e+00
    outer loop
      vertex   0.000000e+00 1.247014e+01 1.837218e+01
      vertex   0.000000e+00 1.247014e+01 1.338384e+01
      vertex   0.000000e+00 1.180355e+01 1.823366e+01
    endloop
  endfacet
  facet normal -1.000000e+00 0.000000e+00 0.000000e+00
    outer loop
      vertex   0.000000e+00 1.180355e+01 1.823366e+01
      vertex   0.000000e+00 1.247014e+01 1.338384e+01
      vertex   0.000000e+00 1.180355e+01 1.352236e+01
    endloop
  endfacet
  facet normal -1.000000e+00 0.000000e+00 -0.000000e+00
    outer loop
      vertex   0.000000e+00 1.180355e+01 1.823366e+01
      vertex   0.000000e+00 1.180355e+01 1.352236e+01
      vertex   0.000000e+00 1.119905e+01 1.792044e+01
    endloop
  endfacet
  facet normal -1.000000e+00 0.000000e+00 0.000000e+00
    outer loop
      vertex   0.000000e+00 1.119905e+01 1.792044e+01
      vertex   0.000000e+00 1.180355e+01 1.352236e+01
      vertex   0.000000e+00 1.119905e+01 1.383559e+01
    endloop
  endfacet
  facet normal -1.000000e+00 0.000000e+00 -0.000000e+00
    outer loop
      vertex   0.000000e+00 1.119905e+01 1.792044e+01
      vertex   0.000000e+00 1.119905e+01 1.383559e+01
      vertex   0.000000e+00 1.070147e+01 1.745573e+01
    endloop
  endfacet
  facet normal -1.000000e+00 0.000000e+00 0.000000e+00
    outer loop
      vertex   0.000000e+00 1.070147e+01 1.745573e+01
      vertex   0.000000e+00 1.119905e+01 1.383559e+01
      vertex   0.000000e+00 1.070147e+01 1.430029e+01
    endloop
  endfacet
  facet normal -1.000000e+00 0.000000e+00 -0.000000e+00
    outer loop
      vertex   0.000000e+00 1.070147e+01 1.745573e+01
      vertex   0.000000e+00 1.070147e+01 1.430029e+01
      vertex   0.000000e+00 1.034772e+01 1.687401e+01
    endloop
  endfacet
  facet normal -1.000000e+00 0.000000e+00 0.000000e+00
    outer loop
      vertex   0.000000e+00 1.034772e+01 1.687401e+01
      vertex   0.000000e+00 1.070147e+01 1.430029e+01
      vertex   0.000000e+00 1.034772e+01 1.488201e+01
    endloop
  endfacet
  facet normal -1.000000e+00 0.000000e+00 -0.000000e+00
    outer loop
      vertex   0.000000e+00 1.034772e+01 1.687401e+01
      vertex   0.000000e+00 1.034772e+01 1.488201e+01
      vertex   0.000000e+00 1.016403e+01 1.621843e+01
    endloop
  endfacet
  facet normal -1.000000e+00 0.000000e+00 0.000000e+00
    outer loop
      vertex   0.000000e+00 1.016403e+01 1.621843e+01
      vertex   0.000000e+00 1.034772e+01 1.488201e+01
      vertex   0.000000e+00 1.016403e+01 1.553759e+01
    endloop
  endfacet
  facet normal -9.170964e-01 3.986559e-01 2.790330e-03
    outer loop
      vertex   1.787389e+01 1.509291e+01 1.636121e+01
      vertex   1.816429e+01 1.573551e+01 2.000000e+01
      vertex   1.789321e+01 1.514075e+01 1.587801e+01
    endloop
  endfacet
  facet normal -9.099428e-01 4.147338e-01 0.000000e+00
    outer loop
      vertex   1.789321e+01 1.514075e+01 1.587801e+01
      vertex   1.816429e+01 1.573551e+01 2.000000e+01
      vertex   1.816429e+01 1.573551e+01 1.000000e+01
    endloop
  endfacet
  facet normal -9.186156e-01 3.951451e-01 -2.382034e-03
    outer loop
      vertex   1.789321e+01 1.514075e+01 1.587801e+01
      vertex   1.816429e+01 1.573551e+01 1.000000e+01
      vertex   1.787389e+01 1.509291e+01 1.539481e+01
    endloop
  endfacet
  facet normal -9.276346e-01 3.734491e-01 -5.451790e-03
    outer loop
      vertex   1.787389e+01 1.509291e+01 1.539481e+01
      vertex   1.816429e+01 1.573551e+01 1.000000e+01
      vertex   1.781895e+01 1.494950e+01 1.491903e+01
    endloop
  endfacet
  facet normal -9.238732e-01 3.826808e-01 -3.712602e-03
    outer loop
      vertex   1.781895e+01 1.494950e+01 1.491903e+01
      vertex   1.816429e+01 1.573551e+01 1.000000e+01
      vertex   1.771391e+01 1.464820e+01 1.000000e+01
    endloop
  endfacet
  facet normal -9.426781e-01 3.337032e-01 -3.111251e-04
    outer loop
      vertex   1.781895e+01 1.494950e+01 1.491903e+01
      vertex   1.771391e+01 1.464820e+01 1.000000e+01
      vertex   1.773613e+01 1.471514e+01 1.448384e+01
    endloop
  endfacet
  facet normal -9.546195e-01 2.978279e-01 2.835574e-04
    outer loop
      vertex   1.773613e+01 1.471514e+01 1.448384e+01
      vertex   1.771391e+01 1.464820e+01 1.000000e+01
      vertex   1.764147e+01 1.441209e+01 1.411383e+01
    endloop
  endfacet
  facet normal -9.670652e-01 2.545174e-01 -2.421422e-03
    outer loop
      vertex   1.764147e+01 1.441209e+01 1.411383e+01
      vertex   1.771391e+01 1.464820e+01 1.000000e+01
      vertex   1.754528e+01 1.404371e+01 1.380955e+01
    endloop
  endfacet
  facet normal -9.723524e-01 2.334412e-01 -5.999848e-03
    outer loop
      vertex   1.754528e+01 1.404371e+01 1.380955e+01
      vertex   1.771391e+01 1.464820e+01 1.000000e+01
      vertex   1.743917e+01 1.350384e+01 1.000000e+01
    endloop
  endfacet
  facet normal -9.796804e-01 2.005618e-01 -1.136244e-03
    outer loop
      vertex   1.754528e+01 1.404371e+01 1.380955e+01
      vertex   1.743917e+01 1.350384e+01 1.000000e+01
      vertex   1.745681e+01 1.361023e+01 1.357364e+01
    endloop
  endfacet
  facet normal -9.904226e-01 1.380667e-01 7.773271e-04
    outer loop
      vertex   1.745681e+01 1.361023e+01 1.357364e+01
      vertex   1.743917e+01 1.350384e+01 1.000000e+01
      vertex   1.739056e+01 1.313579e+01 1.342820e+01
    endloop
  endfacet
  facet normal -9.969011e-01 7.845781e-02 -5.714041e-03
    outer loop
      vertex   1.739056e+01 1.313579e+01 1.342820e+01
      vertex   1.743917e+01 1.350384e+01 1.000000e+01
      vertex   1.734684e+01 1.233058e+01 1.000000e+01
    endloop
  endfacet
  facet normal -9.970544e-01 7.651744e-02 -5.256332e-03
    outer loop
      vertex   1.739056e+01 1.313579e+01 1.342820e+01
      vertex   1.734684e+01 1.233058e+01 1.000000e+01
      vertex   1.735377e+01 1.265298e+01 1.337804e+01
    endloop
  endfacet
  facet normal -9.999485e-01 1.008784e-02 1.089681e-03
    outer loop
      vertex   1.735377e+01 1.265298e+01 1.337804e+01
      vertex   1.734684e+01 1.233058e+01 1.000000e+01
      vertex   1.734894e+01 1.216928e+01 1.342357e+01
    endloop
  endfacet
  facet normal -9.985791e-01 -5.325570e-02 -1.895496e-03
    outer loop
      vertex   1.734894e+01 1.216928e+01 1.342357e+01
      vertex   1.734684e+01 1.233058e+01 1.000000e+01
      vertex   1.737421e+01 1.169037e+01 1.356570e+01
    endloop
  endfacet
  facet normal -9.968967e-01 -7.845747e-02 -6.433322e-03
    outer loop
      vertex   1.737421e+01 1.169037e+01 1.356570e+01
      vertex   1.734684e+01 1.233058e+01 1.000000e+01
      vertex   1.743917e+01 1.115732e+01 1.000000e+01
    endloop
  endfacet
  facet normal -9.933063e-01 -1.155072e-01 -8.292554e-04
    outer loop
      vertex   1.737421e+01 1.169037e+01 1.356570e+01
      vertex   1.743917e+01 1.115732e+01 1.000000e+01
      vertex   1.742513e+01 1.125077e+01 1.380084e+01
    endloop
  endfacet
  facet normal -9.857568e-01 -1.681762e-01 4.936460e-04
    outer loop
      vertex   1.742513e+01 1.125077e+01 1.380084e+01
      vertex   1.743917e+01 1.115732e+01 1.000000e+01
      vertex   1.748912e+01 1.087660e+01 1.410663e+01
    endloop
  endfacet
  facet normal -9.759001e-01 -2.181966e-01 -3.045487e-03
    outer loop
      vertex   1.748912e+01 1.087660e+01 1.410663e+01
      vertex   1.743917e+01 1.115732e+01 1.000000e+01
      vertex   1.755659e+01 1.056966e+01 1.447896e+01
    endloop
  endfacet
  facet normal -9.723571e-01 -2.334423e-01 -5.138669e-03
    outer loop
      vertex   1.755659e+01 1.056966e+01 1.447896e+01
      vertex   1.743917e+01 1.115732e+01 1.000000e+01
      vertex   1.771391e+01 1.001295e+01 1.000000e+01
    endloop
  endfacet
  facet normal -9.671204e-01 -2.543080e-01 -2.361240e-03
    outer loop
      vertex   1.755659e+01 1.056966e+01 1.447896e+01
      vertex   1.771391e+01 1.001295e+01 1.000000e+01
      vertex   1.761775e+01 1.033301e+01 1.491658e+01
    endloop
  endfacet
  facet normal -9.608108e-01 -2.772041e-01 -7.473298e-04
    outer loop
      vertex   1.761775e+01 1.033301e+01 1.491658e+01
      vertex   1.771391e+01 1.001295e+01 1.000000e+01
      vertex   1.765901e+01 1.018871e+01 1.539415e+01
    endloop
  endfacet
  facet normal -9.559682e-01 -2.934703e-01 -1.680337e-04
    outer loop
      vertex   1.765901e+01 1.018871e+01 1.539415e+01
      vertex   1.771391e+01 1.001295e+01 1.000000e+01
      vertex   1.767365e+01 1.014075e+01 1.587801e+01
    endloop
  endfacet
  facet normal -9.537789e-01 -3.005092e-01 0.000000e+00
    outer loop
      vertex   1.767365e+01 1.014075e+01 1.587801e+01
      vertex   1.771391e+01 1.001295e+01 1.000000e+01
      vertex   1.771391e+01 1.001295e+01 2.000000e+01
    endloop
  endfacet
  facet normal -9.558137e-01 -2.939729e-01 2.225267e-04
    outer loop
      vertex   1.767365e+01 1.014075e+01 1.587801e+01
      vertex   1.771391e+01 1.001295e+01 2.000000e+01
      vertex   1.765901e+01 1.018871e+01 1.636188e+01
    endloop
  endfacet
  facet normal -9.605360e-01 -2.781538e-01 1.058020e-03
    outer loop
      vertex   1.765901e+01 1.018871e+01 1.636188e+01
      vertex   1.771391e+01 1.001295e+01 2.000000e+01
      vertex   1.761775e+01 1.033301e+01 1.683944e+01
    endloop
  endfacet
  facet normal -9.666131e-01 -2.562169e-01 3.464411e-03
    outer loop
      vertex   1.761775e+01 1.033301e+01 1.683944e+01
      vertex   1.771391e+01 1.001295e+01 2.000000e+01
      vertex   1.755659e+01 1.056966e+01 1.727706e+01
    endloop
  endfacet
  facet normal -9.723352e-01 -2.334370e-01 8.452409e-03
    outer loop
      vertex   1.755659e+01 1.056966e+01 1.727706e+01
      vertex   1.771391e+01 1.001295e+01 2.000000e+01
      vertex   1.743917e+01 1.115732e+01 2.000000e+01
    endloop
  endfacet
  facet normal -9.751972e-01 -2.212644e-01 5.701923e-03
    outer loop
      vertex   1.755659e+01 1.056966e+01 1.727706e+01
      vertex   1.743917e+01 1.115732e+01 2.000000e+01
      vertex   1.748912e+01 1.087660e+01 1.764939e+01
    endloop
  endfacet
  facet normal -9.858119e-01 -1.678516e-01 -9.023601e-04
    outer loop
      vertex   1.748912e+01 1.087660e+01 1.764939e+01
      vertex   1.743917e+01 1.115732e+01 2.000000e+01
      vertex   1.742513e+01 1.125077e+01 1.795519e+01
    endloop
  endfacet
  facet normal -9.932628e-01 -1.158739e-01 1.524334e-03
    outer loop
      vertex   1.742513e+01 1.125077e+01 1.795519e+01
      vertex   1.743917e+01 1.115732e+01 2.000000e+01
      vertex   1.737421e+01 1.169037e+01 1.819032e+01
    endloop
  endfacet
  facet normal -9.968372e-01 -7.845279e-02 1.267514e-02
    outer loop
      vertex   1.737421e+01 1.169037e+01 1.819032e+01
      vertex   1.743917e+01 1.115732e+01 2.000000e+01
      vertex   1.734684e+01 1.233058e+01 2.000000e+01
    endloop
  endfacet
  facet normal -9.985405e-01 -5.386352e-02 3.950403e-03
    outer loop
      vertex   1.737421e+01 1.169037e+01 1.819032e+01
      vertex   1.734684e+01 1.233058e+01 2.000000e+01
      vertex   1.734894e+01 1.216928e+01 1.833245e+01
    endloop
  endfacet
  facet normal -9.999455e-01 1.019680e-02 -2.247713e-03
    outer loop
      vertex   1.734894e+01 1.216928e+01 1.833245e+01
      vertex   1.734684e+01 1.233058e+01 2.000000e+01
      vertex   1.735377e+01 1.265298e+01 1.837798e+01
    endloop
  endfacet
  facet normal -9.969609e-01 7.711389e-02 1.106586e-02
    outer loop
      vertex   1.735377e+01 1.265298e+01 1.837798e+01
      vertex   1.734684e+01 1.233058e+01 2.000000e+01
      vertex   1.739056e+01 1.313579e+01 1.832782e+01
    endloop
  endfacet
  facet normal -9.968489e-01 7.845371e-02 1.171396e-02
    outer loop
      vertex   1.739056e+01 1.313579e+01 1.832782e+01
      vertex   1.734684e+01 1.233058e+01 2.000000e+01
      vertex   1.743917e+01 1.350384e+01 2.000000e+01
    endloop
  endfacet
  facet normal -9.904538e-01 1.378367e-01 -1.542080e-03
    outer loop
      vertex   1.739056e+01 1.313579e+01 1.832782e+01
      vertex   1.743917e+01 1.350384e+01 2.000000e+01
      vertex   1.745681e+01 1.361023e+01 1.818238e+01
    endloop
  endfacet
  facet normal -9.795571e-01 2.011535e-01 2.269813e-03
    outer loop
      vertex   1.745681e+01 1.361023e+01 1.818238e+01
      vertex   1.743917e+01 1.350384e+01 2.000000e+01
      vertex   1.754528e+01 1.404371e+01 1.794647e+01
    endloop
  endfacet
  facet normal -9.723097e-01 2.334309e-01 1.112998e-02
    outer loop
      vertex   1.754528e+01 1.404371e+01 1.794647e+01
      vertex   1.743917e+01 1.350384e+01 2.000000e+01
      vertex   1.771391e+01 1.464820e+01 2.000000e+01
    endloop
  endfacet
  facet normal -9.667206e-01 2.558020e-01 4.085594e-03
    outer loop
      vertex   1.754528e+01 1.404371e+01 1.794647e+01
      vertex   1.771391e+01 1.464820e+01 2.000000e+01
      vertex   1.764147e+01 1.441209e+01 1.764219e+01
    endloop
  endfacet
  facet normal -9.546848e-01 2.976184e-01 -4.717663e-04
    outer loop
      vertex   1.764147e+01 1.441209e+01 1.764219e+01
      vertex   1.771391e+01 1.464820e+01 2.000000e+01
      vertex   1.773613e+01 1.471514e+01 1.727219e+01
    endloop
  endfacet
  facet normal -9.425554e-01 3.340494e-01 5.209042e-04
    outer loop
      vertex   1.773613e+01 1.471514e+01 1.727219e+01
      vertex   1.771391e+01 1.464820e+01 2.000000e+01
      vertex   1.781895e+01 1.494950e+01 1.683700e+01
    endloop
  endfacet
  facet normal -9.238641e-01 3.826771e-01 5.773692e-03
    outer loop
      vertex   1.781895e+01 1.494950e+01 1.683700e+01
      vertex   1.771391e+01 1.464820e+01 2.000000e+01
      vertex   1.816429e+01 1.573551e+01 2.000000e+01
    endloop
  endfacet
  facet normal -9.257102e-01 3.781669e-01 7.096027e-03
    outer loop
      vertex   1.781895e+01 1.494950e+01 1.683700e+01
      vertex   1.816429e+01 1.573551e+01 2.000000e+01
      vertex   1.787389e+01 1.509291e+01 1.636121e+01
    endloop
  endfacet
  facet normal 9.969173e-01 -7.845910e-02 0.000000e+00
    outer loop
      vertex   3.225450e+01 1.115732e+01 2.000000e+01
      vertex   3.225450e+01 1.115732e+01 1.000000e+01
      vertex   3.234684e+01 1.233058e+01 2.000000e+01
    endloop
  endfacet
  facet normal 9.969173e-01 -7.845910e-02 0.000000e+00
    outer loop
      vertex   3.234684e+01 1.233058e+01 2.000000e+01
      vertex   3.225450e+01 1.115732e+01 1.000000e+01
      vertex   3.234684e+01 1.233058e+01 1.000000e+01
    endloop
  endfacet
  facet normal 9.969173e-01 7.845910e-02 0.000000e+00
    outer loop
      vertex   3.234684e+01 1.233058e+01 2.000000e+01
      vertex   3.234684e+01 1.233058e+01 1.000000e+01
      vertex   3.225450e+01 1.350384e+01 2.000000e+01
    endloop
  endfacet
  facet normal 9.969173e-01 7.845910e-02 0.000000e+00
    outer loop
      vertex   3.225450e+01 1.350384e+01 2.000000e+01
      vertex   3.234684e+01 1.233058e+01 1.000000e+01
      vertex   3.225450e+01 1.350384e+01 1.000000e+01
    endloop
  endfacet
  facet normal 9.723699e-01 2.334454e-01 0.000000e+00
    outer loop
      vertex   3.225450e+01 1.350384e+01 2.000000e+01
      vertex   3.225450e+01 1.350384e+01 1.000000e+01
      vertex   3.197976e+01 1.464820e+01 2.000000e+01
    endloop
  endfacet
  facet normal 9.723699e-01 2.334454e-01 0.000000e+00
    outer loop
      vertex   3.197976e+01 1.464820e+01 2.000000e+01
      vertex   3.225450e+01 1.350384e+01 1.000000e+01
      vertex   3.197976e+01 1.464820e+01 1.000000e+01
    endloop
  endfacet
  facet normal 9.238795e-01 3.826834e-01 0.000000e+00
    outer loop
      vertex   3.197976e+01 1.464820e+01 2.000000e+01
      vertex   3.197976e+01 1.464820e+01 1.000000e+01
      vertex   3.152939e+01 1.573551e+01 2.000000e+01
    endloop
  endfacet
  facet normal 9.238795e-01 3.826834e-01 0.000000e+00
    outer loop
      vertex   3.152939e+01 1.573551e+01 2.000000e+01
      vertex   3.197976e+01 1.464820e+01 1.000000e+01
      vertex   3.152939e+01 1.573551e+01 1.000000e+01
    endloop
  endfacet
  facet normal 8.526402e-01 5.224986e-01 0.000000e+00
    outer loop
      vertex   3.152939e+01 1.573551e+01 2.000000e+01
      vertex   3.152939e+01 1.573551e+01 1.000000e+01
      vertex   3.091446e+01 1.673897e+01 2.000000e+01
    endloop
  endfacet
  facet normal 8.526402e-01 5.224986e-01 0.000000e+00
    outer loop
      vertex   3.091446e+01 1.673897e+01 2.000000e+01
      vertex   3.152939e+01 1.573551e+01 1.000000e+01
      vertex   3.091446e+01 1.673897e+01 1.000000e+01
    endloop
  endfacet
  facet normal 7.604060e-01 6.494480e-01 0.000000e+00
    outer loop
      vertex   3.091446e+01 1.673897e+01 2.000000e+01
      vertex   3.091446e+01 1.673897e+01 1.000000e+01
      vertex   3.015014e+01 1.763388e+01 2.000000e+01
    endloop
  endfacet
  facet normal 7.604060e-01 6.494480e-01 0.000000e+00
    outer loop
      vertex   3.015014e+01 1.763388e+01 2.000000e+01
      vertex   3.091446e+01 1.673897e+01 1.000000e+01
      vertex   3.015014e+01 1.763388e+01 1.000000e+01
    endloop
  endfacet
  facet normal 6.494480e-01 7.604060e-01 0.000000e+00
    outer loop
      vertex   3.015014e+01 1.763388e+01 2.000000e+01
      vertex   3.015014e+01 1.763388e+01 1.000000e+01
      vertex   2.925523e+01 1.839820e+01 2.000000e+01
    endloop
  endfacet
  facet normal 6.494480e-01 7.604060e-01 0.000000e+00
    outer loop
      vertex   2.925523e+01 1.839820e+01 2.000000e+01
      vertex   3.015014e+01 1.763388e+01 1.000000e+01
      vertex   2.925523e+01 1.839820e+01 1.000000e+01
    endloop
  endfacet
  facet normal 5.224986e-01 8.526402e-01 0.000000e+00
    outer loop
      vertex   2.925523e+01 1.839820e+01 2.000000e+01
      vertex   2.925523e+01 1.839820e+01 1.000000e+01
      vertex   2.825177e+01 1.901313e+01 2.000000e+01
    endloop
  endfacet
  facet normal 5.224986e-01 8.526402e-01 0.000000e+00
    outer loop
      vertex   2.825177e+01 1.901313e+01 2.000000e+01
      vertex   2.925523e+01 1.839820e+01 1.000000e+01
      vertex   2.825177e+01 1.901313e+01 1.000000e+01
    endloop
  endfacet
  facet normal 3.826834e-01 9.238795e-01 0.000000e+00
    outer loop
      vertex   2.825177e+01 1.901313e+01 2.000000e+01
      vertex   2.825177e+01 1.901313e+01 1.000000e+01
      vertex   2.716446e+01 1.946350e+01 2.000000e+01
    endloop
  endfacet
  facet normal 3.826834e-01 9.238795e-01 0.000000e+00
    outer loop
      vertex   2.716446e+01 1.946350e+01 2.000000e+01
      vertex   2.825177e+01 1.901313e+01 1.000000e+01
      vertex   2.716446e+01 1.946350e+01 1.000000e+01
    endloop
  endfacet
  facet normal 2.334454e-01 9.723699e-01 0.000000e+00
    outer loop
      vertex   2.716446e+01 1.946350e+01 2.000000e+01
      vertex   2.716446e+01 1.946350e+01 1.000000e+01
      vertex   2.602010e+01 1.973824e+01 2.000000e+01
    endloop
  endfacet
  facet normal 2.334454e-01 9.723699e-01 0.000000e+00
    outer loop
      vertex   2.602010e+01 1.973824e+01 2.000000e+01
      vertex   2.716446e+01 1.946350e+01 1.000000e+01
      vertex   2.602010e+01 1.973824e+01 1.000000e+01
    endloop
  endfacet
  facet normal 7.845910e-02 9.969173e-01 0.000000e+00
    outer loop
      vertex   2.602010e+01 1.973824e+01 2.000000e+01
      vertex   2.602010e+01 1.973824e+01 1.000000e+01
      vertex   2.484684e+01 1.983058e+01 2.000000e+01
    endloop
  endfacet
  facet normal 7.845910e-02 9.969173e-01 0.000000e+00
    outer loop
      vertex   2.484684e+01 1.983058e+01 2.000000e+01
      vertex   2.602010e+01 1.973824e+01 1.000000e+01
      vertex   2.484684e+01 1.983058e+01 1.000000e+01
    endloop
  endfacet
  facet normal -7.845910e-02 9.969173e-01 0.000000e+00
    outer loop
      vertex   2.484684e+01 1.983058e+01 2.000000e+01
      vertex   2.484684e+01 1.983058e+01 1.000000e+01
      vertex   2.367358e+01 1.973824e+01 2.000000e+01
    endloop
  endfacet
  facet normal -7.845910e-02 9.969173e-01 0.000000e+00
    outer loop
      vertex   2.367358e+01 1.973824e+01 2.000000e+01
      vertex   2.484684e+01 1.983058e+01 1.000000e+01
      vertex   2.367358e+01 1.973824e+01 1.000000e+01
    endloop
  endfacet
  facet normal -2.334454e-01 9.723699e-01 0.000000e+00
    outer loop
      vertex   2.367358e+01 1.973824e+01 2.000000e+01
      vertex   2.367358e+01 1.973824e+01 1.000000e+01
      vertex   2.252921e+01 1.946350e+01 2.000000e+01
    endloop
  endfacet
  facet normal -2.334454e-01 9.723699e-01 0.000000e+00
    outer loop
      vertex   2.252921e+01 1.946350e+01 2.000000e+01
      vertex   2.367358e+01 1.973824e+01 1.000000e+01
      vertex   2.252921e+01 1.946350e+01 1.000000e+01
    endloop
  endfacet
  facet normal -3.826834e-01 9.238795e-01 0.000000e+00
    outer loop
      vertex   2.252921e+01 1.946350e+01 2.000000e+01
      vertex   2.252921e+01 1.946350e+01 1.000000e+01
      vertex   2.144191e+01 1.901313e+01 2.000000e+01
    endloop
  endfacet
  facet normal -3.826834e-01 9.238795e-01 0.000000e+00
    outer loop
      vertex   2.144191e+01 1.901313e+01 2.000000e+01
      vertex   2.252921e+01 1.946350e+01 1.000000e+01
      vertex   2.144191e+01 1.901313e+01 1.000000e+01
    endloop
  endfacet
  facet normal -5.224986e-01 8.526402e-01 0.000000e+00
    outer loop
      vertex   2.144191e+01 1.901313e+01 2.000000e+01
      vertex   2.144191e+01 1.901313e+01 1.000000e+01
      vertex   2.043845e+01 1.839820e+01 2.000000e+01
    endloop
  endfacet
  facet normal -5.224986e-01 8.526402e-01 0.000000e+00
    outer loop
      vertex   2.043845e+01 1.839820e+01 2.000000e+01
      vertex   2.144191e+01 1.901313e+01 1.000000e+01
      vertex   2.043845e+01 1.839820e+01 1.000000e+01
    endloop
  endfacet
  facet normal -6.494480e-01 7.604060e-01 0.000000e+00
    outer loop
      vertex   2.043845e+01 1.839820e+01 2.000000e+01
      vertex   2.043845e+01 1.839820e+01 1.000000e+01
      vertex   1.954354e+01 1.763388e+01 2.000000e+01
    endloop
  endfacet
  facet normal -6.494480e-01 7.604060e-01 0.000000e+00
    outer loop
      vertex   1.954354e+01 1.763388e+01 2.000000e+01
      vertex   2.043845e+01 1.839820e+01 1.000000e+01
      vertex   1.954354e+01 1.763388e+01 1.000000e+01
    endloop
  endfacet
  facet normal -7.604060e-01 6.494480e-01 0.000000e+00
    outer loop
      vertex   1.954354e+01 1.763388e+01 2.000000e+01
      vertex   1.954354e+01 1.763388e+01 1.000000e+01
      vertex   1.877921e+01 1.673897e+01 2.000000e+01
    endloop
  endfacet
  facet normal -7.604060e-01 6.494480e-01 0.000000e+00
    outer loop
      vertex   1.877921e+01 1.673897e+01 2.000000e+01
      vertex   1.954354e+01 1.763388e+01 1.000000e+01
      vertex   1.877921e+01 1.673897e+01 1.000000e+01
    endloop
  endfacet
  facet normal -8.526402e-01 5.224986e-01 0.000000e+00
    outer loop
      vertex   1.877921e+01 1.673897e+01 2.000000e+01
      vertex   1.877921e+01 1.673897e+01 1.000000e+01
      vertex   1.816429e+01 1.573551e+01 2.000000e+01
    endloop
  endfacet
  facet normal -8.526402e-01 5.224986e-01 0.000000e+00
    outer loop
      vertex   1.816429e+01 1.573551e+01 2.000000e+01
      vertex   1.877921e+01 1.673897e+01 1.000000e+01
      vertex   1.816429e+01 1.573551e+01 1.000000e+01
    endloop
  endfacet
  facet normal 9.723699e-01 -2.334454e-01 0.000000e+00
    outer loop
      vertex   3.225450e+01 1.115732e+01 1.000000e+01
      vertex   3.225450e+01 1.115732e+01 2.000000e+01
      vertex   3.197976e+01 1.001295e+01 1.000000e+01
    endloop
  endfacet
  facet normal 9.723699e-01 -2.334454e-01 0.000000e+00
    outer loop
      vertex   3.197976e+01 1.001295e+01 1.000000e+01
      vertex   3.225450e+01 1.115732e+01 2.000000e+01
      vertex   3.197976e+01 1.001295e+01 2.000000e+01
    endloop
  endfacet
  facet normal 9.238795e-01 -3.826834e-01 0.000000e+00
    outer loop
      vertex   3.197976e+01 1.001295e+01 1.000000e+01
      vertex   3.197976e+01 1.001295e+01 2.000000e+01
      vertex   3.152939e+01 8.925649e+00 1.000000e+01
    endloop
  endfacet
  facet normal 9.238795e-01 -3.826834e-01 0.000000e+00
    outer loop
      vertex   3.152939e+01 8.925649e+00 1.000000e+01
      vertex   3.197976e+01 1.001295e+01 2.000000e+01
      vertex   3.152939e+01 8.925649e+00 2.000000e+01
    endloop
  endfacet
  facet normal 8.526402e-01 -5.224986e-01 0.000000e+00
    outer loop
      vertex   3.152939e+01 8.925649e+00 1.000000e+01
      vertex   3.152939e+01 8.925649e+00 2.000000e+01
      vertex   3.091446e+01 7.922188e+00 1.000000e+01
    endloop
  endfacet
  facet normal 8.526402e-01 -5.224986e-01 0.000000e+00
    outer loop
      vertex   3.091446e+01 7.922188e+00 1.000000e+01
      vertex   3.152939e+01 8.925649e+00 2.000000e+01
      vertex   3.091446e+01 7.922188e+00 2.000000e+01
    endloop
  endfacet
  facet normal 7.604060e-01 -6.494480e-01 0.000000e+00
    outer loop
      vertex   3.091446e+01 7.922188e+00 1.000000e+01
      vertex   3.091446e+01 7.922188e+00 2.000000e+01
      vertex   3.015014e+01 7.027277e+00 1.000000e+01
    endloop
  endfacet
  facet normal 7.604060e-01 -6.494480e-01 0.000000e+00
    outer loop
      vertex   3.015014e+01 7.027277e+00 1.000000e+01
      vertex   3.091446e+01 7.922188e+00 2.000000e+01
      vertex   3.015014e+01 7.027277e+00 2.000000e+01
    endloop
  endfacet
  facet normal 6.494480e-01 -7.604060e-01 0.000000e+00
    outer loop
      vertex   3.015014e+01 7.027277e+00 1.000000e+01
      vertex   3.015014e+01 7.027277e+00 2.000000e+01
      vertex   2.925523e+01 6.262950e+00 1.000000e+01
    endloop
  endfacet
  facet normal 6.494480e-01 -7.604060e-01 0.000000e+00
    outer loop
      vertex   2.925523e+01 6.262950e+00 1.000000e+01
      vertex   3.015014e+01 7.027277e+00 2.000000e+01
      vertex   2.925523e+01 6.262950e+00 2.000000e+01
    endloop
  endfacet
  facet normal 5.224986e-01 -8.526402e-01 0.000000e+00
    outer loop
      vertex   2.925523e+01 6.262950e+00 1.000000e+01
      vertex   2.925523e+01 6.262950e+00 2.000000e+01
      vertex   2.825177e+01 5.648029e+00 1.000000e+01
    endloop
  endfacet
  facet normal 5.224986e-01 -8.526402e-01 0.000000e+00
    outer loop
      vertex   2.825177e+01 5.648029e+00 1.000000e+01
      vertex   2.925523e+01 6.262950e+00 2.000000e+01
      vertex   2.825177e+01 5.648029e+00 2.000000e+01
    endloop
  endfacet
  facet normal 3.826834e-01 -9.238795e-01 0.000000e+00
    outer loop
      vertex   2.825177e+01 5.648029e+00 1.000000e+01
      vertex   2.825177e+01 5.648029e+00 2.000000e+01
      vertex   2.716446e+01 5.197654e+00 1.000000e+01
    endloop
  endfacet
  facet normal 3.826834e-01 -9.238795e-01 0.000000e+00
    outer loop
      vertex   2.716446e+01 5.197654e+00 1.000000e+01
      vertex   2.825177e+01 5.648029e+00 2.000000e+01
      vertex   2.716446e+01 5.197654e+00 2.000000e+01
    endloop
  endfacet
  facet normal 2.334454e-01 -9.723699e-01 0.000000e+00
    outer loop
      vertex   2.716446e+01 5.197654e+00 1.000000e+01
      vertex   2.716446e+01 5.197654e+00 2.000000e+01
      vertex   2.602010e+01 4.922915e+00 1.000000e+01
    endloop
  endfacet
  facet normal 2.334454e-01 -9.723699e-01 0.000000e+00
    outer loop
      vertex   2.602010e+01 4.922915e+00 1.000000e+01
      vertex   2.716446e+01 5.197654e+00 2.000000e+01
      vertex   2.602010e+01 4.922915e+00 2.000000e+01
    endloop
  endfacet
  facet normal 7.845910e-02 -9.969173e-01 0.000000e+00
    outer loop
      vertex   2.602010e+01 4.922915e+00 1.000000e+01
      vertex   2.602010e+01 4.922915e+00 2.000000e+01
      vertex   2.484684e+01 4.830578e+00 1.000000e+01
    endloop
  endfacet
  facet normal 7.845910e-02 -9.969173e-01 0.000000e+00
    outer loop
      vertex   2.484684e+01 4.830578e+00 1.000000e+01
      vertex   2.602010e+01 4.922915e+00 2.000000e+01
      vertex   2.484684e+01 4.830578e+00 2.000000e+01
    endloop
  endfacet
  facet normal -7.845910e-02 -9.969173e-01 0.000000e+00
    outer loop
      vertex   2.484684e+01 4.830578e+00 1.000000e+01
      vertex   2.484684e+01 4.830578e+00 2.000000e+01
      vertex   2.367358e+01 4.922915e+00 1.000000e+01
    endloop
  endfacet
  facet normal -7.845910e-02 -9.969173e-01 0.000000e+00
    outer loop
      vertex   2.367358e+01 4.922915e+00 1.000000e+01
      vertex   2.484684e+01 4.830578e+00 2.000000e+01
      vertex   2.367358e+01 4.922915e+00 2.000000e+01
    endloop
  endfacet
  facet normal -2.334454e-01 -9.723699e-01 0.000000e+00
    outer loop
      vertex   2.367358e+01 4.922915e+00 1.000000e+01
      vertex   2.367358e+01 4.922915e+00 2.000000e+01
      vertex   2.252921e+01 5.197654e+00 1.000000e+01
    endloop
  endfacet
  facet normal -2.334454e-01 -9.723699e-01 0.000000e+00
    outer loop
      vertex   2.252921e+01 5.197654e+00 1.000000e+01
      vertex   2.367358e+01 4.922915e+00 2.000000e+01
      vertex   2.252921e+01 5.197654e+00 2.000000e+01
    endloop
  endfacet
  facet normal -3.826834e-01 -9.238795e-01 0.000000e+00
    outer loop
      vertex   2.252921e+01 5.197654e+00 1.000000e+01
      vertex   2.252921e+01 5.197654e+00 2.000000e+01
      vertex   2.144191e+01 5.648029e+00 1.000000e+01
    endloop
  endfacet
  facet normal -3.826834e-01 -9.238795e-01 0.000000e+00
    outer loop
      vertex   2.144191e+01 5.648029e+00 1.000000e+01
      vertex   2.252921e+01 5.197654e+00 2.000000e+01
      vertex   2.144191e+01 5.648029e+00 2.000000e+01
    endloop
  endfacet
  facet normal -5.224986e-01 -8.526402e-01 0.000000e+00
    outer loop
      vertex   2.144191e+01 5.648029e+00 1.000000e+01
      vertex   2.144191e+01 5.648029e+00 2.000000e+01
      vertex   2.043845e+01 6.262950e+00 1.000000e+01
    endloop
  endfacet
  facet normal -5.224986e-01 -8.526402e-01 0.000000e+00
    outer loop
      vertex   2.043845e+01 6.262950e+00 1.000000e+01
      vertex   2.144191e+01 5.648029e+00 2.000000e+01
      vertex   2.043845e+01 6.262950e+00 2.000000e+01
    endloop
  endfacet
  facet normal -6.494480e-01 -7.604060e-01 0.000000e+00
    outer loop
      vertex   2.043845e+01 6.262950e+00 1.000000e+01
      vertex   2.043845e+01 6.262950e+00 2.000000e+01
      vertex   1.954354e+01 7.027277e+00 1.000000e+01
    endloop
  endfacet
  facet normal -6.494480e-01 -7.604060e-01 0.000000e+00
    outer loop
      vertex   1.954354e+01 7.027277e+00 1.000000e+01
      vertex   2.043845e+01 6.262950e+00 2.000000e+01
      vertex   1.954354e+01 7.027277e+00 2.000000e+01
    endloop
  endfacet
  facet normal -7.604060e-01 -6.494480e-01 0.000000e+00
    outer loop
      vertex   1.954354e+01 7.027277e+00 1.000000e+01
      vertex   1.954354e+01 7.027277e+00 2.000000e+01
      vertex   1.877921e+01 7.922188e+00 1.000000e+01
    endloop
  endfacet
  facet normal -7.604060e-01 -6.494480e-01 0.000000e+00
    outer loop
      vertex   1.877921e+01 7.922188e+00 1.000000e+01
      vertex   1.954354e+01 7.027277e+00 2.000000e+01
      vertex   1.877921e+01 7.922188e+00 2.000000e+01
    endloop
  endfacet
  facet normal -8.526402e-01 -5.224986e-01 0.000000e+00
    outer loop
      vertex   1.877921e+01 7.922188e+00 1.000000e+01
      vertex   1.877921e+01 7.922188e+00 2.000000e+01
      vertex   1.816429e+01 8.925649e+00 1.000000e+01
    endloop
  endfacet
  facet normal -8.526402e-01 -5.224986e-01 0.000000e+00
    outer loop
      vertex   1.816429e+01 8.925649e+00 1.000000e+01
      vertex   1.877921e+01 7.922188e+00 2.000000e+01
      vertex   1.816429e+01 8.925649e+00 2.000000e+01
    endloop
  endfacet
  facet normal -9.238795e-01 -3.826834e-01 0.000000e+00
    outer loop
      vertex   1.816429e+01 8.925649e+00 1.000000e+01
      vertex   1.816429e+01 8.925649e+00 2.000000e+01
      vertex   1.771391e+01 1.001295e+01 1.000000e+01
    endloop
  endfacet
  facet normal -9.238795e-01 -3.826834e-01 0.000000e+00
    outer loop
      vertex   1.771391e+01 1.001295e+01 1.000000e+01
      vertex   1.816429e+01 8.925649e+00 2.000000e+01
      vertex   1.771391e+01 1.001295e+01 2.000000e+01
    endloop
  endfacet
  facet normal 0.000000e+00 0.000000e+00 1.000000e+00
    outer loop
      vertex   3.225450e+01 1.350384e+01 2.000000e+01
      vertex   1.743917e+01 1.350384e+01 2.000000e+01
      vertex   3.234684e+01 1.233058e+01 2.000000e+01
    endloop
  endfacet
  facet normal 0.000000e+00 0.000000e+00 1.000000e+00
    outer loop
      vertex   3.234684e+01 1.233058e+01 2.000000e+01
      vertex   1.743917e+01 1.350384e+01 2.000000e+01
      vertex   1.734684e+01 1.233058e+01 2.000000e+01
    endloop
  endfacet
  facet normal 0.000000e+00 0.000000e+00 1.000000e+00
    outer loop
      vertex   3.234684e+01 1.233058e+01 2.000000e+01
      vertex   1.734684e+01 1.233058e+01 2.000000e+01
      vertex   3.225450e+01 1.115732e+01 2.000000e+01
    endloop
  endfacet
  facet normal 0.000000e+00 0.000000e+00 1.000000e+00
    outer loop
      vertex   3.225450e+01 1.115732e+01 2.000000e+01
      vertex   1.734684e+01 1.233058e+01 2.000000e+01
      vertex   1.743917e+01 1.115732e+01 2.000000e+01
    endloop
  endfacet
  facet normal 0.000000e+00 0.000000e+00 1.000000e+00
    outer loop
      vertex   3.225450e+01 1.115732e+01 2.000000e+01
      vertex   1.743917e+01 1.115732e+01 2.000000e+01
      vertex   3.197976e+01 1.001295e+01 2.000000e+01
    endloop
  endfacet
  facet normal 0.000000e+00 0.000000e+00 1.000000e+00
    outer loop
      vertex   3.197976e+01 1.001295e+01 2.000000e+01
      vertex   1.743917e+01 1.115732e+01 2.000000e+01
      vertex   1.771391e+01 1.001295e+01 2.000000e+01
    endloop
  endfacet
  facet normal 0.000000e+00 0.000000e+00 1.000000e+00
    outer loop
      vertex   3.197976e+01 1.001295e+01 2.000000e+01
      vertex   1.771391e+01 1.001295e+01 2.000000e+01
      vertex   3.152939e+01 8.925649e+00 2.000000e+01
    endloop
  endfacet
  facet normal 0.000000e+00 0.000000e+00 1.000000e+00
    outer loop
      vertex   3.152939e+01 8.925649e+00 2.000000e+01
      vertex   1.771391e+01 1.001295e+01 2.000000e+01
      vertex   1.816429e+01 8.925649e+00 2.000000e+01
    endloop
  endfacet
  facet normal 0.000000e+00 0.000000e+00 1.000000e+00
    outer loop
      vertex   3.152939e+01 8.925649e+00 2.000000e+01
      vertex   1.816429e+01 8.925649e+00 2.000000e+01
      vertex   3.091446e+01 7.922188e+00 2.000000e+01
    endloop
  endfacet
  facet normal 0.000000e+00 0.000000e+00 1.000000e+00
    outer loop
      vertex   3.091446e+01 7.922188e+00 2.000000e+01
      vertex   1.816429e+01 8.925649e+00 2.000000e+01
      vertex   1.877921e+01 7.922188e+00 2.000000e+01
    endloop
  endfacet
  facet normal 0.000000e+00 0.000000e+00 1.000000e+00
    outer loop
      vertex   3.091446e+01 7.922188e+00 2.000000e+01
      vertex   1.877921e+01 7.922188e+00 2.000000e+01
      vertex   3.015014e+01 7.027277e+00 2.000000e+01
    endloop
  endfacet
  facet normal 0.000000e+00 0.000000e+00 1.000000e+00
    outer loop
      vertex   3.015014e+01 7.027277e+00 2.000000e+01
      vertex   1.877921e+01 7.922188e+00 2.000000e+01
      vertex   1.954354e+01 7.027277e+00 2.000000e+01
    endloop
  endfacet
  facet normal 0.000000e+00 0.000000e+00 1.000000e+00
    outer loop
      vertex   3.015014e+01 7.027277e+00 2.000000e+01
      vertex   1.954354e+01 7.027277e+00 2.000000e+01
      vertex   2.925523e+01 6.262950e+00 2.000000e+01
    endloop
  endfacet
  facet normal 0.000000e+00 0.000000e+00 1.000000e+00
    outer loop
      vertex   2.925523e+01 6.262950e+00 2.000000e+01
      vertex   1.954354e+01 7.027277e+00 2.000000e+01
      vertex   2.043845e+01 6.262950e+00 2.000000e+01
    endloop
  endfacet
  facet normal 0.000000e+00 0.000000e+00 1.000000e+00
    outer loop
      vertex   2.925523e+01 6.262950e+00 2.000000e+01
      vertex   2.043845e+01 6.262950e+00 2.000000e+01
      vertex   2.825177e+01 5.648029e+00 2.000000e+01
    endloop
  endfacet
  facet normal 0.000000e+00 0.000000e+00 1.000000e+00
    outer loop
      vertex   2.825177e+01 5.648029e+00 2.000000e+01
      vertex   2.043845e+01 6.262950e+00 2.000000e+01
      vertex   2.144191e+01 5.648029e+00 2.000000e+01
    endloop
  endfacet
  facet normal 0.000000e+00 0.000000e+00 1.000000e+00
    outer loop
      vertex   2.825177e+01 5.648029e+00 2.000000e+01
      vertex   2.144191e+01 5.648029e+00 2.000000e+01
      vertex   2.716446e+01 5.197654e+00 2.000000e+01
    endloop
  endfacet
  facet normal 0.000000e+00 0.000000e+00 1.000000e+00
    outer loop
      vertex   2.716446e+01 5.197654e+00 2.000000e+01
      vertex   2.144191e+01 5.648029e+00 2.000000e+01
      vertex   2.252921e+01 5.197654e+00 2.000000e+01
    endloop
  endfacet
  facet normal 0.000000e+00 0.000000e+00 1.000000e+00
    outer loop
      vertex   2.716446e+01 5.197654e+00 2.000000e+01
      vertex   2.252921e+01 5.197654e+00 2.000000e+01
      vertex   2.602010e+01 4.922915e+00 2.000000e+01
    endloop
  endfacet
  facet normal 0.000000e+00 0.000000e+00 1.000000e+00
    outer loop
      vertex   2.602010e+01 4.922915e+00 2.000000e+01
      vertex   2.252921e+01 5.197654e+00 2.000000e+01
      vertex   2.367358e+01 4.922915e+00 2.000000e+01
    endloop
  endfacet
  facet normal 0.000000e+00 0.000000e+00 1.000000e+00
    outer loop
      vertex   2.602010e+01 4.922915e+00 2.000000e+01
      vertex   2.367358e+01 4.922915e+00 2.000000e+01
      vertex   2.484684e+01 4.830578e+00 2.000000e+01
    endloop
  endfacet
  facet normal 0.000000e+00 0.000000e+00 1.000000e+00
    outer loop
      vertex   1.743917e+01 1.350384e+01 2.000000e+01
      vertex   3.225450e+01 1.350384e+01 2.000000e+01
      vertex   1.771391e+01 1.464820e+01 2.000000e+01
    endloop
  endfacet
  facet normal -0.000000e+00 0.000000e+00 1.000000e+00
    outer loop
      vertex   1.771391e+01 1.464820e+01 2.000000e+01
      vertex   3.225450e+01 1.350384e+01 2.000000e+01
      vertex   3.197976e+01 1.464820e+01 2.000000e+01
    endloop
  endfacet
  facet normal 0.000000e+00 0.000000e+00 1.000000e+00
    outer loop
      vertex   1.771391e+01 1.464820e+01 2.000000e+01
      vertex   3.197976e+01 1.464820e+01 2.000000e+01
      vertex   1.816429e+01 1.573551e+01 2.000000e+01
    endloop
  endfacet
  facet normal -0.000000e+00 0.000000e+00 1.000000e+00
    outer loop
      vertex   1.816429e+01 1.573551e+01 2.000000e+01
      vertex   3.197976e+01 1.464820e+01 2.000000e+01
      vertex   3.152939e+01 1.573551e+01 2.000000e+01
    endloop
  endfacet
  facet normal 0.000000e+00 0.000000e+00 1.000000e+00
    outer loop
      vertex   1.816429e+01 1.573551e+01 2.000000e+01
      vertex   3.152939e+01 1.573551e+01 2.000000e+01
      vertex   1.877921e+01 1.673897e+01 2.000000e+01
    endloop
  endfacet
  facet normal -0.000000e+00 0.000000e+00 1.000000e+00
    outer loop
      vertex   1.877921e+01 1.673897e+01 2.000000e+01
      vertex   3.152939e+01 1.573551e+01 2.000000e+01
      vertex   3.091446e+01 1.673897e+01 2.000000e+01
    endloop
  endfacet
  facet normal 0.000000e+00 0.000000e+00 1.000000e+00
    outer loop
      vertex   1.877921e+01 1.673897e+01 2.000000e+01
      vertex   3.091446e+01 1.673897e+01 2.000000e+01
      vertex   1.954354e+01 1.763388e+01 2.000000e+01
    endloop
  endfacet
  facet normal -0.000000e+00 0.000000e+00 1.000000e+00
    outer loop
      vertex   1.954354e+01 1.763388e+01 2.000000e+01
      vertex   3.091446e+01 1.673897e+01 2.000000e+01
      vertex   3.015014e+01 1.763388e+01 2.000000e+01
    endloop
  endfacet
  facet normal 0.000000e+00 0.000000e+00 1.000000e+00
    outer loop
      vertex   1.954354e+01 1.763388e+01 2.000000e+01
      vertex   3.015014e+01 1.763388e+01 2.000000e+01
      vertex   2.043845e+01 1.839820e+01 2.000000e+01
    endloop
  endfacet
  facet normal -0.000000e+00 0.000000e+00 1.000000e+00
    outer loop
      vertex   2.043845e+01 1.839820e+01 2.000000e+01
      vertex   3.015014e+01 1.763388e+01 2.000000e+01
      vertex   2.925523e+01 1.839820e+01 2.000000e+01
    endloop
  endfacet
  facet normal 0.000000e+00 0.000000e+00 1.000000e+00
    outer loop
      vertex   2.043845e+01 1.839820e+01 2.000000e+01
      vertex   2.925523e+01 1.839820e+01 2.000000e+01
      vertex   2.144191e+01 1.901313e+01 2.000000e+01
    endloop
  endfacet
  facet normal -0.000000e+00 0.000000e+00 1.000000e+00
    outer loop
      vertex   2.144191e+01 1.901313e+01 2.000000e+01
      vertex   2.925523e+01 1.839820e+01 2.000000e+01
      vertex   2.825177e+01 1.901313e+01 2.000000e+01
    endloop
  endfacet
  facet normal 0.000000e+00 0.000000e+00 1.000000e+00
    outer loop
      vertex   2.144191e+01 1.901313e+01 2.000000e+01
      vertex   2.825177e+01 1.901313e+01 2.000000e+01
      vertex   2.252921e+01 1.946350e+01 2.000000e+01
    endloop
  endfacet
  facet normal -0.000000e+00 0.000000e+00 1.000000e+00
    outer loop
      vertex   2.252921e+01 1.946350e+01 2.000000e+01
      vertex   2.825177e+01 1.901313e+01 2.000000e+01
      vertex   2.716446e+01 1.946350e+01 2.000000e+01
    endloop
  endfacet
  facet normal 0.000000e+00 0.000000e+00 1.000000e+00
    outer loop
      vertex   2.252921e+01 1.946350e+01 2.000000e+01
      vertex   2.716446e+01 1.946350e+01 2.000000e+01
      vertex   2.367358e+01 1.973824e+01 2.000000e+01
    endloop
  endfacet
  facet normal -0.000000e+00 0.000000e+00 1.000000e+00
    outer loop
      vertex   2.367358e+01 1.973824e+01 2.000000e+01
      vertex   2.716446e+01 1.946350e+01 2.000000e+01
      vertex   2.602010e+01 1.973824e+01 2.000000e+01
    endloop
  endfacet
  facet normal 0.000000e+00 0.000000e+00 1.000000e+00
    outer loop
      vertex   2.367358e+01 1.973824e+01 2.000000e+01
      vertex   2.602010e+01 1.973824e+01 2.000000e+01
      vertex   2.484684e+01 1.983058e+01 2.000000e+01
    endloop
  endfacet
  facet normal -1.000000e+00 0.000000e+00 0.000000e+00
    outer loop
      vertex   0.000000e+00 2.500000e+01 0.000000e+00
      vertex   0.000000e+00 0.000000e+00 0.000000e+00
      vertex   0.000000e+00 2.500000e+01 1.000000e+01
    endloop
  endfacet
  facet normal -1.000000e+00 -0.000000e+00 0.000000e+00
    outer loop
      vertex   0.000000e+00 2.500000e+01 1.000000e+01
      vertex   0.000000e+00 0.000000e+00 0.000000e+00
      vertex   0.000000e+00 0.000000e+00 1.000000e+01
    endloop
  endfacet
  facet normal 0.000000e+00 1.000000e+00 -0.000000e+00
    outer loop
      vertex   5.000000e+01 2.500000e+01 0.000000e+00
      vertex   0.000000e+00 2.500000e+01 0.000000e+00
      vertex   5.000000e+01 2.500000e+01 1.000000e+01
    endloop
  endfacet
  facet normal 0.000000e+00 1.000000e+00 0.000000e+00
    outer loop
      vertex   5.000000e+01 2.500000e+01 1.000000e+01
      vertex   0.000000e+00 2.500000e+01 0.000000e+00
      vertex   0.000000e+00 2.500000e+01 1.000000e+01
    endloop
  endfacet
  facet normal 1.000000e+00 0.000000e+00 0.000000e+00
    outer loop
      vertex   5.000000e+01 0.000000e+00 0.000000e+00
      vertex   5.000000e+01 2.500000e+01 0.000000e+00
      vertex   5.000000e+01 0.000000e+00 1.000000e+01
    endloop
  endfacet
  facet normal 1.000000e+00 -0.000000e+00 0.000000e+00
    outer loop
      vertex   5.000000e+01 0.000000e+00 1.000000e+01
      vertex   5.000000e+01 2.500000e+01 0.000000e+00
      vertex   5.000000e+01 2.500000e+01 1.000000e+01
    endloop
  endfacet
  facet normal 0.000000e+00 -1.000000e+00 0.000000e+00
    outer loop
      vertex   0.000000e+00 0.000000e+00 0.000000e+00
      vertex   5.000000e+01 0.000000e+00 0.000000e+00
      vertex   0.000000e+00 0.000000e+00 1.000000e+01
    endloop
  endfacet
  facet normal 0.000000e+00 -1.000000e+00 0.000000e+00
    outer loop
      vertex   0.000000e+00 0.000000e+00 1.000000e+01
      vertex   5.000000e+01 0.000000e+00 0.000000e+00
      vertex   5.000000e+01 0.000000e+00 1.000000e+01
    endloop
  endfacet
  facet normal -0.000000e+00 0.000000e+00 1.000000e+00
    outer loop
      vertex   3.225450e+01 1.115732e+01 1.000000e+01
      vertex   5.000000e+01 0.000000e+00 1.000000e+01
      vertex   3.234684e+01 1.233058e+01 1.000000e+01
    endloop
  endfacet
  facet normal -0.000000e+00 0.000000e+00 1.000000e+00
    outer loop
      vertex   3.234684e+01 1.233058e+01 1.000000e+01
      vertex   5.000000e+01 0.000000e+00 1.000000e+01
      vertex   5.000000e+01 2.500000e+01 1.000000e+01
    endloop
  endfacet
  facet normal 0.000000e+00 -0.000000e+00 1.000000e+00
    outer loop
      vertex   3.234684e+01 1.233058e+01 1.000000e+01
      vertex   5.000000e+01 2.500000e+01 1.000000e+01
      vertex   3.225450e+01 1.350384e+01 1.000000e+01
    endloop
  endfacet
  facet normal 0.000000e+00 -0.000000e+00 1.000000e+00
    outer loop
      vertex   3.225450e+01 1.350384e+01 1.000000e+01
      vertex   5.000000e+01 2.500000e+01 1.000000e+01
      vertex   3.197976e+01 1.464820e+01 1.000000e+01
    endloop
  endfacet
  facet normal 0.000000e+00 -0.000000e+00 1.000000e+00
    outer loop
      vertex   3.197976e+01 1.464820e+01 1.000000e+01
      vertex   5.000000e+01 2.500000e+01 1.000000e+01
      vertex   3.152939e+01 1.573551e+01 1.000000e+01
    endloop
  endfacet
  facet normal 0.000000e+00 -0.000000e+00 1.000000e+00
    outer loop
      vertex   3.152939e+01 1.573551e+01 1.000000e+01
      vertex   5.000000e+01 2.500000e+01 1.000000e+01
      vertex   3.091446e+01 1.673897e+01 1.000000e+01
    endloop
  endfacet
  facet normal 0.000000e+00 -0.000000e+00 1.000000e+00
    outer loop
      vertex   3.091446e+01 1.673897e+01 1.000000e+01
      vertex   5.000000e+01 2.500000e+01 1.000000e+01
      vertex   3.015014e+01 1.763388e+01 1.000000e+01
    endloop
  endfacet
  facet normal 0.000000e+00 -0.000000e+00 1.000000e+00
    outer loop
      vertex   3.015014e+01 1.763388e+01 1.000000e+01
      vertex   5.000000e+01 2.500000e+01 1.000000e+01
      vertex   2.925523e+01 1.839820e+01 1.000000e+01
    endloop
  endfacet
  facet normal 0.000000e+00 -0.000000e+00 1.000000e+00
    outer loop
      vertex   2.925523e+01 1.839820e+01 1.000000e+01
      vertex   5.000000e+01 2.500000e+01 1.000000e+01
      vertex   2.825177e+01 1.901313e+01 1.000000e+01
    endloop
  endfacet
  facet normal 0.000000e+00 -0.000000e+00 1.000000e+00
    outer loop
      vertex   2.825177e+01 1.901313e+01 1.000000e+01
      vertex   5.000000e+01 2.500000e+01 1.000000e+01
      vertex   2.716446e+01 1.946350e+01 1.000000e+01
    endloop
  endfacet
  facet normal 0.000000e+00 -0.000000e+00 1.000000e+00
    outer loop
      vertex   2.716446e+01 1.946350e+01 1.000000e+01
      vertex   5.000000e+01 2.500000e+01 1.000000e+01
      vertex   2.602010e+01 1.973824e+01 1.000000e+01
    endloop
  endfacet
  facet normal 0.000000e+00 -0.000000e+00 1.000000e+00
    outer loop
      vertex   2.602010e+01 1.973824e+01 1.000000e+01
      vertex   5.000000e+01 2.500000e+01 1.000000e+01
      vertex   2.484684e+01 1.983058e+01 1.000000e+01
    endloop
  endfacet
  facet normal 0.000000e+00 -0.000000e+00 1.000000e+00
    outer loop
      vertex   2.484684e+01 1.983058e+01 1.000000e+01
      vertex   5.000000e+01 2.500000e+01 1.000000e+01
      vertex   0.000000e+00 2.500000e+01 1.000000e+01
    endloop
  endfacet
  facet normal 0.000000e+00 0.000000e+00 1.000000e+00
    outer loop
      vertex   2.484684e+01 1.983058e+01 1.000000e+01
      vertex   0.000000e+00 2.500000e+01 1.000000e+01
      vertex   2.367358e+01 1.973824e+01 1.000000e+01
    endloop
  endfacet
  facet normal 0.000000e+00 0.000000e+00 1.000000e+00
    outer loop
      vertex   2.367358e+01 1.973824e+01 1.000000e+01
      vertex   0.000000e+00 2.500000e+01 1.000000e+01
      vertex   2.252921e+01 1.946350e+01 1.000000e+01
    endloop
  endfacet
  facet normal 0.000000e+00 0.000000e+00 1.000000e+00
    outer loop
      vertex   2.252921e+01 1.946350e+01 1.000000e+01
      vertex   0.000000e+00 2.500000e+01 1.000000e+01
      vertex   2.144191e+01 1.901313e+01 1.000000e+01
    endloop
  endfacet
  facet normal 0.000000e+00 0.000000e+00 1.000000e+00
    outer loop
      vertex   2.144191e+01 1.901313e+01 1.000000e+01
      vertex   0.000000e+00 2.500000e+01 1.000000e+01
      vertex   2.043845e+01 1.839820e+01 1.000000e+01
    endloop
  endfacet
  facet normal 0.000000e+00 0.000000e+00 1.000000e+00
    outer loop
      vertex   2.043845e+01 1.839820e+01 1.000000e+01
      vertex   0.000000e+00 2.500000e+01 1.000000e+01
      vertex   1.954354e+01 1.763388e+01 1.000000e+01
    endloop
  endfacet
  facet normal 0.000000e+00 0.000000e+00 1.000000e+00
    outer loop
      vertex   1.954354e+01 1.763388e+01 1.000000e+01
      vertex   0.000000e+00 2.500000e+01 1.000000e+01
      vertex   1.877921e+01 1.673897e+01 1.000000e+01
    endloop
  endfacet
  facet normal 0.000000e+00 0.000000e+00 1.000000e+00
    outer loop
      vertex   1.877921e+01 1.673897e+01 1.000000e+01
      vertex   0.000000e+00 2.500000e+01 1.000000e+01
      vertex   1.816429e+01 1.573551e+01 1.000000e+01
    endloop
  endfacet
  facet normal 0.000000e+00 0.000000e+00 1.000000e+00
    outer loop
      vertex   1.816429e+01 1.573551e+01 1.000000e+01
      vertex   0.000000e+00 2.500000e+01 1.000000e+01
      vertex   1.771391e+01 1.464820e+01 1.000000e+01
    endloop
  endfacet
  facet normal 0.000000e+00 0.000000e+00 1.000000e+00
    outer loop
      vertex   1.771391e+01 1.464820e+01 1.000000e+01
      vertex   0.000000e+00 2.500000e+01 1.000000e+01
      vertex   1.743917e+01 1.350384e+01 1.000000e+01
    endloop
  endfacet
  facet normal 0.000000e+00 0.000000e+00 1.000000e+00
    outer loop
      vertex   1.743917e+01 1.350384e+01 1.000000e+01
      vertex   0.000000e+00 2.500000e+01 1.000000e+01
      vertex   1.734684e+01 1.233058e+01 1.000000e+01
    endloop
  endfacet
  facet normal 0.000000e+00 0.000000e+00 1.000000e+00
    outer loop
      vertex   1.734684e+01 1.233058e+01 1.000000e+01
      vertex   0.000000e+00 2.500000e+01 1.000000e+01
      vertex   0.000000e+00 0.000000e+00 1.000000e+01
    endloop
  endfacet
  facet normal 0.000000e+00 0.000000e+00 1.000000e+00
    outer loop
      vertex   1.734684e+01 1.233058e+01 1.000000e+01
      vertex   0.000000e+00 0.000000e+00 1.000000e+01
      vertex   1.743917e+01 1.115732e+01 1.000000e+01
    endloop
  endfacet
  facet normal 0.000000e+00 0.000000e+00 1.000000e+00
    outer loop
      vertex   1.743917e+01 1.115732e+01 1.000000e+01
      vertex   0.000000e+00 0.000000e+00 1.000000e+01
      vertex   1.771391e+01 1.001295e+01 1.000000e+01
    endloop
  endfacet
  facet normal 0.000000e+00 0.000000e+00 1.000000e+00
    outer loop
      vertex   1.771391e+01 1.001295e+01 1.000000e+01
      vertex   0.000000e+00 0.000000e+00 1.000000e+01
      vertex   1.816429e+01 8.925649e+00 1.000000e+01
    endloop
  endfacet
  facet normal 0.000000e+00 0.000000e+00 1.000000e+00
    outer loop
      vertex   1.816429e+01 8.925649e+00 1.000000e+01
      vertex   0.000000e+00 0.000000e+00 1.000000e+01
      vertex   1.877921e+01 7.922188e+00 1.000000e+01
    endloop
  endfacet
  facet normal 0.000000e+00 0.000000e+00 1.000000e+00
    outer loop
      vertex   1.877921e+01 7.922188e+00 1.000000e+01
      vertex   0.000000e+00 0.000000e+00 1.000000e+01
      vertex   1.954354e+01 7.027277e+00 1.000000e+01
    endloop
  endfacet
  facet normal 0.000000e+00 0.000000e+00 1.000000e+00
    outer loop
      vertex   1.954354e+01 7.027277e+00 1.000000e+01
      vertex   0.000000e+00 0.000000e+00 1.000000e+01
      vertex   2.043845e+01 6.262950e+00 1.000000e+01
    endloop
  endfacet
  facet normal 0.000000e+00 0.000000e+00 1.000000e+00
    outer loop
      vertex   2.043845e+01 6.262950e+00 1.000000e+01
      vertex   0.000000e+00 0.000000e+00 1.000000e+01
      vertex   2.144191e+01 5.648029e+00 1.000000e+01
    endloop
  endfacet
  facet normal 0.000000e+00 0.000000e+00 1.000000e+00
    outer loop
      vertex   2.144191e+01 5.648029e+00 1.000000e+01
      vertex   0.000000e+00 0.000000e+00 1.000000e+01
      vertex   2.252921e+01 5.197654e+00 1.000000e+01
    endloop
  endfacet
  facet normal 0.000000e+00 0.000000e+00 1.000000e+00
    outer loop
      vertex   2.252921e+01 5.197654e+00 1.000000e+01
      vertex   0.000000e+00 0.000000e+00 1.000000e+01
      vertex   2.367358e+01 4.922915e+00 1.000000e+01
    endloop
  endfacet
  facet normal 0.000000e+00 0.000000e+00 1.000000e+00
    outer loop
      vertex   2.367358e+01 4.922915e+00 1.000000e+01
      vertex   0.000000e+00 0.000000e+00 1.000000e+01
      vertex   2.484684e+01 4.830578e+00 1.000000e+01
    endloop
  endfacet
  facet normal 0.000000e+00 0.000000e+00 1.000000e+00
    outer loop
      vertex   2.484684e+01 4.830578e+00 1.000000e+01
      vertex   0.000000e+00 0.000000e+00 1.000000e+01
      vertex   5.000000e+01 0.000000e+00 1.000000e+01
    endloop
  endfacet
  facet normal -0.000000e+00 0.000000e+00 1.000000e+00
    outer loop
      vertex   2.484684e+01 4.830578e+00 1.000000e+01
      vertex   5.000000e+01 0.000000e+00 1.000000e+01
      vertex   2.602010e+01 4.922915e+00 1.000000e+01
    endloop
  endfacet
  facet normal -0.000000e+00 0.000000e+00 1.000000e+00
    outer loop
      vertex   2.602010e+01 4.922915e+00 1.000000e+01
      vertex   5.000000e+01 0.000000e+00 1.000000e+01
      vertex   2.716446e+01 5.197654e+00 1.000000e+01
    endloop
  endfacet
  facet normal -0.000000e+00 0.000000e+00 1.000000e+00
    outer loop
      vertex   2.716446e+01 5.197654e+00 1.000000e+01
      vertex   5.000000e+01 0.000000e+00 1.000000e+01
      vertex   2.825177e+01 5.648029e+00 1.000000e+01
    endloop
  endfacet
  facet normal -0.000000e+00 0.000000e+00 1.000000e+00
    outer loop
      vertex   2.825177e+01 5.648029e+00 1.000000e+01
      vertex   5.000000e+01 0.000000e+00 1.000000e+01
      vertex   2.925523e+01 6.262950e+00 1.000000e+01
    endloop
  endfacet
  facet normal -0.000000e+00 0.000000e+00 1.000000e+00
    outer loop
      vertex   2.925523e+01 6.262950e+00 1.000000e+01
      vertex   5.000000e+01 0.000000e+00 1.000000e+01
      vertex   3.015014e+01 7.027277e+00 1.000000e+01
    endloop
  endfacet
  facet normal -0.000000e+00 0.000000e+00 1.000000e+00
    outer loop
      vertex   3.015014e+01 7.027277e+00 1.000000e+01
      vertex   5.000000e+01 0.000000e+00 1.000000e+01
      vertex   3.091446e+01 7.922188e+00 1.000000e+01
    endloop
  endfacet
  facet normal -0.000000e+00 0.000000e+00 1.000000e+00
    outer loop
      vertex   3.091446e+01 7.922188e+00 1.000000e+01
      vertex   5.000000e+01 0.000000e+00 1.000000e+01
      vertex   3.152939e+01 8.925649e+00 1.000000e+01
    endloop
  endfacet
  facet normal -0.000000e+00 0.000000e+00 1.000000e+00
    outer loop
      vertex   3.152939e+01 8.925649e+00 1.000000e+01
      vertex   5.000000e+01 0.000000e+00 1.000000e+01
      vertex   3.197976e+01 1.001295e+01 1.000000e+01
    endloop
  endfacet
  facet normal -0.000000e+00 0.000000e+00 1.000000e+00
    outer loop
      vertex   3.197976e+01 1.001295e+01 1.000000e+01
      vertex   5.000000e+01 0.000000e+00 1.000000e+01
      vertex   3.225450e+01 1.115732e+01 1.000000e+01
    endloop
  endfacet
  facet normal 0.000000e+00 0.000000e+00 -1.000000e+00
    outer loop
      vertex   5.000000e+01 0.000000e+00 0.000000e+00
      vertex   0.000000e+00 0.000000e+00 0.000000e+00
      vertex   5.000000e+01 2.500000e+01 0.000000e+00
    endloop
  endfacet
  facet normal -0.000000e+00 0.000000e+00 -1.000000e+00
    outer loop
      vertex   5.000000e+01 2.500000e+01 0.000000e+00
      vertex   0.000000e+00 0.000000e+00 0.000000e+00
      vertex   0.000000e+00 2.500000e+01 0.000000e+00
    endloop
  endfacet
endsolid
