solid ASCII
  facet normal 1.000000e+00 -0.000000e+00 0.000000e+00
    outer loop
      vertex   -1.407290e+00 -1.270000e+01 1.401426e+01
      vertex   -1.407290e+00 -1.270000e+01 1.225515e+01
      vertex   -1.407290e+00 1.270000e+01 1.401426e+01
    endloop
  endfacet
  facet normal 1.000000e+00 0.000000e+00 0.000000e+00
    outer loop
      vertex   -1.407290e+00 1.270000e+01 1.401426e+01
      vertex   -1.407290e+00 -1.270000e+01 1.225515e+01
      vertex   -1.407290e+00 1.270000e+01 1.225515e+01
    endloop
  endfacet
  facet normal 0.000000e+00 0.000000e+00 -1.000000e+00
    outer loop
      vertex   4.104596e-01 -1.270000e+01 1.401426e+01
      vertex   -1.407290e+00 -1.270000e+01 1.401426e+01
      vertex   4.104596e-01 1.270000e+01 1.401426e+01
    endloop
  endfacet
  facet normal -0.000000e+00 0.000000e+00 -1.000000e+00
    outer loop
      vertex   4.104596e-01 1.270000e+01 1.401426e+01
      vertex   -1.407290e+00 -1.270000e+01 1.401426e+01
      vertex   -1.407290e+00 1.270000e+01 1.401426e+01
    endloop
  endfacet
  facet normal -1.000000e+00 0.000000e+00 0.000000e+00
    outer loop
      vertex   4.104596e-01 -1.270000e+01 1.225515e+01
      vertex   4.104596e-01 -1.270000e+01 1.401426e+01
      vertex   4.104596e-01 1.270000e+01 1.225515e+01
    endloop
  endfacet
  facet normal -1.000000e+00 0.000000e+00 0.000000e+00
    outer loop
      vertex   4.104596e-01 1.270000e+01 1.225515e+01
      vertex   4.104596e-01 -1.270000e+01 1.401426e+01
      vertex   4.104596e-01 1.270000e+01 1.401426e+01
    endloop
  endfacet
  facet normal 0.000000e+00 0.000000e+00 1.000000e+00
    outer loop
      vertex   -1.407290e+00 -1.270000e+01 1.225515e+01
      vertex   4.104596e-01 -1.270000e+01 1.225515e+01
      vertex   -1.407290e+00 1.270000e+01 1.225515e+01
    endloop
  endfacet
  facet normal -0.000000e+00 0.000000e+00 1.000000e+00
    outer loop
      vertex   -1.407290e+00 1.270000e+01 1.225515e+01
      vertex   4.104596e-01 -1.270000e+01 1.225515e+01
      vertex   4.104596e-01 1.270000e+01 1.225515e+01
    endloop
  endfacet
  facet normal 0.000000e+00 -1.000000e+00 0.000000e+00
    outer loop
      vertex   6.192095e+00 -1.407290e+00 1.424881e+01
      vertex   6.192095e+00 -1.407290e+00 1.137560e+01
      vertex   1.270000e+01 -1.407290e+00 1.424881e+01
    endloop
  endfacet
  facet normal 0.000000e+00 -1.000000e+00 -0.000000e+00
    outer loop
      vertex   1.270000e+01 -1.407290e+00 1.424881e+01
      vertex   6.192095e+00 -1.407290e+00 1.137560e+01
      vertex   1.270000e+01 -1.407290e+00 1.137560e+01
    endloop
  endfacet
  facet normal 0.000000e+00 0.000000e+00 -1.000000e+00
    outer loop
      vertex   6.192095e+00 -1.407290e+00 1.137560e+01
      vertex   6.330868e+00 -4.925518e-01 1.137560e+01
      vertex   1.270000e+01 -1.407290e+00 1.137560e+01
    endloop
  endfacet
  facet normal 0.000000e+00 0.000000e+00 -1.000000e+00
    outer loop
      vertex   1.270000e+01 -1.407290e+00 1.137560e+01
      vertex   6.330868e+00 -4.925518e-01 1.137560e+01
      vertex   6.335244e+00 4.326429e-01 1.137560e+01
    endloop
  endfacet
  facet normal 0.000000e+00 0.000000e+00 -1.000000e+00
    outer loop
      vertex   1.270000e+01 -1.407290e+00 1.137560e+01
      vertex   6.335244e+00 4.326429e-01 1.137560e+01
      vertex   1.270000e+01 1.348653e+00 1.137560e+01
    endloop
  endfacet
  facet normal -0.000000e+00 0.000000e+00 -1.000000e+00
    outer loop
      vertex   1.270000e+01 1.348653e+00 1.137560e+01
      vertex   6.335244e+00 4.326429e-01 1.137560e+01
      vertex   6.205130e+00 1.348653e+00 1.137560e+01
    endloop
  endfacet
  facet normal -0.000000e+00 0.000000e+00 1.000000e+00
    outer loop
      vertex   6.205130e+00 1.348653e+00 1.424881e+01
      vertex   6.335244e+00 4.326429e-01 1.424881e+01
      vertex   1.270000e+01 1.348653e+00 1.424881e+01
    endloop
  endfacet
  facet normal 0.000000e+00 0.000000e+00 1.000000e+00
    outer loop
      vertex   1.270000e+01 1.348653e+00 1.424881e+01
      vertex   6.335244e+00 4.326429e-01 1.424881e+01
      vertex   1.270000e+01 -1.407290e+00 1.424881e+01
    endloop
  endfacet
  facet normal 0.000000e+00 0.000000e+00 1.000000e+00
    outer loop
      vertex   1.270000e+01 -1.407290e+00 1.424881e+01
      vertex   6.335244e+00 4.326429e-01 1.424881e+01
      vertex   6.330868e+00 -4.925518e-01 1.424881e+01
    endloop
  endfacet
  facet normal 0.000000e+00 0.000000e+00 1.000000e+00
    outer loop
      vertex   1.270000e+01 -1.407290e+00 1.424881e+01
      vertex   6.330868e+00 -4.925518e-01 1.424881e+01
      vertex   6.192095e+00 -1.407290e+00 1.424881e+01
    endloop
  endfacet
  facet normal 0.000000e+00 0.000000e+00 1.000000e+00
    outer loop
      vertex   -6.192095e+00 -1.407290e+00 1.424881e+01
      vertex   -6.330868e+00 -4.925518e-01 1.424881e+01
      vertex   -1.270000e+01 -1.407290e+00 1.424881e+01
    endloop
  endfacet
  facet normal 0.000000e+00 0.000000e+00 1.000000e+00
    outer loop
      vertex   -1.270000e+01 -1.407290e+00 1.424881e+01
      vertex   -6.330868e+00 -4.925518e-01 1.424881e+01
      vertex   -6.335244e+00 4.326429e-01 1.424881e+01
    endloop
  endfacet
  facet normal 0.000000e+00 0.000000e+00 1.000000e+00
    outer loop
      vertex   -1.270000e+01 -1.407290e+00 1.424881e+01
      vertex   -6.335244e+00 4.326429e-01 1.424881e+01
      vertex   -1.270000e+01 1.348653e+00 1.424881e+01
    endloop
  endfacet
  facet normal -0.000000e+00 0.000000e+00 1.000000e+00
    outer loop
      vertex   -1.270000e+01 1.348653e+00 1.424881e+01
      vertex   -6.335244e+00 4.326429e-01 1.424881e+01
      vertex   -6.205130e+00 1.348653e+00 1.424881e+01
    endloop
  endfacet
  facet normal 0.000000e+00 1.000000e+00 0.000000e+00
    outer loop
      vertex   6.205130e+00 1.348653e+00 1.137560e+01
      vertex   6.205130e+00 1.348653e+00 1.424881e+01
      vertex   1.270000e+01 1.348653e+00 1.137560e+01
    endloop
  endfacet
  facet normal 0.000000e+00 1.000000e+00 -0.000000e+00
    outer loop
      vertex   1.270000e+01 1.348653e+00 1.137560e+01
      vertex   6.205130e+00 1.348653e+00 1.424881e+01
      vertex   1.270000e+01 1.348653e+00 1.424881e+01
    endloop
  endfacet
  facet normal 0.000000e+00 1.000000e+00 0.000000e+00
    outer loop
      vertex   -6.205130e+00 1.348653e+00 1.424881e+01
      vertex   -6.205130e+00 1.348653e+00 1.137560e+01
      vertex   -1.270000e+01 1.348653e+00 1.424881e+01
    endloop
  endfacet
  facet normal 0.000000e+00 1.000000e+00 0.000000e+00
    outer loop
      vertex   -1.270000e+01 1.348653e+00 1.424881e+01
      vertex   -6.205130e+00 1.348653e+00 1.137560e+01
      vertex   -1.270000e+01 1.348653e+00 1.137560e+01
    endloop
  endfacet
  facet normal -1.000000e+00 -0.000000e+00 -0.000000e+00
    outer loop
      vertex   -1.270000e+01 1.348653e+00 1.424881e+01
      vertex   -1.270000e+01 1.348653e+00 1.137560e+01
      vertex   -1.270000e+01 -1.407290e+00 1.424881e+01
    endloop
  endfacet
  facet normal -1.000000e+00 0.000000e+00 0.000000e+00
    outer loop
      vertex   -1.270000e+01 -1.407290e+00 1.424881e+01
      vertex   -1.270000e+01 1.348653e+00 1.137560e+01
      vertex   -1.270000e+01 -1.407290e+00 1.137560e+01
    endloop
  endfacet
  facet normal -0.000000e+00 0.000000e+00 -1.000000e+00
    outer loop
      vertex   -6.205130e+00 1.348653e+00 1.137560e+01
      vertex   -6.335244e+00 4.326429e-01 1.137560e+01
      vertex   -1.270000e+01 1.348653e+00 1.137560e+01
    endloop
  endfacet
  facet normal 0.000000e+00 0.000000e+00 -1.000000e+00
    outer loop
      vertex   -1.270000e+01 1.348653e+00 1.137560e+01
      vertex   -6.335244e+00 4.326429e-01 1.137560e+01
      vertex   -1.270000e+01 -1.407290e+00 1.137560e+01
    endloop
  endfacet
  facet normal 0.000000e+00 0.000000e+00 -1.000000e+00
    outer loop
      vertex   -1.270000e+01 -1.407290e+00 1.137560e+01
      vertex   -6.335244e+00 4.326429e-01 1.137560e+01
      vertex   -6.330868e+00 -4.925518e-01 1.137560e+01
    endloop
  endfacet
  facet normal 0.000000e+00 0.000000e+00 -1.000000e+00
    outer loop
      vertex   -1.270000e+01 -1.407290e+00 1.137560e+01
      vertex   -6.330868e+00 -4.925518e-01 1.137560e+01
      vertex   -6.192095e+00 -1.407290e+00 1.137560e+01
    endloop
  endfacet
  facet normal 0.000000e+00 -1.000000e+00 0.000000e+00
    outer loop
      vertex   -6.192095e+00 -1.407290e+00 1.137560e+01
      vertex   -6.192095e+00 -1.407290e+00 1.424881e+01
      vertex   -1.270000e+01 -1.407290e+00 1.137560e+01
    endloop
  endfacet
  facet normal 0.000000e+00 -1.000000e+00 0.000000e+00
    outer loop
      vertex   -1.270000e+01 -1.407290e+00 1.137560e+01
      vertex   -6.192095e+00 -1.407290e+00 1.424881e+01
      vertex   -1.270000e+01 -1.407290e+00 1.424881e+01
    endloop
  endfacet
  facet normal 1.000000e+00 -0.000000e+00 0.000000e+00
    outer loop
      vertex   1.270000e+01 -1.407290e+00 1.424881e+01
      vertex   1.270000e+01 -1.407290e+00 1.137560e+01
      vertex   1.270000e+01 1.348653e+00 1.424881e+01
    endloop
  endfacet
  facet normal 1.000000e+00 0.000000e+00 0.000000e+00
    outer loop
      vertex   1.270000e+01 1.348653e+00 1.424881e+01
      vertex   1.270000e+01 -1.407290e+00 1.137560e+01
      vertex   1.270000e+01 1.348653e+00 1.137560e+01
    endloop
  endfacet
  facet normal -1.000000e+00 0.000000e+00 0.000000e+00
    outer loop
      vertex   -2.074271e+00 6.001658e+00 1.164268e+01
      vertex   -2.074271e+00 6.001658e+00 1.458681e+01
      vertex   -2.074271e+00 1.270000e+01 1.164268e+01
    endloop
  endfacet
  facet normal -1.000000e+00 0.000000e+00 0.000000e+00
    outer loop
      vertex   -2.074271e+00 1.270000e+01 1.164268e+01
      vertex   -2.074271e+00 6.001658e+00 1.458681e+01
      vertex   -2.074271e+00 1.270000e+01 1.458681e+01
    endloop
  endfacet
  facet normal -4.797917e-15 -5.303870e-16 1.000000e+00
    outer loop
      vertex   -2.074271e+00 6.001658e+00 1.458681e+01
      vertex   -1.356114e+00 6.203503e+00 1.458681e+01
      vertex   -2.074271e+00 1.270000e+01 1.458681e+01
    endloop
  endfacet
  facet normal 0.000000e+00 0.000000e+00 1.000000e+00
    outer loop
      vertex   -2.074271e+00 1.270000e+01 1.458681e+01
      vertex   -1.356114e+00 6.203503e+00 1.458681e+01
      vertex   -6.192410e-01 6.319734e+00 1.458681e+01
    endloop
  endfacet
  facet normal -0.000000e+00 0.000000e+00 1.000000e+00
    outer loop
      vertex   -2.074271e+00 1.270000e+01 1.458681e+01
      vertex   -6.192410e-01 6.319734e+00 1.458681e+01
      vertex   8.698555e-01 1.270000e+01 1.458681e+01
    endloop
  endfacet
  facet normal 0.000000e+00 0.000000e+00 1.000000e+00
    outer loop
      vertex   8.698555e-01 1.270000e+01 1.458681e+01
      vertex   -6.192410e-01 6.319734e+00 1.458681e+01
      vertex   1.261779e-01 6.348746e+00 1.458681e+01
    endloop
  endfacet
  facet normal 4.733544e-15 -5.542575e-16 1.000000e+00
    outer loop
      vertex   8.698555e-01 1.270000e+01 1.458681e+01
      vertex   1.261779e-01 6.348746e+00 1.458681e+01
      vertex   8.698555e-01 6.290139e+00 1.458681e+01
    endloop
  endfacet
  facet normal 0.000000e+00 0.000000e+00 -1.000000e+00
    outer loop
      vertex   8.698555e-01 6.290139e+00 1.164268e+01
      vertex   1.261779e-01 6.348746e+00 1.164268e+01
      vertex   8.698555e-01 1.270000e+01 1.164268e+01
    endloop
  endfacet
  facet normal 0.000000e+00 0.000000e+00 -1.000000e+00
    outer loop
      vertex   8.698555e-01 1.270000e+01 1.164268e+01
      vertex   1.261779e-01 6.348746e+00 1.164268e+01
      vertex   -6.192410e-01 6.319734e+00 1.164268e+01
    endloop
  endfacet
  facet normal -0.000000e+00 0.000000e+00 -1.000000e+00
    outer loop
      vertex   8.698555e-01 1.270000e+01 1.164268e+01
      vertex   -6.192410e-01 6.319734e+00 1.164268e+01
      vertex   -2.074271e+00 1.270000e+01 1.164268e+01
    endloop
  endfacet
  facet normal 0.000000e+00 0.000000e+00 -1.000000e+00
    outer loop
      vertex   -2.074271e+00 1.270000e+01 1.164268e+01
      vertex   -6.192410e-01 6.319734e+00 1.164268e+01
      vertex   -1.356114e+00 6.203503e+00 1.164268e+01
    endloop
  endfacet
  facet normal 0.000000e+00 0.000000e+00 -1.000000e+00
    outer loop
      vertex   -2.074271e+00 1.270000e+01 1.164268e+01
      vertex   -1.356114e+00 6.203503e+00 1.164268e+01
      vertex   -2.074271e+00 6.001658e+00 1.164268e+01
    endloop
  endfacet
  facet normal 0.000000e+00 0.000000e+00 -1.000000e+00
    outer loop
      vertex   -2.074271e+00 -6.001658e+00 1.164268e+01
      vertex   -1.356114e+00 -6.203503e+00 1.164268e+01
      vertex   -2.074271e+00 -1.270000e+01 1.164268e+01
    endloop
  endfacet
  facet normal 0.000000e+00 0.000000e+00 -1.000000e+00
    outer loop
      vertex   -2.074271e+00 -1.270000e+01 1.164268e+01
      vertex   -1.356114e+00 -6.203503e+00 1.164268e+01
      vertex   -6.192410e-01 -6.319734e+00 1.164268e+01
    endloop
  endfacet
  facet normal 0.000000e+00 0.000000e+00 -1.000000e+00
    outer loop
      vertex   -2.074271e+00 -1.270000e+01 1.164268e+01
      vertex   -6.192410e-01 -6.319734e+00 1.164268e+01
      vertex   8.698555e-01 -1.270000e+01 1.164268e+01
    endloop
  endfacet
  facet normal 0.000000e+00 0.000000e+00 -1.000000e+00
    outer loop
      vertex   8.698555e-01 -1.270000e+01 1.164268e+01
      vertex   -6.192410e-01 -6.319734e+00 1.164268e+01
      vertex   1.261779e-01 -6.348746e+00 1.164268e+01
    endloop
  endfacet
  facet normal 0.000000e+00 0.000000e+00 -1.000000e+00
    outer loop
      vertex   8.698555e-01 -1.270000e+01 1.164268e+01
      vertex   1.261779e-01 -6.348746e+00 1.164268e+01
      vertex   8.698555e-01 -6.290139e+00 1.164268e+01
    endloop
  endfacet
  facet normal 1.000000e+00 -1.732055e-17 0.000000e+00
    outer loop
      vertex   8.698555e-01 6.290139e+00 1.458681e+01
      vertex   8.698555e-01 6.290139e+00 1.164268e+01
      vertex   8.698555e-01 1.270000e+01 1.458681e+01
    endloop
  endfacet
  facet normal 1.000000e+00 -1.732055e-17 0.000000e+00
    outer loop
      vertex   8.698555e-01 1.270000e+01 1.458681e+01
      vertex   8.698555e-01 6.290139e+00 1.164268e+01
      vertex   8.698555e-01 1.270000e+01 1.164268e+01
    endloop
  endfacet
  facet normal 1.000000e+00 1.732055e-17 -0.000000e+00
    outer loop
      vertex   8.698555e-01 -6.290139e+00 1.164268e+01
      vertex   8.698555e-01 -6.290139e+00 1.458681e+01
      vertex   8.698555e-01 -1.270000e+01 1.164268e+01
    endloop
  endfacet
  facet normal 1.000000e+00 1.732055e-17 -0.000000e+00
    outer loop
      vertex   8.698555e-01 -1.270000e+01 1.164268e+01
      vertex   8.698555e-01 -6.290139e+00 1.458681e+01
      vertex   8.698555e-01 -1.270000e+01 1.458681e+01
    endloop
  endfacet
  facet normal 0.000000e+00 -1.000000e+00 0.000000e+00
    outer loop
      vertex   -1.407290e+00 -1.270000e+01 1.401426e+01
      vertex   4.104596e-01 -1.270000e+01 1.401426e+01
      vertex   8.698555e-01 -1.270000e+01 1.458681e+01
    endloop
  endfacet
  facet normal 0.000000e+00 -1.000000e+00 0.000000e+00
    outer loop
      vertex   8.698555e-01 -1.270000e+01 1.458681e+01
      vertex   4.104596e-01 -1.270000e+01 1.401426e+01
      vertex   4.104596e-01 -1.270000e+01 1.225515e+01
    endloop
  endfacet
  facet normal 0.000000e+00 -1.000000e+00 -0.000000e+00
    outer loop
      vertex   8.698555e-01 -1.270000e+01 1.458681e+01
      vertex   4.104596e-01 -1.270000e+01 1.225515e+01
      vertex   8.698555e-01 -1.270000e+01 1.164268e+01
    endloop
  endfacet
  facet normal 0.000000e+00 -1.000000e+00 0.000000e+00
    outer loop
      vertex   8.698555e-01 -1.270000e+01 1.164268e+01
      vertex   4.104596e-01 -1.270000e+01 1.225515e+01
      vertex   -1.407290e+00 -1.270000e+01 1.225515e+01
    endloop
  endfacet
  facet normal 0.000000e+00 -1.000000e+00 0.000000e+00
    outer loop
      vertex   8.698555e-01 -1.270000e+01 1.164268e+01
      vertex   -1.407290e+00 -1.270000e+01 1.225515e+01
      vertex   -2.074271e+00 -1.270000e+01 1.164268e+01
    endloop
  endfacet
  facet normal 0.000000e+00 -1.000000e+00 0.000000e+00
    outer loop
      vertex   -2.074271e+00 -1.270000e+01 1.164268e+01
      vertex   -1.407290e+00 -1.270000e+01 1.225515e+01
      vertex   -2.074271e+00 -1.270000e+01 1.458681e+01
    endloop
  endfacet
  facet normal 0.000000e+00 -1.000000e+00 0.000000e+00
    outer loop
      vertex   -2.074271e+00 -1.270000e+01 1.458681e+01
      vertex   -1.407290e+00 -1.270000e+01 1.225515e+01
      vertex   -1.407290e+00 -1.270000e+01 1.401426e+01
    endloop
  endfacet
  facet normal 0.000000e+00 -1.000000e+00 0.000000e+00
    outer loop
      vertex   -2.074271e+00 -1.270000e+01 1.458681e+01
      vertex   -1.407290e+00 -1.270000e+01 1.401426e+01
      vertex   8.698555e-01 -1.270000e+01 1.458681e+01
    endloop
  endfacet
  facet normal 4.733544e-15 5.542575e-16 1.000000e+00
    outer loop
      vertex   8.698555e-01 -6.290139e+00 1.458681e+01
      vertex   1.261779e-01 -6.348746e+00 1.458681e+01
      vertex   8.698555e-01 -1.270000e+01 1.458681e+01
    endloop
  endfacet
  facet normal 0.000000e+00 0.000000e+00 1.000000e+00
    outer loop
      vertex   8.698555e-01 -1.270000e+01 1.458681e+01
      vertex   1.261779e-01 -6.348746e+00 1.458681e+01
      vertex   -6.192410e-01 -6.319734e+00 1.458681e+01
    endloop
  endfacet
  facet normal 0.000000e+00 0.000000e+00 1.000000e+00
    outer loop
      vertex   8.698555e-01 -1.270000e+01 1.458681e+01
      vertex   -6.192410e-01 -6.319734e+00 1.458681e+01
      vertex   -2.074271e+00 -1.270000e+01 1.458681e+01
    endloop
  endfacet
  facet normal 0.000000e+00 0.000000e+00 1.000000e+00
    outer loop
      vertex   -2.074271e+00 -1.270000e+01 1.458681e+01
      vertex   -6.192410e-01 -6.319734e+00 1.458681e+01
      vertex   -1.356114e+00 -6.203503e+00 1.458681e+01
    endloop
  endfacet
  facet normal -4.797917e-15 5.303870e-16 1.000000e+00
    outer loop
      vertex   -2.074271e+00 -1.270000e+01 1.458681e+01
      vertex   -1.356114e+00 -6.203503e+00 1.458681e+01
      vertex   -2.074271e+00 -6.001658e+00 1.458681e+01
    endloop
  endfacet
  facet normal -1.000000e+00 -0.000000e+00 -0.000000e+00
    outer loop
      vertex   -2.074271e+00 -6.001658e+00 1.458681e+01
      vertex   -2.074271e+00 -6.001658e+00 1.164268e+01
      vertex   -2.074271e+00 -1.270000e+01 1.458681e+01
    endloop
  endfacet
  facet normal -1.000000e+00 0.000000e+00 0.000000e+00
    outer loop
      vertex   -2.074271e+00 -1.270000e+01 1.458681e+01
      vertex   -2.074271e+00 -6.001658e+00 1.164268e+01
      vertex   -2.074271e+00 -1.270000e+01 1.164268e+01
    endloop
  endfacet
  facet normal -0.000000e+00 1.000000e+00 0.000000e+00
    outer loop
      vertex   4.104596e-01 1.270000e+01 1.401426e+01
      vertex   8.698555e-01 1.270000e+01 1.458681e+01
      vertex   4.104596e-01 1.270000e+01 1.225515e+01
    endloop
  endfacet
  facet normal -0.000000e+00 1.000000e+00 0.000000e+00
    outer loop
      vertex   4.104596e-01 1.270000e+01 1.225515e+01
      vertex   8.698555e-01 1.270000e+01 1.458681e+01
      vertex   8.698555e-01 1.270000e+01 1.164268e+01
    endloop
  endfacet
  facet normal 0.000000e+00 1.000000e+00 0.000000e+00
    outer loop
      vertex   4.104596e-01 1.270000e+01 1.225515e+01
      vertex   8.698555e-01 1.270000e+01 1.164268e+01
      vertex   -1.407290e+00 1.270000e+01 1.225515e+01
    endloop
  endfacet
  facet normal 0.000000e+00 1.000000e+00 0.000000e+00
    outer loop
      vertex   -1.407290e+00 1.270000e+01 1.225515e+01
      vertex   8.698555e-01 1.270000e+01 1.164268e+01
      vertex   -2.074271e+00 1.270000e+01 1.164268e+01
    endloop
  endfacet
  facet normal 0.000000e+00 1.000000e+00 0.000000e+00
    outer loop
      vertex   -1.407290e+00 1.270000e+01 1.225515e+01
      vertex   -2.074271e+00 1.270000e+01 1.164268e+01
      vertex   -2.074271e+00 1.270000e+01 1.458681e+01
    endloop
  endfacet
  facet normal 0.000000e+00 1.000000e+00 -0.000000e+00
    outer loop
      vertex   4.104596e-01 1.270000e+01 1.401426e+01
      vertex   -1.407290e+00 1.270000e+01 1.401426e+01
      vertex   8.698555e-01 1.270000e+01 1.458681e+01
    endloop
  endfacet
  facet normal 0.000000e+00 1.000000e+00 0.000000e+00
    outer loop
      vertex   8.698555e-01 1.270000e+01 1.458681e+01
      vertex   -1.407290e+00 1.270000e+01 1.401426e+01
      vertex   -2.074271e+00 1.270000e+01 1.458681e+01
    endloop
  endfacet
  facet normal 0.000000e+00 1.000000e+00 0.000000e+00
    outer loop
      vertex   -2.074271e+00 1.270000e+01 1.458681e+01
      vertex   -1.407290e+00 1.270000e+01 1.401426e+01
      vertex   -1.407290e+00 1.270000e+01 1.225515e+01
    endloop
  endfacet
  facet normal -9.766341e-01 2.149090e-01 0.000000e+00
    outer loop
      vertex   -6.205130e+00 1.348653e+00 1.424881e+01
      vertex   -6.198082e+00 1.380682e+00 1.270000e+01
      vertex   -6.205130e+00 1.348653e+00 1.137560e+01
    endloop
  endfacet
  facet normal -9.766341e-01 2.149090e-01 2.251734e-17
    outer loop
      vertex   -6.205130e+00 1.348653e+00 1.137560e+01
      vertex   -6.198082e+00 1.380682e+00 1.270000e+01
      vertex   -6.198082e+00 1.380682e+00 0.000000e+00
    endloop
  endfacet
  facet normal -9.893433e-01 1.456012e-01 -2.030138e-04
    outer loop
      vertex   -6.205130e+00 1.348653e+00 1.137560e+01
      vertex   -6.198082e+00 1.380682e+00 0.000000e+00
      vertex   -6.333060e+00 4.635202e-01 0.000000e+00
    endloop
  endfacet
  facet normal -9.900617e-01 1.406332e-01 -1.954775e-04
    outer loop
      vertex   -6.335244e+00 4.326429e-01 1.424881e+01
      vertex   -6.333060e+00 4.635202e-01 2.540000e+01
      vertex   -6.205130e+00 1.348653e+00 1.424881e+01
    endloop
  endfacet
  facet normal -9.893433e-01 1.456012e-01 2.070993e-04
    outer loop
      vertex   -6.205130e+00 1.348653e+00 1.424881e+01
      vertex   -6.333060e+00 4.635202e-01 2.540000e+01
      vertex   -6.198082e+00 1.380682e+00 2.540000e+01
    endloop
  endfacet
  facet normal -9.766341e-01 2.149090e-01 2.629192e-17
    outer loop
      vertex   -6.205130e+00 1.348653e+00 1.424881e+01
      vertex   -6.198082e+00 1.380682e+00 2.540000e+01
      vertex   -6.198082e+00 1.380682e+00 1.270000e+01
    endloop
  endfacet
  facet normal -9.576006e-01 2.880991e-01 3.525952e-17
    outer loop
      vertex   -6.198082e+00 1.380682e+00 1.270000e+01
      vertex   -6.198082e+00 1.380682e+00 2.540000e+01
      vertex   -5.931002e+00 2.268416e+00 1.270000e+01
    endloop
  endfacet
  facet normal -9.576006e-01 2.880991e-01 0.000000e+00
    outer loop
      vertex   -6.198082e+00 1.380682e+00 1.270000e+01
      vertex   -5.931002e+00 2.268416e+00 1.270000e+01
      vertex   -5.931002e+00 2.268416e+00 0.000000e+00
    endloop
  endfacet
  facet normal -9.054482e-01 4.244567e-01 0.000000e+00
    outer loop
      vertex   -5.931002e+00 2.268416e+00 0.000000e+00
      vertex   -5.931002e+00 2.268416e+00 1.270000e+01
      vertex   -5.537514e+00 3.107803e+00 0.000000e+00
    endloop
  endfacet
  facet normal -9.054482e-01 4.244567e-01 2.968451e-17
    outer loop
      vertex   -5.537514e+00 3.107803e+00 0.000000e+00
      vertex   -5.931002e+00 2.268416e+00 1.270000e+01
      vertex   -5.537514e+00 3.107803e+00 1.270000e+01
    endloop
  endfacet
  facet normal -8.339978e-01 5.517677e-01 3.858805e-17
    outer loop
      vertex   -5.537514e+00 3.107803e+00 0.000000e+00
      vertex   -5.537514e+00 3.107803e+00 1.270000e+01
      vertex   -5.026003e+00 3.880953e+00 0.000000e+00
    endloop
  endfacet
  facet normal -8.339978e-01 5.517677e-01 0.000000e+00
    outer loop
      vertex   -5.026003e+00 3.880953e+00 0.000000e+00
      vertex   -5.537514e+00 3.107803e+00 1.270000e+01
      vertex   -5.026003e+00 3.880953e+00 1.270000e+01
    endloop
  endfacet
  facet normal -7.447722e-01 6.673188e-01 0.000000e+00
    outer loop
      vertex   -5.026003e+00 3.880953e+00 0.000000e+00
      vertex   -5.026003e+00 3.880953e+00 1.270000e+01
      vertex   -4.407371e+00 4.571387e+00 0.000000e+00
    endloop
  endfacet
  facet normal -7.447722e-01 6.673188e-01 -1.041717e-16
    outer loop
      vertex   -4.407371e+00 4.571387e+00 0.000000e+00
      vertex   -5.026003e+00 3.880953e+00 1.270000e+01
      vertex   -4.407371e+00 4.571387e+00 1.270000e+01
    endloop
  endfacet
  facet normal -6.396730e-01 7.686471e-01 -8.947146e-17
    outer loop
      vertex   -4.407371e+00 4.571387e+00 0.000000e+00
      vertex   -4.407371e+00 4.571387e+00 1.270000e+01
      vertex   -3.694804e+00 5.164390e+00 0.000000e+00
    endloop
  endfacet
  facet normal -6.396730e-01 7.686471e-01 -8.947146e-17
    outer loop
      vertex   -3.694804e+00 5.164390e+00 0.000000e+00
      vertex   -4.407371e+00 4.571387e+00 1.270000e+01
      vertex   -3.694804e+00 5.164390e+00 1.270000e+01
    endloop
  endfacet
  facet normal -5.209403e-01 8.535931e-01 -7.286425e-17
    outer loop
      vertex   -3.694804e+00 5.164390e+00 0.000000e+00
      vertex   -3.694804e+00 5.164390e+00 1.270000e+01
      vertex   -2.903489e+00 5.647323e+00 0.000000e+00
    endloop
  endfacet
  facet normal -5.209403e-01 8.535931e-01 0.000000e+00
    outer loop
      vertex   -2.903489e+00 5.647323e+00 0.000000e+00
      vertex   -3.694804e+00 5.164390e+00 1.270000e+01
      vertex   -2.903489e+00 5.647323e+00 1.270000e+01
    endloop
  endfacet
  facet normal -3.929413e-01 9.195635e-01 0.000000e+00
    outer loop
      vertex   -2.903489e+00 5.647323e+00 0.000000e+00
      vertex   -2.903489e+00 5.647323e+00 1.270000e+01
      vertex   -2.074271e+00 6.001658e+00 1.164268e+01
    endloop
  endfacet
  facet normal -3.929413e-01 9.195635e-01 0.000000e+00
    outer loop
      vertex   -2.074271e+00 6.001658e+00 1.164268e+01
      vertex   -2.903489e+00 5.647323e+00 1.270000e+01
      vertex   -2.074271e+00 6.001658e+00 1.458681e+01
    endloop
  endfacet
  facet normal -3.929413e-01 9.195635e-01 0.000000e+00
    outer loop
      vertex   -2.074271e+00 6.001658e+00 1.458681e+01
      vertex   -2.903489e+00 5.647323e+00 1.270000e+01
      vertex   -2.903489e+00 5.647323e+00 2.540000e+01
    endloop
  endfacet
  facet normal -3.911047e-01 9.203462e-01 1.664890e-04
    outer loop
      vertex   -2.074271e+00 6.001658e+00 1.458681e+01
      vertex   -2.903489e+00 5.647323e+00 2.540000e+01
      vertex   -2.050291e+00 6.009893e+00 2.540000e+01
    endloop
  endfacet
  facet normal -1.000000e+00 0.000000e+00 1.958788e-04
    outer loop
      vertex   -6.333060e+00 4.635202e-01 2.540000e+01
      vertex   -6.335244e+00 4.326429e-01 1.424881e+01
      vertex   -6.333060e+00 -4.635202e-01 2.540000e+01
    endloop
  endfacet
  facet normal -9.999888e-01 -4.729803e-03 -1.842332e-04
    outer loop
      vertex   -6.333060e+00 -4.635202e-01 2.540000e+01
      vertex   -6.335244e+00 4.326429e-01 1.424881e+01
      vertex   -6.330868e+00 -4.925518e-01 1.424881e+01
    endloop
  endfacet
  facet normal -9.893434e-01 -1.456012e-01 1.846106e-04
    outer loop
      vertex   -6.333060e+00 -4.635202e-01 2.540000e+01
      vertex   -6.330868e+00 -4.925518e-01 1.424881e+01
      vertex   -6.198082e+00 -1.380682e+00 2.540000e+01
    endloop
  endfacet
  facet normal -9.886871e-01 -1.499924e-01 -1.729411e-04
    outer loop
      vertex   -6.198082e+00 -1.380682e+00 2.540000e+01
      vertex   -6.330868e+00 -4.925518e-01 1.424881e+01
      vertex   -6.192095e+00 -1.407290e+00 1.424881e+01
    endloop
  endfacet
  facet normal -9.576006e-01 -2.880991e-01 1.732947e-04
    outer loop
      vertex   -6.198082e+00 -1.380682e+00 2.540000e+01
      vertex   -6.192095e+00 -1.407290e+00 1.424881e+01
      vertex   -5.931002e+00 -2.268416e+00 2.540000e+01
    endloop
  endfacet
  facet normal -9.569797e-01 -2.901549e-01 -0.000000e+00
    outer loop
      vertex   -5.931002e+00 -2.268416e+00 2.540000e+01
      vertex   -6.192095e+00 -1.407290e+00 1.424881e+01
      vertex   -5.931002e+00 -2.268416e+00 1.270000e+01
    endloop
  endfacet
  facet normal -9.054482e-01 -4.244567e-01 -0.000000e+00
    outer loop
      vertex   -5.931002e+00 -2.268416e+00 2.540000e+01
      vertex   -5.931002e+00 -2.268416e+00 1.270000e+01
      vertex   -5.537514e+00 -3.107803e+00 2.540000e+01
    endloop
  endfacet
  facet normal -9.054482e-01 -4.244567e-01 -2.968451e-17
    outer loop
      vertex   -5.537514e+00 -3.107803e+00 2.540000e+01
      vertex   -5.931002e+00 -2.268416e+00 1.270000e+01
      vertex   -5.537514e+00 -3.107803e+00 1.270000e+01
    endloop
  endfacet
  facet normal -8.339978e-01 -5.517677e-01 -3.858805e-17
    outer loop
      vertex   -5.537514e+00 -3.107803e+00 2.540000e+01
      vertex   -5.537514e+00 -3.107803e+00 1.270000e+01
      vertex   -5.026003e+00 -3.880953e+00 2.540000e+01
    endloop
  endfacet
  facet normal -8.339978e-01 -5.517677e-01 -0.000000e+00
    outer loop
      vertex   -5.026003e+00 -3.880953e+00 2.540000e+01
      vertex   -5.537514e+00 -3.107803e+00 1.270000e+01
      vertex   -5.026003e+00 -3.880953e+00 1.270000e+01
    endloop
  endfacet
  facet normal -7.447722e-01 -6.673188e-01 -0.000000e+00
    outer loop
      vertex   -5.026003e+00 -3.880953e+00 2.540000e+01
      vertex   -5.026003e+00 -3.880953e+00 1.270000e+01
      vertex   -4.407371e+00 -4.571387e+00 2.540000e+01
    endloop
  endfacet
  facet normal -7.447722e-01 -6.673188e-01 1.041717e-16
    outer loop
      vertex   -4.407371e+00 -4.571387e+00 2.540000e+01
      vertex   -5.026003e+00 -3.880953e+00 1.270000e+01
      vertex   -4.407371e+00 -4.571387e+00 1.270000e+01
    endloop
  endfacet
  facet normal -6.396730e-01 -7.686471e-01 8.947146e-17
    outer loop
      vertex   -4.407371e+00 -4.571387e+00 2.540000e+01
      vertex   -4.407371e+00 -4.571387e+00 1.270000e+01
      vertex   -3.694804e+00 -5.164390e+00 2.540000e+01
    endloop
  endfacet
  facet normal -6.396730e-01 -7.686471e-01 8.947146e-17
    outer loop
      vertex   -3.694804e+00 -5.164390e+00 2.540000e+01
      vertex   -4.407371e+00 -4.571387e+00 1.270000e+01
      vertex   -3.694804e+00 -5.164390e+00 1.270000e+01
    endloop
  endfacet
  facet normal -5.209403e-01 -8.535931e-01 7.286425e-17
    outer loop
      vertex   -3.694804e+00 -5.164390e+00 2.540000e+01
      vertex   -3.694804e+00 -5.164390e+00 1.270000e+01
      vertex   -2.903489e+00 -5.647323e+00 2.540000e+01
    endloop
  endfacet
  facet normal -5.209403e-01 -8.535931e-01 -0.000000e+00
    outer loop
      vertex   -2.903489e+00 -5.647323e+00 2.540000e+01
      vertex   -3.694804e+00 -5.164390e+00 1.270000e+01
      vertex   -2.903489e+00 -5.647323e+00 1.270000e+01
    endloop
  endfacet
  facet normal -3.929413e-01 -9.195635e-01 -0.000000e+00
    outer loop
      vertex   -2.903489e+00 -5.647323e+00 2.540000e+01
      vertex   -2.903489e+00 -5.647323e+00 1.270000e+01
      vertex   -2.074271e+00 -6.001658e+00 1.458681e+01
    endloop
  endfacet
  facet normal -3.929413e-01 -9.195635e-01 -0.000000e+00
    outer loop
      vertex   -2.074271e+00 -6.001658e+00 1.458681e+01
      vertex   -2.903489e+00 -5.647323e+00 1.270000e+01
      vertex   -2.074271e+00 -6.001658e+00 1.164268e+01
    endloop
  endfacet
  facet normal -3.929413e-01 -9.195635e-01 0.000000e+00
    outer loop
      vertex   -2.074271e+00 -6.001658e+00 1.164268e+01
      vertex   -2.903489e+00 -5.647323e+00 1.270000e+01
      vertex   -2.903489e+00 -5.647323e+00 0.000000e+00
    endloop
  endfacet
  facet normal -3.911047e-01 -9.203462e-01 -1.546275e-04
    outer loop
      vertex   -2.074271e+00 -6.001658e+00 1.164268e+01
      vertex   -2.903489e+00 -5.647323e+00 0.000000e+00
      vertex   -2.050291e+00 -6.009893e+00 0.000000e+00
    endloop
  endfacet
  facet normal -9.569797e-01 -2.901549e-01 -0.000000e+00
    outer loop
      vertex   -6.192095e+00 -1.407290e+00 1.424881e+01
      vertex   -6.192095e+00 -1.407290e+00 1.137560e+01
      vertex   -5.931002e+00 -2.268416e+00 1.270000e+01
    endloop
  endfacet
  facet normal -9.569797e-01 -2.901549e-01 -0.000000e+00
    outer loop
      vertex   -5.931002e+00 -2.268416e+00 1.270000e+01
      vertex   -6.192095e+00 -1.407290e+00 1.137560e+01
      vertex   -5.931002e+00 -2.268416e+00 0.000000e+00
    endloop
  endfacet
  facet normal -9.054482e-01 -4.244567e-01 -0.000000e+00
    outer loop
      vertex   -5.931002e+00 -2.268416e+00 1.270000e+01
      vertex   -5.931002e+00 -2.268416e+00 0.000000e+00
      vertex   -5.537514e+00 -3.107803e+00 1.270000e+01
    endloop
  endfacet
  facet normal -9.054482e-01 -4.244567e-01 1.879604e-17
    outer loop
      vertex   -5.537514e+00 -3.107803e+00 1.270000e+01
      vertex   -5.931002e+00 -2.268416e+00 0.000000e+00
      vertex   -5.537514e+00 -3.107803e+00 0.000000e+00
    endloop
  endfacet
  facet normal -8.339978e-01 -5.517677e-01 4.438239e-19
    outer loop
      vertex   -5.537514e+00 -3.107803e+00 1.270000e+01
      vertex   -5.537514e+00 -3.107803e+00 0.000000e+00
      vertex   -5.026003e+00 -3.880953e+00 1.270000e+01
    endloop
  endfacet
  facet normal -8.339978e-01 -5.517677e-01 -0.000000e+00
    outer loop
      vertex   -5.026003e+00 -3.880953e+00 1.270000e+01
      vertex   -5.537514e+00 -3.107803e+00 0.000000e+00
      vertex   -5.026003e+00 -3.880953e+00 0.000000e+00
    endloop
  endfacet
  facet normal -7.447722e-01 -6.673188e-01 -0.000000e+00
    outer loop
      vertex   -5.026003e+00 -3.880953e+00 1.270000e+01
      vertex   -5.026003e+00 -3.880953e+00 0.000000e+00
      vertex   -4.407371e+00 -4.571387e+00 1.270000e+01
    endloop
  endfacet
  facet normal -7.447722e-01 -6.673188e-01 -9.333829e-17
    outer loop
      vertex   -4.407371e+00 -4.571387e+00 1.270000e+01
      vertex   -5.026003e+00 -3.880953e+00 0.000000e+00
      vertex   -4.407371e+00 -4.571387e+00 0.000000e+00
    endloop
  endfacet
  facet normal -6.396730e-01 -7.686471e-01 -1.075111e-16
    outer loop
      vertex   -4.407371e+00 -4.571387e+00 1.270000e+01
      vertex   -4.407371e+00 -4.571387e+00 0.000000e+00
      vertex   -3.694804e+00 -5.164390e+00 1.270000e+01
    endloop
  endfacet
  facet normal -6.396730e-01 -7.686471e-01 -3.138771e-17
    outer loop
      vertex   -3.694804e+00 -5.164390e+00 1.270000e+01
      vertex   -4.407371e+00 -4.571387e+00 0.000000e+00
      vertex   -3.694804e+00 -5.164390e+00 0.000000e+00
    endloop
  endfacet
  facet normal -5.209403e-01 -8.535931e-01 -4.148023e-17
    outer loop
      vertex   -3.694804e+00 -5.164390e+00 1.270000e+01
      vertex   -3.694804e+00 -5.164390e+00 0.000000e+00
      vertex   -2.903489e+00 -5.647323e+00 1.270000e+01
    endloop
  endfacet
  facet normal -5.209403e-01 -8.535931e-01 -0.000000e+00
    outer loop
      vertex   -2.903489e+00 -5.647323e+00 1.270000e+01
      vertex   -3.694804e+00 -5.164390e+00 0.000000e+00
      vertex   -2.903489e+00 -5.647323e+00 0.000000e+00
    endloop
  endfacet
  facet normal -9.576006e-01 -2.880991e-01 -1.698761e-04
    outer loop
      vertex   -5.931002e+00 -2.268416e+00 0.000000e+00
      vertex   -6.192095e+00 -1.407290e+00 1.137560e+01
      vertex   -6.198082e+00 -1.380682e+00 0.000000e+00
    endloop
  endfacet
  facet normal -9.886871e-01 -1.499924e-01 1.695295e-04
    outer loop
      vertex   -6.198082e+00 -1.380682e+00 0.000000e+00
      vertex   -6.192095e+00 -1.407290e+00 1.137560e+01
      vertex   -6.330868e+00 -4.925518e-01 1.137560e+01
    endloop
  endfacet
  facet normal -9.893434e-01 -1.456012e-01 -1.809687e-04
    outer loop
      vertex   -6.198082e+00 -1.380682e+00 0.000000e+00
      vertex   -6.330868e+00 -4.925518e-01 1.137560e+01
      vertex   -6.333060e+00 -4.635202e-01 0.000000e+00
    endloop
  endfacet
  facet normal -9.999888e-01 -4.729803e-03 1.805988e-04
    outer loop
      vertex   -6.333060e+00 -4.635202e-01 0.000000e+00
      vertex   -6.330868e+00 -4.925518e-01 1.137560e+01
      vertex   -6.335244e+00 4.326429e-01 1.137560e+01
    endloop
  endfacet
  facet normal -1.000000e+00 0.000000e+00 -1.920147e-04
    outer loop
      vertex   -6.333060e+00 -4.635202e-01 0.000000e+00
      vertex   -6.335244e+00 4.326429e-01 1.137560e+01
      vertex   -6.333060e+00 4.635202e-01 0.000000e+00
    endloop
  endfacet
  facet normal -9.900617e-01 1.406332e-01 1.916213e-04
    outer loop
      vertex   -6.333060e+00 4.635202e-01 0.000000e+00
      vertex   -6.335244e+00 4.326429e-01 1.137560e+01
      vertex   -6.205130e+00 1.348653e+00 1.137560e+01
    endloop
  endfacet
  facet normal 9.681336e-01 2.504342e-01 -0.000000e+00
    outer loop
      vertex   6.205130e+00 1.348653e+00 1.137560e+01
      vertex   6.080764e+00 1.829429e+00 1.270000e+01
      vertex   6.205130e+00 1.348653e+00 1.424881e+01
    endloop
  endfacet
  facet normal 9.681336e-01 2.504342e-01 8.251637e-17
    outer loop
      vertex   6.205130e+00 1.348653e+00 1.424881e+01
      vertex   6.080764e+00 1.829429e+00 1.270000e+01
      vertex   6.080764e+00 1.829429e+00 2.540000e+01
    endloop
  endfacet
  facet normal 9.760748e-01 2.174299e-01 1.511525e-03
    outer loop
      vertex   6.205130e+00 1.348653e+00 1.424881e+01
      vertex   6.080764e+00 1.829429e+00 2.540000e+01
      vertex   6.282330e+00 9.245674e-01 2.540000e+01
    endloop
  endfacet
  facet normal 9.900607e-01 1.406331e-01 1.476220e-03
    outer loop
      vertex   6.335244e+00 4.326429e-01 1.137560e+01
      vertex   6.282330e+00 9.245674e-01 0.000000e+00
      vertex   6.205130e+00 1.348653e+00 1.137560e+01
    endloop
  endfacet
  facet normal 9.760748e-01 2.174299e-01 -1.481707e-03
    outer loop
      vertex   6.205130e+00 1.348653e+00 1.137560e+01
      vertex   6.282330e+00 9.245674e-01 0.000000e+00
      vertex   6.080764e+00 1.829429e+00 0.000000e+00
    endloop
  endfacet
  facet normal 9.681336e-01 2.504342e-01 0.000000e+00
    outer loop
      vertex   6.205130e+00 1.348653e+00 1.137560e+01
      vertex   6.080764e+00 1.829429e+00 0.000000e+00
      vertex   6.080764e+00 1.829429e+00 1.270000e+01
    endloop
  endfacet
  facet normal 9.340161e-01 3.572309e-01 0.000000e+00
    outer loop
      vertex   6.080764e+00 1.829429e+00 1.270000e+01
      vertex   6.080764e+00 1.829429e+00 0.000000e+00
      vertex   5.749596e+00 2.695300e+00 1.270000e+01
    endloop
  endfacet
  facet normal 9.340161e-01 3.572309e-01 4.714958e-18
    outer loop
      vertex   6.080764e+00 1.829429e+00 1.270000e+01
      vertex   5.749596e+00 2.695300e+00 1.270000e+01
      vertex   5.749596e+00 2.695300e+00 2.540000e+01
    endloop
  endfacet
  facet normal 8.720494e-01 4.894178e-01 -2.458193e-17
    outer loop
      vertex   5.749596e+00 2.695300e+00 2.540000e+01
      vertex   5.749596e+00 2.695300e+00 1.270000e+01
      vertex   5.295886e+00 3.503725e+00 2.540000e+01
    endloop
  endfacet
  facet normal 8.720494e-01 4.894178e-01 9.645662e-18
    outer loop
      vertex   5.295886e+00 3.503725e+00 2.540000e+01
      vertex   5.749596e+00 2.695300e+00 1.270000e+01
      vertex   5.295886e+00 3.503725e+00 1.270000e+01
    endloop
  endfacet
  facet normal 7.914965e-01 6.111737e-01 -8.760382e-18
    outer loop
      vertex   5.295886e+00 3.503725e+00 2.540000e+01
      vertex   5.295886e+00 3.503725e+00 1.270000e+01
      vertex   4.729303e+00 4.237474e+00 2.540000e+01
    endloop
  endfacet
  facet normal 7.914965e-01 6.111737e-01 0.000000e+00
    outer loop
      vertex   4.729303e+00 4.237474e+00 2.540000e+01
      vertex   5.295886e+00 3.503725e+00 1.270000e+01
      vertex   4.729303e+00 4.237474e+00 1.270000e+01
    endloop
  endfacet
  facet normal 6.940742e-01 7.199035e-01 0.000000e+00
    outer loop
      vertex   4.729303e+00 4.237474e+00 2.540000e+01
      vertex   4.729303e+00 4.237474e+00 1.270000e+01
      vertex   4.061924e+00 4.880909e+00 2.540000e+01
    endloop
  endfacet
  facet normal 6.940742e-01 7.199035e-01 0.000000e+00
    outer loop
      vertex   4.061924e+00 4.880909e+00 2.540000e+01
      vertex   4.729303e+00 4.237474e+00 1.270000e+01
      vertex   4.061924e+00 4.880909e+00 1.270000e+01
    endloop
  endfacet
  facet normal 5.818589e-01 8.132897e-01 0.000000e+00
    outer loop
      vertex   4.061924e+00 4.880909e+00 2.540000e+01
      vertex   4.061924e+00 4.880909e+00 1.270000e+01
      vertex   3.307971e+00 5.420316e+00 2.540000e+01
    endloop
  endfacet
  facet normal 5.818589e-01 8.132897e-01 8.554602e-17
    outer loop
      vertex   3.307971e+00 5.420316e+00 2.540000e+01
      vertex   4.061924e+00 4.880909e+00 1.270000e+01
      vertex   3.307971e+00 5.420316e+00 1.270000e+01
    endloop
  endfacet
  facet normal 4.572423e-01 8.893421e-01 4.972442e-17
    outer loop
      vertex   3.307971e+00 5.420316e+00 2.540000e+01
      vertex   3.307971e+00 5.420316e+00 1.270000e+01
      vertex   2.483515e+00 5.844198e+00 2.540000e+01
    endloop
  endfacet
  facet normal 4.572423e-01 8.893421e-01 -1.423034e-17
    outer loop
      vertex   2.483515e+00 5.844198e+00 2.540000e+01
      vertex   3.307971e+00 5.420316e+00 1.270000e+01
      vertex   2.483515e+00 5.844198e+00 1.270000e+01
    endloop
  endfacet
  facet normal 3.228804e-01 9.464398e-01 -3.231845e-17
    outer loop
      vertex   2.483515e+00 5.844198e+00 2.540000e+01
      vertex   2.483515e+00 5.844198e+00 1.270000e+01
      vertex   1.606127e+00 6.143521e+00 2.540000e+01
    endloop
  endfacet
  facet normal 3.228804e-01 9.464398e-01 0.000000e+00
    outer loop
      vertex   1.606127e+00 6.143521e+00 2.540000e+01
      vertex   2.483515e+00 5.844198e+00 1.270000e+01
      vertex   1.606127e+00 6.143521e+00 1.270000e+01
    endloop
  endfacet
  facet normal 1.953008e-01 9.807434e-01 0.000000e+00
    outer loop
      vertex   1.606127e+00 6.143521e+00 2.540000e+01
      vertex   1.606127e+00 6.143521e+00 1.270000e+01
      vertex   8.698555e-01 6.290139e+00 1.458681e+01
    endloop
  endfacet
  facet normal 1.953008e-01 9.807434e-01 0.000000e+00
    outer loop
      vertex   8.698555e-01 6.290139e+00 1.458681e+01
      vertex   1.606127e+00 6.143521e+00 1.270000e+01
      vertex   8.698555e-01 6.290139e+00 1.164268e+01
    endloop
  endfacet
  facet normal 1.953008e-01 9.807434e-01 0.000000e+00
    outer loop
      vertex   8.698555e-01 6.290139e+00 1.164268e+01
      vertex   1.606127e+00 6.143521e+00 1.270000e+01
      vertex   1.606127e+00 6.143521e+00 0.000000e+00
    endloop
  endfacet
  facet normal 1.816368e-01 9.833653e-01 -8.971146e-04
    outer loop
      vertex   8.698555e-01 6.290139e+00 1.164268e+01
      vertex   1.606127e+00 6.143521e+00 0.000000e+00
      vertex   6.945072e-01 6.311906e+00 0.000000e+00
    endloop
  endfacet
  facet normal 9.973312e-01 7.299523e-02 -1.482519e-03
    outer loop
      vertex   6.282330e+00 9.245674e-01 0.000000e+00
      vertex   6.335244e+00 4.326429e-01 1.137560e+01
      vertex   6.350000e+00 7.776507e-16 0.000000e+00
    endloop
  endfacet
  facet normal 9.999877e-01 -4.729798e-03 1.477008e-03
    outer loop
      vertex   6.350000e+00 7.776507e-16 0.000000e+00
      vertex   6.335244e+00 4.326429e-01 1.137560e+01
      vertex   6.330868e+00 -4.925518e-01 1.137560e+01
    endloop
  endfacet
  facet normal 9.973312e-01 -7.299523e-02 -1.483284e-03
    outer loop
      vertex   6.350000e+00 7.776507e-16 0.000000e+00
      vertex   6.330868e+00 -4.925518e-01 1.137560e+01
      vertex   6.282330e+00 -9.245674e-01 0.000000e+00
    endloop
  endfacet
  facet normal 9.886861e-01 -1.499922e-01 1.477750e-03
    outer loop
      vertex   6.282330e+00 -9.245674e-01 0.000000e+00
      vertex   6.330868e+00 -4.925518e-01 1.137560e+01
      vertex   6.192095e+00 -1.407290e+00 1.137560e+01
    endloop
  endfacet
  facet normal 9.760748e-01 -2.174299e-01 -1.484002e-03
    outer loop
      vertex   6.282330e+00 -9.245674e-01 0.000000e+00
      vertex   6.192095e+00 -1.407290e+00 1.137560e+01
      vertex   6.080764e+00 -1.829429e+00 0.000000e+00
    endloop
  endfacet
  facet normal 9.669383e-01 -2.550105e-01 -8.174354e-17
    outer loop
      vertex   6.080764e+00 -1.829429e+00 0.000000e+00
      vertex   6.192095e+00 -1.407290e+00 1.137560e+01
      vertex   6.080764e+00 -1.829429e+00 1.270000e+01
    endloop
  endfacet
  facet normal 9.340161e-01 -3.572309e-01 -5.569225e-17
    outer loop
      vertex   6.080764e+00 -1.829429e+00 0.000000e+00
      vertex   6.080764e+00 -1.829429e+00 1.270000e+01
      vertex   5.749596e+00 -2.695300e+00 0.000000e+00
    endloop
  endfacet
  facet normal 9.340161e-01 -3.572309e-01 -2.863074e-18
    outer loop
      vertex   5.749596e+00 -2.695300e+00 0.000000e+00
      vertex   6.080764e+00 -1.829429e+00 1.270000e+01
      vertex   5.749596e+00 -2.695300e+00 1.270000e+01
    endloop
  endfacet
  facet normal 8.720494e-01 -4.894178e-01 2.458193e-17
    outer loop
      vertex   5.749596e+00 -2.695300e+00 0.000000e+00
      vertex   5.749596e+00 -2.695300e+00 1.270000e+01
      vertex   5.295886e+00 -3.503725e+00 0.000000e+00
    endloop
  endfacet
  facet normal 8.720494e-01 -4.894178e-01 -9.645662e-18
    outer loop
      vertex   5.295886e+00 -3.503725e+00 0.000000e+00
      vertex   5.749596e+00 -2.695300e+00 1.270000e+01
      vertex   5.295886e+00 -3.503725e+00 1.270000e+01
    endloop
  endfacet
  facet normal 7.914965e-01 -6.111737e-01 8.760382e-18
    outer loop
      vertex   5.295886e+00 -3.503725e+00 0.000000e+00
      vertex   5.295886e+00 -3.503725e+00 1.270000e+01
      vertex   4.729303e+00 -4.237474e+00 0.000000e+00
    endloop
  endfacet
  facet normal 7.914965e-01 -6.111737e-01 0.000000e+00
    outer loop
      vertex   4.729303e+00 -4.237474e+00 0.000000e+00
      vertex   5.295886e+00 -3.503725e+00 1.270000e+01
      vertex   4.729303e+00 -4.237474e+00 1.270000e+01
    endloop
  endfacet
  facet normal 6.940742e-01 -7.199035e-01 0.000000e+00
    outer loop
      vertex   4.729303e+00 -4.237474e+00 0.000000e+00
      vertex   4.729303e+00 -4.237474e+00 1.270000e+01
      vertex   4.061924e+00 -4.880909e+00 0.000000e+00
    endloop
  endfacet
  facet normal 6.940742e-01 -7.199035e-01 0.000000e+00
    outer loop
      vertex   4.061924e+00 -4.880909e+00 0.000000e+00
      vertex   4.729303e+00 -4.237474e+00 1.270000e+01
      vertex   4.061924e+00 -4.880909e+00 1.270000e+01
    endloop
  endfacet
  facet normal 5.818589e-01 -8.132897e-01 0.000000e+00
    outer loop
      vertex   4.061924e+00 -4.880909e+00 0.000000e+00
      vertex   4.061924e+00 -4.880909e+00 1.270000e+01
      vertex   3.307971e+00 -5.420316e+00 0.000000e+00
    endloop
  endfacet
  facet normal 5.818589e-01 -8.132897e-01 -8.554602e-17
    outer loop
      vertex   3.307971e+00 -5.420316e+00 0.000000e+00
      vertex   4.061924e+00 -4.880909e+00 1.270000e+01
      vertex   3.307971e+00 -5.420316e+00 1.270000e+01
    endloop
  endfacet
  facet normal 4.572423e-01 -8.893421e-01 -4.972442e-17
    outer loop
      vertex   3.307971e+00 -5.420316e+00 0.000000e+00
      vertex   3.307971e+00 -5.420316e+00 1.270000e+01
      vertex   2.483515e+00 -5.844198e+00 0.000000e+00
    endloop
  endfacet
  facet normal 4.572423e-01 -8.893421e-01 1.423034e-17
    outer loop
      vertex   2.483515e+00 -5.844198e+00 0.000000e+00
      vertex   3.307971e+00 -5.420316e+00 1.270000e+01
      vertex   2.483515e+00 -5.844198e+00 1.270000e+01
    endloop
  endfacet
  facet normal 3.228804e-01 -9.464398e-01 3.231845e-17
    outer loop
      vertex   2.483515e+00 -5.844198e+00 0.000000e+00
      vertex   2.483515e+00 -5.844198e+00 1.270000e+01
      vertex   1.606127e+00 -6.143521e+00 0.000000e+00
    endloop
  endfacet
  facet normal 3.228804e-01 -9.464398e-01 0.000000e+00
    outer loop
      vertex   1.606127e+00 -6.143521e+00 0.000000e+00
      vertex   2.483515e+00 -5.844198e+00 1.270000e+01
      vertex   1.606127e+00 -6.143521e+00 1.270000e+01
    endloop
  endfacet
  facet normal 1.953008e-01 -9.807434e-01 0.000000e+00
    outer loop
      vertex   1.606127e+00 -6.143521e+00 0.000000e+00
      vertex   1.606127e+00 -6.143521e+00 1.270000e+01
      vertex   8.698555e-01 -6.290139e+00 1.164268e+01
    endloop
  endfacet
  facet normal 1.953008e-01 -9.807434e-01 0.000000e+00
    outer loop
      vertex   8.698555e-01 -6.290139e+00 1.164268e+01
      vertex   1.606127e+00 -6.143521e+00 1.270000e+01
      vertex   8.698555e-01 -6.290139e+00 1.458681e+01
    endloop
  endfacet
  facet normal 1.953008e-01 -9.807434e-01 0.000000e+00
    outer loop
      vertex   8.698555e-01 -6.290139e+00 1.458681e+01
      vertex   1.606127e+00 -6.143521e+00 1.270000e+01
      vertex   1.606127e+00 -6.143521e+00 2.540000e+01
    endloop
  endfacet
  facet normal 1.816368e-01 -9.833652e-01 9.659329e-04
    outer loop
      vertex   8.698555e-01 -6.290139e+00 1.458681e+01
      vertex   1.606127e+00 -6.143521e+00 2.540000e+01
      vertex   6.945072e-01 -6.311906e+00 2.540000e+01
    endloop
  endfacet
  facet normal 9.669383e-01 -2.550105e-01 0.000000e+00
    outer loop
      vertex   6.192095e+00 -1.407290e+00 1.137560e+01
      vertex   6.192095e+00 -1.407290e+00 1.424881e+01
      vertex   6.080764e+00 -1.829429e+00 1.270000e+01
    endloop
  endfacet
  facet normal 9.669383e-01 -2.550105e-01 0.000000e+00
    outer loop
      vertex   6.080764e+00 -1.829429e+00 1.270000e+01
      vertex   6.192095e+00 -1.407290e+00 1.424881e+01
      vertex   6.080764e+00 -1.829429e+00 2.540000e+01
    endloop
  endfacet
  facet normal 9.340161e-01 -3.572309e-01 0.000000e+00
    outer loop
      vertex   6.080764e+00 -1.829429e+00 1.270000e+01
      vertex   6.080764e+00 -1.829429e+00 2.540000e+01
      vertex   5.749596e+00 -2.695300e+00 1.270000e+01
    endloop
  endfacet
  facet normal 9.340161e-01 -3.572309e-01 0.000000e+00
    outer loop
      vertex   5.749596e+00 -2.695300e+00 1.270000e+01
      vertex   6.080764e+00 -1.829429e+00 2.540000e+01
      vertex   5.749596e+00 -2.695300e+00 2.540000e+01
    endloop
  endfacet
  facet normal 8.720494e-01 -4.894178e-01 0.000000e+00
    outer loop
      vertex   5.749596e+00 -2.695300e+00 1.270000e+01
      vertex   5.749596e+00 -2.695300e+00 2.540000e+01
      vertex   5.295886e+00 -3.503725e+00 1.270000e+01
    endloop
  endfacet
  facet normal 8.720494e-01 -4.894178e-01 5.880951e-17
    outer loop
      vertex   5.295886e+00 -3.503725e+00 1.270000e+01
      vertex   5.749596e+00 -2.695300e+00 2.540000e+01
      vertex   5.295886e+00 -3.503725e+00 2.540000e+01
    endloop
  endfacet
  facet normal 7.914965e-01 -6.111737e-01 9.424563e-17
    outer loop
      vertex   5.295886e+00 -3.503725e+00 1.270000e+01
      vertex   5.295886e+00 -3.503725e+00 2.540000e+01
      vertex   4.729303e+00 -4.237474e+00 1.270000e+01
    endloop
  endfacet
  facet normal 7.914965e-01 -6.111737e-01 0.000000e+00
    outer loop
      vertex   4.729303e+00 -4.237474e+00 1.270000e+01
      vertex   5.295886e+00 -3.503725e+00 2.540000e+01
      vertex   4.729303e+00 -4.237474e+00 2.540000e+01
    endloop
  endfacet
  facet normal 6.940742e-01 -7.199035e-01 0.000000e+00
    outer loop
      vertex   4.729303e+00 -4.237474e+00 1.270000e+01
      vertex   4.729303e+00 -4.237474e+00 2.540000e+01
      vertex   4.061924e+00 -4.880909e+00 1.270000e+01
    endloop
  endfacet
  facet normal 6.940742e-01 -7.199035e-01 0.000000e+00
    outer loop
      vertex   4.061924e+00 -4.880909e+00 1.270000e+01
      vertex   4.729303e+00 -4.237474e+00 2.540000e+01
      vertex   4.061924e+00 -4.880909e+00 2.540000e+01
    endloop
  endfacet
  facet normal 5.818589e-01 -8.132897e-01 0.000000e+00
    outer loop
      vertex   4.061924e+00 -4.880909e+00 1.270000e+01
      vertex   4.061924e+00 -4.880909e+00 2.540000e+01
      vertex   3.307971e+00 -5.420316e+00 1.270000e+01
    endloop
  endfacet
  facet normal 5.818589e-01 -8.132897e-01 0.000000e+00
    outer loop
      vertex   3.307971e+00 -5.420316e+00 1.270000e+01
      vertex   4.061924e+00 -4.880909e+00 2.540000e+01
      vertex   3.307971e+00 -5.420316e+00 2.540000e+01
    endloop
  endfacet
  facet normal 4.572423e-01 -8.893421e-01 0.000000e+00
    outer loop
      vertex   3.307971e+00 -5.420316e+00 1.270000e+01
      vertex   3.307971e+00 -5.420316e+00 2.540000e+01
      vertex   2.483515e+00 -5.844198e+00 1.270000e+01
    endloop
  endfacet
  facet normal 4.572423e-01 -8.893421e-01 -3.373573e-17
    outer loop
      vertex   2.483515e+00 -5.844198e+00 1.270000e+01
      vertex   3.307971e+00 -5.420316e+00 2.540000e+01
      vertex   2.483515e+00 -5.844198e+00 2.540000e+01
    endloop
  endfacet
  facet normal 3.228804e-01 -9.464398e-01 -1.552665e-18
    outer loop
      vertex   2.483515e+00 -5.844198e+00 1.270000e+01
      vertex   2.483515e+00 -5.844198e+00 2.540000e+01
      vertex   1.606127e+00 -6.143521e+00 1.270000e+01
    endloop
  endfacet
  facet normal 3.228804e-01 -9.464398e-01 0.000000e+00
    outer loop
      vertex   1.606127e+00 -6.143521e+00 1.270000e+01
      vertex   2.483515e+00 -5.844198e+00 2.540000e+01
      vertex   1.606127e+00 -6.143521e+00 2.540000e+01
    endloop
  endfacet
  facet normal 9.760748e-01 -2.174299e-01 1.513866e-03
    outer loop
      vertex   6.080764e+00 -1.829429e+00 2.540000e+01
      vertex   6.192095e+00 -1.407290e+00 1.424881e+01
      vertex   6.282330e+00 -9.245674e-01 2.540000e+01
    endloop
  endfacet
  facet normal 9.886860e-01 -1.499922e-01 -1.507489e-03
    outer loop
      vertex   6.282330e+00 -9.245674e-01 2.540000e+01
      vertex   6.192095e+00 -1.407290e+00 1.424881e+01
      vertex   6.330868e+00 -4.925518e-01 1.424881e+01
    endloop
  endfacet
  facet normal 9.973311e-01 -7.299523e-02 1.513134e-03
    outer loop
      vertex   6.282330e+00 -9.245674e-01 2.540000e+01
      vertex   6.330868e+00 -4.925518e-01 1.424881e+01
      vertex   6.350000e+00 7.776507e-16 2.540000e+01
    endloop
  endfacet
  facet normal 9.999877e-01 -4.729798e-03 -1.506732e-03
    outer loop
      vertex   6.350000e+00 7.776507e-16 2.540000e+01
      vertex   6.330868e+00 -4.925518e-01 1.424881e+01
      vertex   6.335244e+00 4.326429e-01 1.424881e+01
    endloop
  endfacet
  facet normal 9.973311e-01 7.299523e-02 1.512353e-03
    outer loop
      vertex   6.350000e+00 7.776507e-16 2.540000e+01
      vertex   6.335244e+00 4.326429e-01 1.424881e+01
      vertex   6.282330e+00 9.245674e-01 2.540000e+01
    endloop
  endfacet
  facet normal 9.900606e-01 1.406330e-01 -1.505927e-03
    outer loop
      vertex   6.282330e+00 9.245674e-01 2.540000e+01
      vertex   6.335244e+00 4.326429e-01 1.424881e+01
      vertex   6.205130e+00 1.348653e+00 1.424881e+01
    endloop
  endfacet
  facet normal 1.816368e-01 -9.833653e-01 -8.971146e-04
    outer loop
      vertex   1.606127e+00 -6.143521e+00 0.000000e+00
      vertex   8.698555e-01 -6.290139e+00 1.164268e+01
      vertex   6.945072e-01 -6.311906e+00 0.000000e+00
    endloop
  endfacet
  facet normal 7.856346e-02 -9.969089e-01 6.805748e-04
    outer loop
      vertex   6.945072e-01 -6.311906e+00 0.000000e+00
      vertex   8.698555e-01 -6.290139e+00 1.164268e+01
      vertex   1.261779e-01 -6.348746e+00 1.164268e+01
    endloop
  endfacet
  facet normal 3.652199e-02 -9.993319e-01 -1.379317e-03
    outer loop
      vertex   6.945072e-01 -6.311906e+00 0.000000e+00
      vertex   1.261779e-01 -6.348746e+00 1.164268e+01
      vertex   -2.319148e-01 -6.345764e+00 0.000000e+00
    endloop
  endfacet
  facet normal -3.889099e-02 -9.992430e-01 9.401756e-04
    outer loop
      vertex   -2.319148e-01 -6.345764e+00 0.000000e+00
      vertex   1.261779e-01 -6.348746e+00 1.164268e+01
      vertex   -6.192410e-01 -6.319734e+00 1.164268e+01
    endloop
  endfacet
  facet normal -1.093711e-01 -9.940000e-01 -1.416263e-03
    outer loop
      vertex   -2.319148e-01 -6.345764e+00 0.000000e+00
      vertex   -6.192410e-01 -6.319734e+00 1.164268e+01
      vertex   -1.153394e+00 -6.244372e+00 0.000000e+00
    endloop
  endfacet
  facet normal -1.558087e-01 -9.877870e-01 7.544592e-04
    outer loop
      vertex   -1.153394e+00 -6.244372e+00 0.000000e+00
      vertex   -6.192410e-01 -6.319734e+00 1.164268e+01
      vertex   -1.356114e+00 -6.203503e+00 1.164268e+01
    endloop
  endfacet
  facet normal -2.529333e-01 -9.674832e-01 -1.007922e-03
    outer loop
      vertex   -1.153394e+00 -6.244372e+00 0.000000e+00
      vertex   -1.356114e+00 -6.203503e+00 1.164268e+01
      vertex   -2.050291e+00 -6.009893e+00 0.000000e+00
    endloop
  endfacet
  facet normal -2.705762e-01 -9.626986e-01 1.235767e-04
    outer loop
      vertex   -2.050291e+00 -6.009893e+00 0.000000e+00
      vertex   -1.356114e+00 -6.203503e+00 1.164268e+01
      vertex   -2.074271e+00 -6.001658e+00 1.164268e+01
    endloop
  endfacet
  facet normal -3.911047e-01 -9.203462e-01 1.664890e-04
    outer loop
      vertex   -2.903489e+00 -5.647323e+00 2.540000e+01
      vertex   -2.074271e+00 -6.001658e+00 1.458681e+01
      vertex   -2.050291e+00 -6.009893e+00 2.540000e+01
    endloop
  endfacet
  facet normal -2.705762e-01 -9.626986e-01 -1.330564e-04
    outer loop
      vertex   -2.050291e+00 -6.009893e+00 2.540000e+01
      vertex   -2.074271e+00 -6.001658e+00 1.458681e+01
      vertex   -1.356114e+00 -6.203503e+00 1.458681e+01
    endloop
  endfacet
  facet normal -2.529332e-01 -9.674831e-01 1.085241e-03
    outer loop
      vertex   -2.050291e+00 -6.009893e+00 2.540000e+01
      vertex   -1.356114e+00 -6.203503e+00 1.458681e+01
      vertex   -1.153394e+00 -6.244372e+00 2.540000e+01
    endloop
  endfacet
  facet normal -1.558087e-01 -9.877869e-01 -8.123343e-04
    outer loop
      vertex   -1.153394e+00 -6.244372e+00 2.540000e+01
      vertex   -1.356114e+00 -6.203503e+00 1.458681e+01
      vertex   -6.192410e-01 -6.319734e+00 1.458681e+01
    endloop
  endfacet
  facet normal -1.093711e-01 -9.939998e-01 1.524905e-03
    outer loop
      vertex   -1.153394e+00 -6.244372e+00 2.540000e+01
      vertex   -6.192410e-01 -6.319734e+00 1.458681e+01
      vertex   -2.319148e-01 -6.345764e+00 2.540000e+01
    endloop
  endfacet
  facet normal -3.889099e-02 -9.992429e-01 -1.012297e-03
    outer loop
      vertex   -2.319148e-01 -6.345764e+00 2.540000e+01
      vertex   -6.192410e-01 -6.319734e+00 1.458681e+01
      vertex   1.261779e-01 -6.348746e+00 1.458681e+01
    endloop
  endfacet
  facet normal 3.652198e-02 -9.993317e-01 1.485125e-03
    outer loop
      vertex   -2.319148e-01 -6.345764e+00 2.540000e+01
      vertex   1.261779e-01 -6.348746e+00 1.458681e+01
      vertex   6.945072e-01 -6.311906e+00 2.540000e+01
    endloop
  endfacet
  facet normal 7.856346e-02 -9.969088e-01 -7.327822e-04
    outer loop
      vertex   6.945072e-01 -6.311906e+00 2.540000e+01
      vertex   1.261779e-01 -6.348746e+00 1.458681e+01
      vertex   8.698555e-01 -6.290139e+00 1.458681e+01
    endloop
  endfacet
  facet normal 1.816368e-01 9.833652e-01 9.659329e-04
    outer loop
      vertex   1.606127e+00 6.143521e+00 2.540000e+01
      vertex   8.698555e-01 6.290139e+00 1.458681e+01
      vertex   6.945072e-01 6.311906e+00 2.540000e+01
    endloop
  endfacet
  facet normal 7.856346e-02 9.969088e-01 -7.327822e-04
    outer loop
      vertex   6.945072e-01 6.311906e+00 2.540000e+01
      vertex   8.698555e-01 6.290139e+00 1.458681e+01
      vertex   1.261779e-01 6.348746e+00 1.458681e+01
    endloop
  endfacet
  facet normal 3.652198e-02 9.993317e-01 1.485125e-03
    outer loop
      vertex   6.945072e-01 6.311906e+00 2.540000e+01
      vertex   1.261779e-01 6.348746e+00 1.458681e+01
      vertex   -2.319148e-01 6.345764e+00 2.540000e+01
    endloop
  endfacet
  facet normal -3.889099e-02 9.992429e-01 -1.012297e-03
    outer loop
      vertex   -2.319148e-01 6.345764e+00 2.540000e+01
      vertex   1.261779e-01 6.348746e+00 1.458681e+01
      vertex   -6.192410e-01 6.319734e+00 1.458681e+01
    endloop
  endfacet
  facet normal -1.093711e-01 9.939998e-01 1.524905e-03
    outer loop
      vertex   -2.319148e-01 6.345764e+00 2.540000e+01
      vertex   -6.192410e-01 6.319734e+00 1.458681e+01
      vertex   -1.153394e+00 6.244372e+00 2.540000e+01
    endloop
  endfacet
  facet normal -1.558087e-01 9.877869e-01 -8.123343e-04
    outer loop
      vertex   -1.153394e+00 6.244372e+00 2.540000e+01
      vertex   -6.192410e-01 6.319734e+00 1.458681e+01
      vertex   -1.356114e+00 6.203503e+00 1.458681e+01
    endloop
  endfacet
  facet normal -2.529332e-01 9.674831e-01 1.085241e-03
    outer loop
      vertex   -1.153394e+00 6.244372e+00 2.540000e+01
      vertex   -1.356114e+00 6.203503e+00 1.458681e+01
      vertex   -2.050291e+00 6.009893e+00 2.540000e+01
    endloop
  endfacet
  facet normal -2.705762e-01 9.626986e-01 -1.330564e-04
    outer loop
      vertex   -2.050291e+00 6.009893e+00 2.540000e+01
      vertex   -1.356114e+00 6.203503e+00 1.458681e+01
      vertex   -2.074271e+00 6.001658e+00 1.458681e+01
    endloop
  endfacet
  facet normal -3.911047e-01 9.203462e-01 -1.546275e-04
    outer loop
      vertex   -2.903489e+00 5.647323e+00 0.000000e+00
      vertex   -2.074271e+00 6.001658e+00 1.164268e+01
      vertex   -2.050291e+00 6.009893e+00 0.000000e+00
    endloop
  endfacet
  facet normal -2.705762e-01 9.626986e-01 1.235767e-04
    outer loop
      vertex   -2.050291e+00 6.009893e+00 0.000000e+00
      vertex   -2.074271e+00 6.001658e+00 1.164268e+01
      vertex   -1.356114e+00 6.203503e+00 1.164268e+01
    endloop
  endfacet
  facet normal -2.529333e-01 9.674832e-01 -1.007922e-03
    outer loop
      vertex   -2.050291e+00 6.009893e+00 0.000000e+00
      vertex   -1.356114e+00 6.203503e+00 1.164268e+01
      vertex   -1.153394e+00 6.244372e+00 0.000000e+00
    endloop
  endfacet
  facet normal -1.558087e-01 9.877870e-01 7.544592e-04
    outer loop
      vertex   -1.153394e+00 6.244372e+00 0.000000e+00
      vertex   -1.356114e+00 6.203503e+00 1.164268e+01
      vertex   -6.192410e-01 6.319734e+00 1.164268e+01
    endloop
  endfacet
  facet normal -1.093711e-01 9.940000e-01 -1.416263e-03
    outer loop
      vertex   -1.153394e+00 6.244372e+00 0.000000e+00
      vertex   -6.192410e-01 6.319734e+00 1.164268e+01
      vertex   -2.319148e-01 6.345764e+00 0.000000e+00
    endloop
  endfacet
  facet normal -3.889099e-02 9.992430e-01 9.401756e-04
    outer loop
      vertex   -2.319148e-01 6.345764e+00 0.000000e+00
      vertex   -6.192410e-01 6.319734e+00 1.164268e+01
      vertex   1.261779e-01 6.348746e+00 1.164268e+01
    endloop
  endfacet
  facet normal 3.652199e-02 9.993319e-01 -1.379317e-03
    outer loop
      vertex   -2.319148e-01 6.345764e+00 0.000000e+00
      vertex   1.261779e-01 6.348746e+00 1.164268e+01
      vertex   6.945072e-01 6.311906e+00 0.000000e+00
    endloop
  endfacet
  facet normal 7.856346e-02 9.969089e-01 6.805748e-04
    outer loop
      vertex   6.945072e-01 6.311906e+00 0.000000e+00
      vertex   1.261779e-01 6.348746e+00 1.164268e+01
      vertex   8.698555e-01 6.290139e+00 1.164268e+01
    endloop
  endfacet
  facet normal -9.576006e-01 2.880991e-01 0.000000e+00
    outer loop
      vertex   -6.198082e+00 1.380682e+00 2.540000e+01
      vertex   -5.931002e+00 2.268416e+00 2.540000e+01
      vertex   -5.931002e+00 2.268416e+00 1.270000e+01
    endloop
  endfacet
  facet normal -9.054482e-01 4.244567e-01 0.000000e+00
    outer loop
      vertex   -5.931002e+00 2.268416e+00 1.270000e+01
      vertex   -5.931002e+00 2.268416e+00 2.540000e+01
      vertex   -5.537514e+00 3.107803e+00 1.270000e+01
    endloop
  endfacet
  facet normal -9.054482e-01 4.244567e-01 -1.885983e-17
    outer loop
      vertex   -5.931002e+00 2.268416e+00 2.540000e+01
      vertex   -5.537514e+00 3.107803e+00 2.540000e+01
      vertex   -5.537514e+00 3.107803e+00 1.270000e+01
    endloop
  endfacet
  facet normal -8.339978e-01 5.517677e-01 -4.438239e-19
    outer loop
      vertex   -5.537514e+00 3.107803e+00 1.270000e+01
      vertex   -5.537514e+00 3.107803e+00 2.540000e+01
      vertex   -5.026003e+00 3.880953e+00 1.270000e+01
    endloop
  endfacet
  facet normal -8.339978e-01 5.517677e-01 0.000000e+00
    outer loop
      vertex   -5.537514e+00 3.107803e+00 2.540000e+01
      vertex   -5.026003e+00 3.880953e+00 2.540000e+01
      vertex   -5.026003e+00 3.880953e+00 1.270000e+01
    endloop
  endfacet
  facet normal -7.447722e-01 6.673188e-01 0.000000e+00
    outer loop
      vertex   -5.026003e+00 3.880953e+00 1.270000e+01
      vertex   -5.026003e+00 3.880953e+00 2.540000e+01
      vertex   -4.407371e+00 4.571387e+00 1.270000e+01
    endloop
  endfacet
  facet normal -7.447722e-01 6.673188e-01 9.429916e-17
    outer loop
      vertex   -5.026003e+00 3.880953e+00 2.540000e+01
      vertex   -4.407371e+00 4.571387e+00 2.540000e+01
      vertex   -4.407371e+00 4.571387e+00 1.270000e+01
    endloop
  endfacet
  facet normal -6.396730e-01 7.686471e-01 1.075111e-16
    outer loop
      vertex   -4.407371e+00 4.571387e+00 1.270000e+01
      vertex   -4.407371e+00 4.571387e+00 2.540000e+01
      vertex   -3.694804e+00 5.164390e+00 1.270000e+01
    endloop
  endfacet
  facet normal -6.396730e-01 7.686471e-01 3.300470e-17
    outer loop
      vertex   -4.407371e+00 4.571387e+00 2.540000e+01
      vertex   -3.694804e+00 5.164390e+00 2.540000e+01
      vertex   -3.694804e+00 5.164390e+00 1.270000e+01
    endloop
  endfacet
  facet normal -5.209403e-01 8.535931e-01 4.148023e-17
    outer loop
      vertex   -3.694804e+00 5.164390e+00 1.270000e+01
      vertex   -3.694804e+00 5.164390e+00 2.540000e+01
      vertex   -2.903489e+00 5.647323e+00 1.270000e+01
    endloop
  endfacet
  facet normal -5.209403e-01 8.535931e-01 0.000000e+00
    outer loop
      vertex   -3.694804e+00 5.164390e+00 2.540000e+01
      vertex   -2.903489e+00 5.647323e+00 2.540000e+01
      vertex   -2.903489e+00 5.647323e+00 1.270000e+01
    endloop
  endfacet
  facet normal 9.340161e-01 3.572309e-01 5.657949e-17
    outer loop
      vertex   5.749596e+00 2.695300e+00 2.540000e+01
      vertex   6.080764e+00 1.829429e+00 2.540000e+01
      vertex   6.080764e+00 1.829429e+00 1.270000e+01
    endloop
  endfacet
  facet normal 9.340161e-01 3.572309e-01 0.000000e+00
    outer loop
      vertex   6.080764e+00 1.829429e+00 0.000000e+00
      vertex   5.749596e+00 2.695300e+00 0.000000e+00
      vertex   5.749596e+00 2.695300e+00 1.270000e+01
    endloop
  endfacet
  facet normal 8.720494e-01 4.894178e-01 0.000000e+00
    outer loop
      vertex   5.749596e+00 2.695300e+00 1.270000e+01
      vertex   5.749596e+00 2.695300e+00 0.000000e+00
      vertex   5.295886e+00 3.503725e+00 1.270000e+01
    endloop
  endfacet
  facet normal 8.720494e-01 4.894178e-01 -5.657949e-17
    outer loop
      vertex   5.749596e+00 2.695300e+00 0.000000e+00
      vertex   5.295886e+00 3.503725e+00 0.000000e+00
      vertex   5.295886e+00 3.503725e+00 1.270000e+01
    endloop
  endfacet
  facet normal 7.914965e-01 6.111737e-01 -9.424563e-17
    outer loop
      vertex   5.295886e+00 3.503725e+00 1.270000e+01
      vertex   5.295886e+00 3.503725e+00 0.000000e+00
      vertex   4.729303e+00 4.237474e+00 1.270000e+01
    endloop
  endfacet
  facet normal 7.914965e-01 6.111737e-01 0.000000e+00
    outer loop
      vertex   5.295886e+00 3.503725e+00 0.000000e+00
      vertex   4.729303e+00 4.237474e+00 0.000000e+00
      vertex   4.729303e+00 4.237474e+00 1.270000e+01
    endloop
  endfacet
  facet normal 6.940742e-01 7.199035e-01 0.000000e+00
    outer loop
      vertex   4.729303e+00 4.237474e+00 1.270000e+01
      vertex   4.729303e+00 4.237474e+00 0.000000e+00
      vertex   4.061924e+00 4.880909e+00 1.270000e+01
    endloop
  endfacet
  facet normal 6.940742e-01 7.199035e-01 0.000000e+00
    outer loop
      vertex   4.729303e+00 4.237474e+00 0.000000e+00
      vertex   4.061924e+00 4.880909e+00 0.000000e+00
      vertex   4.061924e+00 4.880909e+00 1.270000e+01
    endloop
  endfacet
  facet normal 5.818589e-01 8.132897e-01 0.000000e+00
    outer loop
      vertex   4.061924e+00 4.880909e+00 1.270000e+01
      vertex   4.061924e+00 4.880909e+00 0.000000e+00
      vertex   3.307971e+00 5.420316e+00 1.270000e+01
    endloop
  endfacet
  facet normal 5.818589e-01 8.132897e-01 0.000000e+00
    outer loop
      vertex   4.061924e+00 4.880909e+00 0.000000e+00
      vertex   3.307971e+00 5.420316e+00 0.000000e+00
      vertex   3.307971e+00 5.420316e+00 1.270000e+01
    endloop
  endfacet
  facet normal 4.572423e-01 8.893421e-01 0.000000e+00
    outer loop
      vertex   3.307971e+00 5.420316e+00 1.270000e+01
      vertex   3.307971e+00 5.420316e+00 0.000000e+00
      vertex   2.483515e+00 5.844198e+00 1.270000e+01
    endloop
  endfacet
  facet normal 4.572423e-01 8.893421e-01 3.771966e-17
    outer loop
      vertex   3.307971e+00 5.420316e+00 0.000000e+00
      vertex   2.483515e+00 5.844198e+00 0.000000e+00
      vertex   2.483515e+00 5.844198e+00 1.270000e+01
    endloop
  endfacet
  facet normal 3.228804e-01 9.464398e-01 1.552665e-18
    outer loop
      vertex   2.483515e+00 5.844198e+00 1.270000e+01
      vertex   2.483515e+00 5.844198e+00 0.000000e+00
      vertex   1.606127e+00 6.143521e+00 1.270000e+01
    endloop
  endfacet
  facet normal 3.228804e-01 9.464398e-01 0.000000e+00
    outer loop
      vertex   2.483515e+00 5.844198e+00 0.000000e+00
      vertex   1.606127e+00 6.143521e+00 0.000000e+00
      vertex   1.606127e+00 6.143521e+00 1.270000e+01
    endloop
  endfacet
  facet normal -9.576006e-01 2.880991e-01 3.064723e-17
    outer loop
      vertex   -5.931002e+00 2.268416e+00 0.000000e+00
      vertex   -6.198082e+00 1.380682e+00 0.000000e+00
      vertex   -6.198082e+00 1.380682e+00 1.270000e+01
    endloop
  endfacet
  facet normal 0.000000e+00 0.000000e+00 -1.000000e+00
    outer loop
      vertex   6.282330e+00 -9.245674e-01 0.000000e+00
      vertex   -6.333060e+00 -4.635202e-01 0.000000e+00
      vertex   6.350000e+00 7.776507e-16 0.000000e+00
    endloop
  endfacet
  facet normal -0.000000e+00 0.000000e+00 -1.000000e+00
    outer loop
      vertex   6.350000e+00 7.776507e-16 0.000000e+00
      vertex   -6.333060e+00 -4.635202e-01 0.000000e+00
      vertex   -6.333060e+00 4.635202e-01 0.000000e+00
    endloop
  endfacet
  facet normal 0.000000e+00 0.000000e+00 -1.000000e+00
    outer loop
      vertex   6.350000e+00 7.776507e-16 0.000000e+00
      vertex   -6.333060e+00 4.635202e-01 0.000000e+00
      vertex   6.282330e+00 9.245674e-01 0.000000e+00
    endloop
  endfacet
  facet normal -0.000000e+00 0.000000e+00 -1.000000e+00
    outer loop
      vertex   6.282330e+00 9.245674e-01 0.000000e+00
      vertex   -6.333060e+00 4.635202e-01 0.000000e+00
      vertex   -6.198082e+00 1.380682e+00 0.000000e+00
    endloop
  endfacet
  facet normal 0.000000e+00 0.000000e+00 -1.000000e+00
    outer loop
      vertex   6.282330e+00 9.245674e-01 0.000000e+00
      vertex   -6.198082e+00 1.380682e+00 0.000000e+00
      vertex   6.080764e+00 1.829429e+00 0.000000e+00
    endloop
  endfacet
  facet normal -0.000000e+00 0.000000e+00 -1.000000e+00
    outer loop
      vertex   6.080764e+00 1.829429e+00 0.000000e+00
      vertex   -6.198082e+00 1.380682e+00 0.000000e+00
      vertex   -5.931002e+00 2.268416e+00 0.000000e+00
    endloop
  endfacet
  facet normal 0.000000e+00 0.000000e+00 -1.000000e+00
    outer loop
      vertex   6.080764e+00 1.829429e+00 0.000000e+00
      vertex   -5.931002e+00 2.268416e+00 0.000000e+00
      vertex   5.749596e+00 2.695300e+00 0.000000e+00
    endloop
  endfacet
  facet normal -0.000000e+00 0.000000e+00 -1.000000e+00
    outer loop
      vertex   5.749596e+00 2.695300e+00 0.000000e+00
      vertex   -5.931002e+00 2.268416e+00 0.000000e+00
      vertex   -5.537514e+00 3.107803e+00 0.000000e+00
    endloop
  endfacet
  facet normal 0.000000e+00 0.000000e+00 -1.000000e+00
    outer loop
      vertex   5.749596e+00 2.695300e+00 0.000000e+00
      vertex   -5.537514e+00 3.107803e+00 0.000000e+00
      vertex   5.295886e+00 3.503725e+00 0.000000e+00
    endloop
  endfacet
  facet normal -0.000000e+00 0.000000e+00 -1.000000e+00
    outer loop
      vertex   5.295886e+00 3.503725e+00 0.000000e+00
      vertex   -5.537514e+00 3.107803e+00 0.000000e+00
      vertex   -5.026003e+00 3.880953e+00 0.000000e+00
    endloop
  endfacet
  facet normal 0.000000e+00 0.000000e+00 -1.000000e+00
    outer loop
      vertex   5.295886e+00 3.503725e+00 0.000000e+00
      vertex   -5.026003e+00 3.880953e+00 0.000000e+00
      vertex   4.729303e+00 4.237474e+00 0.000000e+00
    endloop
  endfacet
  facet normal -0.000000e+00 0.000000e+00 -1.000000e+00
    outer loop
      vertex   4.729303e+00 4.237474e+00 0.000000e+00
      vertex   -5.026003e+00 3.880953e+00 0.000000e+00
      vertex   -4.407371e+00 4.571387e+00 0.000000e+00
    endloop
  endfacet
  facet normal 0.000000e+00 0.000000e+00 -1.000000e+00
    outer loop
      vertex   4.729303e+00 4.237474e+00 0.000000e+00
      vertex   -4.407371e+00 4.571387e+00 0.000000e+00
      vertex   4.061924e+00 4.880909e+00 0.000000e+00
    endloop
  endfacet
  facet normal -0.000000e+00 0.000000e+00 -1.000000e+00
    outer loop
      vertex   4.061924e+00 4.880909e+00 0.000000e+00
      vertex   -4.407371e+00 4.571387e+00 0.000000e+00
      vertex   -3.694804e+00 5.164390e+00 0.000000e+00
    endloop
  endfacet
  facet normal 0.000000e+00 0.000000e+00 -1.000000e+00
    outer loop
      vertex   4.061924e+00 4.880909e+00 0.000000e+00
      vertex   -3.694804e+00 5.164390e+00 0.000000e+00
      vertex   3.307971e+00 5.420316e+00 0.000000e+00
    endloop
  endfacet
  facet normal -0.000000e+00 0.000000e+00 -1.000000e+00
    outer loop
      vertex   3.307971e+00 5.420316e+00 0.000000e+00
      vertex   -3.694804e+00 5.164390e+00 0.000000e+00
      vertex   -2.903489e+00 5.647323e+00 0.000000e+00
    endloop
  endfacet
  facet normal 0.000000e+00 0.000000e+00 -1.000000e+00
    outer loop
      vertex   3.307971e+00 5.420316e+00 0.000000e+00
      vertex   -2.903489e+00 5.647323e+00 0.000000e+00
      vertex   2.483515e+00 5.844198e+00 0.000000e+00
    endloop
  endfacet
  facet normal -0.000000e+00 0.000000e+00 -1.000000e+00
    outer loop
      vertex   2.483515e+00 5.844198e+00 0.000000e+00
      vertex   -2.903489e+00 5.647323e+00 0.000000e+00
      vertex   -2.050291e+00 6.009893e+00 0.000000e+00
    endloop
  endfacet
  facet normal 0.000000e+00 0.000000e+00 -1.000000e+00
    outer loop
      vertex   2.483515e+00 5.844198e+00 0.000000e+00
      vertex   -2.050291e+00 6.009893e+00 0.000000e+00
      vertex   1.606127e+00 6.143521e+00 0.000000e+00
    endloop
  endfacet
  facet normal -0.000000e+00 0.000000e+00 -1.000000e+00
    outer loop
      vertex   1.606127e+00 6.143521e+00 0.000000e+00
      vertex   -2.050291e+00 6.009893e+00 0.000000e+00
      vertex   -1.153394e+00 6.244372e+00 0.000000e+00
    endloop
  endfacet
  facet normal 0.000000e+00 0.000000e+00 -1.000000e+00
    outer loop
      vertex   1.606127e+00 6.143521e+00 0.000000e+00
      vertex   -1.153394e+00 6.244372e+00 0.000000e+00
      vertex   6.945072e-01 6.311906e+00 0.000000e+00
    endloop
  endfacet
  facet normal -0.000000e+00 0.000000e+00 -1.000000e+00
    outer loop
      vertex   6.945072e-01 6.311906e+00 0.000000e+00
      vertex   -1.153394e+00 6.244372e+00 0.000000e+00
      vertex   -2.319148e-01 6.345764e+00 0.000000e+00
    endloop
  endfacet
  facet normal 0.000000e+00 0.000000e+00 -1.000000e+00
    outer loop
      vertex   -6.333060e+00 -4.635202e-01 0.000000e+00
      vertex   6.282330e+00 -9.245674e-01 0.000000e+00
      vertex   -6.198082e+00 -1.380682e+00 0.000000e+00
    endloop
  endfacet
  facet normal 0.000000e+00 0.000000e+00 -1.000000e+00
    outer loop
      vertex   -6.198082e+00 -1.380682e+00 0.000000e+00
      vertex   6.282330e+00 -9.245674e-01 0.000000e+00
      vertex   6.080764e+00 -1.829429e+00 0.000000e+00
    endloop
  endfacet
  facet normal 0.000000e+00 0.000000e+00 -1.000000e+00
    outer loop
      vertex   -6.198082e+00 -1.380682e+00 0.000000e+00
      vertex   6.080764e+00 -1.829429e+00 0.000000e+00
      vertex   -5.931002e+00 -2.268416e+00 0.000000e+00
    endloop
  endfacet
  facet normal 0.000000e+00 0.000000e+00 -1.000000e+00
    outer loop
      vertex   -5.931002e+00 -2.268416e+00 0.000000e+00
      vertex   6.080764e+00 -1.829429e+00 0.000000e+00
      vertex   5.749596e+00 -2.695300e+00 0.000000e+00
    endloop
  endfacet
  facet normal 0.000000e+00 0.000000e+00 -1.000000e+00
    outer loop
      vertex   -5.931002e+00 -2.268416e+00 0.000000e+00
      vertex   5.749596e+00 -2.695300e+00 0.000000e+00
      vertex   -5.537514e+00 -3.107803e+00 0.000000e+00
    endloop
  endfacet
  facet normal 0.000000e+00 0.000000e+00 -1.000000e+00
    outer loop
      vertex   -5.537514e+00 -3.107803e+00 0.000000e+00
      vertex   5.749596e+00 -2.695300e+00 0.000000e+00
      vertex   5.295886e+00 -3.503725e+00 0.000000e+00
    endloop
  endfacet
  facet normal 0.000000e+00 0.000000e+00 -1.000000e+00
    outer loop
      vertex   -5.537514e+00 -3.107803e+00 0.000000e+00
      vertex   5.295886e+00 -3.503725e+00 0.000000e+00
      vertex   -5.026003e+00 -3.880953e+00 0.000000e+00
    endloop
  endfacet
  facet normal 0.000000e+00 0.000000e+00 -1.000000e+00
    outer loop
      vertex   -5.026003e+00 -3.880953e+00 0.000000e+00
      vertex   5.295886e+00 -3.503725e+00 0.000000e+00
      vertex   4.729303e+00 -4.237474e+00 0.000000e+00
    endloop
  endfacet
  facet normal 0.000000e+00 0.000000e+00 -1.000000e+00
    outer loop
      vertex   -5.026003e+00 -3.880953e+00 0.000000e+00
      vertex   4.729303e+00 -4.237474e+00 0.000000e+00
      vertex   -4.407371e+00 -4.571387e+00 0.000000e+00
    endloop
  endfacet
  facet normal 0.000000e+00 0.000000e+00 -1.000000e+00
    outer loop
      vertex   -4.407371e+00 -4.571387e+00 0.000000e+00
      vertex   4.729303e+00 -4.237474e+00 0.000000e+00
      vertex   4.061924e+00 -4.880909e+00 0.000000e+00
    endloop
  endfacet
  facet normal 0.000000e+00 0.000000e+00 -1.000000e+00
    outer loop
      vertex   -4.407371e+00 -4.571387e+00 0.000000e+00
      vertex   4.061924e+00 -4.880909e+00 0.000000e+00
      vertex   -3.694804e+00 -5.164390e+00 0.000000e+00
    endloop
  endfacet
  facet normal 0.000000e+00 0.000000e+00 -1.000000e+00
    outer loop
      vertex   -3.694804e+00 -5.164390e+00 0.000000e+00
      vertex   4.061924e+00 -4.880909e+00 0.000000e+00
      vertex   3.307971e+00 -5.420316e+00 0.000000e+00
    endloop
  endfacet
  facet normal 0.000000e+00 0.000000e+00 -1.000000e+00
    outer loop
      vertex   -3.694804e+00 -5.164390e+00 0.000000e+00
      vertex   3.307971e+00 -5.420316e+00 0.000000e+00
      vertex   -2.903489e+00 -5.647323e+00 0.000000e+00
    endloop
  endfacet
  facet normal 0.000000e+00 0.000000e+00 -1.000000e+00
    outer loop
      vertex   -2.903489e+00 -5.647323e+00 0.000000e+00
      vertex   3.307971e+00 -5.420316e+00 0.000000e+00
      vertex   2.483515e+00 -5.844198e+00 0.000000e+00
    endloop
  endfacet
  facet normal 0.000000e+00 0.000000e+00 -1.000000e+00
    outer loop
      vertex   -2.903489e+00 -5.647323e+00 0.000000e+00
      vertex   2.483515e+00 -5.844198e+00 0.000000e+00
      vertex   -2.050291e+00 -6.009893e+00 0.000000e+00
    endloop
  endfacet
  facet normal 0.000000e+00 0.000000e+00 -1.000000e+00
    outer loop
      vertex   -2.050291e+00 -6.009893e+00 0.000000e+00
      vertex   2.483515e+00 -5.844198e+00 0.000000e+00
      vertex   1.606127e+00 -6.143521e+00 0.000000e+00
    endloop
  endfacet
  facet normal 0.000000e+00 0.000000e+00 -1.000000e+00
    outer loop
      vertex   -2.050291e+00 -6.009893e+00 0.000000e+00
      vertex   1.606127e+00 -6.143521e+00 0.000000e+00
      vertex   -1.153394e+00 -6.244372e+00 0.000000e+00
    endloop
  endfacet
  facet normal 0.000000e+00 0.000000e+00 -1.000000e+00
    outer loop
      vertex   -1.153394e+00 -6.244372e+00 0.000000e+00
      vertex   1.606127e+00 -6.143521e+00 0.000000e+00
      vertex   6.945072e-01 -6.311906e+00 0.000000e+00
    endloop
  endfacet
  facet normal 0.000000e+00 0.000000e+00 -1.000000e+00
    outer loop
      vertex   -1.153394e+00 -6.244372e+00 0.000000e+00
      vertex   6.945072e-01 -6.311906e+00 0.000000e+00
      vertex   -2.319148e-01 -6.345764e+00 0.000000e+00
    endloop
  endfacet
  facet normal 0.000000e+00 0.000000e+00 1.000000e+00
    outer loop
      vertex   6.282330e+00 9.245674e-01 2.540000e+01
      vertex   -6.333060e+00 4.635202e-01 2.540000e+01
      vertex   6.350000e+00 7.776507e-16 2.540000e+01
    endloop
  endfacet
  facet normal 0.000000e+00 0.000000e+00 1.000000e+00
    outer loop
      vertex   6.350000e+00 7.776507e-16 2.540000e+01
      vertex   -6.333060e+00 4.635202e-01 2.540000e+01
      vertex   -6.333060e+00 -4.635202e-01 2.540000e+01
    endloop
  endfacet
  facet normal 0.000000e+00 0.000000e+00 1.000000e+00
    outer loop
      vertex   6.350000e+00 7.776507e-16 2.540000e+01
      vertex   -6.333060e+00 -4.635202e-01 2.540000e+01
      vertex   6.282330e+00 -9.245674e-01 2.540000e+01
    endloop
  endfacet
  facet normal 0.000000e+00 0.000000e+00 1.000000e+00
    outer loop
      vertex   6.282330e+00 -9.245674e-01 2.540000e+01
      vertex   -6.333060e+00 -4.635202e-01 2.540000e+01
      vertex   -6.198082e+00 -1.380682e+00 2.540000e+01
    endloop
  endfacet
  facet normal 0.000000e+00 0.000000e+00 1.000000e+00
    outer loop
      vertex   6.282330e+00 -9.245674e-01 2.540000e+01
      vertex   -6.198082e+00 -1.380682e+00 2.540000e+01
      vertex   6.080764e+00 -1.829429e+00 2.540000e+01
    endloop
  endfacet
  facet normal 0.000000e+00 0.000000e+00 1.000000e+00
    outer loop
      vertex   6.080764e+00 -1.829429e+00 2.540000e+01
      vertex   -6.198082e+00 -1.380682e+00 2.540000e+01
      vertex   -5.931002e+00 -2.268416e+00 2.540000e+01
    endloop
  endfacet
  facet normal 0.000000e+00 0.000000e+00 1.000000e+00
    outer loop
      vertex   6.080764e+00 -1.829429e+00 2.540000e+01
      vertex   -5.931002e+00 -2.268416e+00 2.540000e+01
      vertex   5.749596e+00 -2.695300e+00 2.540000e+01
    endloop
  endfacet
  facet normal 0.000000e+00 0.000000e+00 1.000000e+00
    outer loop
      vertex   5.749596e+00 -2.695300e+00 2.540000e+01
      vertex   -5.931002e+00 -2.268416e+00 2.540000e+01
      vertex   -5.537514e+00 -3.107803e+00 2.540000e+01
    endloop
  endfacet
  facet normal 0.000000e+00 0.000000e+00 1.000000e+00
    outer loop
      vertex   5.749596e+00 -2.695300e+00 2.540000e+01
      vertex   -5.537514e+00 -3.107803e+00 2.540000e+01
      vertex   5.295886e+00 -3.503725e+00 2.540000e+01
    endloop
  endfacet
  facet normal 0.000000e+00 0.000000e+00 1.000000e+00
    outer loop
      vertex   5.295886e+00 -3.503725e+00 2.540000e+01
      vertex   -5.537514e+00 -3.107803e+00 2.540000e+01
      vertex   -5.026003e+00 -3.880953e+00 2.540000e+01
    endloop
  endfacet
  facet normal 0.000000e+00 0.000000e+00 1.000000e+00
    outer loop
      vertex   5.295886e+00 -3.503725e+00 2.540000e+01
      vertex   -5.026003e+00 -3.880953e+00 2.540000e+01
      vertex   4.729303e+00 -4.237474e+00 2.540000e+01
    endloop
  endfacet
  facet normal 0.000000e+00 0.000000e+00 1.000000e+00
    outer loop
      vertex   4.729303e+00 -4.237474e+00 2.540000e+01
      vertex   -5.026003e+00 -3.880953e+00 2.540000e+01
      vertex   -4.407371e+00 -4.571387e+00 2.540000e+01
    endloop
  endfacet
  facet normal 0.000000e+00 0.000000e+00 1.000000e+00
    outer loop
      vertex   4.729303e+00 -4.237474e+00 2.540000e+01
      vertex   -4.407371e+00 -4.571387e+00 2.540000e+01
      vertex   4.061924e+00 -4.880909e+00 2.540000e+01
    endloop
  endfacet
  facet normal 0.000000e+00 0.000000e+00 1.000000e+00
    outer loop
      vertex   4.061924e+00 -4.880909e+00 2.540000e+01
      vertex   -4.407371e+00 -4.571387e+00 2.540000e+01
      vertex   -3.694804e+00 -5.164390e+00 2.540000e+01
    endloop
  endfacet
  facet normal 0.000000e+00 0.000000e+00 1.000000e+00
    outer loop
      vertex   4.061924e+00 -4.880909e+00 2.540000e+01
      vertex   -3.694804e+00 -5.164390e+00 2.540000e+01
      vertex   3.307971e+00 -5.420316e+00 2.540000e+01
    endloop
  endfacet
  facet normal 0.000000e+00 0.000000e+00 1.000000e+00
    outer loop
      vertex   3.307971e+00 -5.420316e+00 2.540000e+01
      vertex   -3.694804e+00 -5.164390e+00 2.540000e+01
      vertex   -2.903489e+00 -5.647323e+00 2.540000e+01
    endloop
  endfacet
  facet normal 0.000000e+00 0.000000e+00 1.000000e+00
    outer loop
      vertex   3.307971e+00 -5.420316e+00 2.540000e+01
      vertex   -2.903489e+00 -5.647323e+00 2.540000e+01
      vertex   2.483515e+00 -5.844198e+00 2.540000e+01
    endloop
  endfacet
  facet normal 0.000000e+00 0.000000e+00 1.000000e+00
    outer loop
      vertex   2.483515e+00 -5.844198e+00 2.540000e+01
      vertex   -2.903489e+00 -5.647323e+00 2.540000e+01
      vertex   -2.050291e+00 -6.009893e+00 2.540000e+01
    endloop
  endfacet
  facet normal 0.000000e+00 0.000000e+00 1.000000e+00
    outer loop
      vertex   2.483515e+00 -5.844198e+00 2.540000e+01
      vertex   -2.050291e+00 -6.009893e+00 2.540000e+01
      vertex   1.606127e+00 -6.143521e+00 2.540000e+01
    endloop
  endfacet
  facet normal 0.000000e+00 0.000000e+00 1.000000e+00
    outer loop
      vertex   1.606127e+00 -6.143521e+00 2.540000e+01
      vertex   -2.050291e+00 -6.009893e+00 2.540000e+01
      vertex   -1.153394e+00 -6.244372e+00 2.540000e+01
    endloop
  endfacet
  facet normal 0.000000e+00 0.000000e+00 1.000000e+00
    outer loop
      vertex   1.606127e+00 -6.143521e+00 2.540000e+01
      vertex   -1.153394e+00 -6.244372e+00 2.540000e+01
      vertex   6.945072e-01 -6.311906e+00 2.540000e+01
    endloop
  endfacet
  facet normal 0.000000e+00 0.000000e+00 1.000000e+00
    outer loop
      vertex   6.945072e-01 -6.311906e+00 2.540000e+01
      vertex   -1.153394e+00 -6.244372e+00 2.540000e+01
      vertex   -2.319148e-01 -6.345764e+00 2.540000e+01
    endloop
  endfacet
  facet normal 0.000000e+00 0.000000e+00 1.000000e+00
    outer loop
      vertex   -6.333060e+00 4.635202e-01 2.540000e+01
      vertex   6.282330e+00 9.245674e-01 2.540000e+01
      vertex   -6.198082e+00 1.380682e+00 2.540000e+01
    endloop
  endfacet
  facet normal -0.000000e+00 0.000000e+00 1.000000e+00
    outer loop
      vertex   -6.198082e+00 1.380682e+00 2.540000e+01
      vertex   6.282330e+00 9.245674e-01 2.540000e+01
      vertex   6.080764e+00 1.829429e+00 2.540000e+01
    endloop
  endfacet
  facet normal 0.000000e+00 0.000000e+00 1.000000e+00
    outer loop
      vertex   -6.198082e+00 1.380682e+00 2.540000e+01
      vertex   6.080764e+00 1.829429e+00 2.540000e+01
      vertex   -5.931002e+00 2.268416e+00 2.540000e+01
    endloop
  endfacet
  facet normal -0.000000e+00 0.000000e+00 1.000000e+00
    outer loop
      vertex   -5.931002e+00 2.268416e+00 2.540000e+01
      vertex   6.080764e+00 1.829429e+00 2.540000e+01
      vertex   5.749596e+00 2.695300e+00 2.540000e+01
    endloop
  endfacet
  facet normal 0.000000e+00 0.000000e+00 1.000000e+00
    outer loop
      vertex   -5.931002e+00 2.268416e+00 2.540000e+01
      vertex   5.749596e+00 2.695300e+00 2.540000e+01
      vertex   -5.537514e+00 3.107803e+00 2.540000e+01
    endloop
  endfacet
  facet normal -0.000000e+00 0.000000e+00 1.000000e+00
    outer loop
      vertex   -5.537514e+00 3.107803e+00 2.540000e+01
      vertex   5.749596e+00 2.695300e+00 2.540000e+01
      vertex   5.295886e+00 3.503725e+00 2.540000e+01
    endloop
  endfacet
  facet normal 0.000000e+00 0.000000e+00 1.000000e+00
    outer loop
      vertex   -5.537514e+00 3.107803e+00 2.540000e+01
      vertex   5.295886e+00 3.503725e+00 2.540000e+01
      vertex   -5.026003e+00 3.880953e+00 2.540000e+01
    endloop
  endfacet
  facet normal -0.000000e+00 0.000000e+00 1.000000e+00
    outer loop
      vertex   -5.026003e+00 3.880953e+00 2.540000e+01
      vertex   5.295886e+00 3.503725e+00 2.540000e+01
      vertex   4.729303e+00 4.237474e+00 2.540000e+01
    endloop
  endfacet
  facet normal 0.000000e+00 0.000000e+00 1.000000e+00
    outer loop
      vertex   -5.026003e+00 3.880953e+00 2.540000e+01
      vertex   4.729303e+00 4.237474e+00 2.540000e+01
      vertex   -4.407371e+00 4.571387e+00 2.540000e+01
    endloop
  endfacet
  facet normal -0.000000e+00 0.000000e+00 1.000000e+00
    outer loop
      vertex   -4.407371e+00 4.571387e+00 2.540000e+01
      vertex   4.729303e+00 4.237474e+00 2.540000e+01
      vertex   4.061924e+00 4.880909e+00 2.540000e+01
    endloop
  endfacet
  facet normal 0.000000e+00 0.000000e+00 1.000000e+00
    outer loop
      vertex   -4.407371e+00 4.571387e+00 2.540000e+01
      vertex   4.061924e+00 4.880909e+00 2.540000e+01
      vertex   -3.694804e+00 5.164390e+00 2.540000e+01
    endloop
  endfacet
  facet normal -0.000000e+00 0.000000e+00 1.000000e+00
    outer loop
      vertex   -3.694804e+00 5.164390e+00 2.540000e+01
      vertex   4.061924e+00 4.880909e+00 2.540000e+01
      vertex   3.307971e+00 5.420316e+00 2.540000e+01
    endloop
  endfacet
  facet normal 0.000000e+00 0.000000e+00 1.000000e+00
    outer loop
      vertex   -3.694804e+00 5.164390e+00 2.540000e+01
      vertex   3.307971e+00 5.420316e+00 2.540000e+01
      vertex   -2.903489e+00 5.647323e+00 2.540000e+01
    endloop
  endfacet
  facet normal -0.000000e+00 0.000000e+00 1.000000e+00
    outer loop
      vertex   -2.903489e+00 5.647323e+00 2.540000e+01
      vertex   3.307971e+00 5.420316e+00 2.540000e+01
      vertex   2.483515e+00 5.844198e+00 2.540000e+01
    endloop
  endfacet
  facet normal 0.000000e+00 0.000000e+00 1.000000e+00
    outer loop
      vertex   -2.903489e+00 5.647323e+00 2.540000e+01
      vertex   2.483515e+00 5.844198e+00 2.540000e+01
      vertex   -2.050291e+00 6.009893e+00 2.540000e+01
    endloop
  endfacet
  facet normal -0.000000e+00 0.000000e+00 1.000000e+00
    outer loop
      vertex   -2.050291e+00 6.009893e+00 2.540000e+01
      vertex   2.483515e+00 5.844198e+00 2.540000e+01
      vertex   1.606127e+00 6.143521e+00 2.540000e+01
    endloop
  endfacet
  facet normal 0.000000e+00 0.000000e+00 1.000000e+00
    outer loop
      vertex   -2.050291e+00 6.009893e+00 2.540000e+01
      vertex   1.606127e+00 6.143521e+00 2.540000e+01
      vertex   -1.153394e+00 6.244372e+00 2.540000e+01
    endloop
  endfacet
  facet normal -0.000000e+00 0.000000e+00 1.000000e+00
    outer loop
      vertex   -1.153394e+00 6.244372e+00 2.540000e+01
      vertex   1.606127e+00 6.143521e+00 2.540000e+01
      vertex   6.945072e-01 6.311906e+00 2.540000e+01
    endloop
  endfacet
  facet normal 0.000000e+00 0.000000e+00 1.000000e+00
    outer loop
      vertex   -1.153394e+00 6.244372e+00 2.540000e+01
      vertex   6.945072e-01 6.311906e+00 2.540000e+01
      vertex   -2.319148e-01 6.345764e+00 2.540000e+01
    endloop
  endfacet
endsolid
