solid ASCII
  facet normal 0.000000e+00 -1.000000e+00 0.000000e+00
    outer loop
      vertex   3.468266e+02 -1.577095e+02 9.900655e+02
      vertex   3.468266e+02 -1.577095e+02 6.395998e+02
      vertex   6.350000e+02 -1.577095e+02 9.900655e+02
    endloop
  endfacet
  facet normal 0.000000e+00 -1.000000e+00 -0.000000e+00
    outer loop
      vertex   6.350000e+02 -1.577095e+02 9.900655e+02
      vertex   3.468266e+02 -1.577095e+02 6.395998e+02
      vertex   6.350000e+02 -1.577095e+02 6.395998e+02
    endloop
  endfacet
  facet normal 0.000000e+00 0.000000e+00 -1.000000e+00
    outer loop
      vertex   3.468266e+02 -1.577095e+02 6.395998e+02
      vertex   3.685772e+02 -9.649775e+01 6.395998e+02
      vertex   6.350000e+02 -1.577095e+02 6.395998e+02
    endloop
  endfacet
  facet normal 0.000000e+00 0.000000e+00 -1.000000e+00
    outer loop
      vertex   6.350000e+02 -1.577095e+02 6.395998e+02
      vertex   3.685772e+02 -9.649775e+01 6.395998e+02
      vertex   3.796130e+02 -3.248066e+01 6.395998e+02
    endloop
  endfacet
  facet normal 0.000000e+00 0.000000e+00 -1.000000e+00
    outer loop
      vertex   6.350000e+02 -1.577095e+02 6.395998e+02
      vertex   3.796130e+02 -3.248066e+01 6.395998e+02
      vertex   3.796130e+02 3.248066e+01 6.395998e+02
    endloop
  endfacet
  facet normal 0.000000e+00 0.000000e+00 -1.000000e+00
    outer loop
      vertex   6.350000e+02 -1.577095e+02 6.395998e+02
      vertex   3.796130e+02 3.248066e+01 6.395998e+02
      vertex   6.350000e+02 1.577095e+02 6.395998e+02
    endloop
  endfacet
  facet normal 0.000000e+00 0.000000e+00 -1.000000e+00
    outer loop
      vertex   6.350000e+02 1.577095e+02 6.395998e+02
      vertex   3.796130e+02 3.248066e+01 6.395998e+02
      vertex   3.685772e+02 9.649775e+01 6.395998e+02
    endloop
  endfacet
  facet normal -0.000000e+00 0.000000e+00 -1.000000e+00
    outer loop
      vertex   6.350000e+02 1.577095e+02 6.395998e+02
      vertex   3.685772e+02 9.649775e+01 6.395998e+02
      vertex   3.468266e+02 1.577095e+02 6.395998e+02
    endloop
  endfacet
  facet normal -3.945085e-16 1.717088e-15 1.000000e+00
    outer loop
      vertex   3.468266e+02 1.577095e+02 9.900655e+02
      vertex   3.685772e+02 9.649775e+01 9.900655e+02
      vertex   6.350000e+02 1.577095e+02 9.900655e+02
    endloop
  endfacet
  facet normal 0.000000e+00 0.000000e+00 1.000000e+00
    outer loop
      vertex   6.350000e+02 1.577095e+02 9.900655e+02
      vertex   3.685772e+02 9.649775e+01 9.900655e+02
      vertex   3.796130e+02 3.248066e+01 9.900655e+02
    endloop
  endfacet
  facet normal 0.000000e+00 0.000000e+00 1.000000e+00
    outer loop
      vertex   6.350000e+02 1.577095e+02 9.900655e+02
      vertex   3.796130e+02 3.248066e+01 9.900655e+02
      vertex   3.796130e+02 -3.248066e+01 9.900655e+02
    endloop
  endfacet
  facet normal 0.000000e+00 0.000000e+00 1.000000e+00
    outer loop
      vertex   6.350000e+02 1.577095e+02 9.900655e+02
      vertex   3.796130e+02 -3.248066e+01 9.900655e+02
      vertex   6.350000e+02 -1.577095e+02 9.900655e+02
    endloop
  endfacet
  facet normal 0.000000e+00 0.000000e+00 1.000000e+00
    outer loop
      vertex   6.350000e+02 -1.577095e+02 9.900655e+02
      vertex   3.796130e+02 -3.248066e+01 9.900655e+02
      vertex   3.685772e+02 -9.649775e+01 9.900655e+02
    endloop
  endfacet
  facet normal -3.945085e-16 -1.717088e-15 1.000000e+00
    outer loop
      vertex   6.350000e+02 -1.577095e+02 9.900655e+02
      vertex   3.685772e+02 -9.649775e+01 9.900655e+02
      vertex   3.468266e+02 -1.577095e+02 9.900655e+02
    endloop
  endfacet
  facet normal 3.945085e-16 -1.717088e-15 1.000000e+00
    outer loop
      vertex   -3.468266e+02 -1.577095e+02 9.900655e+02
      vertex   -3.685772e+02 -9.649775e+01 9.900655e+02
      vertex   -6.350000e+02 -1.577095e+02 9.900655e+02
    endloop
  endfacet
  facet normal 0.000000e+00 0.000000e+00 1.000000e+00
    outer loop
      vertex   -6.350000e+02 -1.577095e+02 9.900655e+02
      vertex   -3.685772e+02 -9.649775e+01 9.900655e+02
      vertex   -3.796130e+02 -3.248066e+01 9.900655e+02
    endloop
  endfacet
  facet normal 0.000000e+00 0.000000e+00 1.000000e+00
    outer loop
      vertex   -6.350000e+02 -1.577095e+02 9.900655e+02
      vertex   -3.796130e+02 -3.248066e+01 9.900655e+02
      vertex   -3.796130e+02 3.248066e+01 9.900655e+02
    endloop
  endfacet
  facet normal 0.000000e+00 0.000000e+00 1.000000e+00
    outer loop
      vertex   -6.350000e+02 -1.577095e+02 9.900655e+02
      vertex   -3.796130e+02 3.248066e+01 9.900655e+02
      vertex   -6.350000e+02 1.577095e+02 9.900655e+02
    endloop
  endfacet
  facet normal 0.000000e+00 0.000000e+00 1.000000e+00
    outer loop
      vertex   -6.350000e+02 1.577095e+02 9.900655e+02
      vertex   -3.796130e+02 3.248066e+01 9.900655e+02
      vertex   -3.685772e+02 9.649775e+01 9.900655e+02
    endloop
  endfacet
  facet normal 3.945085e-16 1.717088e-15 1.000000e+00
    outer loop
      vertex   -6.350000e+02 1.577095e+02 9.900655e+02
      vertex   -3.685772e+02 9.649775e+01 9.900655e+02
      vertex   -3.468266e+02 1.577095e+02 9.900655e+02
    endloop
  endfacet
  facet normal 0.000000e+00 1.000000e+00 0.000000e+00
    outer loop
      vertex   3.468266e+02 1.577095e+02 6.395998e+02
      vertex   3.468266e+02 1.577095e+02 9.900655e+02
      vertex   6.350000e+02 1.577095e+02 6.395998e+02
    endloop
  endfacet
  facet normal 0.000000e+00 1.000000e+00 -0.000000e+00
    outer loop
      vertex   6.350000e+02 1.577095e+02 6.395998e+02
      vertex   3.468266e+02 1.577095e+02 9.900655e+02
      vertex   6.350000e+02 1.577095e+02 9.900655e+02
    endloop
  endfacet
  facet normal 0.000000e+00 1.000000e+00 0.000000e+00
    outer loop
      vertex   -3.468266e+02 1.577095e+02 9.900655e+02
      vertex   -3.468266e+02 1.577095e+02 6.395998e+02
      vertex   -6.350000e+02 1.577095e+02 9.900655e+02
    endloop
  endfacet
  facet normal 0.000000e+00 1.000000e+00 0.000000e+00
    outer loop
      vertex   -6.350000e+02 1.577095e+02 9.900655e+02
      vertex   -3.468266e+02 1.577095e+02 6.395998e+02
      vertex   -6.350000e+02 1.577095e+02 6.395998e+02
    endloop
  endfacet
  facet normal -1.000000e+00 -0.000000e+00 -0.000000e+00
    outer loop
      vertex   -6.350000e+02 1.577095e+02 9.900655e+02
      vertex   -6.350000e+02 1.577095e+02 6.395998e+02
      vertex   -6.350000e+02 -1.577095e+02 9.900655e+02
    endloop
  endfacet
  facet normal -1.000000e+00 0.000000e+00 0.000000e+00
    outer loop
      vertex   -6.350000e+02 -1.577095e+02 9.900655e+02
      vertex   -6.350000e+02 1.577095e+02 6.395998e+02
      vertex   -6.350000e+02 -1.577095e+02 6.395998e+02
    endloop
  endfacet
  facet normal -0.000000e+00 0.000000e+00 -1.000000e+00
    outer loop
      vertex   -3.468266e+02 1.577095e+02 6.395998e+02
      vertex   -3.685772e+02 9.649775e+01 6.395998e+02
      vertex   -6.350000e+02 1.577095e+02 6.395998e+02
    endloop
  endfacet
  facet normal 0.000000e+00 0.000000e+00 -1.000000e+00
    outer loop
      vertex   -6.350000e+02 1.577095e+02 6.395998e+02
      vertex   -3.685772e+02 9.649775e+01 6.395998e+02
      vertex   -3.796130e+02 3.248066e+01 6.395998e+02
    endloop
  endfacet
  facet normal 0.000000e+00 0.000000e+00 -1.000000e+00
    outer loop
      vertex   -6.350000e+02 1.577095e+02 6.395998e+02
      vertex   -3.796130e+02 3.248066e+01 6.395998e+02
      vertex   -3.796130e+02 -3.248066e+01 6.395998e+02
    endloop
  endfacet
  facet normal 0.000000e+00 0.000000e+00 -1.000000e+00
    outer loop
      vertex   -6.350000e+02 1.577095e+02 6.395998e+02
      vertex   -3.796130e+02 -3.248066e+01 6.395998e+02
      vertex   -6.350000e+02 -1.577095e+02 6.395998e+02
    endloop
  endfacet
  facet normal 0.000000e+00 0.000000e+00 -1.000000e+00
    outer loop
      vertex   -6.350000e+02 -1.577095e+02 6.395998e+02
      vertex   -3.796130e+02 -3.248066e+01 6.395998e+02
      vertex   -3.685772e+02 -9.649775e+01 6.395998e+02
    endloop
  endfacet
  facet normal 0.000000e+00 0.000000e+00 -1.000000e+00
    outer loop
      vertex   -6.350000e+02 -1.577095e+02 6.395998e+02
      vertex   -3.685772e+02 -9.649775e+01 6.395998e+02
      vertex   -3.468266e+02 -1.577095e+02 6.395998e+02
    endloop
  endfacet
  facet normal 0.000000e+00 -1.000000e+00 0.000000e+00
    outer loop
      vertex   -3.468266e+02 -1.577095e+02 6.395998e+02
      vertex   -3.468266e+02 -1.577095e+02 9.900655e+02
      vertex   -6.350000e+02 -1.577095e+02 6.395998e+02
    endloop
  endfacet
  facet normal 0.000000e+00 -1.000000e+00 0.000000e+00
    outer loop
      vertex   -6.350000e+02 -1.577095e+02 6.395998e+02
      vertex   -3.468266e+02 -1.577095e+02 9.900655e+02
      vertex   -6.350000e+02 -1.577095e+02 9.900655e+02
    endloop
  endfacet
  facet normal 1.000000e+00 -0.000000e+00 0.000000e+00
    outer loop
      vertex   6.350000e+02 -1.577095e+02 9.900655e+02
      vertex   6.350000e+02 -1.577095e+02 6.395998e+02
      vertex   6.350000e+02 1.577095e+02 9.900655e+02
    endloop
  endfacet
  facet normal 1.000000e+00 0.000000e+00 0.000000e+00
    outer loop
      vertex   6.350000e+02 1.577095e+02 9.900655e+02
      vertex   6.350000e+02 -1.577095e+02 6.395998e+02
      vertex   6.350000e+02 1.577095e+02 6.395998e+02
    endloop
  endfacet
  facet normal -8.737624e-01 4.863531e-01 0.000000e+00
    outer loop
      vertex   -3.468266e+02 1.577095e+02 9.900655e+02
      vertex   -3.167899e+02 2.116723e+02 1.270000e+03
      vertex   -3.468266e+02 1.577095e+02 6.395998e+02
    endloop
  endfacet
  facet normal -8.737624e-01 4.863531e-01 0.000000e+00
    outer loop
      vertex   -3.468266e+02 1.577095e+02 6.395998e+02
      vertex   -3.167899e+02 2.116723e+02 1.270000e+03
      vertex   -3.167899e+02 2.116723e+02 0.000000e+00
    endloop
  endfacet
  facet normal -8.819201e-01 4.713961e-01 -1.645009e-03
    outer loop
      vertex   -3.468266e+02 1.577095e+02 6.395998e+02
      vertex   -3.167899e+02 2.116723e+02 0.000000e+00
      vertex   -3.519981e+02 1.458024e+02 0.000000e+00
    endloop
  endfacet
  facet normal -8.819150e-01 4.713934e-01 3.758528e-03
    outer loop
      vertex   -3.167899e+02 2.116723e+02 1.270000e+03
      vertex   -3.468266e+02 1.577095e+02 9.900655e+02
      vertex   -3.519981e+02 1.458024e+02 1.270000e+03
    endloop
  endfacet
  facet normal -9.422759e-01 3.348226e-01 -3.165682e-03
    outer loop
      vertex   -3.519981e+02 1.458024e+02 1.270000e+03
      vertex   -3.468266e+02 1.577095e+02 9.900655e+02
      vertex   -3.685772e+02 9.649775e+01 9.900655e+02
    endloop
  endfacet
  facet normal -9.569256e-01 2.902802e-01 5.547170e-03
    outer loop
      vertex   -3.519981e+02 1.458024e+02 1.270000e+03
      vertex   -3.685772e+02 9.649775e+01 9.900655e+02
      vertex   -3.736792e+02 7.432941e+01 1.270000e+03
    endloop
  endfacet
  facet normal -9.854545e-01 1.698797e-01 -4.507435e-03
    outer loop
      vertex   -3.736792e+02 7.432941e+01 1.270000e+03
      vertex   -3.685772e+02 9.649775e+01 9.900655e+02
      vertex   -3.796130e+02 3.248066e+01 9.900655e+02
    endloop
  endfacet
  facet normal -9.951641e-01 9.801511e-02 6.441766e-03
    outer loop
      vertex   -3.736792e+02 7.432941e+01 1.270000e+03
      vertex   -3.796130e+02 3.248066e+01 9.900655e+02
      vertex   -3.810000e+02 0.000000e+00 1.270000e+03
    endloop
  endfacet
  facet normal -9.999877e-01 -8.752287e-16 -4.954779e-03
    outer loop
      vertex   -3.810000e+02 0.000000e+00 1.270000e+03
      vertex   -3.796130e+02 3.248066e+01 9.900655e+02
      vertex   -3.796130e+02 -3.248066e+01 9.900655e+02
    endloop
  endfacet
  facet normal -9.951641e-01 -9.801511e-02 6.441766e-03
    outer loop
      vertex   -3.810000e+02 0.000000e+00 1.270000e+03
      vertex   -3.796130e+02 -3.248066e+01 9.900655e+02
      vertex   -3.736792e+02 -7.432941e+01 1.270000e+03
    endloop
  endfacet
  facet normal -9.854545e-01 -1.698797e-01 -4.507435e-03
    outer loop
      vertex   -3.736792e+02 -7.432941e+01 1.270000e+03
      vertex   -3.796130e+02 -3.248066e+01 9.900655e+02
      vertex   -3.685772e+02 -9.649775e+01 9.900655e+02
    endloop
  endfacet
  facet normal -9.569256e-01 -2.902802e-01 5.547170e-03
    outer loop
      vertex   -3.736792e+02 -7.432941e+01 1.270000e+03
      vertex   -3.685772e+02 -9.649775e+01 9.900655e+02
      vertex   -3.519981e+02 -1.458024e+02 1.270000e+03
    endloop
  endfacet
  facet normal -9.422759e-01 -3.348226e-01 -3.165682e-03
    outer loop
      vertex   -3.519981e+02 -1.458024e+02 1.270000e+03
      vertex   -3.685772e+02 -9.649775e+01 9.900655e+02
      vertex   -3.468266e+02 -1.577095e+02 9.900655e+02
    endloop
  endfacet
  facet normal -8.819150e-01 -4.713934e-01 3.758528e-03
    outer loop
      vertex   -3.519981e+02 -1.458024e+02 1.270000e+03
      vertex   -3.468266e+02 -1.577095e+02 9.900655e+02
      vertex   -3.167899e+02 -2.116723e+02 1.270000e+03
    endloop
  endfacet
  facet normal -8.737624e-01 -4.863531e-01 0.000000e+00
    outer loop
      vertex   -3.167899e+02 -2.116723e+02 1.270000e+03
      vertex   -3.468266e+02 -1.577095e+02 9.900655e+02
      vertex   -3.468266e+02 -1.577095e+02 6.395998e+02
    endloop
  endfacet
  facet normal -8.737624e-01 -4.863531e-01 -0.000000e+00
    outer loop
      vertex   -3.167899e+02 -2.116723e+02 1.270000e+03
      vertex   -3.468266e+02 -1.577095e+02 6.395998e+02
      vertex   -3.167899e+02 -2.116723e+02 0.000000e+00
    endloop
  endfacet
  facet normal -8.819201e-01 -4.713961e-01 -1.645009e-03
    outer loop
      vertex   -3.167899e+02 -2.116723e+02 0.000000e+00
      vertex   -3.468266e+02 -1.577095e+02 6.395998e+02
      vertex   -3.519981e+02 -1.458024e+02 0.000000e+00
    endloop
  endfacet
  facet normal -9.422797e-01 -3.348240e-01 1.385534e-03
    outer loop
      vertex   -3.519981e+02 -1.458024e+02 0.000000e+00
      vertex   -3.468266e+02 -1.577095e+02 6.395998e+02
      vertex   -3.685772e+02 -9.649775e+01 6.395998e+02
    endloop
  endfacet
  facet normal -9.569375e-01 -2.902838e-01 -2.427867e-03
    outer loop
      vertex   -3.519981e+02 -1.458024e+02 0.000000e+00
      vertex   -3.685772e+02 -9.649775e+01 6.395998e+02
      vertex   -3.736792e+02 -7.432941e+01 0.000000e+00
    endloop
  endfacet
  facet normal -9.854626e-01 -1.698811e-01 1.972791e-03
    outer loop
      vertex   -3.736792e+02 -7.432941e+01 0.000000e+00
      vertex   -3.685772e+02 -9.649775e+01 6.395998e+02
      vertex   -3.796130e+02 -3.248066e+01 6.395998e+02
    endloop
  endfacet
  facet normal -9.951808e-01 -9.801675e-02 -2.819424e-03
    outer loop
      vertex   -3.736792e+02 -7.432941e+01 0.000000e+00
      vertex   -3.796130e+02 -3.248066e+01 6.395998e+02
      vertex   -3.810000e+02 0.000000e+00 0.000000e+00
    endloop
  endfacet
  facet normal -9.999976e-01 8.755801e-16 2.168586e-03
    outer loop
      vertex   -3.810000e+02 0.000000e+00 0.000000e+00
      vertex   -3.796130e+02 -3.248066e+01 6.395998e+02
      vertex   -3.796130e+02 3.248066e+01 6.395998e+02
    endloop
  endfacet
  facet normal -9.951808e-01 9.801675e-02 -2.819424e-03
    outer loop
      vertex   -3.810000e+02 0.000000e+00 0.000000e+00
      vertex   -3.796130e+02 3.248066e+01 6.395998e+02
      vertex   -3.736792e+02 7.432941e+01 0.000000e+00
    endloop
  endfacet
  facet normal -9.854626e-01 1.698811e-01 1.972791e-03
    outer loop
      vertex   -3.736792e+02 7.432941e+01 0.000000e+00
      vertex   -3.796130e+02 3.248066e+01 6.395998e+02
      vertex   -3.685772e+02 9.649775e+01 6.395998e+02
    endloop
  endfacet
  facet normal -9.569375e-01 2.902838e-01 -2.427867e-03
    outer loop
      vertex   -3.736792e+02 7.432941e+01 0.000000e+00
      vertex   -3.685772e+02 9.649775e+01 6.395998e+02
      vertex   -3.519981e+02 1.458024e+02 0.000000e+00
    endloop
  endfacet
  facet normal -9.422797e-01 3.348240e-01 1.385534e-03
    outer loop
      vertex   -3.519981e+02 1.458024e+02 0.000000e+00
      vertex   -3.685772e+02 9.649775e+01 6.395998e+02
      vertex   -3.468266e+02 1.577095e+02 6.395998e+02
    endloop
  endfacet
  facet normal 8.737624e-01 4.863531e-01 -0.000000e+00
    outer loop
      vertex   3.468266e+02 1.577095e+02 6.395998e+02
      vertex   3.167899e+02 2.116723e+02 1.270000e+03
      vertex   3.468266e+02 1.577095e+02 9.900655e+02
    endloop
  endfacet
  facet normal 8.819150e-01 4.713934e-01 3.758528e-03
    outer loop
      vertex   3.468266e+02 1.577095e+02 9.900655e+02
      vertex   3.167899e+02 2.116723e+02 1.270000e+03
      vertex   3.519981e+02 1.458024e+02 1.270000e+03
    endloop
  endfacet
  facet normal 9.422759e-01 3.348226e-01 -3.165682e-03
    outer loop
      vertex   3.468266e+02 1.577095e+02 9.900655e+02
      vertex   3.519981e+02 1.458024e+02 1.270000e+03
      vertex   3.685772e+02 9.649775e+01 9.900655e+02
    endloop
  endfacet
  facet normal 9.569256e-01 2.902802e-01 5.547170e-03
    outer loop
      vertex   3.685772e+02 9.649775e+01 9.900655e+02
      vertex   3.519981e+02 1.458024e+02 1.270000e+03
      vertex   3.736792e+02 7.432941e+01 1.270000e+03
    endloop
  endfacet
  facet normal 9.854545e-01 1.698797e-01 -4.507435e-03
    outer loop
      vertex   3.685772e+02 9.649775e+01 9.900655e+02
      vertex   3.736792e+02 7.432941e+01 1.270000e+03
      vertex   3.796130e+02 3.248066e+01 9.900655e+02
    endloop
  endfacet
  facet normal 9.951641e-01 9.801511e-02 6.441766e-03
    outer loop
      vertex   3.796130e+02 3.248066e+01 9.900655e+02
      vertex   3.736792e+02 7.432941e+01 1.270000e+03
      vertex   3.810000e+02 4.665904e-14 1.270000e+03
    endloop
  endfacet
  facet normal 9.999877e-01 -8.750240e-16 -4.954779e-03
    outer loop
      vertex   3.796130e+02 3.248066e+01 9.900655e+02
      vertex   3.810000e+02 4.665904e-14 1.270000e+03
      vertex   3.796130e+02 -3.248066e+01 9.900655e+02
    endloop
  endfacet
  facet normal 9.951641e-01 -9.801511e-02 6.441766e-03
    outer loop
      vertex   3.796130e+02 -3.248066e+01 9.900655e+02
      vertex   3.810000e+02 4.665904e-14 1.270000e+03
      vertex   3.736792e+02 -7.432941e+01 1.270000e+03
    endloop
  endfacet
  facet normal 9.854545e-01 -1.698797e-01 -4.507435e-03
    outer loop
      vertex   3.796130e+02 -3.248066e+01 9.900655e+02
      vertex   3.736792e+02 -7.432941e+01 1.270000e+03
      vertex   3.685772e+02 -9.649775e+01 9.900655e+02
    endloop
  endfacet
  facet normal 9.569256e-01 -2.902802e-01 5.547170e-03
    outer loop
      vertex   3.685772e+02 -9.649775e+01 9.900655e+02
      vertex   3.736792e+02 -7.432941e+01 1.270000e+03
      vertex   3.519981e+02 -1.458024e+02 1.270000e+03
    endloop
  endfacet
  facet normal 9.422759e-01 -3.348226e-01 -3.165682e-03
    outer loop
      vertex   3.685772e+02 -9.649775e+01 9.900655e+02
      vertex   3.519981e+02 -1.458024e+02 1.270000e+03
      vertex   3.468266e+02 -1.577095e+02 9.900655e+02
    endloop
  endfacet
  facet normal 8.819150e-01 -4.713934e-01 3.758528e-03
    outer loop
      vertex   3.468266e+02 -1.577095e+02 9.900655e+02
      vertex   3.519981e+02 -1.458024e+02 1.270000e+03
      vertex   3.167899e+02 -2.116723e+02 1.270000e+03
    endloop
  endfacet
  facet normal 8.737624e-01 -4.863531e-01 0.000000e+00
    outer loop
      vertex   3.468266e+02 -1.577095e+02 9.900655e+02
      vertex   3.167899e+02 -2.116723e+02 1.270000e+03
      vertex   3.468266e+02 -1.577095e+02 6.395998e+02
    endloop
  endfacet
  facet normal 8.737624e-01 -4.863531e-01 0.000000e+00
    outer loop
      vertex   3.468266e+02 -1.577095e+02 6.395998e+02
      vertex   3.167899e+02 -2.116723e+02 1.270000e+03
      vertex   3.167899e+02 -2.116723e+02 0.000000e+00
    endloop
  endfacet
  facet normal 8.819201e-01 -4.713961e-01 -1.645009e-03
    outer loop
      vertex   3.468266e+02 -1.577095e+02 6.395998e+02
      vertex   3.167899e+02 -2.116723e+02 0.000000e+00
      vertex   3.519981e+02 -1.458024e+02 0.000000e+00
    endloop
  endfacet
  facet normal 9.422797e-01 3.348240e-01 1.385534e-03
    outer loop
      vertex   3.685772e+02 9.649775e+01 6.395998e+02
      vertex   3.519981e+02 1.458024e+02 0.000000e+00
      vertex   3.468266e+02 1.577095e+02 6.395998e+02
    endloop
  endfacet
  facet normal 8.819201e-01 4.713961e-01 -1.645009e-03
    outer loop
      vertex   3.468266e+02 1.577095e+02 6.395998e+02
      vertex   3.519981e+02 1.458024e+02 0.000000e+00
      vertex   3.167899e+02 2.116723e+02 0.000000e+00
    endloop
  endfacet
  facet normal 8.737624e-01 4.863531e-01 0.000000e+00
    outer loop
      vertex   3.468266e+02 1.577095e+02 6.395998e+02
      vertex   3.167899e+02 2.116723e+02 0.000000e+00
      vertex   3.167899e+02 2.116723e+02 1.270000e+03
    endloop
  endfacet
  facet normal 7.730105e-01 6.343933e-01 0.000000e+00
    outer loop
      vertex   3.167899e+02 2.116723e+02 1.270000e+03
      vertex   3.167899e+02 2.116723e+02 0.000000e+00
      vertex   2.694077e+02 2.694077e+02 0.000000e+00
    endloop
  endfacet
  facet normal 7.730105e-01 6.343933e-01 0.000000e+00
    outer loop
      vertex   3.167899e+02 2.116723e+02 1.270000e+03
      vertex   2.694077e+02 2.694077e+02 0.000000e+00
      vertex   2.694077e+02 2.694077e+02 1.270000e+03
    endloop
  endfacet
  facet normal 6.343933e-01 7.730105e-01 0.000000e+00
    outer loop
      vertex   2.694077e+02 2.694077e+02 1.270000e+03
      vertex   2.694077e+02 2.694077e+02 0.000000e+00
      vertex   2.116723e+02 3.167899e+02 0.000000e+00
    endloop
  endfacet
  facet normal 6.343933e-01 7.730105e-01 0.000000e+00
    outer loop
      vertex   2.694077e+02 2.694077e+02 1.270000e+03
      vertex   2.116723e+02 3.167899e+02 0.000000e+00
      vertex   2.116723e+02 3.167899e+02 1.270000e+03
    endloop
  endfacet
  facet normal 4.713967e-01 8.819213e-01 0.000000e+00
    outer loop
      vertex   2.116723e+02 3.167899e+02 1.270000e+03
      vertex   2.116723e+02 3.167899e+02 0.000000e+00
      vertex   1.458024e+02 3.519981e+02 0.000000e+00
    endloop
  endfacet
  facet normal 4.713967e-01 8.819213e-01 1.438238e-17
    outer loop
      vertex   2.116723e+02 3.167899e+02 1.270000e+03
      vertex   1.458024e+02 3.519981e+02 0.000000e+00
      vertex   1.458024e+02 3.519981e+02 1.270000e+03
    endloop
  endfacet
  facet normal 2.902847e-01 9.569403e-01 -1.034947e-17
    outer loop
      vertex   1.458024e+02 3.519981e+02 1.270000e+03
      vertex   1.458024e+02 3.519981e+02 0.000000e+00
      vertex   7.432941e+01 3.736792e+02 0.000000e+00
    endloop
  endfacet
  facet normal 2.902847e-01 9.569403e-01 1.917650e-17
    outer loop
      vertex   1.458024e+02 3.519981e+02 1.270000e+03
      vertex   7.432941e+01 3.736792e+02 0.000000e+00
      vertex   7.432941e+01 3.736792e+02 1.270000e+03
    endloop
  endfacet
  facet normal 9.801714e-02 9.951847e-01 6.580665e-18
    outer loop
      vertex   7.432941e+01 3.736792e+02 1.270000e+03
      vertex   7.432941e+01 3.736792e+02 0.000000e+00
      vertex   -2.332952e-14 3.810000e+02 0.000000e+00
    endloop
  endfacet
  facet normal 9.801714e-02 9.951847e-01 0.000000e+00
    outer loop
      vertex   7.432941e+01 3.736792e+02 1.270000e+03
      vertex   -2.332952e-14 3.810000e+02 0.000000e+00
      vertex   -2.332952e-14 3.810000e+02 1.270000e+03
    endloop
  endfacet
  facet normal -9.801714e-02 9.951847e-01 0.000000e+00
    outer loop
      vertex   -2.332952e-14 3.810000e+02 1.270000e+03
      vertex   -2.332952e-14 3.810000e+02 0.000000e+00
      vertex   -7.432941e+01 3.736792e+02 0.000000e+00
    endloop
  endfacet
  facet normal -9.801714e-02 9.951847e-01 5.992658e-18
    outer loop
      vertex   -2.332952e-14 3.810000e+02 1.270000e+03
      vertex   -7.432941e+01 3.736792e+02 0.000000e+00
      vertex   -7.432941e+01 3.736792e+02 1.270000e+03
    endloop
  endfacet
  facet normal -2.902847e-01 9.569403e-01 1.624092e-17
    outer loop
      vertex   -7.432941e+01 3.736792e+02 1.270000e+03
      vertex   -7.432941e+01 3.736792e+02 0.000000e+00
      vertex   -1.458024e+02 3.519981e+02 0.000000e+00
    endloop
  endfacet
  facet normal -2.902847e-01 9.569403e-01 -9.588252e-18
    outer loop
      vertex   -7.432941e+01 3.736792e+02 1.270000e+03
      vertex   -1.458024e+02 3.519981e+02 0.000000e+00
      vertex   -1.458024e+02 3.519981e+02 1.270000e+03
    endloop
  endfacet
  facet normal -4.713967e-01 8.819213e-01 1.327408e-17
    outer loop
      vertex   -1.458024e+02 3.519981e+02 1.270000e+03
      vertex   -1.458024e+02 3.519981e+02 0.000000e+00
      vertex   -2.116723e+02 3.167899e+02 0.000000e+00
    endloop
  endfacet
  facet normal -4.713967e-01 8.819213e-01 0.000000e+00
    outer loop
      vertex   -1.458024e+02 3.519981e+02 1.270000e+03
      vertex   -2.116723e+02 3.167899e+02 0.000000e+00
      vertex   -2.116723e+02 3.167899e+02 1.270000e+03
    endloop
  endfacet
  facet normal -6.343933e-01 7.730105e-01 0.000000e+00
    outer loop
      vertex   -2.116723e+02 3.167899e+02 1.270000e+03
      vertex   -2.116723e+02 3.167899e+02 0.000000e+00
      vertex   -2.694077e+02 2.694077e+02 0.000000e+00
    endloop
  endfacet
  facet normal -6.343933e-01 7.730105e-01 0.000000e+00
    outer loop
      vertex   -2.116723e+02 3.167899e+02 1.270000e+03
      vertex   -2.694077e+02 2.694077e+02 0.000000e+00
      vertex   -2.694077e+02 2.694077e+02 1.270000e+03
    endloop
  endfacet
  facet normal -7.730105e-01 6.343933e-01 0.000000e+00
    outer loop
      vertex   -2.694077e+02 2.694077e+02 1.270000e+03
      vertex   -2.694077e+02 2.694077e+02 0.000000e+00
      vertex   -3.167899e+02 2.116723e+02 0.000000e+00
    endloop
  endfacet
  facet normal -7.730105e-01 6.343933e-01 0.000000e+00
    outer loop
      vertex   -2.694077e+02 2.694077e+02 1.270000e+03
      vertex   -3.167899e+02 2.116723e+02 0.000000e+00
      vertex   -3.167899e+02 2.116723e+02 1.270000e+03
    endloop
  endfacet
  facet normal 9.569375e-01 2.902838e-01 -2.427867e-03
    outer loop
      vertex   3.519981e+02 1.458024e+02 0.000000e+00
      vertex   3.685772e+02 9.649775e+01 6.395998e+02
      vertex   3.736792e+02 7.432941e+01 0.000000e+00
    endloop
  endfacet
  facet normal 9.854626e-01 1.698811e-01 1.972791e-03
    outer loop
      vertex   3.736792e+02 7.432941e+01 0.000000e+00
      vertex   3.685772e+02 9.649775e+01 6.395998e+02
      vertex   3.796130e+02 3.248066e+01 6.395998e+02
    endloop
  endfacet
  facet normal 9.951808e-01 9.801675e-02 -2.819424e-03
    outer loop
      vertex   3.736792e+02 7.432941e+01 0.000000e+00
      vertex   3.796130e+02 3.248066e+01 6.395998e+02
      vertex   3.810000e+02 4.665904e-14 0.000000e+00
    endloop
  endfacet
  facet normal 9.999976e-01 8.755801e-16 2.168586e-03
    outer loop
      vertex   3.810000e+02 4.665904e-14 0.000000e+00
      vertex   3.796130e+02 3.248066e+01 6.395998e+02
      vertex   3.796130e+02 -3.248066e+01 6.395998e+02
    endloop
  endfacet
  facet normal 9.951808e-01 -9.801675e-02 -2.819424e-03
    outer loop
      vertex   3.810000e+02 4.665904e-14 0.000000e+00
      vertex   3.796130e+02 -3.248066e+01 6.395998e+02
      vertex   3.736792e+02 -7.432941e+01 0.000000e+00
    endloop
  endfacet
  facet normal 9.854626e-01 -1.698811e-01 1.972791e-03
    outer loop
      vertex   3.736792e+02 -7.432941e+01 0.000000e+00
      vertex   3.796130e+02 -3.248066e+01 6.395998e+02
      vertex   3.685772e+02 -9.649775e+01 6.395998e+02
    endloop
  endfacet
  facet normal 9.569375e-01 -2.902838e-01 -2.427867e-03
    outer loop
      vertex   3.736792e+02 -7.432941e+01 0.000000e+00
      vertex   3.685772e+02 -9.649775e+01 6.395998e+02
      vertex   3.519981e+02 -1.458024e+02 0.000000e+00
    endloop
  endfacet
  facet normal 9.422797e-01 -3.348240e-01 1.385534e-03
    outer loop
      vertex   3.519981e+02 -1.458024e+02 0.000000e+00
      vertex   3.685772e+02 -9.649775e+01 6.395998e+02
      vertex   3.468266e+02 -1.577095e+02 6.395998e+02
    endloop
  endfacet
  facet normal 7.730105e-01 -6.343933e-01 0.000000e+00
    outer loop
      vertex   3.167899e+02 -2.116723e+02 1.270000e+03
      vertex   2.694077e+02 -2.694077e+02 1.270000e+03
      vertex   3.167899e+02 -2.116723e+02 0.000000e+00
    endloop
  endfacet
  facet normal 7.730105e-01 -6.343933e-01 0.000000e+00
    outer loop
      vertex   3.167899e+02 -2.116723e+02 0.000000e+00
      vertex   2.694077e+02 -2.694077e+02 1.270000e+03
      vertex   2.694077e+02 -2.694077e+02 0.000000e+00
    endloop
  endfacet
  facet normal 6.343933e-01 -7.730105e-01 0.000000e+00
    outer loop
      vertex   2.694077e+02 -2.694077e+02 0.000000e+00
      vertex   2.694077e+02 -2.694077e+02 1.270000e+03
      vertex   2.116723e+02 -3.167899e+02 1.270000e+03
    endloop
  endfacet
  facet normal 6.343933e-01 -7.730105e-01 0.000000e+00
    outer loop
      vertex   2.694077e+02 -2.694077e+02 0.000000e+00
      vertex   2.116723e+02 -3.167899e+02 1.270000e+03
      vertex   2.116723e+02 -3.167899e+02 0.000000e+00
    endloop
  endfacet
  facet normal 4.713967e-01 -8.819213e-01 0.000000e+00
    outer loop
      vertex   2.116723e+02 -3.167899e+02 0.000000e+00
      vertex   2.116723e+02 -3.167899e+02 1.270000e+03
      vertex   1.458024e+02 -3.519981e+02 1.270000e+03
    endloop
  endfacet
  facet normal 4.713967e-01 -8.819213e-01 -1.438238e-17
    outer loop
      vertex   2.116723e+02 -3.167899e+02 0.000000e+00
      vertex   1.458024e+02 -3.519981e+02 1.270000e+03
      vertex   1.458024e+02 -3.519981e+02 0.000000e+00
    endloop
  endfacet
  facet normal 2.902847e-01 -9.569403e-01 1.034947e-17
    outer loop
      vertex   1.458024e+02 -3.519981e+02 0.000000e+00
      vertex   1.458024e+02 -3.519981e+02 1.270000e+03
      vertex   7.432941e+01 -3.736792e+02 1.270000e+03
    endloop
  endfacet
  facet normal 2.902847e-01 -9.569403e-01 -1.917650e-17
    outer loop
      vertex   1.458024e+02 -3.519981e+02 0.000000e+00
      vertex   7.432941e+01 -3.736792e+02 1.270000e+03
      vertex   7.432941e+01 -3.736792e+02 0.000000e+00
    endloop
  endfacet
  facet normal 9.801714e-02 -9.951847e-01 -6.580665e-18
    outer loop
      vertex   7.432941e+01 -3.736792e+02 0.000000e+00
      vertex   7.432941e+01 -3.736792e+02 1.270000e+03
      vertex   -2.332952e-14 -3.810000e+02 1.270000e+03
    endloop
  endfacet
  facet normal 9.801714e-02 -9.951847e-01 0.000000e+00
    outer loop
      vertex   7.432941e+01 -3.736792e+02 0.000000e+00
      vertex   -2.332952e-14 -3.810000e+02 1.270000e+03
      vertex   -2.332952e-14 -3.810000e+02 0.000000e+00
    endloop
  endfacet
  facet normal -9.801714e-02 -9.951847e-01 0.000000e+00
    outer loop
      vertex   -2.332952e-14 -3.810000e+02 0.000000e+00
      vertex   -2.332952e-14 -3.810000e+02 1.270000e+03
      vertex   -7.432941e+01 -3.736792e+02 1.270000e+03
    endloop
  endfacet
  facet normal -9.801714e-02 -9.951847e-01 -5.992658e-18
    outer loop
      vertex   -2.332952e-14 -3.810000e+02 0.000000e+00
      vertex   -7.432941e+01 -3.736792e+02 1.270000e+03
      vertex   -7.432941e+01 -3.736792e+02 0.000000e+00
    endloop
  endfacet
  facet normal -2.902847e-01 -9.569403e-01 -1.624092e-17
    outer loop
      vertex   -7.432941e+01 -3.736792e+02 0.000000e+00
      vertex   -7.432941e+01 -3.736792e+02 1.270000e+03
      vertex   -1.458024e+02 -3.519981e+02 1.270000e+03
    endloop
  endfacet
  facet normal -2.902847e-01 -9.569403e-01 9.588252e-18
    outer loop
      vertex   -7.432941e+01 -3.736792e+02 0.000000e+00
      vertex   -1.458024e+02 -3.519981e+02 1.270000e+03
      vertex   -1.458024e+02 -3.519981e+02 0.000000e+00
    endloop
  endfacet
  facet normal -4.713967e-01 -8.819213e-01 -1.327408e-17
    outer loop
      vertex   -1.458024e+02 -3.519981e+02 0.000000e+00
      vertex   -1.458024e+02 -3.519981e+02 1.270000e+03
      vertex   -2.116723e+02 -3.167899e+02 1.270000e+03
    endloop
  endfacet
  facet normal -4.713967e-01 -8.819213e-01 0.000000e+00
    outer loop
      vertex   -1.458024e+02 -3.519981e+02 0.000000e+00
      vertex   -2.116723e+02 -3.167899e+02 1.270000e+03
      vertex   -2.116723e+02 -3.167899e+02 0.000000e+00
    endloop
  endfacet
  facet normal -6.343933e-01 -7.730105e-01 0.000000e+00
    outer loop
      vertex   -2.116723e+02 -3.167899e+02 0.000000e+00
      vertex   -2.116723e+02 -3.167899e+02 1.270000e+03
      vertex   -2.694077e+02 -2.694077e+02 1.270000e+03
    endloop
  endfacet
  facet normal -6.343933e-01 -7.730105e-01 0.000000e+00
    outer loop
      vertex   -2.116723e+02 -3.167899e+02 0.000000e+00
      vertex   -2.694077e+02 -2.694077e+02 1.270000e+03
      vertex   -2.694077e+02 -2.694077e+02 0.000000e+00
    endloop
  endfacet
  facet normal -7.730105e-01 -6.343933e-01 0.000000e+00
    outer loop
      vertex   -2.694077e+02 -2.694077e+02 0.000000e+00
      vertex   -2.694077e+02 -2.694077e+02 1.270000e+03
      vertex   -3.167899e+02 -2.116723e+02 1.270000e+03
    endloop
  endfacet
  facet normal -7.730105e-01 -6.343933e-01 0.000000e+00
    outer loop
      vertex   -2.694077e+02 -2.694077e+02 0.000000e+00
      vertex   -3.167899e+02 -2.116723e+02 1.270000e+03
      vertex   -3.167899e+02 -2.116723e+02 0.000000e+00
    endloop
  endfacet
  facet normal 0.000000e+00 0.000000e+00 -1.000000e+00
    outer loop
      vertex   3.736792e+02 -7.432941e+01 0.000000e+00
      vertex   -3.736792e+02 -7.432941e+01 0.000000e+00
      vertex   3.810000e+02 4.665904e-14 0.000000e+00
    endloop
  endfacet
  facet normal 0.000000e+00 0.000000e+00 -1.000000e+00
    outer loop
      vertex   3.810000e+02 4.665904e-14 0.000000e+00
      vertex   -3.736792e+02 -7.432941e+01 0.000000e+00
      vertex   -3.810000e+02 0.000000e+00 0.000000e+00
    endloop
  endfacet
  facet normal -0.000000e+00 0.000000e+00 -1.000000e+00
    outer loop
      vertex   3.810000e+02 4.665904e-14 0.000000e+00
      vertex   -3.810000e+02 0.000000e+00 0.000000e+00
      vertex   3.736792e+02 7.432941e+01 0.000000e+00
    endloop
  endfacet
  facet normal 0.000000e+00 0.000000e+00 -1.000000e+00
    outer loop
      vertex   3.736792e+02 7.432941e+01 0.000000e+00
      vertex   -3.810000e+02 0.000000e+00 0.000000e+00
      vertex   -3.736792e+02 7.432941e+01 0.000000e+00
    endloop
  endfacet
  facet normal -0.000000e+00 0.000000e+00 -1.000000e+00
    outer loop
      vertex   3.736792e+02 7.432941e+01 0.000000e+00
      vertex   -3.736792e+02 7.432941e+01 0.000000e+00
      vertex   3.519981e+02 1.458024e+02 0.000000e+00
    endloop
  endfacet
  facet normal 0.000000e+00 0.000000e+00 -1.000000e+00
    outer loop
      vertex   3.519981e+02 1.458024e+02 0.000000e+00
      vertex   -3.736792e+02 7.432941e+01 0.000000e+00
      vertex   -3.519981e+02 1.458024e+02 0.000000e+00
    endloop
  endfacet
  facet normal -0.000000e+00 0.000000e+00 -1.000000e+00
    outer loop
      vertex   3.519981e+02 1.458024e+02 0.000000e+00
      vertex   -3.519981e+02 1.458024e+02 0.000000e+00
      vertex   3.167899e+02 2.116723e+02 0.000000e+00
    endloop
  endfacet
  facet normal 0.000000e+00 0.000000e+00 -1.000000e+00
    outer loop
      vertex   3.167899e+02 2.116723e+02 0.000000e+00
      vertex   -3.519981e+02 1.458024e+02 0.000000e+00
      vertex   -3.167899e+02 2.116723e+02 0.000000e+00
    endloop
  endfacet
  facet normal -0.000000e+00 0.000000e+00 -1.000000e+00
    outer loop
      vertex   3.167899e+02 2.116723e+02 0.000000e+00
      vertex   -3.167899e+02 2.116723e+02 0.000000e+00
      vertex   2.694077e+02 2.694077e+02 0.000000e+00
    endloop
  endfacet
  facet normal -0.000000e+00 0.000000e+00 -1.000000e+00
    outer loop
      vertex   2.694077e+02 2.694077e+02 0.000000e+00
      vertex   -3.167899e+02 2.116723e+02 0.000000e+00
      vertex   -2.694077e+02 2.694077e+02 0.000000e+00
    endloop
  endfacet
  facet normal 0.000000e+00 0.000000e+00 -1.000000e+00
    outer loop
      vertex   2.694077e+02 2.694077e+02 0.000000e+00
      vertex   -2.694077e+02 2.694077e+02 0.000000e+00
      vertex   2.116723e+02 3.167899e+02 0.000000e+00
    endloop
  endfacet
  facet normal -0.000000e+00 0.000000e+00 -1.000000e+00
    outer loop
      vertex   2.116723e+02 3.167899e+02 0.000000e+00
      vertex   -2.694077e+02 2.694077e+02 0.000000e+00
      vertex   -2.116723e+02 3.167899e+02 0.000000e+00
    endloop
  endfacet
  facet normal 0.000000e+00 0.000000e+00 -1.000000e+00
    outer loop
      vertex   2.116723e+02 3.167899e+02 0.000000e+00
      vertex   -2.116723e+02 3.167899e+02 0.000000e+00
      vertex   1.458024e+02 3.519981e+02 0.000000e+00
    endloop
  endfacet
  facet normal -0.000000e+00 0.000000e+00 -1.000000e+00
    outer loop
      vertex   1.458024e+02 3.519981e+02 0.000000e+00
      vertex   -2.116723e+02 3.167899e+02 0.000000e+00
      vertex   -1.458024e+02 3.519981e+02 0.000000e+00
    endloop
  endfacet
  facet normal 0.000000e+00 0.000000e+00 -1.000000e+00
    outer loop
      vertex   1.458024e+02 3.519981e+02 0.000000e+00
      vertex   -1.458024e+02 3.519981e+02 0.000000e+00
      vertex   7.432941e+01 3.736792e+02 0.000000e+00
    endloop
  endfacet
  facet normal -0.000000e+00 0.000000e+00 -1.000000e+00
    outer loop
      vertex   7.432941e+01 3.736792e+02 0.000000e+00
      vertex   -1.458024e+02 3.519981e+02 0.000000e+00
      vertex   -7.432941e+01 3.736792e+02 0.000000e+00
    endloop
  endfacet
  facet normal 0.000000e+00 0.000000e+00 -1.000000e+00
    outer loop
      vertex   7.432941e+01 3.736792e+02 0.000000e+00
      vertex   -7.432941e+01 3.736792e+02 0.000000e+00
      vertex   -2.332952e-14 3.810000e+02 0.000000e+00
    endloop
  endfacet
  facet normal 0.000000e+00 0.000000e+00 -1.000000e+00
    outer loop
      vertex   -3.736792e+02 -7.432941e+01 0.000000e+00
      vertex   3.736792e+02 -7.432941e+01 0.000000e+00
      vertex   -3.519981e+02 -1.458024e+02 0.000000e+00
    endloop
  endfacet
  facet normal 0.000000e+00 0.000000e+00 -1.000000e+00
    outer loop
      vertex   -3.519981e+02 -1.458024e+02 0.000000e+00
      vertex   3.736792e+02 -7.432941e+01 0.000000e+00
      vertex   3.519981e+02 -1.458024e+02 0.000000e+00
    endloop
  endfacet
  facet normal 0.000000e+00 0.000000e+00 -1.000000e+00
    outer loop
      vertex   -3.519981e+02 -1.458024e+02 0.000000e+00
      vertex   3.519981e+02 -1.458024e+02 0.000000e+00
      vertex   -3.167899e+02 -2.116723e+02 0.000000e+00
    endloop
  endfacet
  facet normal 0.000000e+00 0.000000e+00 -1.000000e+00
    outer loop
      vertex   -3.167899e+02 -2.116723e+02 0.000000e+00
      vertex   3.519981e+02 -1.458024e+02 0.000000e+00
      vertex   3.167899e+02 -2.116723e+02 0.000000e+00
    endloop
  endfacet
  facet normal 0.000000e+00 0.000000e+00 -1.000000e+00
    outer loop
      vertex   -3.167899e+02 -2.116723e+02 0.000000e+00
      vertex   3.167899e+02 -2.116723e+02 0.000000e+00
      vertex   -2.694077e+02 -2.694077e+02 0.000000e+00
    endloop
  endfacet
  facet normal 0.000000e+00 0.000000e+00 -1.000000e+00
    outer loop
      vertex   -2.694077e+02 -2.694077e+02 0.000000e+00
      vertex   3.167899e+02 -2.116723e+02 0.000000e+00
      vertex   2.694077e+02 -2.694077e+02 0.000000e+00
    endloop
  endfacet
  facet normal 0.000000e+00 0.000000e+00 -1.000000e+00
    outer loop
      vertex   -2.694077e+02 -2.694077e+02 0.000000e+00
      vertex   2.694077e+02 -2.694077e+02 0.000000e+00
      vertex   -2.116723e+02 -3.167899e+02 0.000000e+00
    endloop
  endfacet
  facet normal 0.000000e+00 0.000000e+00 -1.000000e+00
    outer loop
      vertex   -2.116723e+02 -3.167899e+02 0.000000e+00
      vertex   2.694077e+02 -2.694077e+02 0.000000e+00
      vertex   2.116723e+02 -3.167899e+02 0.000000e+00
    endloop
  endfacet
  facet normal 0.000000e+00 0.000000e+00 -1.000000e+00
    outer loop
      vertex   -2.116723e+02 -3.167899e+02 0.000000e+00
      vertex   2.116723e+02 -3.167899e+02 0.000000e+00
      vertex   -1.458024e+02 -3.519981e+02 0.000000e+00
    endloop
  endfacet
  facet normal 0.000000e+00 0.000000e+00 -1.000000e+00
    outer loop
      vertex   -1.458024e+02 -3.519981e+02 0.000000e+00
      vertex   2.116723e+02 -3.167899e+02 0.000000e+00
      vertex   1.458024e+02 -3.519981e+02 0.000000e+00
    endloop
  endfacet
  facet normal 0.000000e+00 0.000000e+00 -1.000000e+00
    outer loop
      vertex   -1.458024e+02 -3.519981e+02 0.000000e+00
      vertex   1.458024e+02 -3.519981e+02 0.000000e+00
      vertex   -7.432941e+01 -3.736792e+02 0.000000e+00
    endloop
  endfacet
  facet normal 0.000000e+00 0.000000e+00 -1.000000e+00
    outer loop
      vertex   -7.432941e+01 -3.736792e+02 0.000000e+00
      vertex   1.458024e+02 -3.519981e+02 0.000000e+00
      vertex   7.432941e+01 -3.736792e+02 0.000000e+00
    endloop
  endfacet
  facet normal 0.000000e+00 0.000000e+00 -1.000000e+00
    outer loop
      vertex   -7.432941e+01 -3.736792e+02 0.000000e+00
      vertex   7.432941e+01 -3.736792e+02 0.000000e+00
      vertex   -2.332952e-14 -3.810000e+02 0.000000e+00
    endloop
  endfacet
  facet normal 0.000000e+00 0.000000e+00 1.000000e+00
    outer loop
      vertex   3.736792e+02 7.432941e+01 1.270000e+03
      vertex   -3.736792e+02 7.432941e+01 1.270000e+03
      vertex   3.810000e+02 4.665904e-14 1.270000e+03
    endloop
  endfacet
  facet normal 0.000000e+00 0.000000e+00 1.000000e+00
    outer loop
      vertex   3.810000e+02 4.665904e-14 1.270000e+03
      vertex   -3.736792e+02 7.432941e+01 1.270000e+03
      vertex   -3.810000e+02 0.000000e+00 1.270000e+03
    endloop
  endfacet
  facet normal 0.000000e+00 0.000000e+00 1.000000e+00
    outer loop
      vertex   3.810000e+02 4.665904e-14 1.270000e+03
      vertex   -3.810000e+02 0.000000e+00 1.270000e+03
      vertex   3.736792e+02 -7.432941e+01 1.270000e+03
    endloop
  endfacet
  facet normal 0.000000e+00 0.000000e+00 1.000000e+00
    outer loop
      vertex   3.736792e+02 -7.432941e+01 1.270000e+03
      vertex   -3.810000e+02 0.000000e+00 1.270000e+03
      vertex   -3.736792e+02 -7.432941e+01 1.270000e+03
    endloop
  endfacet
  facet normal 0.000000e+00 0.000000e+00 1.000000e+00
    outer loop
      vertex   3.736792e+02 -7.432941e+01 1.270000e+03
      vertex   -3.736792e+02 -7.432941e+01 1.270000e+03
      vertex   3.519981e+02 -1.458024e+02 1.270000e+03
    endloop
  endfacet
  facet normal 0.000000e+00 0.000000e+00 1.000000e+00
    outer loop
      vertex   3.519981e+02 -1.458024e+02 1.270000e+03
      vertex   -3.736792e+02 -7.432941e+01 1.270000e+03
      vertex   -3.519981e+02 -1.458024e+02 1.270000e+03
    endloop
  endfacet
  facet normal 0.000000e+00 0.000000e+00 1.000000e+00
    outer loop
      vertex   3.519981e+02 -1.458024e+02 1.270000e+03
      vertex   -3.519981e+02 -1.458024e+02 1.270000e+03
      vertex   3.167899e+02 -2.116723e+02 1.270000e+03
    endloop
  endfacet
  facet normal 0.000000e+00 0.000000e+00 1.000000e+00
    outer loop
      vertex   3.167899e+02 -2.116723e+02 1.270000e+03
      vertex   -3.519981e+02 -1.458024e+02 1.270000e+03
      vertex   -3.167899e+02 -2.116723e+02 1.270000e+03
    endloop
  endfacet
  facet normal 0.000000e+00 0.000000e+00 1.000000e+00
    outer loop
      vertex   3.167899e+02 -2.116723e+02 1.270000e+03
      vertex   -3.167899e+02 -2.116723e+02 1.270000e+03
      vertex   2.694077e+02 -2.694077e+02 1.270000e+03
    endloop
  endfacet
  facet normal 0.000000e+00 0.000000e+00 1.000000e+00
    outer loop
      vertex   2.694077e+02 -2.694077e+02 1.270000e+03
      vertex   -3.167899e+02 -2.116723e+02 1.270000e+03
      vertex   -2.694077e+02 -2.694077e+02 1.270000e+03
    endloop
  endfacet
  facet normal 0.000000e+00 0.000000e+00 1.000000e+00
    outer loop
      vertex   2.694077e+02 -2.694077e+02 1.270000e+03
      vertex   -2.694077e+02 -2.694077e+02 1.270000e+03
      vertex   2.116723e+02 -3.167899e+02 1.270000e+03
    endloop
  endfacet
  facet normal 0.000000e+00 0.000000e+00 1.000000e+00
    outer loop
      vertex   2.116723e+02 -3.167899e+02 1.270000e+03
      vertex   -2.694077e+02 -2.694077e+02 1.270000e+03
      vertex   -2.116723e+02 -3.167899e+02 1.270000e+03
    endloop
  endfacet
  facet normal 0.000000e+00 0.000000e+00 1.000000e+00
    outer loop
      vertex   2.116723e+02 -3.167899e+02 1.270000e+03
      vertex   -2.116723e+02 -3.167899e+02 1.270000e+03
      vertex   1.458024e+02 -3.519981e+02 1.270000e+03
    endloop
  endfacet
  facet normal 0.000000e+00 0.000000e+00 1.000000e+00
    outer loop
      vertex   1.458024e+02 -3.519981e+02 1.270000e+03
      vertex   -2.116723e+02 -3.167899e+02 1.270000e+03
      vertex   -1.458024e+02 -3.519981e+02 1.270000e+03
    endloop
  endfacet
  facet normal 0.000000e+00 0.000000e+00 1.000000e+00
    outer loop
      vertex   1.458024e+02 -3.519981e+02 1.270000e+03
      vertex   -1.458024e+02 -3.519981e+02 1.270000e+03
      vertex   7.432941e+01 -3.736792e+02 1.270000e+03
    endloop
  endfacet
  facet normal 0.000000e+00 0.000000e+00 1.000000e+00
    outer loop
      vertex   7.432941e+01 -3.736792e+02 1.270000e+03
      vertex   -1.458024e+02 -3.519981e+02 1.270000e+03
      vertex   -7.432941e+01 -3.736792e+02 1.270000e+03
    endloop
  endfacet
  facet normal 0.000000e+00 0.000000e+00 1.000000e+00
    outer loop
      vertex   7.432941e+01 -3.736792e+02 1.270000e+03
      vertex   -7.432941e+01 -3.736792e+02 1.270000e+03
      vertex   -2.332952e-14 -3.810000e+02 1.270000e+03
    endloop
  endfacet
  facet normal 0.000000e+00 0.000000e+00 1.000000e+00
    outer loop
      vertex   -3.736792e+02 7.432941e+01 1.270000e+03
      vertex   3.736792e+02 7.432941e+01 1.270000e+03
      vertex   -3.519981e+02 1.458024e+02 1.270000e+03
    endloop
  endfacet
  facet normal -0.000000e+00 0.000000e+00 1.000000e+00
    outer loop
      vertex   -3.519981e+02 1.458024e+02 1.270000e+03
      vertex   3.736792e+02 7.432941e+01 1.270000e+03
      vertex   3.519981e+02 1.458024e+02 1.270000e+03
    endloop
  endfacet
  facet normal 0.000000e+00 0.000000e+00 1.000000e+00
    outer loop
      vertex   -3.519981e+02 1.458024e+02 1.270000e+03
      vertex   3.519981e+02 1.458024e+02 1.270000e+03
      vertex   -3.167899e+02 2.116723e+02 1.270000e+03
    endloop
  endfacet
  facet normal -0.000000e+00 0.000000e+00 1.000000e+00
    outer loop
      vertex   -3.167899e+02 2.116723e+02 1.270000e+03
      vertex   3.519981e+02 1.458024e+02 1.270000e+03
      vertex   3.167899e+02 2.116723e+02 1.270000e+03
    endloop
  endfacet
  facet normal 0.000000e+00 0.000000e+00 1.000000e+00
    outer loop
      vertex   -3.167899e+02 2.116723e+02 1.270000e+03
      vertex   3.167899e+02 2.116723e+02 1.270000e+03
      vertex   -2.694077e+02 2.694077e+02 1.270000e+03
    endloop
  endfacet
  facet normal -0.000000e+00 0.000000e+00 1.000000e+00
    outer loop
      vertex   -2.694077e+02 2.694077e+02 1.270000e+03
      vertex   3.167899e+02 2.116723e+02 1.270000e+03
      vertex   2.694077e+02 2.694077e+02 1.270000e+03
    endloop
  endfacet
  facet normal 0.000000e+00 0.000000e+00 1.000000e+00
    outer loop
      vertex   -2.694077e+02 2.694077e+02 1.270000e+03
      vertex   2.694077e+02 2.694077e+02 1.270000e+03
      vertex   -2.116723e+02 3.167899e+02 1.270000e+03
    endloop
  endfacet
  facet normal -0.000000e+00 0.000000e+00 1.000000e+00
    outer loop
      vertex   -2.116723e+02 3.167899e+02 1.270000e+03
      vertex   2.694077e+02 2.694077e+02 1.270000e+03
      vertex   2.116723e+02 3.167899e+02 1.270000e+03
    endloop
  endfacet
  facet normal 0.000000e+00 0.000000e+00 1.000000e+00
    outer loop
      vertex   -2.116723e+02 3.167899e+02 1.270000e+03
      vertex   2.116723e+02 3.167899e+02 1.270000e+03
      vertex   -1.458024e+02 3.519981e+02 1.270000e+03
    endloop
  endfacet
  facet normal -0.000000e+00 0.000000e+00 1.000000e+00
    outer loop
      vertex   -1.458024e+02 3.519981e+02 1.270000e+03
      vertex   2.116723e+02 3.167899e+02 1.270000e+03
      vertex   1.458024e+02 3.519981e+02 1.270000e+03
    endloop
  endfacet
  facet normal 0.000000e+00 0.000000e+00 1.000000e+00
    outer loop
      vertex   -1.458024e+02 3.519981e+02 1.270000e+03
      vertex   1.458024e+02 3.519981e+02 1.270000e+03
      vertex   -7.432941e+01 3.736792e+02 1.270000e+03
    endloop
  endfacet
  facet normal -0.000000e+00 0.000000e+00 1.000000e+00
    outer loop
      vertex   -7.432941e+01 3.736792e+02 1.270000e+03
      vertex   1.458024e+02 3.519981e+02 1.270000e+03
      vertex   7.432941e+01 3.736792e+02 1.270000e+03
    endloop
  endfacet
  facet normal 0.000000e+00 0.000000e+00 1.000000e+00
    outer loop
      vertex   -7.432941e+01 3.736792e+02 1.270000e+03
      vertex   7.432941e+01 3.736792e+02 1.270000e+03
      vertex   -2.332952e-14 3.810000e+02 1.270000e+03
    endloop
  endfacet
endsolid
