solid ASCII
  facet normal -7.158159e-17 9.781476e-01 -2.079117e-01
    outer loop
      vertex   2.540000e+01 3.642377e+00 3.337929e+01
      vertex   1.933161e+01 3.642377e+00 3.337929e+01
      vertex   2.540000e+01 3.708655e+00 3.369110e+01
    endloop
  endfacet
  facet normal 0.000000e+00 9.781476e-01 -2.079117e-01
    outer loop
      vertex   2.540000e+01 3.708655e+00 3.369110e+01
      vertex   1.933161e+01 3.642377e+00 3.337929e+01
      vertex   1.933161e+01 3.708655e+00 3.369110e+01
    endloop
  endfacet
  facet normal 0.000000e+00 9.781476e-01 2.079117e-01
    outer loop
      vertex   2.540000e+01 3.708655e+00 3.369110e+01
      vertex   1.933161e+01 3.708655e+00 3.369110e+01
      vertex   2.540000e+01 3.642377e+00 3.400291e+01
    endloop
  endfacet
  facet normal -7.158159e-17 9.781476e-01 2.079117e-01
    outer loop
      vertex   2.540000e+01 3.642377e+00 3.400291e+01
      vertex   1.933161e+01 3.708655e+00 3.369110e+01
      vertex   1.933161e+01 3.642377e+00 3.400291e+01
    endloop
  endfacet
  facet normal -5.920448e-17 8.090170e-01 5.877853e-01
    outer loop
      vertex   2.540000e+01 3.642377e+00 3.400291e+01
      vertex   1.933161e+01 3.642377e+00 3.400291e+01
      vertex   2.540000e+01 3.455005e+00 3.426081e+01
    endloop
  endfacet
  facet normal -1.184090e-16 8.090170e-01 5.877853e-01
    outer loop
      vertex   2.540000e+01 3.455005e+00 3.426081e+01
      vertex   1.933161e+01 3.642377e+00 3.400291e+01
      vertex   1.933161e+01 3.455005e+00 3.426081e+01
    endloop
  endfacet
  facet normal -7.318077e-17 5.000000e-01 8.660254e-01
    outer loop
      vertex   2.540000e+01 3.455005e+00 3.426081e+01
      vertex   1.933161e+01 3.455005e+00 3.426081e+01
      vertex   2.540000e+01 3.178937e+00 3.442020e+01
    endloop
  endfacet
  facet normal -7.318077e-17 5.000000e-01 8.660254e-01
    outer loop
      vertex   2.540000e+01 3.178937e+00 3.442020e+01
      vertex   1.933161e+01 3.455005e+00 3.426081e+01
      vertex   1.933161e+01 3.178937e+00 3.442020e+01
    endloop
  endfacet
  facet normal -1.529895e-17 1.045285e-01 9.945219e-01
    outer loop
      vertex   2.540000e+01 3.178937e+00 3.442020e+01
      vertex   1.933161e+01 3.178937e+00 3.442020e+01
      vertex   2.540000e+01 2.861907e+00 3.445352e+01
    endloop
  endfacet
  facet normal 0.000000e+00 1.045285e-01 9.945219e-01
    outer loop
      vertex   2.540000e+01 2.861907e+00 3.445352e+01
      vertex   1.933161e+01 3.178937e+00 3.442020e+01
      vertex   1.933161e+01 2.861907e+00 3.445352e+01
    endloop
  endfacet
  facet normal 0.000000e+00 -3.090170e-01 9.510565e-01
    outer loop
      vertex   2.540000e+01 2.861907e+00 3.445352e+01
      vertex   1.933161e+01 2.861907e+00 3.445352e+01
      vertex   2.540000e+01 2.558733e+00 3.435501e+01
    endloop
  endfacet
  facet normal 0.000000e+00 -3.090170e-01 9.510565e-01
    outer loop
      vertex   2.540000e+01 2.558733e+00 3.435501e+01
      vertex   1.933161e+01 2.861907e+00 3.445352e+01
      vertex   1.933161e+01 2.558733e+00 3.435501e+01
    endloop
  endfacet
  facet normal 0.000000e+00 -6.691306e-01 7.431448e-01
    outer loop
      vertex   2.540000e+01 2.558733e+00 3.435501e+01
      vertex   1.933161e+01 2.558733e+00 3.435501e+01
      vertex   2.540000e+01 2.321836e+00 3.414171e+01
    endloop
  endfacet
  facet normal -4.896749e-17 -6.691306e-01 7.431448e-01
    outer loop
      vertex   2.540000e+01 2.321836e+00 3.414171e+01
      vertex   1.933161e+01 2.558733e+00 3.435501e+01
      vertex   1.933161e+01 2.321836e+00 3.414171e+01
    endloop
  endfacet
  facet normal -6.685396e-17 -9.135455e-01 4.067366e-01
    outer loop
      vertex   2.540000e+01 2.321836e+00 3.414171e+01
      vertex   1.933161e+01 2.321836e+00 3.414171e+01
      vertex   2.540000e+01 2.192178e+00 3.385049e+01
    endloop
  endfacet
  facet normal 0.000000e+00 -9.135455e-01 4.067366e-01
    outer loop
      vertex   2.540000e+01 2.192178e+00 3.385049e+01
      vertex   1.933161e+01 2.321836e+00 3.414171e+01
      vertex   1.933161e+01 2.192178e+00 3.385049e+01
    endloop
  endfacet
  facet normal -0.000000e+00 -1.000000e+00 -0.000000e+00
    outer loop
      vertex   2.540000e+01 2.192178e+00 3.385049e+01
      vertex   1.933161e+01 2.192178e+00 3.385049e+01
      vertex   2.540000e+01 2.192178e+00 3.353172e+01
    endloop
  endfacet
  facet normal 0.000000e+00 -1.000000e+00 0.000000e+00
    outer loop
      vertex   2.540000e+01 2.192178e+00 3.353172e+01
      vertex   1.933161e+01 2.192178e+00 3.385049e+01
      vertex   1.933161e+01 2.192178e+00 3.353172e+01
    endloop
  endfacet
  facet normal -0.000000e+00 -9.135455e-01 -4.067366e-01
    outer loop
      vertex   2.540000e+01 2.192178e+00 3.353172e+01
      vertex   1.933161e+01 2.192178e+00 3.353172e+01
      vertex   2.540000e+01 2.321836e+00 3.324050e+01
    endloop
  endfacet
  facet normal -6.685396e-17 -9.135455e-01 -4.067366e-01
    outer loop
      vertex   2.540000e+01 2.321836e+00 3.324050e+01
      vertex   1.933161e+01 2.192178e+00 3.353172e+01
      vertex   1.933161e+01 2.321836e+00 3.324050e+01
    endloop
  endfacet
  facet normal -4.896749e-17 -6.691306e-01 -7.431448e-01
    outer loop
      vertex   2.540000e+01 2.321836e+00 3.324050e+01
      vertex   1.933161e+01 2.321836e+00 3.324050e+01
      vertex   2.540000e+01 2.558733e+00 3.302720e+01
    endloop
  endfacet
  facet normal -0.000000e+00 -6.691306e-01 -7.431448e-01
    outer loop
      vertex   2.540000e+01 2.558733e+00 3.302720e+01
      vertex   1.933161e+01 2.321836e+00 3.324050e+01
      vertex   1.933161e+01 2.558733e+00 3.302720e+01
    endloop
  endfacet
  facet normal -0.000000e+00 -3.090170e-01 -9.510565e-01
    outer loop
      vertex   2.540000e+01 2.558733e+00 3.302720e+01
      vertex   1.933161e+01 2.558733e+00 3.302720e+01
      vertex   2.540000e+01 2.861907e+00 3.292869e+01
    endloop
  endfacet
  facet normal -0.000000e+00 -3.090170e-01 -9.510565e-01
    outer loop
      vertex   2.540000e+01 2.861907e+00 3.292869e+01
      vertex   1.933161e+01 2.558733e+00 3.302720e+01
      vertex   1.933161e+01 2.861907e+00 3.292869e+01
    endloop
  endfacet
  facet normal 0.000000e+00 1.045285e-01 -9.945219e-01
    outer loop
      vertex   2.540000e+01 2.861907e+00 3.292869e+01
      vertex   1.933161e+01 2.861907e+00 3.292869e+01
      vertex   2.540000e+01 3.178937e+00 3.296201e+01
    endloop
  endfacet
  facet normal -1.529895e-17 1.045285e-01 -9.945219e-01
    outer loop
      vertex   2.540000e+01 3.178937e+00 3.296201e+01
      vertex   1.933161e+01 2.861907e+00 3.292869e+01
      vertex   1.933161e+01 3.178937e+00 3.296201e+01
    endloop
  endfacet
  facet normal -7.318077e-17 5.000000e-01 -8.660254e-01
    outer loop
      vertex   2.540000e+01 3.178937e+00 3.296201e+01
      vertex   1.933161e+01 3.178937e+00 3.296201e+01
      vertex   2.540000e+01 3.455005e+00 3.312140e+01
    endloop
  endfacet
  facet normal -7.318077e-17 5.000000e-01 -8.660254e-01
    outer loop
      vertex   2.540000e+01 3.455005e+00 3.312140e+01
      vertex   1.933161e+01 3.178937e+00 3.296201e+01
      vertex   1.933161e+01 3.455005e+00 3.312140e+01
    endloop
  endfacet
  facet normal -1.184090e-16 8.090170e-01 -5.877853e-01
    outer loop
      vertex   2.540000e+01 3.455005e+00 3.312140e+01
      vertex   1.933161e+01 3.455005e+00 3.312140e+01
      vertex   2.540000e+01 3.642377e+00 3.337929e+01
    endloop
  endfacet
  facet normal -5.920448e-17 8.090170e-01 -5.877853e-01
    outer loop
      vertex   2.540000e+01 3.642377e+00 3.337929e+01
      vertex   1.933161e+01 3.455005e+00 3.312140e+01
      vertex   1.933161e+01 3.642377e+00 3.337929e+01
    endloop
  endfacet
  facet normal 7.158159e-17 9.781476e-01 2.079117e-01
    outer loop
      vertex   7.194839e+00 3.642377e+00 3.400291e+01
      vertex   1.326323e+01 3.642377e+00 3.400291e+01
      vertex   7.194839e+00 3.708655e+00 3.369110e+01
    endloop
  endfacet
  facet normal -0.000000e+00 9.781476e-01 2.079117e-01
    outer loop
      vertex   7.194839e+00 3.708655e+00 3.369110e+01
      vertex   1.326323e+01 3.642377e+00 3.400291e+01
      vertex   1.326323e+01 3.708655e+00 3.369110e+01
    endloop
  endfacet
  facet normal 0.000000e+00 9.781476e-01 -2.079117e-01
    outer loop
      vertex   7.194839e+00 3.708655e+00 3.369110e+01
      vertex   1.326323e+01 3.708655e+00 3.369110e+01
      vertex   7.194839e+00 3.642377e+00 3.337929e+01
    endloop
  endfacet
  facet normal 7.158159e-17 9.781476e-01 -2.079117e-01
    outer loop
      vertex   7.194839e+00 3.642377e+00 3.337929e+01
      vertex   1.326323e+01 3.708655e+00 3.369110e+01
      vertex   1.326323e+01 3.642377e+00 3.337929e+01
    endloop
  endfacet
  facet normal 5.920448e-17 8.090170e-01 -5.877853e-01
    outer loop
      vertex   7.194839e+00 3.642377e+00 3.337929e+01
      vertex   1.326323e+01 3.642377e+00 3.337929e+01
      vertex   7.194839e+00 3.455005e+00 3.312140e+01
    endloop
  endfacet
  facet normal 1.184090e-16 8.090170e-01 -5.877853e-01
    outer loop
      vertex   7.194839e+00 3.455005e+00 3.312140e+01
      vertex   1.326323e+01 3.642377e+00 3.337929e+01
      vertex   1.326323e+01 3.455005e+00 3.312140e+01
    endloop
  endfacet
  facet normal 7.318077e-17 5.000000e-01 -8.660254e-01
    outer loop
      vertex   7.194839e+00 3.455005e+00 3.312140e+01
      vertex   1.326323e+01 3.455005e+00 3.312140e+01
      vertex   7.194839e+00 3.178937e+00 3.296201e+01
    endloop
  endfacet
  facet normal 7.318077e-17 5.000000e-01 -8.660254e-01
    outer loop
      vertex   7.194839e+00 3.178937e+00 3.296201e+01
      vertex   1.326323e+01 3.455005e+00 3.312140e+01
      vertex   1.326323e+01 3.178937e+00 3.296201e+01
    endloop
  endfacet
  facet normal 1.529895e-17 1.045285e-01 -9.945219e-01
    outer loop
      vertex   7.194839e+00 3.178937e+00 3.296201e+01
      vertex   1.326323e+01 3.178937e+00 3.296201e+01
      vertex   7.194839e+00 2.861907e+00 3.292869e+01
    endloop
  endfacet
  facet normal 0.000000e+00 1.045285e-01 -9.945219e-01
    outer loop
      vertex   7.194839e+00 2.861907e+00 3.292869e+01
      vertex   1.326323e+01 3.178937e+00 3.296201e+01
      vertex   1.326323e+01 2.861907e+00 3.292869e+01
    endloop
  endfacet
  facet normal 0.000000e+00 -3.090170e-01 -9.510565e-01
    outer loop
      vertex   7.194839e+00 2.861907e+00 3.292869e+01
      vertex   1.326323e+01 2.861907e+00 3.292869e+01
      vertex   7.194839e+00 2.558733e+00 3.302720e+01
    endloop
  endfacet
  facet normal 0.000000e+00 -3.090170e-01 -9.510565e-01
    outer loop
      vertex   7.194839e+00 2.558733e+00 3.302720e+01
      vertex   1.326323e+01 2.861907e+00 3.292869e+01
      vertex   1.326323e+01 2.558733e+00 3.302720e+01
    endloop
  endfacet
  facet normal 0.000000e+00 -6.691306e-01 -7.431448e-01
    outer loop
      vertex   7.194839e+00 2.558733e+00 3.302720e+01
      vertex   1.326323e+01 2.558733e+00 3.302720e+01
      vertex   7.194839e+00 2.321836e+00 3.324050e+01
    endloop
  endfacet
  facet normal 4.896749e-17 -6.691306e-01 -7.431448e-01
    outer loop
      vertex   7.194839e+00 2.321836e+00 3.324050e+01
      vertex   1.326323e+01 2.558733e+00 3.302720e+01
      vertex   1.326323e+01 2.321836e+00 3.324050e+01
    endloop
  endfacet
  facet normal 6.685396e-17 -9.135455e-01 -4.067366e-01
    outer loop
      vertex   7.194839e+00 2.321836e+00 3.324050e+01
      vertex   1.326323e+01 2.321836e+00 3.324050e+01
      vertex   7.194839e+00 2.192178e+00 3.353172e+01
    endloop
  endfacet
  facet normal 0.000000e+00 -9.135455e-01 -4.067366e-01
    outer loop
      vertex   7.194839e+00 2.192178e+00 3.353172e+01
      vertex   1.326323e+01 2.321836e+00 3.324050e+01
      vertex   1.326323e+01 2.192178e+00 3.353172e+01
    endloop
  endfacet
  facet normal 0.000000e+00 -1.000000e+00 0.000000e+00
    outer loop
      vertex   7.194839e+00 2.192178e+00 3.353172e+01
      vertex   1.326323e+01 2.192178e+00 3.353172e+01
      vertex   7.194839e+00 2.192178e+00 3.385049e+01
    endloop
  endfacet
  facet normal 0.000000e+00 -1.000000e+00 0.000000e+00
    outer loop
      vertex   7.194839e+00 2.192178e+00 3.385049e+01
      vertex   1.326323e+01 2.192178e+00 3.353172e+01
      vertex   1.326323e+01 2.192178e+00 3.385049e+01
    endloop
  endfacet
  facet normal 0.000000e+00 -9.135455e-01 4.067366e-01
    outer loop
      vertex   7.194839e+00 2.192178e+00 3.385049e+01
      vertex   1.326323e+01 2.192178e+00 3.385049e+01
      vertex   7.194839e+00 2.321836e+00 3.414171e+01
    endloop
  endfacet
  facet normal 6.685396e-17 -9.135455e-01 4.067366e-01
    outer loop
      vertex   7.194839e+00 2.321836e+00 3.414171e+01
      vertex   1.326323e+01 2.192178e+00 3.385049e+01
      vertex   1.326323e+01 2.321836e+00 3.414171e+01
    endloop
  endfacet
  facet normal 4.896749e-17 -6.691306e-01 7.431448e-01
    outer loop
      vertex   7.194839e+00 2.321836e+00 3.414171e+01
      vertex   1.326323e+01 2.321836e+00 3.414171e+01
      vertex   7.194839e+00 2.558733e+00 3.435501e+01
    endloop
  endfacet
  facet normal 0.000000e+00 -6.691306e-01 7.431448e-01
    outer loop
      vertex   7.194839e+00 2.558733e+00 3.435501e+01
      vertex   1.326323e+01 2.321836e+00 3.414171e+01
      vertex   1.326323e+01 2.558733e+00 3.435501e+01
    endloop
  endfacet
  facet normal 0.000000e+00 -3.090170e-01 9.510565e-01
    outer loop
      vertex   7.194839e+00 2.558733e+00 3.435501e+01
      vertex   1.326323e+01 2.558733e+00 3.435501e+01
      vertex   7.194839e+00 2.861907e+00 3.445352e+01
    endloop
  endfacet
  facet normal 0.000000e+00 -3.090170e-01 9.510565e-01
    outer loop
      vertex   7.194839e+00 2.861907e+00 3.445352e+01
      vertex   1.326323e+01 2.558733e+00 3.435501e+01
      vertex   1.326323e+01 2.861907e+00 3.445352e+01
    endloop
  endfacet
  facet normal -0.000000e+00 1.045285e-01 9.945219e-01
    outer loop
      vertex   7.194839e+00 2.861907e+00 3.445352e+01
      vertex   1.326323e+01 2.861907e+00 3.445352e+01
      vertex   7.194839e+00 3.178937e+00 3.442020e+01
    endloop
  endfacet
  facet normal 1.529895e-17 1.045285e-01 9.945219e-01
    outer loop
      vertex   7.194839e+00 3.178937e+00 3.442020e+01
      vertex   1.326323e+01 2.861907e+00 3.445352e+01
      vertex   1.326323e+01 3.178937e+00 3.442020e+01
    endloop
  endfacet
  facet normal 7.318077e-17 5.000000e-01 8.660254e-01
    outer loop
      vertex   7.194839e+00 3.178937e+00 3.442020e+01
      vertex   1.326323e+01 3.178937e+00 3.442020e+01
      vertex   7.194839e+00 3.455005e+00 3.426081e+01
    endloop
  endfacet
  facet normal 7.318077e-17 5.000000e-01 8.660254e-01
    outer loop
      vertex   7.194839e+00 3.455005e+00 3.426081e+01
      vertex   1.326323e+01 3.178937e+00 3.442020e+01
      vertex   1.326323e+01 3.455005e+00 3.426081e+01
    endloop
  endfacet
  facet normal 1.184090e-16 8.090170e-01 5.877853e-01
    outer loop
      vertex   7.194839e+00 3.455005e+00 3.426081e+01
      vertex   1.326323e+01 3.455005e+00 3.426081e+01
      vertex   7.194839e+00 3.642377e+00 3.400291e+01
    endloop
  endfacet
  facet normal 5.920448e-17 8.090170e-01 5.877853e-01
    outer loop
      vertex   7.194839e+00 3.642377e+00 3.400291e+01
      vertex   1.326323e+01 3.455005e+00 3.426081e+01
      vertex   1.326323e+01 3.642377e+00 3.400291e+01
    endloop
  endfacet
  facet normal 0.000000e+00 9.781476e-01 2.079117e-01
    outer loop
      vertex   1.933161e+01 3.708655e+00 3.369110e+01
      vertex   1.326323e+01 3.708655e+00 3.369110e+01
      vertex   1.933161e+01 3.642377e+00 3.400291e+01
    endloop
  endfacet
  facet normal 0.000000e+00 9.781476e-01 2.079117e-01
    outer loop
      vertex   1.933161e+01 3.642377e+00 3.400291e+01
      vertex   1.326323e+01 3.708655e+00 3.369110e+01
      vertex   1.326323e+01 3.642377e+00 3.400291e+01
    endloop
  endfacet
  facet normal 0.000000e+00 8.090170e-01 5.877853e-01
    outer loop
      vertex   1.933161e+01 3.642377e+00 3.400291e+01
      vertex   1.326323e+01 3.642377e+00 3.400291e+01
      vertex   1.933161e+01 3.455005e+00 3.426081e+01
    endloop
  endfacet
  facet normal 0.000000e+00 8.090170e-01 5.877853e-01
    outer loop
      vertex   1.933161e+01 3.455005e+00 3.426081e+01
      vertex   1.326323e+01 3.642377e+00 3.400291e+01
      vertex   1.326323e+01 3.455005e+00 3.426081e+01
    endloop
  endfacet
  facet normal 0.000000e+00 5.000000e-01 8.660254e-01
    outer loop
      vertex   1.933161e+01 3.455005e+00 3.426081e+01
      vertex   1.326323e+01 3.455005e+00 3.426081e+01
      vertex   1.933161e+01 3.178937e+00 3.442020e+01
    endloop
  endfacet
  facet normal 0.000000e+00 5.000000e-01 8.660254e-01
    outer loop
      vertex   1.933161e+01 3.178937e+00 3.442020e+01
      vertex   1.326323e+01 3.455005e+00 3.426081e+01
      vertex   1.326323e+01 3.178937e+00 3.442020e+01
    endloop
  endfacet
  facet normal 0.000000e+00 1.045285e-01 9.945219e-01
    outer loop
      vertex   1.933161e+01 3.178937e+00 3.442020e+01
      vertex   1.326323e+01 3.178937e+00 3.442020e+01
      vertex   1.933161e+01 2.861907e+00 3.445352e+01
    endloop
  endfacet
  facet normal 0.000000e+00 1.045285e-01 9.945219e-01
    outer loop
      vertex   1.933161e+01 2.861907e+00 3.445352e+01
      vertex   1.326323e+01 3.178937e+00 3.442020e+01
      vertex   1.326323e+01 2.861907e+00 3.445352e+01
    endloop
  endfacet
  facet normal 0.000000e+00 -3.090170e-01 9.510565e-01
    outer loop
      vertex   1.933161e+01 2.861907e+00 3.445352e+01
      vertex   1.326323e+01 2.861907e+00 3.445352e+01
      vertex   1.933161e+01 2.558733e+00 3.435501e+01
    endloop
  endfacet
  facet normal 0.000000e+00 -3.090170e-01 9.510565e-01
    outer loop
      vertex   1.933161e+01 2.558733e+00 3.435501e+01
      vertex   1.326323e+01 2.861907e+00 3.445352e+01
      vertex   1.326323e+01 2.558733e+00 3.435501e+01
    endloop
  endfacet
  facet normal 0.000000e+00 -6.691306e-01 7.431448e-01
    outer loop
      vertex   1.933161e+01 2.558733e+00 3.435501e+01
      vertex   1.326323e+01 2.558733e+00 3.435501e+01
      vertex   1.933161e+01 2.321836e+00 3.414171e+01
    endloop
  endfacet
  facet normal 0.000000e+00 -6.691306e-01 7.431448e-01
    outer loop
      vertex   1.933161e+01 2.321836e+00 3.414171e+01
      vertex   1.326323e+01 2.558733e+00 3.435501e+01
      vertex   1.326323e+01 2.321836e+00 3.414171e+01
    endloop
  endfacet
  facet normal 0.000000e+00 -9.135455e-01 4.067366e-01
    outer loop
      vertex   1.933161e+01 2.321836e+00 3.414171e+01
      vertex   1.326323e+01 2.321836e+00 3.414171e+01
      vertex   1.933161e+01 2.192178e+00 3.385049e+01
    endloop
  endfacet
  facet normal 0.000000e+00 -9.135455e-01 4.067366e-01
    outer loop
      vertex   1.933161e+01 2.192178e+00 3.385049e+01
      vertex   1.326323e+01 2.321836e+00 3.414171e+01
      vertex   1.326323e+01 2.192178e+00 3.385049e+01
    endloop
  endfacet
  facet normal -0.000000e+00 -1.000000e+00 -0.000000e+00
    outer loop
      vertex   1.933161e+01 2.192178e+00 3.385049e+01
      vertex   1.326323e+01 2.192178e+00 3.385049e+01
      vertex   1.933161e+01 2.192178e+00 3.353172e+01
    endloop
  endfacet
  facet normal 0.000000e+00 -1.000000e+00 0.000000e+00
    outer loop
      vertex   1.933161e+01 2.192178e+00 3.353172e+01
      vertex   1.326323e+01 2.192178e+00 3.385049e+01
      vertex   1.326323e+01 2.192178e+00 3.353172e+01
    endloop
  endfacet
  facet normal -0.000000e+00 -9.135455e-01 -4.067366e-01
    outer loop
      vertex   1.933161e+01 2.192178e+00 3.353172e+01
      vertex   1.326323e+01 2.192178e+00 3.353172e+01
      vertex   1.933161e+01 2.321836e+00 3.324050e+01
    endloop
  endfacet
  facet normal -0.000000e+00 -9.135455e-01 -4.067366e-01
    outer loop
      vertex   1.933161e+01 2.321836e+00 3.324050e+01
      vertex   1.326323e+01 2.192178e+00 3.353172e+01
      vertex   1.326323e+01 2.321836e+00 3.324050e+01
    endloop
  endfacet
  facet normal -0.000000e+00 -6.691306e-01 -7.431448e-01
    outer loop
      vertex   1.933161e+01 2.321836e+00 3.324050e+01
      vertex   1.326323e+01 2.321836e+00 3.324050e+01
      vertex   1.933161e+01 2.558733e+00 3.302720e+01
    endloop
  endfacet
  facet normal -0.000000e+00 -6.691306e-01 -7.431448e-01
    outer loop
      vertex   1.933161e+01 2.558733e+00 3.302720e+01
      vertex   1.326323e+01 2.321836e+00 3.324050e+01
      vertex   1.326323e+01 2.558733e+00 3.302720e+01
    endloop
  endfacet
  facet normal -0.000000e+00 -3.090170e-01 -9.510565e-01
    outer loop
      vertex   1.933161e+01 2.558733e+00 3.302720e+01
      vertex   1.326323e+01 2.558733e+00 3.302720e+01
      vertex   1.933161e+01 2.861907e+00 3.292869e+01
    endloop
  endfacet
  facet normal -0.000000e+00 -3.090170e-01 -9.510565e-01
    outer loop
      vertex   1.933161e+01 2.861907e+00 3.292869e+01
      vertex   1.326323e+01 2.558733e+00 3.302720e+01
      vertex   1.326323e+01 2.861907e+00 3.292869e+01
    endloop
  endfacet
  facet normal 0.000000e+00 1.045285e-01 -9.945219e-01
    outer loop
      vertex   1.933161e+01 2.861907e+00 3.292869e+01
      vertex   1.326323e+01 2.861907e+00 3.292869e+01
      vertex   1.933161e+01 3.178937e+00 3.296201e+01
    endloop
  endfacet
  facet normal 0.000000e+00 1.045285e-01 -9.945219e-01
    outer loop
      vertex   1.933161e+01 3.178937e+00 3.296201e+01
      vertex   1.326323e+01 2.861907e+00 3.292869e+01
      vertex   1.326323e+01 3.178937e+00 3.296201e+01
    endloop
  endfacet
  facet normal 0.000000e+00 5.000000e-01 -8.660254e-01
    outer loop
      vertex   1.933161e+01 3.178937e+00 3.296201e+01
      vertex   1.326323e+01 3.178937e+00 3.296201e+01
      vertex   1.933161e+01 3.455005e+00 3.312140e+01
    endloop
  endfacet
  facet normal 0.000000e+00 5.000000e-01 -8.660254e-01
    outer loop
      vertex   1.933161e+01 3.455005e+00 3.312140e+01
      vertex   1.326323e+01 3.178937e+00 3.296201e+01
      vertex   1.326323e+01 3.455005e+00 3.312140e+01
    endloop
  endfacet
  facet normal 0.000000e+00 8.090170e-01 -5.877853e-01
    outer loop
      vertex   1.933161e+01 3.455005e+00 3.312140e+01
      vertex   1.326323e+01 3.455005e+00 3.312140e+01
      vertex   1.933161e+01 3.642377e+00 3.337929e+01
    endloop
  endfacet
  facet normal 0.000000e+00 8.090170e-01 -5.877853e-01
    outer loop
      vertex   1.933161e+01 3.642377e+00 3.337929e+01
      vertex   1.326323e+01 3.455005e+00 3.312140e+01
      vertex   1.326323e+01 3.642377e+00 3.337929e+01
    endloop
  endfacet
  facet normal 0.000000e+00 9.781476e-01 -2.079117e-01
    outer loop
      vertex   1.933161e+01 3.642377e+00 3.337929e+01
      vertex   1.326323e+01 3.642377e+00 3.337929e+01
      vertex   1.933161e+01 3.708655e+00 3.369110e+01
    endloop
  endfacet
  facet normal 0.000000e+00 9.781476e-01 -2.079117e-01
    outer loop
      vertex   1.933161e+01 3.708655e+00 3.369110e+01
      vertex   1.326323e+01 3.642377e+00 3.337929e+01
      vertex   1.326323e+01 3.708655e+00 3.369110e+01
    endloop
  endfacet
  facet normal 1.000000e+00 0.000000e+00 0.000000e+00
    outer loop
      vertex   2.540000e+01 3.708655e+00 3.369110e+01
      vertex   2.540000e+01 3.642377e+00 3.400291e+01
      vertex   2.540000e+01 3.642377e+00 3.337929e+01
    endloop
  endfacet
  facet normal 1.000000e+00 0.000000e+00 -0.000000e+00
    outer loop
      vertex   2.540000e+01 3.642377e+00 3.337929e+01
      vertex   2.540000e+01 3.642377e+00 3.400291e+01
      vertex   2.540000e+01 3.455005e+00 3.312140e+01
    endloop
  endfacet
  facet normal 1.000000e+00 0.000000e+00 0.000000e+00
    outer loop
      vertex   2.540000e+01 3.455005e+00 3.312140e+01
      vertex   2.540000e+01 3.642377e+00 3.400291e+01
      vertex   2.540000e+01 3.455005e+00 3.426081e+01
    endloop
  endfacet
  facet normal 1.000000e+00 0.000000e+00 -0.000000e+00
    outer loop
      vertex   2.540000e+01 3.455005e+00 3.312140e+01
      vertex   2.540000e+01 3.455005e+00 3.426081e+01
      vertex   2.540000e+01 3.178937e+00 3.296201e+01
    endloop
  endfacet
  facet normal 1.000000e+00 0.000000e+00 0.000000e+00
    outer loop
      vertex   2.540000e+01 3.178937e+00 3.296201e+01
      vertex   2.540000e+01 3.455005e+00 3.426081e+01
      vertex   2.540000e+01 3.178937e+00 3.442020e+01
    endloop
  endfacet
  facet normal 1.000000e+00 0.000000e+00 -0.000000e+00
    outer loop
      vertex   2.540000e+01 3.178937e+00 3.296201e+01
      vertex   2.540000e+01 3.178937e+00 3.442020e+01
      vertex   2.540000e+01 2.861907e+00 3.292869e+01
    endloop
  endfacet
  facet normal 1.000000e+00 0.000000e+00 -0.000000e+00
    outer loop
      vertex   2.540000e+01 2.861907e+00 3.292869e+01
      vertex   2.540000e+01 3.178937e+00 3.442020e+01
      vertex   2.540000e+01 2.861907e+00 3.445352e+01
    endloop
  endfacet
  facet normal 1.000000e+00 0.000000e+00 0.000000e+00
    outer loop
      vertex   2.540000e+01 2.861907e+00 3.292869e+01
      vertex   2.540000e+01 2.861907e+00 3.445352e+01
      vertex   2.540000e+01 2.558733e+00 3.302720e+01
    endloop
  endfacet
  facet normal 1.000000e+00 0.000000e+00 0.000000e+00
    outer loop
      vertex   2.540000e+01 2.558733e+00 3.302720e+01
      vertex   2.540000e+01 2.861907e+00 3.445352e+01
      vertex   2.540000e+01 2.558733e+00 3.435501e+01
    endloop
  endfacet
  facet normal 1.000000e+00 0.000000e+00 -0.000000e+00
    outer loop
      vertex   2.540000e+01 2.558733e+00 3.302720e+01
      vertex   2.540000e+01 2.558733e+00 3.435501e+01
      vertex   2.540000e+01 2.321836e+00 3.324050e+01
    endloop
  endfacet
  facet normal 1.000000e+00 0.000000e+00 0.000000e+00
    outer loop
      vertex   2.540000e+01 2.321836e+00 3.324050e+01
      vertex   2.540000e+01 2.558733e+00 3.435501e+01
      vertex   2.540000e+01 2.321836e+00 3.414171e+01
    endloop
  endfacet
  facet normal 1.000000e+00 0.000000e+00 -0.000000e+00
    outer loop
      vertex   2.540000e+01 2.321836e+00 3.324050e+01
      vertex   2.540000e+01 2.321836e+00 3.414171e+01
      vertex   2.540000e+01 2.192178e+00 3.353172e+01
    endloop
  endfacet
  facet normal 1.000000e+00 0.000000e+00 0.000000e+00
    outer loop
      vertex   2.540000e+01 2.192178e+00 3.353172e+01
      vertex   2.540000e+01 2.321836e+00 3.414171e+01
      vertex   2.540000e+01 2.192178e+00 3.385049e+01
    endloop
  endfacet
  facet normal -1.000000e+00 0.000000e+00 0.000000e+00
    outer loop
      vertex   4.830820e+00 4.059945e+00 2.540000e+01
      vertex   4.830820e+00 1.798710e+00 2.540000e+01
      vertex   4.830820e+00 4.059945e+00 3.810000e+01
    endloop
  endfacet
  facet normal -1.000000e+00 -0.000000e+00 0.000000e+00
    outer loop
      vertex   4.830820e+00 4.059945e+00 3.810000e+01
      vertex   4.830820e+00 1.798710e+00 2.540000e+01
      vertex   4.830820e+00 1.798710e+00 3.810000e+01
    endloop
  endfacet
  facet normal 1.000000e+00 4.202170e-16 -8.931988e-17
    outer loop
      vertex   7.194839e+00 3.642377e+00 3.337929e+01
      vertex   7.194839e+00 4.059945e+00 2.540000e+01
      vertex   7.194839e+00 3.708655e+00 3.369110e+01
    endloop
  endfacet
  facet normal 1.000000e+00 2.528335e-15 0.000000e+00
    outer loop
      vertex   7.194839e+00 3.708655e+00 3.369110e+01
      vertex   7.194839e+00 4.059945e+00 2.540000e+01
      vertex   7.194839e+00 4.059945e+00 3.810000e+01
    endloop
  endfacet
  facet normal 1.000000e+00 6.893496e-16 1.465258e-16
    outer loop
      vertex   7.194839e+00 3.708655e+00 3.369110e+01
      vertex   7.194839e+00 4.059945e+00 3.810000e+01
      vertex   7.194839e+00 3.642377e+00 3.400291e+01
    endloop
  endfacet
  facet normal 1.000000e+00 2.616696e-16 1.901141e-16
    outer loop
      vertex   7.194839e+00 3.642377e+00 3.400291e+01
      vertex   7.194839e+00 4.059945e+00 3.810000e+01
      vertex   7.194839e+00 3.455005e+00 3.426081e+01
    endloop
  endfacet
  facet normal 1.000000e+00 1.224295e-16 2.120541e-16
    outer loop
      vertex   7.194839e+00 3.455005e+00 3.426081e+01
      vertex   7.194839e+00 4.059945e+00 3.810000e+01
      vertex   7.194839e+00 3.178937e+00 3.442020e+01
    endloop
  endfacet
  facet normal 1.000000e+00 2.474587e-17 2.354412e-16
    outer loop
      vertex   7.194839e+00 3.178937e+00 3.442020e+01
      vertex   7.194839e+00 4.059945e+00 3.810000e+01
      vertex   7.194839e+00 2.861907e+00 3.445352e+01
    endloop
  endfacet
  facet normal 1.000000e+00 0.000000e+00 2.435714e-16
    outer loop
      vertex   7.194839e+00 2.861907e+00 3.445352e+01
      vertex   7.194839e+00 4.059945e+00 3.810000e+01
      vertex   7.194839e+00 1.798710e+00 3.810000e+01
    endloop
  endfacet
  facet normal 1.000000e+00 -7.229244e-17 2.224932e-16
    outer loop
      vertex   7.194839e+00 2.861907e+00 3.445352e+01
      vertex   7.194839e+00 1.798710e+00 3.810000e+01
      vertex   7.194839e+00 2.558733e+00 3.435501e+01
    endloop
  endfacet
  facet normal 1.000000e+00 -1.805515e-16 2.005227e-16
    outer loop
      vertex   7.194839e+00 2.558733e+00 3.435501e+01
      vertex   7.194839e+00 1.798710e+00 3.810000e+01
      vertex   7.194839e+00 2.321836e+00 3.414171e+01
    endloop
  endfacet
  facet normal 1.000000e+00 -3.886195e-16 1.730245e-16
    outer loop
      vertex   7.194839e+00 2.321836e+00 3.414171e+01
      vertex   7.194839e+00 1.798710e+00 3.810000e+01
      vertex   7.194839e+00 2.192178e+00 3.385049e+01
    endloop
  endfacet
  facet normal 1.000000e+00 -2.257307e-15 0.000000e+00
    outer loop
      vertex   7.194839e+00 2.192178e+00 3.385049e+01
      vertex   7.194839e+00 1.798710e+00 3.810000e+01
      vertex   7.194839e+00 2.192178e+00 3.353172e+01
    endloop
  endfacet
  facet normal 1.000000e+00 -2.257307e-15 0.000000e+00
    outer loop
      vertex   7.194839e+00 2.192178e+00 3.353172e+01
      vertex   7.194839e+00 1.798710e+00 3.810000e+01
      vertex   7.194839e+00 1.798710e+00 2.540000e+01
    endloop
  endfacet
  facet normal 1.000000e+00 -2.212734e-16 -9.851726e-17
    outer loop
      vertex   7.194839e+00 2.192178e+00 3.353172e+01
      vertex   7.194839e+00 1.798710e+00 2.540000e+01
      vertex   7.194839e+00 2.321836e+00 3.324050e+01
    endloop
  endfacet
  facet normal 1.000000e+00 -9.621814e-17 -1.068611e-16
    outer loop
      vertex   7.194839e+00 2.321836e+00 3.324050e+01
      vertex   7.194839e+00 1.798710e+00 2.540000e+01
      vertex   7.194839e+00 2.558733e+00 3.302720e+01
    endloop
  endfacet
  facet normal 1.000000e+00 -3.664991e-17 -1.127968e-16
    outer loop
      vertex   7.194839e+00 2.558733e+00 3.302720e+01
      vertex   7.194839e+00 1.798710e+00 2.540000e+01
      vertex   7.194839e+00 2.861907e+00 3.292869e+01
    endloop
  endfacet
  facet normal 1.000000e+00 0.000000e+00 -1.179725e-16
    outer loop
      vertex   7.194839e+00 2.861907e+00 3.292869e+01
      vertex   7.194839e+00 1.798710e+00 2.540000e+01
      vertex   7.194839e+00 4.059945e+00 2.540000e+01
    endloop
  endfacet
  facet normal 1.000000e+00 1.219544e-17 -1.160319e-16
    outer loop
      vertex   7.194839e+00 2.861907e+00 3.292869e+01
      vertex   7.194839e+00 4.059945e+00 2.540000e+01
      vertex   7.194839e+00 3.178937e+00 3.296201e+01
    endloop
  endfacet
  facet normal 1.000000e+00 6.353756e-17 -1.100503e-16
    outer loop
      vertex   7.194839e+00 3.178937e+00 3.296201e+01
      vertex   7.194839e+00 4.059945e+00 2.540000e+01
      vertex   7.194839e+00 3.455005e+00 3.312140e+01
    endloop
  endfacet
  facet normal 1.000000e+00 1.429120e-16 -1.038316e-16
    outer loop
      vertex   7.194839e+00 3.455005e+00 3.312140e+01
      vertex   7.194839e+00 4.059945e+00 2.540000e+01
      vertex   7.194839e+00 3.642377e+00 3.337929e+01
    endloop
  endfacet
  facet normal 0.000000e+00 -1.000000e+00 0.000000e+00
    outer loop
      vertex   4.830820e+00 1.798710e+00 2.540000e+01
      vertex   7.194839e+00 1.798710e+00 2.540000e+01
      vertex   4.830820e+00 1.798710e+00 3.810000e+01
    endloop
  endfacet
  facet normal 0.000000e+00 -1.000000e+00 0.000000e+00
    outer loop
      vertex   4.830820e+00 1.798710e+00 3.810000e+01
      vertex   7.194839e+00 1.798710e+00 2.540000e+01
      vertex   7.194839e+00 1.798710e+00 3.810000e+01
    endloop
  endfacet
  facet normal 0.000000e+00 1.000000e+00 -0.000000e+00
    outer loop
      vertex   7.194839e+00 4.059945e+00 2.540000e+01
      vertex   4.830820e+00 4.059945e+00 2.540000e+01
      vertex   7.194839e+00 4.059945e+00 3.810000e+01
    endloop
  endfacet
  facet normal 0.000000e+00 1.000000e+00 0.000000e+00
    outer loop
      vertex   7.194839e+00 4.059945e+00 3.810000e+01
      vertex   4.830820e+00 4.059945e+00 2.540000e+01
      vertex   4.830820e+00 4.059945e+00 3.810000e+01
    endloop
  endfacet
  facet normal 0.000000e+00 0.000000e+00 1.000000e+00
    outer loop
      vertex   7.194839e+00 4.059945e+00 3.810000e+01
      vertex   4.830820e+00 4.059945e+00 3.810000e+01
      vertex   7.194839e+00 1.798710e+00 3.810000e+01
    endloop
  endfacet
  facet normal 0.000000e+00 0.000000e+00 1.000000e+00
    outer loop
      vertex   7.194839e+00 1.798710e+00 3.810000e+01
      vertex   4.830820e+00 4.059945e+00 3.810000e+01
      vertex   4.830820e+00 1.798710e+00 3.810000e+01
    endloop
  endfacet
  facet normal 9.932384e-01 -1.160929e-01 0.000000e+00
    outer loop
      vertex   8.535755e+00 2.343563e+00 2.540000e+01
      vertex   8.535755e+00 2.343563e+00 1.270000e+01
      vertex   8.604221e+00 2.929327e+00 2.540000e+01
    endloop
  endfacet
  facet normal 9.932384e-01 -1.160929e-01 0.000000e+00
    outer loop
      vertex   8.604221e+00 2.929327e+00 2.540000e+01
      vertex   8.535755e+00 2.343563e+00 1.270000e+01
      vertex   8.604221e+00 2.929327e+00 1.270000e+01
    endloop
  endfacet
  facet normal 9.932384e-01 1.160929e-01 0.000000e+00
    outer loop
      vertex   8.604221e+00 2.929327e+00 2.540000e+01
      vertex   8.604221e+00 2.929327e+00 1.270000e+01
      vertex   8.535755e+00 3.515091e+00 2.540000e+01
    endloop
  endfacet
  facet normal 9.932384e-01 1.160929e-01 0.000000e+00
    outer loop
      vertex   8.535755e+00 3.515091e+00 2.540000e+01
      vertex   8.604221e+00 2.929327e+00 1.270000e+01
      vertex   8.535755e+00 3.515091e+00 1.270000e+01
    endloop
  endfacet
  facet normal 9.396926e-01 3.420201e-01 0.000000e+00
    outer loop
      vertex   8.535755e+00 3.515091e+00 2.540000e+01
      vertex   8.535755e+00 3.515091e+00 1.270000e+01
      vertex   8.334048e+00 4.069277e+00 1.270000e+01
    endloop
  endfacet
  facet normal 9.396926e-01 -3.420201e-01 0.000000e+00
    outer loop
      vertex   8.535755e+00 2.343563e+00 2.540000e+01
      vertex   8.334048e+00 1.789377e+00 2.540000e+01
      vertex   8.535755e+00 2.343563e+00 1.270000e+01
    endloop
  endfacet
  facet normal 9.396926e-01 -3.420201e-01 0.000000e+00
    outer loop
      vertex   8.535755e+00 2.343563e+00 1.270000e+01
      vertex   8.334048e+00 1.789377e+00 2.540000e+01
      vertex   8.334048e+00 1.789377e+00 1.270000e+01
    endloop
  endfacet
  facet normal 8.354878e-01 -5.495090e-01 0.000000e+00
    outer loop
      vertex   8.334048e+00 1.789377e+00 1.270000e+01
      vertex   8.334048e+00 1.789377e+00 2.540000e+01
      vertex   8.009974e+00 1.296647e+00 2.540000e+01
    endloop
  endfacet
  facet normal 8.354878e-01 -5.495090e-01 0.000000e+00
    outer loop
      vertex   8.334048e+00 1.789377e+00 1.270000e+01
      vertex   8.009974e+00 1.296647e+00 2.540000e+01
      vertex   8.009974e+00 1.296647e+00 1.270000e+01
    endloop
  endfacet
  facet normal 6.862416e-01 -7.273736e-01 0.000000e+00
    outer loop
      vertex   8.009974e+00 1.296647e+00 1.270000e+01
      vertex   8.009974e+00 1.296647e+00 2.540000e+01
      vertex   7.581004e+00 8.919343e-01 2.540000e+01
    endloop
  endfacet
  facet normal 6.862416e-01 -7.273736e-01 0.000000e+00
    outer loop
      vertex   8.009974e+00 1.296647e+00 1.270000e+01
      vertex   7.581004e+00 8.919343e-01 2.540000e+01
      vertex   7.581004e+00 8.919343e-01 1.270000e+01
    endloop
  endfacet
  facet normal 5.000000e-01 -8.660254e-01 0.000000e+00
    outer loop
      vertex   7.581004e+00 8.919343e-01 1.270000e+01
      vertex   7.581004e+00 8.919343e-01 2.540000e+01
      vertex   7.070264e+00 5.970583e-01 2.540000e+01
    endloop
  endfacet
  facet normal 5.000000e-01 -8.660254e-01 -1.482303e-17
    outer loop
      vertex   7.581004e+00 8.919343e-01 1.270000e+01
      vertex   7.070264e+00 5.970583e-01 2.540000e+01
      vertex   7.070264e+00 5.970583e-01 1.270000e+01
    endloop
  endfacet
  facet normal 2.868032e-01 -9.579895e-01 -1.674932e-17
    outer loop
      vertex   7.070264e+00 5.970583e-01 1.270000e+01
      vertex   7.070264e+00 5.970583e-01 2.540000e+01
      vertex   6.505288e+00 4.279155e-01 2.540000e+01
    endloop
  endfacet
  facet normal 2.868032e-01 -9.579895e-01 -4.261622e-17
    outer loop
      vertex   7.070264e+00 5.970583e-01 1.270000e+01
      vertex   6.505288e+00 4.279155e-01 2.540000e+01
      vertex   6.505288e+00 4.279155e-01 1.270000e+01
    endloop
  endfacet
  facet normal 5.814483e-02 -9.983082e-01 -4.363562e-17
    outer loop
      vertex   6.505288e+00 4.279155e-01 1.270000e+01
      vertex   6.505288e+00 4.279155e-01 2.540000e+01
      vertex   5.916533e+00 3.936244e-01 2.540000e+01
    endloop
  endfacet
  facet normal 5.814483e-02 -9.983082e-01 4.168978e-18
    outer loop
      vertex   6.505288e+00 4.279155e-01 1.270000e+01
      vertex   5.916533e+00 3.936244e-01 2.540000e+01
      vertex   5.916533e+00 3.936244e-01 1.270000e+01
    endloop
  endfacet
  facet normal -1.736482e-01 -9.848078e-01 -1.214414e-17
    outer loop
      vertex   5.916533e+00 3.936244e-01 1.270000e+01
      vertex   5.916533e+00 3.936244e-01 2.540000e+01
      vertex   5.335741e+00 4.960338e-01 2.540000e+01
    endloop
  endfacet
  facet normal -1.736482e-01 -9.848078e-01 2.130811e-17
    outer loop
      vertex   5.916533e+00 3.936244e-01 1.270000e+01
      vertex   5.335741e+00 4.960338e-01 2.540000e+01
      vertex   5.335741e+00 4.960338e-01 1.270000e+01
    endloop
  endfacet
  facet normal -3.960798e-01 -9.182161e-01 2.006741e-17
    outer loop
      vertex   5.335741e+00 4.960338e-01 1.270000e+01
      vertex   5.335741e+00 4.960338e-01 2.540000e+01
      vertex   4.794221e+00 7.296226e-01 2.540000e+01
    endloop
  endfacet
  facet normal -3.960798e-01 -9.182161e-01 2.594031e-17
    outer loop
      vertex   5.335741e+00 4.960338e-01 1.270000e+01
      vertex   4.794221e+00 7.296226e-01 2.540000e+01
      vertex   4.794221e+00 7.296226e-01 1.270000e+01
    endloop
  endfacet
  facet normal -5.971586e-01 -8.021232e-01 7.322171e-18
    outer loop
      vertex   4.794221e+00 7.296226e-01 1.270000e+01
      vertex   4.794221e+00 7.296226e-01 2.540000e+01
      vertex   4.321168e+00 1.081798e+00 2.540000e+01
    endloop
  endfacet
  facet normal -5.971586e-01 -8.021232e-01 0.000000e+00
    outer loop
      vertex   4.794221e+00 7.296226e-01 1.270000e+01
      vertex   4.321168e+00 1.081798e+00 2.540000e+01
      vertex   4.321168e+00 1.081798e+00 1.270000e+01
    endloop
  endfacet
  facet normal -7.660444e-01 -6.427876e-01 0.000000e+00
    outer loop
      vertex   4.321168e+00 1.081798e+00 1.270000e+01
      vertex   4.321168e+00 1.081798e+00 2.540000e+01
      vertex   3.942082e+00 1.533574e+00 2.540000e+01
    endloop
  endfacet
  facet normal -7.660444e-01 -6.427876e-01 0.000000e+00
    outer loop
      vertex   4.321168e+00 1.081798e+00 1.270000e+01
      vertex   3.942082e+00 1.533574e+00 2.540000e+01
      vertex   3.942082e+00 1.533574e+00 1.270000e+01
    endloop
  endfacet
  facet normal -8.936326e-01 -4.487992e-01 0.000000e+00
    outer loop
      vertex   3.942082e+00 1.533574e+00 1.270000e+01
      vertex   3.942082e+00 1.533574e+00 2.540000e+01
      vertex   3.677402e+00 2.060596e+00 2.540000e+01
    endloop
  endfacet
  facet normal -8.936326e-01 -4.487992e-01 0.000000e+00
    outer loop
      vertex   3.942082e+00 1.533574e+00 1.270000e+01
      vertex   3.677402e+00 2.060596e+00 2.540000e+01
      vertex   3.677402e+00 2.060596e+00 1.270000e+01
    endloop
  endfacet
  facet normal -9.730449e-01 -2.306159e-01 0.000000e+00
    outer loop
      vertex   3.677402e+00 2.060596e+00 1.270000e+01
      vertex   3.677402e+00 2.060596e+00 2.540000e+01
      vertex   3.541396e+00 2.634451e+00 2.540000e+01
    endloop
  endfacet
  facet normal -9.730449e-01 -2.306159e-01 0.000000e+00
    outer loop
      vertex   3.677402e+00 2.060596e+00 1.270000e+01
      vertex   3.541396e+00 2.634451e+00 2.540000e+01
      vertex   3.541396e+00 2.634451e+00 1.270000e+01
    endloop
  endfacet
  facet normal -1.000000e+00 0.000000e+00 0.000000e+00
    outer loop
      vertex   3.541396e+00 2.634451e+00 1.270000e+01
      vertex   3.541396e+00 2.634451e+00 2.540000e+01
      vertex   3.541396e+00 3.224203e+00 2.540000e+01
    endloop
  endfacet
  facet normal -1.000000e+00 0.000000e+00 0.000000e+00
    outer loop
      vertex   3.541396e+00 2.634451e+00 1.270000e+01
      vertex   3.541396e+00 3.224203e+00 2.540000e+01
      vertex   3.541396e+00 3.224203e+00 1.270000e+01
    endloop
  endfacet
  facet normal -9.730449e-01 2.306159e-01 0.000000e+00
    outer loop
      vertex   3.541396e+00 3.224203e+00 1.270000e+01
      vertex   3.541396e+00 3.224203e+00 2.540000e+01
      vertex   3.677402e+00 3.798058e+00 2.540000e+01
    endloop
  endfacet
  facet normal -9.730449e-01 2.306159e-01 0.000000e+00
    outer loop
      vertex   3.541396e+00 3.224203e+00 1.270000e+01
      vertex   3.677402e+00 3.798058e+00 2.540000e+01
      vertex   3.677402e+00 3.798058e+00 1.270000e+01
    endloop
  endfacet
  facet normal -8.936326e-01 4.487992e-01 0.000000e+00
    outer loop
      vertex   3.677402e+00 3.798058e+00 1.270000e+01
      vertex   3.677402e+00 3.798058e+00 2.540000e+01
      vertex   3.942082e+00 4.325080e+00 2.540000e+01
    endloop
  endfacet
  facet normal -8.936326e-01 4.487992e-01 0.000000e+00
    outer loop
      vertex   3.677402e+00 3.798058e+00 1.270000e+01
      vertex   3.942082e+00 4.325080e+00 2.540000e+01
      vertex   3.942082e+00 4.325080e+00 1.270000e+01
    endloop
  endfacet
  facet normal -7.660444e-01 6.427876e-01 0.000000e+00
    outer loop
      vertex   3.942082e+00 4.325080e+00 1.270000e+01
      vertex   3.942082e+00 4.325080e+00 2.540000e+01
      vertex   4.321168e+00 4.776856e+00 2.540000e+01
    endloop
  endfacet
  facet normal -7.660444e-01 6.427876e-01 0.000000e+00
    outer loop
      vertex   3.942082e+00 4.325080e+00 1.270000e+01
      vertex   4.321168e+00 4.776856e+00 2.540000e+01
      vertex   4.321168e+00 4.776856e+00 1.270000e+01
    endloop
  endfacet
  facet normal -5.971586e-01 8.021232e-01 0.000000e+00
    outer loop
      vertex   4.321168e+00 4.776856e+00 1.270000e+01
      vertex   4.321168e+00 4.776856e+00 2.540000e+01
      vertex   4.794221e+00 5.129032e+00 2.540000e+01
    endloop
  endfacet
  facet normal -5.971586e-01 8.021232e-01 4.446910e-17
    outer loop
      vertex   4.321168e+00 4.776856e+00 1.270000e+01
      vertex   4.794221e+00 5.129032e+00 2.540000e+01
      vertex   4.794221e+00 5.129032e+00 1.270000e+01
    endloop
  endfacet
  facet normal -3.960798e-01 9.182161e-01 2.769996e-17
    outer loop
      vertex   4.794221e+00 5.129032e+00 1.270000e+01
      vertex   4.794221e+00 5.129032e+00 2.540000e+01
      vertex   5.335741e+00 5.362621e+00 2.540000e+01
    endloop
  endfacet
  facet normal -3.960798e-01 9.182161e-01 0.000000e+00
    outer loop
      vertex   4.794221e+00 5.129032e+00 1.270000e+01
      vertex   5.335741e+00 5.362621e+00 2.540000e+01
      vertex   5.335741e+00 5.362621e+00 1.270000e+01
    endloop
  endfacet
  facet normal -1.736482e-01 9.848078e-01 0.000000e+00
    outer loop
      vertex   5.335741e+00 5.362621e+00 1.270000e+01
      vertex   5.335741e+00 5.362621e+00 2.540000e+01
      vertex   5.916533e+00 5.465030e+00 2.540000e+01
    endloop
  endfacet
  facet normal -1.736482e-01 9.848078e-01 1.204371e-17
    outer loop
      vertex   5.335741e+00 5.362621e+00 1.270000e+01
      vertex   5.916533e+00 5.465030e+00 2.540000e+01
      vertex   5.916533e+00 5.465030e+00 1.270000e+01
    endloop
  endfacet
  facet normal 5.814483e-02 9.983082e-01 -4.066377e-18
    outer loop
      vertex   5.916533e+00 5.465030e+00 1.270000e+01
      vertex   5.916533e+00 5.465030e+00 2.540000e+01
      vertex   6.505288e+00 5.430739e+00 2.540000e+01
    endloop
  endfacet
  facet normal 5.814483e-02 9.983082e-01 0.000000e+00
    outer loop
      vertex   5.916533e+00 5.465030e+00 1.270000e+01
      vertex   6.505288e+00 5.430739e+00 2.540000e+01
      vertex   6.505288e+00 5.430739e+00 1.270000e+01
    endloop
  endfacet
  facet normal 2.868032e-01 9.579895e-01 -0.000000e+00
    outer loop
      vertex   6.505288e+00 5.430739e+00 1.270000e+01
      vertex   6.505288e+00 5.430739e+00 2.540000e+01
      vertex   7.070264e+00 5.261596e+00 2.540000e+01
    endloop
  endfacet
  facet normal 2.868032e-01 9.579895e-01 0.000000e+00
    outer loop
      vertex   6.505288e+00 5.430739e+00 1.270000e+01
      vertex   7.070264e+00 5.261596e+00 2.540000e+01
      vertex   7.070264e+00 5.261596e+00 1.270000e+01
    endloop
  endfacet
  facet normal 5.000000e-01 8.660254e-01 -0.000000e+00
    outer loop
      vertex   7.070264e+00 5.261596e+00 1.270000e+01
      vertex   7.070264e+00 5.261596e+00 2.540000e+01
      vertex   7.581004e+00 4.966720e+00 2.540000e+01
    endloop
  endfacet
  facet normal 5.000000e-01 8.660254e-01 0.000000e+00
    outer loop
      vertex   7.070264e+00 5.261596e+00 1.270000e+01
      vertex   7.581004e+00 4.966720e+00 2.540000e+01
      vertex   7.581004e+00 4.966720e+00 1.270000e+01
    endloop
  endfacet
  facet normal 6.862416e-01 7.273736e-01 -0.000000e+00
    outer loop
      vertex   7.581004e+00 4.966720e+00 1.270000e+01
      vertex   7.581004e+00 4.966720e+00 2.540000e+01
      vertex   8.009974e+00 4.562008e+00 2.540000e+01
    endloop
  endfacet
  facet normal 6.862416e-01 7.273736e-01 0.000000e+00
    outer loop
      vertex   7.581004e+00 4.966720e+00 1.270000e+01
      vertex   8.009974e+00 4.562008e+00 2.540000e+01
      vertex   8.009974e+00 4.562008e+00 1.270000e+01
    endloop
  endfacet
  facet normal 8.354878e-01 5.495090e-01 -0.000000e+00
    outer loop
      vertex   8.009974e+00 4.562008e+00 1.270000e+01
      vertex   8.009974e+00 4.562008e+00 2.540000e+01
      vertex   8.334048e+00 4.069277e+00 2.540000e+01
    endloop
  endfacet
  facet normal 8.354878e-01 5.495090e-01 0.000000e+00
    outer loop
      vertex   8.009974e+00 4.562008e+00 1.270000e+01
      vertex   8.334048e+00 4.069277e+00 2.540000e+01
      vertex   8.334048e+00 4.069277e+00 1.270000e+01
    endloop
  endfacet
  facet normal 9.396926e-01 3.420201e-01 -0.000000e+00
    outer loop
      vertex   8.334048e+00 4.069277e+00 1.270000e+01
      vertex   8.334048e+00 4.069277e+00 2.540000e+01
      vertex   8.535755e+00 3.515091e+00 2.540000e+01
    endloop
  endfacet
  facet normal 0.000000e+00 0.000000e+00 1.000000e+00
    outer loop
      vertex   7.194839e+00 1.798710e+00 2.540000e+01
      vertex   8.604221e+00 2.929327e+00 2.540000e+01
      vertex   7.194839e+00 4.059945e+00 2.540000e+01
    endloop
  endfacet
  facet normal 0.000000e+00 0.000000e+00 1.000000e+00
    outer loop
      vertex   7.194839e+00 4.059945e+00 2.540000e+01
      vertex   8.604221e+00 2.929327e+00 2.540000e+01
      vertex   8.535755e+00 3.515091e+00 2.540000e+01
    endloop
  endfacet
  facet normal -0.000000e+00 0.000000e+00 1.000000e+00
    outer loop
      vertex   7.194839e+00 4.059945e+00 2.540000e+01
      vertex   8.535755e+00 3.515091e+00 2.540000e+01
      vertex   8.334048e+00 4.069277e+00 2.540000e+01
    endloop
  endfacet
  facet normal -0.000000e+00 0.000000e+00 1.000000e+00
    outer loop
      vertex   4.830820e+00 1.798710e+00 2.540000e+01
      vertex   5.916533e+00 3.936244e-01 2.540000e+01
      vertex   7.194839e+00 1.798710e+00 2.540000e+01
    endloop
  endfacet
  facet normal 0.000000e+00 0.000000e+00 1.000000e+00
    outer loop
      vertex   7.194839e+00 1.798710e+00 2.540000e+01
      vertex   5.916533e+00 3.936244e-01 2.540000e+01
      vertex   6.505288e+00 4.279155e-01 2.540000e+01
    endloop
  endfacet
  facet normal 0.000000e+00 0.000000e+00 1.000000e+00
    outer loop
      vertex   7.194839e+00 1.798710e+00 2.540000e+01
      vertex   6.505288e+00 4.279155e-01 2.540000e+01
      vertex   7.070264e+00 5.970583e-01 2.540000e+01
    endloop
  endfacet
  facet normal 0.000000e+00 0.000000e+00 1.000000e+00
    outer loop
      vertex   4.830820e+00 4.059945e+00 2.540000e+01
      vertex   3.541396e+00 3.224203e+00 2.540000e+01
      vertex   4.830820e+00 1.798710e+00 2.540000e+01
    endloop
  endfacet
  facet normal 0.000000e+00 0.000000e+00 1.000000e+00
    outer loop
      vertex   4.830820e+00 1.798710e+00 2.540000e+01
      vertex   3.541396e+00 3.224203e+00 2.540000e+01
      vertex   3.541396e+00 2.634451e+00 2.540000e+01
    endloop
  endfacet
  facet normal 0.000000e+00 0.000000e+00 1.000000e+00
    outer loop
      vertex   4.830820e+00 1.798710e+00 2.540000e+01
      vertex   3.541396e+00 2.634451e+00 2.540000e+01
      vertex   3.677402e+00 2.060596e+00 2.540000e+01
    endloop
  endfacet
  facet normal 0.000000e+00 0.000000e+00 1.000000e+00
    outer loop
      vertex   7.194839e+00 4.059945e+00 2.540000e+01
      vertex   5.916533e+00 5.465030e+00 2.540000e+01
      vertex   4.830820e+00 4.059945e+00 2.540000e+01
    endloop
  endfacet
  facet normal 0.000000e+00 0.000000e+00 1.000000e+00
    outer loop
      vertex   4.830820e+00 4.059945e+00 2.540000e+01
      vertex   5.916533e+00 5.465030e+00 2.540000e+01
      vertex   5.335741e+00 5.362621e+00 2.540000e+01
    endloop
  endfacet
  facet normal 0.000000e+00 -0.000000e+00 1.000000e+00
    outer loop
      vertex   4.830820e+00 4.059945e+00 2.540000e+01
      vertex   5.335741e+00 5.362621e+00 2.540000e+01
      vertex   4.794221e+00 5.129032e+00 2.540000e+01
    endloop
  endfacet
  facet normal 0.000000e+00 0.000000e+00 1.000000e+00
    outer loop
      vertex   8.334048e+00 4.069277e+00 2.540000e+01
      vertex   8.009974e+00 4.562008e+00 2.540000e+01
      vertex   7.194839e+00 4.059945e+00 2.540000e+01
    endloop
  endfacet
  facet normal 0.000000e+00 0.000000e+00 1.000000e+00
    outer loop
      vertex   7.194839e+00 4.059945e+00 2.540000e+01
      vertex   8.009974e+00 4.562008e+00 2.540000e+01
      vertex   7.581004e+00 4.966720e+00 2.540000e+01
    endloop
  endfacet
  facet normal 0.000000e+00 -0.000000e+00 1.000000e+00
    outer loop
      vertex   7.194839e+00 4.059945e+00 2.540000e+01
      vertex   7.581004e+00 4.966720e+00 2.540000e+01
      vertex   7.070264e+00 5.261596e+00 2.540000e+01
    endloop
  endfacet
  facet normal 0.000000e+00 0.000000e+00 1.000000e+00
    outer loop
      vertex   7.070264e+00 5.261596e+00 2.540000e+01
      vertex   6.505288e+00 5.430739e+00 2.540000e+01
      vertex   7.194839e+00 4.059945e+00 2.540000e+01
    endloop
  endfacet
  facet normal 0.000000e+00 0.000000e+00 1.000000e+00
    outer loop
      vertex   7.194839e+00 4.059945e+00 2.540000e+01
      vertex   6.505288e+00 5.430739e+00 2.540000e+01
      vertex   5.916533e+00 5.465030e+00 2.540000e+01
    endloop
  endfacet
  facet normal 0.000000e+00 0.000000e+00 1.000000e+00
    outer loop
      vertex   4.794221e+00 5.129032e+00 2.540000e+01
      vertex   4.321168e+00 4.776856e+00 2.540000e+01
      vertex   4.830820e+00 4.059945e+00 2.540000e+01
    endloop
  endfacet
  facet normal 0.000000e+00 0.000000e+00 1.000000e+00
    outer loop
      vertex   4.830820e+00 4.059945e+00 2.540000e+01
      vertex   4.321168e+00 4.776856e+00 2.540000e+01
      vertex   3.942082e+00 4.325080e+00 2.540000e+01
    endloop
  endfacet
  facet normal 0.000000e+00 0.000000e+00 1.000000e+00
    outer loop
      vertex   4.830820e+00 4.059945e+00 2.540000e+01
      vertex   3.942082e+00 4.325080e+00 2.540000e+01
      vertex   3.677402e+00 3.798058e+00 2.540000e+01
    endloop
  endfacet
  facet normal -0.000000e+00 0.000000e+00 1.000000e+00
    outer loop
      vertex   3.677402e+00 3.798058e+00 2.540000e+01
      vertex   3.541396e+00 3.224203e+00 2.540000e+01
      vertex   4.830820e+00 4.059945e+00 2.540000e+01
    endloop
  endfacet
  facet normal 0.000000e+00 0.000000e+00 1.000000e+00
    outer loop
      vertex   3.677402e+00 2.060596e+00 2.540000e+01
      vertex   3.942082e+00 1.533574e+00 2.540000e+01
      vertex   4.830820e+00 1.798710e+00 2.540000e+01
    endloop
  endfacet
  facet normal 0.000000e+00 0.000000e+00 1.000000e+00
    outer loop
      vertex   4.830820e+00 1.798710e+00 2.540000e+01
      vertex   3.942082e+00 1.533574e+00 2.540000e+01
      vertex   4.321168e+00 1.081798e+00 2.540000e+01
    endloop
  endfacet
  facet normal 0.000000e+00 0.000000e+00 1.000000e+00
    outer loop
      vertex   4.830820e+00 1.798710e+00 2.540000e+01
      vertex   4.321168e+00 1.081798e+00 2.540000e+01
      vertex   4.794221e+00 7.296226e-01 2.540000e+01
    endloop
  endfacet
  facet normal -0.000000e+00 0.000000e+00 1.000000e+00
    outer loop
      vertex   4.794221e+00 7.296226e-01 2.540000e+01
      vertex   5.335741e+00 4.960338e-01 2.540000e+01
      vertex   4.830820e+00 1.798710e+00 2.540000e+01
    endloop
  endfacet
  facet normal 0.000000e+00 0.000000e+00 1.000000e+00
    outer loop
      vertex   4.830820e+00 1.798710e+00 2.540000e+01
      vertex   5.335741e+00 4.960338e-01 2.540000e+01
      vertex   5.916533e+00 3.936244e-01 2.540000e+01
    endloop
  endfacet
  facet normal 0.000000e+00 0.000000e+00 1.000000e+00
    outer loop
      vertex   7.070264e+00 5.970583e-01 2.540000e+01
      vertex   7.581004e+00 8.919343e-01 2.540000e+01
      vertex   7.194839e+00 1.798710e+00 2.540000e+01
    endloop
  endfacet
  facet normal 0.000000e+00 0.000000e+00 1.000000e+00
    outer loop
      vertex   7.194839e+00 1.798710e+00 2.540000e+01
      vertex   7.581004e+00 8.919343e-01 2.540000e+01
      vertex   8.009974e+00 1.296647e+00 2.540000e+01
    endloop
  endfacet
  facet normal 0.000000e+00 0.000000e+00 1.000000e+00
    outer loop
      vertex   7.194839e+00 1.798710e+00 2.540000e+01
      vertex   8.009974e+00 1.296647e+00 2.540000e+01
      vertex   8.334048e+00 1.789377e+00 2.540000e+01
    endloop
  endfacet
  facet normal 0.000000e+00 -0.000000e+00 1.000000e+00
    outer loop
      vertex   8.334048e+00 1.789377e+00 2.540000e+01
      vertex   8.535755e+00 2.343563e+00 2.540000e+01
      vertex   7.194839e+00 1.798710e+00 2.540000e+01
    endloop
  endfacet
  facet normal 0.000000e+00 0.000000e+00 1.000000e+00
    outer loop
      vertex   7.194839e+00 1.798710e+00 2.540000e+01
      vertex   8.535755e+00 2.343563e+00 2.540000e+01
      vertex   8.604221e+00 2.929327e+00 2.540000e+01
    endloop
  endfacet
  facet normal -1.000000e+00 0.000000e+00 0.000000e+00
    outer loop
      vertex   0.000000e+00 6.350000e+00 0.000000e+00
      vertex   0.000000e+00 0.000000e+00 0.000000e+00
      vertex   0.000000e+00 6.350000e+00 1.270000e+01
    endloop
  endfacet
  facet normal -1.000000e+00 -0.000000e+00 0.000000e+00
    outer loop
      vertex   0.000000e+00 6.350000e+00 1.270000e+01
      vertex   0.000000e+00 0.000000e+00 0.000000e+00
      vertex   0.000000e+00 0.000000e+00 1.270000e+01
    endloop
  endfacet
  facet normal 0.000000e+00 1.000000e+00 -0.000000e+00
    outer loop
      vertex   1.270000e+01 6.350000e+00 0.000000e+00
      vertex   0.000000e+00 6.350000e+00 0.000000e+00
      vertex   1.270000e+01 6.350000e+00 1.270000e+01
    endloop
  endfacet
  facet normal 0.000000e+00 1.000000e+00 0.000000e+00
    outer loop
      vertex   1.270000e+01 6.350000e+00 1.270000e+01
      vertex   0.000000e+00 6.350000e+00 0.000000e+00
      vertex   0.000000e+00 6.350000e+00 1.270000e+01
    endloop
  endfacet
  facet normal 1.000000e+00 0.000000e+00 0.000000e+00
    outer loop
      vertex   1.270000e+01 0.000000e+00 0.000000e+00
      vertex   1.270000e+01 6.350000e+00 0.000000e+00
      vertex   1.270000e+01 0.000000e+00 1.270000e+01
    endloop
  endfacet
  facet normal 1.000000e+00 -0.000000e+00 0.000000e+00
    outer loop
      vertex   1.270000e+01 0.000000e+00 1.270000e+01
      vertex   1.270000e+01 6.350000e+00 0.000000e+00
      vertex   1.270000e+01 6.350000e+00 1.270000e+01
    endloop
  endfacet
  facet normal 0.000000e+00 -1.000000e+00 0.000000e+00
    outer loop
      vertex   0.000000e+00 0.000000e+00 0.000000e+00
      vertex   1.270000e+01 0.000000e+00 0.000000e+00
      vertex   0.000000e+00 0.000000e+00 1.270000e+01
    endloop
  endfacet
  facet normal 0.000000e+00 -1.000000e+00 0.000000e+00
    outer loop
      vertex   0.000000e+00 0.000000e+00 1.270000e+01
      vertex   1.270000e+01 0.000000e+00 0.000000e+00
      vertex   1.270000e+01 0.000000e+00 1.270000e+01
    endloop
  endfacet
  facet normal -0.000000e+00 0.000000e+00 1.000000e+00
    outer loop
      vertex   8.535755e+00 2.343563e+00 1.270000e+01
      vertex   1.270000e+01 0.000000e+00 1.270000e+01
      vertex   8.604221e+00 2.929327e+00 1.270000e+01
    endloop
  endfacet
  facet normal -0.000000e+00 0.000000e+00 1.000000e+00
    outer loop
      vertex   8.604221e+00 2.929327e+00 1.270000e+01
      vertex   1.270000e+01 0.000000e+00 1.270000e+01
      vertex   1.270000e+01 6.350000e+00 1.270000e+01
    endloop
  endfacet
  facet normal 0.000000e+00 -0.000000e+00 1.000000e+00
    outer loop
      vertex   8.604221e+00 2.929327e+00 1.270000e+01
      vertex   1.270000e+01 6.350000e+00 1.270000e+01
      vertex   8.535755e+00 3.515091e+00 1.270000e+01
    endloop
  endfacet
  facet normal 0.000000e+00 -0.000000e+00 1.000000e+00
    outer loop
      vertex   8.535755e+00 3.515091e+00 1.270000e+01
      vertex   1.270000e+01 6.350000e+00 1.270000e+01
      vertex   8.334048e+00 4.069277e+00 1.270000e+01
    endloop
  endfacet
  facet normal 0.000000e+00 -0.000000e+00 1.000000e+00
    outer loop
      vertex   8.334048e+00 4.069277e+00 1.270000e+01
      vertex   1.270000e+01 6.350000e+00 1.270000e+01
      vertex   8.009974e+00 4.562008e+00 1.270000e+01
    endloop
  endfacet
  facet normal 0.000000e+00 -0.000000e+00 1.000000e+00
    outer loop
      vertex   8.009974e+00 4.562008e+00 1.270000e+01
      vertex   1.270000e+01 6.350000e+00 1.270000e+01
      vertex   7.581004e+00 4.966720e+00 1.270000e+01
    endloop
  endfacet
  facet normal 0.000000e+00 -0.000000e+00 1.000000e+00
    outer loop
      vertex   7.581004e+00 4.966720e+00 1.270000e+01
      vertex   1.270000e+01 6.350000e+00 1.270000e+01
      vertex   7.070264e+00 5.261596e+00 1.270000e+01
    endloop
  endfacet
  facet normal 0.000000e+00 -0.000000e+00 1.000000e+00
    outer loop
      vertex   7.070264e+00 5.261596e+00 1.270000e+01
      vertex   1.270000e+01 6.350000e+00 1.270000e+01
      vertex   6.505288e+00 5.430739e+00 1.270000e+01
    endloop
  endfacet
  facet normal 0.000000e+00 -0.000000e+00 1.000000e+00
    outer loop
      vertex   6.505288e+00 5.430739e+00 1.270000e+01
      vertex   1.270000e+01 6.350000e+00 1.270000e+01
      vertex   5.916533e+00 5.465030e+00 1.270000e+01
    endloop
  endfacet
  facet normal 0.000000e+00 -0.000000e+00 1.000000e+00
    outer loop
      vertex   5.916533e+00 5.465030e+00 1.270000e+01
      vertex   1.270000e+01 6.350000e+00 1.270000e+01
      vertex   0.000000e+00 6.350000e+00 1.270000e+01
    endloop
  endfacet
  facet normal 0.000000e+00 0.000000e+00 1.000000e+00
    outer loop
      vertex   5.916533e+00 5.465030e+00 1.270000e+01
      vertex   0.000000e+00 6.350000e+00 1.270000e+01
      vertex   5.335741e+00 5.362621e+00 1.270000e+01
    endloop
  endfacet
  facet normal 0.000000e+00 0.000000e+00 1.000000e+00
    outer loop
      vertex   5.335741e+00 5.362621e+00 1.270000e+01
      vertex   0.000000e+00 6.350000e+00 1.270000e+01
      vertex   4.794221e+00 5.129032e+00 1.270000e+01
    endloop
  endfacet
  facet normal 0.000000e+00 0.000000e+00 1.000000e+00
    outer loop
      vertex   4.794221e+00 5.129032e+00 1.270000e+01
      vertex   0.000000e+00 6.350000e+00 1.270000e+01
      vertex   4.321168e+00 4.776856e+00 1.270000e+01
    endloop
  endfacet
  facet normal 0.000000e+00 0.000000e+00 1.000000e+00
    outer loop
      vertex   4.321168e+00 4.776856e+00 1.270000e+01
      vertex   0.000000e+00 6.350000e+00 1.270000e+01
      vertex   3.942082e+00 4.325080e+00 1.270000e+01
    endloop
  endfacet
  facet normal 0.000000e+00 0.000000e+00 1.000000e+00
    outer loop
      vertex   3.942082e+00 4.325080e+00 1.270000e+01
      vertex   0.000000e+00 6.350000e+00 1.270000e+01
      vertex   3.677402e+00 3.798058e+00 1.270000e+01
    endloop
  endfacet
  facet normal 0.000000e+00 0.000000e+00 1.000000e+00
    outer loop
      vertex   3.677402e+00 3.798058e+00 1.270000e+01
      vertex   0.000000e+00 6.350000e+00 1.270000e+01
      vertex   3.541396e+00 3.224203e+00 1.270000e+01
    endloop
  endfacet
  facet normal 0.000000e+00 0.000000e+00 1.000000e+00
    outer loop
      vertex   3.541396e+00 3.224203e+00 1.270000e+01
      vertex   0.000000e+00 6.350000e+00 1.270000e+01
      vertex   0.000000e+00 0.000000e+00 1.270000e+01
    endloop
  endfacet
  facet normal 0.000000e+00 0.000000e+00 1.000000e+00
    outer loop
      vertex   3.541396e+00 3.224203e+00 1.270000e+01
      vertex   0.000000e+00 0.000000e+00 1.270000e+01
      vertex   3.541396e+00 2.634451e+00 1.270000e+01
    endloop
  endfacet
  facet normal 0.000000e+00 0.000000e+00 1.000000e+00
    outer loop
      vertex   3.541396e+00 2.634451e+00 1.270000e+01
      vertex   0.000000e+00 0.000000e+00 1.270000e+01
      vertex   3.677402e+00 2.060596e+00 1.270000e+01
    endloop
  endfacet
  facet normal 0.000000e+00 0.000000e+00 1.000000e+00
    outer loop
      vertex   3.677402e+00 2.060596e+00 1.270000e+01
      vertex   0.000000e+00 0.000000e+00 1.270000e+01
      vertex   3.942082e+00 1.533574e+00 1.270000e+01
    endloop
  endfacet
  facet normal 0.000000e+00 0.000000e+00 1.000000e+00
    outer loop
      vertex   3.942082e+00 1.533574e+00 1.270000e+01
      vertex   0.000000e+00 0.000000e+00 1.270000e+01
      vertex   4.321168e+00 1.081798e+00 1.270000e+01
    endloop
  endfacet
  facet normal 0.000000e+00 0.000000e+00 1.000000e+00
    outer loop
      vertex   4.321168e+00 1.081798e+00 1.270000e+01
      vertex   0.000000e+00 0.000000e+00 1.270000e+01
      vertex   4.794221e+00 7.296226e-01 1.270000e+01
    endloop
  endfacet
  facet normal 0.000000e+00 0.000000e+00 1.000000e+00
    outer loop
      vertex   4.794221e+00 7.296226e-01 1.270000e+01
      vertex   0.000000e+00 0.000000e+00 1.270000e+01
      vertex   5.335741e+00 4.960338e-01 1.270000e+01
    endloop
  endfacet
  facet normal 0.000000e+00 0.000000e+00 1.000000e+00
    outer loop
      vertex   5.335741e+00 4.960338e-01 1.270000e+01
      vertex   0.000000e+00 0.000000e+00 1.270000e+01
      vertex   5.916533e+00 3.936244e-01 1.270000e+01
    endloop
  endfacet
  facet normal 0.000000e+00 0.000000e+00 1.000000e+00
    outer loop
      vertex   5.916533e+00 3.936244e-01 1.270000e+01
      vertex   0.000000e+00 0.000000e+00 1.270000e+01
      vertex   1.270000e+01 0.000000e+00 1.270000e+01
    endloop
  endfacet
  facet normal -0.000000e+00 0.000000e+00 1.000000e+00
    outer loop
      vertex   5.916533e+00 3.936244e-01 1.270000e+01
      vertex   1.270000e+01 0.000000e+00 1.270000e+01
      vertex   6.505288e+00 4.279155e-01 1.270000e+01
    endloop
  endfacet
  facet normal -0.000000e+00 0.000000e+00 1.000000e+00
    outer loop
      vertex   6.505288e+00 4.279155e-01 1.270000e+01
      vertex   1.270000e+01 0.000000e+00 1.270000e+01
      vertex   7.070264e+00 5.970583e-01 1.270000e+01
    endloop
  endfacet
  facet normal -0.000000e+00 0.000000e+00 1.000000e+00
    outer loop
      vertex   7.070264e+00 5.970583e-01 1.270000e+01
      vertex   1.270000e+01 0.000000e+00 1.270000e+01
      vertex   7.581004e+00 8.919343e-01 1.270000e+01
    endloop
  endfacet
  facet normal -0.000000e+00 0.000000e+00 1.000000e+00
    outer loop
      vertex   7.581004e+00 8.919343e-01 1.270000e+01
      vertex   1.270000e+01 0.000000e+00 1.270000e+01
      vertex   8.009974e+00 1.296647e+00 1.270000e+01
    endloop
  endfacet
  facet normal -0.000000e+00 0.000000e+00 1.000000e+00
    outer loop
      vertex   8.009974e+00 1.296647e+00 1.270000e+01
      vertex   1.270000e+01 0.000000e+00 1.270000e+01
      vertex   8.334048e+00 1.789377e+00 1.270000e+01
    endloop
  endfacet
  facet normal -0.000000e+00 0.000000e+00 1.000000e+00
    outer loop
      vertex   8.334048e+00 1.789377e+00 1.270000e+01
      vertex   1.270000e+01 0.000000e+00 1.270000e+01
      vertex   8.535755e+00 2.343563e+00 1.270000e+01
    endloop
  endfacet
  facet normal 0.000000e+00 0.000000e+00 -1.000000e+00
    outer loop
      vertex   1.270000e+01 0.000000e+00 0.000000e+00
      vertex   0.000000e+00 0.000000e+00 0.000000e+00
      vertex   1.270000e+01 6.350000e+00 0.000000e+00
    endloop
  endfacet
  facet normal -0.000000e+00 0.000000e+00 -1.000000e+00
    outer loop
      vertex   1.270000e+01 6.350000e+00 0.000000e+00
      vertex   0.000000e+00 0.000000e+00 0.000000e+00
      vertex   0.000000e+00 6.350000e+00 0.000000e+00
    endloop
  endfacet
endsolid
