solid ascii
  facet normal 9.977687e-001 3.907068e-002 5.413891e-002
    outer loop
      vertex   -3.893752e+000 1.310353e+001 1.278852e+001
      vertex   -3.835060e+000 1.160468e+001 1.278852e+001
      vertex   -3.887602e+000 1.310377e+001 1.267500e+001
    endloop
  endfacet
  facet normal 9.860708e-001 3.861261e-002 1.617820e-001
    outer loop
      vertex   -3.893752e+000 1.310353e+001 1.278852e+001
      vertex   -3.853439e+000 1.160396e+001 1.290072e+001
      vertex   -3.835060e+000 1.160468e+001 1.278852e+001
    endloop
  endfacet
  facet normal 9.860708e-001 3.861261e-002 1.617820e-001
    outer loop
      vertex   -3.893752e+000 1.310353e+001 1.278852e+001
      vertex   -3.912132e+000 1.310281e+001 1.290072e+001
      vertex   -3.853439e+000 1.160396e+001 1.290072e+001
    endloop
  endfacet
  facet normal 9.628121e-001 3.770184e-002 2.675283e-001
    outer loop
      vertex   -3.853439e+000 1.160396e+001 1.290072e+001
      vertex   -3.912132e+000 1.310281e+001 1.290072e+001
      vertex   -3.883832e+000 1.160277e+001 1.301027e+001
    endloop
  endfacet
  facet normal 9.282653e-001 3.634906e-002 3.701382e-001
    outer loop
      vertex   -3.825140e+000 1.010392e+001 1.301027e+001
      vertex   -3.883832e+000 1.160277e+001 1.301027e+001
      vertex   -3.867189e+000 1.010227e+001 1.311588e+001
    endloop
  endfacet
  facet normal 9.628121e-001 3.770184e-002 2.675283e-001
    outer loop
      vertex   -3.825140e+000 1.010392e+001 1.301027e+001
      vertex   -3.853439e+000 1.160396e+001 1.290072e+001
      vertex   -3.883832e+000 1.160277e+001 1.301027e+001
    endloop
  endfacet
  facet normal 9.628121e-001 3.770184e-002 2.675283e-001
    outer loop
      vertex   -3.825140e+000 1.010392e+001 1.301027e+001
      vertex   -3.794747e+000 1.010511e+001 1.290072e+001
      vertex   -3.853439e+000 1.160396e+001 1.290072e+001
    endloop
  endfacet
  facet normal 9.860708e-001 3.861261e-002 1.617820e-001
    outer loop
      vertex   -3.853439e+000 1.160396e+001 1.290072e+001
      vertex   -3.794747e+000 1.010511e+001 1.290072e+001
      vertex   -3.835060e+000 1.160468e+001 1.278852e+001
    endloop
  endfacet
  facet normal 9.860708e-001 3.861261e-002 1.617820e-001
    outer loop
      vertex   -3.835060e+000 1.160468e+001 1.278852e+001
      vertex   -3.794747e+000 1.010511e+001 1.290072e+001
      vertex   -3.776368e+000 1.010583e+001 1.278852e+001
    endloop
  endfacet
  facet normal 9.977687e-001 3.907068e-002 5.413891e-002
    outer loop
      vertex   -3.828910e+000 1.160492e+001 1.267500e+001
      vertex   -3.776368e+000 1.010583e+001 1.278852e+001
      vertex   -3.770218e+000 1.010607e+001 1.267500e+001
    endloop
  endfacet
  facet normal 9.977687e-001 3.907068e-002 -5.413891e-002
    outer loop
      vertex   -3.835060e+000 1.160468e+001 1.256148e+001
      vertex   -3.770218e+000 1.010607e+001 1.267500e+001
      vertex   -3.776368e+000 1.010583e+001 1.256148e+001
    endloop
  endfacet
  facet normal 9.860708e-001 3.861261e-002 -1.617820e-001
    outer loop
      vertex   -3.853439e+000 1.160396e+001 1.244928e+001
      vertex   -3.776368e+000 1.010583e+001 1.256148e+001
      vertex   -3.794747e+000 1.010511e+001 1.244928e+001
    endloop
  endfacet
  facet normal 9.628121e-001 3.770184e-002 -2.675283e-001
    outer loop
      vertex   -3.883832e+000 1.160277e+001 1.233973e+001
      vertex   -3.794747e+000 1.010511e+001 1.244928e+001
      vertex   -3.825140e+000 1.010392e+001 1.233973e+001
    endloop
  endfacet
  facet normal 9.282653e-001 3.634906e-002 -3.701382e-001
    outer loop
      vertex   -3.925881e+000 1.160112e+001 1.223412e+001
      vertex   -3.825140e+000 1.010392e+001 1.233973e+001
      vertex   -3.867189e+000 1.010227e+001 1.223412e+001
    endloop
  endfacet
  facet normal 8.828355e-001 3.457011e-002 -4.684084e-001
    outer loop
      vertex   -3.979095e+000 1.159904e+001 1.213367e+001
      vertex   -3.867189e+000 1.010227e+001 1.223412e+001
      vertex   -3.920403e+000 1.010019e+001 1.213367e+001
    endloop
  endfacet
  facet normal 8.270552e-001 3.238586e-002 -5.611871e-001
    outer loop
      vertex   -4.042848e+000 1.159654e+001 1.203957e+001
      vertex   -3.920403e+000 1.010019e+001 1.213367e+001
      vertex   -3.984156e+000 1.009769e+001 1.203957e+001
    endloop
  endfacet
  facet normal 7.615784e-001 2.982192e-002 -6.473863e-001
    outer loop
      vertex   -4.116394e+000 1.159366e+001 1.195292e+001
      vertex   -3.984156e+000 1.009769e+001 1.203957e+001
      vertex   -4.057702e+000 1.009481e+001 1.195292e+001
    endloop
  endfacet
  facet normal 6.871728e-001 2.690835e-002 -7.259955e-001
    outer loop
      vertex   -4.198871e+000 1.159043e+001 1.187473e+001
      vertex   -4.057702e+000 1.009481e+001 1.195292e+001
      vertex   -4.140179e+000 1.009158e+001 1.187473e+001
    endloop
  endfacet
  facet normal 6.047108e-001 2.367929e-002 -7.960931e-001
    outer loop
      vertex   -4.289311e+000 1.158689e+001 1.180593e+001
      vertex   -4.140179e+000 1.009158e+001 1.187473e+001
      vertex   -4.230619e+000 1.008804e+001 1.180593e+001
    endloop
  endfacet
  facet normal 5.151590e-001 2.017262e-002 -8.568572e-001
    outer loop
      vertex   -4.386654e+000 1.158308e+001 1.174731e+001
      vertex   -4.230619e+000 1.008804e+001 1.180593e+001
      vertex   -4.327961e+000 1.008423e+001 1.174731e+001
    endloop
  endfacet
  facet normal 4.195676e-001 1.642945e-002 -9.075754e-001
    outer loop
      vertex   -4.489758e+000 1.157904e+001 1.169957e+001
      vertex   -4.327961e+000 1.008423e+001 1.174731e+001
      vertex   -4.431066e+000 1.008019e+001 1.169957e+001
    endloop
  endfacet
  facet normal 3.190570e-001 1.249365e-002 -9.476532e-001
    outer loop
      vertex   -4.597416e+000 1.157483e+001 1.166327e+001
      vertex   -4.431066e+000 1.008019e+001 1.169957e+001
      vertex   -4.538724e+000 1.007598e+001 1.166327e+001
    endloop
  endfacet
  facet normal 2.148058e-001 8.411376e-003 -9.766206e-001
    outer loop
      vertex   -4.708365e+000 1.157048e+001 1.163883e+001
      vertex   -4.538724e+000 1.007598e+001 1.166327e+001
      vertex   -4.649673e+000 1.007163e+001 1.163883e+001
    endloop
  endfacet
  facet normal 1.080362e-001 4.230487e-003 -9.941380e-001
    outer loop
      vertex   -4.821303e+000 1.156606e+001 1.162654e+001
      vertex   -4.649673e+000 1.007163e+001 1.163883e+001
      vertex   -4.762611e+000 1.006721e+001 1.162654e+001
    endloop
  endfacet
  facet normal 0.000000e+000 -0.000000e+000 -1.000000e+000
    outer loop
      vertex   -4.934908e+000 1.156161e+001 1.162654e+001
      vertex   -4.762611e+000 1.006721e+001 1.162654e+001
      vertex   -4.876216e+000 1.006276e+001 1.162654e+001
    endloop
  endfacet
  facet normal -1.080362e-001 -4.230487e-003 -9.941380e-001
    outer loop
      vertex   -5.047847e+000 1.155719e+001 1.163883e+001
      vertex   -4.876216e+000 1.006276e+001 1.162654e+001
      vertex   -4.989155e+000 1.005834e+001 1.163883e+001
    endloop
  endfacet
  facet normal -2.148058e-001 -8.411376e-003 -9.766206e-001
    outer loop
      vertex   -5.158795e+000 1.155285e+001 1.166327e+001
      vertex   -4.989155e+000 1.005834e+001 1.163883e+001
      vertex   -5.100103e+000 1.005399e+001 1.166327e+001
    endloop
  endfacet
  facet normal -3.190570e-001 -1.249365e-002 -9.476532e-001
    outer loop
      vertex   -5.266453e+000 1.154863e+001 1.169957e+001
      vertex   -5.100103e+000 1.005399e+001 1.166327e+001
      vertex   -5.207761e+000 1.004978e+001 1.169957e+001
    endloop
  endfacet
  facet normal -4.195676e-001 -1.642945e-002 -9.075754e-001
    outer loop
      vertex   -5.369558e+000 1.154459e+001 1.174731e+001
      vertex   -5.207761e+000 1.004978e+001 1.169957e+001
      vertex   -5.310866e+000 1.004574e+001 1.174731e+001
    endloop
  endfacet
  facet normal -5.151590e-001 -2.017262e-002 -8.568572e-001
    outer loop
      vertex   -5.466901e+000 1.154078e+001 1.180593e+001
      vertex   -5.310866e+000 1.004574e+001 1.174731e+001
      vertex   -5.408209e+000 1.004193e+001 1.180593e+001
    endloop
  endfacet
  facet normal -6.047108e-001 -2.367929e-002 -7.960931e-001
    outer loop
      vertex   -5.557341e+000 1.153724e+001 1.187473e+001
      vertex   -5.408209e+000 1.004193e+001 1.180593e+001
      vertex   -5.498649e+000 1.003839e+001 1.187473e+001
    endloop
  endfacet
  facet normal -6.871728e-001 -2.690835e-002 -7.259955e-001
    outer loop
      vertex   -5.639817e+000 1.153401e+001 1.195292e+001
      vertex   -5.498649e+000 1.003839e+001 1.187473e+001
      vertex   -5.581125e+000 1.003516e+001 1.195292e+001
    endloop
  endfacet
  facet normal -7.615784e-001 -2.982192e-002 -6.473863e-001
    outer loop
      vertex   -5.713363e+000 1.153113e+001 1.203957e+001
      vertex   -5.581125e+000 1.003516e+001 1.195292e+001
      vertex   -5.654671e+000 1.003228e+001 1.203957e+001
    endloop
  endfacet
  facet normal -8.270552e-001 -3.238586e-002 -5.611871e-001
    outer loop
      vertex   -5.777117e+000 1.152863e+001 1.213367e+001
      vertex   -5.654671e+000 1.003228e+001 1.203957e+001
      vertex   -5.718425e+000 1.002978e+001 1.213367e+001
    endloop
  endfacet
  facet normal -8.828355e-001 -3.457011e-002 -4.684084e-001
    outer loop
      vertex   -5.830330e+000 1.152655e+001 1.223412e+001
      vertex   -5.718425e+000 1.002978e+001 1.213367e+001
      vertex   -5.771638e+000 1.002770e+001 1.223412e+001
    endloop
  endfacet
  facet normal -9.282653e-001 -3.634906e-002 -3.701382e-001
    outer loop
      vertex   -5.872380e+000 1.152490e+001 1.233973e+001
      vertex   -5.771638e+000 1.002770e+001 1.223412e+001
      vertex   -5.813688e+000 1.002605e+001 1.233973e+001
    endloop
  endfacet
  facet normal -9.628121e-001 -3.770184e-002 -2.675283e-001
    outer loop
      vertex   -5.902772e+000 1.152371e+001 1.244928e+001
      vertex   -5.813688e+000 1.002605e+001 1.233973e+001
      vertex   -5.844080e+000 1.002486e+001 1.244928e+001
    endloop
  endfacet
  facet normal -9.860708e-001 -3.861261e-002 -1.617820e-001
    outer loop
      vertex   -5.921151e+000 1.152299e+001 1.256148e+001
      vertex   -5.844080e+000 1.002486e+001 1.244928e+001
      vertex   -5.862459e+000 1.002414e+001 1.256148e+001
    endloop
  endfacet
  facet normal -9.977687e-001 -3.907068e-002 -5.413891e-002
    outer loop
      vertex   -5.927302e+000 1.152275e+001 1.267500e+001
      vertex   -5.862459e+000 1.002414e+001 1.256148e+001
      vertex   -5.868610e+000 1.002390e+001 1.267500e+001
    endloop
  endfacet
  facet normal -9.977687e-001 -3.907068e-002 5.413891e-002
    outer loop
      vertex   -5.921151e+000 1.152299e+001 1.278852e+001
      vertex   -5.868610e+000 1.002390e+001 1.267500e+001
      vertex   -5.862459e+000 1.002414e+001 1.278852e+001
    endloop
  endfacet
  facet normal -9.860708e-001 -3.861261e-002 1.617820e-001
    outer loop
      vertex   -5.902772e+000 1.152371e+001 1.290072e+001
      vertex   -5.862459e+000 1.002414e+001 1.278852e+001
      vertex   -5.844080e+000 1.002486e+001 1.290072e+001
    endloop
  endfacet
  facet normal -9.628121e-001 -3.770184e-002 2.675283e-001
    outer loop
      vertex   -5.872380e+000 1.152490e+001 1.301027e+001
      vertex   -5.844080e+000 1.002486e+001 1.290072e+001
      vertex   -5.813688e+000 1.002605e+001 1.301027e+001
    endloop
  endfacet
  facet normal -9.282653e-001 -3.634906e-002 3.701382e-001
    outer loop
      vertex   -5.830330e+000 1.152655e+001 1.311588e+001
      vertex   -5.813688e+000 1.002605e+001 1.301027e+001
      vertex   -5.771638e+000 1.002770e+001 1.311588e+001
    endloop
  endfacet
  facet normal -8.828355e-001 -3.457011e-002 4.684084e-001
    outer loop
      vertex   -5.777117e+000 1.152863e+001 1.321633e+001
      vertex   -5.771638e+000 1.002770e+001 1.311588e+001
      vertex   -5.718425e+000 1.002978e+001 1.321633e+001
    endloop
  endfacet
  facet normal -8.270552e-001 -3.238586e-002 5.611871e-001
    outer loop
      vertex   -5.713363e+000 1.153113e+001 1.331043e+001
      vertex   -5.718425e+000 1.002978e+001 1.321633e+001
      vertex   -5.654671e+000 1.003228e+001 1.331043e+001
    endloop
  endfacet
  facet normal -7.615784e-001 -2.982192e-002 6.473863e-001
    outer loop
      vertex   -5.639817e+000 1.153401e+001 1.339708e+001
      vertex   -5.654671e+000 1.003228e+001 1.331043e+001
      vertex   -5.581125e+000 1.003516e+001 1.339708e+001
    endloop
  endfacet
  facet normal -6.871728e-001 -2.690835e-002 7.259955e-001
    outer loop
      vertex   -5.557341e+000 1.153724e+001 1.347527e+001
      vertex   -5.581125e+000 1.003516e+001 1.339708e+001
      vertex   -5.498649e+000 1.003839e+001 1.347527e+001
    endloop
  endfacet
  facet normal -6.047108e-001 -2.367929e-002 7.960931e-001
    outer loop
      vertex   -5.466901e+000 1.154078e+001 1.354407e+001
      vertex   -5.498649e+000 1.003839e+001 1.347527e+001
      vertex   -5.408209e+000 1.004193e+001 1.354407e+001
    endloop
  endfacet
  facet normal -5.151590e-001 -2.017262e-002 8.568572e-001
    outer loop
      vertex   -5.369558e+000 1.154459e+001 1.360269e+001
      vertex   -5.408209e+000 1.004193e+001 1.354407e+001
      vertex   -5.310866e+000 1.004574e+001 1.360269e+001
    endloop
  endfacet
  facet normal -4.195676e-001 -1.642945e-002 9.075754e-001
    outer loop
      vertex   -5.266453e+000 1.154863e+001 1.365043e+001
      vertex   -5.310866e+000 1.004574e+001 1.360269e+001
      vertex   -5.207761e+000 1.004978e+001 1.365043e+001
    endloop
  endfacet
  facet normal -3.190570e-001 -1.249365e-002 9.476532e-001
    outer loop
      vertex   -5.158795e+000 1.155285e+001 1.368673e+001
      vertex   -5.207761e+000 1.004978e+001 1.365043e+001
      vertex   -5.100103e+000 1.005399e+001 1.368673e+001
    endloop
  endfacet
  facet normal -2.148058e-001 -8.411376e-003 9.766206e-001
    outer loop
      vertex   -5.047847e+000 1.155719e+001 1.371117e+001
      vertex   -5.100103e+000 1.005399e+001 1.368673e+001
      vertex   -4.989155e+000 1.005834e+001 1.371117e+001
    endloop
  endfacet
  facet normal -1.080362e-001 -4.230487e-003 9.941380e-001
    outer loop
      vertex   -4.934908e+000 1.156161e+001 1.372346e+001
      vertex   -4.989155e+000 1.005834e+001 1.371117e+001
      vertex   -4.876216e+000 1.006276e+001 1.372346e+001
    endloop
  endfacet
  facet normal -0.000000e+000 0.000000e+000 1.000000e+000
    outer loop
      vertex   -4.821303e+000 1.156606e+001 1.372346e+001
      vertex   -4.876216e+000 1.006276e+001 1.372346e+001
      vertex   -4.762611e+000 1.006721e+001 1.372346e+001
    endloop
  endfacet
  facet normal 1.080362e-001 4.230487e-003 9.941380e-001
    outer loop
      vertex   -4.708365e+000 1.157048e+001 1.371117e+001
      vertex   -4.762611e+000 1.006721e+001 1.372346e+001
      vertex   -4.649673e+000 1.007163e+001 1.371117e+001
    endloop
  endfacet
  facet normal 2.148058e-001 8.411376e-003 9.766206e-001
    outer loop
      vertex   -4.597416e+000 1.157483e+001 1.368673e+001
      vertex   -4.649673e+000 1.007163e+001 1.371117e+001
      vertex   -4.538724e+000 1.007598e+001 1.368673e+001
    endloop
  endfacet
  facet normal 3.190570e-001 1.249365e-002 9.476532e-001
    outer loop
      vertex   -4.489758e+000 1.157904e+001 1.365043e+001
      vertex   -4.538724e+000 1.007598e+001 1.368673e+001
      vertex   -4.431066e+000 1.008019e+001 1.365043e+001
    endloop
  endfacet
  facet normal 4.195676e-001 1.642945e-002 9.075754e-001
    outer loop
      vertex   -4.386654e+000 1.158308e+001 1.360269e+001
      vertex   -4.431066e+000 1.008019e+001 1.365043e+001
      vertex   -4.327961e+000 1.008423e+001 1.360269e+001
    endloop
  endfacet
  facet normal 5.151590e-001 2.017262e-002 8.568572e-001
    outer loop
      vertex   -4.289311e+000 1.158689e+001 1.354407e+001
      vertex   -4.327961e+000 1.008423e+001 1.360269e+001
      vertex   -4.230619e+000 1.008804e+001 1.354407e+001
    endloop
  endfacet
  facet normal 6.047108e-001 2.367929e-002 7.960931e-001
    outer loop
      vertex   -4.198871e+000 1.159043e+001 1.347527e+001
      vertex   -4.230619e+000 1.008804e+001 1.354407e+001
      vertex   -4.140179e+000 1.009158e+001 1.347527e+001
    endloop
  endfacet
  facet normal 6.871728e-001 2.690835e-002 7.259955e-001
    outer loop
      vertex   -4.116394e+000 1.159366e+001 1.339708e+001
      vertex   -4.140179e+000 1.009158e+001 1.347527e+001
      vertex   -4.057702e+000 1.009481e+001 1.339708e+001
    endloop
  endfacet
  facet normal 7.615784e-001 2.982192e-002 6.473863e-001
    outer loop
      vertex   -4.042848e+000 1.159654e+001 1.331043e+001
      vertex   -4.057702e+000 1.009481e+001 1.339708e+001
      vertex   -3.984156e+000 1.009769e+001 1.331043e+001
    endloop
  endfacet
  facet normal 8.270552e-001 3.238586e-002 5.611871e-001
    outer loop
      vertex   -3.979095e+000 1.159904e+001 1.321633e+001
      vertex   -3.984156e+000 1.009769e+001 1.331043e+001
      vertex   -3.920403e+000 1.010019e+001 1.321633e+001
    endloop
  endfacet
  facet normal 8.828355e-001 3.457011e-002 4.684084e-001
    outer loop
      vertex   -3.925881e+000 1.160112e+001 1.311588e+001
      vertex   -3.920403e+000 1.010019e+001 1.321633e+001
      vertex   -3.867189e+000 1.010227e+001 1.311588e+001
    endloop
  endfacet
  facet normal 9.282653e-001 3.634906e-002 3.701382e-001
    outer loop
      vertex   -3.883832e+000 1.160277e+001 1.301027e+001
      vertex   -3.925881e+000 1.160112e+001 1.311588e+001
      vertex   -3.867189e+000 1.010227e+001 1.311588e+001
    endloop
  endfacet
  facet normal 9.282653e-001 3.634906e-002 3.701382e-001
    outer loop
      vertex   -3.883832e+000 1.160277e+001 1.301027e+001
      vertex   -3.942524e+000 1.310162e+001 1.301027e+001
      vertex   -3.925881e+000 1.160112e+001 1.311588e+001
    endloop
  endfacet
  facet normal 9.628121e-001 3.770184e-002 2.675283e-001
    outer loop
      vertex   -3.883832e+000 1.160277e+001 1.301027e+001
      vertex   -3.912132e+000 1.310281e+001 1.290072e+001
      vertex   -3.942524e+000 1.310162e+001 1.301027e+001
    endloop
  endfacet
  facet normal 9.282653e-001 3.634906e-002 3.701382e-001
    outer loop
      vertex   -3.942524e+000 1.310162e+001 1.301027e+001
      vertex   -3.984573e+000 1.309997e+001 1.311588e+001
      vertex   -3.925881e+000 1.160112e+001 1.311588e+001
    endloop
  endfacet
  facet normal 8.828355e-001 3.457011e-002 4.684084e-001
    outer loop
      vertex   -3.925881e+000 1.160112e+001 1.311588e+001
      vertex   -3.984573e+000 1.309997e+001 1.311588e+001
      vertex   -3.979095e+000 1.159904e+001 1.321633e+001
    endloop
  endfacet
  facet normal 8.828355e-001 3.457011e-002 4.684084e-001
    outer loop
      vertex   -3.920403e+000 1.010019e+001 1.321633e+001
      vertex   -3.925881e+000 1.160112e+001 1.311588e+001
      vertex   -3.979095e+000 1.159904e+001 1.321633e+001
    endloop
  endfacet
  facet normal 8.828355e-001 3.457011e-002 4.684084e-001
    outer loop
      vertex   -3.984573e+000 1.309997e+001 1.311588e+001
      vertex   -4.037787e+000 1.309789e+001 1.321633e+001
      vertex   -3.979095e+000 1.159904e+001 1.321633e+001
    endloop
  endfacet
  facet normal 8.270552e-001 3.238586e-002 5.611871e-001
    outer loop
      vertex   -3.979095e+000 1.159904e+001 1.321633e+001
      vertex   -4.037787e+000 1.309789e+001 1.321633e+001
      vertex   -4.042848e+000 1.159654e+001 1.331043e+001
    endloop
  endfacet
  facet normal 8.270552e-001 3.238586e-002 5.611871e-001
    outer loop
      vertex   -3.984156e+000 1.009769e+001 1.331043e+001
      vertex   -3.979095e+000 1.159904e+001 1.321633e+001
      vertex   -4.042848e+000 1.159654e+001 1.331043e+001
    endloop
  endfacet
  facet normal 8.270552e-001 3.238586e-002 5.611871e-001
    outer loop
      vertex   -4.037787e+000 1.309789e+001 1.321633e+001
      vertex   -4.101540e+000 1.309539e+001 1.331043e+001
      vertex   -4.042848e+000 1.159654e+001 1.331043e+001
    endloop
  endfacet
  facet normal 7.615784e-001 2.982192e-002 6.473863e-001
    outer loop
      vertex   -4.042848e+000 1.159654e+001 1.331043e+001
      vertex   -4.101540e+000 1.309539e+001 1.331043e+001
      vertex   -4.116394e+000 1.159366e+001 1.339708e+001
    endloop
  endfacet
  facet normal 7.615784e-001 2.982192e-002 6.473863e-001
    outer loop
      vertex   -4.057702e+000 1.009481e+001 1.339708e+001
      vertex   -4.042848e+000 1.159654e+001 1.331043e+001
      vertex   -4.116394e+000 1.159366e+001 1.339708e+001
    endloop
  endfacet
  facet normal 7.615784e-001 2.982192e-002 6.473863e-001
    outer loop
      vertex   -4.101540e+000 1.309539e+001 1.331043e+001
      vertex   -4.175086e+000 1.309251e+001 1.339708e+001
      vertex   -4.116394e+000 1.159366e+001 1.339708e+001
    endloop
  endfacet
  facet normal 6.871728e-001 2.690835e-002 7.259955e-001
    outer loop
      vertex   -4.116394e+000 1.159366e+001 1.339708e+001
      vertex   -4.175086e+000 1.309251e+001 1.339708e+001
      vertex   -4.198871e+000 1.159043e+001 1.347527e+001
    endloop
  endfacet
  facet normal 6.871728e-001 2.690835e-002 7.259955e-001
    outer loop
      vertex   -4.140179e+000 1.009158e+001 1.347527e+001
      vertex   -4.116394e+000 1.159366e+001 1.339708e+001
      vertex   -4.198871e+000 1.159043e+001 1.347527e+001
    endloop
  endfacet
  facet normal 6.871728e-001 2.690835e-002 7.259955e-001
    outer loop
      vertex   -4.175086e+000 1.309251e+001 1.339708e+001
      vertex   -4.257563e+000 1.308929e+001 1.347527e+001
      vertex   -4.198871e+000 1.159043e+001 1.347527e+001
    endloop
  endfacet
  facet normal 6.047108e-001 2.367929e-002 7.960931e-001
    outer loop
      vertex   -4.198871e+000 1.159043e+001 1.347527e+001
      vertex   -4.257563e+000 1.308929e+001 1.347527e+001
      vertex   -4.289311e+000 1.158689e+001 1.354407e+001
    endloop
  endfacet
  facet normal 6.047108e-001 2.367929e-002 7.960931e-001
    outer loop
      vertex   -4.230619e+000 1.008804e+001 1.354407e+001
      vertex   -4.198871e+000 1.159043e+001 1.347527e+001
      vertex   -4.289311e+000 1.158689e+001 1.354407e+001
    endloop
  endfacet
  facet normal 6.047108e-001 2.367929e-002 7.960931e-001
    outer loop
      vertex   -4.257563e+000 1.308929e+001 1.347527e+001
      vertex   -4.348003e+000 1.308574e+001 1.354407e+001
      vertex   -4.289311e+000 1.158689e+001 1.354407e+001
    endloop
  endfacet
  facet normal 5.151590e-001 2.017262e-002 8.568572e-001
    outer loop
      vertex   -4.289311e+000 1.158689e+001 1.354407e+001
      vertex   -4.348003e+000 1.308574e+001 1.354407e+001
      vertex   -4.386654e+000 1.158308e+001 1.360269e+001
    endloop
  endfacet
  facet normal 5.151590e-001 2.017262e-002 8.568572e-001
    outer loop
      vertex   -4.327961e+000 1.008423e+001 1.360269e+001
      vertex   -4.289311e+000 1.158689e+001 1.354407e+001
      vertex   -4.386654e+000 1.158308e+001 1.360269e+001
    endloop
  endfacet
  facet normal 5.151590e-001 2.017262e-002 8.568572e-001
    outer loop
      vertex   -4.348003e+000 1.308574e+001 1.354407e+001
      vertex   -4.445346e+000 1.308193e+001 1.360269e+001
      vertex   -4.386654e+000 1.158308e+001 1.360269e+001
    endloop
  endfacet
  facet normal 4.195676e-001 1.642945e-002 9.075754e-001
    outer loop
      vertex   -4.386654e+000 1.158308e+001 1.360269e+001
      vertex   -4.445346e+000 1.308193e+001 1.360269e+001
      vertex   -4.489758e+000 1.157904e+001 1.365043e+001
    endloop
  endfacet
  facet normal 4.195676e-001 1.642945e-002 9.075754e-001
    outer loop
      vertex   -4.431066e+000 1.008019e+001 1.365043e+001
      vertex   -4.386654e+000 1.158308e+001 1.360269e+001
      vertex   -4.489758e+000 1.157904e+001 1.365043e+001
    endloop
  endfacet
  facet normal 4.195676e-001 1.642945e-002 9.075754e-001
    outer loop
      vertex   -4.445346e+000 1.308193e+001 1.360269e+001
      vertex   -4.548450e+000 1.307789e+001 1.365043e+001
      vertex   -4.489758e+000 1.157904e+001 1.365043e+001
    endloop
  endfacet
  facet normal 3.190570e-001 1.249365e-002 9.476532e-001
    outer loop
      vertex   -4.489758e+000 1.157904e+001 1.365043e+001
      vertex   -4.548450e+000 1.307789e+001 1.365043e+001
      vertex   -4.597416e+000 1.157483e+001 1.368673e+001
    endloop
  endfacet
  facet normal 3.190570e-001 1.249365e-002 9.476532e-001
    outer loop
      vertex   -4.538724e+000 1.007598e+001 1.368673e+001
      vertex   -4.489758e+000 1.157904e+001 1.365043e+001
      vertex   -4.597416e+000 1.157483e+001 1.368673e+001
    endloop
  endfacet
  facet normal 3.190570e-001 1.249365e-002 9.476532e-001
    outer loop
      vertex   -4.548450e+000 1.307789e+001 1.365043e+001
      vertex   -4.656108e+000 1.307368e+001 1.368673e+001
      vertex   -4.597416e+000 1.157483e+001 1.368673e+001
    endloop
  endfacet
  facet normal 2.148058e-001 8.411376e-003 9.766206e-001
    outer loop
      vertex   -4.597416e+000 1.157483e+001 1.368673e+001
      vertex   -4.656108e+000 1.307368e+001 1.368673e+001
      vertex   -4.708365e+000 1.157048e+001 1.371117e+001
    endloop
  endfacet
  facet normal 2.148058e-001 8.411376e-003 9.766206e-001
    outer loop
      vertex   -4.649673e+000 1.007163e+001 1.371117e+001
      vertex   -4.597416e+000 1.157483e+001 1.368673e+001
      vertex   -4.708365e+000 1.157048e+001 1.371117e+001
    endloop
  endfacet
  facet normal 2.148058e-001 8.411376e-003 9.766206e-001
    outer loop
      vertex   -4.656108e+000 1.307368e+001 1.368673e+001
      vertex   -4.767057e+000 1.306933e+001 1.371117e+001
      vertex   -4.708365e+000 1.157048e+001 1.371117e+001
    endloop
  endfacet
  facet normal 1.080362e-001 4.230487e-003 9.941380e-001
    outer loop
      vertex   -4.708365e+000 1.157048e+001 1.371117e+001
      vertex   -4.767057e+000 1.306933e+001 1.371117e+001
      vertex   -4.821303e+000 1.156606e+001 1.372346e+001
    endloop
  endfacet
  facet normal 1.080362e-001 4.230487e-003 9.941380e-001
    outer loop
      vertex   -4.762611e+000 1.006721e+001 1.372346e+001
      vertex   -4.708365e+000 1.157048e+001 1.371117e+001
      vertex   -4.821303e+000 1.156606e+001 1.372346e+001
    endloop
  endfacet
  facet normal 1.080362e-001 4.230487e-003 9.941380e-001
    outer loop
      vertex   -4.767057e+000 1.306933e+001 1.371117e+001
      vertex   -4.879996e+000 1.306491e+001 1.372346e+001
      vertex   -4.821303e+000 1.156606e+001 1.372346e+001
    endloop
  endfacet
  facet normal 0.000000e+000 0.000000e+000 1.000000e+000
    outer loop
      vertex   -4.821303e+000 1.156606e+001 1.372346e+001
      vertex   -4.879996e+000 1.306491e+001 1.372346e+001
      vertex   -4.934908e+000 1.156161e+001 1.372346e+001
    endloop
  endfacet
  facet normal 0.000000e+000 -0.000000e+000 1.000000e+000
    outer loop
      vertex   -4.876216e+000 1.006276e+001 1.372346e+001
      vertex   -4.821303e+000 1.156606e+001 1.372346e+001
      vertex   -4.934908e+000 1.156161e+001 1.372346e+001
    endloop
  endfacet
  facet normal 0.000000e+000 0.000000e+000 1.000000e+000
    outer loop
      vertex   -4.879996e+000 1.306491e+001 1.372346e+001
      vertex   -4.993600e+000 1.306046e+001 1.372346e+001
      vertex   -4.934908e+000 1.156161e+001 1.372346e+001
    endloop
  endfacet
  facet normal -1.080362e-001 -4.230487e-003 9.941380e-001
    outer loop
      vertex   -4.934908e+000 1.156161e+001 1.372346e+001
      vertex   -4.993600e+000 1.306046e+001 1.372346e+001
      vertex   -5.047847e+000 1.155719e+001 1.371117e+001
    endloop
  endfacet
  facet normal -1.080362e-001 -4.230487e-003 9.941380e-001
    outer loop
      vertex   -4.989155e+000 1.005834e+001 1.371117e+001
      vertex   -4.934908e+000 1.156161e+001 1.372346e+001
      vertex   -5.047847e+000 1.155719e+001 1.371117e+001
    endloop
  endfacet
  facet normal -1.080362e-001 -4.230487e-003 9.941380e-001
    outer loop
      vertex   -4.993600e+000 1.306046e+001 1.372346e+001
      vertex   -5.106539e+000 1.305604e+001 1.371117e+001
      vertex   -5.047847e+000 1.155719e+001 1.371117e+001
    endloop
  endfacet
  facet normal -2.148058e-001 -8.411376e-003 9.766206e-001
    outer loop
      vertex   -5.047847e+000 1.155719e+001 1.371117e+001
      vertex   -5.106539e+000 1.305604e+001 1.371117e+001
      vertex   -5.158795e+000 1.155285e+001 1.368673e+001
    endloop
  endfacet
  facet normal -2.148058e-001 -8.411376e-003 9.766206e-001
    outer loop
      vertex   -5.100103e+000 1.005399e+001 1.368673e+001
      vertex   -5.047847e+000 1.155719e+001 1.371117e+001
      vertex   -5.158795e+000 1.155285e+001 1.368673e+001
    endloop
  endfacet
  facet normal -2.148058e-001 -8.411376e-003 9.766206e-001
    outer loop
      vertex   -5.106539e+000 1.305604e+001 1.371117e+001
      vertex   -5.217488e+000 1.305170e+001 1.368673e+001
      vertex   -5.158795e+000 1.155285e+001 1.368673e+001
    endloop
  endfacet
  facet normal -3.190570e-001 -1.249365e-002 9.476532e-001
    outer loop
      vertex   -5.158795e+000 1.155285e+001 1.368673e+001
      vertex   -5.217488e+000 1.305170e+001 1.368673e+001
      vertex   -5.266453e+000 1.154863e+001 1.365043e+001
    endloop
  endfacet
  facet normal -3.190570e-001 -1.249365e-002 9.476532e-001
    outer loop
      vertex   -5.207761e+000 1.004978e+001 1.365043e+001
      vertex   -5.158795e+000 1.155285e+001 1.368673e+001
      vertex   -5.266453e+000 1.154863e+001 1.365043e+001
    endloop
  endfacet
  facet normal -3.190570e-001 -1.249365e-002 9.476532e-001
    outer loop
      vertex   -5.217488e+000 1.305170e+001 1.368673e+001
      vertex   -5.325145e+000 1.304748e+001 1.365043e+001
      vertex   -5.266453e+000 1.154863e+001 1.365043e+001
    endloop
  endfacet
  facet normal -4.195676e-001 -1.642945e-002 9.075754e-001
    outer loop
      vertex   -5.266453e+000 1.154863e+001 1.365043e+001
      vertex   -5.325145e+000 1.304748e+001 1.365043e+001
      vertex   -5.369558e+000 1.154459e+001 1.360269e+001
    endloop
  endfacet
  facet normal -4.195676e-001 -1.642945e-002 9.075754e-001
    outer loop
      vertex   -5.310866e+000 1.004574e+001 1.360269e+001
      vertex   -5.266453e+000 1.154863e+001 1.365043e+001
      vertex   -5.369558e+000 1.154459e+001 1.360269e+001
    endloop
  endfacet
  facet normal -4.195676e-001 -1.642945e-002 9.075754e-001
    outer loop
      vertex   -5.325145e+000 1.304748e+001 1.365043e+001
      vertex   -5.428250e+000 1.304344e+001 1.360269e+001
      vertex   -5.369558e+000 1.154459e+001 1.360269e+001
    endloop
  endfacet
  facet normal -5.151590e-001 -2.017262e-002 8.568572e-001
    outer loop
      vertex   -5.369558e+000 1.154459e+001 1.360269e+001
      vertex   -5.428250e+000 1.304344e+001 1.360269e+001
      vertex   -5.466901e+000 1.154078e+001 1.354407e+001
    endloop
  endfacet
  facet normal -5.151590e-001 -2.017262e-002 8.568572e-001
    outer loop
      vertex   -5.408209e+000 1.004193e+001 1.354407e+001
      vertex   -5.369558e+000 1.154459e+001 1.360269e+001
      vertex   -5.466901e+000 1.154078e+001 1.354407e+001
    endloop
  endfacet
  facet normal -5.151590e-001 -2.017262e-002 8.568572e-001
    outer loop
      vertex   -5.428250e+000 1.304344e+001 1.360269e+001
      vertex   -5.525593e+000 1.303963e+001 1.354407e+001
      vertex   -5.466901e+000 1.154078e+001 1.354407e+001
    endloop
  endfacet
  facet normal -6.047108e-001 -2.367929e-002 7.960931e-001
    outer loop
      vertex   -5.466901e+000 1.154078e+001 1.354407e+001
      vertex   -5.525593e+000 1.303963e+001 1.354407e+001
      vertex   -5.557341e+000 1.153724e+001 1.347527e+001
    endloop
  endfacet
  facet normal -6.047108e-001 -2.367929e-002 7.960931e-001
    outer loop
      vertex   -5.498649e+000 1.003839e+001 1.347527e+001
      vertex   -5.466901e+000 1.154078e+001 1.354407e+001
      vertex   -5.557341e+000 1.153724e+001 1.347527e+001
    endloop
  endfacet
  facet normal -6.047108e-001 -2.367929e-002 7.960931e-001
    outer loop
      vertex   -5.525593e+000 1.303963e+001 1.354407e+001
      vertex   -5.616033e+000 1.303609e+001 1.347527e+001
      vertex   -5.557341e+000 1.153724e+001 1.347527e+001
    endloop
  endfacet
  facet normal -6.871728e-001 -2.690835e-002 7.259955e-001
    outer loop
      vertex   -5.557341e+000 1.153724e+001 1.347527e+001
      vertex   -5.616033e+000 1.303609e+001 1.347527e+001
      vertex   -5.639817e+000 1.153401e+001 1.339708e+001
    endloop
  endfacet
  facet normal -6.871728e-001 -2.690835e-002 7.259955e-001
    outer loop
      vertex   -5.581125e+000 1.003516e+001 1.339708e+001
      vertex   -5.557341e+000 1.153724e+001 1.347527e+001
      vertex   -5.639817e+000 1.153401e+001 1.339708e+001
    endloop
  endfacet
  facet normal -6.871728e-001 -2.690835e-002 7.259955e-001
    outer loop
      vertex   -5.616033e+000 1.303609e+001 1.347527e+001
      vertex   -5.698509e+000 1.303286e+001 1.339708e+001
      vertex   -5.639817e+000 1.153401e+001 1.339708e+001
    endloop
  endfacet
  facet normal -7.615784e-001 -2.982192e-002 6.473863e-001
    outer loop
      vertex   -5.639817e+000 1.153401e+001 1.339708e+001
      vertex   -5.698509e+000 1.303286e+001 1.339708e+001
      vertex   -5.713363e+000 1.153113e+001 1.331043e+001
    endloop
  endfacet
  facet normal -7.615784e-001 -2.982192e-002 6.473863e-001
    outer loop
      vertex   -5.654671e+000 1.003228e+001 1.331043e+001
      vertex   -5.639817e+000 1.153401e+001 1.339708e+001
      vertex   -5.713363e+000 1.153113e+001 1.331043e+001
    endloop
  endfacet
  facet normal -7.615784e-001 -2.982192e-002 6.473863e-001
    outer loop
      vertex   -5.698509e+000 1.303286e+001 1.339708e+001
      vertex   -5.772055e+000 1.302998e+001 1.331043e+001
      vertex   -5.713363e+000 1.153113e+001 1.331043e+001
    endloop
  endfacet
  facet normal -8.270552e-001 -3.238586e-002 5.611871e-001
    outer loop
      vertex   -5.713363e+000 1.153113e+001 1.331043e+001
      vertex   -5.772055e+000 1.302998e+001 1.331043e+001
      vertex   -5.777117e+000 1.152863e+001 1.321633e+001
    endloop
  endfacet
  facet normal -8.270552e-001 -3.238586e-002 5.611871e-001
    outer loop
      vertex   -5.718425e+000 1.002978e+001 1.321633e+001
      vertex   -5.713363e+000 1.153113e+001 1.331043e+001
      vertex   -5.777117e+000 1.152863e+001 1.321633e+001
    endloop
  endfacet
  facet normal -8.270552e-001 -3.238586e-002 5.611871e-001
    outer loop
      vertex   -5.772055e+000 1.302998e+001 1.331043e+001
      vertex   -5.835809e+000 1.302748e+001 1.321633e+001
      vertex   -5.777117e+000 1.152863e+001 1.321633e+001
    endloop
  endfacet
  facet normal -8.828355e-001 -3.457011e-002 4.684084e-001
    outer loop
      vertex   -5.777117e+000 1.152863e+001 1.321633e+001
      vertex   -5.835809e+000 1.302748e+001 1.321633e+001
      vertex   -5.830330e+000 1.152655e+001 1.311588e+001
    endloop
  endfacet
  facet normal -8.828355e-001 -3.457011e-002 4.684084e-001
    outer loop
      vertex   -5.771638e+000 1.002770e+001 1.311588e+001
      vertex   -5.777117e+000 1.152863e+001 1.321633e+001
      vertex   -5.830330e+000 1.152655e+001 1.311588e+001
    endloop
  endfacet
  facet normal -8.828355e-001 -3.457011e-002 4.684084e-001
    outer loop
      vertex   -5.835809e+000 1.302748e+001 1.321633e+001
      vertex   -5.889022e+000 1.302540e+001 1.311588e+001
      vertex   -5.830330e+000 1.152655e+001 1.311588e+001
    endloop
  endfacet
  facet normal -9.282653e-001 -3.634906e-002 3.701382e-001
    outer loop
      vertex   -5.830330e+000 1.152655e+001 1.311588e+001
      vertex   -5.889022e+000 1.302540e+001 1.311588e+001
      vertex   -5.872380e+000 1.152490e+001 1.301027e+001
    endloop
  endfacet
  facet normal -9.282653e-001 -3.634906e-002 3.701382e-001
    outer loop
      vertex   -5.813688e+000 1.002605e+001 1.301027e+001
      vertex   -5.830330e+000 1.152655e+001 1.311588e+001
      vertex   -5.872380e+000 1.152490e+001 1.301027e+001
    endloop
  endfacet
  facet normal -9.282653e-001 -3.634906e-002 3.701382e-001
    outer loop
      vertex   -5.889022e+000 1.302540e+001 1.311588e+001
      vertex   -5.931072e+000 1.302375e+001 1.301027e+001
      vertex   -5.872380e+000 1.152490e+001 1.301027e+001
    endloop
  endfacet
  facet normal -9.628121e-001 -3.770184e-002 2.675283e-001
    outer loop
      vertex   -5.872380e+000 1.152490e+001 1.301027e+001
      vertex   -5.931072e+000 1.302375e+001 1.301027e+001
      vertex   -5.902772e+000 1.152371e+001 1.290072e+001
    endloop
  endfacet
  facet normal -9.628121e-001 -3.770184e-002 2.675283e-001
    outer loop
      vertex   -5.844080e+000 1.002486e+001 1.290072e+001
      vertex   -5.872380e+000 1.152490e+001 1.301027e+001
      vertex   -5.902772e+000 1.152371e+001 1.290072e+001
    endloop
  endfacet
  facet normal -9.628121e-001 -3.770184e-002 2.675283e-001
    outer loop
      vertex   -5.931072e+000 1.302375e+001 1.301027e+001
      vertex   -5.961464e+000 1.302256e+001 1.290072e+001
      vertex   -5.902772e+000 1.152371e+001 1.290072e+001
    endloop
  endfacet
  facet normal -9.860708e-001 -3.861261e-002 1.617820e-001
    outer loop
      vertex   -5.902772e+000 1.152371e+001 1.290072e+001
      vertex   -5.961464e+000 1.302256e+001 1.290072e+001
      vertex   -5.921151e+000 1.152299e+001 1.278852e+001
    endloop
  endfacet
  facet normal -9.860708e-001 -3.861261e-002 1.617820e-001
    outer loop
      vertex   -5.862459e+000 1.002414e+001 1.278852e+001
      vertex   -5.902772e+000 1.152371e+001 1.290072e+001
      vertex   -5.921151e+000 1.152299e+001 1.278852e+001
    endloop
  endfacet
  facet normal -9.860708e-001 -3.861261e-002 1.617820e-001
    outer loop
      vertex   -5.961464e+000 1.302256e+001 1.290072e+001
      vertex   -5.979843e+000 1.302184e+001 1.278852e+001
      vertex   -5.921151e+000 1.152299e+001 1.278852e+001
    endloop
  endfacet
  facet normal -9.977687e-001 -3.907068e-002 5.413891e-002
    outer loop
      vertex   -5.921151e+000 1.152299e+001 1.278852e+001
      vertex   -5.979843e+000 1.302184e+001 1.278852e+001
      vertex   -5.927302e+000 1.152275e+001 1.267500e+001
    endloop
  endfacet
  facet normal -9.977687e-001 -3.907068e-002 5.413891e-002
    outer loop
      vertex   -5.868610e+000 1.002390e+001 1.267500e+001
      vertex   -5.921151e+000 1.152299e+001 1.278852e+001
      vertex   -5.927302e+000 1.152275e+001 1.267500e+001
    endloop
  endfacet
  facet normal -9.977687e-001 -3.907068e-002 5.413891e-002
    outer loop
      vertex   -5.979843e+000 1.302184e+001 1.278852e+001
      vertex   -5.985994e+000 1.302160e+001 1.267500e+001
      vertex   -5.927302e+000 1.152275e+001 1.267500e+001
    endloop
  endfacet
  facet normal -9.977687e-001 -3.907068e-002 -5.413891e-002
    outer loop
      vertex   -5.927302e+000 1.152275e+001 1.267500e+001
      vertex   -5.985994e+000 1.302160e+001 1.267500e+001
      vertex   -5.921151e+000 1.152299e+001 1.256148e+001
    endloop
  endfacet
  facet normal -9.977687e-001 -3.907068e-002 -5.413891e-002
    outer loop
      vertex   -5.862459e+000 1.002414e+001 1.256148e+001
      vertex   -5.927302e+000 1.152275e+001 1.267500e+001
      vertex   -5.921151e+000 1.152299e+001 1.256148e+001
    endloop
  endfacet
  facet normal -9.977687e-001 -3.907068e-002 -5.413891e-002
    outer loop
      vertex   -5.985994e+000 1.302160e+001 1.267500e+001
      vertex   -5.979843e+000 1.302184e+001 1.256148e+001
      vertex   -5.921151e+000 1.152299e+001 1.256148e+001
    endloop
  endfacet
  facet normal -9.860708e-001 -3.861261e-002 -1.617820e-001
    outer loop
      vertex   -5.921151e+000 1.152299e+001 1.256148e+001
      vertex   -5.979843e+000 1.302184e+001 1.256148e+001
      vertex   -5.902772e+000 1.152371e+001 1.244928e+001
    endloop
  endfacet
  facet normal -9.860708e-001 -3.861261e-002 -1.617820e-001
    outer loop
      vertex   -5.844080e+000 1.002486e+001 1.244928e+001
      vertex   -5.921151e+000 1.152299e+001 1.256148e+001
      vertex   -5.902772e+000 1.152371e+001 1.244928e+001
    endloop
  endfacet
  facet normal -9.860708e-001 -3.861261e-002 -1.617820e-001
    outer loop
      vertex   -5.979843e+000 1.302184e+001 1.256148e+001
      vertex   -5.961464e+000 1.302256e+001 1.244928e+001
      vertex   -5.902772e+000 1.152371e+001 1.244928e+001
    endloop
  endfacet
  facet normal -9.628121e-001 -3.770184e-002 -2.675283e-001
    outer loop
      vertex   -5.902772e+000 1.152371e+001 1.244928e+001
      vertex   -5.961464e+000 1.302256e+001 1.244928e+001
      vertex   -5.872380e+000 1.152490e+001 1.233973e+001
    endloop
  endfacet
  facet normal -9.628121e-001 -3.770184e-002 -2.675283e-001
    outer loop
      vertex   -5.813688e+000 1.002605e+001 1.233973e+001
      vertex   -5.902772e+000 1.152371e+001 1.244928e+001
      vertex   -5.872380e+000 1.152490e+001 1.233973e+001
    endloop
  endfacet
  facet normal -9.628121e-001 -3.770184e-002 -2.675283e-001
    outer loop
      vertex   -5.961464e+000 1.302256e+001 1.244928e+001
      vertex   -5.931072e+000 1.302375e+001 1.233973e+001
      vertex   -5.872380e+000 1.152490e+001 1.233973e+001
    endloop
  endfacet
  facet normal -9.282653e-001 -3.634906e-002 -3.701382e-001
    outer loop
      vertex   -5.872380e+000 1.152490e+001 1.233973e+001
      vertex   -5.931072e+000 1.302375e+001 1.233973e+001
      vertex   -5.830330e+000 1.152655e+001 1.223412e+001
    endloop
  endfacet
  facet normal -9.282653e-001 -3.634906e-002 -3.701382e-001
    outer loop
      vertex   -5.771638e+000 1.002770e+001 1.223412e+001
      vertex   -5.872380e+000 1.152490e+001 1.233973e+001
      vertex   -5.830330e+000 1.152655e+001 1.223412e+001
    endloop
  endfacet
  facet normal -9.282653e-001 -3.634906e-002 -3.701382e-001
    outer loop
      vertex   -5.931072e+000 1.302375e+001 1.233973e+001
      vertex   -5.889022e+000 1.302540e+001 1.223412e+001
      vertex   -5.830330e+000 1.152655e+001 1.223412e+001
    endloop
  endfacet
  facet normal -8.828355e-001 -3.457011e-002 -4.684084e-001
    outer loop
      vertex   -5.830330e+000 1.152655e+001 1.223412e+001
      vertex   -5.889022e+000 1.302540e+001 1.223412e+001
      vertex   -5.777117e+000 1.152863e+001 1.213367e+001
    endloop
  endfacet
  facet normal -8.828355e-001 -3.457011e-002 -4.684084e-001
    outer loop
      vertex   -5.718425e+000 1.002978e+001 1.213367e+001
      vertex   -5.830330e+000 1.152655e+001 1.223412e+001
      vertex   -5.777117e+000 1.152863e+001 1.213367e+001
    endloop
  endfacet
  facet normal -8.828355e-001 -3.457011e-002 -4.684084e-001
    outer loop
      vertex   -5.889022e+000 1.302540e+001 1.223412e+001
      vertex   -5.835809e+000 1.302748e+001 1.213367e+001
      vertex   -5.777117e+000 1.152863e+001 1.213367e+001
    endloop
  endfacet
  facet normal -8.270552e-001 -3.238586e-002 -5.611871e-001
    outer loop
      vertex   -5.777117e+000 1.152863e+001 1.213367e+001
      vertex   -5.835809e+000 1.302748e+001 1.213367e+001
      vertex   -5.713363e+000 1.153113e+001 1.203957e+001
    endloop
  endfacet
  facet normal -8.270552e-001 -3.238586e-002 -5.611871e-001
    outer loop
      vertex   -5.654671e+000 1.003228e+001 1.203957e+001
      vertex   -5.777117e+000 1.152863e+001 1.213367e+001
      vertex   -5.713363e+000 1.153113e+001 1.203957e+001
    endloop
  endfacet
  facet normal -8.270552e-001 -3.238586e-002 -5.611871e-001
    outer loop
      vertex   -5.835809e+000 1.302748e+001 1.213367e+001
      vertex   -5.772055e+000 1.302998e+001 1.203957e+001
      vertex   -5.713363e+000 1.153113e+001 1.203957e+001
    endloop
  endfacet
  facet normal -7.615784e-001 -2.982192e-002 -6.473863e-001
    outer loop
      vertex   -5.713363e+000 1.153113e+001 1.203957e+001
      vertex   -5.772055e+000 1.302998e+001 1.203957e+001
      vertex   -5.639817e+000 1.153401e+001 1.195292e+001
    endloop
  endfacet
  facet normal -7.615784e-001 -2.982192e-002 -6.473863e-001
    outer loop
      vertex   -5.581125e+000 1.003516e+001 1.195292e+001
      vertex   -5.713363e+000 1.153113e+001 1.203957e+001
      vertex   -5.639817e+000 1.153401e+001 1.195292e+001
    endloop
  endfacet
  facet normal -7.615784e-001 -2.982192e-002 -6.473863e-001
    outer loop
      vertex   -5.772055e+000 1.302998e+001 1.203957e+001
      vertex   -5.698509e+000 1.303286e+001 1.195292e+001
      vertex   -5.639817e+000 1.153401e+001 1.195292e+001
    endloop
  endfacet
  facet normal -6.871728e-001 -2.690835e-002 -7.259955e-001
    outer loop
      vertex   -5.639817e+000 1.153401e+001 1.195292e+001
      vertex   -5.698509e+000 1.303286e+001 1.195292e+001
      vertex   -5.557341e+000 1.153724e+001 1.187473e+001
    endloop
  endfacet
  facet normal -6.871728e-001 -2.690835e-002 -7.259955e-001
    outer loop
      vertex   -5.498649e+000 1.003839e+001 1.187473e+001
      vertex   -5.639817e+000 1.153401e+001 1.195292e+001
      vertex   -5.557341e+000 1.153724e+001 1.187473e+001
    endloop
  endfacet
  facet normal -6.871728e-001 -2.690835e-002 -7.259955e-001
    outer loop
      vertex   -5.698509e+000 1.303286e+001 1.195292e+001
      vertex   -5.616033e+000 1.303609e+001 1.187473e+001
      vertex   -5.557341e+000 1.153724e+001 1.187473e+001
    endloop
  endfacet
  facet normal -6.047108e-001 -2.367929e-002 -7.960931e-001
    outer loop
      vertex   -5.557341e+000 1.153724e+001 1.187473e+001
      vertex   -5.616033e+000 1.303609e+001 1.187473e+001
      vertex   -5.466901e+000 1.154078e+001 1.180593e+001
    endloop
  endfacet
  facet normal -6.047108e-001 -2.367929e-002 -7.960931e-001
    outer loop
      vertex   -5.408209e+000 1.004193e+001 1.180593e+001
      vertex   -5.557341e+000 1.153724e+001 1.187473e+001
      vertex   -5.466901e+000 1.154078e+001 1.180593e+001
    endloop
  endfacet
  facet normal -6.047108e-001 -2.367929e-002 -7.960931e-001
    outer loop
      vertex   -5.616033e+000 1.303609e+001 1.187473e+001
      vertex   -5.525593e+000 1.303963e+001 1.180593e+001
      vertex   -5.466901e+000 1.154078e+001 1.180593e+001
    endloop
  endfacet
  facet normal -5.151590e-001 -2.017262e-002 -8.568572e-001
    outer loop
      vertex   -5.466901e+000 1.154078e+001 1.180593e+001
      vertex   -5.525593e+000 1.303963e+001 1.180593e+001
      vertex   -5.369558e+000 1.154459e+001 1.174731e+001
    endloop
  endfacet
  facet normal -5.151590e-001 -2.017262e-002 -8.568572e-001
    outer loop
      vertex   -5.310866e+000 1.004574e+001 1.174731e+001
      vertex   -5.466901e+000 1.154078e+001 1.180593e+001
      vertex   -5.369558e+000 1.154459e+001 1.174731e+001
    endloop
  endfacet
  facet normal -5.151590e-001 -2.017262e-002 -8.568572e-001
    outer loop
      vertex   -5.525593e+000 1.303963e+001 1.180593e+001
      vertex   -5.428250e+000 1.304344e+001 1.174731e+001
      vertex   -5.369558e+000 1.154459e+001 1.174731e+001
    endloop
  endfacet
  facet normal -4.195676e-001 -1.642945e-002 -9.075754e-001
    outer loop
      vertex   -5.369558e+000 1.154459e+001 1.174731e+001
      vertex   -5.428250e+000 1.304344e+001 1.174731e+001
      vertex   -5.266453e+000 1.154863e+001 1.169957e+001
    endloop
  endfacet
  facet normal -4.195676e-001 -1.642945e-002 -9.075754e-001
    outer loop
      vertex   -5.207761e+000 1.004978e+001 1.169957e+001
      vertex   -5.369558e+000 1.154459e+001 1.174731e+001
      vertex   -5.266453e+000 1.154863e+001 1.169957e+001
    endloop
  endfacet
  facet normal -4.195676e-001 -1.642945e-002 -9.075754e-001
    outer loop
      vertex   -5.428250e+000 1.304344e+001 1.174731e+001
      vertex   -5.325145e+000 1.304748e+001 1.169957e+001
      vertex   -5.266453e+000 1.154863e+001 1.169957e+001
    endloop
  endfacet
  facet normal -3.190570e-001 -1.249365e-002 -9.476532e-001
    outer loop
      vertex   -5.266453e+000 1.154863e+001 1.169957e+001
      vertex   -5.325145e+000 1.304748e+001 1.169957e+001
      vertex   -5.158795e+000 1.155285e+001 1.166327e+001
    endloop
  endfacet
  facet normal -3.190570e-001 -1.249365e-002 -9.476532e-001
    outer loop
      vertex   -5.100103e+000 1.005399e+001 1.166327e+001
      vertex   -5.266453e+000 1.154863e+001 1.169957e+001
      vertex   -5.158795e+000 1.155285e+001 1.166327e+001
    endloop
  endfacet
  facet normal -3.190570e-001 -1.249365e-002 -9.476532e-001
    outer loop
      vertex   -5.325145e+000 1.304748e+001 1.169957e+001
      vertex   -5.217488e+000 1.305170e+001 1.166327e+001
      vertex   -5.158795e+000 1.155285e+001 1.166327e+001
    endloop
  endfacet
  facet normal -2.148058e-001 -8.411376e-003 -9.766206e-001
    outer loop
      vertex   -5.158795e+000 1.155285e+001 1.166327e+001
      vertex   -5.217488e+000 1.305170e+001 1.166327e+001
      vertex   -5.047847e+000 1.155719e+001 1.163883e+001
    endloop
  endfacet
  facet normal -2.148058e-001 -8.411376e-003 -9.766206e-001
    outer loop
      vertex   -4.989155e+000 1.005834e+001 1.163883e+001
      vertex   -5.158795e+000 1.155285e+001 1.166327e+001
      vertex   -5.047847e+000 1.155719e+001 1.163883e+001
    endloop
  endfacet
  facet normal -2.148058e-001 -8.411376e-003 -9.766206e-001
    outer loop
      vertex   -5.217488e+000 1.305170e+001 1.166327e+001
      vertex   -5.106539e+000 1.305604e+001 1.163883e+001
      vertex   -5.047847e+000 1.155719e+001 1.163883e+001
    endloop
  endfacet
  facet normal -1.080362e-001 -4.230487e-003 -9.941380e-001
    outer loop
      vertex   -5.047847e+000 1.155719e+001 1.163883e+001
      vertex   -5.106539e+000 1.305604e+001 1.163883e+001
      vertex   -4.934908e+000 1.156161e+001 1.162654e+001
    endloop
  endfacet
  facet normal -1.080362e-001 -4.230487e-003 -9.941380e-001
    outer loop
      vertex   -4.876216e+000 1.006276e+001 1.162654e+001
      vertex   -5.047847e+000 1.155719e+001 1.163883e+001
      vertex   -4.934908e+000 1.156161e+001 1.162654e+001
    endloop
  endfacet
  facet normal -1.080362e-001 -4.230487e-003 -9.941380e-001
    outer loop
      vertex   -5.106539e+000 1.305604e+001 1.163883e+001
      vertex   -4.993600e+000 1.306046e+001 1.162654e+001
      vertex   -4.934908e+000 1.156161e+001 1.162654e+001
    endloop
  endfacet
  facet normal 0.000000e+000 0.000000e+000 -1.000000e+000
    outer loop
      vertex   -4.934908e+000 1.156161e+001 1.162654e+001
      vertex   -4.993600e+000 1.306046e+001 1.162654e+001
      vertex   -4.821303e+000 1.156606e+001 1.162654e+001
    endloop
  endfacet
  facet normal 0.000000e+000 0.000000e+000 -1.000000e+000
    outer loop
      vertex   -4.762611e+000 1.006721e+001 1.162654e+001
      vertex   -4.934908e+000 1.156161e+001 1.162654e+001
      vertex   -4.821303e+000 1.156606e+001 1.162654e+001
    endloop
  endfacet
  facet normal 0.000000e+000 0.000000e+000 -1.000000e+000
    outer loop
      vertex   -4.993600e+000 1.306046e+001 1.162654e+001
      vertex   -4.879996e+000 1.306491e+001 1.162654e+001
      vertex   -4.821303e+000 1.156606e+001 1.162654e+001
    endloop
  endfacet
  facet normal 1.080362e-001 4.230487e-003 -9.941380e-001
    outer loop
      vertex   -4.821303e+000 1.156606e+001 1.162654e+001
      vertex   -4.879996e+000 1.306491e+001 1.162654e+001
      vertex   -4.708365e+000 1.157048e+001 1.163883e+001
    endloop
  endfacet
  facet normal 1.080362e-001 4.230487e-003 -9.941380e-001
    outer loop
      vertex   -4.649673e+000 1.007163e+001 1.163883e+001
      vertex   -4.821303e+000 1.156606e+001 1.162654e+001
      vertex   -4.708365e+000 1.157048e+001 1.163883e+001
    endloop
  endfacet
  facet normal 1.080362e-001 4.230487e-003 -9.941380e-001
    outer loop
      vertex   -4.879996e+000 1.306491e+001 1.162654e+001
      vertex   -4.767057e+000 1.306933e+001 1.163883e+001
      vertex   -4.708365e+000 1.157048e+001 1.163883e+001
    endloop
  endfacet
  facet normal 2.148058e-001 8.411376e-003 -9.766206e-001
    outer loop
      vertex   -4.708365e+000 1.157048e+001 1.163883e+001
      vertex   -4.767057e+000 1.306933e+001 1.163883e+001
      vertex   -4.597416e+000 1.157483e+001 1.166327e+001
    endloop
  endfacet
  facet normal 2.148058e-001 8.411376e-003 -9.766206e-001
    outer loop
      vertex   -4.538724e+000 1.007598e+001 1.166327e+001
      vertex   -4.708365e+000 1.157048e+001 1.163883e+001
      vertex   -4.597416e+000 1.157483e+001 1.166327e+001
    endloop
  endfacet
  facet normal 2.148058e-001 8.411376e-003 -9.766206e-001
    outer loop
      vertex   -4.767057e+000 1.306933e+001 1.163883e+001
      vertex   -4.656108e+000 1.307368e+001 1.166327e+001
      vertex   -4.597416e+000 1.157483e+001 1.166327e+001
    endloop
  endfacet
  facet normal 3.190570e-001 1.249365e-002 -9.476532e-001
    outer loop
      vertex   -4.597416e+000 1.157483e+001 1.166327e+001
      vertex   -4.656108e+000 1.307368e+001 1.166327e+001
      vertex   -4.489758e+000 1.157904e+001 1.169957e+001
    endloop
  endfacet
  facet normal 3.190570e-001 1.249365e-002 -9.476532e-001
    outer loop
      vertex   -4.431066e+000 1.008019e+001 1.169957e+001
      vertex   -4.597416e+000 1.157483e+001 1.166327e+001
      vertex   -4.489758e+000 1.157904e+001 1.169957e+001
    endloop
  endfacet
  facet normal 3.190570e-001 1.249365e-002 -9.476532e-001
    outer loop
      vertex   -4.656108e+000 1.307368e+001 1.166327e+001
      vertex   -4.548450e+000 1.307789e+001 1.169957e+001
      vertex   -4.489758e+000 1.157904e+001 1.169957e+001
    endloop
  endfacet
  facet normal 4.195676e-001 1.642945e-002 -9.075754e-001
    outer loop
      vertex   -4.489758e+000 1.157904e+001 1.169957e+001
      vertex   -4.548450e+000 1.307789e+001 1.169957e+001
      vertex   -4.386654e+000 1.158308e+001 1.174731e+001
    endloop
  endfacet
  facet normal 4.195676e-001 1.642945e-002 -9.075754e-001
    outer loop
      vertex   -4.327961e+000 1.008423e+001 1.174731e+001
      vertex   -4.489758e+000 1.157904e+001 1.169957e+001
      vertex   -4.386654e+000 1.158308e+001 1.174731e+001
    endloop
  endfacet
  facet normal 4.195676e-001 1.642945e-002 -9.075754e-001
    outer loop
      vertex   -4.548450e+000 1.307789e+001 1.169957e+001
      vertex   -4.445346e+000 1.308193e+001 1.174731e+001
      vertex   -4.386654e+000 1.158308e+001 1.174731e+001
    endloop
  endfacet
  facet normal 5.151590e-001 2.017262e-002 -8.568572e-001
    outer loop
      vertex   -4.386654e+000 1.158308e+001 1.174731e+001
      vertex   -4.445346e+000 1.308193e+001 1.174731e+001
      vertex   -4.289311e+000 1.158689e+001 1.180593e+001
    endloop
  endfacet
  facet normal 5.151590e-001 2.017262e-002 -8.568572e-001
    outer loop
      vertex   -4.230619e+000 1.008804e+001 1.180593e+001
      vertex   -4.386654e+000 1.158308e+001 1.174731e+001
      vertex   -4.289311e+000 1.158689e+001 1.180593e+001
    endloop
  endfacet
  facet normal 5.151590e-001 2.017262e-002 -8.568572e-001
    outer loop
      vertex   -4.445346e+000 1.308193e+001 1.174731e+001
      vertex   -4.348003e+000 1.308574e+001 1.180593e+001
      vertex   -4.289311e+000 1.158689e+001 1.180593e+001
    endloop
  endfacet
  facet normal 6.047108e-001 2.367929e-002 -7.960931e-001
    outer loop
      vertex   -4.289311e+000 1.158689e+001 1.180593e+001
      vertex   -4.348003e+000 1.308574e+001 1.180593e+001
      vertex   -4.198871e+000 1.159043e+001 1.187473e+001
    endloop
  endfacet
  facet normal 6.047108e-001 2.367929e-002 -7.960931e-001
    outer loop
      vertex   -4.140179e+000 1.009158e+001 1.187473e+001
      vertex   -4.289311e+000 1.158689e+001 1.180593e+001
      vertex   -4.198871e+000 1.159043e+001 1.187473e+001
    endloop
  endfacet
  facet normal 6.047108e-001 2.367929e-002 -7.960931e-001
    outer loop
      vertex   -4.348003e+000 1.308574e+001 1.180593e+001
      vertex   -4.257563e+000 1.308929e+001 1.187473e+001
      vertex   -4.198871e+000 1.159043e+001 1.187473e+001
    endloop
  endfacet
  facet normal 6.871728e-001 2.690835e-002 -7.259955e-001
    outer loop
      vertex   -4.198871e+000 1.159043e+001 1.187473e+001
      vertex   -4.257563e+000 1.308929e+001 1.187473e+001
      vertex   -4.116394e+000 1.159366e+001 1.195292e+001
    endloop
  endfacet
  facet normal 6.871728e-001 2.690835e-002 -7.259955e-001
    outer loop
      vertex   -4.057702e+000 1.009481e+001 1.195292e+001
      vertex   -4.198871e+000 1.159043e+001 1.187473e+001
      vertex   -4.116394e+000 1.159366e+001 1.195292e+001
    endloop
  endfacet
  facet normal 6.871728e-001 2.690835e-002 -7.259955e-001
    outer loop
      vertex   -4.257563e+000 1.308929e+001 1.187473e+001
      vertex   -4.175086e+000 1.309251e+001 1.195292e+001
      vertex   -4.116394e+000 1.159366e+001 1.195292e+001
    endloop
  endfacet
  facet normal 7.615784e-001 2.982192e-002 -6.473863e-001
    outer loop
      vertex   -4.116394e+000 1.159366e+001 1.195292e+001
      vertex   -4.175086e+000 1.309251e+001 1.195292e+001
      vertex   -4.042848e+000 1.159654e+001 1.203957e+001
    endloop
  endfacet
  facet normal 7.615784e-001 2.982192e-002 -6.473863e-001
    outer loop
      vertex   -3.984156e+000 1.009769e+001 1.203957e+001
      vertex   -4.116394e+000 1.159366e+001 1.195292e+001
      vertex   -4.042848e+000 1.159654e+001 1.203957e+001
    endloop
  endfacet
  facet normal 7.615784e-001 2.982192e-002 -6.473863e-001
    outer loop
      vertex   -4.175086e+000 1.309251e+001 1.195292e+001
      vertex   -4.101540e+000 1.309539e+001 1.203957e+001
      vertex   -4.042848e+000 1.159654e+001 1.203957e+001
    endloop
  endfacet
  facet normal 8.270552e-001 3.238586e-002 -5.611871e-001
    outer loop
      vertex   -4.042848e+000 1.159654e+001 1.203957e+001
      vertex   -4.101540e+000 1.309539e+001 1.203957e+001
      vertex   -3.979095e+000 1.159904e+001 1.213367e+001
    endloop
  endfacet
  facet normal 8.270552e-001 3.238586e-002 -5.611871e-001
    outer loop
      vertex   -3.920403e+000 1.010019e+001 1.213367e+001
      vertex   -4.042848e+000 1.159654e+001 1.203957e+001
      vertex   -3.979095e+000 1.159904e+001 1.213367e+001
    endloop
  endfacet
  facet normal 8.270552e-001 3.238586e-002 -5.611871e-001
    outer loop
      vertex   -4.101540e+000 1.309539e+001 1.203957e+001
      vertex   -4.037787e+000 1.309789e+001 1.213367e+001
      vertex   -3.979095e+000 1.159904e+001 1.213367e+001
    endloop
  endfacet
  facet normal 8.828355e-001 3.457011e-002 -4.684084e-001
    outer loop
      vertex   -3.979095e+000 1.159904e+001 1.213367e+001
      vertex   -4.037787e+000 1.309789e+001 1.213367e+001
      vertex   -3.925881e+000 1.160112e+001 1.223412e+001
    endloop
  endfacet
  facet normal 8.828355e-001 3.457011e-002 -4.684084e-001
    outer loop
      vertex   -3.867189e+000 1.010227e+001 1.223412e+001
      vertex   -3.979095e+000 1.159904e+001 1.213367e+001
      vertex   -3.925881e+000 1.160112e+001 1.223412e+001
    endloop
  endfacet
  facet normal 8.828355e-001 3.457011e-002 -4.684084e-001
    outer loop
      vertex   -4.037787e+000 1.309789e+001 1.213367e+001
      vertex   -3.984573e+000 1.309997e+001 1.223412e+001
      vertex   -3.925881e+000 1.160112e+001 1.223412e+001
    endloop
  endfacet
  facet normal 9.282653e-001 3.634906e-002 -3.701382e-001
    outer loop
      vertex   -3.925881e+000 1.160112e+001 1.223412e+001
      vertex   -3.984573e+000 1.309997e+001 1.223412e+001
      vertex   -3.883832e+000 1.160277e+001 1.233973e+001
    endloop
  endfacet
  facet normal 9.282653e-001 3.634906e-002 -3.701382e-001
    outer loop
      vertex   -3.825140e+000 1.010392e+001 1.233973e+001
      vertex   -3.925881e+000 1.160112e+001 1.223412e+001
      vertex   -3.883832e+000 1.160277e+001 1.233973e+001
    endloop
  endfacet
  facet normal 9.282653e-001 3.634906e-002 -3.701382e-001
    outer loop
      vertex   -3.984573e+000 1.309997e+001 1.223412e+001
      vertex   -3.942524e+000 1.310162e+001 1.233973e+001
      vertex   -3.883832e+000 1.160277e+001 1.233973e+001
    endloop
  endfacet
  facet normal 9.628121e-001 3.770184e-002 -2.675283e-001
    outer loop
      vertex   -3.883832e+000 1.160277e+001 1.233973e+001
      vertex   -3.942524e+000 1.310162e+001 1.233973e+001
      vertex   -3.853439e+000 1.160396e+001 1.244928e+001
    endloop
  endfacet
  facet normal 9.628121e-001 3.770184e-002 -2.675283e-001
    outer loop
      vertex   -3.794747e+000 1.010511e+001 1.244928e+001
      vertex   -3.883832e+000 1.160277e+001 1.233973e+001
      vertex   -3.853439e+000 1.160396e+001 1.244928e+001
    endloop
  endfacet
  facet normal 9.628121e-001 3.770184e-002 -2.675283e-001
    outer loop
      vertex   -3.942524e+000 1.310162e+001 1.233973e+001
      vertex   -3.912132e+000 1.310281e+001 1.244928e+001
      vertex   -3.853439e+000 1.160396e+001 1.244928e+001
    endloop
  endfacet
  facet normal 9.860708e-001 3.861261e-002 -1.617820e-001
    outer loop
      vertex   -3.853439e+000 1.160396e+001 1.244928e+001
      vertex   -3.912132e+000 1.310281e+001 1.244928e+001
      vertex   -3.835060e+000 1.160468e+001 1.256148e+001
    endloop
  endfacet
  facet normal 9.860708e-001 3.861261e-002 -1.617820e-001
    outer loop
      vertex   -3.776368e+000 1.010583e+001 1.256148e+001
      vertex   -3.853439e+000 1.160396e+001 1.244928e+001
      vertex   -3.835060e+000 1.160468e+001 1.256148e+001
    endloop
  endfacet
  facet normal 9.860708e-001 3.861261e-002 -1.617820e-001
    outer loop
      vertex   -3.912132e+000 1.310281e+001 1.244928e+001
      vertex   -3.893752e+000 1.310353e+001 1.256148e+001
      vertex   -3.835060e+000 1.160468e+001 1.256148e+001
    endloop
  endfacet
  facet normal 9.977687e-001 3.907068e-002 -5.413891e-002
    outer loop
      vertex   -3.835060e+000 1.160468e+001 1.256148e+001
      vertex   -3.893752e+000 1.310353e+001 1.256148e+001
      vertex   -3.828910e+000 1.160492e+001 1.267500e+001
    endloop
  endfacet
  facet normal 9.977687e-001 3.907068e-002 -5.413891e-002
    outer loop
      vertex   -3.770218e+000 1.010607e+001 1.267500e+001
      vertex   -3.835060e+000 1.160468e+001 1.256148e+001
      vertex   -3.828910e+000 1.160492e+001 1.267500e+001
    endloop
  endfacet
  facet normal 9.977687e-001 3.907068e-002 -5.413891e-002
    outer loop
      vertex   -3.893752e+000 1.310353e+001 1.256148e+001
      vertex   -3.887602e+000 1.310377e+001 1.267500e+001
      vertex   -3.828910e+000 1.160492e+001 1.267500e+001
    endloop
  endfacet
  facet normal 9.977687e-001 3.907068e-002 5.413891e-002
    outer loop
      vertex   -3.828910e+000 1.160492e+001 1.267500e+001
      vertex   -3.887602e+000 1.310377e+001 1.267500e+001
      vertex   -3.835060e+000 1.160468e+001 1.278852e+001
    endloop
  endfacet
  facet normal 9.977687e-001 3.907068e-002 5.413891e-002
    outer loop
      vertex   -3.776368e+000 1.010583e+001 1.278852e+001
      vertex   -3.828910e+000 1.160492e+001 1.267500e+001
      vertex   -3.835060e+000 1.160468e+001 1.278852e+001
    endloop
  endfacet
  facet normal 3.912806e-002 -9.992342e-001 0.000000e+000
    outer loop
      vertex   -3.770218e+000 1.010607e+001 1.267500e+001
      vertex   -3.776368e+000 1.010583e+001 1.278852e+001
      vertex   -3.776368e+000 1.010583e+001 1.256148e+001
    endloop
  endfacet
  facet normal 3.912806e-002 -9.992342e-001 0.000000e+000
    outer loop
      vertex   -3.776368e+000 1.010583e+001 1.256148e+001
      vertex   -3.776368e+000 1.010583e+001 1.278852e+001
      vertex   -3.794747e+000 1.010511e+001 1.244928e+001
    endloop
  endfacet
  facet normal 3.912806e-002 -9.992342e-001 0.000000e+000
    outer loop
      vertex   -3.794747e+000 1.010511e+001 1.244928e+001
      vertex   -3.776368e+000 1.010583e+001 1.278852e+001
      vertex   -3.794747e+000 1.010511e+001 1.290072e+001
    endloop
  endfacet
  facet normal 3.912806e-002 -9.992342e-001 0.000000e+000
    outer loop
      vertex   -3.825140e+000 1.010392e+001 1.233973e+001
      vertex   -3.794747e+000 1.010511e+001 1.290072e+001
      vertex   -3.825140e+000 1.010392e+001 1.301027e+001
    endloop
  endfacet
  facet normal 3.912806e-002 -9.992342e-001 0.000000e+000
    outer loop
      vertex   -3.867189e+000 1.010227e+001 1.223412e+001
      vertex   -3.825140e+000 1.010392e+001 1.301027e+001
      vertex   -3.867189e+000 1.010227e+001 1.311588e+001
    endloop
  endfacet
  facet normal 3.912806e-002 -9.992342e-001 0.000000e+000
    outer loop
      vertex   -3.920403e+000 1.010019e+001 1.213367e+001
      vertex   -3.867189e+000 1.010227e+001 1.311588e+001
      vertex   -3.920403e+000 1.010019e+001 1.321633e+001
    endloop
  endfacet
  facet normal 3.912806e-002 -9.992342e-001 1.370560e-017
    outer loop
      vertex   -3.984156e+000 1.009769e+001 1.203957e+001
      vertex   -3.920403e+000 1.010019e+001 1.321633e+001
      vertex   -3.984156e+000 1.009769e+001 1.331043e+001
    endloop
  endfacet
  facet normal 3.912806e-002 -9.992342e-001 0.000000e+000
    outer loop
      vertex   -4.057702e+000 1.009481e+001 1.195292e+001
      vertex   -3.984156e+000 1.009769e+001 1.331043e+001
      vertex   -4.057702e+000 1.009481e+001 1.339708e+001
    endloop
  endfacet
  facet normal 3.912806e-002 -9.992342e-001 2.174838e-017
    outer loop
      vertex   -4.140179e+000 1.009158e+001 1.187473e+001
      vertex   -4.057702e+000 1.009481e+001 1.339708e+001
      vertex   -4.140179e+000 1.009158e+001 1.347527e+001
    endloop
  endfacet
  facet normal 3.912806e-002 -9.992342e-001 0.000000e+000
    outer loop
      vertex   -4.230619e+000 1.008804e+001 1.180593e+001
      vertex   -4.140179e+000 1.009158e+001 1.347527e+001
      vertex   -4.230619e+000 1.008804e+001 1.354407e+001
    endloop
  endfacet
  facet normal 3.912806e-002 -9.992342e-001 0.000000e+000
    outer loop
      vertex   -4.327961e+000 1.008423e+001 1.174731e+001
      vertex   -4.230619e+000 1.008804e+001 1.354407e+001
      vertex   -4.327961e+000 1.008423e+001 1.360269e+001
    endloop
  endfacet
  facet normal 3.912806e-002 -9.992342e-001 0.000000e+000
    outer loop
      vertex   -4.431066e+000 1.008019e+001 1.169957e+001
      vertex   -4.327961e+000 1.008423e+001 1.360269e+001
      vertex   -4.431066e+000 1.008019e+001 1.365043e+001
    endloop
  endfacet
  facet normal 3.912806e-002 -9.992342e-001 0.000000e+000
    outer loop
      vertex   -4.538724e+000 1.007598e+001 1.166327e+001
      vertex   -4.431066e+000 1.008019e+001 1.365043e+001
      vertex   -4.538724e+000 1.007598e+001 1.368673e+001
    endloop
  endfacet
  facet normal 3.912806e-002 -9.992342e-001 0.000000e+000
    outer loop
      vertex   -4.649673e+000 1.007163e+001 1.163883e+001
      vertex   -4.538724e+000 1.007598e+001 1.368673e+001
      vertex   -4.649673e+000 1.007163e+001 1.371117e+001
    endloop
  endfacet
  facet normal 3.912806e-002 -9.992342e-001 1.646855e-017
    outer loop
      vertex   -4.762611e+000 1.006721e+001 1.162654e+001
      vertex   -4.649673e+000 1.007163e+001 1.371117e+001
      vertex   -4.762611e+000 1.006721e+001 1.372346e+001
    endloop
  endfacet
  facet normal 3.912806e-002 -9.992342e-001 0.000000e+000
    outer loop
      vertex   -4.876216e+000 1.006276e+001 1.162654e+001
      vertex   -4.762611e+000 1.006721e+001 1.372346e+001
      vertex   -4.876216e+000 1.006276e+001 1.372346e+001
    endloop
  endfacet
  facet normal 3.912806e-002 -9.992342e-001 0.000000e+000
    outer loop
      vertex   -4.989155e+000 1.005834e+001 1.163883e+001
      vertex   -4.876216e+000 1.006276e+001 1.372346e+001
      vertex   -4.989155e+000 1.005834e+001 1.371117e+001
    endloop
  endfacet
  facet normal 3.912806e-002 -9.992342e-001 0.000000e+000
    outer loop
      vertex   -5.100103e+000 1.005399e+001 1.166327e+001
      vertex   -4.989155e+000 1.005834e+001 1.371117e+001
      vertex   -5.100103e+000 1.005399e+001 1.368673e+001
    endloop
  endfacet
  facet normal 3.912806e-002 -9.992342e-001 0.000000e+000
    outer loop
      vertex   -5.207761e+000 1.004978e+001 1.169957e+001
      vertex   -5.100103e+000 1.005399e+001 1.368673e+001
      vertex   -5.207761e+000 1.004978e+001 1.365043e+001
    endloop
  endfacet
  facet normal 3.912806e-002 -9.992342e-001 1.868878e-017
    outer loop
      vertex   -5.310866e+000 1.004574e+001 1.174731e+001
      vertex   -5.207761e+000 1.004978e+001 1.365043e+001
      vertex   -5.310866e+000 1.004574e+001 1.360269e+001
    endloop
  endfacet
  facet normal 3.912806e-002 -9.992342e-001 0.000000e+000
    outer loop
      vertex   -5.408209e+000 1.004193e+001 1.180593e+001
      vertex   -5.310866e+000 1.004574e+001 1.360269e+001
      vertex   -5.408209e+000 1.004193e+001 1.354407e+001
    endloop
  endfacet
  facet normal 3.912806e-002 -9.992342e-001 0.000000e+000
    outer loop
      vertex   -5.498649e+000 1.003839e+001 1.187473e+001
      vertex   -5.408209e+000 1.004193e+001 1.354407e+001
      vertex   -5.498649e+000 1.003839e+001 1.347527e+001
    endloop
  endfacet
  facet normal 3.912806e-002 -9.992342e-001 2.410324e-017
    outer loop
      vertex   -5.581125e+000 1.003516e+001 1.195292e+001
      vertex   -5.498649e+000 1.003839e+001 1.347527e+001
      vertex   -5.581125e+000 1.003516e+001 1.339708e+001
    endloop
  endfacet
  facet normal 3.912806e-002 -9.992342e-001 0.000000e+000
    outer loop
      vertex   -5.654671e+000 1.003228e+001 1.203957e+001
      vertex   -5.581125e+000 1.003516e+001 1.339708e+001
      vertex   -5.654671e+000 1.003228e+001 1.331043e+001
    endloop
  endfacet
  facet normal 3.912806e-002 -9.992342e-001 0.000000e+000
    outer loop
      vertex   -5.718425e+000 1.002978e+001 1.213367e+001
      vertex   -5.654671e+000 1.003228e+001 1.331043e+001
      vertex   -5.718425e+000 1.002978e+001 1.321633e+001
    endloop
  endfacet
  facet normal 3.912806e-002 -9.992342e-001 0.000000e+000
    outer loop
      vertex   -5.771638e+000 1.002770e+001 1.223412e+001
      vertex   -5.718425e+000 1.002978e+001 1.321633e+001
      vertex   -5.771638e+000 1.002770e+001 1.311588e+001
    endloop
  endfacet
  facet normal 3.912806e-002 -9.992342e-001 0.000000e+000
    outer loop
      vertex   -5.813688e+000 1.002605e+001 1.233973e+001
      vertex   -5.771638e+000 1.002770e+001 1.311588e+001
      vertex   -5.813688e+000 1.002605e+001 1.301027e+001
    endloop
  endfacet
  facet normal 3.912806e-002 -9.992342e-001 0.000000e+000
    outer loop
      vertex   -5.844080e+000 1.002486e+001 1.244928e+001
      vertex   -5.813688e+000 1.002605e+001 1.301027e+001
      vertex   -5.844080e+000 1.002486e+001 1.290072e+001
    endloop
  endfacet
  facet normal 3.912806e-002 -9.992342e-001 0.000000e+000
    outer loop
      vertex   -5.862459e+000 1.002414e+001 1.256148e+001
      vertex   -5.844080e+000 1.002486e+001 1.290072e+001
      vertex   -5.862459e+000 1.002414e+001 1.278852e+001
    endloop
  endfacet
  facet normal 3.912806e-002 -9.992342e-001 0.000000e+000
    outer loop
      vertex   -5.868610e+000 1.002390e+001 1.267500e+001
      vertex   -5.862459e+000 1.002414e+001 1.256148e+001
      vertex   -5.862459e+000 1.002414e+001 1.278852e+001
    endloop
  endfacet
  facet normal 3.912806e-002 -9.992342e-001 0.000000e+000
    outer loop
      vertex   -3.794747e+000 1.010511e+001 1.244928e+001
      vertex   -3.794747e+000 1.010511e+001 1.290072e+001
      vertex   -3.825140e+000 1.010392e+001 1.233973e+001
    endloop
  endfacet
  facet normal 3.912806e-002 -9.992342e-001 0.000000e+000
    outer loop
      vertex   -3.825140e+000 1.010392e+001 1.233973e+001
      vertex   -3.825140e+000 1.010392e+001 1.301027e+001
      vertex   -3.867189e+000 1.010227e+001 1.223412e+001
    endloop
  endfacet
  facet normal 3.912806e-002 -9.992342e-001 0.000000e+000
    outer loop
      vertex   -3.867189e+000 1.010227e+001 1.223412e+001
      vertex   -3.867189e+000 1.010227e+001 1.311588e+001
      vertex   -3.920403e+000 1.010019e+001 1.213367e+001
    endloop
  endfacet
  facet normal 3.912806e-002 -9.992342e-001 0.000000e+000
    outer loop
      vertex   -3.920403e+000 1.010019e+001 1.213367e+001
      vertex   -3.920403e+000 1.010019e+001 1.321633e+001
      vertex   -3.984156e+000 1.009769e+001 1.203957e+001
    endloop
  endfacet
  facet normal 3.912806e-002 -9.992342e-001 1.367284e-017
    outer loop
      vertex   -3.984156e+000 1.009769e+001 1.203957e+001
      vertex   -3.984156e+000 1.009769e+001 1.331043e+001
      vertex   -4.057702e+000 1.009481e+001 1.195292e+001
    endloop
  endfacet
  facet normal 3.912806e-002 -9.992342e-001 0.000000e+000
    outer loop
      vertex   -4.057702e+000 1.009481e+001 1.195292e+001
      vertex   -4.057702e+000 1.009481e+001 1.339708e+001
      vertex   -4.140179e+000 1.009158e+001 1.187473e+001
    endloop
  endfacet
  facet normal 3.912806e-002 -9.992342e-001 2.171310e-017
    outer loop
      vertex   -4.140179e+000 1.009158e+001 1.187473e+001
      vertex   -4.140179e+000 1.009158e+001 1.347527e+001
      vertex   -4.230619e+000 1.008804e+001 1.180593e+001
    endloop
  endfacet
  facet normal 3.912806e-002 -9.992342e-001 0.000000e+000
    outer loop
      vertex   -4.230619e+000 1.008804e+001 1.180593e+001
      vertex   -4.230619e+000 1.008804e+001 1.354407e+001
      vertex   -4.327961e+000 1.008423e+001 1.174731e+001
    endloop
  endfacet
  facet normal 3.912806e-002 -9.992342e-001 0.000000e+000
    outer loop
      vertex   -4.327961e+000 1.008423e+001 1.174731e+001
      vertex   -4.327961e+000 1.008423e+001 1.360269e+001
      vertex   -4.431066e+000 1.008019e+001 1.169957e+001
    endloop
  endfacet
  facet normal 3.912806e-002 -9.992342e-001 0.000000e+000
    outer loop
      vertex   -4.431066e+000 1.008019e+001 1.169957e+001
      vertex   -4.431066e+000 1.008019e+001 1.365043e+001
      vertex   -4.538724e+000 1.007598e+001 1.166327e+001
    endloop
  endfacet
  facet normal 3.912806e-002 -9.992342e-001 0.000000e+000
    outer loop
      vertex   -4.538724e+000 1.007598e+001 1.166327e+001
      vertex   -4.538724e+000 1.007598e+001 1.368673e+001
      vertex   -4.649673e+000 1.007163e+001 1.163883e+001
    endloop
  endfacet
  facet normal 3.912806e-002 -9.992342e-001 0.000000e+000
    outer loop
      vertex   -4.649673e+000 1.007163e+001 1.163883e+001
      vertex   -4.649673e+000 1.007163e+001 1.371117e+001
      vertex   -4.762611e+000 1.006721e+001 1.162654e+001
    endloop
  endfacet
  facet normal 3.912806e-002 -9.992342e-001 1.657321e-017
    outer loop
      vertex   -4.762611e+000 1.006721e+001 1.162654e+001
      vertex   -4.762611e+000 1.006721e+001 1.372346e+001
      vertex   -4.876216e+000 1.006276e+001 1.162654e+001
    endloop
  endfacet
  facet normal 3.912806e-002 -9.992342e-001 0.000000e+000
    outer loop
      vertex   -4.876216e+000 1.006276e+001 1.162654e+001
      vertex   -4.876216e+000 1.006276e+001 1.372346e+001
      vertex   -4.989155e+000 1.005834e+001 1.163883e+001
    endloop
  endfacet
  facet normal 3.912806e-002 -9.992342e-001 0.000000e+000
    outer loop
      vertex   -4.989155e+000 1.005834e+001 1.163883e+001
      vertex   -4.989155e+000 1.005834e+001 1.371117e+001
      vertex   -5.100103e+000 1.005399e+001 1.166327e+001
    endloop
  endfacet
  facet normal 3.912806e-002 -9.992342e-001 0.000000e+000
    outer loop
      vertex   -5.100103e+000 1.005399e+001 1.166327e+001
      vertex   -5.100103e+000 1.005399e+001 1.368673e+001
      vertex   -5.207761e+000 1.004978e+001 1.169957e+001
    endloop
  endfacet
  facet normal 3.912806e-002 -9.992342e-001 0.000000e+000
    outer loop
      vertex   -5.207761e+000 1.004978e+001 1.169957e+001
      vertex   -5.207761e+000 1.004978e+001 1.365043e+001
      vertex   -5.310866e+000 1.004574e+001 1.174731e+001
    endloop
  endfacet
  facet normal 3.912806e-002 -9.992342e-001 1.873082e-017
    outer loop
      vertex   -5.310866e+000 1.004574e+001 1.174731e+001
      vertex   -5.310866e+000 1.004574e+001 1.360269e+001
      vertex   -5.408209e+000 1.004193e+001 1.180593e+001
    endloop
  endfacet
  facet normal 3.912806e-002 -9.992342e-001 0.000000e+000
    outer loop
      vertex   -5.408209e+000 1.004193e+001 1.180593e+001
      vertex   -5.408209e+000 1.004193e+001 1.354407e+001
      vertex   -5.498649e+000 1.003839e+001 1.187473e+001
    endloop
  endfacet
  facet normal 3.912806e-002 -9.992342e-001 0.000000e+000
    outer loop
      vertex   -5.498649e+000 1.003839e+001 1.187473e+001
      vertex   -5.498649e+000 1.003839e+001 1.347527e+001
      vertex   -5.581125e+000 1.003516e+001 1.195292e+001
    endloop
  endfacet
  facet normal 3.912806e-002 -9.992342e-001 2.406415e-017
    outer loop
      vertex   -5.581125e+000 1.003516e+001 1.195292e+001
      vertex   -5.581125e+000 1.003516e+001 1.339708e+001
      vertex   -5.654671e+000 1.003228e+001 1.203957e+001
    endloop
  endfacet
  facet normal 3.912806e-002 -9.992342e-001 0.000000e+000
    outer loop
      vertex   -5.654671e+000 1.003228e+001 1.203957e+001
      vertex   -5.654671e+000 1.003228e+001 1.331043e+001
      vertex   -5.718425e+000 1.002978e+001 1.213367e+001
    endloop
  endfacet
  facet normal 3.912806e-002 -9.992342e-001 0.000000e+000
    outer loop
      vertex   -5.718425e+000 1.002978e+001 1.213367e+001
      vertex   -5.718425e+000 1.002978e+001 1.321633e+001
      vertex   -5.771638e+000 1.002770e+001 1.223412e+001
    endloop
  endfacet
  facet normal 3.912806e-002 -9.992342e-001 0.000000e+000
    outer loop
      vertex   -5.771638e+000 1.002770e+001 1.223412e+001
      vertex   -5.771638e+000 1.002770e+001 1.311588e+001
      vertex   -5.813688e+000 1.002605e+001 1.233973e+001
    endloop
  endfacet
  facet normal 3.912806e-002 -9.992342e-001 0.000000e+000
    outer loop
      vertex   -5.813688e+000 1.002605e+001 1.233973e+001
      vertex   -5.813688e+000 1.002605e+001 1.301027e+001
      vertex   -5.844080e+000 1.002486e+001 1.244928e+001
    endloop
  endfacet
  facet normal 3.912806e-002 -9.992342e-001 0.000000e+000
    outer loop
      vertex   -5.844080e+000 1.002486e+001 1.244928e+001
      vertex   -5.844080e+000 1.002486e+001 1.290072e+001
      vertex   -5.862459e+000 1.002414e+001 1.256148e+001
    endloop
  endfacet
  facet normal -3.912806e-002 9.992342e-001 0.000000e+000
    outer loop
      vertex   -3.887602e+000 1.310377e+001 1.267500e+001
      vertex   -3.893752e+000 1.310353e+001 1.256148e+001
      vertex   -3.893752e+000 1.310353e+001 1.278852e+001
    endloop
  endfacet
  facet normal -3.912806e-002 9.992342e-001 0.000000e+000
    outer loop
      vertex   -3.893752e+000 1.310353e+001 1.278852e+001
      vertex   -3.893752e+000 1.310353e+001 1.256148e+001
      vertex   -3.912132e+000 1.310281e+001 1.290072e+001
    endloop
  endfacet
  facet normal -3.912806e-002 9.992342e-001 0.000000e+000
    outer loop
      vertex   -3.912132e+000 1.310281e+001 1.290072e+001
      vertex   -3.893752e+000 1.310353e+001 1.256148e+001
      vertex   -3.912132e+000 1.310281e+001 1.244928e+001
    endloop
  endfacet
  facet normal -3.912806e-002 9.992342e-001 0.000000e+000
    outer loop
      vertex   -3.942524e+000 1.310162e+001 1.301027e+001
      vertex   -3.912132e+000 1.310281e+001 1.244928e+001
      vertex   -3.942524e+000 1.310162e+001 1.233973e+001
    endloop
  endfacet
  facet normal -3.912806e-002 9.992342e-001 0.000000e+000
    outer loop
      vertex   -3.984573e+000 1.309997e+001 1.311588e+001
      vertex   -3.942524e+000 1.310162e+001 1.233973e+001
      vertex   -3.984573e+000 1.309997e+001 1.223412e+001
    endloop
  endfacet
  facet normal -3.912806e-002 9.992342e-001 0.000000e+000
    outer loop
      vertex   -4.037787e+000 1.309789e+001 1.321633e+001
      vertex   -3.984573e+000 1.309997e+001 1.223412e+001
      vertex   -4.037787e+000 1.309789e+001 1.213367e+001
    endloop
  endfacet
  facet normal -3.912806e-002 9.992342e-001 2.741120e-017
    outer loop
      vertex   -4.101540e+000 1.309539e+001 1.331043e+001
      vertex   -4.037787e+000 1.309789e+001 1.213367e+001
      vertex   -4.101540e+000 1.309539e+001 1.203957e+001
    endloop
  endfacet
  facet normal -3.912806e-002 9.992342e-001 0.000000e+000
    outer loop
      vertex   -4.175086e+000 1.309251e+001 1.339708e+001
      vertex   -4.101540e+000 1.309539e+001 1.203957e+001
      vertex   -4.175086e+000 1.309251e+001 1.195292e+001
    endloop
  endfacet
  facet normal -3.912806e-002 9.992342e-001 2.174838e-017
    outer loop
      vertex   -4.257563e+000 1.308929e+001 1.347527e+001
      vertex   -4.175086e+000 1.309251e+001 1.195292e+001
      vertex   -4.257563e+000 1.308929e+001 1.187473e+001
    endloop
  endfacet
  facet normal -3.912806e-002 9.992342e-001 0.000000e+000
    outer loop
      vertex   -4.348003e+000 1.308574e+001 1.354407e+001
      vertex   -4.257563e+000 1.308929e+001 1.187473e+001
      vertex   -4.348003e+000 1.308574e+001 1.180593e+001
    endloop
  endfacet
  facet normal -3.912806e-002 9.992342e-001 0.000000e+000
    outer loop
      vertex   -4.445346e+000 1.308193e+001 1.360269e+001
      vertex   -4.348003e+000 1.308574e+001 1.180593e+001
      vertex   -4.445346e+000 1.308193e+001 1.174731e+001
    endloop
  endfacet
  facet normal -3.912806e-002 9.992342e-001 0.000000e+000
    outer loop
      vertex   -4.548450e+000 1.307789e+001 1.365043e+001
      vertex   -4.445346e+000 1.308193e+001 1.174731e+001
      vertex   -4.548450e+000 1.307789e+001 1.169957e+001
    endloop
  endfacet
  facet normal -3.912806e-002 9.992342e-001 0.000000e+000
    outer loop
      vertex   -4.656108e+000 1.307368e+001 1.368673e+001
      vertex   -4.548450e+000 1.307789e+001 1.169957e+001
      vertex   -4.656108e+000 1.307368e+001 1.166327e+001
    endloop
  endfacet
  facet normal -3.912806e-002 9.992342e-001 0.000000e+000
    outer loop
      vertex   -4.767057e+000 1.306933e+001 1.371117e+001
      vertex   -4.656108e+000 1.307368e+001 1.166327e+001
      vertex   -4.767057e+000 1.306933e+001 1.163883e+001
    endloop
  endfacet
  facet normal -3.912806e-002 9.992342e-001 1.646855e-017
    outer loop
      vertex   -4.879996e+000 1.306491e+001 1.372346e+001
      vertex   -4.767057e+000 1.306933e+001 1.163883e+001
      vertex   -4.879996e+000 1.306491e+001 1.162654e+001
    endloop
  endfacet
  facet normal -3.912806e-002 9.992342e-001 -1.682679e-017
    outer loop
      vertex   -4.993600e+000 1.306046e+001 1.372346e+001
      vertex   -4.879996e+000 1.306491e+001 1.162654e+001
      vertex   -4.993600e+000 1.306046e+001 1.162654e+001
    endloop
  endfacet
  facet normal -3.912806e-002 9.992342e-001 0.000000e+000
    outer loop
      vertex   -5.106539e+000 1.305604e+001 1.371117e+001
      vertex   -4.993600e+000 1.306046e+001 1.162654e+001
      vertex   -5.106539e+000 1.305604e+001 1.163883e+001
    endloop
  endfacet
  facet normal -3.912806e-002 9.992342e-001 0.000000e+000
    outer loop
      vertex   -5.217488e+000 1.305170e+001 1.368673e+001
      vertex   -5.106539e+000 1.305604e+001 1.163883e+001
      vertex   -5.217488e+000 1.305170e+001 1.166327e+001
    endloop
  endfacet
  facet normal -3.912806e-002 9.992342e-001 0.000000e+000
    outer loop
      vertex   -5.325145e+000 1.304748e+001 1.365043e+001
      vertex   -5.217488e+000 1.305170e+001 1.166327e+001
      vertex   -5.325145e+000 1.304748e+001 1.169957e+001
    endloop
  endfacet
  facet normal -3.912806e-002 9.992342e-001 1.868878e-017
    outer loop
      vertex   -5.428250e+000 1.304344e+001 1.360269e+001
      vertex   -5.325145e+000 1.304748e+001 1.169957e+001
      vertex   -5.428250e+000 1.304344e+001 1.174731e+001
    endloop
  endfacet
  facet normal -3.912806e-002 9.992342e-001 0.000000e+000
    outer loop
      vertex   -5.525593e+000 1.303963e+001 1.354407e+001
      vertex   -5.428250e+000 1.304344e+001 1.174731e+001
      vertex   -5.525593e+000 1.303963e+001 1.180593e+001
    endloop
  endfacet
  facet normal -3.912806e-002 9.992342e-001 0.000000e+000
    outer loop
      vertex   -5.616033e+000 1.303609e+001 1.347527e+001
      vertex   -5.525593e+000 1.303963e+001 1.180593e+001
      vertex   -5.616033e+000 1.303609e+001 1.187473e+001
    endloop
  endfacet
  facet normal -3.912806e-002 9.992342e-001 2.364846e-017
    outer loop
      vertex   -5.698509e+000 1.303286e+001 1.339708e+001
      vertex   -5.616033e+000 1.303609e+001 1.187473e+001
      vertex   -5.698509e+000 1.303286e+001 1.195292e+001
    endloop
  endfacet
  facet normal -3.912806e-002 9.992342e-001 0.000000e+000
    outer loop
      vertex   -5.772055e+000 1.302998e+001 1.331043e+001
      vertex   -5.698509e+000 1.303286e+001 1.195292e+001
      vertex   -5.772055e+000 1.302998e+001 1.203957e+001
    endloop
  endfacet
  facet normal -3.912806e-002 9.992342e-001 0.000000e+000
    outer loop
      vertex   -5.835809e+000 1.302748e+001 1.321633e+001
      vertex   -5.772055e+000 1.302998e+001 1.203957e+001
      vertex   -5.835809e+000 1.302748e+001 1.213367e+001
    endloop
  endfacet
  facet normal -3.912806e-002 9.992342e-001 0.000000e+000
    outer loop
      vertex   -5.889022e+000 1.302540e+001 1.311588e+001
      vertex   -5.835809e+000 1.302748e+001 1.213367e+001
      vertex   -5.889022e+000 1.302540e+001 1.223412e+001
    endloop
  endfacet
  facet normal -3.912806e-002 9.992342e-001 0.000000e+000
    outer loop
      vertex   -5.931072e+000 1.302375e+001 1.301027e+001
      vertex   -5.889022e+000 1.302540e+001 1.223412e+001
      vertex   -5.931072e+000 1.302375e+001 1.233973e+001
    endloop
  endfacet
  facet normal -3.912806e-002 9.992342e-001 0.000000e+000
    outer loop
      vertex   -5.961464e+000 1.302256e+001 1.290072e+001
      vertex   -5.931072e+000 1.302375e+001 1.233973e+001
      vertex   -5.961464e+000 1.302256e+001 1.244928e+001
    endloop
  endfacet
  facet normal -3.912806e-002 9.992342e-001 0.000000e+000
    outer loop
      vertex   -5.979843e+000 1.302184e+001 1.278852e+001
      vertex   -5.961464e+000 1.302256e+001 1.244928e+001
      vertex   -5.979843e+000 1.302184e+001 1.256148e+001
    endloop
  endfacet
  facet normal -3.912806e-002 9.992342e-001 0.000000e+000
    outer loop
      vertex   -5.985994e+000 1.302160e+001 1.267500e+001
      vertex   -5.979843e+000 1.302184e+001 1.278852e+001
      vertex   -5.979843e+000 1.302184e+001 1.256148e+001
    endloop
  endfacet
  facet normal -3.912806e-002 9.992342e-001 0.000000e+000
    outer loop
      vertex   -3.912132e+000 1.310281e+001 1.290072e+001
      vertex   -3.912132e+000 1.310281e+001 1.244928e+001
      vertex   -3.942524e+000 1.310162e+001 1.301027e+001
    endloop
  endfacet
  facet normal -3.912806e-002 9.992342e-001 0.000000e+000
    outer loop
      vertex   -3.942524e+000 1.310162e+001 1.301027e+001
      vertex   -3.942524e+000 1.310162e+001 1.233973e+001
      vertex   -3.984573e+000 1.309997e+001 1.311588e+001
    endloop
  endfacet
  facet normal -3.912806e-002 9.992342e-001 0.000000e+000
    outer loop
      vertex   -3.984573e+000 1.309997e+001 1.311588e+001
      vertex   -3.984573e+000 1.309997e+001 1.223412e+001
      vertex   -4.037787e+000 1.309789e+001 1.321633e+001
    endloop
  endfacet
  facet normal -3.912806e-002 9.992342e-001 0.000000e+000
    outer loop
      vertex   -4.037787e+000 1.309789e+001 1.321633e+001
      vertex   -4.037787e+000 1.309789e+001 1.213367e+001
      vertex   -4.101540e+000 1.309539e+001 1.331043e+001
    endloop
  endfacet
  facet normal -3.912806e-002 9.992342e-001 2.734569e-017
    outer loop
      vertex   -4.101540e+000 1.309539e+001 1.331043e+001
      vertex   -4.101540e+000 1.309539e+001 1.203957e+001
      vertex   -4.175086e+000 1.309251e+001 1.339708e+001
    endloop
  endfacet
  facet normal -3.912806e-002 9.992342e-001 0.000000e+000
    outer loop
      vertex   -4.175086e+000 1.309251e+001 1.339708e+001
      vertex   -4.175086e+000 1.309251e+001 1.195292e+001
      vertex   -4.257563e+000 1.308929e+001 1.347527e+001
    endloop
  endfacet
  facet normal -3.912806e-002 9.992342e-001 2.171310e-017
    outer loop
      vertex   -4.257563e+000 1.308929e+001 1.347527e+001
      vertex   -4.257563e+000 1.308929e+001 1.187473e+001
      vertex   -4.348003e+000 1.308574e+001 1.354407e+001
    endloop
  endfacet
  facet normal -3.912806e-002 9.992342e-001 0.000000e+000
    outer loop
      vertex   -4.348003e+000 1.308574e+001 1.354407e+001
      vertex   -4.348003e+000 1.308574e+001 1.180593e+001
      vertex   -4.445346e+000 1.308193e+001 1.360269e+001
    endloop
  endfacet
  facet normal -3.912806e-002 9.992342e-001 0.000000e+000
    outer loop
      vertex   -4.445346e+000 1.308193e+001 1.360269e+001
      vertex   -4.445346e+000 1.308193e+001 1.174731e+001
      vertex   -4.548450e+000 1.307789e+001 1.365043e+001
    endloop
  endfacet
  facet normal -3.912806e-002 9.992342e-001 0.000000e+000
    outer loop
      vertex   -4.548450e+000 1.307789e+001 1.365043e+001
      vertex   -4.548450e+000 1.307789e+001 1.169957e+001
      vertex   -4.656108e+000 1.307368e+001 1.368673e+001
    endloop
  endfacet
  facet normal -3.912806e-002 9.992342e-001 0.000000e+000
    outer loop
      vertex   -4.656108e+000 1.307368e+001 1.368673e+001
      vertex   -4.656108e+000 1.307368e+001 1.166327e+001
      vertex   -4.767057e+000 1.306933e+001 1.371117e+001
    endloop
  endfacet
  facet normal -3.912806e-002 9.992342e-001 0.000000e+000
    outer loop
      vertex   -4.767057e+000 1.306933e+001 1.371117e+001
      vertex   -4.767057e+000 1.306933e+001 1.163883e+001
      vertex   -4.879996e+000 1.306491e+001 1.372346e+001
    endloop
  endfacet
  facet normal -3.912806e-002 9.992342e-001 1.657321e-017
    outer loop
      vertex   -4.879996e+000 1.306491e+001 1.372346e+001
      vertex   -4.879996e+000 1.306491e+001 1.162654e+001
      vertex   -4.993600e+000 1.306046e+001 1.372346e+001
    endloop
  endfacet
  facet normal -3.912806e-002 9.992342e-001 -1.657321e-017
    outer loop
      vertex   -4.993600e+000 1.306046e+001 1.372346e+001
      vertex   -4.993600e+000 1.306046e+001 1.162654e+001
      vertex   -5.106539e+000 1.305604e+001 1.371117e+001
    endloop
  endfacet
  facet normal -3.912806e-002 9.992342e-001 0.000000e+000
    outer loop
      vertex   -5.106539e+000 1.305604e+001 1.371117e+001
      vertex   -5.106539e+000 1.305604e+001 1.163883e+001
      vertex   -5.217488e+000 1.305170e+001 1.368673e+001
    endloop
  endfacet
  facet normal -3.912806e-002 9.992342e-001 0.000000e+000
    outer loop
      vertex   -5.217488e+000 1.305170e+001 1.368673e+001
      vertex   -5.217488e+000 1.305170e+001 1.166327e+001
      vertex   -5.325145e+000 1.304748e+001 1.365043e+001
    endloop
  endfacet
  facet normal -3.912806e-002 9.992342e-001 0.000000e+000
    outer loop
      vertex   -5.325145e+000 1.304748e+001 1.365043e+001
      vertex   -5.325145e+000 1.304748e+001 1.169957e+001
      vertex   -5.428250e+000 1.304344e+001 1.360269e+001
    endloop
  endfacet
  facet normal -3.912806e-002 9.992342e-001 1.873082e-017
    outer loop
      vertex   -5.428250e+000 1.304344e+001 1.360269e+001
      vertex   -5.428250e+000 1.304344e+001 1.174731e+001
      vertex   -5.525593e+000 1.303963e+001 1.354407e+001
    endloop
  endfacet
  facet normal -3.912806e-002 9.992342e-001 0.000000e+000
    outer loop
      vertex   -5.525593e+000 1.303963e+001 1.354407e+001
      vertex   -5.525593e+000 1.303963e+001 1.180593e+001
      vertex   -5.616033e+000 1.303609e+001 1.347527e+001
    endloop
  endfacet
  facet normal -3.912806e-002 9.992342e-001 0.000000e+000
    outer loop
      vertex   -5.616033e+000 1.303609e+001 1.347527e+001
      vertex   -5.616033e+000 1.303609e+001 1.187473e+001
      vertex   -5.698509e+000 1.303286e+001 1.339708e+001
    endloop
  endfacet
  facet normal -3.912806e-002 9.992342e-001 2.406415e-017
    outer loop
      vertex   -5.698509e+000 1.303286e+001 1.339708e+001
      vertex   -5.698509e+000 1.303286e+001 1.195292e+001
      vertex   -5.772055e+000 1.302998e+001 1.331043e+001
    endloop
  endfacet
  facet normal -3.912806e-002 9.992342e-001 0.000000e+000
    outer loop
      vertex   -5.772055e+000 1.302998e+001 1.331043e+001
      vertex   -5.772055e+000 1.302998e+001 1.203957e+001
      vertex   -5.835809e+000 1.302748e+001 1.321633e+001
    endloop
  endfacet
  facet normal -3.912806e-002 9.992342e-001 0.000000e+000
    outer loop
      vertex   -5.835809e+000 1.302748e+001 1.321633e+001
      vertex   -5.835809e+000 1.302748e+001 1.213367e+001
      vertex   -5.889022e+000 1.302540e+001 1.311588e+001
    endloop
  endfacet
  facet normal -3.912806e-002 9.992342e-001 0.000000e+000
    outer loop
      vertex   -5.889022e+000 1.302540e+001 1.311588e+001
      vertex   -5.889022e+000 1.302540e+001 1.223412e+001
      vertex   -5.931072e+000 1.302375e+001 1.301027e+001
    endloop
  endfacet
  facet normal -3.912806e-002 9.992342e-001 0.000000e+000
    outer loop
      vertex   -5.931072e+000 1.302375e+001 1.301027e+001
      vertex   -5.931072e+000 1.302375e+001 1.233973e+001
      vertex   -5.961464e+000 1.302256e+001 1.290072e+001
    endloop
  endfacet
  facet normal -3.912806e-002 9.992342e-001 0.000000e+000
    outer loop
      vertex   -5.961464e+000 1.302256e+001 1.290072e+001
      vertex   -5.961464e+000 1.302256e+001 1.244928e+001
      vertex   -5.979843e+000 1.302184e+001 1.278852e+001
    endloop
  endfacet
endsolid
