solid ascii
  facet normal 9.985334e-001 -5.413891e-002 1.602834e-017
    outer loop
      vertex   1.043845e+000 -1.135250e-001 3.000000e+000
      vertex   1.043845e+000 -1.135250e-001 1.500000e+000
      vertex   1.050000e+000 1.285879e-016 3.000000e+000
    endloop
  endfacet
  facet normal 9.868265e-001 -1.617820e-001 4.577441e-017
    outer loop
      vertex   1.043845e+000 -1.135250e-001 3.000000e+000
      vertex   1.025452e+000 -2.257190e-001 1.500000e+000
      vertex   1.043845e+000 -1.135250e-001 1.500000e+000
    endloop
  endfacet
  facet normal 9.868265e-001 -1.617820e-001 0.000000e+000
    outer loop
      vertex   1.043845e+000 -1.135250e-001 3.000000e+000
      vertex   1.025452e+000 -2.257190e-001 3.000000e+000
      vertex   1.025452e+000 -2.257190e-001 1.500000e+000
    endloop
  endfacet
  facet normal 9.635500e-001 -2.675283e-001 0.000000e+000
    outer loop
      vertex   1.025452e+000 -2.257190e-001 1.500000e+000
      vertex   1.025452e+000 -2.257190e-001 3.000000e+000
      vertex   9.950358e-001 -3.352666e-001 1.500000e+000
    endloop
  endfacet
  facet normal 9.289767e-001 -3.701382e-001 0.000000e+000
    outer loop
      vertex   9.950358e-001 -3.352666e-001 0.000000e+000
      vertex   9.950358e-001 -3.352666e-001 1.500000e+000
      vertex   9.529542e-001 -4.408836e-001 0.000000e+000
    endloop
  endfacet
  facet normal 9.635500e-001 -2.675283e-001 0.000000e+000
    outer loop
      vertex   9.950358e-001 -3.352666e-001 0.000000e+000
      vertex   1.025452e+000 -2.257190e-001 1.500000e+000
      vertex   9.950358e-001 -3.352666e-001 1.500000e+000
    endloop
  endfacet
  facet normal 9.635500e-001 -2.675283e-001 0.000000e+000
    outer loop
      vertex   9.950358e-001 -3.352666e-001 0.000000e+000
      vertex   1.025452e+000 -2.257190e-001 0.000000e+000
      vertex   1.025452e+000 -2.257190e-001 1.500000e+000
    endloop
  endfacet
  facet normal 9.868265e-001 -1.617820e-001 0.000000e+000
    outer loop
      vertex   1.025452e+000 -2.257190e-001 1.500000e+000
      vertex   1.025452e+000 -2.257190e-001 0.000000e+000
      vertex   1.043845e+000 -1.135250e-001 1.500000e+000
    endloop
  endfacet
  facet normal 9.868265e-001 -1.617820e-001 0.000000e+000
    outer loop
      vertex   1.043845e+000 -1.135250e-001 1.500000e+000
      vertex   1.025452e+000 -2.257190e-001 0.000000e+000
      vertex   1.043845e+000 -1.135250e-001 0.000000e+000
    endloop
  endfacet
  facet normal 9.985334e-001 -5.413891e-002 0.000000e+000
    outer loop
      vertex   1.050000e+000 1.285879e-016 1.500000e+000
      vertex   1.043845e+000 -1.135250e-001 0.000000e+000
      vertex   1.050000e+000 1.285879e-016 0.000000e+000
    endloop
  endfacet
  facet normal 9.985334e-001 5.413891e-002 -1.652965e-017
    outer loop
      vertex   1.043845e+000 1.135250e-001 1.500000e+000
      vertex   1.050000e+000 1.285879e-016 0.000000e+000
      vertex   1.043845e+000 1.135250e-001 0.000000e+000
    endloop
  endfacet
  facet normal 9.868265e-001 1.617820e-001 0.000000e+000
    outer loop
      vertex   1.025452e+000 2.257190e-001 1.500000e+000
      vertex   1.043845e+000 1.135250e-001 0.000000e+000
      vertex   1.025452e+000 2.257190e-001 0.000000e+000
    endloop
  endfacet
  facet normal 9.635500e-001 2.675283e-001 2.543023e-018
    outer loop
      vertex   9.950358e-001 3.352666e-001 1.500000e+000
      vertex   1.025452e+000 2.257190e-001 0.000000e+000
      vertex   9.950358e-001 3.352666e-001 0.000000e+000
    endloop
  endfacet
  facet normal 9.289767e-001 3.701382e-001 -1.118930e-016
    outer loop
      vertex   9.529542e-001 4.408836e-001 1.500000e+000
      vertex   9.950358e-001 3.352666e-001 0.000000e+000
      vertex   9.529542e-001 4.408836e-001 0.000000e+000
    endloop
  endfacet
  facet normal 8.835120e-001 4.684084e-001 0.000000e+000
    outer loop
      vertex   8.997000e-001 5.413316e-001 1.500000e+000
      vertex   9.529542e-001 4.408836e-001 0.000000e+000
      vertex   8.997000e-001 5.413316e-001 0.000000e+000
    endloop
  endfacet
  facet normal 8.276890e-001 5.611871e-001 1.169790e-016
    outer loop
      vertex   8.358977e-001 6.354329e-001 1.500000e+000
      vertex   8.997000e-001 5.413316e-001 0.000000e+000
      vertex   8.358977e-001 6.354329e-001 0.000000e+000
    endloop
  endfacet
  facet normal 7.621621e-001 6.473863e-001 0.000000e+000
    outer loop
      vertex   7.622953e-001 7.220844e-001 1.500000e+000
      vertex   8.358977e-001 6.354329e-001 0.000000e+000
      vertex   7.622953e-001 7.220844e-001 0.000000e+000
    endloop
  endfacet
  facet normal 6.876995e-001 7.259955e-001 -5.086045e-018
    outer loop
      vertex   6.797556e-001 8.002702e-001 1.500000e+000
      vertex   7.622953e-001 7.220844e-001 0.000000e+000
      vertex   6.797556e-001 8.002702e-001 0.000000e+000
    endloop
  endfacet
  facet normal 6.051742e-001 7.960931e-001 0.000000e+000
    outer loop
      vertex   5.892464e-001 8.690734e-001 1.500000e+000
      vertex   6.797556e-001 8.002702e-001 0.000000e+000
      vertex   5.892464e-001 8.690734e-001 0.000000e+000
    endloop
  endfacet
  facet normal 5.155539e-001 8.568572e-001 2.543023e-017
    outer loop
      vertex   4.918289e-001 9.276876e-001 1.500000e+000
      vertex   5.892464e-001 8.690734e-001 0.000000e+000
      vertex   4.918289e-001 9.276876e-001 0.000000e+000
    endloop
  endfacet
  facet normal 4.198891e-001 9.075754e-001 7.629068e-017
    outer loop
      vertex   3.886451e-001 9.754256e-001 1.500000e+000
      vertex   4.918289e-001 9.276876e-001 0.000000e+000
      vertex   3.886451e-001 9.754256e-001 0.000000e+000
    endloop
  endfacet
  facet normal 3.193015e-001 9.476532e-001 4.577441e-017
    outer loop
      vertex   2.809048e-001 1.011727e+000 1.500000e+000
      vertex   3.886451e-001 9.754256e-001 0.000000e+000
      vertex   2.809048e-001 1.011727e+000 0.000000e+000
    endloop
  endfacet
  facet normal 2.149704e-001 9.766206e-001 -3.051627e-017
    outer loop
      vertex   1.698711e-001 1.036168e+000 1.500000e+000
      vertex   2.809048e-001 1.011727e+000 0.000000e+000
      vertex   1.698711e-001 1.036168e+000 0.000000e+000
    endloop
  endfacet
  facet normal 1.081190e-001 9.941380e-001 1.652965e-017
    outer loop
      vertex   5.684585e-002 1.048460e+000 1.500000e+000
      vertex   1.698711e-001 1.036168e+000 0.000000e+000
      vertex   5.684585e-002 1.048460e+000 0.000000e+000
    endloop
  endfacet
  facet normal 0.000000e+000 1.000000e+000 0.000000e+000
    outer loop
      vertex   -5.684585e-002 1.048460e+000 1.500000e+000
      vertex   5.684585e-002 1.048460e+000 0.000000e+000
      vertex   -5.684585e-002 1.048460e+000 0.000000e+000
    endloop
  endfacet
  facet normal -1.081190e-001 9.941380e-001 -1.780116e-017
    outer loop
      vertex   -1.698711e-001 1.036168e+000 1.500000e+000
      vertex   -5.684585e-002 1.048460e+000 0.000000e+000
      vertex   -1.698711e-001 1.036168e+000 0.000000e+000
    endloop
  endfacet
  facet normal -2.149704e-001 9.766206e-001 7.883370e-017
    outer loop
      vertex   -2.809048e-001 1.011727e+000 1.500000e+000
      vertex   -1.698711e-001 1.036168e+000 0.000000e+000
      vertex   -2.809048e-001 1.011727e+000 0.000000e+000
    endloop
  endfacet
  facet normal -3.193015e-001 9.476532e-001 0.000000e+000
    outer loop
      vertex   -3.886451e-001 9.754256e-001 1.500000e+000
      vertex   -2.809048e-001 1.011727e+000 0.000000e+000
      vertex   -3.886451e-001 9.754256e-001 0.000000e+000
    endloop
  endfacet
  facet normal -4.198891e-001 9.075754e-001 2.543023e-017
    outer loop
      vertex   -4.918289e-001 9.276876e-001 1.500000e+000
      vertex   -3.886451e-001 9.754256e-001 0.000000e+000
      vertex   -4.918289e-001 9.276876e-001 0.000000e+000
    endloop
  endfacet
  facet normal -5.155539e-001 8.568572e-001 4.068836e-017
    outer loop
      vertex   -5.892464e-001 8.690734e-001 1.500000e+000
      vertex   -4.918289e-001 9.276876e-001 0.000000e+000
      vertex   -5.892464e-001 8.690734e-001 0.000000e+000
    endloop
  endfacet
  facet normal -6.051742e-001 7.960931e-001 0.000000e+000
    outer loop
      vertex   -6.797556e-001 8.002702e-001 1.500000e+000
      vertex   -5.892464e-001 8.690734e-001 0.000000e+000
      vertex   -6.797556e-001 8.002702e-001 0.000000e+000
    endloop
  endfacet
  facet normal -6.876995e-001 7.259955e-001 1.118930e-016
    outer loop
      vertex   -7.622953e-001 7.220844e-001 1.500000e+000
      vertex   -6.797556e-001 8.002702e-001 0.000000e+000
      vertex   -7.622953e-001 7.220844e-001 0.000000e+000
    endloop
  endfacet
  facet normal -7.621621e-001 6.473863e-001 -1.525814e-017
    outer loop
      vertex   -8.358977e-001 6.354329e-001 1.500000e+000
      vertex   -7.622953e-001 7.220844e-001 0.000000e+000
      vertex   -8.358977e-001 6.354329e-001 0.000000e+000
    endloop
  endfacet
  facet normal -8.276890e-001 5.611871e-001 2.034418e-017
    outer loop
      vertex   -8.997000e-001 5.413316e-001 1.500000e+000
      vertex   -8.358977e-001 6.354329e-001 0.000000e+000
      vertex   -8.997000e-001 5.413316e-001 0.000000e+000
    endloop
  endfacet
  facet normal -8.835120e-001 4.684084e-001 -7.629068e-017
    outer loop
      vertex   -9.529542e-001 4.408836e-001 1.500000e+000
      vertex   -8.997000e-001 5.413316e-001 0.000000e+000
      vertex   -9.529542e-001 4.408836e-001 0.000000e+000
    endloop
  endfacet
  facet normal -9.289767e-001 3.701382e-001 4.068836e-017
    outer loop
      vertex   -9.950358e-001 3.352666e-001 1.500000e+000
      vertex   -9.529542e-001 4.408836e-001 0.000000e+000
      vertex   -9.950358e-001 3.352666e-001 0.000000e+000
    endloop
  endfacet
  facet normal -9.635500e-001 2.675283e-001 1.017209e-017
    outer loop
      vertex   -1.025452e+000 2.257190e-001 1.500000e+000
      vertex   -9.950358e-001 3.352666e-001 0.000000e+000
      vertex   -1.025452e+000 2.257190e-001 0.000000e+000
    endloop
  endfacet
  facet normal -9.868265e-001 1.617820e-001 2.543023e-018
    outer loop
      vertex   -1.043845e+000 1.135250e-001 1.500000e+000
      vertex   -1.025452e+000 2.257190e-001 0.000000e+000
      vertex   -1.043845e+000 1.135250e-001 0.000000e+000
    endloop
  endfacet
  facet normal -9.985334e-001 5.413891e-002 0.000000e+000
    outer loop
      vertex   -1.050000e+000 -5.884854e-018 1.500000e+000
      vertex   -1.043845e+000 1.135250e-001 0.000000e+000
      vertex   -1.050000e+000 0.000000e+000 0.000000e+000
    endloop
  endfacet
  facet normal -9.985334e-001 -5.413891e-002 6.357556e-019
    outer loop
      vertex   -1.043845e+000 -1.135250e-001 1.500000e+000
      vertex   -1.050000e+000 0.000000e+000 0.000000e+000
      vertex   -1.043845e+000 -1.135250e-001 0.000000e+000
    endloop
  endfacet
  facet normal -9.868265e-001 -1.617820e-001 5.086045e-018
    outer loop
      vertex   -1.025452e+000 -2.257190e-001 1.500000e+000
      vertex   -1.043845e+000 -1.135250e-001 0.000000e+000
      vertex   -1.025452e+000 -2.257190e-001 0.000000e+000
    endloop
  endfacet
  facet normal -9.635500e-001 -2.675283e-001 -6.103254e-017
    outer loop
      vertex   -9.950358e-001 -3.352666e-001 1.500000e+000
      vertex   -1.025452e+000 -2.257190e-001 0.000000e+000
      vertex   -9.950358e-001 -3.352666e-001 0.000000e+000
    endloop
  endfacet
  facet normal -9.289767e-001 -3.701382e-001 -5.086045e-017
    outer loop
      vertex   -9.529542e-001 -4.408836e-001 1.500000e+000
      vertex   -9.950358e-001 -3.352666e-001 0.000000e+000
      vertex   -9.529542e-001 -4.408836e-001 0.000000e+000
    endloop
  endfacet
  facet normal -8.835120e-001 -4.684084e-001 -7.120463e-017
    outer loop
      vertex   -8.997000e-001 -5.413316e-001 1.500000e+000
      vertex   -9.529542e-001 -4.408836e-001 0.000000e+000
      vertex   -8.997000e-001 -5.413316e-001 0.000000e+000
    endloop
  endfacet
  facet normal -8.276890e-001 -5.611871e-001 -2.034418e-017
    outer loop
      vertex   -8.358977e-001 -6.354329e-001 1.500000e+000
      vertex   -8.997000e-001 -5.413316e-001 0.000000e+000
      vertex   -8.358977e-001 -6.354329e-001 0.000000e+000
    endloop
  endfacet
  facet normal -7.621621e-001 -6.473863e-001 5.594650e-017
    outer loop
      vertex   -7.622953e-001 -7.220844e-001 1.500000e+000
      vertex   -8.358977e-001 -6.354329e-001 0.000000e+000
      vertex   -7.622953e-001 -7.220844e-001 0.000000e+000
    endloop
  endfacet
  facet normal -6.876995e-001 -7.259955e-001 -5.594650e-017
    outer loop
      vertex   -6.797556e-001 -8.002702e-001 1.500000e+000
      vertex   -7.622953e-001 -7.220844e-001 0.000000e+000
      vertex   -6.797556e-001 -8.002702e-001 0.000000e+000
    endloop
  endfacet
  facet normal -6.051742e-001 -7.960931e-001 4.068836e-017
    outer loop
      vertex   -5.892464e-001 -8.690734e-001 1.500000e+000
      vertex   -6.797556e-001 -8.002702e-001 0.000000e+000
      vertex   -5.892464e-001 -8.690734e-001 0.000000e+000
    endloop
  endfacet
  facet normal -5.155539e-001 -8.568572e-001 0.000000e+000
    outer loop
      vertex   -4.918289e-001 -9.276876e-001 1.500000e+000
      vertex   -5.892464e-001 -8.690734e-001 0.000000e+000
      vertex   -4.918289e-001 -9.276876e-001 0.000000e+000
    endloop
  endfacet
  facet normal -4.198891e-001 -9.075754e-001 2.543023e-017
    outer loop
      vertex   -3.886451e-001 -9.754256e-001 1.500000e+000
      vertex   -4.918289e-001 -9.276876e-001 0.000000e+000
      vertex   -3.886451e-001 -9.754256e-001 0.000000e+000
    endloop
  endfacet
  facet normal -3.193015e-001 -9.476532e-001 5.086045e-017
    outer loop
      vertex   -2.809048e-001 -1.011727e+000 1.500000e+000
      vertex   -3.886451e-001 -9.754256e-001 0.000000e+000
      vertex   -2.809048e-001 -1.011727e+000 0.000000e+000
    endloop
  endfacet
  facet normal -2.149704e-001 -9.766206e-001 0.000000e+000
    outer loop
      vertex   -1.698711e-001 -1.036168e+000 1.500000e+000
      vertex   -2.809048e-001 -1.011727e+000 0.000000e+000
      vertex   -1.698711e-001 -1.036168e+000 0.000000e+000
    endloop
  endfacet
  facet normal -1.081190e-001 -9.941380e-001 0.000000e+000
    outer loop
      vertex   -5.684585e-002 -1.048460e+000 1.500000e+000
      vertex   -1.698711e-001 -1.036168e+000 0.000000e+000
      vertex   -5.684585e-002 -1.048460e+000 0.000000e+000
    endloop
  endfacet
  facet normal 0.000000e+000 -1.000000e+000 -0.000000e+000
    outer loop
      vertex   5.684585e-002 -1.048460e+000 1.500000e+000
      vertex   -5.684585e-002 -1.048460e+000 0.000000e+000
      vertex   5.684585e-002 -1.048460e+000 0.000000e+000
    endloop
  endfacet
  facet normal 1.081190e-001 -9.941380e-001 -1.652965e-017
    outer loop
      vertex   1.698711e-001 -1.036168e+000 1.500000e+000
      vertex   5.684585e-002 -1.048460e+000 0.000000e+000
      vertex   1.698711e-001 -1.036168e+000 0.000000e+000
    endloop
  endfacet
  facet normal 2.149704e-001 -9.766206e-001 -3.305929e-017
    outer loop
      vertex   2.809048e-001 -1.011727e+000 1.500000e+000
      vertex   1.698711e-001 -1.036168e+000 0.000000e+000
      vertex   2.809048e-001 -1.011727e+000 0.000000e+000
    endloop
  endfacet
  facet normal 3.193015e-001 -9.476532e-001 9.154881e-017
    outer loop
      vertex   3.886451e-001 -9.754256e-001 1.500000e+000
      vertex   2.809048e-001 -1.011727e+000 0.000000e+000
      vertex   3.886451e-001 -9.754256e-001 0.000000e+000
    endloop
  endfacet
  facet normal 4.198891e-001 -9.075754e-001 0.000000e+000
    outer loop
      vertex   4.918289e-001 -9.276876e-001 1.500000e+000
      vertex   3.886451e-001 -9.754256e-001 0.000000e+000
      vertex   4.918289e-001 -9.276876e-001 0.000000e+000
    endloop
  endfacet
  facet normal 5.155539e-001 -8.568572e-001 0.000000e+000
    outer loop
      vertex   5.892464e-001 -8.690734e-001 1.500000e+000
      vertex   4.918289e-001 -9.276876e-001 0.000000e+000
      vertex   5.892464e-001 -8.690734e-001 0.000000e+000
    endloop
  endfacet
  facet normal 6.051742e-001 -7.960931e-001 0.000000e+000
    outer loop
      vertex   6.797556e-001 -8.002702e-001 1.500000e+000
      vertex   5.892464e-001 -8.690734e-001 0.000000e+000
      vertex   6.797556e-001 -8.002702e-001 0.000000e+000
    endloop
  endfacet
  facet normal 6.876995e-001 -7.259955e-001 0.000000e+000
    outer loop
      vertex   7.622953e-001 -7.220844e-001 1.500000e+000
      vertex   6.797556e-001 -8.002702e-001 0.000000e+000
      vertex   7.622953e-001 -7.220844e-001 0.000000e+000
    endloop
  endfacet
  facet normal 7.621621e-001 -6.473863e-001 7.629068e-017
    outer loop
      vertex   8.358977e-001 -6.354329e-001 1.500000e+000
      vertex   7.622953e-001 -7.220844e-001 0.000000e+000
      vertex   8.358977e-001 -6.354329e-001 0.000000e+000
    endloop
  endfacet
  facet normal 8.276890e-001 -5.611871e-001 0.000000e+000
    outer loop
      vertex   8.997000e-001 -5.413316e-001 1.500000e+000
      vertex   8.358977e-001 -6.354329e-001 0.000000e+000
      vertex   8.997000e-001 -5.413316e-001 0.000000e+000
    endloop
  endfacet
  facet normal 8.835120e-001 -4.684084e-001 -7.629068e-017
    outer loop
      vertex   9.529542e-001 -4.408836e-001 1.500000e+000
      vertex   8.997000e-001 -5.413316e-001 0.000000e+000
      vertex   9.529542e-001 -4.408836e-001 0.000000e+000
    endloop
  endfacet
  facet normal 9.289767e-001 -3.701382e-001 -1.103892e-016
    outer loop
      vertex   9.950358e-001 -3.352666e-001 1.500000e+000
      vertex   9.529542e-001 -4.408836e-001 1.500000e+000
      vertex   9.529542e-001 -4.408836e-001 0.000000e+000
    endloop
  endfacet
  facet normal 9.289767e-001 -3.701382e-001 2.712695e-017
    outer loop
      vertex   9.950358e-001 -3.352666e-001 1.500000e+000
      vertex   9.950358e-001 -3.352666e-001 3.000000e+000
      vertex   9.529542e-001 -4.408836e-001 1.500000e+000
    endloop
  endfacet
  facet normal 9.635500e-001 -2.675283e-001 -2.543023e-018
    outer loop
      vertex   9.950358e-001 -3.352666e-001 1.500000e+000
      vertex   1.025452e+000 -2.257190e-001 3.000000e+000
      vertex   9.950358e-001 -3.352666e-001 3.000000e+000
    endloop
  endfacet
  facet normal 9.289767e-001 -3.701382e-001 1.103892e-016
    outer loop
      vertex   9.950358e-001 -3.352666e-001 3.000000e+000
      vertex   9.529542e-001 -4.408836e-001 3.000000e+000
      vertex   9.529542e-001 -4.408836e-001 1.500000e+000
    endloop
  endfacet
  facet normal 8.835120e-001 -4.684084e-001 7.483692e-017
    outer loop
      vertex   9.529542e-001 -4.408836e-001 1.500000e+000
      vertex   9.529542e-001 -4.408836e-001 3.000000e+000
      vertex   8.997000e-001 -5.413316e-001 1.500000e+000
    endloop
  endfacet
  facet normal 8.835120e-001 -4.684084e-001 0.000000e+000
    outer loop
      vertex   8.997000e-001 -5.413316e-001 0.000000e+000
      vertex   9.529542e-001 -4.408836e-001 1.500000e+000
      vertex   8.997000e-001 -5.413316e-001 1.500000e+000
    endloop
  endfacet
  facet normal 8.835120e-001 -4.684084e-001 0.000000e+000
    outer loop
      vertex   9.529542e-001 -4.408836e-001 3.000000e+000
      vertex   8.997000e-001 -5.413316e-001 3.000000e+000
      vertex   8.997000e-001 -5.413316e-001 1.500000e+000
    endloop
  endfacet
  facet normal 8.276890e-001 -5.611871e-001 0.000000e+000
    outer loop
      vertex   8.997000e-001 -5.413316e-001 1.500000e+000
      vertex   8.997000e-001 -5.413316e-001 3.000000e+000
      vertex   8.358977e-001 -6.354329e-001 1.500000e+000
    endloop
  endfacet
  facet normal 8.276890e-001 -5.611871e-001 4.068836e-017
    outer loop
      vertex   8.358977e-001 -6.354329e-001 0.000000e+000
      vertex   8.997000e-001 -5.413316e-001 1.500000e+000
      vertex   8.358977e-001 -6.354329e-001 1.500000e+000
    endloop
  endfacet
  facet normal 8.276890e-001 -5.611871e-001 -1.204366e-016
    outer loop
      vertex   8.997000e-001 -5.413316e-001 3.000000e+000
      vertex   8.358977e-001 -6.354329e-001 3.000000e+000
      vertex   8.358977e-001 -6.354329e-001 1.500000e+000
    endloop
  endfacet
  facet normal 7.621621e-001 -6.473863e-001 -8.189666e-017
    outer loop
      vertex   8.358977e-001 -6.354329e-001 1.500000e+000
      vertex   8.358977e-001 -6.354329e-001 3.000000e+000
      vertex   7.622953e-001 -7.220844e-001 1.500000e+000
    endloop
  endfacet
  facet normal 7.621621e-001 -6.473863e-001 0.000000e+000
    outer loop
      vertex   7.622953e-001 -7.220844e-001 0.000000e+000
      vertex   8.358977e-001 -6.354329e-001 1.500000e+000
      vertex   7.622953e-001 -7.220844e-001 1.500000e+000
    endloop
  endfacet
  facet normal 7.621621e-001 -6.473863e-001 0.000000e+000
    outer loop
      vertex   8.358977e-001 -6.354329e-001 3.000000e+000
      vertex   7.622953e-001 -7.220844e-001 3.000000e+000
      vertex   7.622953e-001 -7.220844e-001 1.500000e+000
    endloop
  endfacet
  facet normal 6.876995e-001 -7.259955e-001 0.000000e+000
    outer loop
      vertex   7.622953e-001 -7.220844e-001 1.500000e+000
      vertex   7.622953e-001 -7.220844e-001 3.000000e+000
      vertex   6.797556e-001 -8.002702e-001 1.500000e+000
    endloop
  endfacet
  facet normal 6.876995e-001 -7.259955e-001 0.000000e+000
    outer loop
      vertex   6.797556e-001 -8.002702e-001 0.000000e+000
      vertex   7.622953e-001 -7.220844e-001 1.500000e+000
      vertex   6.797556e-001 -8.002702e-001 1.500000e+000
    endloop
  endfacet
  facet normal 6.876995e-001 -7.259955e-001 5.668952e-018
    outer loop
      vertex   7.622953e-001 -7.220844e-001 3.000000e+000
      vertex   6.797556e-001 -8.002702e-001 3.000000e+000
      vertex   6.797556e-001 -8.002702e-001 1.500000e+000
    endloop
  endfacet
  facet normal 6.051742e-001 -7.960931e-001 2.826167e-017
    outer loop
      vertex   6.797556e-001 -8.002702e-001 1.500000e+000
      vertex   6.797556e-001 -8.002702e-001 3.000000e+000
      vertex   5.892464e-001 -8.690734e-001 1.500000e+000
    endloop
  endfacet
  facet normal 6.051742e-001 -7.960931e-001 0.000000e+000
    outer loop
      vertex   5.892464e-001 -8.690734e-001 0.000000e+000
      vertex   6.797556e-001 -8.002702e-001 1.500000e+000
      vertex   5.892464e-001 -8.690734e-001 1.500000e+000
    endloop
  endfacet
  facet normal 6.051742e-001 -7.960931e-001 0.000000e+000
    outer loop
      vertex   6.797556e-001 -8.002702e-001 3.000000e+000
      vertex   5.892464e-001 -8.690734e-001 3.000000e+000
      vertex   5.892464e-001 -8.690734e-001 1.500000e+000
    endloop
  endfacet
  facet normal 5.155539e-001 -8.568572e-001 0.000000e+000
    outer loop
      vertex   5.892464e-001 -8.690734e-001 1.500000e+000
      vertex   5.892464e-001 -8.690734e-001 3.000000e+000
      vertex   4.918289e-001 -9.276876e-001 1.500000e+000
    endloop
  endfacet
  facet normal 5.155539e-001 -8.568572e-001 0.000000e+000
    outer loop
      vertex   4.918289e-001 -9.276876e-001 0.000000e+000
      vertex   5.892464e-001 -8.690734e-001 1.500000e+000
      vertex   4.918289e-001 -9.276876e-001 1.500000e+000
    endloop
  endfacet
  facet normal 5.155539e-001 -8.568572e-001 -2.579426e-017
    outer loop
      vertex   5.892464e-001 -8.690734e-001 3.000000e+000
      vertex   4.918289e-001 -9.276876e-001 3.000000e+000
      vertex   4.918289e-001 -9.276876e-001 1.500000e+000
    endloop
  endfacet
  facet normal 4.198891e-001 -9.075754e-001 1.003600e-017
    outer loop
      vertex   4.918289e-001 -9.276876e-001 1.500000e+000
      vertex   4.918289e-001 -9.276876e-001 3.000000e+000
      vertex   3.886451e-001 -9.754256e-001 1.500000e+000
    endloop
  endfacet
  facet normal 4.198891e-001 -9.075754e-001 7.120463e-017
    outer loop
      vertex   3.886451e-001 -9.754256e-001 0.000000e+000
      vertex   4.918289e-001 -9.276876e-001 1.500000e+000
      vertex   3.886451e-001 -9.754256e-001 1.500000e+000
    endloop
  endfacet
  facet normal 4.198891e-001 -9.075754e-001 -7.219208e-017
    outer loop
      vertex   4.918289e-001 -9.276876e-001 3.000000e+000
      vertex   3.886451e-001 -9.754256e-001 3.000000e+000
      vertex   3.886451e-001 -9.754256e-001 1.500000e+000
    endloop
  endfacet
  facet normal 3.193015e-001 -9.476532e-001 -9.301473e-017
    outer loop
      vertex   3.886451e-001 -9.754256e-001 1.500000e+000
      vertex   3.886451e-001 -9.754256e-001 3.000000e+000
      vertex   2.809048e-001 -1.011727e+000 1.500000e+000
    endloop
  endfacet
  facet normal 3.193015e-001 -9.476532e-001 -4.577441e-017
    outer loop
      vertex   2.809048e-001 -1.011727e+000 0.000000e+000
      vertex   3.886451e-001 -9.754256e-001 1.500000e+000
      vertex   2.809048e-001 -1.011727e+000 1.500000e+000
    endloop
  endfacet
  facet normal 3.193015e-001 -9.476532e-001 -4.726612e-017
    outer loop
      vertex   3.886451e-001 -9.754256e-001 3.000000e+000
      vertex   2.809048e-001 -1.011727e+000 3.000000e+000
      vertex   2.809048e-001 -1.011727e+000 1.500000e+000
    endloop
  endfacet
  facet normal 2.149704e-001 -9.766206e-001 -3.182202e-017
    outer loop
      vertex   2.809048e-001 -1.011727e+000 1.500000e+000
      vertex   2.809048e-001 -1.011727e+000 3.000000e+000
      vertex   1.698711e-001 -1.036168e+000 1.500000e+000
    endloop
  endfacet
  facet normal 2.149704e-001 -9.766206e-001 -3.305929e-017
    outer loop
      vertex   1.698711e-001 -1.036168e+000 0.000000e+000
      vertex   2.809048e-001 -1.011727e+000 1.500000e+000
      vertex   1.698711e-001 -1.036168e+000 1.500000e+000
    endloop
  endfacet
  facet normal 2.149704e-001 -9.766206e-001 3.182202e-017
    outer loop
      vertex   2.809048e-001 -1.011727e+000 3.000000e+000
      vertex   1.698711e-001 -1.036168e+000 3.000000e+000
      vertex   1.698711e-001 -1.036168e+000 1.500000e+000
    endloop
  endfacet
  facet normal 1.081190e-001 -9.941380e-001 1.600483e-017
    outer loop
      vertex   1.698711e-001 -1.036168e+000 1.500000e+000
      vertex   1.698711e-001 -1.036168e+000 3.000000e+000
      vertex   5.684585e-002 -1.048460e+000 1.500000e+000
    endloop
  endfacet
  facet normal 1.081190e-001 -9.941380e-001 0.000000e+000
    outer loop
      vertex   5.684585e-002 -1.048460e+000 0.000000e+000
      vertex   1.698711e-001 -1.036168e+000 1.500000e+000
      vertex   5.684585e-002 -1.048460e+000 1.500000e+000
    endloop
  endfacet
  facet normal 1.081190e-001 -9.941380e-001 -1.700513e-017
    outer loop
      vertex   1.698711e-001 -1.036168e+000 3.000000e+000
      vertex   5.684585e-002 -1.048460e+000 3.000000e+000
      vertex   5.684585e-002 -1.048460e+000 1.500000e+000
    endloop
  endfacet
  facet normal -0.000000e+000 -1.000000e+000 0.000000e+000
    outer loop
      vertex   5.684585e-002 -1.048460e+000 1.500000e+000
      vertex   5.684585e-002 -1.048460e+000 3.000000e+000
      vertex   -5.684585e-002 -1.048460e+000 1.500000e+000
    endloop
  endfacet
  facet normal 0.000000e+000 -1.000000e+000 0.000000e+000
    outer loop
      vertex   -5.684585e-002 -1.048460e+000 0.000000e+000
      vertex   5.684585e-002 -1.048460e+000 1.500000e+000
      vertex   -5.684585e-002 -1.048460e+000 1.500000e+000
    endloop
  endfacet
  facet normal -0.000000e+000 -1.000000e+000 -0.000000e+000
    outer loop
      vertex   5.684585e-002 -1.048460e+000 3.000000e+000
      vertex   -5.684585e-002 -1.048460e+000 3.000000e+000
      vertex   -5.684585e-002 -1.048460e+000 1.500000e+000
    endloop
  endfacet
  facet normal -1.081190e-001 -9.941380e-001 -1.650498e-017
    outer loop
      vertex   -5.684585e-002 -1.048460e+000 1.500000e+000
      vertex   -5.684585e-002 -1.048460e+000 3.000000e+000
      vertex   -1.698711e-001 -1.036168e+000 1.500000e+000
    endloop
  endfacet
  facet normal -1.081190e-001 -9.941380e-001 0.000000e+000
    outer loop
      vertex   -1.698711e-001 -1.036168e+000 0.000000e+000
      vertex   -5.684585e-002 -1.048460e+000 1.500000e+000
      vertex   -1.698711e-001 -1.036168e+000 1.500000e+000
    endloop
  endfacet
  facet normal -1.081190e-001 -9.941380e-001 1.800543e-017
    outer loop
      vertex   -5.684585e-002 -1.048460e+000 3.000000e+000
      vertex   -1.698711e-001 -1.036168e+000 3.000000e+000
      vertex   -1.698711e-001 -1.036168e+000 1.500000e+000
    endloop
  endfacet
  facet normal -2.149704e-001 -9.766206e-001 3.579977e-017
    outer loop
      vertex   -1.698711e-001 -1.036168e+000 1.500000e+000
      vertex   -1.698711e-001 -1.036168e+000 3.000000e+000
      vertex   -2.809048e-001 -1.011727e+000 1.500000e+000
    endloop
  endfacet
  facet normal -2.149704e-001 -9.766206e-001 3.305929e-017
    outer loop
      vertex   -2.809048e-001 -1.011727e+000 0.000000e+000
      vertex   -1.698711e-001 -1.036168e+000 1.500000e+000
      vertex   -2.809048e-001 -1.011727e+000 1.500000e+000
    endloop
  endfacet
  facet normal -2.149704e-001 -9.766206e-001 -8.092485e-017
    outer loop
      vertex   -1.698711e-001 -1.036168e+000 3.000000e+000
      vertex   -2.809048e-001 -1.011727e+000 3.000000e+000
      vertex   -2.809048e-001 -1.011727e+000 1.500000e+000
    endloop
  endfacet
  facet normal -3.193015e-001 -9.476532e-001 -4.574861e-017
    outer loop
      vertex   -2.809048e-001 -1.011727e+000 1.500000e+000
      vertex   -2.809048e-001 -1.011727e+000 3.000000e+000
      vertex   -3.886451e-001 -9.754256e-001 1.500000e+000
    endloop
  endfacet
  facet normal -3.193015e-001 -9.476532e-001 0.000000e+000
    outer loop
      vertex   -3.886451e-001 -9.754256e-001 0.000000e+000
      vertex   -2.809048e-001 -1.011727e+000 1.500000e+000
      vertex   -3.886451e-001 -9.754256e-001 1.500000e+000
    endloop
  endfacet
  facet normal -3.193015e-001 -9.476532e-001 -0.000000e+000
    outer loop
      vertex   -2.809048e-001 -1.011727e+000 3.000000e+000
      vertex   -3.886451e-001 -9.754256e-001 3.000000e+000
      vertex   -3.886451e-001 -9.754256e-001 1.500000e+000
    endloop
  endfacet
  facet normal -4.198891e-001 -9.075754e-001 0.000000e+000
    outer loop
      vertex   -3.886451e-001 -9.754256e-001 1.500000e+000
      vertex   -3.886451e-001 -9.754256e-001 3.000000e+000
      vertex   -4.918289e-001 -9.276876e-001 1.500000e+000
    endloop
  endfacet
  facet normal -4.198891e-001 -9.075754e-001 0.000000e+000
    outer loop
      vertex   -4.918289e-001 -9.276876e-001 0.000000e+000
      vertex   -3.886451e-001 -9.754256e-001 1.500000e+000
      vertex   -4.918289e-001 -9.276876e-001 1.500000e+000
    endloop
  endfacet
  facet normal -4.198891e-001 -9.075754e-001 -2.557502e-017
    outer loop
      vertex   -3.886451e-001 -9.754256e-001 3.000000e+000
      vertex   -4.918289e-001 -9.276876e-001 3.000000e+000
      vertex   -4.918289e-001 -9.276876e-001 1.500000e+000
    endloop
  endfacet
  facet normal -5.155539e-001 -8.568572e-001 6.714936e-018
    outer loop
      vertex   -4.918289e-001 -9.276876e-001 1.500000e+000
      vertex   -4.918289e-001 -9.276876e-001 3.000000e+000
      vertex   -5.892464e-001 -8.690734e-001 1.500000e+000
    endloop
  endfacet
  facet normal -5.155539e-001 -8.568572e-001 3.560232e-017
    outer loop
      vertex   -5.892464e-001 -8.690734e-001 0.000000e+000
      vertex   -4.918289e-001 -9.276876e-001 1.500000e+000
      vertex   -5.892464e-001 -8.690734e-001 1.500000e+000
    endloop
  endfacet
  facet normal -5.155539e-001 -8.568572e-001 -3.815865e-017
    outer loop
      vertex   -4.918289e-001 -9.276876e-001 3.000000e+000
      vertex   -5.892464e-001 -8.690734e-001 3.000000e+000
      vertex   -5.892464e-001 -8.690734e-001 1.500000e+000
    endloop
  endfacet
  facet normal -6.051742e-001 -7.960931e-001 -4.479189e-017
    outer loop
      vertex   -5.892464e-001 -8.690734e-001 1.500000e+000
      vertex   -5.892464e-001 -8.690734e-001 3.000000e+000
      vertex   -6.797556e-001 -8.002702e-001 1.500000e+000
    endloop
  endfacet
  facet normal -6.051742e-001 -7.960931e-001 -5.594650e-017
    outer loop
      vertex   -6.797556e-001 -8.002702e-001 0.000000e+000
      vertex   -5.892464e-001 -8.690734e-001 1.500000e+000
      vertex   -6.797556e-001 -8.002702e-001 1.500000e+000
    endloop
  endfacet
  facet normal -6.051742e-001 -7.960931e-001 2.399389e-018
    outer loop
      vertex   -5.892464e-001 -8.690734e-001 3.000000e+000
      vertex   -6.797556e-001 -8.002702e-001 3.000000e+000
      vertex   -6.797556e-001 -8.002702e-001 1.500000e+000
    endloop
  endfacet
  facet normal -6.876995e-001 -7.259955e-001 4.239656e-017
    outer loop
      vertex   -6.797556e-001 -8.002702e-001 1.500000e+000
      vertex   -6.797556e-001 -8.002702e-001 3.000000e+000
      vertex   -7.622953e-001 -7.220844e-001 1.500000e+000
    endloop
  endfacet
  facet normal -6.876995e-001 -7.259955e-001 5.086045e-017
    outer loop
      vertex   -7.622953e-001 -7.220844e-001 0.000000e+000
      vertex   -6.797556e-001 -8.002702e-001 1.500000e+000
      vertex   -7.622953e-001 -7.220844e-001 1.500000e+000
    endloop
  endfacet
  facet normal -6.876995e-001 -7.259955e-001 -1.103034e-016
    outer loop
      vertex   -6.797556e-001 -8.002702e-001 3.000000e+000
      vertex   -7.622953e-001 -7.220844e-001 3.000000e+000
      vertex   -7.622953e-001 -7.220844e-001 1.500000e+000
    endloop
  endfacet
  facet normal -7.621621e-001 -6.473863e-001 -8.733731e-017
    outer loop
      vertex   -7.622953e-001 -7.220844e-001 1.500000e+000
      vertex   -7.622953e-001 -7.220844e-001 3.000000e+000
      vertex   -8.358977e-001 -6.354329e-001 1.500000e+000
    endloop
  endfacet
  facet normal -7.621621e-001 -6.473863e-001 -3.560232e-017
    outer loop
      vertex   -8.358977e-001 -6.354329e-001 0.000000e+000
      vertex   -7.622953e-001 -7.220844e-001 1.500000e+000
      vertex   -8.358977e-001 -6.354329e-001 1.500000e+000
    endloop
  endfacet
  facet normal -7.621621e-001 -6.473863e-001 1.699023e-017
    outer loop
      vertex   -7.622953e-001 -7.220844e-001 3.000000e+000
      vertex   -8.358977e-001 -6.354329e-001 3.000000e+000
      vertex   -8.358977e-001 -6.354329e-001 1.500000e+000
    endloop
  endfacet
  facet normal -8.276890e-001 -5.611871e-001 3.945021e-017
    outer loop
      vertex   -8.358977e-001 -6.354329e-001 1.500000e+000
      vertex   -8.358977e-001 -6.354329e-001 3.000000e+000
      vertex   -8.997000e-001 -5.413316e-001 1.500000e+000
    endloop
  endfacet
  facet normal -8.276890e-001 -5.611871e-001 -8.137672e-017
    outer loop
      vertex   -8.997000e-001 -5.413316e-001 0.000000e+000
      vertex   -8.358977e-001 -6.354329e-001 1.500000e+000
      vertex   -8.997000e-001 -5.413316e-001 1.500000e+000
    endloop
  endfacet
  facet normal -8.276890e-001 -5.611871e-001 -2.181108e-017
    outer loop
      vertex   -8.358977e-001 -6.354329e-001 3.000000e+000
      vertex   -8.997000e-001 -5.413316e-001 3.000000e+000
      vertex   -8.997000e-001 -5.413316e-001 1.500000e+000
    endloop
  endfacet
  facet normal -8.835120e-001 -4.684084e-001 -3.945350e-018
    outer loop
      vertex   -8.997000e-001 -5.413316e-001 1.500000e+000
      vertex   -8.997000e-001 -5.413316e-001 3.000000e+000
      vertex   -9.529542e-001 -4.408836e-001 1.500000e+000
    endloop
  endfacet
  facet normal -8.835120e-001 -4.684084e-001 -7.120463e-017
    outer loop
      vertex   -9.529542e-001 -4.408836e-001 0.000000e+000
      vertex   -8.997000e-001 -5.413316e-001 1.500000e+000
      vertex   -9.529542e-001 -4.408836e-001 1.500000e+000
    endloop
  endfacet
  facet normal -8.835120e-001 -4.684084e-001 7.878227e-017
    outer loop
      vertex   -8.997000e-001 -5.413316e-001 3.000000e+000
      vertex   -9.529542e-001 -4.408836e-001 3.000000e+000
      vertex   -9.529542e-001 -4.408836e-001 1.500000e+000
    endloop
  endfacet
  facet normal -9.289767e-001 -3.701382e-001 9.642259e-017
    outer loop
      vertex   -9.529542e-001 -4.408836e-001 1.500000e+000
      vertex   -9.529542e-001 -4.408836e-001 3.000000e+000
      vertex   -9.950358e-001 -3.352666e-001 1.500000e+000
    endloop
  endfacet
  facet normal -9.289767e-001 -3.701382e-001 -8.137672e-017
    outer loop
      vertex   -9.950358e-001 -3.352666e-001 0.000000e+000
      vertex   -9.529542e-001 -4.408836e-001 1.500000e+000
      vertex   -9.950358e-001 -3.352666e-001 1.500000e+000
    endloop
  endfacet
  facet normal -9.289767e-001 -3.701382e-001 -4.109359e-017
    outer loop
      vertex   -9.529542e-001 -4.408836e-001 3.000000e+000
      vertex   -9.950358e-001 -3.352666e-001 3.000000e+000
      vertex   -9.950358e-001 -3.352666e-001 1.500000e+000
    endloop
  endfacet
  facet normal -9.635500e-001 -2.675283e-001 -2.970161e-017
    outer loop
      vertex   -9.950358e-001 -3.352666e-001 1.500000e+000
      vertex   -9.950358e-001 -3.352666e-001 3.000000e+000
      vertex   -1.025452e+000 -2.257190e-001 1.500000e+000
    endloop
  endfacet
  facet normal -9.635500e-001 -2.675283e-001 7.629068e-018
    outer loop
      vertex   -1.025452e+000 -2.257190e-001 0.000000e+000
      vertex   -9.950358e-001 -3.352666e-001 1.500000e+000
      vertex   -1.025452e+000 -2.257190e-001 1.500000e+000
    endloop
  endfacet
  facet normal -9.635500e-001 -2.675283e-001 -9.900537e-018
    outer loop
      vertex   -9.950358e-001 -3.352666e-001 3.000000e+000
      vertex   -1.025452e+000 -2.257190e-001 3.000000e+000
      vertex   -1.025452e+000 -2.257190e-001 1.500000e+000
    endloop
  endfacet
  facet normal -9.868265e-001 -1.617820e-001 -5.987137e-018
    outer loop
      vertex   -1.025452e+000 -2.257190e-001 1.500000e+000
      vertex   -1.025452e+000 -2.257190e-001 3.000000e+000
      vertex   -1.043845e+000 -1.135250e-001 1.500000e+000
    endloop
  endfacet
  facet normal -9.868265e-001 -1.617820e-001 2.543023e-018
    outer loop
      vertex   -1.043845e+000 -1.135250e-001 0.000000e+000
      vertex   -1.025452e+000 -2.257190e-001 1.500000e+000
      vertex   -1.043845e+000 -1.135250e-001 1.500000e+000
    endloop
  endfacet
  facet normal -9.868265e-001 -1.617820e-001 -2.993568e-018
    outer loop
      vertex   -1.025452e+000 -2.257190e-001 3.000000e+000
      vertex   -1.043845e+000 -1.135250e-001 3.000000e+000
      vertex   -1.043845e+000 -1.135250e-001 1.500000e+000
    endloop
  endfacet
  facet normal -9.985334e-001 -5.413891e-002 -1.001771e-018
    outer loop
      vertex   -1.043845e+000 -1.135250e-001 1.500000e+000
      vertex   -1.043845e+000 -1.135250e-001 3.000000e+000
      vertex   -1.050000e+000 -5.884854e-018 1.500000e+000
    endloop
  endfacet
  facet normal -9.985334e-001 -5.413891e-002 0.000000e+000
    outer loop
      vertex   -1.050000e+000 0.000000e+000 0.000000e+000
      vertex   -1.043845e+000 -1.135250e-001 1.500000e+000
      vertex   -1.050000e+000 -5.884854e-018 1.500000e+000
    endloop
  endfacet
  facet normal -9.985334e-001 -5.413891e-002 2.123997e-019
    outer loop
      vertex   -1.043845e+000 -1.135250e-001 3.000000e+000
      vertex   -1.050000e+000 0.000000e+000 3.000000e+000
      vertex   -1.050000e+000 -5.884854e-018 1.500000e+000
    endloop
  endfacet
  facet normal -9.985334e-001 5.413891e-002 -2.123997e-019
    outer loop
      vertex   -1.050000e+000 -5.884854e-018 1.500000e+000
      vertex   -1.050000e+000 0.000000e+000 3.000000e+000
      vertex   -1.043845e+000 1.135250e-001 1.500000e+000
    endloop
  endfacet
  facet normal -9.985334e-001 5.413891e-002 6.357556e-019
    outer loop
      vertex   -1.043845e+000 1.135250e-001 0.000000e+000
      vertex   -1.050000e+000 -5.884854e-018 1.500000e+000
      vertex   -1.043845e+000 1.135250e-001 1.500000e+000
    endloop
  endfacet
  facet normal -9.985334e-001 5.413891e-002 -1.001771e-018
    outer loop
      vertex   -1.050000e+000 0.000000e+000 3.000000e+000
      vertex   -1.043845e+000 1.135250e-001 3.000000e+000
      vertex   -1.043845e+000 1.135250e-001 1.500000e+000
    endloop
  endfacet
  facet normal -9.868265e-001 1.617820e-001 -2.993568e-018
    outer loop
      vertex   -1.043845e+000 1.135250e-001 1.500000e+000
      vertex   -1.043845e+000 1.135250e-001 3.000000e+000
      vertex   -1.025452e+000 2.257190e-001 1.500000e+000
    endloop
  endfacet
  facet normal -9.868265e-001 1.617820e-001 5.086045e-018
    outer loop
      vertex   -1.025452e+000 2.257190e-001 0.000000e+000
      vertex   -1.043845e+000 1.135250e-001 1.500000e+000
      vertex   -1.025452e+000 2.257190e-001 1.500000e+000
    endloop
  endfacet
  facet normal -9.868265e-001 1.617820e-001 -5.987137e-018
    outer loop
      vertex   -1.043845e+000 1.135250e-001 3.000000e+000
      vertex   -1.025452e+000 2.257190e-001 3.000000e+000
      vertex   -1.025452e+000 2.257190e-001 1.500000e+000
    endloop
  endfacet
  facet normal -9.635500e-001 2.675283e-001 -9.900537e-018
    outer loop
      vertex   -1.025452e+000 2.257190e-001 1.500000e+000
      vertex   -1.025452e+000 2.257190e-001 3.000000e+000
      vertex   -9.950358e-001 3.352666e-001 1.500000e+000
    endloop
  endfacet
  facet normal -9.635500e-001 2.675283e-001 3.051627e-017
    outer loop
      vertex   -9.950358e-001 3.352666e-001 0.000000e+000
      vertex   -1.025452e+000 2.257190e-001 1.500000e+000
      vertex   -9.950358e-001 3.352666e-001 1.500000e+000
    endloop
  endfacet
  facet normal -9.635500e-001 2.675283e-001 5.940322e-017
    outer loop
      vertex   -1.025452e+000 2.257190e-001 3.000000e+000
      vertex   -9.950358e-001 3.352666e-001 3.000000e+000
      vertex   -9.950358e-001 3.352666e-001 1.500000e+000
    endloop
  endfacet
  facet normal -9.289767e-001 3.701382e-001 8.218718e-017
    outer loop
      vertex   -9.950358e-001 3.352666e-001 1.500000e+000
      vertex   -9.950358e-001 3.352666e-001 3.000000e+000
      vertex   -9.529542e-001 4.408836e-001 1.500000e+000
    endloop
  endfacet
  facet normal -9.289767e-001 3.701382e-001 -9.663486e-017
    outer loop
      vertex   -9.529542e-001 4.408836e-001 0.000000e+000
      vertex   -9.950358e-001 3.352666e-001 1.500000e+000
      vertex   -9.529542e-001 4.408836e-001 1.500000e+000
    endloop
  endfacet
  facet normal -9.289767e-001 3.701382e-001 5.479145e-017
    outer loop
      vertex   -9.950358e-001 3.352666e-001 3.000000e+000
      vertex   -9.529542e-001 4.408836e-001 3.000000e+000
      vertex   -9.529542e-001 4.408836e-001 1.500000e+000
    endloop
  endfacet
  facet normal -8.835120e-001 4.684084e-001 6.933838e-017
    outer loop
      vertex   -9.529542e-001 4.408836e-001 1.500000e+000
      vertex   -9.529542e-001 4.408836e-001 3.000000e+000
      vertex   -8.997000e-001 5.413316e-001 1.500000e+000
    endloop
  endfacet
  facet normal -8.835120e-001 4.684084e-001 5.086045e-018
    outer loop
      vertex   -8.997000e-001 5.413316e-001 0.000000e+000
      vertex   -9.529542e-001 4.408836e-001 1.500000e+000
      vertex   -8.997000e-001 5.413316e-001 1.500000e+000
    endloop
  endfacet
  facet normal -8.835120e-001 4.684084e-001 6.933838e-017
    outer loop
      vertex   -9.529542e-001 4.408836e-001 3.000000e+000
      vertex   -8.997000e-001 5.413316e-001 3.000000e+000
      vertex   -8.997000e-001 5.413316e-001 1.500000e+000
    endloop
  endfacet
  facet normal -8.276890e-001 5.611871e-001 8.307237e-017
    outer loop
      vertex   -8.997000e-001 5.413316e-001 1.500000e+000
      vertex   -8.997000e-001 5.413316e-001 3.000000e+000
      vertex   -8.358977e-001 6.354329e-001 1.500000e+000
    endloop
  endfacet
  facet normal -8.276890e-001 5.611871e-001 -4.068836e-017
    outer loop
      vertex   -8.358977e-001 6.354329e-001 0.000000e+000
      vertex   -8.997000e-001 5.413316e-001 1.500000e+000
      vertex   -8.358977e-001 6.354329e-001 1.500000e+000
    endloop
  endfacet
  facet normal -8.276890e-001 5.611871e-001 2.181108e-017
    outer loop
      vertex   -8.997000e-001 5.413316e-001 3.000000e+000
      vertex   -8.358977e-001 6.354329e-001 3.000000e+000
      vertex   -8.358977e-001 6.354329e-001 1.500000e+000
    endloop
  endfacet
  facet normal -7.621621e-001 6.473863e-001 3.942110e-017
    outer loop
      vertex   -8.358977e-001 6.354329e-001 1.500000e+000
      vertex   -8.358977e-001 6.354329e-001 3.000000e+000
      vertex   -7.622953e-001 7.220844e-001 1.500000e+000
    endloop
  endfacet
  facet normal -7.621621e-001 6.473863e-001 8.646277e-017
    outer loop
      vertex   -7.622953e-001 7.220844e-001 0.000000e+000
      vertex   -8.358977e-001 6.354329e-001 1.500000e+000
      vertex   -7.622953e-001 7.220844e-001 1.500000e+000
    endloop
  endfacet
  facet normal -7.621621e-001 6.473863e-001 -5.641132e-017
    outer loop
      vertex   -8.358977e-001 6.354329e-001 3.000000e+000
      vertex   -7.622953e-001 7.220844e-001 3.000000e+000
      vertex   -7.622953e-001 7.220844e-001 1.500000e+000
    endloop
  endfacet
  facet normal -6.876995e-001 7.259955e-001 -5.089998e-017
    outer loop
      vertex   -7.622953e-001 7.220844e-001 1.500000e+000
      vertex   -7.622953e-001 7.220844e-001 3.000000e+000
      vertex   -6.797556e-001 8.002702e-001 1.500000e+000
    endloop
  endfacet
  facet normal -6.876995e-001 7.259955e-001 -4.068836e-017
    outer loop
      vertex   -6.797556e-001 8.002702e-001 0.000000e+000
      vertex   -7.622953e-001 7.220844e-001 1.500000e+000
      vertex   -6.797556e-001 8.002702e-001 1.500000e+000
    endloop
  endfacet
  facet normal -6.876995e-001 7.259955e-001 5.373446e-017
    outer loop
      vertex   -7.622953e-001 7.220844e-001 3.000000e+000
      vertex   -6.797556e-001 8.002702e-001 3.000000e+000
      vertex   -6.797556e-001 8.002702e-001 1.500000e+000
    endloop
  endfacet
  facet normal -6.051742e-001 7.960931e-001 5.892272e-017
    outer loop
      vertex   -6.797556e-001 8.002702e-001 1.500000e+000
      vertex   -6.797556e-001 8.002702e-001 3.000000e+000
      vertex   -5.892464e-001 8.690734e-001 1.500000e+000
    endloop
  endfacet
  facet normal -6.051742e-001 7.960931e-001 4.577441e-017
    outer loop
      vertex   -5.892464e-001 8.690734e-001 0.000000e+000
      vertex   -6.797556e-001 8.002702e-001 1.500000e+000
      vertex   -5.892464e-001 8.690734e-001 1.500000e+000
    endloop
  endfacet
  facet normal -6.051742e-001 7.960931e-001 -4.479189e-017
    outer loop
      vertex   -6.797556e-001 8.002702e-001 3.000000e+000
      vertex   -5.892464e-001 8.690734e-001 3.000000e+000
      vertex   -5.892464e-001 8.690734e-001 1.500000e+000
    endloop
  endfacet
  facet normal -5.155539e-001 8.568572e-001 -3.815865e-017
    outer loop
      vertex   -5.892464e-001 8.690734e-001 1.500000e+000
      vertex   -5.892464e-001 8.690734e-001 3.000000e+000
      vertex   -4.918289e-001 9.276876e-001 1.500000e+000
    endloop
  endfacet
  facet normal -5.155539e-001 8.568572e-001 -5.086045e-018
    outer loop
      vertex   -4.918289e-001 9.276876e-001 0.000000e+000
      vertex   -5.892464e-001 8.690734e-001 1.500000e+000
      vertex   -4.918289e-001 9.276876e-001 1.500000e+000
    endloop
  endfacet
  facet normal -5.155539e-001 8.568572e-001 0.000000e+000
    outer loop
      vertex   -5.892464e-001 8.690734e-001 3.000000e+000
      vertex   -4.918289e-001 9.276876e-001 3.000000e+000
      vertex   -4.918289e-001 9.276876e-001 1.500000e+000
    endloop
  endfacet
  facet normal -4.198891e-001 9.075754e-001 0.000000e+000
    outer loop
      vertex   -4.918289e-001 9.276876e-001 1.500000e+000
      vertex   -4.918289e-001 9.276876e-001 3.000000e+000
      vertex   -3.886451e-001 9.754256e-001 1.500000e+000
    endloop
  endfacet
  facet normal -4.198891e-001 9.075754e-001 0.000000e+000
    outer loop
      vertex   -3.886451e-001 9.754256e-001 0.000000e+000
      vertex   -4.918289e-001 9.276876e-001 1.500000e+000
      vertex   -3.886451e-001 9.754256e-001 1.500000e+000
    endloop
  endfacet
  facet normal -4.198891e-001 9.075754e-001 -2.606003e-017
    outer loop
      vertex   -4.918289e-001 9.276876e-001 3.000000e+000
      vertex   -3.886451e-001 9.754256e-001 3.000000e+000
      vertex   -3.886451e-001 9.754256e-001 1.500000e+000
    endloop
  endfacet
  facet normal -3.193015e-001 9.476532e-001 -7.587574e-019
    outer loop
      vertex   -3.886451e-001 9.754256e-001 1.500000e+000
      vertex   -3.886451e-001 9.754256e-001 3.000000e+000
      vertex   -2.809048e-001 1.011727e+000 1.500000e+000
    endloop
  endfacet
  facet normal -3.193015e-001 9.476532e-001 4.577441e-017
    outer loop
      vertex   -2.809048e-001 1.011727e+000 0.000000e+000
      vertex   -3.886451e-001 9.754256e-001 1.500000e+000
      vertex   -2.809048e-001 1.011727e+000 1.500000e+000
    endloop
  endfacet
  facet normal -3.193015e-001 9.476532e-001 -4.726612e-017
    outer loop
      vertex   -3.886451e-001 9.754256e-001 3.000000e+000
      vertex   -2.809048e-001 1.011727e+000 3.000000e+000
      vertex   -2.809048e-001 1.011727e+000 1.500000e+000
    endloop
  endfacet
  facet normal -2.149704e-001 9.766206e-001 -3.182202e-017
    outer loop
      vertex   -2.809048e-001 1.011727e+000 1.500000e+000
      vertex   -2.809048e-001 1.011727e+000 3.000000e+000
      vertex   -1.698711e-001 1.036168e+000 1.500000e+000
    endloop
  endfacet
  facet normal -2.149704e-001 9.766206e-001 -3.560232e-017
    outer loop
      vertex   -1.698711e-001 1.036168e+000 0.000000e+000
      vertex   -2.809048e-001 1.011727e+000 1.500000e+000
      vertex   -1.698711e-001 1.036168e+000 1.500000e+000
    endloop
  endfacet
  facet normal -2.149704e-001 9.766206e-001 0.000000e+000
    outer loop
      vertex   -2.809048e-001 1.011727e+000 3.000000e+000
      vertex   -1.698711e-001 1.036168e+000 3.000000e+000
      vertex   -1.698711e-001 1.036168e+000 1.500000e+000
    endloop
  endfacet
  facet normal -1.081190e-001 9.941380e-001 0.000000e+000
    outer loop
      vertex   -1.698711e-001 1.036168e+000 1.500000e+000
      vertex   -1.698711e-001 1.036168e+000 3.000000e+000
      vertex   -5.684585e-002 1.048460e+000 1.500000e+000
    endloop
  endfacet
  facet normal -1.081190e-001 9.941380e-001 1.652965e-017
    outer loop
      vertex   -5.684585e-002 1.048460e+000 0.000000e+000
      vertex   -1.698711e-001 1.036168e+000 1.500000e+000
      vertex   -5.684585e-002 1.048460e+000 1.500000e+000
    endloop
  endfacet
  facet normal -1.081190e-001 9.941380e-001 0.000000e+000
    outer loop
      vertex   -1.698711e-001 1.036168e+000 3.000000e+000
      vertex   -5.684585e-002 1.048460e+000 3.000000e+000
      vertex   -5.684585e-002 1.048460e+000 1.500000e+000
    endloop
  endfacet
  facet normal -0.000000e+000 1.000000e+000 0.000000e+000
    outer loop
      vertex   -5.684585e-002 1.048460e+000 1.500000e+000
      vertex   -5.684585e-002 1.048460e+000 3.000000e+000
      vertex   5.684585e-002 1.048460e+000 1.500000e+000
    endloop
  endfacet
  facet normal 0.000000e+000 1.000000e+000 -0.000000e+000
    outer loop
      vertex   5.684585e-002 1.048460e+000 0.000000e+000
      vertex   -5.684585e-002 1.048460e+000 1.500000e+000
      vertex   5.684585e-002 1.048460e+000 1.500000e+000
    endloop
  endfacet
  facet normal -0.000000e+000 1.000000e+000 0.000000e+000
    outer loop
      vertex   -5.684585e-002 1.048460e+000 3.000000e+000
      vertex   5.684585e-002 1.048460e+000 3.000000e+000
      vertex   5.684585e-002 1.048460e+000 1.500000e+000
    endloop
  endfacet
  facet normal 1.081190e-001 9.941380e-001 -0.000000e+000
    outer loop
      vertex   5.684585e-002 1.048460e+000 1.500000e+000
      vertex   5.684585e-002 1.048460e+000 3.000000e+000
      vertex   1.698711e-001 1.036168e+000 1.500000e+000
    endloop
  endfacet
  facet normal 1.081190e-001 9.941380e-001 -1.652965e-017
    outer loop
      vertex   1.698711e-001 1.036168e+000 0.000000e+000
      vertex   5.684585e-002 1.048460e+000 1.500000e+000
      vertex   1.698711e-001 1.036168e+000 1.500000e+000
    endloop
  endfacet
  facet normal 1.081190e-001 9.941380e-001 1.600483e-017
    outer loop
      vertex   5.684585e-002 1.048460e+000 3.000000e+000
      vertex   1.698711e-001 1.036168e+000 3.000000e+000
      vertex   1.698711e-001 1.036168e+000 1.500000e+000
    endloop
  endfacet
  facet normal 2.149704e-001 9.766206e-001 3.182202e-017
    outer loop
      vertex   1.698711e-001 1.036168e+000 1.500000e+000
      vertex   1.698711e-001 1.036168e+000 3.000000e+000
      vertex   2.809048e-001 1.011727e+000 1.500000e+000
    endloop
  endfacet
  facet normal 2.149704e-001 9.766206e-001 3.305929e-017
    outer loop
      vertex   2.809048e-001 1.011727e+000 0.000000e+000
      vertex   1.698711e-001 1.036168e+000 1.500000e+000
      vertex   2.809048e-001 1.011727e+000 1.500000e+000
    endloop
  endfacet
  facet normal 2.149704e-001 9.766206e-001 3.182202e-017
    outer loop
      vertex   1.698711e-001 1.036168e+000 3.000000e+000
      vertex   2.809048e-001 1.011727e+000 3.000000e+000
      vertex   2.809048e-001 1.011727e+000 1.500000e+000
    endloop
  endfacet
  facet normal 3.193015e-001 9.476532e-001 4.726612e-017
    outer loop
      vertex   2.809048e-001 1.011727e+000 1.500000e+000
      vertex   2.809048e-001 1.011727e+000 3.000000e+000
      vertex   3.886451e-001 9.754256e-001 1.500000e+000
    endloop
  endfacet
  facet normal 3.193015e-001 9.476532e-001 9.154881e-017
    outer loop
      vertex   3.886451e-001 9.754256e-001 0.000000e+000
      vertex   2.809048e-001 1.011727e+000 1.500000e+000
      vertex   3.886451e-001 9.754256e-001 1.500000e+000
    endloop
  endfacet
  facet normal 3.193015e-001 9.476532e-001 -9.301473e-017
    outer loop
      vertex   2.809048e-001 1.011727e+000 3.000000e+000
      vertex   3.886451e-001 9.754256e-001 3.000000e+000
      vertex   3.886451e-001 9.754256e-001 1.500000e+000
    endloop
  endfacet
  facet normal 4.198891e-001 9.075754e-001 -7.219208e-017
    outer loop
      vertex   3.886451e-001 9.754256e-001 1.500000e+000
      vertex   3.886451e-001 9.754256e-001 3.000000e+000
      vertex   4.918289e-001 9.276876e-001 1.500000e+000
    endloop
  endfacet
  facet normal 4.198891e-001 9.075754e-001 -1.017209e-017
    outer loop
      vertex   4.918289e-001 9.276876e-001 0.000000e+000
      vertex   3.886451e-001 9.754256e-001 1.500000e+000
      vertex   4.918289e-001 9.276876e-001 1.500000e+000
    endloop
  endfacet
  facet normal 4.198891e-001 9.075754e-001 0.000000e+000
    outer loop
      vertex   3.886451e-001 9.754256e-001 3.000000e+000
      vertex   4.918289e-001 9.276876e-001 3.000000e+000
      vertex   4.918289e-001 9.276876e-001 1.500000e+000
    endloop
  endfacet
  facet normal 5.155539e-001 8.568572e-001 -0.000000e+000
    outer loop
      vertex   4.918289e-001 9.276876e-001 1.500000e+000
      vertex   4.918289e-001 9.276876e-001 3.000000e+000
      vertex   5.892464e-001 8.690734e-001 1.500000e+000
    endloop
  endfacet
  facet normal 5.155539e-001 8.568572e-001 0.000000e+000
    outer loop
      vertex   5.892464e-001 8.690734e-001 0.000000e+000
      vertex   4.918289e-001 9.276876e-001 1.500000e+000
      vertex   5.892464e-001 8.690734e-001 1.500000e+000
    endloop
  endfacet
  facet normal 5.155539e-001 8.568572e-001 0.000000e+000
    outer loop
      vertex   4.918289e-001 9.276876e-001 3.000000e+000
      vertex   5.892464e-001 8.690734e-001 3.000000e+000
      vertex   5.892464e-001 8.690734e-001 1.500000e+000
    endloop
  endfacet
  facet normal 6.051742e-001 7.960931e-001 -0.000000e+000
    outer loop
      vertex   5.892464e-001 8.690734e-001 1.500000e+000
      vertex   5.892464e-001 8.690734e-001 3.000000e+000
      vertex   6.797556e-001 8.002702e-001 1.500000e+000
    endloop
  endfacet
  facet normal 6.051742e-001 7.960931e-001 -2.543023e-017
    outer loop
      vertex   6.797556e-001 8.002702e-001 0.000000e+000
      vertex   5.892464e-001 8.690734e-001 1.500000e+000
      vertex   6.797556e-001 8.002702e-001 1.500000e+000
    endloop
  endfacet
  facet normal 6.051742e-001 7.960931e-001 0.000000e+000
    outer loop
      vertex   5.892464e-001 8.690734e-001 3.000000e+000
      vertex   6.797556e-001 8.002702e-001 3.000000e+000
      vertex   6.797556e-001 8.002702e-001 1.500000e+000
    endloop
  endfacet
  facet normal 6.876995e-001 7.259955e-001 -0.000000e+000
    outer loop
      vertex   6.797556e-001 8.002702e-001 1.500000e+000
      vertex   6.797556e-001 8.002702e-001 3.000000e+000
      vertex   7.622953e-001 7.220844e-001 1.500000e+000
    endloop
  endfacet
  facet normal 6.876995e-001 7.259955e-001 0.000000e+000
    outer loop
      vertex   7.622953e-001 7.220844e-001 0.000000e+000
      vertex   6.797556e-001 8.002702e-001 1.500000e+000
      vertex   7.622953e-001 7.220844e-001 1.500000e+000
    endloop
  endfacet
  facet normal 6.876995e-001 7.259955e-001 0.000000e+000
    outer loop
      vertex   6.797556e-001 8.002702e-001 3.000000e+000
      vertex   7.622953e-001 7.220844e-001 3.000000e+000
      vertex   7.622953e-001 7.220844e-001 1.500000e+000
    endloop
  endfacet
  facet normal 7.621621e-001 6.473863e-001 -0.000000e+000
    outer loop
      vertex   7.622953e-001 7.220844e-001 1.500000e+000
      vertex   7.622953e-001 7.220844e-001 3.000000e+000
      vertex   8.358977e-001 6.354329e-001 1.500000e+000
    endloop
  endfacet
  facet normal 7.621621e-001 6.473863e-001 8.137672e-017
    outer loop
      vertex   8.358977e-001 6.354329e-001 0.000000e+000
      vertex   7.622953e-001 7.220844e-001 1.500000e+000
      vertex   8.358977e-001 6.354329e-001 1.500000e+000
    endloop
  endfacet
  facet normal 7.621621e-001 6.473863e-001 -7.884219e-017
    outer loop
      vertex   7.622953e-001 7.220844e-001 3.000000e+000
      vertex   8.358977e-001 6.354329e-001 3.000000e+000
      vertex   8.358977e-001 6.354329e-001 1.500000e+000
    endloop
  endfacet
  facet normal 8.276890e-001 5.611871e-001 -4.362216e-017
    outer loop
      vertex   8.358977e-001 6.354329e-001 1.500000e+000
      vertex   8.358977e-001 6.354329e-001 3.000000e+000
      vertex   8.997000e-001 5.413316e-001 1.500000e+000
    endloop
  endfacet
  facet normal 8.276890e-001 5.611871e-001 0.000000e+000
    outer loop
      vertex   8.997000e-001 5.413316e-001 0.000000e+000
      vertex   8.358977e-001 6.354329e-001 1.500000e+000
      vertex   8.997000e-001 5.413316e-001 1.500000e+000
    endloop
  endfacet
  facet normal 8.276890e-001 5.611871e-001 0.000000e+000
    outer loop
      vertex   8.358977e-001 6.354329e-001 3.000000e+000
      vertex   8.997000e-001 5.413316e-001 3.000000e+000
      vertex   8.997000e-001 5.413316e-001 1.500000e+000
    endloop
  endfacet
  facet normal 8.835120e-001 4.684084e-001 -0.000000e+000
    outer loop
      vertex   8.997000e-001 5.413316e-001 1.500000e+000
      vertex   8.997000e-001 5.413316e-001 3.000000e+000
      vertex   9.529542e-001 4.408836e-001 1.500000e+000
    endloop
  endfacet
  facet normal 8.835120e-001 4.684084e-001 -7.629068e-017
    outer loop
      vertex   9.529542e-001 4.408836e-001 0.000000e+000
      vertex   8.997000e-001 5.413316e-001 1.500000e+000
      vertex   9.529542e-001 4.408836e-001 1.500000e+000
    endloop
  endfacet
  facet normal 8.835120e-001 4.684084e-001 7.483692e-017
    outer loop
      vertex   8.997000e-001 5.413316e-001 3.000000e+000
      vertex   9.529542e-001 4.408836e-001 3.000000e+000
      vertex   9.529542e-001 4.408836e-001 1.500000e+000
    endloop
  endfacet
  facet normal 9.289767e-001 3.701382e-001 1.103892e-016
    outer loop
      vertex   9.529542e-001 4.408836e-001 1.500000e+000
      vertex   9.529542e-001 4.408836e-001 3.000000e+000
      vertex   9.950358e-001 3.352666e-001 1.500000e+000
    endloop
  endfacet
  facet normal 9.289767e-001 3.701382e-001 -3.051627e-017
    outer loop
      vertex   9.950358e-001 3.352666e-001 0.000000e+000
      vertex   9.529542e-001 4.408836e-001 1.500000e+000
      vertex   9.950358e-001 3.352666e-001 1.500000e+000
    endloop
  endfacet
  facet normal 9.289767e-001 3.701382e-001 0.000000e+000
    outer loop
      vertex   9.529542e-001 4.408836e-001 3.000000e+000
      vertex   9.950358e-001 3.352666e-001 3.000000e+000
      vertex   9.950358e-001 3.352666e-001 1.500000e+000
    endloop
  endfacet
  facet normal 9.635500e-001 2.675283e-001 -0.000000e+000
    outer loop
      vertex   9.950358e-001 3.352666e-001 1.500000e+000
      vertex   9.950358e-001 3.352666e-001 3.000000e+000
      vertex   1.025452e+000 2.257190e-001 1.500000e+000
    endloop
  endfacet
  facet normal 9.635500e-001 2.675283e-001 0.000000e+000
    outer loop
      vertex   1.025452e+000 2.257190e-001 0.000000e+000
      vertex   9.950358e-001 3.352666e-001 1.500000e+000
      vertex   1.025452e+000 2.257190e-001 1.500000e+000
    endloop
  endfacet
  facet normal 9.635500e-001 2.675283e-001 0.000000e+000
    outer loop
      vertex   9.950358e-001 3.352666e-001 3.000000e+000
      vertex   1.025452e+000 2.257190e-001 3.000000e+000
      vertex   1.025452e+000 2.257190e-001 1.500000e+000
    endloop
  endfacet
  facet normal 9.868265e-001 1.617820e-001 -0.000000e+000
    outer loop
      vertex   1.025452e+000 2.257190e-001 1.500000e+000
      vertex   1.025452e+000 2.257190e-001 3.000000e+000
      vertex   1.043845e+000 1.135250e-001 1.500000e+000
    endloop
  endfacet
  facet normal 9.868265e-001 1.617820e-001 -4.577441e-017
    outer loop
      vertex   1.043845e+000 1.135250e-001 0.000000e+000
      vertex   1.025452e+000 2.257190e-001 1.500000e+000
      vertex   1.043845e+000 1.135250e-001 1.500000e+000
    endloop
  endfacet
  facet normal 9.868265e-001 1.617820e-001 0.000000e+000
    outer loop
      vertex   1.025452e+000 2.257190e-001 3.000000e+000
      vertex   1.043845e+000 1.135250e-001 3.000000e+000
      vertex   1.043845e+000 1.135250e-001 1.500000e+000
    endloop
  endfacet
  facet normal 9.985334e-001 5.413891e-002 -0.000000e+000
    outer loop
      vertex   1.043845e+000 1.135250e-001 1.500000e+000
      vertex   1.043845e+000 1.135250e-001 3.000000e+000
      vertex   1.050000e+000 1.285879e-016 1.500000e+000
    endloop
  endfacet
  facet normal 9.985334e-001 5.413891e-002 0.000000e+000
    outer loop
      vertex   1.050000e+000 1.285879e-016 0.000000e+000
      vertex   1.043845e+000 1.135250e-001 1.500000e+000
      vertex   1.050000e+000 1.285879e-016 1.500000e+000
    endloop
  endfacet
  facet normal 9.985334e-001 5.413891e-002 0.000000e+000
    outer loop
      vertex   1.043845e+000 1.135250e-001 3.000000e+000
      vertex   1.050000e+000 1.285879e-016 3.000000e+000
      vertex   1.050000e+000 1.285879e-016 1.500000e+000
    endloop
  endfacet
  facet normal 9.985334e-001 -5.413891e-002 0.000000e+000
    outer loop
      vertex   1.050000e+000 1.285879e-016 1.500000e+000
      vertex   1.050000e+000 1.285879e-016 3.000000e+000
      vertex   1.043845e+000 -1.135250e-001 1.500000e+000
    endloop
  endfacet
  facet normal 9.985334e-001 -5.413891e-002 0.000000e+000
    outer loop
      vertex   1.043845e+000 -1.135250e-001 0.000000e+000
      vertex   1.050000e+000 1.285879e-016 1.500000e+000
      vertex   1.043845e+000 -1.135250e-001 1.500000e+000
    endloop
  endfacet
  facet normal 0.000000e+000 0.000000e+000 -1.000000e+000
    outer loop
      vertex   1.043845e+000 -1.135250e-001 0.000000e+000
      vertex   -1.043845e+000 -1.135250e-001 0.000000e+000
      vertex   1.050000e+000 1.285879e-016 0.000000e+000
    endloop
  endfacet
  facet normal -0.000000e+000 0.000000e+000 -1.000000e+000
    outer loop
      vertex   1.043845e+000 -1.135250e-001 0.000000e+000
      vertex   -1.025452e+000 -2.257190e-001 0.000000e+000
      vertex   -1.043845e+000 -1.135250e-001 0.000000e+000
    endloop
  endfacet
  facet normal -0.000000e+000 0.000000e+000 -1.000000e+000
    outer loop
      vertex   1.043845e+000 -1.135250e-001 0.000000e+000
      vertex   1.025452e+000 -2.257190e-001 0.000000e+000
      vertex   -1.025452e+000 -2.257190e-001 0.000000e+000
    endloop
  endfacet
  facet normal 0.000000e+000 -0.000000e+000 -1.000000e+000
    outer loop
      vertex   -1.025452e+000 -2.257190e-001 0.000000e+000
      vertex   1.025452e+000 -2.257190e-001 0.000000e+000
      vertex   -9.950358e-001 -3.352666e-001 0.000000e+000
    endloop
  endfacet
  facet normal 0.000000e+000 -0.000000e+000 -1.000000e+000
    outer loop
      vertex   -9.950358e-001 -3.352666e-001 0.000000e+000
      vertex   1.025452e+000 -2.257190e-001 0.000000e+000
      vertex   9.950358e-001 -3.352666e-001 0.000000e+000
    endloop
  endfacet
  facet normal 0.000000e+000 -0.000000e+000 -1.000000e+000
    outer loop
      vertex   -9.529542e-001 -4.408836e-001 0.000000e+000
      vertex   9.950358e-001 -3.352666e-001 0.000000e+000
      vertex   9.529542e-001 -4.408836e-001 0.000000e+000
    endloop
  endfacet
  facet normal 0.000000e+000 -0.000000e+000 -1.000000e+000
    outer loop
      vertex   -8.997000e-001 -5.413316e-001 0.000000e+000
      vertex   9.529542e-001 -4.408836e-001 0.000000e+000
      vertex   8.997000e-001 -5.413316e-001 0.000000e+000
    endloop
  endfacet
  facet normal 0.000000e+000 -0.000000e+000 -1.000000e+000
    outer loop
      vertex   -8.358977e-001 -6.354329e-001 0.000000e+000
      vertex   8.997000e-001 -5.413316e-001 0.000000e+000
      vertex   8.358977e-001 -6.354329e-001 0.000000e+000
    endloop
  endfacet
  facet normal 0.000000e+000 -0.000000e+000 -1.000000e+000
    outer loop
      vertex   -7.622953e-001 -7.220844e-001 0.000000e+000
      vertex   8.358977e-001 -6.354329e-001 0.000000e+000
      vertex   7.622953e-001 -7.220844e-001 0.000000e+000
    endloop
  endfacet
  facet normal 0.000000e+000 -0.000000e+000 -1.000000e+000
    outer loop
      vertex   -6.797556e-001 -8.002702e-001 0.000000e+000
      vertex   7.622953e-001 -7.220844e-001 0.000000e+000
      vertex   6.797556e-001 -8.002702e-001 0.000000e+000
    endloop
  endfacet
  facet normal 0.000000e+000 -0.000000e+000 -1.000000e+000
    outer loop
      vertex   -5.892464e-001 -8.690734e-001 0.000000e+000
      vertex   6.797556e-001 -8.002702e-001 0.000000e+000
      vertex   5.892464e-001 -8.690734e-001 0.000000e+000
    endloop
  endfacet
  facet normal 0.000000e+000 -0.000000e+000 -1.000000e+000
    outer loop
      vertex   -4.918289e-001 -9.276876e-001 0.000000e+000
      vertex   5.892464e-001 -8.690734e-001 0.000000e+000
      vertex   4.918289e-001 -9.276876e-001 0.000000e+000
    endloop
  endfacet
  facet normal 0.000000e+000 -0.000000e+000 -1.000000e+000
    outer loop
      vertex   -3.886451e-001 -9.754256e-001 0.000000e+000
      vertex   4.918289e-001 -9.276876e-001 0.000000e+000
      vertex   3.886451e-001 -9.754256e-001 0.000000e+000
    endloop
  endfacet
  facet normal 0.000000e+000 -0.000000e+000 -1.000000e+000
    outer loop
      vertex   -2.809048e-001 -1.011727e+000 0.000000e+000
      vertex   3.886451e-001 -9.754256e-001 0.000000e+000
      vertex   2.809048e-001 -1.011727e+000 0.000000e+000
    endloop
  endfacet
  facet normal 0.000000e+000 -0.000000e+000 -1.000000e+000
    outer loop
      vertex   -1.698711e-001 -1.036168e+000 0.000000e+000
      vertex   2.809048e-001 -1.011727e+000 0.000000e+000
      vertex   1.698711e-001 -1.036168e+000 0.000000e+000
    endloop
  endfacet
  facet normal 0.000000e+000 -0.000000e+000 -1.000000e+000
    outer loop
      vertex   -5.684585e-002 -1.048460e+000 0.000000e+000
      vertex   1.698711e-001 -1.036168e+000 0.000000e+000
      vertex   5.684585e-002 -1.048460e+000 0.000000e+000
    endloop
  endfacet
  facet normal 0.000000e+000 0.000000e+000 -1.000000e+000
    outer loop
      vertex   -5.684585e-002 -1.048460e+000 0.000000e+000
      vertex   -1.698711e-001 -1.036168e+000 0.000000e+000
      vertex   1.698711e-001 -1.036168e+000 0.000000e+000
    endloop
  endfacet
  facet normal 0.000000e+000 -0.000000e+000 -1.000000e+000
    outer loop
      vertex   -9.950358e-001 -3.352666e-001 0.000000e+000
      vertex   9.950358e-001 -3.352666e-001 0.000000e+000
      vertex   -9.529542e-001 -4.408836e-001 0.000000e+000
    endloop
  endfacet
  facet normal 0.000000e+000 -0.000000e+000 -1.000000e+000
    outer loop
      vertex   -9.529542e-001 -4.408836e-001 0.000000e+000
      vertex   9.529542e-001 -4.408836e-001 0.000000e+000
      vertex   -8.997000e-001 -5.413316e-001 0.000000e+000
    endloop
  endfacet
  facet normal 0.000000e+000 -0.000000e+000 -1.000000e+000
    outer loop
      vertex   -8.997000e-001 -5.413316e-001 0.000000e+000
      vertex   8.997000e-001 -5.413316e-001 0.000000e+000
      vertex   -8.358977e-001 -6.354329e-001 0.000000e+000
    endloop
  endfacet
  facet normal 0.000000e+000 -0.000000e+000 -1.000000e+000
    outer loop
      vertex   -8.358977e-001 -6.354329e-001 0.000000e+000
      vertex   8.358977e-001 -6.354329e-001 0.000000e+000
      vertex   -7.622953e-001 -7.220844e-001 0.000000e+000
    endloop
  endfacet
  facet normal 0.000000e+000 -0.000000e+000 -1.000000e+000
    outer loop
      vertex   -7.622953e-001 -7.220844e-001 0.000000e+000
      vertex   7.622953e-001 -7.220844e-001 0.000000e+000
      vertex   -6.797556e-001 -8.002702e-001 0.000000e+000
    endloop
  endfacet
  facet normal 0.000000e+000 -0.000000e+000 -1.000000e+000
    outer loop
      vertex   -6.797556e-001 -8.002702e-001 0.000000e+000
      vertex   6.797556e-001 -8.002702e-001 0.000000e+000
      vertex   -5.892464e-001 -8.690734e-001 0.000000e+000
    endloop
  endfacet
  facet normal 0.000000e+000 -0.000000e+000 -1.000000e+000
    outer loop
      vertex   -5.892464e-001 -8.690734e-001 0.000000e+000
      vertex   5.892464e-001 -8.690734e-001 0.000000e+000
      vertex   -4.918289e-001 -9.276876e-001 0.000000e+000
    endloop
  endfacet
  facet normal 0.000000e+000 -0.000000e+000 -1.000000e+000
    outer loop
      vertex   -4.918289e-001 -9.276876e-001 0.000000e+000
      vertex   4.918289e-001 -9.276876e-001 0.000000e+000
      vertex   -3.886451e-001 -9.754256e-001 0.000000e+000
    endloop
  endfacet
  facet normal 0.000000e+000 -0.000000e+000 -1.000000e+000
    outer loop
      vertex   -3.886451e-001 -9.754256e-001 0.000000e+000
      vertex   3.886451e-001 -9.754256e-001 0.000000e+000
      vertex   -2.809048e-001 -1.011727e+000 0.000000e+000
    endloop
  endfacet
  facet normal 0.000000e+000 -0.000000e+000 -1.000000e+000
    outer loop
      vertex   -2.809048e-001 -1.011727e+000 0.000000e+000
      vertex   2.809048e-001 -1.011727e+000 0.000000e+000
      vertex   -1.698711e-001 -1.036168e+000 0.000000e+000
    endloop
  endfacet
  facet normal 0.000000e+000 0.000000e+000 -1.000000e+000
    outer loop
      vertex   -1.043845e+000 -1.135250e-001 0.000000e+000
      vertex   -1.050000e+000 0.000000e+000 0.000000e+000
      vertex   1.050000e+000 1.285879e-016 0.000000e+000
    endloop
  endfacet
  facet normal -0.000000e+000 0.000000e+000 -1.000000e+000
    outer loop
      vertex   1.050000e+000 1.285879e-016 0.000000e+000
      vertex   -1.050000e+000 0.000000e+000 0.000000e+000
      vertex   1.043845e+000 1.135250e-001 0.000000e+000
    endloop
  endfacet
  facet normal -0.000000e+000 0.000000e+000 -1.000000e+000
    outer loop
      vertex   1.043845e+000 1.135250e-001 0.000000e+000
      vertex   -1.050000e+000 0.000000e+000 0.000000e+000
      vertex   -1.043845e+000 1.135250e-001 0.000000e+000
    endloop
  endfacet
  facet normal -0.000000e+000 0.000000e+000 -1.000000e+000
    outer loop
      vertex   1.025452e+000 2.257190e-001 0.000000e+000
      vertex   -1.043845e+000 1.135250e-001 0.000000e+000
      vertex   -1.025452e+000 2.257190e-001 0.000000e+000
    endloop
  endfacet
  facet normal -0.000000e+000 0.000000e+000 -1.000000e+000
    outer loop
      vertex   9.950358e-001 3.352666e-001 0.000000e+000
      vertex   -1.025452e+000 2.257190e-001 0.000000e+000
      vertex   -9.950358e-001 3.352666e-001 0.000000e+000
    endloop
  endfacet
  facet normal -0.000000e+000 0.000000e+000 -1.000000e+000
    outer loop
      vertex   9.529542e-001 4.408836e-001 0.000000e+000
      vertex   -9.950358e-001 3.352666e-001 0.000000e+000
      vertex   -9.529542e-001 4.408836e-001 0.000000e+000
    endloop
  endfacet
  facet normal -0.000000e+000 0.000000e+000 -1.000000e+000
    outer loop
      vertex   8.997000e-001 5.413316e-001 0.000000e+000
      vertex   -9.529542e-001 4.408836e-001 0.000000e+000
      vertex   -8.997000e-001 5.413316e-001 0.000000e+000
    endloop
  endfacet
  facet normal -0.000000e+000 0.000000e+000 -1.000000e+000
    outer loop
      vertex   8.358977e-001 6.354329e-001 0.000000e+000
      vertex   -8.997000e-001 5.413316e-001 0.000000e+000
      vertex   -8.358977e-001 6.354329e-001 0.000000e+000
    endloop
  endfacet
  facet normal -0.000000e+000 0.000000e+000 -1.000000e+000
    outer loop
      vertex   7.622953e-001 7.220844e-001 0.000000e+000
      vertex   -8.358977e-001 6.354329e-001 0.000000e+000
      vertex   -7.622953e-001 7.220844e-001 0.000000e+000
    endloop
  endfacet
  facet normal -0.000000e+000 0.000000e+000 -1.000000e+000
    outer loop
      vertex   6.797556e-001 8.002702e-001 0.000000e+000
      vertex   -7.622953e-001 7.220844e-001 0.000000e+000
      vertex   -6.797556e-001 8.002702e-001 0.000000e+000
    endloop
  endfacet
  facet normal -0.000000e+000 0.000000e+000 -1.000000e+000
    outer loop
      vertex   5.892464e-001 8.690734e-001 0.000000e+000
      vertex   -6.797556e-001 8.002702e-001 0.000000e+000
      vertex   -5.892464e-001 8.690734e-001 0.000000e+000
    endloop
  endfacet
  facet normal -0.000000e+000 0.000000e+000 -1.000000e+000
    outer loop
      vertex   4.918289e-001 9.276876e-001 0.000000e+000
      vertex   -5.892464e-001 8.690734e-001 0.000000e+000
      vertex   -4.918289e-001 9.276876e-001 0.000000e+000
    endloop
  endfacet
  facet normal -0.000000e+000 0.000000e+000 -1.000000e+000
    outer loop
      vertex   3.886451e-001 9.754256e-001 0.000000e+000
      vertex   -4.918289e-001 9.276876e-001 0.000000e+000
      vertex   -3.886451e-001 9.754256e-001 0.000000e+000
    endloop
  endfacet
  facet normal -0.000000e+000 0.000000e+000 -1.000000e+000
    outer loop
      vertex   2.809048e-001 1.011727e+000 0.000000e+000
      vertex   -3.886451e-001 9.754256e-001 0.000000e+000
      vertex   -2.809048e-001 1.011727e+000 0.000000e+000
    endloop
  endfacet
  facet normal -0.000000e+000 0.000000e+000 -1.000000e+000
    outer loop
      vertex   1.698711e-001 1.036168e+000 0.000000e+000
      vertex   -2.809048e-001 1.011727e+000 0.000000e+000
      vertex   -1.698711e-001 1.036168e+000 0.000000e+000
    endloop
  endfacet
  facet normal -0.000000e+000 0.000000e+000 -1.000000e+000
    outer loop
      vertex   5.684585e-002 1.048460e+000 0.000000e+000
      vertex   -1.698711e-001 1.036168e+000 0.000000e+000
      vertex   -5.684585e-002 1.048460e+000 0.000000e+000
    endloop
  endfacet
  facet normal -0.000000e+000 -0.000000e+000 -1.000000e+000
    outer loop
      vertex   5.684585e-002 1.048460e+000 0.000000e+000
      vertex   1.698711e-001 1.036168e+000 0.000000e+000
      vertex   -1.698711e-001 1.036168e+000 0.000000e+000
    endloop
  endfacet
  facet normal 0.000000e+000 0.000000e+000 -1.000000e+000
    outer loop
      vertex   1.043845e+000 1.135250e-001 0.000000e+000
      vertex   -1.043845e+000 1.135250e-001 0.000000e+000
      vertex   1.025452e+000 2.257190e-001 0.000000e+000
    endloop
  endfacet
  facet normal -0.000000e+000 0.000000e+000 -1.000000e+000
    outer loop
      vertex   1.025452e+000 2.257190e-001 0.000000e+000
      vertex   -1.025452e+000 2.257190e-001 0.000000e+000
      vertex   9.950358e-001 3.352666e-001 0.000000e+000
    endloop
  endfacet
  facet normal 0.000000e+000 0.000000e+000 -1.000000e+000
    outer loop
      vertex   9.950358e-001 3.352666e-001 0.000000e+000
      vertex   -9.950358e-001 3.352666e-001 0.000000e+000
      vertex   9.529542e-001 4.408836e-001 0.000000e+000
    endloop
  endfacet
  facet normal -0.000000e+000 0.000000e+000 -1.000000e+000
    outer loop
      vertex   9.529542e-001 4.408836e-001 0.000000e+000
      vertex   -9.529542e-001 4.408836e-001 0.000000e+000
      vertex   8.997000e-001 5.413316e-001 0.000000e+000
    endloop
  endfacet
  facet normal 0.000000e+000 0.000000e+000 -1.000000e+000
    outer loop
      vertex   8.997000e-001 5.413316e-001 0.000000e+000
      vertex   -8.997000e-001 5.413316e-001 0.000000e+000
      vertex   8.358977e-001 6.354329e-001 0.000000e+000
    endloop
  endfacet
  facet normal 0.000000e+000 0.000000e+000 -1.000000e+000
    outer loop
      vertex   8.358977e-001 6.354329e-001 0.000000e+000
      vertex   -8.358977e-001 6.354329e-001 0.000000e+000
      vertex   7.622953e-001 7.220844e-001 0.000000e+000
    endloop
  endfacet
  facet normal 0.000000e+000 0.000000e+000 -1.000000e+000
    outer loop
      vertex   7.622953e-001 7.220844e-001 0.000000e+000
      vertex   -7.622953e-001 7.220844e-001 0.000000e+000
      vertex   6.797556e-001 8.002702e-001 0.000000e+000
    endloop
  endfacet
  facet normal 0.000000e+000 0.000000e+000 -1.000000e+000
    outer loop
      vertex   6.797556e-001 8.002702e-001 0.000000e+000
      vertex   -6.797556e-001 8.002702e-001 0.000000e+000
      vertex   5.892464e-001 8.690734e-001 0.000000e+000
    endloop
  endfacet
  facet normal 0.000000e+000 0.000000e+000 -1.000000e+000
    outer loop
      vertex   5.892464e-001 8.690734e-001 0.000000e+000
      vertex   -5.892464e-001 8.690734e-001 0.000000e+000
      vertex   4.918289e-001 9.276876e-001 0.000000e+000
    endloop
  endfacet
  facet normal 0.000000e+000 0.000000e+000 -1.000000e+000
    outer loop
      vertex   4.918289e-001 9.276876e-001 0.000000e+000
      vertex   -4.918289e-001 9.276876e-001 0.000000e+000
      vertex   3.886451e-001 9.754256e-001 0.000000e+000
    endloop
  endfacet
  facet normal -0.000000e+000 0.000000e+000 -1.000000e+000
    outer loop
      vertex   3.886451e-001 9.754256e-001 0.000000e+000
      vertex   -3.886451e-001 9.754256e-001 0.000000e+000
      vertex   2.809048e-001 1.011727e+000 0.000000e+000
    endloop
  endfacet
  facet normal 0.000000e+000 0.000000e+000 -1.000000e+000
    outer loop
      vertex   2.809048e-001 1.011727e+000 0.000000e+000
      vertex   -2.809048e-001 1.011727e+000 0.000000e+000
      vertex   1.698711e-001 1.036168e+000 0.000000e+000
    endloop
  endfacet
  facet normal 0.000000e+000 0.000000e+000 1.000000e+000
    outer loop
      vertex   1.043845e+000 1.135250e-001 3.000000e+000
      vertex   -1.043845e+000 1.135250e-001 3.000000e+000
      vertex   1.050000e+000 1.285879e-016 3.000000e+000
    endloop
  endfacet
  facet normal 0.000000e+000 0.000000e+000 1.000000e+000
    outer loop
      vertex   1.043845e+000 1.135250e-001 3.000000e+000
      vertex   -1.025452e+000 2.257190e-001 3.000000e+000
      vertex   -1.043845e+000 1.135250e-001 3.000000e+000
    endloop
  endfacet
  facet normal 0.000000e+000 0.000000e+000 1.000000e+000
    outer loop
      vertex   1.043845e+000 1.135250e-001 3.000000e+000
      vertex   1.025452e+000 2.257190e-001 3.000000e+000
      vertex   -1.025452e+000 2.257190e-001 3.000000e+000
    endloop
  endfacet
  facet normal 0.000000e+000 -0.000000e+000 1.000000e+000
    outer loop
      vertex   -1.025452e+000 2.257190e-001 3.000000e+000
      vertex   1.025452e+000 2.257190e-001 3.000000e+000
      vertex   -9.950358e-001 3.352666e-001 3.000000e+000
    endloop
  endfacet
  facet normal -0.000000e+000 -0.000000e+000 1.000000e+000
    outer loop
      vertex   -9.950358e-001 3.352666e-001 3.000000e+000
      vertex   1.025452e+000 2.257190e-001 3.000000e+000
      vertex   9.950358e-001 3.352666e-001 3.000000e+000
    endloop
  endfacet
  facet normal -0.000000e+000 -0.000000e+000 1.000000e+000
    outer loop
      vertex   -9.529542e-001 4.408836e-001 3.000000e+000
      vertex   9.950358e-001 3.352666e-001 3.000000e+000
      vertex   9.529542e-001 4.408836e-001 3.000000e+000
    endloop
  endfacet
  facet normal -0.000000e+000 -0.000000e+000 1.000000e+000
    outer loop
      vertex   -8.997000e-001 5.413316e-001 3.000000e+000
      vertex   9.529542e-001 4.408836e-001 3.000000e+000
      vertex   8.997000e-001 5.413316e-001 3.000000e+000
    endloop
  endfacet
  facet normal -0.000000e+000 -0.000000e+000 1.000000e+000
    outer loop
      vertex   -8.358977e-001 6.354329e-001 3.000000e+000
      vertex   8.997000e-001 5.413316e-001 3.000000e+000
      vertex   8.358977e-001 6.354329e-001 3.000000e+000
    endloop
  endfacet
  facet normal -0.000000e+000 -0.000000e+000 1.000000e+000
    outer loop
      vertex   -7.622953e-001 7.220844e-001 3.000000e+000
      vertex   8.358977e-001 6.354329e-001 3.000000e+000
      vertex   7.622953e-001 7.220844e-001 3.000000e+000
    endloop
  endfacet
  facet normal -0.000000e+000 -0.000000e+000 1.000000e+000
    outer loop
      vertex   -6.797556e-001 8.002702e-001 3.000000e+000
      vertex   7.622953e-001 7.220844e-001 3.000000e+000
      vertex   6.797556e-001 8.002702e-001 3.000000e+000
    endloop
  endfacet
  facet normal -0.000000e+000 -0.000000e+000 1.000000e+000
    outer loop
      vertex   -5.892464e-001 8.690734e-001 3.000000e+000
      vertex   6.797556e-001 8.002702e-001 3.000000e+000
      vertex   5.892464e-001 8.690734e-001 3.000000e+000
    endloop
  endfacet
  facet normal -0.000000e+000 -0.000000e+000 1.000000e+000
    outer loop
      vertex   -4.918289e-001 9.276876e-001 3.000000e+000
      vertex   5.892464e-001 8.690734e-001 3.000000e+000
      vertex   4.918289e-001 9.276876e-001 3.000000e+000
    endloop
  endfacet
  facet normal -0.000000e+000 -0.000000e+000 1.000000e+000
    outer loop
      vertex   -3.886451e-001 9.754256e-001 3.000000e+000
      vertex   4.918289e-001 9.276876e-001 3.000000e+000
      vertex   3.886451e-001 9.754256e-001 3.000000e+000
    endloop
  endfacet
  facet normal -0.000000e+000 -0.000000e+000 1.000000e+000
    outer loop
      vertex   -2.809048e-001 1.011727e+000 3.000000e+000
      vertex   3.886451e-001 9.754256e-001 3.000000e+000
      vertex   2.809048e-001 1.011727e+000 3.000000e+000
    endloop
  endfacet
  facet normal -0.000000e+000 -0.000000e+000 1.000000e+000
    outer loop
      vertex   -1.698711e-001 1.036168e+000 3.000000e+000
      vertex   2.809048e-001 1.011727e+000 3.000000e+000
      vertex   1.698711e-001 1.036168e+000 3.000000e+000
    endloop
  endfacet
  facet normal -0.000000e+000 -0.000000e+000 1.000000e+000
    outer loop
      vertex   -5.684585e-002 1.048460e+000 3.000000e+000
      vertex   1.698711e-001 1.036168e+000 3.000000e+000
      vertex   5.684585e-002 1.048460e+000 3.000000e+000
    endloop
  endfacet
  facet normal -0.000000e+000 0.000000e+000 1.000000e+000
    outer loop
      vertex   -5.684585e-002 1.048460e+000 3.000000e+000
      vertex   -1.698711e-001 1.036168e+000 3.000000e+000
      vertex   1.698711e-001 1.036168e+000 3.000000e+000
    endloop
  endfacet
  facet normal 0.000000e+000 -0.000000e+000 1.000000e+000
    outer loop
      vertex   -9.950358e-001 3.352666e-001 3.000000e+000
      vertex   9.950358e-001 3.352666e-001 3.000000e+000
      vertex   -9.529542e-001 4.408836e-001 3.000000e+000
    endloop
  endfacet
  facet normal 0.000000e+000 -0.000000e+000 1.000000e+000
    outer loop
      vertex   -9.529542e-001 4.408836e-001 3.000000e+000
      vertex   9.529542e-001 4.408836e-001 3.000000e+000
      vertex   -8.997000e-001 5.413316e-001 3.000000e+000
    endloop
  endfacet
  facet normal 0.000000e+000 -0.000000e+000 1.000000e+000
    outer loop
      vertex   -8.997000e-001 5.413316e-001 3.000000e+000
      vertex   8.997000e-001 5.413316e-001 3.000000e+000
      vertex   -8.358977e-001 6.354329e-001 3.000000e+000
    endloop
  endfacet
  facet normal 0.000000e+000 -0.000000e+000 1.000000e+000
    outer loop
      vertex   -8.358977e-001 6.354329e-001 3.000000e+000
      vertex   8.358977e-001 6.354329e-001 3.000000e+000
      vertex   -7.622953e-001 7.220844e-001 3.000000e+000
    endloop
  endfacet
  facet normal 0.000000e+000 -0.000000e+000 1.000000e+000
    outer loop
      vertex   -7.622953e-001 7.220844e-001 3.000000e+000
      vertex   7.622953e-001 7.220844e-001 3.000000e+000
      vertex   -6.797556e-001 8.002702e-001 3.000000e+000
    endloop
  endfacet
  facet normal 0.000000e+000 -0.000000e+000 1.000000e+000
    outer loop
      vertex   -6.797556e-001 8.002702e-001 3.000000e+000
      vertex   6.797556e-001 8.002702e-001 3.000000e+000
      vertex   -5.892464e-001 8.690734e-001 3.000000e+000
    endloop
  endfacet
  facet normal 0.000000e+000 -0.000000e+000 1.000000e+000
    outer loop
      vertex   -5.892464e-001 8.690734e-001 3.000000e+000
      vertex   5.892464e-001 8.690734e-001 3.000000e+000
      vertex   -4.918289e-001 9.276876e-001 3.000000e+000
    endloop
  endfacet
  facet normal 0.000000e+000 -0.000000e+000 1.000000e+000
    outer loop
      vertex   -4.918289e-001 9.276876e-001 3.000000e+000
      vertex   4.918289e-001 9.276876e-001 3.000000e+000
      vertex   -3.886451e-001 9.754256e-001 3.000000e+000
    endloop
  endfacet
  facet normal 0.000000e+000 -0.000000e+000 1.000000e+000
    outer loop
      vertex   -3.886451e-001 9.754256e-001 3.000000e+000
      vertex   3.886451e-001 9.754256e-001 3.000000e+000
      vertex   -2.809048e-001 1.011727e+000 3.000000e+000
    endloop
  endfacet
  facet normal 0.000000e+000 -0.000000e+000 1.000000e+000
    outer loop
      vertex   -2.809048e-001 1.011727e+000 3.000000e+000
      vertex   2.809048e-001 1.011727e+000 3.000000e+000
      vertex   -1.698711e-001 1.036168e+000 3.000000e+000
    endloop
  endfacet
  facet normal -0.000000e+000 0.000000e+000 1.000000e+000
    outer loop
      vertex   -1.043845e+000 1.135250e-001 3.000000e+000
      vertex   -1.050000e+000 0.000000e+000 3.000000e+000
      vertex   1.050000e+000 1.285879e-016 3.000000e+000
    endloop
  endfacet
  facet normal 0.000000e+000 0.000000e+000 1.000000e+000
    outer loop
      vertex   1.050000e+000 1.285879e-016 3.000000e+000
      vertex   -1.050000e+000 0.000000e+000 3.000000e+000
      vertex   1.043845e+000 -1.135250e-001 3.000000e+000
    endloop
  endfacet
  facet normal 0.000000e+000 0.000000e+000 1.000000e+000
    outer loop
      vertex   1.043845e+000 -1.135250e-001 3.000000e+000
      vertex   -1.050000e+000 0.000000e+000 3.000000e+000
      vertex   -1.043845e+000 -1.135250e-001 3.000000e+000
    endloop
  endfacet
  facet normal 0.000000e+000 0.000000e+000 1.000000e+000
    outer loop
      vertex   1.025452e+000 -2.257190e-001 3.000000e+000
      vertex   -1.043845e+000 -1.135250e-001 3.000000e+000
      vertex   -1.025452e+000 -2.257190e-001 3.000000e+000
    endloop
  endfacet
  facet normal 0.000000e+000 0.000000e+000 1.000000e+000
    outer loop
      vertex   9.950358e-001 -3.352666e-001 3.000000e+000
      vertex   -1.025452e+000 -2.257190e-001 3.000000e+000
      vertex   -9.950358e-001 -3.352666e-001 3.000000e+000
    endloop
  endfacet
  facet normal 0.000000e+000 0.000000e+000 1.000000e+000
    outer loop
      vertex   9.529542e-001 -4.408836e-001 3.000000e+000
      vertex   -9.950358e-001 -3.352666e-001 3.000000e+000
      vertex   -9.529542e-001 -4.408836e-001 3.000000e+000
    endloop
  endfacet
  facet normal 0.000000e+000 0.000000e+000 1.000000e+000
    outer loop
      vertex   8.997000e-001 -5.413316e-001 3.000000e+000
      vertex   -9.529542e-001 -4.408836e-001 3.000000e+000
      vertex   -8.997000e-001 -5.413316e-001 3.000000e+000
    endloop
  endfacet
  facet normal 0.000000e+000 0.000000e+000 1.000000e+000
    outer loop
      vertex   8.358977e-001 -6.354329e-001 3.000000e+000
      vertex   -8.997000e-001 -5.413316e-001 3.000000e+000
      vertex   -8.358977e-001 -6.354329e-001 3.000000e+000
    endloop
  endfacet
  facet normal 0.000000e+000 0.000000e+000 1.000000e+000
    outer loop
      vertex   7.622953e-001 -7.220844e-001 3.000000e+000
      vertex   -8.358977e-001 -6.354329e-001 3.000000e+000
      vertex   -7.622953e-001 -7.220844e-001 3.000000e+000
    endloop
  endfacet
  facet normal 0.000000e+000 0.000000e+000 1.000000e+000
    outer loop
      vertex   6.797556e-001 -8.002702e-001 3.000000e+000
      vertex   -7.622953e-001 -7.220844e-001 3.000000e+000
      vertex   -6.797556e-001 -8.002702e-001 3.000000e+000
    endloop
  endfacet
  facet normal 0.000000e+000 0.000000e+000 1.000000e+000
    outer loop
      vertex   5.892464e-001 -8.690734e-001 3.000000e+000
      vertex   -6.797556e-001 -8.002702e-001 3.000000e+000
      vertex   -5.892464e-001 -8.690734e-001 3.000000e+000
    endloop
  endfacet
  facet normal 0.000000e+000 0.000000e+000 1.000000e+000
    outer loop
      vertex   4.918289e-001 -9.276876e-001 3.000000e+000
      vertex   -5.892464e-001 -8.690734e-001 3.000000e+000
      vertex   -4.918289e-001 -9.276876e-001 3.000000e+000
    endloop
  endfacet
  facet normal 0.000000e+000 0.000000e+000 1.000000e+000
    outer loop
      vertex   3.886451e-001 -9.754256e-001 3.000000e+000
      vertex   -4.918289e-001 -9.276876e-001 3.000000e+000
      vertex   -3.886451e-001 -9.754256e-001 3.000000e+000
    endloop
  endfacet
  facet normal 0.000000e+000 0.000000e+000 1.000000e+000
    outer loop
      vertex   2.809048e-001 -1.011727e+000 3.000000e+000
      vertex   -3.886451e-001 -9.754256e-001 3.000000e+000
      vertex   -2.809048e-001 -1.011727e+000 3.000000e+000
    endloop
  endfacet
  facet normal 0.000000e+000 0.000000e+000 1.000000e+000
    outer loop
      vertex   1.698711e-001 -1.036168e+000 3.000000e+000
      vertex   -2.809048e-001 -1.011727e+000 3.000000e+000
      vertex   -1.698711e-001 -1.036168e+000 3.000000e+000
    endloop
  endfacet
  facet normal 0.000000e+000 0.000000e+000 1.000000e+000
    outer loop
      vertex   5.684585e-002 -1.048460e+000 3.000000e+000
      vertex   -1.698711e-001 -1.036168e+000 3.000000e+000
      vertex   -5.684585e-002 -1.048460e+000 3.000000e+000
    endloop
  endfacet
  facet normal 0.000000e+000 -0.000000e+000 1.000000e+000
    outer loop
      vertex   5.684585e-002 -1.048460e+000 3.000000e+000
      vertex   1.698711e-001 -1.036168e+000 3.000000e+000
      vertex   -1.698711e-001 -1.036168e+000 3.000000e+000
    endloop
  endfacet
  facet normal 0.000000e+000 0.000000e+000 1.000000e+000
    outer loop
      vertex   1.043845e+000 -1.135250e-001 3.000000e+000
      vertex   -1.043845e+000 -1.135250e-001 3.000000e+000
      vertex   1.025452e+000 -2.257190e-001 3.000000e+000
    endloop
  endfacet
  facet normal 0.000000e+000 0.000000e+000 1.000000e+000
    outer loop
      vertex   1.025452e+000 -2.257190e-001 3.000000e+000
      vertex   -1.025452e+000 -2.257190e-001 3.000000e+000
      vertex   9.950358e-001 -3.352666e-001 3.000000e+000
    endloop
  endfacet
  facet normal 0.000000e+000 0.000000e+000 1.000000e+000
    outer loop
      vertex   9.950358e-001 -3.352666e-001 3.000000e+000
      vertex   -9.950358e-001 -3.352666e-001 3.000000e+000
      vertex   9.529542e-001 -4.408836e-001 3.000000e+000
    endloop
  endfacet
  facet normal 0.000000e+000 0.000000e+000 1.000000e+000
    outer loop
      vertex   9.529542e-001 -4.408836e-001 3.000000e+000
      vertex   -9.529542e-001 -4.408836e-001 3.000000e+000
      vertex   8.997000e-001 -5.413316e-001 3.000000e+000
    endloop
  endfacet
  facet normal 0.000000e+000 0.000000e+000 1.000000e+000
    outer loop
      vertex   8.997000e-001 -5.413316e-001 3.000000e+000
      vertex   -8.997000e-001 -5.413316e-001 3.000000e+000
      vertex   8.358977e-001 -6.354329e-001 3.000000e+000
    endloop
  endfacet
  facet normal 0.000000e+000 0.000000e+000 1.000000e+000
    outer loop
      vertex   8.358977e-001 -6.354329e-001 3.000000e+000
      vertex   -8.358977e-001 -6.354329e-001 3.000000e+000
      vertex   7.622953e-001 -7.220844e-001 3.000000e+000
    endloop
  endfacet
  facet normal 0.000000e+000 0.000000e+000 1.000000e+000
    outer loop
      vertex   7.622953e-001 -7.220844e-001 3.000000e+000
      vertex   -7.622953e-001 -7.220844e-001 3.000000e+000
      vertex   6.797556e-001 -8.002702e-001 3.000000e+000
    endloop
  endfacet
  facet normal 0.000000e+000 0.000000e+000 1.000000e+000
    outer loop
      vertex   6.797556e-001 -8.002702e-001 3.000000e+000
      vertex   -6.797556e-001 -8.002702e-001 3.000000e+000
      vertex   5.892464e-001 -8.690734e-001 3.000000e+000
    endloop
  endfacet
  facet normal 0.000000e+000 0.000000e+000 1.000000e+000
    outer loop
      vertex   5.892464e-001 -8.690734e-001 3.000000e+000
      vertex   -5.892464e-001 -8.690734e-001 3.000000e+000
      vertex   4.918289e-001 -9.276876e-001 3.000000e+000
    endloop
  endfacet
  facet normal 0.000000e+000 0.000000e+000 1.000000e+000
    outer loop
      vertex   4.918289e-001 -9.276876e-001 3.000000e+000
      vertex   -4.918289e-001 -9.276876e-001 3.000000e+000
      vertex   3.886451e-001 -9.754256e-001 3.000000e+000
    endloop
  endfacet
  facet normal 0.000000e+000 0.000000e+000 1.000000e+000
    outer loop
      vertex   3.886451e-001 -9.754256e-001 3.000000e+000
      vertex   -3.886451e-001 -9.754256e-001 3.000000e+000
      vertex   2.809048e-001 -1.011727e+000 3.000000e+000
    endloop
  endfacet
  facet normal 0.000000e+000 0.000000e+000 1.000000e+000
    outer loop
      vertex   2.809048e-001 -1.011727e+000 3.000000e+000
      vertex   -2.809048e-001 -1.011727e+000 3.000000e+000
      vertex   1.698711e-001 -1.036168e+000 3.000000e+000
    endloop
  endfacet
endsolid
