solid 
facet normal 0.000000 0.000000 1.000000
outer loop
vertex -99.01430000 335.71180000 76.20000000
vertex -152.00120000 333.63660000 76.20000000
vertex -98.74500000 332.83650000 76.20000000
endloop
endfacet
facet normal 0.000000 0.000000 1.000000
outer loop
vertex -98.74500000 332.83650000 76.20000000
vertex -152.00120000 333.63660000 76.20000000
vertex -152.04440000 330.74860000 76.20000000
endloop
endfacet
facet normal 0.000000 0.000000 1.000000
outer loop
vertex -98.74500000 332.83650000 76.20000000
vertex -152.04440000 330.74860000 76.20000000
vertex -98.78820000 329.94850000 76.20000000
endloop
endfacet
facet normal 0.000000 0.000000 1.000000
outer loop
vertex -98.78820000 329.94850000 76.20000000
vertex -152.04440000 330.74860000 76.20000000
vertex -151.77520000 327.87340000 76.20000000
endloop
endfacet
facet normal 0.000000 0.000000 1.000000
outer loop
vertex -98.78820000 329.94850000 76.20000000
vertex -151.77520000 327.87340000 76.20000000
vertex -99.14380000 327.08340000 76.20000000
endloop
endfacet
facet normal 0.000000 0.000000 1.000000
outer loop
vertex -99.14380000 327.08340000 76.20000000
vertex -151.77520000 327.87340000 76.20000000
vertex -151.19600000 325.04380000 76.20000000
endloop
endfacet
facet normal 0.000000 0.000000 1.000000
outer loop
vertex -99.14380000 327.08340000 76.20000000
vertex -151.19600000 325.04380000 76.20000000
vertex -99.80680000 324.27160000 76.20000000
endloop
endfacet
facet normal 0.000000 0.000000 1.000000
outer loop
vertex -99.80680000 324.27160000 76.20000000
vertex -151.19600000 325.04380000 76.20000000
vertex -150.31720000 322.29300000 76.20000000
endloop
endfacet
facet normal 0.000000 0.000000 1.000000
outer loop
vertex -99.80680000 324.27160000 76.20000000
vertex -150.31720000 322.29300000 76.20000000
vertex -100.76940000 321.54880000 76.20000000
endloop
endfacet
facet normal 0.000000 0.000000 1.000000
outer loop
vertex -100.76940000 321.54880000 76.20000000
vertex -150.31720000 322.29300000 76.20000000
vertex -149.14370000 319.65650000 76.20000000
endloop
endfacet
facet normal 0.000000 0.000000 1.000000
outer loop
vertex -100.76940000 321.54880000 76.20000000
vertex -149.14370000 319.65650000 76.20000000
vertex -102.02160000 318.94780000 76.20000000
endloop
endfacet
facet normal 0.000000 0.000000 1.000000
outer loop
vertex -102.02160000 318.94780000 76.20000000
vertex -149.14370000 319.65650000 76.20000000
vertex -147.69080000 317.15960000 76.20000000
endloop
endfacet
facet normal 0.000000 0.000000 1.000000
outer loop
vertex -102.02160000 318.94780000 76.20000000
vertex -147.69080000 317.15960000 76.20000000
vertex -103.54820000 316.49420000 76.20000000
endloop
endfacet
facet normal 0.000000 0.000000 1.000000
outer loop
vertex -103.54820000 316.49420000 76.20000000
vertex -147.69080000 317.15960000 76.20000000
vertex -145.97890000 314.83300000 76.20000000
endloop
endfacet
facet normal 0.000000 0.000000 1.000000
outer loop
vertex -103.54820000 316.49420000 76.20000000
vertex -145.97890000 314.83300000 76.20000000
vertex -105.32870000 314.22340000 76.20000000
endloop
endfacet
facet normal 0.000000 0.000000 1.000000
outer loop
vertex -105.32870000 314.22340000 76.20000000
vertex -145.97890000 314.83300000 76.20000000
vertex -144.02560000 312.70700000 76.20000000
endloop
endfacet
facet normal 0.000000 0.000000 1.000000
outer loop
vertex -105.32870000 314.22340000 76.20000000
vertex -144.02560000 312.70700000 76.20000000
vertex -107.34550000 312.15580000 76.20000000
endloop
endfacet
facet normal 0.000000 0.000000 1.000000
outer loop
vertex -107.34550000 312.15580000 76.20000000
vertex -144.02560000 312.70700000 76.20000000
vertex -141.85140000 310.80460000 76.20000000
endloop
endfacet
facet normal 0.000000 0.000000 1.000000
outer loop
vertex -107.34550000 312.15580000 76.20000000
vertex -141.85140000 310.80460000 76.20000000
vertex -109.57560000 310.31940000 76.20000000
endloop
endfacet
facet normal 0.000000 0.000000 1.000000
outer loop
vertex -109.57560000 310.31940000 76.20000000
vertex -141.85140000 310.80460000 76.20000000
vertex -139.48660000 309.14850000 76.20000000
endloop
endfacet
facet normal 0.000000 0.000000 1.000000
outer loop
vertex -109.57560000 310.31940000 76.20000000
vertex -139.48660000 309.14850000 76.20000000
vertex -111.98860000 308.73700000 76.20000000
endloop
endfacet
facet normal 0.000000 0.000000 1.000000
outer loop
vertex -111.98860000 308.73700000 76.20000000
vertex -139.48660000 309.14850000 76.20000000
vertex -136.95680000 307.75910000 76.20000000
endloop
endfacet
facet normal 0.000000 0.000000 1.000000
outer loop
vertex -111.98860000 308.73700000 76.20000000
vertex -136.95680000 307.75910000 76.20000000
vertex -114.56160000 307.42130000 76.20000000
endloop
endfacet
facet normal 0.000000 0.000000 1.000000
outer loop
vertex -114.56160000 307.42130000 76.20000000
vertex -136.95680000 307.75910000 76.20000000
vertex -134.28980000 306.64910000 76.20000000
endloop
endfacet
facet normal 0.000000 0.000000 1.000000
outer loop
vertex -114.56160000 307.42130000 76.20000000
vertex -134.28980000 306.64910000 76.20000000
vertex -117.25910000 306.39260000 76.20000000
endloop
endfacet
facet normal 0.000000 0.000000 1.000000
outer loop
vertex -117.25910000 306.39260000 76.20000000
vertex -134.28980000 306.64910000 76.20000000
vertex -131.51870000 305.83380000 76.20000000
endloop
endfacet
facet normal 0.000000 0.000000 1.000000
outer loop
vertex -117.25910000 306.39260000 76.20000000
vertex -131.51870000 305.83380000 76.20000000
vertex -120.05310000 305.66360000 76.20000000
endloop
endfacet
facet normal 0.000000 0.000000 1.000000
outer loop
vertex -120.05310000 305.66360000 76.20000000
vertex -131.51870000 305.83380000 76.20000000
vertex -128.67640000 305.32580000 76.20000000
endloop
endfacet
facet normal 0.000000 0.000000 1.000000
outer loop
vertex -120.05310000 305.66360000 76.20000000
vertex -128.67640000 305.32580000 76.20000000
vertex -122.91060000 305.23940000 76.20000000
endloop
endfacet
facet normal 0.000000 0.000000 1.000000
outer loop
vertex -122.91060000 305.23940000 76.20000000
vertex -128.67640000 305.32580000 76.20000000
vertex -125.79600000 305.12510000 76.20000000
endloop
endfacet
facet normal 0.000000 -0.000000 1.000000
outer loop
vertex -152.00120000 333.63660000 76.20000000
vertex -99.01430000 335.71180000 76.20000000
vertex -151.64560000 336.50170000 76.20000000
endloop
endfacet
facet normal -0.000000 -0.000000 1.000000
outer loop
vertex -151.64560000 336.50170000 76.20000000
vertex -99.01430000 335.71180000 76.20000000
vertex -99.59340000 338.54140000 76.20000000
endloop
endfacet
facet normal 0.000000 -0.000000 1.000000
outer loop
vertex -151.64560000 336.50170000 76.20000000
vertex -99.59340000 338.54140000 76.20000000
vertex -150.98270000 339.31350000 76.20000000
endloop
endfacet
facet normal -0.000000 -0.000000 1.000000
outer loop
vertex -150.98270000 339.31350000 76.20000000
vertex -99.59340000 338.54140000 76.20000000
vertex -100.47220000 341.28960000 76.20000000
endloop
endfacet
facet normal 0.000000 -0.000000 1.000000
outer loop
vertex -150.98270000 339.31350000 76.20000000
vertex -100.47220000 341.28960000 76.20000000
vertex -150.02000000 342.03390000 76.20000000
endloop
endfacet
facet normal -0.000000 -0.000000 1.000000
outer loop
vertex -150.02000000 342.03390000 76.20000000
vertex -100.47220000 341.28960000 76.20000000
vertex -101.64570000 343.92870000 76.20000000
endloop
endfacet
facet normal 0.000000 -0.000000 1.000000
outer loop
vertex -150.02000000 342.03390000 76.20000000
vertex -101.64570000 343.92870000 76.20000000
vertex -148.76780000 344.63740000 76.20000000
endloop
endfacet
facet normal -0.000000 -0.000000 1.000000
outer loop
vertex -148.76780000 344.63740000 76.20000000
vertex -101.64570000 343.92870000 76.20000000
vertex -103.09860000 346.42550000 76.20000000
endloop
endfacet
facet normal 0.000000 -0.000000 1.000000
outer loop
vertex -148.76780000 344.63740000 76.20000000
vertex -103.09860000 346.42550000 76.20000000
vertex -147.24130000 347.08850000 76.20000000
endloop
endfacet
facet normal -0.000000 -0.000000 1.000000
outer loop
vertex -147.24130000 347.08850000 76.20000000
vertex -103.09860000 346.42550000 76.20000000
vertex -104.81060000 348.74960000 76.20000000
endloop
endfacet
facet normal 0.000000 -0.000000 1.000000
outer loop
vertex -147.24130000 347.08850000 76.20000000
vertex -104.81060000 348.74960000 76.20000000
vertex -145.46070000 349.36180000 76.20000000
endloop
endfacet
facet normal -0.000000 -0.000000 1.000000
outer loop
vertex -145.46070000 349.36180000 76.20000000
vertex -104.81060000 348.74960000 76.20000000
vertex -106.76380000 350.87560000 76.20000000
endloop
endfacet
facet normal 0.000000 -0.000000 1.000000
outer loop
vertex -145.46070000 349.36180000 76.20000000
vertex -106.76380000 350.87560000 76.20000000
vertex -143.44140000 351.42680000 76.20000000
endloop
endfacet
facet normal -0.000000 -0.000000 1.000000
outer loop
vertex -143.44140000 351.42680000 76.20000000
vertex -106.76380000 350.87560000 76.20000000
vertex -108.93810000 352.77810000 76.20000000
endloop
endfacet
facet normal 0.000000 -0.000000 1.000000
outer loop
vertex -143.44140000 351.42680000 76.20000000
vertex -108.93810000 352.77810000 76.20000000
vertex -141.21380000 353.26320000 76.20000000
endloop
endfacet
facet normal -0.000000 -0.000000 1.000000
outer loop
vertex -141.21380000 353.26320000 76.20000000
vertex -108.93810000 352.77810000 76.20000000
vertex -111.30280000 354.43670000 76.20000000
endloop
endfacet
facet normal 0.000000 -0.000000 1.000000
outer loop
vertex -141.21380000 353.26320000 76.20000000
vertex -111.30280000 354.43670000 76.20000000
vertex -138.79830000 354.84820000 76.20000000
endloop
endfacet
facet normal -0.000000 -0.000000 1.000000
outer loop
vertex -138.79830000 354.84820000 76.20000000
vertex -111.30280000 354.43670000 76.20000000
vertex -113.83260000 355.82610000 76.20000000
endloop
endfacet
facet normal 0.000000 -0.000000 1.000000
outer loop
vertex -138.79830000 354.84820000 76.20000000
vertex -113.83260000 355.82610000 76.20000000
vertex -136.22780000 356.16390000 76.20000000
endloop
endfacet
facet normal -0.000000 -0.000000 1.000000
outer loop
vertex -136.22780000 356.16390000 76.20000000
vertex -113.83260000 355.82610000 76.20000000
vertex -116.49960000 356.93600000 76.20000000
endloop
endfacet
facet normal 0.000000 -0.000000 1.000000
outer loop
vertex -136.22780000 356.16390000 76.20000000
vertex -116.49960000 356.93600000 76.20000000
vertex -133.53030000 357.19000000 76.20000000
endloop
endfacet
facet normal -0.000000 -0.000000 1.000000
outer loop
vertex -133.53030000 357.19000000 76.20000000
vertex -116.49960000 356.93600000 76.20000000
vertex -119.27080000 357.74880000 76.20000000
endloop
endfacet
facet normal 0.000000 -0.000000 1.000000
outer loop
vertex -133.53030000 357.19000000 76.20000000
vertex -119.27080000 357.74880000 76.20000000
vertex -130.73630000 357.92160000 76.20000000
endloop
endfacet
facet normal -0.000000 -0.000000 1.000000
outer loop
vertex -130.73630000 357.92160000 76.20000000
vertex -119.27080000 357.74880000 76.20000000
vertex -122.11300000 358.25940000 76.20000000
endloop
endfacet
facet normal 0.000000 -0.000000 1.000000
outer loop
vertex -130.73630000 357.92160000 76.20000000
vertex -122.11300000 358.25940000 76.20000000
vertex -127.87880000 358.34570000 76.20000000
endloop
endfacet
facet normal -0.000000 -0.000000 1.000000
outer loop
vertex -127.87880000 358.34570000 76.20000000
vertex -122.11300000 358.25940000 76.20000000
vertex -124.99340000 358.46000000 76.20000000
endloop
endfacet
facet normal -0.000000 0.000000 -1.000000
outer loop
vertex -98.74500000 332.83650000 0.00000000
vertex -98.78820000 329.94850000 0.00000000
vertex -99.01430000 335.71180000 0.00000000
endloop
endfacet
facet normal -0.000000 -0.000000 -1.000000
outer loop
vertex -99.01430000 335.71180000 0.00000000
vertex -98.78820000 329.94850000 0.00000000
vertex -99.59340000 338.54140000 0.00000000
endloop
endfacet
facet normal 0.000000 -0.000000 -1.000000
outer loop
vertex -99.59340000 338.54140000 0.00000000
vertex -98.78820000 329.94850000 0.00000000
vertex -99.14380000 327.08340000 0.00000000
endloop
endfacet
facet normal -0.000000 -0.000000 -1.000000
outer loop
vertex -99.59340000 338.54140000 0.00000000
vertex -99.14380000 327.08340000 0.00000000
vertex -100.47220000 341.28960000 0.00000000
endloop
endfacet
facet normal 0.000000 -0.000000 -1.000000
outer loop
vertex -100.47220000 341.28960000 0.00000000
vertex -99.14380000 327.08340000 0.00000000
vertex -99.80680000 324.27160000 0.00000000
endloop
endfacet
facet normal -0.000000 -0.000000 -1.000000
outer loop
vertex -100.47220000 341.28960000 0.00000000
vertex -99.80680000 324.27160000 0.00000000
vertex -101.64570000 343.92870000 0.00000000
endloop
endfacet
facet normal 0.000000 -0.000000 -1.000000
outer loop
vertex -101.64570000 343.92870000 0.00000000
vertex -99.80680000 324.27160000 0.00000000
vertex -100.76940000 321.54880000 0.00000000
endloop
endfacet
facet normal -0.000000 -0.000000 -1.000000
outer loop
vertex -101.64570000 343.92870000 0.00000000
vertex -100.76940000 321.54880000 0.00000000
vertex -103.09860000 346.42550000 0.00000000
endloop
endfacet
facet normal 0.000000 -0.000000 -1.000000
outer loop
vertex -103.09860000 346.42550000 0.00000000
vertex -100.76940000 321.54880000 0.00000000
vertex -102.02160000 318.94780000 0.00000000
endloop
endfacet
facet normal -0.000000 -0.000000 -1.000000
outer loop
vertex -103.09860000 346.42550000 0.00000000
vertex -102.02160000 318.94780000 0.00000000
vertex -104.81060000 348.74960000 0.00000000
endloop
endfacet
facet normal 0.000000 -0.000000 -1.000000
outer loop
vertex -104.81060000 348.74960000 0.00000000
vertex -102.02160000 318.94780000 0.00000000
vertex -103.54820000 316.49420000 0.00000000
endloop
endfacet
facet normal -0.000000 -0.000000 -1.000000
outer loop
vertex -104.81060000 348.74960000 0.00000000
vertex -103.54820000 316.49420000 0.00000000
vertex -106.76380000 350.87560000 0.00000000
endloop
endfacet
facet normal 0.000000 -0.000000 -1.000000
outer loop
vertex -106.76380000 350.87560000 0.00000000
vertex -103.54820000 316.49420000 0.00000000
vertex -105.32870000 314.22340000 0.00000000
endloop
endfacet
facet normal -0.000000 -0.000000 -1.000000
outer loop
vertex -106.76380000 350.87560000 0.00000000
vertex -105.32870000 314.22340000 0.00000000
vertex -108.93810000 352.77810000 0.00000000
endloop
endfacet
facet normal 0.000000 -0.000000 -1.000000
outer loop
vertex -108.93810000 352.77810000 0.00000000
vertex -105.32870000 314.22340000 0.00000000
vertex -107.34550000 312.15580000 0.00000000
endloop
endfacet
facet normal -0.000000 -0.000000 -1.000000
outer loop
vertex -108.93810000 352.77810000 0.00000000
vertex -107.34550000 312.15580000 0.00000000
vertex -111.30280000 354.43670000 0.00000000
endloop
endfacet
facet normal 0.000000 -0.000000 -1.000000
outer loop
vertex -111.30280000 354.43670000 0.00000000
vertex -107.34550000 312.15580000 0.00000000
vertex -109.57560000 310.31940000 0.00000000
endloop
endfacet
facet normal -0.000000 -0.000000 -1.000000
outer loop
vertex -111.30280000 354.43670000 0.00000000
vertex -109.57560000 310.31940000 0.00000000
vertex -113.83260000 355.82610000 0.00000000
endloop
endfacet
facet normal 0.000000 -0.000000 -1.000000
outer loop
vertex -113.83260000 355.82610000 0.00000000
vertex -109.57560000 310.31940000 0.00000000
vertex -111.98860000 308.73700000 0.00000000
endloop
endfacet
facet normal -0.000000 -0.000000 -1.000000
outer loop
vertex -113.83260000 355.82610000 0.00000000
vertex -111.98860000 308.73700000 0.00000000
vertex -116.49960000 356.93600000 0.00000000
endloop
endfacet
facet normal 0.000000 -0.000000 -1.000000
outer loop
vertex -116.49960000 356.93600000 0.00000000
vertex -111.98860000 308.73700000 0.00000000
vertex -114.56160000 307.42130000 0.00000000
endloop
endfacet
facet normal -0.000000 -0.000000 -1.000000
outer loop
vertex -116.49960000 356.93600000 0.00000000
vertex -114.56160000 307.42130000 0.00000000
vertex -119.27080000 357.74880000 0.00000000
endloop
endfacet
facet normal 0.000000 -0.000000 -1.000000
outer loop
vertex -119.27080000 357.74880000 0.00000000
vertex -114.56160000 307.42130000 0.00000000
vertex -117.25910000 306.39260000 0.00000000
endloop
endfacet
facet normal -0.000000 -0.000000 -1.000000
outer loop
vertex -119.27080000 357.74880000 0.00000000
vertex -117.25910000 306.39260000 0.00000000
vertex -122.11300000 358.25940000 0.00000000
endloop
endfacet
facet normal 0.000000 -0.000000 -1.000000
outer loop
vertex -122.11300000 358.25940000 0.00000000
vertex -117.25910000 306.39260000 0.00000000
vertex -120.05310000 305.66360000 0.00000000
endloop
endfacet
facet normal -0.000000 -0.000000 -1.000000
outer loop
vertex -122.11300000 358.25940000 0.00000000
vertex -120.05310000 305.66360000 0.00000000
vertex -124.99340000 358.46000000 0.00000000
endloop
endfacet
facet normal 0.000000 -0.000000 -1.000000
outer loop
vertex -124.99340000 358.46000000 0.00000000
vertex -120.05310000 305.66360000 0.00000000
vertex -122.91060000 305.23940000 0.00000000
endloop
endfacet
facet normal -0.000000 -0.000000 -1.000000
outer loop
vertex -124.99340000 358.46000000 0.00000000
vertex -122.91060000 305.23940000 0.00000000
vertex -127.87880000 358.34570000 0.00000000
endloop
endfacet
facet normal 0.000000 -0.000000 -1.000000
outer loop
vertex -127.87880000 358.34570000 0.00000000
vertex -122.91060000 305.23940000 0.00000000
vertex -125.79600000 305.12510000 0.00000000
endloop
endfacet
facet normal -0.000000 -0.000000 -1.000000
outer loop
vertex -127.87880000 358.34570000 0.00000000
vertex -125.79600000 305.12510000 0.00000000
vertex -130.73630000 357.92160000 0.00000000
endloop
endfacet
facet normal -0.000000 -0.000000 -1.000000
outer loop
vertex -130.73630000 357.92160000 0.00000000
vertex -125.79600000 305.12510000 0.00000000
vertex -128.67640000 305.32580000 0.00000000
endloop
endfacet
facet normal -0.000000 -0.000000 -1.000000
outer loop
vertex -130.73630000 357.92160000 0.00000000
vertex -128.67640000 305.32580000 0.00000000
vertex -133.53030000 357.19000000 0.00000000
endloop
endfacet
facet normal -0.000000 -0.000000 -1.000000
outer loop
vertex -133.53030000 357.19000000 0.00000000
vertex -128.67640000 305.32580000 0.00000000
vertex -131.51870000 305.83380000 0.00000000
endloop
endfacet
facet normal -0.000000 -0.000000 -1.000000
outer loop
vertex -133.53030000 357.19000000 0.00000000
vertex -131.51870000 305.83380000 0.00000000
vertex -136.22780000 356.16390000 0.00000000
endloop
endfacet
facet normal -0.000000 -0.000000 -1.000000
outer loop
vertex -136.22780000 356.16390000 0.00000000
vertex -131.51870000 305.83380000 0.00000000
vertex -134.28980000 306.64910000 0.00000000
endloop
endfacet
facet normal -0.000000 -0.000000 -1.000000
outer loop
vertex -136.22780000 356.16390000 0.00000000
vertex -134.28980000 306.64910000 0.00000000
vertex -138.79830000 354.84820000 0.00000000
endloop
endfacet
facet normal -0.000000 -0.000000 -1.000000
outer loop
vertex -138.79830000 354.84820000 0.00000000
vertex -134.28980000 306.64910000 0.00000000
vertex -136.95680000 307.75910000 0.00000000
endloop
endfacet
facet normal -0.000000 -0.000000 -1.000000
outer loop
vertex -138.79830000 354.84820000 0.00000000
vertex -136.95680000 307.75910000 0.00000000
vertex -141.21380000 353.26320000 0.00000000
endloop
endfacet
facet normal -0.000000 -0.000000 -1.000000
outer loop
vertex -141.21380000 353.26320000 0.00000000
vertex -136.95680000 307.75910000 0.00000000
vertex -139.48660000 309.14850000 0.00000000
endloop
endfacet
facet normal -0.000000 -0.000000 -1.000000
outer loop
vertex -141.21380000 353.26320000 0.00000000
vertex -139.48660000 309.14850000 0.00000000
vertex -143.44140000 351.42680000 0.00000000
endloop
endfacet
facet normal -0.000000 -0.000000 -1.000000
outer loop
vertex -143.44140000 351.42680000 0.00000000
vertex -139.48660000 309.14850000 0.00000000
vertex -141.85140000 310.80460000 0.00000000
endloop
endfacet
facet normal -0.000000 -0.000000 -1.000000
outer loop
vertex -143.44140000 351.42680000 0.00000000
vertex -141.85140000 310.80460000 0.00000000
vertex -145.46070000 349.36180000 0.00000000
endloop
endfacet
facet normal -0.000000 -0.000000 -1.000000
outer loop
vertex -145.46070000 349.36180000 0.00000000
vertex -141.85140000 310.80460000 0.00000000
vertex -144.02560000 312.70700000 0.00000000
endloop
endfacet
facet normal -0.000000 -0.000000 -1.000000
outer loop
vertex -145.46070000 349.36180000 0.00000000
vertex -144.02560000 312.70700000 0.00000000
vertex -147.24130000 347.08850000 0.00000000
endloop
endfacet
facet normal -0.000000 -0.000000 -1.000000
outer loop
vertex -147.24130000 347.08850000 0.00000000
vertex -144.02560000 312.70700000 0.00000000
vertex -145.97890000 314.83300000 0.00000000
endloop
endfacet
facet normal -0.000000 -0.000000 -1.000000
outer loop
vertex -147.24130000 347.08850000 0.00000000
vertex -145.97890000 314.83300000 0.00000000
vertex -148.76780000 344.63740000 0.00000000
endloop
endfacet
facet normal -0.000000 -0.000000 -1.000000
outer loop
vertex -148.76780000 344.63740000 0.00000000
vertex -145.97890000 314.83300000 0.00000000
vertex -147.69080000 317.15960000 0.00000000
endloop
endfacet
facet normal -0.000000 -0.000000 -1.000000
outer loop
vertex -148.76780000 344.63740000 0.00000000
vertex -147.69080000 317.15960000 0.00000000
vertex -150.02000000 342.03390000 0.00000000
endloop
endfacet
facet normal -0.000000 -0.000000 -1.000000
outer loop
vertex -150.02000000 342.03390000 0.00000000
vertex -147.69080000 317.15960000 0.00000000
vertex -149.14370000 319.65650000 0.00000000
endloop
endfacet
facet normal -0.000000 -0.000000 -1.000000
outer loop
vertex -150.02000000 342.03390000 0.00000000
vertex -149.14370000 319.65650000 0.00000000
vertex -150.98270000 339.31350000 0.00000000
endloop
endfacet
facet normal -0.000000 -0.000000 -1.000000
outer loop
vertex -150.98270000 339.31350000 0.00000000
vertex -149.14370000 319.65650000 0.00000000
vertex -150.31720000 322.29300000 0.00000000
endloop
endfacet
facet normal -0.000000 -0.000000 -1.000000
outer loop
vertex -150.98270000 339.31350000 0.00000000
vertex -150.31720000 322.29300000 0.00000000
vertex -151.64560000 336.50170000 0.00000000
endloop
endfacet
facet normal -0.000000 -0.000000 -1.000000
outer loop
vertex -151.64560000 336.50170000 0.00000000
vertex -150.31720000 322.29300000 0.00000000
vertex -151.19600000 325.04380000 0.00000000
endloop
endfacet
facet normal -0.000000 -0.000000 -1.000000
outer loop
vertex -151.64560000 336.50170000 0.00000000
vertex -151.19600000 325.04380000 0.00000000
vertex -152.00120000 333.63660000 0.00000000
endloop
endfacet
facet normal -0.000000 -0.000000 -1.000000
outer loop
vertex -152.00120000 333.63660000 0.00000000
vertex -151.19600000 325.04380000 0.00000000
vertex -151.77520000 327.87340000 0.00000000
endloop
endfacet
facet normal -0.000000 -0.000000 -1.000000
outer loop
vertex -152.00120000 333.63660000 0.00000000
vertex -151.77520000 327.87340000 0.00000000
vertex -152.04440000 330.74860000 0.00000000
endloop
endfacet
facet normal 0.999888 -0.014957 0.000000
outer loop
vertex -98.78820000 329.94850000 76.20000000
vertex -98.78820000 329.94850000 0.00000000
vertex -98.74500000 332.83650000 76.20000000
endloop
endfacet
facet normal 0.999888 -0.014957 0.000000
outer loop
vertex -98.74500000 332.83650000 76.20000000
vertex -98.78820000 329.94850000 0.00000000
vertex -98.74500000 332.83650000 0.00000000
endloop
endfacet
facet normal 0.995643 0.093252 0.000000
outer loop
vertex -98.74500000 332.83650000 76.20000000
vertex -98.74500000 332.83650000 0.00000000
vertex -99.01430000 335.71180000 76.20000000
endloop
endfacet
facet normal 0.995643 0.093252 0.000000
outer loop
vertex -99.01430000 335.71180000 76.20000000
vertex -98.74500000 332.83650000 0.00000000
vertex -99.01430000 335.71180000 0.00000000
endloop
endfacet
facet normal 0.979693 0.200502 0.000000
outer loop
vertex -99.01430000 335.71180000 76.20000000
vertex -99.01430000 335.71180000 0.00000000
vertex -99.59340000 338.54140000 76.20000000
endloop
endfacet
facet normal 0.979693 0.200502 0.000000
outer loop
vertex -99.59340000 338.54140000 76.20000000
vertex -99.01430000 335.71180000 0.00000000
vertex -99.59340000 338.54140000 0.00000000
endloop
endfacet
facet normal 0.952487 0.304580 0.000000
outer loop
vertex -99.59340000 338.54140000 76.20000000
vertex -99.59340000 338.54140000 0.00000000
vertex -100.47220000 341.28960000 76.20000000
endloop
endfacet
facet normal 0.952487 0.304580 0.000000
outer loop
vertex -100.47220000 341.28960000 76.20000000
vertex -99.59340000 338.54140000 0.00000000
vertex -100.47220000 341.28960000 0.00000000
endloop
endfacet
facet normal 0.913739 0.406302 0.000000
outer loop
vertex -100.47220000 341.28960000 76.20000000
vertex -100.47220000 341.28960000 0.00000000
vertex -101.64570000 343.92870000 76.20000000
endloop
endfacet
facet normal 0.913739 0.406302 0.000000
outer loop
vertex -101.64570000 343.92870000 76.20000000
vertex -100.47220000 341.28960000 0.00000000
vertex -101.64570000 343.92870000 0.00000000
endloop
endfacet
facet normal 0.864316 0.502950 0.000000
outer loop
vertex -101.64570000 343.92870000 76.20000000
vertex -101.64570000 343.92870000 0.00000000
vertex -103.09860000 346.42550000 76.20000000
endloop
endfacet
facet normal 0.864316 0.502950 0.000000
outer loop
vertex -103.09860000 346.42550000 76.20000000
vertex -101.64570000 343.92870000 0.00000000
vertex -103.09860000 346.42550000 0.00000000
endloop
endfacet
facet normal 0.805138 0.593088 0.000000
outer loop
vertex -103.09860000 346.42550000 76.20000000
vertex -103.09860000 346.42550000 0.00000000
vertex -104.81060000 348.74960000 76.20000000
endloop
endfacet
facet normal 0.805138 0.593088 0.000000
outer loop
vertex -104.81060000 348.74960000 76.20000000
vertex -103.09860000 346.42550000 0.00000000
vertex -104.81060000 348.74960000 0.00000000
endloop
endfacet
facet normal 0.736400 0.676546 0.000000
outer loop
vertex -104.81060000 348.74960000 76.20000000
vertex -104.81060000 348.74960000 0.00000000
vertex -106.76380000 350.87560000 76.20000000
endloop
endfacet
facet normal 0.736400 0.676546 0.000000
outer loop
vertex -106.76380000 350.87560000 76.20000000
vertex -104.81060000 348.74960000 0.00000000
vertex -106.76380000 350.87560000 0.00000000
endloop
endfacet
facet normal 0.658502 0.752579 0.000000
outer loop
vertex -106.76380000 350.87560000 76.20000000
vertex -106.76380000 350.87560000 0.00000000
vertex -108.93810000 352.77810000 76.20000000
endloop
endfacet
facet normal 0.658502 0.752579 0.000000
outer loop
vertex -108.93810000 352.77810000 76.20000000
vertex -106.76380000 350.87560000 0.00000000
vertex -108.93810000 352.77810000 0.00000000
endloop
endfacet
facet normal 0.574231 0.818693 0.000000
outer loop
vertex -108.93810000 352.77810000 76.20000000
vertex -108.93810000 352.77810000 0.00000000
vertex -111.30280000 354.43670000 76.20000000
endloop
endfacet
facet normal 0.574231 0.818693 0.000000
outer loop
vertex -111.30280000 354.43670000 76.20000000
vertex -108.93810000 352.77810000 0.00000000
vertex -111.30280000 354.43670000 0.00000000
endloop
endfacet
facet normal 0.481389 0.876507 0.000000
outer loop
vertex -111.30280000 354.43670000 76.20000000
vertex -111.30280000 354.43670000 0.00000000
vertex -113.83260000 355.82610000 76.20000000
endloop
endfacet
facet normal 0.481389 0.876507 0.000000
outer loop
vertex -113.83260000 355.82610000 76.20000000
vertex -111.30280000 354.43670000 0.00000000
vertex -113.83260000 355.82610000 0.00000000
endloop
endfacet
facet normal 0.384217 0.923243 0.000000
outer loop
vertex -113.83260000 355.82610000 76.20000000
vertex -113.83260000 355.82610000 0.00000000
vertex -116.49960000 356.93600000 76.20000000
endloop
endfacet
facet normal 0.384217 0.923243 0.000000
outer loop
vertex -116.49960000 356.93600000 76.20000000
vertex -113.83260000 355.82610000 0.00000000
vertex -116.49960000 356.93600000 0.00000000
endloop
endfacet
facet normal 0.281446 0.959577 0.000000
outer loop
vertex -116.49960000 356.93600000 76.20000000
vertex -116.49960000 356.93600000 0.00000000
vertex -119.27080000 357.74880000 76.20000000
endloop
endfacet
facet normal 0.281446 0.959577 0.000000
outer loop
vertex -119.27080000 357.74880000 76.20000000
vertex -116.49960000 356.93600000 0.00000000
vertex -119.27080000 357.74880000 0.00000000
endloop
endfacet
facet normal 0.176819 0.984243 0.000000
outer loop
vertex -119.27080000 357.74880000 76.20000000
vertex -119.27080000 357.74880000 0.00000000
vertex -122.11300000 358.25940000 76.20000000
endloop
endfacet
facet normal 0.176819 0.984243 0.000000
outer loop
vertex -122.11300000 358.25940000 76.20000000
vertex -119.27080000 357.74880000 0.00000000
vertex -122.11300000 358.25940000 0.00000000
endloop
endfacet
facet normal 0.069475 0.997584 0.000000
outer loop
vertex -122.11300000 358.25940000 76.20000000
vertex -122.11300000 358.25940000 0.00000000
vertex -124.99340000 358.46000000 76.20000000
endloop
endfacet
facet normal 0.069475 0.997584 0.000000
outer loop
vertex -124.99340000 358.46000000 76.20000000
vertex -122.11300000 358.25940000 0.00000000
vertex -124.99340000 358.46000000 0.00000000
endloop
endfacet
facet normal -0.039582 0.999216 0.000000
outer loop
vertex -124.99340000 358.46000000 76.20000000
vertex -124.99340000 358.46000000 0.00000000
vertex -127.87880000 358.34570000 76.20000000
endloop
endfacet
facet normal -0.039582 0.999216 0.000000
outer loop
vertex -127.87880000 358.34570000 76.20000000
vertex -124.99340000 358.46000000 0.00000000
vertex -127.87880000 358.34570000 0.00000000
endloop
endfacet
facet normal -0.146808 0.989165 0.000000
outer loop
vertex -127.87880000 358.34570000 76.20000000
vertex -127.87880000 358.34570000 0.00000000
vertex -130.73630000 357.92160000 76.20000000
endloop
endfacet
facet normal -0.146808 0.989165 0.000000
outer loop
vertex -130.73630000 357.92160000 76.20000000
vertex -127.87880000 358.34570000 0.00000000
vertex -130.73630000 357.92160000 0.00000000
endloop
endfacet
facet normal -0.253307 0.967386 0.000000
outer loop
vertex -130.73630000 357.92160000 76.20000000
vertex -130.73630000 357.92160000 0.00000000
vertex -133.53030000 357.19000000 76.20000000
endloop
endfacet
facet normal -0.253307 0.967386 0.000000
outer loop
vertex -133.53030000 357.19000000 76.20000000
vertex -130.73630000 357.92160000 0.00000000
vertex -133.53030000 357.19000000 0.00000000
endloop
endfacet
facet normal -0.355536 0.934663 0.000000
outer loop
vertex -133.53030000 357.19000000 76.20000000
vertex -133.53030000 357.19000000 0.00000000
vertex -136.22780000 356.16390000 76.20000000
endloop
endfacet
facet normal -0.355536 0.934663 0.000000
outer loop
vertex -136.22780000 356.16390000 76.20000000
vertex -133.53030000 357.19000000 0.00000000
vertex -136.22780000 356.16390000 0.00000000
endloop
endfacet
facet normal -0.455630 0.890169 0.000000
outer loop
vertex -136.22780000 356.16390000 76.20000000
vertex -136.22780000 356.16390000 0.00000000
vertex -138.79830000 354.84820000 76.20000000
endloop
endfacet
facet normal -0.455630 0.890169 0.000000
outer loop
vertex -138.79830000 354.84820000 76.20000000
vertex -136.22780000 356.16390000 0.00000000
vertex -138.79830000 354.84820000 0.00000000
endloop
endfacet
facet normal -0.548615 0.836075 0.000000
outer loop
vertex -138.79830000 354.84820000 76.20000000
vertex -138.79830000 354.84820000 0.00000000
vertex -141.21380000 353.26320000 76.20000000
endloop
endfacet
facet normal -0.548615 0.836075 0.000000
outer loop
vertex -141.21380000 353.26320000 76.20000000
vertex -138.79830000 354.84820000 0.00000000
vertex -141.21380000 353.26320000 0.00000000
endloop
endfacet
facet normal -0.636101 0.771606 0.000000
outer loop
vertex -141.21380000 353.26320000 76.20000000
vertex -141.21380000 353.26320000 0.00000000
vertex -143.44140000 351.42680000 76.20000000
endloop
endfacet
facet normal -0.636101 0.771606 0.000000
outer loop
vertex -143.44140000 351.42680000 76.20000000
vertex -141.21380000 353.26320000 0.00000000
vertex -143.44140000 351.42680000 0.00000000
endloop
endfacet
facet normal -0.714974 0.699151 0.000000
outer loop
vertex -143.44140000 351.42680000 76.20000000
vertex -143.44140000 351.42680000 0.00000000
vertex -145.46070000 349.36180000 76.20000000
endloop
endfacet
facet normal -0.714974 0.699151 0.000000
outer loop
vertex -145.46070000 349.36180000 76.20000000
vertex -143.44140000 351.42680000 0.00000000
vertex -145.46070000 349.36180000 0.00000000
endloop
endfacet
facet normal -0.787254 0.616629 0.000000
outer loop
vertex -145.46070000 349.36180000 76.20000000
vertex -145.46070000 349.36180000 0.00000000
vertex -147.24130000 347.08850000 76.20000000
endloop
endfacet
facet normal -0.787254 0.616629 0.000000
outer loop
vertex -147.24130000 347.08850000 76.20000000
vertex -145.46070000 349.36180000 0.00000000
vertex -147.24130000 347.08850000 0.00000000
endloop
endfacet
facet normal -0.848844 0.528644 0.000000
outer loop
vertex -147.24130000 347.08850000 76.20000000
vertex -147.24130000 347.08850000 0.00000000
vertex -148.76780000 344.63740000 76.20000000
endloop
endfacet
facet normal -0.848844 0.528644 0.000000
outer loop
vertex -148.76780000 344.63740000 76.20000000
vertex -147.24130000 347.08850000 0.00000000
vertex -148.76780000 344.63740000 0.00000000
endloop
endfacet
facet normal -0.901182 0.433440 0.000000
outer loop
vertex -148.76780000 344.63740000 76.20000000
vertex -148.76780000 344.63740000 0.00000000
vertex -150.02000000 342.03390000 76.20000000
endloop
endfacet
facet normal -0.901182 0.433440 0.000000
outer loop
vertex -150.02000000 342.03390000 76.20000000
vertex -148.76780000 344.63740000 0.00000000
vertex -150.02000000 342.03390000 0.00000000
endloop
endfacet
facet normal -0.942712 0.333609 0.000000
outer loop
vertex -150.02000000 342.03390000 76.20000000
vertex -150.02000000 342.03390000 0.00000000
vertex -150.98270000 339.31350000 76.20000000
endloop
endfacet
facet normal -0.942712 0.333609 0.000000
outer loop
vertex -150.98270000 339.31350000 76.20000000
vertex -150.02000000 342.03390000 0.00000000
vertex -150.98270000 339.31350000 0.00000000
endloop
endfacet
facet normal -0.973317 0.229466 0.000000
outer loop
vertex -150.98270000 339.31350000 76.20000000
vertex -150.98270000 339.31350000 0.00000000
vertex -151.64560000 336.50170000 76.20000000
endloop
endfacet
facet normal -0.973317 0.229466 0.000000
outer loop
vertex -151.64560000 336.50170000 76.20000000
vertex -150.98270000 339.31350000 0.00000000
vertex -151.64560000 336.50170000 0.00000000
endloop
endfacet
facet normal -0.992386 0.123169 0.000000
outer loop
vertex -151.64560000 336.50170000 76.20000000
vertex -151.64560000 336.50170000 0.00000000
vertex -152.00120000 333.63660000 76.20000000
endloop
endfacet
facet normal -0.992386 0.123169 0.000000
outer loop
vertex -152.00120000 333.63660000 76.20000000
vertex -151.64560000 336.50170000 0.00000000
vertex -152.00120000 333.63660000 0.00000000
endloop
endfacet
facet normal -0.999888 0.014957 0.000000
outer loop
vertex -152.00120000 333.63660000 76.20000000
vertex -152.00120000 333.63660000 0.00000000
vertex -152.04440000 330.74860000 76.20000000
endloop
endfacet
facet normal -0.999888 0.014957 0.000000
outer loop
vertex -152.04440000 330.74860000 76.20000000
vertex -152.00120000 333.63660000 0.00000000
vertex -152.04440000 330.74860000 0.00000000
endloop
endfacet
facet normal -0.995645 -0.093221 -0.000000
outer loop
vertex -152.04440000 330.74860000 76.20000000
vertex -152.04440000 330.74860000 0.00000000
vertex -151.77520000 327.87340000 76.20000000
endloop
endfacet
facet normal -0.995645 -0.093221 0.000000
outer loop
vertex -151.77520000 327.87340000 76.20000000
vertex -152.04440000 330.74860000 0.00000000
vertex -151.77520000 327.87340000 0.00000000
endloop
endfacet
facet normal -0.979686 -0.200535 -0.000000
outer loop
vertex -151.77520000 327.87340000 76.20000000
vertex -151.77520000 327.87340000 0.00000000
vertex -151.19600000 325.04380000 76.20000000
endloop
endfacet
facet normal -0.979686 -0.200535 0.000000
outer loop
vertex -151.19600000 325.04380000 76.20000000
vertex -151.77520000 327.87340000 0.00000000
vertex -151.19600000 325.04380000 0.00000000
endloop
endfacet
facet normal -0.952570 -0.304318 -0.000000
outer loop
vertex -151.19600000 325.04380000 76.20000000
vertex -151.19600000 325.04380000 0.00000000
vertex -150.31720000 322.29300000 76.20000000
endloop
endfacet
facet normal -0.952570 -0.304318 0.000000
outer loop
vertex -150.31720000 322.29300000 76.20000000
vertex -151.19600000 325.04380000 0.00000000
vertex -150.31720000 322.29300000 0.00000000
endloop
endfacet
facet normal -0.913590 -0.406637 -0.000000
outer loop
vertex -150.31720000 322.29300000 76.20000000
vertex -150.31720000 322.29300000 0.00000000
vertex -149.14370000 319.65650000 76.20000000
endloop
endfacet
facet normal -0.913590 -0.406637 0.000000
outer loop
vertex -149.14370000 319.65650000 76.20000000
vertex -150.31720000 322.29300000 0.00000000
vertex -149.14370000 319.65650000 0.00000000
endloop
endfacet
facet normal -0.864325 -0.502935 -0.000000
outer loop
vertex -149.14370000 319.65650000 76.20000000
vertex -149.14370000 319.65650000 0.00000000
vertex -147.69080000 317.15960000 76.20000000
endloop
endfacet
facet normal -0.864325 -0.502935 0.000000
outer loop
vertex -147.69080000 317.15960000 76.20000000
vertex -149.14370000 319.65650000 0.00000000
vertex -147.69080000 317.15960000 0.00000000
endloop
endfacet
facet normal -0.805459 -0.592652 -0.000000
outer loop
vertex -147.69080000 317.15960000 76.20000000
vertex -147.69080000 317.15960000 0.00000000
vertex -145.97890000 314.83300000 76.20000000
endloop
endfacet
facet normal -0.805459 -0.592652 0.000000
outer loop
vertex -145.97890000 314.83300000 76.20000000
vertex -147.69080000 317.15960000 0.00000000
vertex -145.97890000 314.83300000 0.00000000
endloop
endfacet
facet normal -0.736383 -0.676565 -0.000000
outer loop
vertex -145.97890000 314.83300000 76.20000000
vertex -145.97890000 314.83300000 0.00000000
vertex -144.02560000 312.70700000 76.20000000
endloop
endfacet
facet normal -0.736383 -0.676565 0.000000
outer loop
vertex -144.02560000 312.70700000 76.20000000
vertex -145.97890000 314.83300000 0.00000000
vertex -144.02560000 312.70700000 0.00000000
endloop
endfacet
facet normal -0.658500 -0.752581 -0.000000
outer loop
vertex -144.02560000 312.70700000 76.20000000
vertex -144.02560000 312.70700000 0.00000000
vertex -141.85140000 310.80460000 76.20000000
endloop
endfacet
facet normal -0.658500 -0.752581 0.000000
outer loop
vertex -141.85140000 310.80460000 76.20000000
vertex -144.02560000 312.70700000 0.00000000
vertex -141.85140000 310.80460000 0.00000000
endloop
endfacet
facet normal -0.573634 -0.819111 -0.000000
outer loop
vertex -141.85140000 310.80460000 76.20000000
vertex -141.85140000 310.80460000 0.00000000
vertex -139.48660000 309.14850000 76.20000000
endloop
endfacet
facet normal -0.573634 -0.819111 0.000000
outer loop
vertex -139.48660000 309.14850000 76.20000000
vertex -141.85140000 310.80460000 0.00000000
vertex -139.48660000 309.14850000 0.00000000
endloop
endfacet
facet normal -0.481389 -0.876507 -0.000000
outer loop
vertex -139.48660000 309.14850000 76.20000000
vertex -139.48660000 309.14850000 0.00000000
vertex -136.95680000 307.75910000 76.20000000
endloop
endfacet
facet normal -0.481389 -0.876507 0.000000
outer loop
vertex -136.95680000 307.75910000 76.20000000
vertex -139.48660000 309.14850000 0.00000000
vertex -136.95680000 307.75910000 0.00000000
endloop
endfacet
facet normal -0.384247 -0.923230 -0.000000
outer loop
vertex -136.95680000 307.75910000 76.20000000
vertex -136.95680000 307.75910000 0.00000000
vertex -134.28980000 306.64910000 76.20000000
endloop
endfacet
facet normal -0.384247 -0.923230 0.000000
outer loop
vertex -134.28980000 306.64910000 76.20000000
vertex -136.95680000 307.75910000 0.00000000
vertex -134.28980000 306.64910000 0.00000000
endloop
endfacet
facet normal -0.282253 -0.959340 -0.000000
outer loop
vertex -134.28980000 306.64910000 76.20000000
vertex -134.28980000 306.64910000 0.00000000
vertex -131.51870000 305.83380000 76.20000000
endloop
endfacet
facet normal -0.282253 -0.959340 0.000000
outer loop
vertex -131.51870000 305.83380000 76.20000000
vertex -134.28980000 306.64910000 0.00000000
vertex -131.51870000 305.83380000 0.00000000
endloop
endfacet
facet normal -0.175940 -0.984401 -0.000000
outer loop
vertex -131.51870000 305.83380000 76.20000000
vertex -131.51870000 305.83380000 0.00000000
vertex -128.67640000 305.32580000 76.20000000
endloop
endfacet
facet normal -0.175940 -0.984401 0.000000
outer loop
vertex -128.67640000 305.32580000 76.20000000
vertex -131.51870000 305.83380000 0.00000000
vertex -128.67640000 305.32580000 0.00000000
endloop
endfacet
facet normal -0.069509 -0.997581 -0.000000
outer loop
vertex -128.67640000 305.32580000 76.20000000
vertex -128.67640000 305.32580000 0.00000000
vertex -125.79600000 305.12510000 76.20000000
endloop
endfacet
facet normal -0.069509 -0.997581 0.000000
outer loop
vertex -125.79600000 305.12510000 76.20000000
vertex -128.67640000 305.32580000 0.00000000
vertex -125.79600000 305.12510000 0.00000000
endloop
endfacet
facet normal 0.039582 -0.999216 0.000000
outer loop
vertex -125.79600000 305.12510000 76.20000000
vertex -125.79600000 305.12510000 0.00000000
vertex -122.91060000 305.23940000 76.20000000
endloop
endfacet
facet normal 0.039582 -0.999216 0.000000
outer loop
vertex -122.91060000 305.23940000 76.20000000
vertex -125.79600000 305.12510000 0.00000000
vertex -122.91060000 305.23940000 0.00000000
endloop
endfacet
facet normal 0.146842 -0.989160 0.000000
outer loop
vertex -122.91060000 305.23940000 76.20000000
vertex -122.91060000 305.23940000 0.00000000
vertex -120.05310000 305.66360000 76.20000000
endloop
endfacet
facet normal 0.146842 -0.989160 0.000000
outer loop
vertex -120.05310000 305.66360000 76.20000000
vertex -122.91060000 305.23940000 0.00000000
vertex -120.05310000 305.66360000 0.00000000
endloop
endfacet
facet normal 0.252464 -0.967606 0.000000
outer loop
vertex -120.05310000 305.66360000 76.20000000
vertex -120.05310000 305.66360000 0.00000000
vertex -117.25910000 306.39260000 76.20000000
endloop
endfacet
facet normal 0.252464 -0.967606 0.000000
outer loop
vertex -117.25910000 306.39260000 76.20000000
vertex -120.05310000 305.66360000 0.00000000
vertex -117.25910000 306.39260000 0.00000000
endloop
endfacet
facet normal 0.356322 -0.934363 0.000000
outer loop
vertex -117.25910000 306.39260000 76.20000000
vertex -117.25910000 306.39260000 0.00000000
vertex -114.56160000 307.42130000 76.20000000
endloop
endfacet
facet normal 0.356322 -0.934363 0.000000
outer loop
vertex -114.56160000 307.42130000 76.20000000
vertex -117.25910000 306.39260000 0.00000000
vertex -114.56160000 307.42130000 0.00000000
endloop
endfacet
facet normal 0.455279 -0.890349 0.000000
outer loop
vertex -114.56160000 307.42130000 76.20000000
vertex -114.56160000 307.42130000 0.00000000
vertex -111.98860000 308.73700000 76.20000000
endloop
endfacet
facet normal 0.455279 -0.890349 0.000000
outer loop
vertex -111.98860000 308.73700000 76.20000000
vertex -114.56160000 307.42130000 0.00000000
vertex -111.98860000 308.73700000 0.00000000
endloop
endfacet
facet normal 0.548382 -0.836228 0.000000
outer loop
vertex -111.98860000 308.73700000 76.20000000
vertex -111.98860000 308.73700000 0.00000000
vertex -109.57560000 310.31940000 76.20000000
endloop
endfacet
facet normal 0.548382 -0.836228 0.000000
outer loop
vertex -109.57560000 310.31940000 76.20000000
vertex -111.98860000 308.73700000 0.00000000
vertex -109.57560000 310.31940000 0.00000000
endloop
endfacet
facet normal 0.635676 -0.771956 0.000000
outer loop
vertex -109.57560000 310.31940000 76.20000000
vertex -109.57560000 310.31940000 0.00000000
vertex -107.34550000 312.15580000 76.20000000
endloop
endfacet
facet normal 0.635676 -0.771956 0.000000
outer loop
vertex -107.34550000 312.15580000 76.20000000
vertex -109.57560000 310.31940000 0.00000000
vertex -107.34550000 312.15580000 0.00000000
endloop
endfacet
facet normal 0.715846 -0.698258 0.000000
outer loop
vertex -107.34550000 312.15580000 76.20000000
vertex -107.34550000 312.15580000 0.00000000
vertex -105.32870000 314.22340000 76.20000000
endloop
endfacet
facet normal 0.715846 -0.698258 0.000000
outer loop
vertex -105.32870000 314.22340000 76.20000000
vertex -107.34550000 312.15580000 0.00000000
vertex -105.32870000 314.22340000 0.00000000
endloop
endfacet
facet normal 0.786941 -0.617028 0.000000
outer loop
vertex -105.32870000 314.22340000 76.20000000
vertex -105.32870000 314.22340000 0.00000000
vertex -103.54820000 316.49420000 76.20000000
endloop
endfacet
facet normal 0.786941 -0.617028 0.000000
outer loop
vertex -103.54820000 316.49420000 76.20000000
vertex -105.32870000 314.22340000 0.00000000
vertex -103.54820000 316.49420000 0.00000000
endloop
endfacet
facet normal 0.849070 -0.528281 0.000000
outer loop
vertex -103.54820000 316.49420000 76.20000000
vertex -103.54820000 316.49420000 0.00000000
vertex -102.02160000 318.94780000 76.20000000
endloop
endfacet
facet normal 0.849070 -0.528281 0.000000
outer loop
vertex -102.02160000 318.94780000 76.20000000
vertex -103.54820000 316.49420000 0.00000000
vertex -102.02160000 318.94780000 0.00000000
endloop
endfacet
facet normal 0.901020 -0.433778 0.000000
outer loop
vertex -102.02160000 318.94780000 76.20000000
vertex -102.02160000 318.94780000 0.00000000
vertex -100.76940000 321.54880000 76.20000000
endloop
endfacet
facet normal 0.901020 -0.433778 0.000000
outer loop
vertex -100.76940000 321.54880000 76.20000000
vertex -102.02160000 318.94780000 0.00000000
vertex -100.76940000 321.54880000 0.00000000
endloop
endfacet
facet normal 0.942815 -0.333316 0.000000
outer loop
vertex -100.76940000 321.54880000 76.20000000
vertex -100.76940000 321.54880000 0.00000000
vertex -99.80680000 324.27160000 76.20000000
endloop
endfacet
facet normal 0.942815 -0.333316 0.000000
outer loop
vertex -99.80680000 324.27160000 76.20000000
vertex -100.76940000 321.54880000 0.00000000
vertex -99.80680000 324.27160000 0.00000000
endloop
endfacet
facet normal 0.973309 -0.229499 0.000000
outer loop
vertex -99.80680000 324.27160000 76.20000000
vertex -99.80680000 324.27160000 0.00000000
vertex -99.14380000 327.08340000 76.20000000
endloop
endfacet
facet normal 0.973309 -0.229499 0.000000
outer loop
vertex -99.14380000 327.08340000 76.20000000
vertex -99.80680000 324.27160000 0.00000000
vertex -99.14380000 327.08340000 0.00000000
endloop
endfacet
facet normal 0.992386 -0.123169 0.000000
outer loop
vertex -99.14380000 327.08340000 76.20000000
vertex -99.14380000 327.08340000 0.00000000
vertex -98.78820000 329.94850000 76.20000000
endloop
endfacet
facet normal 0.992386 -0.123169 0.000000
outer loop
vertex -98.78820000 329.94850000 76.20000000
vertex -99.14380000 327.08340000 0.00000000
vertex -98.78820000 329.94850000 0.00000000
endloop
endfacet
endsolid 
