solid ascii
  facet normal 9.973323e-001 -7.299531e-002 0.000000e+000
    outer loop
      vertex   3.224716e+001 9.503996e+000 4.428750e+001
      vertex   3.224716e+001 9.503996e+000 3.428750e+001
      vertex   3.228712e+001 1.005000e+001 4.428750e+001
    endloop
  endfacet
  facet normal 9.760759e-001 -2.174302e-001 0.000000e+000
    outer loop
      vertex   3.224716e+001 9.503996e+000 4.428750e+001
      vertex   3.212813e+001 8.969628e+000 3.428750e+001
      vertex   3.224716e+001 9.503996e+000 3.428750e+001
    endloop
  endfacet
  facet normal 9.760759e-001 -2.174302e-001 0.000000e+000
    outer loop
      vertex   3.224716e+001 9.503996e+000 4.428750e+001
      vertex   3.212813e+001 8.969628e+000 4.428750e+001
      vertex   3.212813e+001 8.969628e+000 3.428750e+001
    endloop
  endfacet
  facet normal 9.340161e-001 -3.572309e-001 0.000000e+000
    outer loop
      vertex   3.212813e+001 8.969628e+000 3.428750e+001
      vertex   3.212813e+001 8.969628e+000 4.428750e+001
      vertex   3.193256e+001 8.458287e+000 3.428750e+001
    endloop
  endfacet
  facet normal 9.340161e-001 -3.572309e-001 6.337296e-017
    outer loop
      vertex   3.193256e+001 8.458287e+000 3.428750e+001
      vertex   3.212813e+001 8.969628e+000 4.428750e+001
      vertex   3.193256e+001 8.458287e+000 4.428750e+001
    endloop
  endfacet
  facet normal 8.720494e-001 -4.894178e-001 1.774443e-016
    outer loop
      vertex   3.166462e+001 7.980871e+000 3.428750e+001
      vertex   3.193256e+001 8.458287e+000 4.428750e+001
      vertex   3.166462e+001 7.980871e+000 4.428750e+001
    endloop
  endfacet
  facet normal 7.914965e-001 -6.111737e-001 0.000000e+000
    outer loop
      vertex   3.133002e+001 7.547554e+000 3.428750e+001
      vertex   3.166462e+001 7.980871e+000 4.428750e+001
      vertex   3.133002e+001 7.547554e+000 4.428750e+001
    endloop
  endfacet
  facet normal 6.940742e-001 -7.199035e-001 0.000000e+000
    outer loop
      vertex   3.093590e+001 7.167573e+000 3.428750e+001
      vertex   3.133002e+001 7.547554e+000 4.428750e+001
      vertex   3.093590e+001 7.167573e+000 4.428750e+001
    endloop
  endfacet
  facet normal 5.818589e-001 -8.132897e-001 7.097772e-017
    outer loop
      vertex   3.049065e+001 6.849026e+000 3.428750e+001
      vertex   3.093590e+001 7.167573e+000 4.428750e+001
      vertex   3.049065e+001 6.849026e+000 4.428750e+001
    endloop
  endfacet
  facet normal 4.572423e-001 -8.893421e-001 2.357474e-016
    outer loop
      vertex   3.000377e+001 6.598702e+000 3.428750e+001
      vertex   3.049065e+001 6.849026e+000 4.428750e+001
      vertex   3.000377e+001 6.598702e+000 4.428750e+001
    endloop
  endfacet
  facet normal 3.228804e-001 -9.464398e-001 0.000000e+000
    outer loop
      vertex   2.948563e+001 6.421936e+000 3.428750e+001
      vertex   3.000377e+001 6.598702e+000 4.428750e+001
      vertex   2.948563e+001 6.421936e+000 4.428750e+001
    endloop
  endfacet
  facet normal 1.816369e-001 -9.833657e-001 0.000000e+000
    outer loop
      vertex   2.894727e+001 6.322496e+000 3.428750e+001
      vertex   2.948563e+001 6.421936e+000 4.428750e+001
      vertex   2.894727e+001 6.322496e+000 4.428750e+001
    endloop
  endfacet
  facet normal 3.652202e-002 -9.993328e-001 0.000000e+000
    outer loop
      vertex   2.840017e+001 6.302502e+000 3.428750e+001
      vertex   2.894727e+001 6.322496e+000 4.428750e+001
      vertex   2.840017e+001 6.302502e+000 4.428750e+001
    endloop
  endfacet
  facet normal -1.093712e-001 -9.940010e-001 0.000000e+000
    outer loop
      vertex   2.785599e+001 6.362379e+000 3.428750e+001
      vertex   2.840017e+001 6.302502e+000 4.428750e+001
      vertex   2.785599e+001 6.362379e+000 4.428750e+001
    endloop
  endfacet
  facet normal -2.529334e-001 -9.674837e-001 2.534918e-018
    outer loop
      vertex   2.732632e+001 6.500851e+000 3.428750e+001
      vertex   2.785599e+001 6.362379e+000 4.428750e+001
      vertex   2.732632e+001 6.500851e+000 4.428750e+001
    endloop
  endfacet
  facet normal -3.911047e-001 -9.203462e-001 0.000000e+000
    outer loop
      vertex   2.682247e+001 6.714967e+000 3.428750e+001
      vertex   2.732632e+001 6.500851e+000 4.428750e+001
      vertex   2.682247e+001 6.714967e+000 4.428750e+001
    endloop
  endfacet
  facet normal -5.209403e-001 -8.535931e-001 0.000000e+000
    outer loop
      vertex   2.635515e+001 7.000163e+000 3.428750e+001
      vertex   2.682247e+001 6.714967e+000 4.428750e+001
      vertex   2.635515e+001 7.000163e+000 4.428750e+001
    endloop
  endfacet
  facet normal -6.396730e-001 -7.686471e-001 3.143299e-016
    outer loop
      vertex   2.593435e+001 7.350362e+000 3.428750e+001
      vertex   2.635515e+001 7.000163e+000 4.428750e+001
      vertex   2.593435e+001 7.350362e+000 4.428750e+001
    endloop
  endfacet
  facet normal -7.447722e-001 -6.673188e-001 0.000000e+000
    outer loop
      vertex   2.556901e+001 7.758099e+000 3.428750e+001
      vertex   2.593435e+001 7.350362e+000 4.428750e+001
      vertex   2.556901e+001 7.758099e+000 4.428750e+001
    endloop
  endfacet
  facet normal -8.339978e-001 -5.517677e-001 -9.632690e-017
    outer loop
      vertex   2.526694e+001 8.214683e+000 3.428750e+001
      vertex   2.556901e+001 7.758099e+000 4.428750e+001
      vertex   2.526694e+001 8.214683e+000 4.428750e+001
    endloop
  endfacet
  facet normal -9.054482e-001 -4.244567e-001 0.000000e+000
    outer loop
      vertex   2.503456e+001 8.710384e+000 3.428750e+001
      vertex   2.526694e+001 8.214683e+000 4.428750e+001
      vertex   2.503456e+001 8.710384e+000 4.428750e+001
    endloop
  endfacet
  facet normal -9.576006e-001 -2.880991e-001 -5.069837e-017
    outer loop
      vertex   2.487684e+001 9.234637e+000 3.428750e+001
      vertex   2.503456e+001 8.710384e+000 4.428750e+001
      vertex   2.487684e+001 9.234637e+000 4.428750e+001
    endloop
  endfacet
  facet normal -9.893434e-001 -1.456012e-001 -5.069837e-017
    outer loop
      vertex   2.479713e+001 9.776268e+000 3.428750e+001
      vertex   2.487684e+001 9.234637e+000 4.428750e+001
      vertex   2.479713e+001 9.776268e+000 4.428750e+001
    endloop
  endfacet
  facet normal -1.000000e+000 0.000000e+000 0.000000e+000
    outer loop
      vertex   2.479713e+001 1.032373e+001 3.428750e+001
      vertex   2.479713e+001 9.776268e+000 4.428750e+001
      vertex   2.479713e+001 1.032373e+001 4.428750e+001
    endloop
  endfacet
  facet normal -9.893434e-001 1.456012e-001 2.534918e-017
    outer loop
      vertex   2.487684e+001 1.086536e+001 3.428750e+001
      vertex   2.479713e+001 1.032373e+001 4.428750e+001
      vertex   2.487684e+001 1.086536e+001 4.428750e+001
    endloop
  endfacet
  facet normal -9.576006e-001 2.880991e-001 0.000000e+000
    outer loop
      vertex   2.503456e+001 1.138962e+001 3.428750e+001
      vertex   2.487684e+001 1.086536e+001 4.428750e+001
      vertex   2.503456e+001 1.138962e+001 4.428750e+001
    endloop
  endfacet
  facet normal -9.054482e-001 4.244567e-001 0.000000e+000
    outer loop
      vertex   2.526694e+001 1.188532e+001 3.428750e+001
      vertex   2.503456e+001 1.138962e+001 4.428750e+001
      vertex   2.526694e+001 1.188532e+001 4.428750e+001
    endloop
  endfacet
  facet normal -8.339978e-001 5.517677e-001 0.000000e+000
    outer loop
      vertex   2.556901e+001 1.234190e+001 3.428750e+001
      vertex   2.526694e+001 1.188532e+001 4.428750e+001
      vertex   2.556901e+001 1.234190e+001 4.428750e+001
    endloop
  endfacet
  facet normal -7.447722e-001 6.673188e-001 -2.940505e-016
    outer loop
      vertex   2.593435e+001 1.274964e+001 3.428750e+001
      vertex   2.556901e+001 1.234190e+001 4.428750e+001
      vertex   2.593435e+001 1.274964e+001 4.428750e+001
    endloop
  endfacet
  facet normal -6.396730e-001 7.686471e-001 0.000000e+000
    outer loop
      vertex   2.635515e+001 1.309984e+001 3.428750e+001
      vertex   2.593435e+001 1.274964e+001 4.428750e+001
      vertex   2.635515e+001 1.309984e+001 4.428750e+001
    endloop
  endfacet
  facet normal -5.209403e-001 8.535931e-001 0.000000e+000
    outer loop
      vertex   2.682247e+001 1.338503e+001 3.428750e+001
      vertex   2.635515e+001 1.309984e+001 4.428750e+001
      vertex   2.682247e+001 1.338503e+001 4.428750e+001
    endloop
  endfacet
  facet normal -3.911047e-001 9.203462e-001 -1.368856e-016
    outer loop
      vertex   2.732632e+001 1.359915e+001 3.428750e+001
      vertex   2.682247e+001 1.338503e+001 4.428750e+001
      vertex   2.732632e+001 1.359915e+001 4.428750e+001
    endloop
  endfacet
  facet normal -2.529334e-001 9.674837e-001 0.000000e+000
    outer loop
      vertex   2.785599e+001 1.373762e+001 3.428750e+001
      vertex   2.732632e+001 1.359915e+001 4.428750e+001
      vertex   2.785599e+001 1.373762e+001 4.428750e+001
    endloop
  endfacet
  facet normal -1.093712e-001 9.940010e-001 0.000000e+000
    outer loop
      vertex   2.840017e+001 1.379750e+001 3.428750e+001
      vertex   2.785599e+001 1.373762e+001 4.428750e+001
      vertex   2.840017e+001 1.379750e+001 4.428750e+001
    endloop
  endfacet
  facet normal 3.652202e-002 9.993328e-001 0.000000e+000
    outer loop
      vertex   2.894727e+001 1.377750e+001 3.428750e+001
      vertex   2.840017e+001 1.379750e+001 4.428750e+001
      vertex   2.894727e+001 1.377750e+001 4.428750e+001
    endloop
  endfacet
  facet normal 1.816369e-001 9.833657e-001 0.000000e+000
    outer loop
      vertex   2.948563e+001 1.367806e+001 3.428750e+001
      vertex   2.894727e+001 1.377750e+001 4.428750e+001
      vertex   2.948563e+001 1.367806e+001 4.428750e+001
    endloop
  endfacet
  facet normal 3.228804e-001 9.464398e-001 -1.698395e-016
    outer loop
      vertex   3.000377e+001 1.350130e+001 3.428750e+001
      vertex   2.948563e+001 1.367806e+001 4.428750e+001
      vertex   3.000377e+001 1.350130e+001 4.428750e+001
    endloop
  endfacet
  facet normal 4.572423e-001 8.893421e-001 0.000000e+000
    outer loop
      vertex   3.049065e+001 1.325097e+001 3.428750e+001
      vertex   3.000377e+001 1.350130e+001 4.428750e+001
      vertex   3.049065e+001 1.325097e+001 4.428750e+001
    endloop
  endfacet
  facet normal 5.818589e-001 8.132897e-001 0.000000e+000
    outer loop
      vertex   3.093590e+001 1.293243e+001 3.428750e+001
      vertex   3.049065e+001 1.325097e+001 4.428750e+001
      vertex   3.093590e+001 1.293243e+001 4.428750e+001
    endloop
  endfacet
  facet normal 6.940742e-001 7.199035e-001 0.000000e+000
    outer loop
      vertex   3.133002e+001 1.255245e+001 3.428750e+001
      vertex   3.093590e+001 1.293243e+001 4.428750e+001
      vertex   3.133002e+001 1.255245e+001 4.428750e+001
    endloop
  endfacet
  facet normal 7.914965e-001 6.111737e-001 -1.064666e-016
    outer loop
      vertex   3.166462e+001 1.211913e+001 3.428750e+001
      vertex   3.133002e+001 1.255245e+001 4.428750e+001
      vertex   3.166462e+001 1.211913e+001 4.428750e+001
    endloop
  endfacet
  facet normal 8.720494e-001 4.894178e-001 -8.618723e-017
    outer loop
      vertex   3.193256e+001 1.164171e+001 3.428750e+001
      vertex   3.166462e+001 1.211913e+001 4.428750e+001
      vertex   3.193256e+001 1.164171e+001 4.428750e+001
    endloop
  endfacet
  facet normal 9.340161e-001 3.572309e-001 -6.337296e-017
    outer loop
      vertex   3.212813e+001 1.113037e+001 3.428750e+001
      vertex   3.193256e+001 1.164171e+001 4.428750e+001
      vertex   3.212813e+001 1.113037e+001 4.428750e+001
    endloop
  endfacet
  facet normal 9.760759e-001 2.174302e-001 0.000000e+000
    outer loop
      vertex   3.224716e+001 1.059600e+001 3.428750e+001
      vertex   3.212813e+001 1.113037e+001 4.428750e+001
      vertex   3.224716e+001 1.059600e+001 4.428750e+001
    endloop
  endfacet
  facet normal 9.973323e-001 7.299531e-002 0.000000e+000
    outer loop
      vertex   3.228712e+001 1.005000e+001 3.428750e+001
      vertex   3.224716e+001 1.059600e+001 4.428750e+001
      vertex   3.228712e+001 1.005000e+001 4.428750e+001
    endloop
  endfacet
  facet normal 9.973323e-001 -7.299531e-002 0.000000e+000
    outer loop
      vertex   3.224716e+001 9.503996e+000 3.428750e+001
      vertex   3.228712e+001 1.005000e+001 3.428750e+001
      vertex   3.228712e+001 1.005000e+001 4.428750e+001
    endloop
  endfacet
  facet normal 8.720494e-001 -4.894178e-001 8.693807e-017
    outer loop
      vertex   3.193256e+001 8.458287e+000 3.428750e+001
      vertex   3.193256e+001 8.458287e+000 4.428750e+001
      vertex   3.166462e+001 7.980871e+000 3.428750e+001
    endloop
  endfacet
  facet normal 7.914965e-001 -6.111737e-001 2.171325e-016
    outer loop
      vertex   3.166462e+001 7.980871e+000 3.428750e+001
      vertex   3.166462e+001 7.980871e+000 4.428750e+001
      vertex   3.133002e+001 7.547554e+000 3.428750e+001
    endloop
  endfacet
  facet normal 6.940742e-001 -7.199035e-001 0.000000e+000
    outer loop
      vertex   3.133002e+001 7.547554e+000 3.428750e+001
      vertex   3.133002e+001 7.547554e+000 4.428750e+001
      vertex   3.093590e+001 7.167573e+000 3.428750e+001
    endloop
  endfacet
  facet normal 5.818589e-001 -8.132897e-001 0.000000e+000
    outer loop
      vertex   3.093590e+001 7.167573e+000 3.428750e+001
      vertex   3.093590e+001 7.167573e+000 4.428750e+001
      vertex   3.049065e+001 6.849026e+000 3.428750e+001
    endloop
  endfacet
  facet normal 4.572423e-001 -8.893421e-001 7.898945e-017
    outer loop
      vertex   3.049065e+001 6.849026e+000 3.428750e+001
      vertex   3.049065e+001 6.849026e+000 4.428750e+001
      vertex   3.000377e+001 6.598702e+000 3.428750e+001
    endloop
  endfacet
  facet normal 3.228804e-001 -9.464398e-001 2.521822e-016
    outer loop
      vertex   3.000377e+001 6.598702e+000 3.428750e+001
      vertex   3.000377e+001 6.598702e+000 4.428750e+001
      vertex   2.948563e+001 6.421936e+000 3.428750e+001
    endloop
  endfacet
  facet normal 1.816369e-001 -9.833657e-001 0.000000e+000
    outer loop
      vertex   2.948563e+001 6.421936e+000 3.428750e+001
      vertex   2.948563e+001 6.421936e+000 4.428750e+001
      vertex   2.894727e+001 6.322496e+000 3.428750e+001
    endloop
  endfacet
  facet normal 3.652202e-002 -9.993328e-001 0.000000e+000
    outer loop
      vertex   2.894727e+001 6.322496e+000 3.428750e+001
      vertex   2.894727e+001 6.322496e+000 4.428750e+001
      vertex   2.840017e+001 6.302502e+000 3.428750e+001
    endloop
  endfacet
  facet normal -1.093712e-001 -9.940010e-001 0.000000e+000
    outer loop
      vertex   2.840017e+001 6.302502e+000 3.428750e+001
      vertex   2.840017e+001 6.302502e+000 4.428750e+001
      vertex   2.785599e+001 6.362379e+000 3.428750e+001
    endloop
  endfacet
  facet normal -2.529334e-001 -9.674837e-001 0.000000e+000
    outer loop
      vertex   2.785599e+001 6.362379e+000 3.428750e+001
      vertex   2.785599e+001 6.362379e+000 4.428750e+001
      vertex   2.732632e+001 6.500851e+000 3.428750e+001
    endloop
  endfacet
  facet normal -3.911047e-001 -9.203462e-001 5.720515e-017
    outer loop
      vertex   2.732632e+001 6.500851e+000 3.428750e+001
      vertex   2.732632e+001 6.500851e+000 4.428750e+001
      vertex   2.682247e+001 6.714967e+000 3.428750e+001
    endloop
  endfacet
  facet normal -5.209403e-001 -8.535931e-001 0.000000e+000
    outer loop
      vertex   2.682247e+001 6.714967e+000 3.428750e+001
      vertex   2.682247e+001 6.714967e+000 4.428750e+001
      vertex   2.635515e+001 7.000163e+000 3.428750e+001
    endloop
  endfacet
  facet normal -6.396730e-001 -7.686471e-001 0.000000e+000
    outer loop
      vertex   2.635515e+001 7.000163e+000 3.428750e+001
      vertex   2.635515e+001 7.000163e+000 4.428750e+001
      vertex   2.593435e+001 7.350362e+000 3.428750e+001
    endloop
  endfacet
  facet normal -7.447722e-001 -6.673188e-001 4.106528e-016
    outer loop
      vertex   2.593435e+001 7.350362e+000 3.428750e+001
      vertex   2.593435e+001 7.350362e+000 4.428750e+001
      vertex   2.556901e+001 7.758099e+000 3.428750e+001
    endloop
  endfacet
  facet normal -8.339978e-001 -5.517677e-001 0.000000e+000
    outer loop
      vertex   2.556901e+001 7.758099e+000 3.428750e+001
      vertex   2.556901e+001 7.758099e+000 4.428750e+001
      vertex   2.526694e+001 8.214683e+000 3.428750e+001
    endloop
  endfacet
  facet normal -9.054482e-001 -4.244567e-001 -7.539866e-017
    outer loop
      vertex   2.526694e+001 8.214683e+000 3.428750e+001
      vertex   2.526694e+001 8.214683e+000 4.428750e+001
      vertex   2.503456e+001 8.710384e+000 3.428750e+001
    endloop
  endfacet
  facet normal -9.576006e-001 -2.880991e-001 0.000000e+000
    outer loop
      vertex   2.503456e+001 8.710384e+000 3.428750e+001
      vertex   2.503456e+001 8.710384e+000 4.428750e+001
      vertex   2.487684e+001 9.234637e+000 3.428750e+001
    endloop
  endfacet
  facet normal -9.893434e-001 -1.456012e-001 -2.586396e-017
    outer loop
      vertex   2.487684e+001 9.234637e+000 3.428750e+001
      vertex   2.487684e+001 9.234637e+000 4.428750e+001
      vertex   2.479713e+001 9.776268e+000 3.428750e+001
    endloop
  endfacet
  facet normal -1.000000e+000 0.000000e+000 0.000000e+000
    outer loop
      vertex   2.479713e+001 9.776268e+000 3.428750e+001
      vertex   2.479713e+001 9.776268e+000 4.428750e+001
      vertex   2.479713e+001 1.032373e+001 3.428750e+001
    endloop
  endfacet
  facet normal -9.893434e-001 1.456012e-001 0.000000e+000
    outer loop
      vertex   2.479713e+001 1.032373e+001 3.428750e+001
      vertex   2.479713e+001 1.032373e+001 4.428750e+001
      vertex   2.487684e+001 1.086536e+001 3.428750e+001
    endloop
  endfacet
  facet normal -9.576006e-001 2.880991e-001 5.117668e-017
    outer loop
      vertex   2.487684e+001 1.086536e+001 3.428750e+001
      vertex   2.487684e+001 1.086536e+001 4.428750e+001
      vertex   2.503456e+001 1.138962e+001 3.428750e+001
    endloop
  endfacet
  facet normal -9.054482e-001 4.244567e-001 0.000000e+000
    outer loop
      vertex   2.503456e+001 1.138962e+001 3.428750e+001
      vertex   2.503456e+001 1.138962e+001 4.428750e+001
      vertex   2.526694e+001 1.188532e+001 3.428750e+001
    endloop
  endfacet
  facet normal -8.339978e-001 5.517677e-001 0.000000e+000
    outer loop
      vertex   2.526694e+001 1.188532e+001 3.428750e+001
      vertex   2.526694e+001 1.188532e+001 4.428750e+001
      vertex   2.556901e+001 1.234190e+001 3.428750e+001
    endloop
  endfacet
  facet normal -7.447722e-001 6.673188e-001 0.000000e+000
    outer loop
      vertex   2.556901e+001 1.234190e+001 3.428750e+001
      vertex   2.556901e+001 1.234190e+001 4.428750e+001
      vertex   2.593435e+001 1.274964e+001 3.428750e+001
    endloop
  endfacet
  facet normal -6.396730e-001 7.686471e-001 -1.814367e-016
    outer loop
      vertex   2.593435e+001 1.274964e+001 3.428750e+001
      vertex   2.593435e+001 1.274964e+001 4.428750e+001
      vertex   2.635515e+001 1.309984e+001 3.428750e+001
    endloop
  endfacet
  facet normal -5.209403e-001 8.535931e-001 0.000000e+000
    outer loop
      vertex   2.635515e+001 1.309984e+001 3.428750e+001
      vertex   2.635515e+001 1.309984e+001 4.428750e+001
      vertex   2.682247e+001 1.338503e+001 3.428750e+001
    endloop
  endfacet
  facet normal -3.911047e-001 9.203462e-001 0.000000e+000
    outer loop
      vertex   2.682247e+001 1.338503e+001 3.428750e+001
      vertex   2.682247e+001 1.338503e+001 4.428750e+001
      vertex   2.732632e+001 1.359915e+001 3.428750e+001
    endloop
  endfacet
  facet normal -2.529334e-001 9.674837e-001 -8.985999e-017
    outer loop
      vertex   2.732632e+001 1.359915e+001 3.428750e+001
      vertex   2.732632e+001 1.359915e+001 4.428750e+001
      vertex   2.785599e+001 1.373762e+001 3.428750e+001
    endloop
  endfacet
  facet normal -1.093712e-001 9.940010e-001 0.000000e+000
    outer loop
      vertex   2.785599e+001 1.373762e+001 3.428750e+001
      vertex   2.785599e+001 1.373762e+001 4.428750e+001
      vertex   2.840017e+001 1.379750e+001 3.428750e+001
    endloop
  endfacet
  facet normal 3.652202e-002 9.993328e-001 -0.000000e+000
    outer loop
      vertex   2.840017e+001 1.379750e+001 3.428750e+001
      vertex   2.840017e+001 1.379750e+001 4.428750e+001
      vertex   2.894727e+001 1.377750e+001 3.428750e+001
    endloop
  endfacet
  facet normal 1.816369e-001 9.833657e-001 -0.000000e+000
    outer loop
      vertex   2.894727e+001 1.377750e+001 3.428750e+001
      vertex   2.894727e+001 1.377750e+001 4.428750e+001
      vertex   2.948563e+001 1.367806e+001 3.428750e+001
    endloop
  endfacet
  facet normal 3.228804e-001 9.464398e-001 -0.000000e+000
    outer loop
      vertex   2.948563e+001 1.367806e+001 3.428750e+001
      vertex   2.948563e+001 1.367806e+001 4.428750e+001
      vertex   3.000377e+001 1.350130e+001 3.428750e+001
    endloop
  endfacet
  facet normal 4.572423e-001 8.893421e-001 -1.579789e-016
    outer loop
      vertex   3.000377e+001 1.350130e+001 3.428750e+001
      vertex   3.000377e+001 1.350130e+001 4.428750e+001
      vertex   3.049065e+001 1.325097e+001 3.428750e+001
    endloop
  endfacet
  facet normal 5.818589e-001 8.132897e-001 -0.000000e+000
    outer loop
      vertex   3.049065e+001 1.325097e+001 3.428750e+001
      vertex   3.049065e+001 1.325097e+001 4.428750e+001
      vertex   3.093590e+001 1.293243e+001 3.428750e+001
    endloop
  endfacet
  facet normal 6.940742e-001 7.199035e-001 -0.000000e+000
    outer loop
      vertex   3.093590e+001 1.293243e+001 3.428750e+001
      vertex   3.093590e+001 1.293243e+001 4.428750e+001
      vertex   3.133002e+001 1.255245e+001 3.428750e+001
    endloop
  endfacet
  facet normal 7.914965e-001 6.111737e-001 -0.000000e+000
    outer loop
      vertex   3.133002e+001 1.255245e+001 3.428750e+001
      vertex   3.133002e+001 1.255245e+001 4.428750e+001
      vertex   3.166462e+001 1.211913e+001 3.428750e+001
    endloop
  endfacet
  facet normal 8.720494e-001 4.894178e-001 -8.693807e-017
    outer loop
      vertex   3.166462e+001 1.211913e+001 3.428750e+001
      vertex   3.166462e+001 1.211913e+001 4.428750e+001
      vertex   3.193256e+001 1.164171e+001 3.428750e+001
    endloop
  endfacet
  facet normal 9.340161e-001 3.572309e-001 -6.345695e-017
    outer loop
      vertex   3.193256e+001 1.164171e+001 3.428750e+001
      vertex   3.193256e+001 1.164171e+001 4.428750e+001
      vertex   3.212813e+001 1.113037e+001 3.428750e+001
    endloop
  endfacet
  facet normal 9.760759e-001 2.174302e-001 -3.862336e-017
    outer loop
      vertex   3.212813e+001 1.113037e+001 3.428750e+001
      vertex   3.212813e+001 1.113037e+001 4.428750e+001
      vertex   3.224716e+001 1.059600e+001 3.428750e+001
    endloop
  endfacet
  facet normal 9.973323e-001 7.299531e-002 -0.000000e+000
    outer loop
      vertex   3.224716e+001 1.059600e+001 3.428750e+001
      vertex   3.224716e+001 1.059600e+001 4.428750e+001
      vertex   3.228712e+001 1.005000e+001 3.428750e+001
    endloop
  endfacet
  facet normal 0.000000e+000 0.000000e+000 1.000000e+000
    outer loop
      vertex   3.224716e+001 1.059600e+001 4.428750e+001
      vertex   2.479713e+001 1.032373e+001 4.428750e+001
      vertex   3.228712e+001 1.005000e+001 4.428750e+001
    endloop
  endfacet
  facet normal 0.000000e+000 0.000000e+000 1.000000e+000
    outer loop
      vertex   3.224716e+001 1.059600e+001 4.428750e+001
      vertex   2.487684e+001 1.086536e+001 4.428750e+001
      vertex   2.479713e+001 1.032373e+001 4.428750e+001
    endloop
  endfacet
  facet normal 0.000000e+000 0.000000e+000 1.000000e+000
    outer loop
      vertex   3.224716e+001 1.059600e+001 4.428750e+001
      vertex   3.212813e+001 1.113037e+001 4.428750e+001
      vertex   2.487684e+001 1.086536e+001 4.428750e+001
    endloop
  endfacet
  facet normal 0.000000e+000 -0.000000e+000 1.000000e+000
    outer loop
      vertex   2.487684e+001 1.086536e+001 4.428750e+001
      vertex   3.212813e+001 1.113037e+001 4.428750e+001
      vertex   2.503456e+001 1.138962e+001 4.428750e+001
    endloop
  endfacet
  facet normal -0.000000e+000 -0.000000e+000 1.000000e+000
    outer loop
      vertex   2.503456e+001 1.138962e+001 4.428750e+001
      vertex   3.212813e+001 1.113037e+001 4.428750e+001
      vertex   3.193256e+001 1.164171e+001 4.428750e+001
    endloop
  endfacet
  facet normal -0.000000e+000 -0.000000e+000 1.000000e+000
    outer loop
      vertex   2.526694e+001 1.188532e+001 4.428750e+001
      vertex   3.193256e+001 1.164171e+001 4.428750e+001
      vertex   3.166462e+001 1.211913e+001 4.428750e+001
    endloop
  endfacet
  facet normal -0.000000e+000 -0.000000e+000 1.000000e+000
    outer loop
      vertex   2.556901e+001 1.234190e+001 4.428750e+001
      vertex   3.166462e+001 1.211913e+001 4.428750e+001
      vertex   3.133002e+001 1.255245e+001 4.428750e+001
    endloop
  endfacet
  facet normal -0.000000e+000 -0.000000e+000 1.000000e+000
    outer loop
      vertex   2.593435e+001 1.274964e+001 4.428750e+001
      vertex   3.133002e+001 1.255245e+001 4.428750e+001
      vertex   3.093590e+001 1.293243e+001 4.428750e+001
    endloop
  endfacet
  facet normal -0.000000e+000 -0.000000e+000 1.000000e+000
    outer loop
      vertex   2.635515e+001 1.309984e+001 4.428750e+001
      vertex   3.093590e+001 1.293243e+001 4.428750e+001
      vertex   3.049065e+001 1.325097e+001 4.428750e+001
    endloop
  endfacet
  facet normal -0.000000e+000 -0.000000e+000 1.000000e+000
    outer loop
      vertex   2.682247e+001 1.338503e+001 4.428750e+001
      vertex   3.049065e+001 1.325097e+001 4.428750e+001
      vertex   3.000377e+001 1.350130e+001 4.428750e+001
    endloop
  endfacet
  facet normal -0.000000e+000 -0.000000e+000 1.000000e+000
    outer loop
      vertex   2.732632e+001 1.359915e+001 4.428750e+001
      vertex   3.000377e+001 1.350130e+001 4.428750e+001
      vertex   2.948563e+001 1.367806e+001 4.428750e+001
    endloop
  endfacet
  facet normal -0.000000e+000 -0.000000e+000 1.000000e+000
    outer loop
      vertex   2.785599e+001 1.373762e+001 4.428750e+001
      vertex   2.948563e+001 1.367806e+001 4.428750e+001
      vertex   2.894727e+001 1.377750e+001 4.428750e+001
    endloop
  endfacet
  facet normal -0.000000e+000 0.000000e+000 1.000000e+000
    outer loop
      vertex   2.840017e+001 1.379750e+001 4.428750e+001
      vertex   2.785599e+001 1.373762e+001 4.428750e+001
      vertex   2.894727e+001 1.377750e+001 4.428750e+001
    endloop
  endfacet
  facet normal 0.000000e+000 -0.000000e+000 1.000000e+000
    outer loop
      vertex   2.503456e+001 1.138962e+001 4.428750e+001
      vertex   3.193256e+001 1.164171e+001 4.428750e+001
      vertex   2.526694e+001 1.188532e+001 4.428750e+001
    endloop
  endfacet
  facet normal 0.000000e+000 -0.000000e+000 1.000000e+000
    outer loop
      vertex   2.526694e+001 1.188532e+001 4.428750e+001
      vertex   3.166462e+001 1.211913e+001 4.428750e+001
      vertex   2.556901e+001 1.234190e+001 4.428750e+001
    endloop
  endfacet
  facet normal 0.000000e+000 -0.000000e+000 1.000000e+000
    outer loop
      vertex   2.556901e+001 1.234190e+001 4.428750e+001
      vertex   3.133002e+001 1.255245e+001 4.428750e+001
      vertex   2.593435e+001 1.274964e+001 4.428750e+001
    endloop
  endfacet
  facet normal 0.000000e+000 -0.000000e+000 1.000000e+000
    outer loop
      vertex   2.593435e+001 1.274964e+001 4.428750e+001
      vertex   3.093590e+001 1.293243e+001 4.428750e+001
      vertex   2.635515e+001 1.309984e+001 4.428750e+001
    endloop
  endfacet
  facet normal 0.000000e+000 -0.000000e+000 1.000000e+000
    outer loop
      vertex   2.635515e+001 1.309984e+001 4.428750e+001
      vertex   3.049065e+001 1.325097e+001 4.428750e+001
      vertex   2.682247e+001 1.338503e+001 4.428750e+001
    endloop
  endfacet
  facet normal 0.000000e+000 -0.000000e+000 1.000000e+000
    outer loop
      vertex   2.682247e+001 1.338503e+001 4.428750e+001
      vertex   3.000377e+001 1.350130e+001 4.428750e+001
      vertex   2.732632e+001 1.359915e+001 4.428750e+001
    endloop
  endfacet
  facet normal 0.000000e+000 -0.000000e+000 1.000000e+000
    outer loop
      vertex   2.732632e+001 1.359915e+001 4.428750e+001
      vertex   2.948563e+001 1.367806e+001 4.428750e+001
      vertex   2.785599e+001 1.373762e+001 4.428750e+001
    endloop
  endfacet
  facet normal -0.000000e+000 0.000000e+000 1.000000e+000
    outer loop
      vertex   2.479713e+001 1.032373e+001 4.428750e+001
      vertex   2.479713e+001 9.776268e+000 4.428750e+001
      vertex   3.228712e+001 1.005000e+001 4.428750e+001
    endloop
  endfacet
  facet normal 0.000000e+000 0.000000e+000 1.000000e+000
    outer loop
      vertex   3.228712e+001 1.005000e+001 4.428750e+001
      vertex   2.479713e+001 9.776268e+000 4.428750e+001
      vertex   3.224716e+001 9.503996e+000 4.428750e+001
    endloop
  endfacet
  facet normal 0.000000e+000 0.000000e+000 1.000000e+000
    outer loop
      vertex   3.224716e+001 9.503996e+000 4.428750e+001
      vertex   2.479713e+001 9.776268e+000 4.428750e+001
      vertex   2.487684e+001 9.234637e+000 4.428750e+001
    endloop
  endfacet
  facet normal 0.000000e+000 0.000000e+000 1.000000e+000
    outer loop
      vertex   3.212813e+001 8.969628e+000 4.428750e+001
      vertex   2.487684e+001 9.234637e+000 4.428750e+001
      vertex   2.503456e+001 8.710384e+000 4.428750e+001
    endloop
  endfacet
  facet normal 0.000000e+000 0.000000e+000 1.000000e+000
    outer loop
      vertex   3.193256e+001 8.458287e+000 4.428750e+001
      vertex   2.503456e+001 8.710384e+000 4.428750e+001
      vertex   2.526694e+001 8.214683e+000 4.428750e+001
    endloop
  endfacet
  facet normal 0.000000e+000 0.000000e+000 1.000000e+000
    outer loop
      vertex   3.166462e+001 7.980871e+000 4.428750e+001
      vertex   2.526694e+001 8.214683e+000 4.428750e+001
      vertex   2.556901e+001 7.758099e+000 4.428750e+001
    endloop
  endfacet
  facet normal 0.000000e+000 0.000000e+000 1.000000e+000
    outer loop
      vertex   3.133002e+001 7.547554e+000 4.428750e+001
      vertex   2.556901e+001 7.758099e+000 4.428750e+001
      vertex   2.593435e+001 7.350362e+000 4.428750e+001
    endloop
  endfacet
  facet normal 0.000000e+000 0.000000e+000 1.000000e+000
    outer loop
      vertex   3.093590e+001 7.167573e+000 4.428750e+001
      vertex   2.593435e+001 7.350362e+000 4.428750e+001
      vertex   2.635515e+001 7.000163e+000 4.428750e+001
    endloop
  endfacet
  facet normal 0.000000e+000 0.000000e+000 1.000000e+000
    outer loop
      vertex   3.049065e+001 6.849026e+000 4.428750e+001
      vertex   2.635515e+001 7.000163e+000 4.428750e+001
      vertex   2.682247e+001 6.714967e+000 4.428750e+001
    endloop
  endfacet
  facet normal 0.000000e+000 0.000000e+000 1.000000e+000
    outer loop
      vertex   3.000377e+001 6.598702e+000 4.428750e+001
      vertex   2.682247e+001 6.714967e+000 4.428750e+001
      vertex   2.732632e+001 6.500851e+000 4.428750e+001
    endloop
  endfacet
  facet normal 0.000000e+000 0.000000e+000 1.000000e+000
    outer loop
      vertex   2.948563e+001 6.421936e+000 4.428750e+001
      vertex   2.732632e+001 6.500851e+000 4.428750e+001
      vertex   2.785599e+001 6.362379e+000 4.428750e+001
    endloop
  endfacet
  facet normal 0.000000e+000 0.000000e+000 1.000000e+000
    outer loop
      vertex   2.894727e+001 6.322496e+000 4.428750e+001
      vertex   2.785599e+001 6.362379e+000 4.428750e+001
      vertex   2.840017e+001 6.302502e+000 4.428750e+001
    endloop
  endfacet
  facet normal 0.000000e+000 -0.000000e+000 1.000000e+000
    outer loop
      vertex   2.894727e+001 6.322496e+000 4.428750e+001
      vertex   2.948563e+001 6.421936e+000 4.428750e+001
      vertex   2.785599e+001 6.362379e+000 4.428750e+001
    endloop
  endfacet
  facet normal 0.000000e+000 0.000000e+000 1.000000e+000
    outer loop
      vertex   3.224716e+001 9.503996e+000 4.428750e+001
      vertex   2.487684e+001 9.234637e+000 4.428750e+001
      vertex   3.212813e+001 8.969628e+000 4.428750e+001
    endloop
  endfacet
  facet normal 0.000000e+000 0.000000e+000 1.000000e+000
    outer loop
      vertex   3.212813e+001 8.969628e+000 4.428750e+001
      vertex   2.503456e+001 8.710384e+000 4.428750e+001
      vertex   3.193256e+001 8.458287e+000 4.428750e+001
    endloop
  endfacet
  facet normal 0.000000e+000 0.000000e+000 1.000000e+000
    outer loop
      vertex   3.193256e+001 8.458287e+000 4.428750e+001
      vertex   2.526694e+001 8.214683e+000 4.428750e+001
      vertex   3.166462e+001 7.980871e+000 4.428750e+001
    endloop
  endfacet
  facet normal 0.000000e+000 0.000000e+000 1.000000e+000
    outer loop
      vertex   3.166462e+001 7.980871e+000 4.428750e+001
      vertex   2.556901e+001 7.758099e+000 4.428750e+001
      vertex   3.133002e+001 7.547554e+000 4.428750e+001
    endloop
  endfacet
  facet normal 0.000000e+000 0.000000e+000 1.000000e+000
    outer loop
      vertex   3.133002e+001 7.547554e+000 4.428750e+001
      vertex   2.593435e+001 7.350362e+000 4.428750e+001
      vertex   3.093590e+001 7.167573e+000 4.428750e+001
    endloop
  endfacet
  facet normal 0.000000e+000 0.000000e+000 1.000000e+000
    outer loop
      vertex   3.093590e+001 7.167573e+000 4.428750e+001
      vertex   2.635515e+001 7.000163e+000 4.428750e+001
      vertex   3.049065e+001 6.849026e+000 4.428750e+001
    endloop
  endfacet
  facet normal 0.000000e+000 0.000000e+000 1.000000e+000
    outer loop
      vertex   3.049065e+001 6.849026e+000 4.428750e+001
      vertex   2.682247e+001 6.714967e+000 4.428750e+001
      vertex   3.000377e+001 6.598702e+000 4.428750e+001
    endloop
  endfacet
  facet normal 0.000000e+000 0.000000e+000 1.000000e+000
    outer loop
      vertex   3.000377e+001 6.598702e+000 4.428750e+001
      vertex   2.732632e+001 6.500851e+000 4.428750e+001
      vertex   2.948563e+001 6.421936e+000 4.428750e+001
    endloop
  endfacet
  facet normal 0.000000e+000 0.000000e+000 -1.000000e+000
    outer loop
      vertex   1.700000e+001 1.050000e+000 2.678750e+001
      vertex   1.700000e+001 1.905000e+001 2.678750e+001
      vertex   3.700000e+001 1.050000e+000 2.678750e+001
    endloop
  endfacet
  facet normal 0.000000e+000 0.000000e+000 -1.000000e+000
    outer loop
      vertex   3.700000e+001 1.050000e+000 2.678750e+001
      vertex   1.700000e+001 1.905000e+001 2.678750e+001
      vertex   3.700000e+001 1.905000e+001 2.678750e+001
    endloop
  endfacet
  facet normal 0.000000e+000 -1.000000e+000 0.000000e+000
    outer loop
      vertex   1.700000e+001 1.050000e+000 3.428750e+001
      vertex   1.700000e+001 1.050000e+000 2.678750e+001
      vertex   3.700000e+001 1.050000e+000 3.428750e+001
    endloop
  endfacet
  facet normal 0.000000e+000 -1.000000e+000 -0.000000e+000
    outer loop
      vertex   3.700000e+001 1.050000e+000 3.428750e+001
      vertex   1.700000e+001 1.050000e+000 2.678750e+001
      vertex   3.700000e+001 1.050000e+000 2.678750e+001
    endloop
  endfacet
  facet normal -0.000000e+000 -0.000000e+000 1.000000e+000
    outer loop
      vertex   3.224716e+001 9.503996e+000 3.428750e+001
      vertex   3.700000e+001 1.050000e+000 3.428750e+001
      vertex   3.228712e+001 1.005000e+001 3.428750e+001
    endloop
  endfacet
  facet normal 0.000000e+000 0.000000e+000 1.000000e+000
    outer loop
      vertex   3.224716e+001 9.503996e+000 3.428750e+001
      vertex   3.212813e+001 8.969628e+000 3.428750e+001
      vertex   3.700000e+001 1.050000e+000 3.428750e+001
    endloop
  endfacet
  facet normal 0.000000e+000 0.000000e+000 1.000000e+000
    outer loop
      vertex   3.700000e+001 1.050000e+000 3.428750e+001
      vertex   3.212813e+001 8.969628e+000 3.428750e+001
      vertex   3.193256e+001 8.458287e+000 3.428750e+001
    endloop
  endfacet
  facet normal -0.000000e+000 -0.000000e+000 1.000000e+000
    outer loop
      vertex   3.166462e+001 7.980871e+000 3.428750e+001
      vertex   3.700000e+001 1.050000e+000 3.428750e+001
      vertex   3.193256e+001 8.458287e+000 3.428750e+001
    endloop
  endfacet
  facet normal 0.000000e+000 0.000000e+000 1.000000e+000
    outer loop
      vertex   3.166462e+001 7.980871e+000 3.428750e+001
      vertex   3.133002e+001 7.547554e+000 3.428750e+001
      vertex   3.700000e+001 1.050000e+000 3.428750e+001
    endloop
  endfacet
  facet normal 0.000000e+000 0.000000e+000 1.000000e+000
    outer loop
      vertex   3.700000e+001 1.050000e+000 3.428750e+001
      vertex   3.133002e+001 7.547554e+000 3.428750e+001
      vertex   3.093590e+001 7.167573e+000 3.428750e+001
    endloop
  endfacet
  facet normal -0.000000e+000 -0.000000e+000 1.000000e+000
    outer loop
      vertex   3.049065e+001 6.849026e+000 3.428750e+001
      vertex   3.700000e+001 1.050000e+000 3.428750e+001
      vertex   3.093590e+001 7.167573e+000 3.428750e+001
    endloop
  endfacet
  facet normal 0.000000e+000 0.000000e+000 1.000000e+000
    outer loop
      vertex   3.049065e+001 6.849026e+000 3.428750e+001
      vertex   3.000377e+001 6.598702e+000 3.428750e+001
      vertex   3.700000e+001 1.050000e+000 3.428750e+001
    endloop
  endfacet
  facet normal 0.000000e+000 0.000000e+000 1.000000e+000
    outer loop
      vertex   3.700000e+001 1.050000e+000 3.428750e+001
      vertex   3.000377e+001 6.598702e+000 3.428750e+001
      vertex   2.948563e+001 6.421936e+000 3.428750e+001
    endloop
  endfacet
  facet normal -0.000000e+000 -0.000000e+000 1.000000e+000
    outer loop
      vertex   2.894727e+001 6.322496e+000 3.428750e+001
      vertex   3.700000e+001 1.050000e+000 3.428750e+001
      vertex   2.948563e+001 6.421936e+000 3.428750e+001
    endloop
  endfacet
  facet normal 0.000000e+000 0.000000e+000 1.000000e+000
    outer loop
      vertex   2.894727e+001 6.322496e+000 3.428750e+001
      vertex   2.840017e+001 6.302502e+000 3.428750e+001
      vertex   3.700000e+001 1.050000e+000 3.428750e+001
    endloop
  endfacet
  facet normal 0.000000e+000 0.000000e+000 1.000000e+000
    outer loop
      vertex   3.700000e+001 1.050000e+000 3.428750e+001
      vertex   2.840017e+001 6.302502e+000 3.428750e+001
      vertex   1.700000e+001 1.050000e+000 3.428750e+001
    endloop
  endfacet
  facet normal 0.000000e+000 -0.000000e+000 1.000000e+000
    outer loop
      vertex   1.700000e+001 1.050000e+000 3.428750e+001
      vertex   2.840017e+001 6.302502e+000 3.428750e+001
      vertex   2.785599e+001 6.362379e+000 3.428750e+001
    endloop
  endfacet
  facet normal -0.000000e+000 0.000000e+000 1.000000e+000
    outer loop
      vertex   2.732632e+001 6.500851e+000 3.428750e+001
      vertex   1.700000e+001 1.050000e+000 3.428750e+001
      vertex   2.785599e+001 6.362379e+000 3.428750e+001
    endloop
  endfacet
  facet normal 0.000000e+000 0.000000e+000 1.000000e+000
    outer loop
      vertex   2.732632e+001 6.500851e+000 3.428750e+001
      vertex   2.682247e+001 6.714967e+000 3.428750e+001
      vertex   1.700000e+001 1.050000e+000 3.428750e+001
    endloop
  endfacet
  facet normal 0.000000e+000 -0.000000e+000 1.000000e+000
    outer loop
      vertex   1.700000e+001 1.050000e+000 3.428750e+001
      vertex   2.682247e+001 6.714967e+000 3.428750e+001
      vertex   2.635515e+001 7.000163e+000 3.428750e+001
    endloop
  endfacet
  facet normal -0.000000e+000 0.000000e+000 1.000000e+000
    outer loop
      vertex   2.593435e+001 7.350362e+000 3.428750e+001
      vertex   1.700000e+001 1.050000e+000 3.428750e+001
      vertex   2.635515e+001 7.000163e+000 3.428750e+001
    endloop
  endfacet
  facet normal 0.000000e+000 0.000000e+000 1.000000e+000
    outer loop
      vertex   2.593435e+001 7.350362e+000 3.428750e+001
      vertex   2.556901e+001 7.758099e+000 3.428750e+001
      vertex   1.700000e+001 1.050000e+000 3.428750e+001
    endloop
  endfacet
  facet normal 0.000000e+000 -0.000000e+000 1.000000e+000
    outer loop
      vertex   1.700000e+001 1.050000e+000 3.428750e+001
      vertex   2.556901e+001 7.758099e+000 3.428750e+001
      vertex   2.526694e+001 8.214683e+000 3.428750e+001
    endloop
  endfacet
  facet normal -0.000000e+000 0.000000e+000 1.000000e+000
    outer loop
      vertex   2.503456e+001 8.710384e+000 3.428750e+001
      vertex   1.700000e+001 1.050000e+000 3.428750e+001
      vertex   2.526694e+001 8.214683e+000 3.428750e+001
    endloop
  endfacet
  facet normal 0.000000e+000 0.000000e+000 1.000000e+000
    outer loop
      vertex   2.503456e+001 8.710384e+000 3.428750e+001
      vertex   2.487684e+001 9.234637e+000 3.428750e+001
      vertex   1.700000e+001 1.050000e+000 3.428750e+001
    endloop
  endfacet
  facet normal 0.000000e+000 -0.000000e+000 1.000000e+000
    outer loop
      vertex   1.700000e+001 1.050000e+000 3.428750e+001
      vertex   2.487684e+001 9.234637e+000 3.428750e+001
      vertex   2.479713e+001 9.776268e+000 3.428750e+001
    endloop
  endfacet
  facet normal -0.000000e+000 0.000000e+000 1.000000e+000
    outer loop
      vertex   2.479713e+001 1.032373e+001 3.428750e+001
      vertex   1.700000e+001 1.050000e+000 3.428750e+001
      vertex   2.479713e+001 9.776268e+000 3.428750e+001
    endloop
  endfacet
  facet normal 0.000000e+000 0.000000e+000 1.000000e+000
    outer loop
      vertex   2.479713e+001 1.032373e+001 3.428750e+001
      vertex   1.700000e+001 1.905000e+001 3.428750e+001
      vertex   1.700000e+001 1.050000e+000 3.428750e+001
    endloop
  endfacet
  facet normal 0.000000e+000 -0.000000e+000 1.000000e+000
    outer loop
      vertex   2.479713e+001 1.032373e+001 3.428750e+001
      vertex   2.487684e+001 1.086536e+001 3.428750e+001
      vertex   1.700000e+001 1.905000e+001 3.428750e+001
    endloop
  endfacet
  facet normal -0.000000e+000 0.000000e+000 1.000000e+000
    outer loop
      vertex   1.700000e+001 1.905000e+001 3.428750e+001
      vertex   2.487684e+001 1.086536e+001 3.428750e+001
      vertex   2.503456e+001 1.138962e+001 3.428750e+001
    endloop
  endfacet
  facet normal 0.000000e+000 0.000000e+000 1.000000e+000
    outer loop
      vertex   2.526694e+001 1.188532e+001 3.428750e+001
      vertex   1.700000e+001 1.905000e+001 3.428750e+001
      vertex   2.503456e+001 1.138962e+001 3.428750e+001
    endloop
  endfacet
  facet normal 0.000000e+000 -0.000000e+000 1.000000e+000
    outer loop
      vertex   2.526694e+001 1.188532e+001 3.428750e+001
      vertex   2.556901e+001 1.234190e+001 3.428750e+001
      vertex   1.700000e+001 1.905000e+001 3.428750e+001
    endloop
  endfacet
  facet normal -0.000000e+000 0.000000e+000 1.000000e+000
    outer loop
      vertex   1.700000e+001 1.905000e+001 3.428750e+001
      vertex   2.556901e+001 1.234190e+001 3.428750e+001
      vertex   2.593435e+001 1.274964e+001 3.428750e+001
    endloop
  endfacet
  facet normal 0.000000e+000 0.000000e+000 1.000000e+000
    outer loop
      vertex   2.635515e+001 1.309984e+001 3.428750e+001
      vertex   1.700000e+001 1.905000e+001 3.428750e+001
      vertex   2.593435e+001 1.274964e+001 3.428750e+001
    endloop
  endfacet
  facet normal 0.000000e+000 -0.000000e+000 1.000000e+000
    outer loop
      vertex   2.635515e+001 1.309984e+001 3.428750e+001
      vertex   2.682247e+001 1.338503e+001 3.428750e+001
      vertex   1.700000e+001 1.905000e+001 3.428750e+001
    endloop
  endfacet
  facet normal -0.000000e+000 0.000000e+000 1.000000e+000
    outer loop
      vertex   1.700000e+001 1.905000e+001 3.428750e+001
      vertex   2.682247e+001 1.338503e+001 3.428750e+001
      vertex   2.732632e+001 1.359915e+001 3.428750e+001
    endloop
  endfacet
  facet normal 0.000000e+000 0.000000e+000 1.000000e+000
    outer loop
      vertex   2.785599e+001 1.373762e+001 3.428750e+001
      vertex   1.700000e+001 1.905000e+001 3.428750e+001
      vertex   2.732632e+001 1.359915e+001 3.428750e+001
    endloop
  endfacet
  facet normal 0.000000e+000 -0.000000e+000 1.000000e+000
    outer loop
      vertex   2.785599e+001 1.373762e+001 3.428750e+001
      vertex   2.840017e+001 1.379750e+001 3.428750e+001
      vertex   1.700000e+001 1.905000e+001 3.428750e+001
    endloop
  endfacet
  facet normal -0.000000e+000 0.000000e+000 1.000000e+000
    outer loop
      vertex   1.700000e+001 1.905000e+001 3.428750e+001
      vertex   2.840017e+001 1.379750e+001 3.428750e+001
      vertex   3.700000e+001 1.905000e+001 3.428750e+001
    endloop
  endfacet
  facet normal 0.000000e+000 0.000000e+000 1.000000e+000
    outer loop
      vertex   3.700000e+001 1.905000e+001 3.428750e+001
      vertex   2.840017e+001 1.379750e+001 3.428750e+001
      vertex   2.894727e+001 1.377750e+001 3.428750e+001
    endloop
  endfacet
  facet normal 0.000000e+000 -0.000000e+000 1.000000e+000
    outer loop
      vertex   2.948563e+001 1.367806e+001 3.428750e+001
      vertex   3.700000e+001 1.905000e+001 3.428750e+001
      vertex   2.894727e+001 1.377750e+001 3.428750e+001
    endloop
  endfacet
  facet normal -0.000000e+000 0.000000e+000 1.000000e+000
    outer loop
      vertex   2.948563e+001 1.367806e+001 3.428750e+001
      vertex   3.000377e+001 1.350130e+001 3.428750e+001
      vertex   3.700000e+001 1.905000e+001 3.428750e+001
    endloop
  endfacet
  facet normal 0.000000e+000 0.000000e+000 1.000000e+000
    outer loop
      vertex   3.700000e+001 1.905000e+001 3.428750e+001
      vertex   3.000377e+001 1.350130e+001 3.428750e+001
      vertex   3.049065e+001 1.325097e+001 3.428750e+001
    endloop
  endfacet
  facet normal 0.000000e+000 -0.000000e+000 1.000000e+000
    outer loop
      vertex   3.093590e+001 1.293243e+001 3.428750e+001
      vertex   3.700000e+001 1.905000e+001 3.428750e+001
      vertex   3.049065e+001 1.325097e+001 3.428750e+001
    endloop
  endfacet
  facet normal -0.000000e+000 0.000000e+000 1.000000e+000
    outer loop
      vertex   3.093590e+001 1.293243e+001 3.428750e+001
      vertex   3.133002e+001 1.255245e+001 3.428750e+001
      vertex   3.700000e+001 1.905000e+001 3.428750e+001
    endloop
  endfacet
  facet normal 0.000000e+000 0.000000e+000 1.000000e+000
    outer loop
      vertex   3.700000e+001 1.905000e+001 3.428750e+001
      vertex   3.133002e+001 1.255245e+001 3.428750e+001
      vertex   3.166462e+001 1.211913e+001 3.428750e+001
    endloop
  endfacet
  facet normal 0.000000e+000 -0.000000e+000 1.000000e+000
    outer loop
      vertex   3.193256e+001 1.164171e+001 3.428750e+001
      vertex   3.700000e+001 1.905000e+001 3.428750e+001
      vertex   3.166462e+001 1.211913e+001 3.428750e+001
    endloop
  endfacet
  facet normal -0.000000e+000 0.000000e+000 1.000000e+000
    outer loop
      vertex   3.193256e+001 1.164171e+001 3.428750e+001
      vertex   3.212813e+001 1.113037e+001 3.428750e+001
      vertex   3.700000e+001 1.905000e+001 3.428750e+001
    endloop
  endfacet
  facet normal 0.000000e+000 0.000000e+000 1.000000e+000
    outer loop
      vertex   3.700000e+001 1.905000e+001 3.428750e+001
      vertex   3.212813e+001 1.113037e+001 3.428750e+001
      vertex   3.224716e+001 1.059600e+001 3.428750e+001
    endloop
  endfacet
  facet normal 0.000000e+000 -0.000000e+000 1.000000e+000
    outer loop
      vertex   3.228712e+001 1.005000e+001 3.428750e+001
      vertex   3.700000e+001 1.905000e+001 3.428750e+001
      vertex   3.224716e+001 1.059600e+001 3.428750e+001
    endloop
  endfacet
  facet normal -0.000000e+000 0.000000e+000 1.000000e+000
    outer loop
      vertex   3.228712e+001 1.005000e+001 3.428750e+001
      vertex   3.700000e+001 1.050000e+000 3.428750e+001
      vertex   3.700000e+001 1.905000e+001 3.428750e+001
    endloop
  endfacet
  facet normal -0.000000e+000 1.000000e+000 0.000000e+000
    outer loop
      vertex   1.700000e+001 1.905000e+001 2.678750e+001
      vertex   1.700000e+001 1.905000e+001 3.428750e+001
      vertex   3.700000e+001 1.905000e+001 2.678750e+001
    endloop
  endfacet
  facet normal 0.000000e+000 1.000000e+000 -0.000000e+000
    outer loop
      vertex   3.700000e+001 1.905000e+001 2.678750e+001
      vertex   1.700000e+001 1.905000e+001 3.428750e+001
      vertex   3.700000e+001 1.905000e+001 3.428750e+001
    endloop
  endfacet
  facet normal 1.000000e+000 0.000000e+000 -0.000000e+000
    outer loop
      vertex   3.700000e+001 1.905000e+001 2.678750e+001
      vertex   3.700000e+001 1.905000e+001 3.428750e+001
      vertex   3.700000e+001 1.050000e+000 2.678750e+001
    endloop
  endfacet
  facet normal 1.000000e+000 0.000000e+000 -0.000000e+000
    outer loop
      vertex   3.700000e+001 1.050000e+000 2.678750e+001
      vertex   3.700000e+001 1.905000e+001 3.428750e+001
      vertex   3.700000e+001 1.050000e+000 3.428750e+001
    endloop
  endfacet
  facet normal -1.000000e+000 0.000000e+000 0.000000e+000
    outer loop
      vertex   5.000000e+000 2.000000e+001 2.000000e+001
      vertex   5.000000e+000 0.000000e+000 2.000000e+001
      vertex   5.000000e+000 2.000000e+001 5.000000e+001
    endloop
  endfacet
  facet normal -1.000000e+000 -0.000000e+000 0.000000e+000
    outer loop
      vertex   5.000000e+000 2.000000e+001 5.000000e+001
      vertex   5.000000e+000 0.000000e+000 2.000000e+001
      vertex   5.000000e+000 0.000000e+000 5.000000e+001
    endloop
  endfacet
  facet normal 1.000000e+000 0.000000e+000 0.000000e+000
    outer loop
      vertex   1.700000e+001 1.905000e+001 3.428750e+001
      vertex   1.700000e+001 1.905000e+001 2.678750e+001
      vertex   1.700000e+001 2.000000e+001 2.000000e+001
    endloop
  endfacet
  facet normal 1.000000e+000 0.000000e+000 0.000000e+000
    outer loop
      vertex   1.700000e+001 2.000000e+001 5.000000e+001
      vertex   1.700000e+001 1.905000e+001 3.428750e+001
      vertex   1.700000e+001 2.000000e+001 2.000000e+001
    endloop
  endfacet
  facet normal 1.000000e+000 -0.000000e+000 0.000000e+000
    outer loop
      vertex   1.700000e+001 2.000000e+001 5.000000e+001
      vertex   1.700000e+001 1.050000e+000 3.428750e+001
      vertex   1.700000e+001 1.905000e+001 3.428750e+001
    endloop
  endfacet
  facet normal 1.000000e+000 0.000000e+000 0.000000e+000
    outer loop
      vertex   1.700000e+001 2.000000e+001 5.000000e+001
      vertex   1.700000e+001 0.000000e+000 5.000000e+001
      vertex   1.700000e+001 1.050000e+000 3.428750e+001
    endloop
  endfacet
  facet normal 1.000000e+000 0.000000e+000 0.000000e+000
    outer loop
      vertex   1.700000e+001 1.050000e+000 3.428750e+001
      vertex   1.700000e+001 0.000000e+000 5.000000e+001
      vertex   1.700000e+001 0.000000e+000 2.000000e+001
    endloop
  endfacet
  facet normal 1.000000e+000 -0.000000e+000 0.000000e+000
    outer loop
      vertex   1.700000e+001 1.050000e+000 2.678750e+001
      vertex   1.700000e+001 0.000000e+000 2.000000e+001
      vertex   1.700000e+001 2.000000e+001 2.000000e+001
    endloop
  endfacet
  facet normal 1.000000e+000 0.000000e+000 0.000000e+000
    outer loop
      vertex   1.700000e+001 1.905000e+001 2.678750e+001
      vertex   1.700000e+001 1.050000e+000 2.678750e+001
      vertex   1.700000e+001 2.000000e+001 2.000000e+001
    endloop
  endfacet
  facet normal 1.000000e+000 0.000000e+000 -0.000000e+000
    outer loop
      vertex   1.700000e+001 1.050000e+000 2.678750e+001
      vertex   1.700000e+001 1.050000e+000 3.428750e+001
      vertex   1.700000e+001 0.000000e+000 2.000000e+001
    endloop
  endfacet
  facet normal 0.000000e+000 0.000000e+000 1.000000e+000
    outer loop
      vertex   1.700000e+001 2.000000e+001 5.000000e+001
      vertex   5.000000e+000 2.000000e+001 5.000000e+001
      vertex   1.700000e+001 0.000000e+000 5.000000e+001
    endloop
  endfacet
  facet normal 0.000000e+000 0.000000e+000 1.000000e+000
    outer loop
      vertex   1.700000e+001 0.000000e+000 5.000000e+001
      vertex   5.000000e+000 2.000000e+001 5.000000e+001
      vertex   5.000000e+000 0.000000e+000 5.000000e+001
    endloop
  endfacet
  facet normal 0.000000e+000 -0.000000e+000 1.000000e+000
    outer loop
      vertex   1.700000e+001 0.000000e+000 2.000000e+001
      vertex   2.000000e+001 0.000000e+000 2.000000e+001
      vertex   1.700000e+001 2.000000e+001 2.000000e+001
    endloop
  endfacet
  facet normal -0.000000e+000 0.000000e+000 1.000000e+000
    outer loop
      vertex   1.700000e+001 2.000000e+001 2.000000e+001
      vertex   2.000000e+001 0.000000e+000 2.000000e+001
      vertex   2.000000e+001 2.000000e+001 2.000000e+001
    endloop
  endfacet
  facet normal -1.000000e+000 0.000000e+000 0.000000e+000
    outer loop
      vertex   0.000000e+000 2.000000e+001 0.000000e+000
      vertex   0.000000e+000 0.000000e+000 0.000000e+000
      vertex   0.000000e+000 2.000000e+001 2.000000e+001
    endloop
  endfacet
  facet normal -1.000000e+000 -0.000000e+000 0.000000e+000
    outer loop
      vertex   0.000000e+000 2.000000e+001 2.000000e+001
      vertex   0.000000e+000 0.000000e+000 0.000000e+000
      vertex   0.000000e+000 0.000000e+000 2.000000e+001
    endloop
  endfacet
  facet normal -0.000000e+000 1.000000e+000 0.000000e+000
    outer loop
      vertex   0.000000e+000 2.000000e+001 0.000000e+000
      vertex   5.000000e+000 2.000000e+001 2.000000e+001
      vertex   2.000000e+001 2.000000e+001 0.000000e+000
    endloop
  endfacet
  facet normal 0.000000e+000 1.000000e+000 0.000000e+000
    outer loop
      vertex   0.000000e+000 2.000000e+001 0.000000e+000
      vertex   0.000000e+000 2.000000e+001 2.000000e+001
      vertex   5.000000e+000 2.000000e+001 2.000000e+001
    endloop
  endfacet
  facet normal -0.000000e+000 1.000000e+000 0.000000e+000
    outer loop
      vertex   5.000000e+000 2.000000e+001 5.000000e+001
      vertex   1.700000e+001 2.000000e+001 5.000000e+001
      vertex   5.000000e+000 2.000000e+001 2.000000e+001
    endloop
  endfacet
  facet normal -0.000000e+000 1.000000e+000 0.000000e+000
    outer loop
      vertex   5.000000e+000 2.000000e+001 2.000000e+001
      vertex   1.700000e+001 2.000000e+001 5.000000e+001
      vertex   1.700000e+001 2.000000e+001 2.000000e+001
    endloop
  endfacet
  facet normal 0.000000e+000 1.000000e+000 -0.000000e+000
    outer loop
      vertex   2.000000e+001 2.000000e+001 0.000000e+000
      vertex   1.700000e+001 2.000000e+001 2.000000e+001
      vertex   2.000000e+001 2.000000e+001 2.000000e+001
    endloop
  endfacet
  facet normal 0.000000e+000 1.000000e+000 -0.000000e+000
    outer loop
      vertex   2.000000e+001 2.000000e+001 0.000000e+000
      vertex   5.000000e+000 2.000000e+001 2.000000e+001
      vertex   1.700000e+001 2.000000e+001 2.000000e+001
    endloop
  endfacet
  facet normal 1.000000e+000 0.000000e+000 -0.000000e+000
    outer loop
      vertex   2.000000e+001 0.000000e+000 0.000000e+000
      vertex   2.000000e+001 2.000000e+001 0.000000e+000
      vertex   2.000000e+001 0.000000e+000 2.000000e+001
    endloop
  endfacet
  facet normal 1.000000e+000 -0.000000e+000 0.000000e+000
    outer loop
      vertex   2.000000e+001 0.000000e+000 2.000000e+001
      vertex   2.000000e+001 2.000000e+001 0.000000e+000
      vertex   2.000000e+001 2.000000e+001 2.000000e+001
    endloop
  endfacet
  facet normal 0.000000e+000 -1.000000e+000 0.000000e+000
    outer loop
      vertex   0.000000e+000 0.000000e+000 2.000000e+001
      vertex   0.000000e+000 0.000000e+000 0.000000e+000
      vertex   5.000000e+000 0.000000e+000 2.000000e+001
    endloop
  endfacet
  facet normal 0.000000e+000 -1.000000e+000 -0.000000e+000
    outer loop
      vertex   5.000000e+000 0.000000e+000 2.000000e+001
      vertex   0.000000e+000 0.000000e+000 0.000000e+000
      vertex   2.000000e+001 0.000000e+000 0.000000e+000
    endloop
  endfacet
  facet normal 0.000000e+000 -1.000000e+000 0.000000e+000
    outer loop
      vertex   1.700000e+001 0.000000e+000 2.000000e+001
      vertex   2.000000e+001 0.000000e+000 0.000000e+000
      vertex   2.000000e+001 0.000000e+000 2.000000e+001
    endloop
  endfacet
  facet normal -0.000000e+000 -1.000000e+000 -0.000000e+000
    outer loop
      vertex   1.700000e+001 0.000000e+000 2.000000e+001
      vertex   5.000000e+000 0.000000e+000 2.000000e+001
      vertex   2.000000e+001 0.000000e+000 0.000000e+000
    endloop
  endfacet
  facet normal -0.000000e+000 -1.000000e+000 -0.000000e+000
    outer loop
      vertex   1.700000e+001 0.000000e+000 2.000000e+001
      vertex   5.000000e+000 0.000000e+000 5.000000e+001
      vertex   5.000000e+000 0.000000e+000 2.000000e+001
    endloop
  endfacet
  facet normal 0.000000e+000 -1.000000e+000 0.000000e+000
    outer loop
      vertex   1.700000e+001 0.000000e+000 2.000000e+001
      vertex   1.700000e+001 0.000000e+000 5.000000e+001
      vertex   5.000000e+000 0.000000e+000 5.000000e+001
    endloop
  endfacet
  facet normal 0.000000e+000 0.000000e+000 1.000000e+000
    outer loop
      vertex   5.000000e+000 2.000000e+001 2.000000e+001
      vertex   0.000000e+000 2.000000e+001 2.000000e+001
      vertex   5.000000e+000 0.000000e+000 2.000000e+001
    endloop
  endfacet
  facet normal 0.000000e+000 0.000000e+000 1.000000e+000
    outer loop
      vertex   5.000000e+000 0.000000e+000 2.000000e+001
      vertex   0.000000e+000 2.000000e+001 2.000000e+001
      vertex   0.000000e+000 0.000000e+000 2.000000e+001
    endloop
  endfacet
  facet normal 0.000000e+000 0.000000e+000 -1.000000e+000
    outer loop
      vertex   2.000000e+001 0.000000e+000 0.000000e+000
      vertex   0.000000e+000 0.000000e+000 0.000000e+000
      vertex   2.000000e+001 2.000000e+001 0.000000e+000
    endloop
  endfacet
  facet normal -0.000000e+000 0.000000e+000 -1.000000e+000
    outer loop
      vertex   2.000000e+001 2.000000e+001 0.000000e+000
      vertex   0.000000e+000 0.000000e+000 0.000000e+000
      vertex   0.000000e+000 2.000000e+001 0.000000e+000
    endloop
  endfacet
endsolid
