solid ascii
  facet normal 9.974521e-001 -7.133918e-002 0.000000e+000
    outer loop
      vertex   3.224896e+001 9.516319e+000 4.428750e+001
      vertex   3.224896e+001 9.516319e+000 3.428750e+001
      vertex   3.228712e+001 1.005000e+001 4.428750e+001
    endloop
  endfacet
  facet normal 9.771469e-001 -2.125653e-001 0.000000e+000
    outer loop
      vertex   3.224896e+001 9.516319e+000 4.428750e+001
      vertex   3.213522e+001 8.993503e+000 3.428750e+001
      vertex   3.224896e+001 9.516319e+000 3.428750e+001
    endloop
  endfacet
  facet normal 9.771469e-001 -2.125653e-001 0.000000e+000
    outer loop
      vertex   3.224896e+001 9.516319e+000 4.428750e+001
      vertex   3.213522e+001 8.993503e+000 4.428750e+001
      vertex   3.213522e+001 8.993503e+000 3.428750e+001
    endloop
  endfacet
  facet normal 9.369497e-001 -3.494642e-001 0.000000e+000
    outer loop
      vertex   3.213522e+001 8.993503e+000 3.428750e+001
      vertex   3.213522e+001 8.993503e+000 4.428750e+001
      vertex   3.194824e+001 8.492194e+000 3.428750e+001
    endloop
  endfacet
  facet normal 9.369497e-001 -3.494642e-001 0.000000e+000
    outer loop
      vertex   3.194824e+001 8.492194e+000 3.428750e+001
      vertex   3.213522e+001 8.993503e+000 4.428750e+001
      vertex   3.194824e+001 8.492194e+000 4.428750e+001
    endloop
  endfacet
  facet normal 8.776790e-001 -4.792490e-001 8.559429e-017
    outer loop
      vertex   3.169183e+001 8.022597e+000 3.428750e+001
      vertex   3.194824e+001 8.492194e+000 4.428750e+001
      vertex   3.169183e+001 8.022597e+000 4.428750e+001
    endloop
  endfacet
  facet normal 8.005412e-001 -5.992777e-001 1.089382e-016
    outer loop
      vertex   3.137119e+001 7.594272e+000 3.428750e+001
      vertex   3.169183e+001 8.022597e+000 4.428750e+001
      vertex   3.137119e+001 7.594272e+000 4.428750e+001
    endloop
  endfacet
  facet normal 7.071068e-001 -7.071068e-001 6.225039e-017
    outer loop
      vertex   3.099285e+001 7.215939e+000 3.428750e+001
      vertex   3.137119e+001 7.594272e+000 4.428750e+001
      vertex   3.099285e+001 7.215939e+000 4.428750e+001
    endloop
  endfacet
  facet normal 5.992777e-001 -8.005412e-001 -1.452509e-016
    outer loop
      vertex   3.056453e+001 6.895299e+000 3.428750e+001
      vertex   3.099285e+001 7.215939e+000 4.428750e+001
      vertex   3.056453e+001 6.895299e+000 4.428750e+001
    endloop
  endfacet
  facet normal 4.792490e-001 -8.776790e-001 -7.781299e-017
    outer loop
      vertex   3.009493e+001 6.638880e+000 3.428750e+001
      vertex   3.056453e+001 6.895299e+000 4.428750e+001
      vertex   3.009493e+001 6.638880e+000 4.428750e+001
    endloop
  endfacet
  facet normal 3.494642e-001 -9.369497e-001 0.000000e+000
    outer loop
      vertex   2.959362e+001 6.451901e+000 3.428750e+001
      vertex   3.009493e+001 6.638880e+000 4.428750e+001
      vertex   2.959362e+001 6.451901e+000 4.428750e+001
    endloop
  endfacet
  facet normal 2.125653e-001 -9.771469e-001 0.000000e+000
    outer loop
      vertex   2.907081e+001 6.338170e+000 3.428750e+001
      vertex   2.959362e+001 6.451901e+000 4.428750e+001
      vertex   2.907081e+001 6.338170e+000 4.428750e+001
    endloop
  endfacet
  facet normal 7.133918e-002 -9.974521e-001 0.000000e+000
    outer loop
      vertex   2.853712e+001 6.300000e+000 3.428750e+001
      vertex   2.907081e+001 6.338170e+000 4.428750e+001
      vertex   2.853712e+001 6.300000e+000 4.428750e+001
    endloop
  endfacet
  facet normal -7.133918e-002 -9.974521e-001 0.000000e+000
    outer loop
      vertex   2.800344e+001 6.338170e+000 3.428750e+001
      vertex   2.853712e+001 6.300000e+000 4.428750e+001
      vertex   2.800344e+001 6.338170e+000 4.428750e+001
    endloop
  endfacet
  facet normal -2.125653e-001 -9.771469e-001 0.000000e+000
    outer loop
      vertex   2.748063e+001 6.451901e+000 3.428750e+001
      vertex   2.800344e+001 6.338170e+000 4.428750e+001
      vertex   2.748063e+001 6.451901e+000 4.428750e+001
    endloop
  endfacet
  facet normal -3.494642e-001 -9.369497e-001 4.150026e-017
    outer loop
      vertex   2.697932e+001 6.638880e+000 3.428750e+001
      vertex   2.748063e+001 6.451901e+000 4.428750e+001
      vertex   2.697932e+001 6.638880e+000 4.428750e+001
    endloop
  endfacet
  facet normal -4.792490e-001 -8.776790e-001 -1.556260e-016
    outer loop
      vertex   2.650972e+001 6.895299e+000 3.428750e+001
      vertex   2.697932e+001 6.638880e+000 4.428750e+001
      vertex   2.650972e+001 6.895299e+000 4.428750e+001
    endloop
  endfacet
  facet normal -5.992777e-001 -8.005412e-001 0.000000e+000
    outer loop
      vertex   2.608140e+001 7.215939e+000 3.428750e+001
      vertex   2.650972e+001 6.895299e+000 4.428750e+001
      vertex   2.608140e+001 7.215939e+000 4.428750e+001
    endloop
  endfacet
  facet normal -7.071068e-001 -7.071068e-001 0.000000e+000
    outer loop
      vertex   2.570306e+001 7.594272e+000 3.428750e+001
      vertex   2.608140e+001 7.215939e+000 4.428750e+001
      vertex   2.570306e+001 7.594272e+000 4.428750e+001
    endloop
  endfacet
  facet normal -8.005412e-001 -5.992777e-001 0.000000e+000
    outer loop
      vertex   2.538242e+001 8.022597e+000 3.428750e+001
      vertex   2.570306e+001 7.594272e+000 4.428750e+001
      vertex   2.538242e+001 8.022597e+000 4.428750e+001
    endloop
  endfacet
  facet normal -8.776790e-001 -4.792490e-001 0.000000e+000
    outer loop
      vertex   2.512600e+001 8.492194e+000 3.428750e+001
      vertex   2.538242e+001 8.022597e+000 4.428750e+001
      vertex   2.512600e+001 8.492194e+000 4.428750e+001
    endloop
  endfacet
  facet normal -9.369497e-001 -3.494642e-001 0.000000e+000
    outer loop
      vertex   2.493903e+001 8.993503e+000 3.428750e+001
      vertex   2.512600e+001 8.492194e+000 4.428750e+001
      vertex   2.493903e+001 8.993503e+000 4.428750e+001
    endloop
  endfacet
  facet normal -9.771469e-001 -2.125653e-001 0.000000e+000
    outer loop
      vertex   2.482529e+001 9.516319e+000 3.428750e+001
      vertex   2.493903e+001 8.993503e+000 4.428750e+001
      vertex   2.482529e+001 9.516319e+000 4.428750e+001
    endloop
  endfacet
  facet normal -9.974521e-001 -7.133918e-002 0.000000e+000
    outer loop
      vertex   2.478712e+001 1.005000e+001 3.428750e+001
      vertex   2.482529e+001 9.516319e+000 4.428750e+001
      vertex   2.478712e+001 1.005000e+001 4.428750e+001
    endloop
  endfacet
  facet normal -9.974521e-001 7.133918e-002 0.000000e+000
    outer loop
      vertex   2.482529e+001 1.058368e+001 3.428750e+001
      vertex   2.478712e+001 1.005000e+001 4.428750e+001
      vertex   2.482529e+001 1.058368e+001 4.428750e+001
    endloop
  endfacet
  facet normal -9.771469e-001 2.125653e-001 0.000000e+000
    outer loop
      vertex   2.493903e+001 1.110650e+001 3.428750e+001
      vertex   2.482529e+001 1.058368e+001 4.428750e+001
      vertex   2.493903e+001 1.110650e+001 4.428750e+001
    endloop
  endfacet
  facet normal -9.369497e-001 3.494642e-001 0.000000e+000
    outer loop
      vertex   2.512600e+001 1.160781e+001 3.428750e+001
      vertex   2.493903e+001 1.110650e+001 4.428750e+001
      vertex   2.512600e+001 1.160781e+001 4.428750e+001
    endloop
  endfacet
  facet normal -8.776790e-001 4.792490e-001 0.000000e+000
    outer loop
      vertex   2.538242e+001 1.207740e+001 3.428750e+001
      vertex   2.512600e+001 1.160781e+001 4.428750e+001
      vertex   2.538242e+001 1.207740e+001 4.428750e+001
    endloop
  endfacet
  facet normal -8.005412e-001 5.992777e-001 0.000000e+000
    outer loop
      vertex   2.570306e+001 1.250573e+001 3.428750e+001
      vertex   2.538242e+001 1.207740e+001 4.428750e+001
      vertex   2.570306e+001 1.250573e+001 4.428750e+001
    endloop
  endfacet
  facet normal -7.071068e-001 7.071068e-001 0.000000e+000
    outer loop
      vertex   2.608140e+001 1.288406e+001 3.428750e+001
      vertex   2.570306e+001 1.250573e+001 4.428750e+001
      vertex   2.608140e+001 1.288406e+001 4.428750e+001
    endloop
  endfacet
  facet normal -5.992777e-001 8.005412e-001 1.452509e-016
    outer loop
      vertex   2.650972e+001 1.320470e+001 3.428750e+001
      vertex   2.608140e+001 1.288406e+001 4.428750e+001
      vertex   2.650972e+001 1.320470e+001 4.428750e+001
    endloop
  endfacet
  facet normal -4.792490e-001 8.776790e-001 -1.296883e-017
    outer loop
      vertex   2.697932e+001 1.346112e+001 3.428750e+001
      vertex   2.650972e+001 1.320470e+001 4.428750e+001
      vertex   2.697932e+001 1.346112e+001 4.428750e+001
    endloop
  endfacet
  facet normal -3.494642e-001 9.369497e-001 0.000000e+000
    outer loop
      vertex   2.748063e+001 1.364810e+001 3.428750e+001
      vertex   2.697932e+001 1.346112e+001 4.428750e+001
      vertex   2.748063e+001 1.364810e+001 4.428750e+001
    endloop
  endfacet
  facet normal -2.125653e-001 9.771469e-001 0.000000e+000
    outer loop
      vertex   2.800344e+001 1.376183e+001 3.428750e+001
      vertex   2.748063e+001 1.364810e+001 4.428750e+001
      vertex   2.800344e+001 1.376183e+001 4.428750e+001
    endloop
  endfacet
  facet normal -7.133918e-002 9.974521e-001 0.000000e+000
    outer loop
      vertex   2.853712e+001 1.380000e+001 3.428750e+001
      vertex   2.800344e+001 1.376183e+001 4.428750e+001
      vertex   2.853712e+001 1.380000e+001 4.428750e+001
    endloop
  endfacet
  facet normal 7.133918e-002 9.974521e-001 0.000000e+000
    outer loop
      vertex   2.907081e+001 1.376183e+001 3.428750e+001
      vertex   2.853712e+001 1.380000e+001 4.428750e+001
      vertex   2.907081e+001 1.376183e+001 4.428750e+001
    endloop
  endfacet
  facet normal 2.125653e-001 9.771469e-001 0.000000e+000
    outer loop
      vertex   2.959362e+001 1.364810e+001 3.428750e+001
      vertex   2.907081e+001 1.376183e+001 4.428750e+001
      vertex   2.959362e+001 1.364810e+001 4.428750e+001
    endloop
  endfacet
  facet normal 3.494642e-001 9.369497e-001 0.000000e+000
    outer loop
      vertex   3.009493e+001 1.346112e+001 3.428750e+001
      vertex   2.959362e+001 1.364810e+001 4.428750e+001
      vertex   3.009493e+001 1.346112e+001 4.428750e+001
    endloop
  endfacet
  facet normal 4.792490e-001 8.776790e-001 1.556260e-016
    outer loop
      vertex   3.056453e+001 1.320470e+001 3.428750e+001
      vertex   3.009493e+001 1.346112e+001 4.428750e+001
      vertex   3.056453e+001 1.320470e+001 4.428750e+001
    endloop
  endfacet
  facet normal 5.992777e-001 8.005412e-001 0.000000e+000
    outer loop
      vertex   3.099285e+001 1.288406e+001 3.428750e+001
      vertex   3.056453e+001 1.320470e+001 4.428750e+001
      vertex   3.099285e+001 1.288406e+001 4.428750e+001
    endloop
  endfacet
  facet normal 7.071068e-001 7.071068e-001 0.000000e+000
    outer loop
      vertex   3.137119e+001 1.250573e+001 3.428750e+001
      vertex   3.099285e+001 1.288406e+001 4.428750e+001
      vertex   3.137119e+001 1.250573e+001 4.428750e+001
    endloop
  endfacet
  facet normal 8.005412e-001 5.992777e-001 0.000000e+000
    outer loop
      vertex   3.169183e+001 1.207740e+001 3.428750e+001
      vertex   3.137119e+001 1.250573e+001 4.428750e+001
      vertex   3.169183e+001 1.207740e+001 4.428750e+001
    endloop
  endfacet
  facet normal 8.776790e-001 4.792490e-001 0.000000e+000
    outer loop
      vertex   3.194824e+001 1.160781e+001 3.428750e+001
      vertex   3.169183e+001 1.207740e+001 4.428750e+001
      vertex   3.194824e+001 1.160781e+001 4.428750e+001
    endloop
  endfacet
  facet normal 9.369497e-001 3.494642e-001 0.000000e+000
    outer loop
      vertex   3.213522e+001 1.110650e+001 3.428750e+001
      vertex   3.194824e+001 1.160781e+001 4.428750e+001
      vertex   3.213522e+001 1.110650e+001 4.428750e+001
    endloop
  endfacet
  facet normal 9.771469e-001 2.125653e-001 0.000000e+000
    outer loop
      vertex   3.224896e+001 1.058368e+001 3.428750e+001
      vertex   3.213522e+001 1.110650e+001 4.428750e+001
      vertex   3.224896e+001 1.058368e+001 4.428750e+001
    endloop
  endfacet
  facet normal 9.974521e-001 7.133918e-002 0.000000e+000
    outer loop
      vertex   3.228712e+001 1.005000e+001 3.428750e+001
      vertex   3.224896e+001 1.058368e+001 4.428750e+001
      vertex   3.228712e+001 1.005000e+001 4.428750e+001
    endloop
  endfacet
  facet normal 9.974521e-001 -7.133918e-002 0.000000e+000
    outer loop
      vertex   3.224896e+001 9.516319e+000 3.428750e+001
      vertex   3.228712e+001 1.005000e+001 3.428750e+001
      vertex   3.228712e+001 1.005000e+001 4.428750e+001
    endloop
  endfacet
  facet normal 8.776790e-001 -4.792490e-001 0.000000e+000
    outer loop
      vertex   3.194824e+001 8.492194e+000 3.428750e+001
      vertex   3.194824e+001 8.492194e+000 4.428750e+001
      vertex   3.169183e+001 8.022597e+000 3.428750e+001
    endloop
  endfacet
  facet normal 8.005412e-001 -5.992777e-001 1.064531e-016
    outer loop
      vertex   3.169183e+001 8.022597e+000 3.428750e+001
      vertex   3.169183e+001 8.022597e+000 4.428750e+001
      vertex   3.137119e+001 7.594272e+000 3.428750e+001
    endloop
  endfacet
  facet normal 7.071068e-001 -7.071068e-001 1.256074e-016
    outer loop
      vertex   3.137119e+001 7.594272e+000 3.428750e+001
      vertex   3.137119e+001 7.594272e+000 4.428750e+001
      vertex   3.099285e+001 7.215939e+000 3.428750e+001
    endloop
  endfacet
  facet normal 5.992777e-001 -8.005412e-001 7.110235e-017
    outer loop
      vertex   3.099285e+001 7.215939e+000 3.428750e+001
      vertex   3.099285e+001 7.215939e+000 4.428750e+001
      vertex   3.056453e+001 6.895299e+000 3.428750e+001
    endloop
  endfacet
  facet normal 4.792490e-001 -8.776790e-001 -1.559071e-016
    outer loop
      vertex   3.056453e+001 6.895299e+000 3.428750e+001
      vertex   3.056453e+001 6.895299e+000 4.428750e+001
      vertex   3.009493e+001 6.638880e+000 3.428750e+001
    endloop
  endfacet
  facet normal 3.494642e-001 -9.369497e-001 -8.321785e-017
    outer loop
      vertex   3.009493e+001 6.638880e+000 3.428750e+001
      vertex   3.009493e+001 6.638880e+000 4.428750e+001
      vertex   2.959362e+001 6.451901e+000 3.428750e+001
    endloop
  endfacet
  facet normal 2.125653e-001 -9.771469e-001 0.000000e+000
    outer loop
      vertex   2.959362e+001 6.451901e+000 3.428750e+001
      vertex   2.959362e+001 6.451901e+000 4.428750e+001
      vertex   2.907081e+001 6.338170e+000 3.428750e+001
    endloop
  endfacet
  facet normal 7.133918e-002 -9.974521e-001 0.000000e+000
    outer loop
      vertex   2.907081e+001 6.338170e+000 3.428750e+001
      vertex   2.907081e+001 6.338170e+000 4.428750e+001
      vertex   2.853712e+001 6.300000e+000 3.428750e+001
    endloop
  endfacet
  facet normal -7.133918e-002 -9.974521e-001 0.000000e+000
    outer loop
      vertex   2.853712e+001 6.300000e+000 3.428750e+001
      vertex   2.853712e+001 6.300000e+000 4.428750e+001
      vertex   2.800344e+001 6.338170e+000 3.428750e+001
    endloop
  endfacet
  facet normal -2.125653e-001 -9.771469e-001 0.000000e+000
    outer loop
      vertex   2.800344e+001 6.338170e+000 3.428750e+001
      vertex   2.800344e+001 6.338170e+000 4.428750e+001
      vertex   2.748063e+001 6.451901e+000 3.428750e+001
    endloop
  endfacet
  facet normal -3.494642e-001 -9.369497e-001 0.000000e+000
    outer loop
      vertex   2.748063e+001 6.451901e+000 3.428750e+001
      vertex   2.748063e+001 6.451901e+000 4.428750e+001
      vertex   2.697932e+001 6.638880e+000 3.428750e+001
    endloop
  endfacet
  facet normal -4.792490e-001 -8.776790e-001 9.230989e-017
    outer loop
      vertex   2.697932e+001 6.638880e+000 3.428750e+001
      vertex   2.697932e+001 6.638880e+000 4.428750e+001
      vertex   2.650972e+001 6.895299e+000 3.428750e+001
    endloop
  endfacet
  facet normal -5.992777e-001 -8.005412e-001 -1.422047e-016
    outer loop
      vertex   2.650972e+001 6.895299e+000 3.428750e+001
      vertex   2.650972e+001 6.895299e+000 4.428750e+001
      vertex   2.608140e+001 7.215939e+000 3.428750e+001
    endloop
  endfacet
  facet normal -7.071068e-001 -7.071068e-001 0.000000e+000
    outer loop
      vertex   2.608140e+001 7.215939e+000 3.428750e+001
      vertex   2.608140e+001 7.215939e+000 4.428750e+001
      vertex   2.570306e+001 7.594272e+000 3.428750e+001
    endloop
  endfacet
  facet normal -8.005412e-001 -5.992777e-001 0.000000e+000
    outer loop
      vertex   2.570306e+001 7.594272e+000 3.428750e+001
      vertex   2.570306e+001 7.594272e+000 4.428750e+001
      vertex   2.538242e+001 8.022597e+000 3.428750e+001
    endloop
  endfacet
  facet normal -8.776790e-001 -4.792490e-001 0.000000e+000
    outer loop
      vertex   2.538242e+001 8.022597e+000 3.428750e+001
      vertex   2.538242e+001 8.022597e+000 4.428750e+001
      vertex   2.512600e+001 8.492194e+000 3.428750e+001
    endloop
  endfacet
  facet normal -9.369497e-001 -3.494642e-001 0.000000e+000
    outer loop
      vertex   2.512600e+001 8.492194e+000 3.428750e+001
      vertex   2.512600e+001 8.492194e+000 4.428750e+001
      vertex   2.493903e+001 8.993503e+000 3.428750e+001
    endloop
  endfacet
  facet normal -9.771469e-001 -2.125653e-001 0.000000e+000
    outer loop
      vertex   2.493903e+001 8.993503e+000 3.428750e+001
      vertex   2.493903e+001 8.993503e+000 4.428750e+001
      vertex   2.482529e+001 9.516319e+000 3.428750e+001
    endloop
  endfacet
  facet normal -9.974521e-001 -7.133918e-002 0.000000e+000
    outer loop
      vertex   2.482529e+001 9.516319e+000 3.428750e+001
      vertex   2.482529e+001 9.516319e+000 4.428750e+001
      vertex   2.478712e+001 1.005000e+001 3.428750e+001
    endloop
  endfacet
  facet normal -9.974521e-001 7.133918e-002 0.000000e+000
    outer loop
      vertex   2.478712e+001 1.005000e+001 3.428750e+001
      vertex   2.478712e+001 1.005000e+001 4.428750e+001
      vertex   2.482529e+001 1.058368e+001 3.428750e+001
    endloop
  endfacet
  facet normal -9.771469e-001 2.125653e-001 0.000000e+000
    outer loop
      vertex   2.482529e+001 1.058368e+001 3.428750e+001
      vertex   2.482529e+001 1.058368e+001 4.428750e+001
      vertex   2.493903e+001 1.110650e+001 3.428750e+001
    endloop
  endfacet
  facet normal -9.369497e-001 3.494642e-001 0.000000e+000
    outer loop
      vertex   2.493903e+001 1.110650e+001 3.428750e+001
      vertex   2.493903e+001 1.110650e+001 4.428750e+001
      vertex   2.512600e+001 1.160781e+001 3.428750e+001
    endloop
  endfacet
  facet normal -8.776790e-001 4.792490e-001 0.000000e+000
    outer loop
      vertex   2.512600e+001 1.160781e+001 3.428750e+001
      vertex   2.512600e+001 1.160781e+001 4.428750e+001
      vertex   2.538242e+001 1.207740e+001 3.428750e+001
    endloop
  endfacet
  facet normal -8.005412e-001 5.992777e-001 0.000000e+000
    outer loop
      vertex   2.538242e+001 1.207740e+001 3.428750e+001
      vertex   2.538242e+001 1.207740e+001 4.428750e+001
      vertex   2.570306e+001 1.250573e+001 3.428750e+001
    endloop
  endfacet
  facet normal -7.071068e-001 7.071068e-001 0.000000e+000
    outer loop
      vertex   2.570306e+001 1.250573e+001 3.428750e+001
      vertex   2.570306e+001 1.250573e+001 4.428750e+001
      vertex   2.608140e+001 1.288406e+001 3.428750e+001
    endloop
  endfacet
  facet normal -5.992777e-001 8.005412e-001 0.000000e+000
    outer loop
      vertex   2.608140e+001 1.288406e+001 3.428750e+001
      vertex   2.608140e+001 1.288406e+001 4.428750e+001
      vertex   2.650972e+001 1.320470e+001 3.428750e+001
    endloop
  endfacet
  facet normal -4.792490e-001 8.776790e-001 1.559071e-016
    outer loop
      vertex   2.650972e+001 1.320470e+001 3.428750e+001
      vertex   2.650972e+001 1.320470e+001 4.428750e+001
      vertex   2.697932e+001 1.346112e+001 3.428750e+001
    endloop
  endfacet
  facet normal -3.494642e-001 9.369497e-001 4.228109e-017
    outer loop
      vertex   2.697932e+001 1.346112e+001 3.428750e+001
      vertex   2.697932e+001 1.346112e+001 4.428750e+001
      vertex   2.748063e+001 1.364810e+001 3.428750e+001
    endloop
  endfacet
  facet normal -2.125653e-001 9.771469e-001 0.000000e+000
    outer loop
      vertex   2.748063e+001 1.364810e+001 3.428750e+001
      vertex   2.748063e+001 1.364810e+001 4.428750e+001
      vertex   2.800344e+001 1.376183e+001 3.428750e+001
    endloop
  endfacet
  facet normal -7.133918e-002 9.974521e-001 0.000000e+000
    outer loop
      vertex   2.800344e+001 1.376183e+001 3.428750e+001
      vertex   2.800344e+001 1.376183e+001 4.428750e+001
      vertex   2.853712e+001 1.380000e+001 3.428750e+001
    endloop
  endfacet
  facet normal 7.133918e-002 9.974521e-001 -0.000000e+000
    outer loop
      vertex   2.853712e+001 1.380000e+001 3.428750e+001
      vertex   2.853712e+001 1.380000e+001 4.428750e+001
      vertex   2.907081e+001 1.376183e+001 3.428750e+001
    endloop
  endfacet
  facet normal 2.125653e-001 9.771469e-001 -0.000000e+000
    outer loop
      vertex   2.907081e+001 1.376183e+001 3.428750e+001
      vertex   2.907081e+001 1.376183e+001 4.428750e+001
      vertex   2.959362e+001 1.364810e+001 3.428750e+001
    endloop
  endfacet
  facet normal 3.494642e-001 9.369497e-001 -0.000000e+000
    outer loop
      vertex   2.959362e+001 1.364810e+001 3.428750e+001
      vertex   2.959362e+001 1.364810e+001 4.428750e+001
      vertex   3.009493e+001 1.346112e+001 3.428750e+001
    endloop
  endfacet
  facet normal 4.792490e-001 8.776790e-001 -0.000000e+000
    outer loop
      vertex   3.009493e+001 1.346112e+001 3.428750e+001
      vertex   3.009493e+001 1.346112e+001 4.428750e+001
      vertex   3.056453e+001 1.320470e+001 3.428750e+001
    endloop
  endfacet
  facet normal 5.992777e-001 8.005412e-001 1.422047e-016
    outer loop
      vertex   3.056453e+001 1.320470e+001 3.428750e+001
      vertex   3.056453e+001 1.320470e+001 4.428750e+001
      vertex   3.099285e+001 1.288406e+001 3.428750e+001
    endloop
  endfacet
  facet normal 7.071068e-001 7.071068e-001 -0.000000e+000
    outer loop
      vertex   3.099285e+001 1.288406e+001 3.428750e+001
      vertex   3.099285e+001 1.288406e+001 4.428750e+001
      vertex   3.137119e+001 1.250573e+001 3.428750e+001
    endloop
  endfacet
  facet normal 8.005412e-001 5.992777e-001 -0.000000e+000
    outer loop
      vertex   3.137119e+001 1.250573e+001 3.428750e+001
      vertex   3.137119e+001 1.250573e+001 4.428750e+001
      vertex   3.169183e+001 1.207740e+001 3.428750e+001
    endloop
  endfacet
  facet normal 8.776790e-001 4.792490e-001 -0.000000e+000
    outer loop
      vertex   3.169183e+001 1.207740e+001 3.428750e+001
      vertex   3.169183e+001 1.207740e+001 4.428750e+001
      vertex   3.194824e+001 1.160781e+001 3.428750e+001
    endloop
  endfacet
  facet normal 9.369497e-001 3.494642e-001 -0.000000e+000
    outer loop
      vertex   3.194824e+001 1.160781e+001 3.428750e+001
      vertex   3.194824e+001 1.160781e+001 4.428750e+001
      vertex   3.213522e+001 1.110650e+001 3.428750e+001
    endloop
  endfacet
  facet normal 9.771469e-001 2.125653e-001 -0.000000e+000
    outer loop
      vertex   3.213522e+001 1.110650e+001 3.428750e+001
      vertex   3.213522e+001 1.110650e+001 4.428750e+001
      vertex   3.224896e+001 1.058368e+001 3.428750e+001
    endloop
  endfacet
  facet normal 9.974521e-001 7.133918e-002 -0.000000e+000
    outer loop
      vertex   3.224896e+001 1.058368e+001 3.428750e+001
      vertex   3.224896e+001 1.058368e+001 4.428750e+001
      vertex   3.228712e+001 1.005000e+001 3.428750e+001
    endloop
  endfacet
  facet normal 0.000000e+000 0.000000e+000 1.000000e+000
    outer loop
      vertex   3.224896e+001 1.058368e+001 4.428750e+001
      vertex   2.482529e+001 1.058368e+001 4.428750e+001
      vertex   3.228712e+001 1.005000e+001 4.428750e+001
    endloop
  endfacet
  facet normal 0.000000e+000 0.000000e+000 1.000000e+000
    outer loop
      vertex   3.224896e+001 1.058368e+001 4.428750e+001
      vertex   2.493903e+001 1.110650e+001 4.428750e+001
      vertex   2.482529e+001 1.058368e+001 4.428750e+001
    endloop
  endfacet
  facet normal 0.000000e+000 0.000000e+000 1.000000e+000
    outer loop
      vertex   3.224896e+001 1.058368e+001 4.428750e+001
      vertex   3.213522e+001 1.110650e+001 4.428750e+001
      vertex   2.493903e+001 1.110650e+001 4.428750e+001
    endloop
  endfacet
  facet normal 0.000000e+000 -0.000000e+000 1.000000e+000
    outer loop
      vertex   2.493903e+001 1.110650e+001 4.428750e+001
      vertex   3.213522e+001 1.110650e+001 4.428750e+001
      vertex   2.512600e+001 1.160781e+001 4.428750e+001
    endloop
  endfacet
  facet normal -0.000000e+000 -0.000000e+000 1.000000e+000
    outer loop
      vertex   2.512600e+001 1.160781e+001 4.428750e+001
      vertex   3.213522e+001 1.110650e+001 4.428750e+001
      vertex   3.194824e+001 1.160781e+001 4.428750e+001
    endloop
  endfacet
  facet normal -0.000000e+000 -0.000000e+000 1.000000e+000
    outer loop
      vertex   2.538242e+001 1.207740e+001 4.428750e+001
      vertex   3.194824e+001 1.160781e+001 4.428750e+001
      vertex   3.169183e+001 1.207740e+001 4.428750e+001
    endloop
  endfacet
  facet normal -0.000000e+000 -0.000000e+000 1.000000e+000
    outer loop
      vertex   2.570306e+001 1.250573e+001 4.428750e+001
      vertex   3.169183e+001 1.207740e+001 4.428750e+001
      vertex   3.137119e+001 1.250573e+001 4.428750e+001
    endloop
  endfacet
  facet normal -0.000000e+000 -0.000000e+000 1.000000e+000
    outer loop
      vertex   2.608140e+001 1.288406e+001 4.428750e+001
      vertex   3.137119e+001 1.250573e+001 4.428750e+001
      vertex   3.099285e+001 1.288406e+001 4.428750e+001
    endloop
  endfacet
  facet normal -0.000000e+000 -0.000000e+000 1.000000e+000
    outer loop
      vertex   2.650972e+001 1.320470e+001 4.428750e+001
      vertex   3.099285e+001 1.288406e+001 4.428750e+001
      vertex   3.056453e+001 1.320470e+001 4.428750e+001
    endloop
  endfacet
  facet normal -0.000000e+000 -0.000000e+000 1.000000e+000
    outer loop
      vertex   2.697932e+001 1.346112e+001 4.428750e+001
      vertex   3.056453e+001 1.320470e+001 4.428750e+001
      vertex   3.009493e+001 1.346112e+001 4.428750e+001
    endloop
  endfacet
  facet normal -0.000000e+000 -0.000000e+000 1.000000e+000
    outer loop
      vertex   2.748063e+001 1.364810e+001 4.428750e+001
      vertex   3.009493e+001 1.346112e+001 4.428750e+001
      vertex   2.959362e+001 1.364810e+001 4.428750e+001
    endloop
  endfacet
  facet normal -0.000000e+000 -0.000000e+000 1.000000e+000
    outer loop
      vertex   2.800344e+001 1.376183e+001 4.428750e+001
      vertex   2.959362e+001 1.364810e+001 4.428750e+001
      vertex   2.907081e+001 1.376183e+001 4.428750e+001
    endloop
  endfacet
  facet normal -0.000000e+000 0.000000e+000 1.000000e+000
    outer loop
      vertex   2.853712e+001 1.380000e+001 4.428750e+001
      vertex   2.800344e+001 1.376183e+001 4.428750e+001
      vertex   2.907081e+001 1.376183e+001 4.428750e+001
    endloop
  endfacet
  facet normal 0.000000e+000 -0.000000e+000 1.000000e+000
    outer loop
      vertex   2.512600e+001 1.160781e+001 4.428750e+001
      vertex   3.194824e+001 1.160781e+001 4.428750e+001
      vertex   2.538242e+001 1.207740e+001 4.428750e+001
    endloop
  endfacet
  facet normal 0.000000e+000 -0.000000e+000 1.000000e+000
    outer loop
      vertex   2.538242e+001 1.207740e+001 4.428750e+001
      vertex   3.169183e+001 1.207740e+001 4.428750e+001
      vertex   2.570306e+001 1.250573e+001 4.428750e+001
    endloop
  endfacet
  facet normal 0.000000e+000 -0.000000e+000 1.000000e+000
    outer loop
      vertex   2.570306e+001 1.250573e+001 4.428750e+001
      vertex   3.137119e+001 1.250573e+001 4.428750e+001
      vertex   2.608140e+001 1.288406e+001 4.428750e+001
    endloop
  endfacet
  facet normal 0.000000e+000 -0.000000e+000 1.000000e+000
    outer loop
      vertex   2.608140e+001 1.288406e+001 4.428750e+001
      vertex   3.099285e+001 1.288406e+001 4.428750e+001
      vertex   2.650972e+001 1.320470e+001 4.428750e+001
    endloop
  endfacet
  facet normal 0.000000e+000 -0.000000e+000 1.000000e+000
    outer loop
      vertex   2.650972e+001 1.320470e+001 4.428750e+001
      vertex   3.056453e+001 1.320470e+001 4.428750e+001
      vertex   2.697932e+001 1.346112e+001 4.428750e+001
    endloop
  endfacet
  facet normal 0.000000e+000 -0.000000e+000 1.000000e+000
    outer loop
      vertex   2.697932e+001 1.346112e+001 4.428750e+001
      vertex   3.009493e+001 1.346112e+001 4.428750e+001
      vertex   2.748063e+001 1.364810e+001 4.428750e+001
    endloop
  endfacet
  facet normal 0.000000e+000 -0.000000e+000 1.000000e+000
    outer loop
      vertex   2.748063e+001 1.364810e+001 4.428750e+001
      vertex   2.959362e+001 1.364810e+001 4.428750e+001
      vertex   2.800344e+001 1.376183e+001 4.428750e+001
    endloop
  endfacet
  facet normal -0.000000e+000 0.000000e+000 1.000000e+000
    outer loop
      vertex   2.482529e+001 1.058368e+001 4.428750e+001
      vertex   2.478712e+001 1.005000e+001 4.428750e+001
      vertex   3.228712e+001 1.005000e+001 4.428750e+001
    endloop
  endfacet
  facet normal 0.000000e+000 0.000000e+000 1.000000e+000
    outer loop
      vertex   3.228712e+001 1.005000e+001 4.428750e+001
      vertex   2.478712e+001 1.005000e+001 4.428750e+001
      vertex   3.224896e+001 9.516319e+000 4.428750e+001
    endloop
  endfacet
  facet normal 0.000000e+000 0.000000e+000 1.000000e+000
    outer loop
      vertex   3.224896e+001 9.516319e+000 4.428750e+001
      vertex   2.478712e+001 1.005000e+001 4.428750e+001
      vertex   2.482529e+001 9.516319e+000 4.428750e+001
    endloop
  endfacet
  facet normal 0.000000e+000 0.000000e+000 1.000000e+000
    outer loop
      vertex   3.213522e+001 8.993503e+000 4.428750e+001
      vertex   2.482529e+001 9.516319e+000 4.428750e+001
      vertex   2.493903e+001 8.993503e+000 4.428750e+001
    endloop
  endfacet
  facet normal 0.000000e+000 0.000000e+000 1.000000e+000
    outer loop
      vertex   3.194824e+001 8.492194e+000 4.428750e+001
      vertex   2.493903e+001 8.993503e+000 4.428750e+001
      vertex   2.512600e+001 8.492194e+000 4.428750e+001
    endloop
  endfacet
  facet normal 0.000000e+000 0.000000e+000 1.000000e+000
    outer loop
      vertex   3.169183e+001 8.022597e+000 4.428750e+001
      vertex   2.512600e+001 8.492194e+000 4.428750e+001
      vertex   2.538242e+001 8.022597e+000 4.428750e+001
    endloop
  endfacet
  facet normal 0.000000e+000 0.000000e+000 1.000000e+000
    outer loop
      vertex   3.137119e+001 7.594272e+000 4.428750e+001
      vertex   2.538242e+001 8.022597e+000 4.428750e+001
      vertex   2.570306e+001 7.594272e+000 4.428750e+001
    endloop
  endfacet
  facet normal 0.000000e+000 0.000000e+000 1.000000e+000
    outer loop
      vertex   3.099285e+001 7.215939e+000 4.428750e+001
      vertex   2.570306e+001 7.594272e+000 4.428750e+001
      vertex   2.608140e+001 7.215939e+000 4.428750e+001
    endloop
  endfacet
  facet normal 0.000000e+000 0.000000e+000 1.000000e+000
    outer loop
      vertex   3.056453e+001 6.895299e+000 4.428750e+001
      vertex   2.608140e+001 7.215939e+000 4.428750e+001
      vertex   2.650972e+001 6.895299e+000 4.428750e+001
    endloop
  endfacet
  facet normal 0.000000e+000 0.000000e+000 1.000000e+000
    outer loop
      vertex   3.009493e+001 6.638880e+000 4.428750e+001
      vertex   2.650972e+001 6.895299e+000 4.428750e+001
      vertex   2.697932e+001 6.638880e+000 4.428750e+001
    endloop
  endfacet
  facet normal 0.000000e+000 0.000000e+000 1.000000e+000
    outer loop
      vertex   2.959362e+001 6.451901e+000 4.428750e+001
      vertex   2.697932e+001 6.638880e+000 4.428750e+001
      vertex   2.748063e+001 6.451901e+000 4.428750e+001
    endloop
  endfacet
  facet normal 0.000000e+000 0.000000e+000 1.000000e+000
    outer loop
      vertex   2.907081e+001 6.338170e+000 4.428750e+001
      vertex   2.748063e+001 6.451901e+000 4.428750e+001
      vertex   2.800344e+001 6.338170e+000 4.428750e+001
    endloop
  endfacet
  facet normal 0.000000e+000 -0.000000e+000 1.000000e+000
    outer loop
      vertex   2.853712e+001 6.300000e+000 4.428750e+001
      vertex   2.907081e+001 6.338170e+000 4.428750e+001
      vertex   2.800344e+001 6.338170e+000 4.428750e+001
    endloop
  endfacet
  facet normal 0.000000e+000 0.000000e+000 1.000000e+000
    outer loop
      vertex   3.224896e+001 9.516319e+000 4.428750e+001
      vertex   2.482529e+001 9.516319e+000 4.428750e+001
      vertex   3.213522e+001 8.993503e+000 4.428750e+001
    endloop
  endfacet
  facet normal 0.000000e+000 0.000000e+000 1.000000e+000
    outer loop
      vertex   3.213522e+001 8.993503e+000 4.428750e+001
      vertex   2.493903e+001 8.993503e+000 4.428750e+001
      vertex   3.194824e+001 8.492194e+000 4.428750e+001
    endloop
  endfacet
  facet normal 0.000000e+000 0.000000e+000 1.000000e+000
    outer loop
      vertex   3.194824e+001 8.492194e+000 4.428750e+001
      vertex   2.512600e+001 8.492194e+000 4.428750e+001
      vertex   3.169183e+001 8.022597e+000 4.428750e+001
    endloop
  endfacet
  facet normal 0.000000e+000 0.000000e+000 1.000000e+000
    outer loop
      vertex   3.169183e+001 8.022597e+000 4.428750e+001
      vertex   2.538242e+001 8.022597e+000 4.428750e+001
      vertex   3.137119e+001 7.594272e+000 4.428750e+001
    endloop
  endfacet
  facet normal 0.000000e+000 0.000000e+000 1.000000e+000
    outer loop
      vertex   3.137119e+001 7.594272e+000 4.428750e+001
      vertex   2.570306e+001 7.594272e+000 4.428750e+001
      vertex   3.099285e+001 7.215939e+000 4.428750e+001
    endloop
  endfacet
  facet normal 0.000000e+000 0.000000e+000 1.000000e+000
    outer loop
      vertex   3.099285e+001 7.215939e+000 4.428750e+001
      vertex   2.608140e+001 7.215939e+000 4.428750e+001
      vertex   3.056453e+001 6.895299e+000 4.428750e+001
    endloop
  endfacet
  facet normal 0.000000e+000 0.000000e+000 1.000000e+000
    outer loop
      vertex   3.056453e+001 6.895299e+000 4.428750e+001
      vertex   2.650972e+001 6.895299e+000 4.428750e+001
      vertex   3.009493e+001 6.638880e+000 4.428750e+001
    endloop
  endfacet
  facet normal 0.000000e+000 0.000000e+000 1.000000e+000
    outer loop
      vertex   3.009493e+001 6.638880e+000 4.428750e+001
      vertex   2.697932e+001 6.638880e+000 4.428750e+001
      vertex   2.959362e+001 6.451901e+000 4.428750e+001
    endloop
  endfacet
  facet normal 0.000000e+000 0.000000e+000 1.000000e+000
    outer loop
      vertex   2.959362e+001 6.451901e+000 4.428750e+001
      vertex   2.748063e+001 6.451901e+000 4.428750e+001
      vertex   2.907081e+001 6.338170e+000 4.428750e+001
    endloop
  endfacet
  facet normal 0.000000e+000 0.000000e+000 -1.000000e+000
    outer loop
      vertex   1.700000e+001 1.050000e+000 2.678750e+001
      vertex   1.700000e+001 1.905000e+001 2.678750e+001
      vertex   3.700000e+001 1.050000e+000 2.678750e+001
    endloop
  endfacet
  facet normal 0.000000e+000 0.000000e+000 -1.000000e+000
    outer loop
      vertex   3.700000e+001 1.050000e+000 2.678750e+001
      vertex   1.700000e+001 1.905000e+001 2.678750e+001
      vertex   3.700000e+001 1.905000e+001 2.678750e+001
    endloop
  endfacet
  facet normal 0.000000e+000 -1.000000e+000 0.000000e+000
    outer loop
      vertex   1.700000e+001 1.050000e+000 3.428750e+001
      vertex   1.700000e+001 1.050000e+000 2.678750e+001
      vertex   3.700000e+001 1.050000e+000 3.428750e+001
    endloop
  endfacet
  facet normal 0.000000e+000 -1.000000e+000 -0.000000e+000
    outer loop
      vertex   3.700000e+001 1.050000e+000 3.428750e+001
      vertex   1.700000e+001 1.050000e+000 2.678750e+001
      vertex   3.700000e+001 1.050000e+000 2.678750e+001
    endloop
  endfacet
  facet normal -0.000000e+000 -0.000000e+000 1.000000e+000
    outer loop
      vertex   3.224896e+001 9.516319e+000 3.428750e+001
      vertex   3.700000e+001 1.050000e+000 3.428750e+001
      vertex   3.228712e+001 1.005000e+001 3.428750e+001
    endloop
  endfacet
  facet normal 0.000000e+000 0.000000e+000 1.000000e+000
    outer loop
      vertex   3.224896e+001 9.516319e+000 3.428750e+001
      vertex   3.213522e+001 8.993503e+000 3.428750e+001
      vertex   3.700000e+001 1.050000e+000 3.428750e+001
    endloop
  endfacet
  facet normal 0.000000e+000 0.000000e+000 1.000000e+000
    outer loop
      vertex   3.700000e+001 1.050000e+000 3.428750e+001
      vertex   3.213522e+001 8.993503e+000 3.428750e+001
      vertex   3.194824e+001 8.492194e+000 3.428750e+001
    endloop
  endfacet
  facet normal -0.000000e+000 -0.000000e+000 1.000000e+000
    outer loop
      vertex   3.169183e+001 8.022597e+000 3.428750e+001
      vertex   3.700000e+001 1.050000e+000 3.428750e+001
      vertex   3.194824e+001 8.492194e+000 3.428750e+001
    endloop
  endfacet
  facet normal 0.000000e+000 0.000000e+000 1.000000e+000
    outer loop
      vertex   3.169183e+001 8.022597e+000 3.428750e+001
      vertex   3.137119e+001 7.594272e+000 3.428750e+001
      vertex   3.700000e+001 1.050000e+000 3.428750e+001
    endloop
  endfacet
  facet normal 0.000000e+000 0.000000e+000 1.000000e+000
    outer loop
      vertex   3.700000e+001 1.050000e+000 3.428750e+001
      vertex   3.137119e+001 7.594272e+000 3.428750e+001
      vertex   3.099285e+001 7.215939e+000 3.428750e+001
    endloop
  endfacet
  facet normal -0.000000e+000 -0.000000e+000 1.000000e+000
    outer loop
      vertex   3.056453e+001 6.895299e+000 3.428750e+001
      vertex   3.700000e+001 1.050000e+000 3.428750e+001
      vertex   3.099285e+001 7.215939e+000 3.428750e+001
    endloop
  endfacet
  facet normal 0.000000e+000 0.000000e+000 1.000000e+000
    outer loop
      vertex   3.056453e+001 6.895299e+000 3.428750e+001
      vertex   3.009493e+001 6.638880e+000 3.428750e+001
      vertex   3.700000e+001 1.050000e+000 3.428750e+001
    endloop
  endfacet
  facet normal 0.000000e+000 0.000000e+000 1.000000e+000
    outer loop
      vertex   3.700000e+001 1.050000e+000 3.428750e+001
      vertex   3.009493e+001 6.638880e+000 3.428750e+001
      vertex   2.959362e+001 6.451901e+000 3.428750e+001
    endloop
  endfacet
  facet normal -0.000000e+000 -0.000000e+000 1.000000e+000
    outer loop
      vertex   2.907081e+001 6.338170e+000 3.428750e+001
      vertex   3.700000e+001 1.050000e+000 3.428750e+001
      vertex   2.959362e+001 6.451901e+000 3.428750e+001
    endloop
  endfacet
  facet normal 0.000000e+000 0.000000e+000 1.000000e+000
    outer loop
      vertex   2.907081e+001 6.338170e+000 3.428750e+001
      vertex   2.853712e+001 6.300000e+000 3.428750e+001
      vertex   3.700000e+001 1.050000e+000 3.428750e+001
    endloop
  endfacet
  facet normal 0.000000e+000 0.000000e+000 1.000000e+000
    outer loop
      vertex   3.700000e+001 1.050000e+000 3.428750e+001
      vertex   2.853712e+001 6.300000e+000 3.428750e+001
      vertex   2.800344e+001 6.338170e+000 3.428750e+001
    endloop
  endfacet
  facet normal 0.000000e+000 -0.000000e+000 1.000000e+000
    outer loop
      vertex   1.700000e+001 1.050000e+000 3.428750e+001
      vertex   2.800344e+001 6.338170e+000 3.428750e+001
      vertex   2.748063e+001 6.451901e+000 3.428750e+001
    endloop
  endfacet
  facet normal -0.000000e+000 0.000000e+000 1.000000e+000
    outer loop
      vertex   2.697932e+001 6.638880e+000 3.428750e+001
      vertex   1.700000e+001 1.050000e+000 3.428750e+001
      vertex   2.748063e+001 6.451901e+000 3.428750e+001
    endloop
  endfacet
  facet normal 0.000000e+000 0.000000e+000 1.000000e+000
    outer loop
      vertex   2.697932e+001 6.638880e+000 3.428750e+001
      vertex   2.650972e+001 6.895299e+000 3.428750e+001
      vertex   1.700000e+001 1.050000e+000 3.428750e+001
    endloop
  endfacet
  facet normal 0.000000e+000 -0.000000e+000 1.000000e+000
    outer loop
      vertex   1.700000e+001 1.050000e+000 3.428750e+001
      vertex   2.650972e+001 6.895299e+000 3.428750e+001
      vertex   2.608140e+001 7.215939e+000 3.428750e+001
    endloop
  endfacet
  facet normal -0.000000e+000 0.000000e+000 1.000000e+000
    outer loop
      vertex   2.570306e+001 7.594272e+000 3.428750e+001
      vertex   1.700000e+001 1.050000e+000 3.428750e+001
      vertex   2.608140e+001 7.215939e+000 3.428750e+001
    endloop
  endfacet
  facet normal 0.000000e+000 0.000000e+000 1.000000e+000
    outer loop
      vertex   2.570306e+001 7.594272e+000 3.428750e+001
      vertex   2.538242e+001 8.022597e+000 3.428750e+001
      vertex   1.700000e+001 1.050000e+000 3.428750e+001
    endloop
  endfacet
  facet normal 0.000000e+000 -0.000000e+000 1.000000e+000
    outer loop
      vertex   1.700000e+001 1.050000e+000 3.428750e+001
      vertex   2.538242e+001 8.022597e+000 3.428750e+001
      vertex   2.512600e+001 8.492194e+000 3.428750e+001
    endloop
  endfacet
  facet normal -0.000000e+000 0.000000e+000 1.000000e+000
    outer loop
      vertex   2.493903e+001 8.993503e+000 3.428750e+001
      vertex   1.700000e+001 1.050000e+000 3.428750e+001
      vertex   2.512600e+001 8.492194e+000 3.428750e+001
    endloop
  endfacet
  facet normal 0.000000e+000 0.000000e+000 1.000000e+000
    outer loop
      vertex   2.493903e+001 8.993503e+000 3.428750e+001
      vertex   2.482529e+001 9.516319e+000 3.428750e+001
      vertex   1.700000e+001 1.050000e+000 3.428750e+001
    endloop
  endfacet
  facet normal 0.000000e+000 -0.000000e+000 1.000000e+000
    outer loop
      vertex   1.700000e+001 1.050000e+000 3.428750e+001
      vertex   2.482529e+001 9.516319e+000 3.428750e+001
      vertex   2.478712e+001 1.005000e+001 3.428750e+001
    endloop
  endfacet
  facet normal -0.000000e+000 0.000000e+000 1.000000e+000
    outer loop
      vertex   1.700000e+001 1.905000e+001 3.428750e+001
      vertex   2.478712e+001 1.005000e+001 3.428750e+001
      vertex   2.482529e+001 1.058368e+001 3.428750e+001
    endloop
  endfacet
  facet normal 0.000000e+000 0.000000e+000 1.000000e+000
    outer loop
      vertex   2.493903e+001 1.110650e+001 3.428750e+001
      vertex   1.700000e+001 1.905000e+001 3.428750e+001
      vertex   2.482529e+001 1.058368e+001 3.428750e+001
    endloop
  endfacet
  facet normal 0.000000e+000 -0.000000e+000 1.000000e+000
    outer loop
      vertex   2.493903e+001 1.110650e+001 3.428750e+001
      vertex   2.512600e+001 1.160781e+001 3.428750e+001
      vertex   1.700000e+001 1.905000e+001 3.428750e+001
    endloop
  endfacet
  facet normal -0.000000e+000 0.000000e+000 1.000000e+000
    outer loop
      vertex   1.700000e+001 1.905000e+001 3.428750e+001
      vertex   2.512600e+001 1.160781e+001 3.428750e+001
      vertex   2.538242e+001 1.207740e+001 3.428750e+001
    endloop
  endfacet
  facet normal 0.000000e+000 0.000000e+000 1.000000e+000
    outer loop
      vertex   2.570306e+001 1.250573e+001 3.428750e+001
      vertex   1.700000e+001 1.905000e+001 3.428750e+001
      vertex   2.538242e+001 1.207740e+001 3.428750e+001
    endloop
  endfacet
  facet normal 0.000000e+000 -0.000000e+000 1.000000e+000
    outer loop
      vertex   2.570306e+001 1.250573e+001 3.428750e+001
      vertex   2.608140e+001 1.288406e+001 3.428750e+001
      vertex   1.700000e+001 1.905000e+001 3.428750e+001
    endloop
  endfacet
  facet normal -0.000000e+000 0.000000e+000 1.000000e+000
    outer loop
      vertex   1.700000e+001 1.905000e+001 3.428750e+001
      vertex   2.608140e+001 1.288406e+001 3.428750e+001
      vertex   2.650972e+001 1.320470e+001 3.428750e+001
    endloop
  endfacet
  facet normal 0.000000e+000 0.000000e+000 1.000000e+000
    outer loop
      vertex   2.697932e+001 1.346112e+001 3.428750e+001
      vertex   1.700000e+001 1.905000e+001 3.428750e+001
      vertex   2.650972e+001 1.320470e+001 3.428750e+001
    endloop
  endfacet
  facet normal 0.000000e+000 -0.000000e+000 1.000000e+000
    outer loop
      vertex   2.697932e+001 1.346112e+001 3.428750e+001
      vertex   2.748063e+001 1.364810e+001 3.428750e+001
      vertex   1.700000e+001 1.905000e+001 3.428750e+001
    endloop
  endfacet
  facet normal -0.000000e+000 0.000000e+000 1.000000e+000
    outer loop
      vertex   1.700000e+001 1.905000e+001 3.428750e+001
      vertex   2.748063e+001 1.364810e+001 3.428750e+001
      vertex   2.800344e+001 1.376183e+001 3.428750e+001
    endloop
  endfacet
  facet normal -0.000000e+000 0.000000e+000 1.000000e+000
    outer loop
      vertex   3.700000e+001 1.905000e+001 3.428750e+001
      vertex   2.800344e+001 1.376183e+001 3.428750e+001
      vertex   2.853712e+001 1.380000e+001 3.428750e+001
    endloop
  endfacet
  facet normal 0.000000e+000 -0.000000e+000 1.000000e+000
    outer loop
      vertex   2.907081e+001 1.376183e+001 3.428750e+001
      vertex   3.700000e+001 1.905000e+001 3.428750e+001
      vertex   2.853712e+001 1.380000e+001 3.428750e+001
    endloop
  endfacet
  facet normal -0.000000e+000 0.000000e+000 1.000000e+000
    outer loop
      vertex   2.907081e+001 1.376183e+001 3.428750e+001
      vertex   2.959362e+001 1.364810e+001 3.428750e+001
      vertex   3.700000e+001 1.905000e+001 3.428750e+001
    endloop
  endfacet
  facet normal 0.000000e+000 0.000000e+000 1.000000e+000
    outer loop
      vertex   3.700000e+001 1.905000e+001 3.428750e+001
      vertex   2.959362e+001 1.364810e+001 3.428750e+001
      vertex   3.009493e+001 1.346112e+001 3.428750e+001
    endloop
  endfacet
  facet normal 0.000000e+000 -0.000000e+000 1.000000e+000
    outer loop
      vertex   3.056453e+001 1.320470e+001 3.428750e+001
      vertex   3.700000e+001 1.905000e+001 3.428750e+001
      vertex   3.009493e+001 1.346112e+001 3.428750e+001
    endloop
  endfacet
  facet normal -0.000000e+000 0.000000e+000 1.000000e+000
    outer loop
      vertex   3.056453e+001 1.320470e+001 3.428750e+001
      vertex   3.099285e+001 1.288406e+001 3.428750e+001
      vertex   3.700000e+001 1.905000e+001 3.428750e+001
    endloop
  endfacet
  facet normal 0.000000e+000 0.000000e+000 1.000000e+000
    outer loop
      vertex   3.700000e+001 1.905000e+001 3.428750e+001
      vertex   3.099285e+001 1.288406e+001 3.428750e+001
      vertex   3.137119e+001 1.250573e+001 3.428750e+001
    endloop
  endfacet
  facet normal 0.000000e+000 -0.000000e+000 1.000000e+000
    outer loop
      vertex   3.169183e+001 1.207740e+001 3.428750e+001
      vertex   3.700000e+001 1.905000e+001 3.428750e+001
      vertex   3.137119e+001 1.250573e+001 3.428750e+001
    endloop
  endfacet
  facet normal -0.000000e+000 0.000000e+000 1.000000e+000
    outer loop
      vertex   3.169183e+001 1.207740e+001 3.428750e+001
      vertex   3.194824e+001 1.160781e+001 3.428750e+001
      vertex   3.700000e+001 1.905000e+001 3.428750e+001
    endloop
  endfacet
  facet normal 0.000000e+000 0.000000e+000 1.000000e+000
    outer loop
      vertex   3.700000e+001 1.905000e+001 3.428750e+001
      vertex   3.194824e+001 1.160781e+001 3.428750e+001
      vertex   3.213522e+001 1.110650e+001 3.428750e+001
    endloop
  endfacet
  facet normal 0.000000e+000 -0.000000e+000 1.000000e+000
    outer loop
      vertex   3.224896e+001 1.058368e+001 3.428750e+001
      vertex   3.700000e+001 1.905000e+001 3.428750e+001
      vertex   3.213522e+001 1.110650e+001 3.428750e+001
    endloop
  endfacet
  facet normal -0.000000e+000 0.000000e+000 1.000000e+000
    outer loop
      vertex   3.224896e+001 1.058368e+001 3.428750e+001
      vertex   3.228712e+001 1.005000e+001 3.428750e+001
      vertex   3.700000e+001 1.905000e+001 3.428750e+001
    endloop
  endfacet
  facet normal 0.000000e+000 0.000000e+000 1.000000e+000
    outer loop
      vertex   3.700000e+001 1.905000e+001 3.428750e+001
      vertex   3.228712e+001 1.005000e+001 3.428750e+001
      vertex   3.700000e+001 1.050000e+000 3.428750e+001
    endloop
  endfacet
  facet normal 0.000000e+000 0.000000e+000 1.000000e+000
    outer loop
      vertex   3.700000e+001 1.050000e+000 3.428750e+001
      vertex   2.800344e+001 6.338170e+000 3.428750e+001
      vertex   1.700000e+001 1.050000e+000 3.428750e+001
    endloop
  endfacet
  facet normal 0.000000e+000 -0.000000e+000 1.000000e+000
    outer loop
      vertex   1.700000e+001 1.050000e+000 3.428750e+001
      vertex   2.478712e+001 1.005000e+001 3.428750e+001
      vertex   1.700000e+001 1.905000e+001 3.428750e+001
    endloop
  endfacet
  facet normal -0.000000e+000 0.000000e+000 1.000000e+000
    outer loop
      vertex   1.700000e+001 1.905000e+001 3.428750e+001
      vertex   2.800344e+001 1.376183e+001 3.428750e+001
      vertex   3.700000e+001 1.905000e+001 3.428750e+001
    endloop
  endfacet
  facet normal -0.000000e+000 1.000000e+000 0.000000e+000
    outer loop
      vertex   1.700000e+001 1.905000e+001 2.678750e+001
      vertex   1.700000e+001 1.905000e+001 3.428750e+001
      vertex   3.700000e+001 1.905000e+001 2.678750e+001
    endloop
  endfacet
  facet normal 0.000000e+000 1.000000e+000 -0.000000e+000
    outer loop
      vertex   3.700000e+001 1.905000e+001 2.678750e+001
      vertex   1.700000e+001 1.905000e+001 3.428750e+001
      vertex   3.700000e+001 1.905000e+001 3.428750e+001
    endloop
  endfacet
  facet normal 1.000000e+000 0.000000e+000 -0.000000e+000
    outer loop
      vertex   3.700000e+001 1.905000e+001 2.678750e+001
      vertex   3.700000e+001 1.905000e+001 3.428750e+001
      vertex   3.700000e+001 1.050000e+000 2.678750e+001
    endloop
  endfacet
  facet normal 1.000000e+000 0.000000e+000 -0.000000e+000
    outer loop
      vertex   3.700000e+001 1.050000e+000 2.678750e+001
      vertex   3.700000e+001 1.905000e+001 3.428750e+001
      vertex   3.700000e+001 1.050000e+000 3.428750e+001
    endloop
  endfacet
  facet normal -1.000000e+000 0.000000e+000 0.000000e+000
    outer loop
      vertex   5.000000e+000 2.000000e+001 2.000000e+001
      vertex   5.000000e+000 0.000000e+000 2.000000e+001
      vertex   5.000000e+000 2.000000e+001 4.000000e+001
    endloop
  endfacet
  facet normal -1.000000e+000 -0.000000e+000 0.000000e+000
    outer loop
      vertex   5.000000e+000 2.000000e+001 4.000000e+001
      vertex   5.000000e+000 0.000000e+000 2.000000e+001
      vertex   5.000000e+000 0.000000e+000 4.000000e+001
    endloop
  endfacet
  facet normal 1.000000e+000 -0.000000e+000 -0.000000e+000
    outer loop
      vertex   1.700000e+001 1.050000e+000 2.678750e+001
      vertex   1.700000e+001 2.000000e+001 2.000000e+001
      vertex   1.700000e+001 1.905000e+001 2.678750e+001
    endloop
  endfacet
  facet normal 1.000000e+000 -0.000000e+000 0.000000e+000
    outer loop
      vertex   1.700000e+001 1.050000e+000 2.678750e+001
      vertex   1.700000e+001 0.000000e+000 2.000000e+001
      vertex   1.700000e+001 2.000000e+001 2.000000e+001
    endloop
  endfacet
  facet normal 1.000000e+000 0.000000e+000 0.000000e+000
    outer loop
      vertex   1.700000e+001 1.050000e+000 2.678750e+001
      vertex   1.700000e+001 0.000000e+000 4.000000e+001
      vertex   1.700000e+001 0.000000e+000 2.000000e+001
    endloop
  endfacet
  facet normal 1.000000e+000 0.000000e+000 -0.000000e+000
    outer loop
      vertex   1.700000e+001 1.050000e+000 2.678750e+001
      vertex   1.700000e+001 1.050000e+000 3.428750e+001
      vertex   1.700000e+001 0.000000e+000 4.000000e+001
    endloop
  endfacet
  facet normal 1.000000e+000 -0.000000e+000 0.000000e+000
    outer loop
      vertex   1.700000e+001 0.000000e+000 4.000000e+001
      vertex   1.700000e+001 1.050000e+000 3.428750e+001
      vertex   1.700000e+001 2.000000e+001 4.000000e+001
    endloop
  endfacet
  facet normal 1.000000e+000 -0.000000e+000 0.000000e+000
    outer loop
      vertex   1.700000e+001 2.000000e+001 4.000000e+001
      vertex   1.700000e+001 1.050000e+000 3.428750e+001
      vertex   1.700000e+001 1.905000e+001 3.428750e+001
    endloop
  endfacet
  facet normal 1.000000e+000 0.000000e+000 -0.000000e+000
    outer loop
      vertex   1.700000e+001 1.905000e+001 2.678750e+001
      vertex   1.700000e+001 2.000000e+001 4.000000e+001
      vertex   1.700000e+001 1.905000e+001 3.428750e+001
    endloop
  endfacet
  facet normal 1.000000e+000 -0.000000e+000 0.000000e+000
    outer loop
      vertex   1.700000e+001 1.905000e+001 2.678750e+001
      vertex   1.700000e+001 2.000000e+001 2.000000e+001
      vertex   1.700000e+001 2.000000e+001 4.000000e+001
    endloop
  endfacet
  facet normal 0.000000e+000 0.000000e+000 1.000000e+000
    outer loop
      vertex   1.700000e+001 2.000000e+001 4.000000e+001
      vertex   5.000000e+000 2.000000e+001 4.000000e+001
      vertex   1.700000e+001 0.000000e+000 4.000000e+001
    endloop
  endfacet
  facet normal 0.000000e+000 0.000000e+000 1.000000e+000
    outer loop
      vertex   1.700000e+001 0.000000e+000 4.000000e+001
      vertex   5.000000e+000 2.000000e+001 4.000000e+001
      vertex   5.000000e+000 0.000000e+000 4.000000e+001
    endloop
  endfacet
  facet normal 0.000000e+000 -0.000000e+000 1.000000e+000
    outer loop
      vertex   1.700000e+001 0.000000e+000 2.000000e+001
      vertex   2.000000e+001 0.000000e+000 2.000000e+001
      vertex   1.700000e+001 2.000000e+001 2.000000e+001
    endloop
  endfacet
  facet normal -0.000000e+000 0.000000e+000 1.000000e+000
    outer loop
      vertex   1.700000e+001 2.000000e+001 2.000000e+001
      vertex   2.000000e+001 0.000000e+000 2.000000e+001
      vertex   2.000000e+001 2.000000e+001 2.000000e+001
    endloop
  endfacet
  facet normal -1.000000e+000 0.000000e+000 0.000000e+000
    outer loop
      vertex   0.000000e+000 2.000000e+001 0.000000e+000
      vertex   0.000000e+000 0.000000e+000 0.000000e+000
      vertex   0.000000e+000 2.000000e+001 2.000000e+001
    endloop
  endfacet
  facet normal -1.000000e+000 -0.000000e+000 0.000000e+000
    outer loop
      vertex   0.000000e+000 2.000000e+001 2.000000e+001
      vertex   0.000000e+000 0.000000e+000 0.000000e+000
      vertex   0.000000e+000 0.000000e+000 2.000000e+001
    endloop
  endfacet
  facet normal -0.000000e+000 1.000000e+000 0.000000e+000
    outer loop
      vertex   0.000000e+000 2.000000e+001 0.000000e+000
      vertex   5.000000e+000 2.000000e+001 2.000000e+001
      vertex   2.000000e+001 2.000000e+001 0.000000e+000
    endloop
  endfacet
  facet normal 0.000000e+000 1.000000e+000 0.000000e+000
    outer loop
      vertex   0.000000e+000 2.000000e+001 0.000000e+000
      vertex   0.000000e+000 2.000000e+001 2.000000e+001
      vertex   5.000000e+000 2.000000e+001 2.000000e+001
    endloop
  endfacet
  facet normal -0.000000e+000 1.000000e+000 0.000000e+000
    outer loop
      vertex   5.000000e+000 2.000000e+001 4.000000e+001
      vertex   1.700000e+001 2.000000e+001 4.000000e+001
      vertex   5.000000e+000 2.000000e+001 2.000000e+001
    endloop
  endfacet
  facet normal -0.000000e+000 1.000000e+000 0.000000e+000
    outer loop
      vertex   5.000000e+000 2.000000e+001 2.000000e+001
      vertex   1.700000e+001 2.000000e+001 4.000000e+001
      vertex   1.700000e+001 2.000000e+001 2.000000e+001
    endloop
  endfacet
  facet normal 0.000000e+000 1.000000e+000 -0.000000e+000
    outer loop
      vertex   2.000000e+001 2.000000e+001 0.000000e+000
      vertex   1.700000e+001 2.000000e+001 2.000000e+001
      vertex   2.000000e+001 2.000000e+001 2.000000e+001
    endloop
  endfacet
  facet normal 0.000000e+000 1.000000e+000 -0.000000e+000
    outer loop
      vertex   2.000000e+001 2.000000e+001 0.000000e+000
      vertex   5.000000e+000 2.000000e+001 2.000000e+001
      vertex   1.700000e+001 2.000000e+001 2.000000e+001
    endloop
  endfacet
  facet normal 1.000000e+000 0.000000e+000 -0.000000e+000
    outer loop
      vertex   2.000000e+001 0.000000e+000 0.000000e+000
      vertex   2.000000e+001 2.000000e+001 0.000000e+000
      vertex   2.000000e+001 0.000000e+000 2.000000e+001
    endloop
  endfacet
  facet normal 1.000000e+000 -0.000000e+000 0.000000e+000
    outer loop
      vertex   2.000000e+001 0.000000e+000 2.000000e+001
      vertex   2.000000e+001 2.000000e+001 0.000000e+000
      vertex   2.000000e+001 2.000000e+001 2.000000e+001
    endloop
  endfacet
  facet normal 0.000000e+000 -1.000000e+000 0.000000e+000
    outer loop
      vertex   0.000000e+000 0.000000e+000 2.000000e+001
      vertex   0.000000e+000 0.000000e+000 0.000000e+000
      vertex   5.000000e+000 0.000000e+000 2.000000e+001
    endloop
  endfacet
  facet normal 0.000000e+000 -1.000000e+000 -0.000000e+000
    outer loop
      vertex   5.000000e+000 0.000000e+000 2.000000e+001
      vertex   0.000000e+000 0.000000e+000 0.000000e+000
      vertex   2.000000e+001 0.000000e+000 0.000000e+000
    endloop
  endfacet
  facet normal 0.000000e+000 -1.000000e+000 0.000000e+000
    outer loop
      vertex   1.700000e+001 0.000000e+000 2.000000e+001
      vertex   2.000000e+001 0.000000e+000 0.000000e+000
      vertex   2.000000e+001 0.000000e+000 2.000000e+001
    endloop
  endfacet
  facet normal -0.000000e+000 -1.000000e+000 -0.000000e+000
    outer loop
      vertex   1.700000e+001 0.000000e+000 2.000000e+001
      vertex   5.000000e+000 0.000000e+000 2.000000e+001
      vertex   2.000000e+001 0.000000e+000 0.000000e+000
    endloop
  endfacet
  facet normal -0.000000e+000 -1.000000e+000 -0.000000e+000
    outer loop
      vertex   1.700000e+001 0.000000e+000 2.000000e+001
      vertex   5.000000e+000 0.000000e+000 4.000000e+001
      vertex   5.000000e+000 0.000000e+000 2.000000e+001
    endloop
  endfacet
  facet normal 0.000000e+000 -1.000000e+000 0.000000e+000
    outer loop
      vertex   1.700000e+001 0.000000e+000 2.000000e+001
      vertex   1.700000e+001 0.000000e+000 4.000000e+001
      vertex   5.000000e+000 0.000000e+000 4.000000e+001
    endloop
  endfacet
  facet normal 0.000000e+000 0.000000e+000 1.000000e+000
    outer loop
      vertex   5.000000e+000 2.000000e+001 2.000000e+001
      vertex   0.000000e+000 2.000000e+001 2.000000e+001
      vertex   5.000000e+000 0.000000e+000 2.000000e+001
    endloop
  endfacet
  facet normal 0.000000e+000 0.000000e+000 1.000000e+000
    outer loop
      vertex   5.000000e+000 0.000000e+000 2.000000e+001
      vertex   0.000000e+000 2.000000e+001 2.000000e+001
      vertex   0.000000e+000 0.000000e+000 2.000000e+001
    endloop
  endfacet
  facet normal 0.000000e+000 0.000000e+000 -1.000000e+000
    outer loop
      vertex   2.000000e+001 0.000000e+000 0.000000e+000
      vertex   0.000000e+000 0.000000e+000 0.000000e+000
      vertex   2.000000e+001 2.000000e+001 0.000000e+000
    endloop
  endfacet
  facet normal -0.000000e+000 0.000000e+000 -1.000000e+000
    outer loop
      vertex   2.000000e+001 2.000000e+001 0.000000e+000
      vertex   0.000000e+000 0.000000e+000 0.000000e+000
      vertex   0.000000e+000 2.000000e+001 0.000000e+000
    endloop
  endfacet
endsolid
