solid ASCII
  facet normal 0.000000e+00 1.000000e+00 -0.000000e+00
    outer loop
      vertex   1.204521e+00 1.258355e+00 0.000000e+00
      vertex   7.003030e-01 1.258355e+00 0.000000e+00
      vertex   1.204521e+00 1.258355e+00 1.000000e+00
    endloop
  endfacet
  facet normal 0.000000e+00 1.000000e+00 0.000000e+00
    outer loop
      vertex   1.204521e+00 1.258355e+00 1.000000e+00
      vertex   7.003030e-01 1.258355e+00 0.000000e+00
      vertex   7.003030e-01 1.258355e+00 1.000000e+00
    endloop
  endfacet
  facet normal 8.660254e-01 4.999999e-01 -0.000000e+00
    outer loop
      vertex   1.456630e+00 8.216888e-01 0.000000e+00
      vertex   1.204521e+00 1.258355e+00 0.000000e+00
      vertex   1.456630e+00 8.216888e-01 1.000000e+00
    endloop
  endfacet
  facet normal 8.660254e-01 4.999999e-01 0.000000e+00
    outer loop
      vertex   1.456630e+00 8.216888e-01 1.000000e+00
      vertex   1.204521e+00 1.258355e+00 0.000000e+00
      vertex   1.204521e+00 1.258355e+00 1.000000e+00
    endloop
  endfacet
  facet normal 8.660254e-01 -5.000000e-01 0.000000e+00
    outer loop
      vertex   1.204521e+00 3.850231e-01 0.000000e+00
      vertex   1.456630e+00 8.216888e-01 0.000000e+00
      vertex   1.204521e+00 3.850231e-01 1.000000e+00
    endloop
  endfacet
  facet normal 8.660254e-01 -5.000000e-01 0.000000e+00
    outer loop
      vertex   1.204521e+00 3.850231e-01 1.000000e+00
      vertex   1.456630e+00 8.216888e-01 0.000000e+00
      vertex   1.456630e+00 8.216888e-01 1.000000e+00
    endloop
  endfacet
  facet normal 0.000000e+00 -1.000000e+00 0.000000e+00
    outer loop
      vertex   7.003030e-01 3.850231e-01 0.000000e+00
      vertex   1.204521e+00 3.850231e-01 0.000000e+00
      vertex   7.003030e-01 3.850231e-01 1.000000e+00
    endloop
  endfacet
  facet normal 0.000000e+00 -1.000000e+00 0.000000e+00
    outer loop
      vertex   7.003030e-01 3.850231e-01 1.000000e+00
      vertex   1.204521e+00 3.850231e-01 0.000000e+00
      vertex   1.204521e+00 3.850231e-01 1.000000e+00
    endloop
  endfacet
  facet normal -8.660254e-01 -5.000000e-01 0.000000e+00
    outer loop
      vertex   4.481939e-01 8.216888e-01 0.000000e+00
      vertex   7.003030e-01 3.850231e-01 0.000000e+00
      vertex   4.481939e-01 8.216888e-01 1.000000e+00
    endloop
  endfacet
  facet normal -8.660254e-01 -5.000000e-01 0.000000e+00
    outer loop
      vertex   4.481939e-01 8.216888e-01 1.000000e+00
      vertex   7.003030e-01 3.850231e-01 0.000000e+00
      vertex   7.003030e-01 3.850231e-01 1.000000e+00
    endloop
  endfacet
  facet normal -8.660254e-01 4.999999e-01 0.000000e+00
    outer loop
      vertex   7.003030e-01 1.258355e+00 0.000000e+00
      vertex   4.481939e-01 8.216888e-01 0.000000e+00
      vertex   7.003030e-01 1.258355e+00 1.000000e+00
    endloop
  endfacet
  facet normal -8.660254e-01 4.999999e-01 0.000000e+00
    outer loop
      vertex   7.003030e-01 1.258355e+00 1.000000e+00
      vertex   4.481939e-01 8.216888e-01 0.000000e+00
      vertex   4.481939e-01 8.216888e-01 1.000000e+00
    endloop
  endfacet
  facet normal 0.000000e+00 0.000000e+00 1.000000e+00
    outer loop
      vertex   1.204521e+00 1.258355e+00 1.000000e+00
      vertex   7.003030e-01 1.258355e+00 1.000000e+00
      vertex   1.456630e+00 8.216888e-01 1.000000e+00
    endloop
  endfacet
  facet normal 0.000000e+00 0.000000e+00 1.000000e+00
    outer loop
      vertex   1.456630e+00 8.216888e-01 1.000000e+00
      vertex   7.003030e-01 1.258355e+00 1.000000e+00
      vertex   4.481939e-01 8.216888e-01 1.000000e+00
    endloop
  endfacet
  facet normal 0.000000e+00 0.000000e+00 1.000000e+00
    outer loop
      vertex   1.456630e+00 8.216888e-01 1.000000e+00
      vertex   4.481939e-01 8.216888e-01 1.000000e+00
      vertex   1.204521e+00 3.850231e-01 1.000000e+00
    endloop
  endfacet
  facet normal 0.000000e+00 0.000000e+00 1.000000e+00
    outer loop
      vertex   1.204521e+00 3.850231e-01 1.000000e+00
      vertex   4.481939e-01 8.216888e-01 1.000000e+00
      vertex   7.003030e-01 3.850231e-01 1.000000e+00
    endloop
  endfacet
  facet normal 0.000000e+00 -0.000000e+00 -1.000000e+00
    outer loop
      vertex   7.003030e-01 1.258355e+00 0.000000e+00
      vertex   1.204521e+00 1.258355e+00 0.000000e+00
      vertex   4.481939e-01 8.216888e-01 0.000000e+00
    endloop
  endfacet
  facet normal 0.000000e+00 0.000000e+00 -1.000000e+00
    outer loop
      vertex   4.481939e-01 8.216888e-01 0.000000e+00
      vertex   1.204521e+00 1.258355e+00 0.000000e+00
      vertex   1.456630e+00 8.216888e-01 0.000000e+00
    endloop
  endfacet
  facet normal 0.000000e+00 0.000000e+00 -1.000000e+00
    outer loop
      vertex   4.481939e-01 8.216888e-01 0.000000e+00
      vertex   1.456630e+00 8.216888e-01 0.000000e+00
      vertex   7.003030e-01 3.850231e-01 0.000000e+00
    endloop
  endfacet
  facet normal 0.000000e+00 0.000000e+00 -1.000000e+00
    outer loop
      vertex   7.003030e-01 3.850231e-01 0.000000e+00
      vertex   1.456630e+00 8.216888e-01 0.000000e+00
      vertex   1.204521e+00 3.850231e-01 0.000000e+00
    endloop
  endfacet
endsolid
