solid ASCII
  facet normal 1.000000e+00 0.000000e+00 -0.000000e+00
    outer loop
      vertex   9.020733e+00 0.000000e+00 4.091187e+00
      vertex   9.020733e+00 0.000000e+00 7.008673e+00
      vertex   9.020733e+00 -5.080000e+00 4.091187e+00
    endloop
  endfacet
  facet normal 1.000000e+00 0.000000e+00 0.000000e+00
    outer loop
      vertex   9.020733e+00 -5.080000e+00 4.091187e+00
      vertex   9.020733e+00 0.000000e+00 7.008673e+00
      vertex   9.020733e+00 -5.080000e+00 7.008673e+00
    endloop
  endfacet
  facet normal 0.000000e+00 0.000000e+00 -1.000000e+00
    outer loop
      vertex   3.118692e+00 0.000000e+00 4.091187e+00
      vertex   9.020733e+00 0.000000e+00 4.091187e+00
      vertex   3.118692e+00 -5.080000e+00 4.091187e+00
    endloop
  endfacet
  facet normal 0.000000e+00 0.000000e+00 -1.000000e+00
    outer loop
      vertex   3.118692e+00 -5.080000e+00 4.091187e+00
      vertex   9.020733e+00 0.000000e+00 4.091187e+00
      vertex   9.020733e+00 -5.080000e+00 4.091187e+00
    endloop
  endfacet
  facet normal -1.000000e+00 -0.000000e+00 -0.000000e+00
    outer loop
      vertex   3.118692e+00 0.000000e+00 7.008673e+00
      vertex   3.118692e+00 0.000000e+00 4.091187e+00
      vertex   3.118692e+00 -5.080000e+00 7.008673e+00
    endloop
  endfacet
  facet normal -1.000000e+00 0.000000e+00 0.000000e+00
    outer loop
      vertex   3.118692e+00 -5.080000e+00 7.008673e+00
      vertex   3.118692e+00 0.000000e+00 4.091187e+00
      vertex   3.118692e+00 -5.080000e+00 4.091187e+00
    endloop
  endfacet
  facet normal 0.000000e+00 0.000000e+00 1.000000e+00
    outer loop
      vertex   9.020733e+00 0.000000e+00 7.008673e+00
      vertex   3.118692e+00 0.000000e+00 7.008673e+00
      vertex   9.020733e+00 -5.080000e+00 7.008673e+00
    endloop
  endfacet
  facet normal 0.000000e+00 0.000000e+00 1.000000e+00
    outer loop
      vertex   9.020733e+00 -5.080000e+00 7.008673e+00
      vertex   3.118692e+00 0.000000e+00 7.008673e+00
      vertex   3.118692e+00 -5.080000e+00 7.008673e+00
    endloop
  endfacet
  facet normal 0.000000e+00 -1.000000e+00 0.000000e+00
    outer loop
      vertex   3.118692e+00 -5.080000e+00 7.008673e+00
      vertex   3.118692e+00 -5.080000e+00 4.091187e+00
      vertex   9.020733e+00 -5.080000e+00 7.008673e+00
    endloop
  endfacet
  facet normal 0.000000e+00 -1.000000e+00 -0.000000e+00
    outer loop
      vertex   9.020733e+00 -5.080000e+00 7.008673e+00
      vertex   3.118692e+00 -5.080000e+00 4.091187e+00
      vertex   9.020733e+00 -5.080000e+00 4.091187e+00
    endloop
  endfacet
  facet normal -0.000000e+00 -0.000000e+00 -1.000000e+00
    outer loop
      vertex   0.000000e+00 8.953664e+00 5.231354e+00
      vertex   0.000000e+00 4.158256e+00 5.231354e+00
      vertex   -5.080000e+00 8.953664e+00 5.231354e+00
    endloop
  endfacet
  facet normal 0.000000e+00 0.000000e+00 -1.000000e+00
    outer loop
      vertex   -5.080000e+00 8.953664e+00 5.231354e+00
      vertex   0.000000e+00 4.158256e+00 5.231354e+00
      vertex   -5.080000e+00 4.158256e+00 5.231354e+00
    endloop
  endfacet
  facet normal 0.000000e+00 1.000000e+00 0.000000e+00
    outer loop
      vertex   0.000000e+00 8.953664e+00 7.209879e+00
      vertex   0.000000e+00 8.953664e+00 5.231354e+00
      vertex   -5.080000e+00 8.953664e+00 7.209879e+00
    endloop
  endfacet
  facet normal 0.000000e+00 1.000000e+00 0.000000e+00
    outer loop
      vertex   -5.080000e+00 8.953664e+00 7.209879e+00
      vertex   0.000000e+00 8.953664e+00 5.231354e+00
      vertex   -5.080000e+00 8.953664e+00 5.231354e+00
    endloop
  endfacet
  facet normal 0.000000e+00 -0.000000e+00 1.000000e+00
    outer loop
      vertex   0.000000e+00 4.158256e+00 7.209879e+00
      vertex   0.000000e+00 8.953664e+00 7.209879e+00
      vertex   -5.080000e+00 4.158256e+00 7.209879e+00
    endloop
  endfacet
  facet normal 0.000000e+00 0.000000e+00 1.000000e+00
    outer loop
      vertex   -5.080000e+00 4.158256e+00 7.209879e+00
      vertex   0.000000e+00 8.953664e+00 7.209879e+00
      vertex   -5.080000e+00 8.953664e+00 7.209879e+00
    endloop
  endfacet
  facet normal 0.000000e+00 -1.000000e+00 0.000000e+00
    outer loop
      vertex   0.000000e+00 4.158256e+00 5.231354e+00
      vertex   0.000000e+00 4.158256e+00 7.209879e+00
      vertex   -5.080000e+00 4.158256e+00 5.231354e+00
    endloop
  endfacet
  facet normal 0.000000e+00 -1.000000e+00 0.000000e+00
    outer loop
      vertex   -5.080000e+00 4.158256e+00 5.231354e+00
      vertex   0.000000e+00 4.158256e+00 7.209879e+00
      vertex   -5.080000e+00 4.158256e+00 7.209879e+00
    endloop
  endfacet
  facet normal -1.000000e+00 0.000000e+00 0.000000e+00
    outer loop
      vertex   -5.080000e+00 4.158256e+00 5.231354e+00
      vertex   -5.080000e+00 4.158256e+00 7.209879e+00
      vertex   -5.080000e+00 8.953664e+00 5.231354e+00
    endloop
  endfacet
  facet normal -1.000000e+00 0.000000e+00 0.000000e+00
    outer loop
      vertex   -5.080000e+00 8.953664e+00 5.231354e+00
      vertex   -5.080000e+00 4.158256e+00 7.209879e+00
      vertex   -5.080000e+00 8.953664e+00 7.209879e+00
    endloop
  endfacet
  facet normal 1.000000e+00 -0.000000e+00 0.000000e+00
    outer loop
      vertex   9.020733e+00 1.270000e+01 7.008673e+00
      vertex   9.020733e+00 1.270000e+01 4.091187e+00
      vertex   9.020733e+00 1.778000e+01 7.008673e+00
    endloop
  endfacet
  facet normal 1.000000e+00 0.000000e+00 0.000000e+00
    outer loop
      vertex   9.020733e+00 1.778000e+01 7.008673e+00
      vertex   9.020733e+00 1.270000e+01 4.091187e+00
      vertex   9.020733e+00 1.778000e+01 4.091187e+00
    endloop
  endfacet
  facet normal 0.000000e+00 0.000000e+00 1.000000e+00
    outer loop
      vertex   3.118692e+00 1.270000e+01 7.008673e+00
      vertex   9.020733e+00 1.270000e+01 7.008673e+00
      vertex   3.118692e+00 1.778000e+01 7.008673e+00
    endloop
  endfacet
  facet normal -0.000000e+00 0.000000e+00 1.000000e+00
    outer loop
      vertex   3.118692e+00 1.778000e+01 7.008673e+00
      vertex   9.020733e+00 1.270000e+01 7.008673e+00
      vertex   9.020733e+00 1.778000e+01 7.008673e+00
    endloop
  endfacet
  facet normal -1.000000e+00 0.000000e+00 0.000000e+00
    outer loop
      vertex   3.118692e+00 1.270000e+01 4.091187e+00
      vertex   3.118692e+00 1.270000e+01 7.008673e+00
      vertex   3.118692e+00 1.778000e+01 4.091187e+00
    endloop
  endfacet
  facet normal -1.000000e+00 0.000000e+00 0.000000e+00
    outer loop
      vertex   3.118692e+00 1.778000e+01 4.091187e+00
      vertex   3.118692e+00 1.270000e+01 7.008673e+00
      vertex   3.118692e+00 1.778000e+01 7.008673e+00
    endloop
  endfacet
  facet normal 0.000000e+00 0.000000e+00 -1.000000e+00
    outer loop
      vertex   9.020733e+00 1.270000e+01 4.091187e+00
      vertex   3.118692e+00 1.270000e+01 4.091187e+00
      vertex   9.020733e+00 1.778000e+01 4.091187e+00
    endloop
  endfacet
  facet normal -0.000000e+00 0.000000e+00 -1.000000e+00
    outer loop
      vertex   9.020733e+00 1.778000e+01 4.091187e+00
      vertex   3.118692e+00 1.270000e+01 4.091187e+00
      vertex   3.118692e+00 1.778000e+01 4.091187e+00
    endloop
  endfacet
  facet normal 0.000000e+00 1.000000e+00 0.000000e+00
    outer loop
      vertex   3.118692e+00 1.778000e+01 4.091187e+00
      vertex   3.118692e+00 1.778000e+01 7.008673e+00
      vertex   9.020733e+00 1.778000e+01 4.091187e+00
    endloop
  endfacet
  facet normal 0.000000e+00 1.000000e+00 -0.000000e+00
    outer loop
      vertex   9.020733e+00 1.778000e+01 4.091187e+00
      vertex   3.118692e+00 1.778000e+01 7.008673e+00
      vertex   9.020733e+00 1.778000e+01 7.008673e+00
    endloop
  endfacet
  facet normal 0.000000e+00 0.000000e+00 -1.000000e+00
    outer loop
      vertex   1.270000e+01 8.282978e+00 4.057653e+00
      vertex   1.270000e+01 9.926159e+00 4.057653e+00
      vertex   1.778000e+01 8.282978e+00 4.057653e+00
    endloop
  endfacet
  facet normal 0.000000e+00 0.000000e+00 -1.000000e+00
    outer loop
      vertex   1.778000e+01 8.282978e+00 4.057653e+00
      vertex   1.270000e+01 9.926159e+00 4.057653e+00
      vertex   1.778000e+01 9.926159e+00 4.057653e+00
    endloop
  endfacet
  facet normal 0.000000e+00 -1.000000e+00 0.000000e+00
    outer loop
      vertex   1.270000e+01 8.282978e+00 8.383581e+00
      vertex   1.270000e+01 8.282978e+00 4.057653e+00
      vertex   1.778000e+01 8.282978e+00 8.383581e+00
    endloop
  endfacet
  facet normal 0.000000e+00 -1.000000e+00 -0.000000e+00
    outer loop
      vertex   1.778000e+01 8.282978e+00 8.383581e+00
      vertex   1.270000e+01 8.282978e+00 4.057653e+00
      vertex   1.778000e+01 8.282978e+00 4.057653e+00
    endloop
  endfacet
  facet normal -0.000000e+00 0.000000e+00 1.000000e+00
    outer loop
      vertex   1.270000e+01 9.926159e+00 8.383581e+00
      vertex   1.270000e+01 8.282978e+00 8.383581e+00
      vertex   1.778000e+01 9.926159e+00 8.383581e+00
    endloop
  endfacet
  facet normal 0.000000e+00 0.000000e+00 1.000000e+00
    outer loop
      vertex   1.778000e+01 9.926159e+00 8.383581e+00
      vertex   1.270000e+01 8.282978e+00 8.383581e+00
      vertex   1.778000e+01 8.282978e+00 8.383581e+00
    endloop
  endfacet
  facet normal 0.000000e+00 1.000000e+00 0.000000e+00
    outer loop
      vertex   1.270000e+01 9.926159e+00 4.057653e+00
      vertex   1.270000e+01 9.926159e+00 8.383581e+00
      vertex   1.778000e+01 9.926159e+00 4.057653e+00
    endloop
  endfacet
  facet normal 0.000000e+00 1.000000e+00 -0.000000e+00
    outer loop
      vertex   1.778000e+01 9.926159e+00 4.057653e+00
      vertex   1.270000e+01 9.926159e+00 8.383581e+00
      vertex   1.778000e+01 9.926159e+00 8.383581e+00
    endloop
  endfacet
  facet normal 1.000000e+00 0.000000e+00 -0.000000e+00
    outer loop
      vertex   1.778000e+01 9.926159e+00 4.057653e+00
      vertex   1.778000e+01 9.926159e+00 8.383581e+00
      vertex   1.778000e+01 8.282978e+00 4.057653e+00
    endloop
  endfacet
  facet normal 1.000000e+00 0.000000e+00 0.000000e+00
    outer loop
      vertex   1.778000e+01 8.282978e+00 4.057653e+00
      vertex   1.778000e+01 9.926159e+00 8.383581e+00
      vertex   1.778000e+01 8.282978e+00 8.383581e+00
    endloop
  endfacet
  facet normal -1.000000e+00 0.000000e+00 0.000000e+00
    outer loop
      vertex   1.218628e+01 1.190193e+01 0.000000e+00
      vertex   1.218628e+01 8.124184e-01 0.000000e+00
      vertex   1.218628e+01 1.190193e+01 1.270000e+01
    endloop
  endfacet
  facet normal -1.000000e+00 -0.000000e+00 0.000000e+00
    outer loop
      vertex   1.218628e+01 1.190193e+01 1.270000e+01
      vertex   1.218628e+01 8.124184e-01 0.000000e+00
      vertex   1.218628e+01 8.124184e-01 1.270000e+01
    endloop
  endfacet
  facet normal 0.000000e+00 -1.000000e+00 0.000000e+00
    outer loop
      vertex   7.311765e-01 1.190193e+01 0.000000e+00
      vertex   1.218628e+01 1.190193e+01 0.000000e+00
      vertex   7.311765e-01 1.190193e+01 1.270000e+01
    endloop
  endfacet
  facet normal 0.000000e+00 -1.000000e+00 0.000000e+00
    outer loop
      vertex   7.311765e-01 1.190193e+01 1.270000e+01
      vertex   1.218628e+01 1.190193e+01 0.000000e+00
      vertex   1.218628e+01 1.190193e+01 1.270000e+01
    endloop
  endfacet
  facet normal 1.000000e+00 0.000000e+00 0.000000e+00
    outer loop
      vertex   7.311765e-01 8.124184e-01 0.000000e+00
      vertex   7.311765e-01 1.190193e+01 0.000000e+00
      vertex   7.311765e-01 8.124184e-01 1.270000e+01
    endloop
  endfacet
  facet normal 1.000000e+00 -0.000000e+00 0.000000e+00
    outer loop
      vertex   7.311765e-01 8.124184e-01 1.270000e+01
      vertex   7.311765e-01 1.190193e+01 0.000000e+00
      vertex   7.311765e-01 1.190193e+01 1.270000e+01
    endloop
  endfacet
  facet normal 0.000000e+00 1.000000e+00 -0.000000e+00
    outer loop
      vertex   1.218628e+01 8.124184e-01 0.000000e+00
      vertex   7.311765e-01 8.124184e-01 0.000000e+00
      vertex   1.218628e+01 8.124184e-01 1.270000e+01
    endloop
  endfacet
  facet normal 0.000000e+00 1.000000e+00 0.000000e+00
    outer loop
      vertex   1.218628e+01 8.124184e-01 1.270000e+01
      vertex   7.311765e-01 8.124184e-01 0.000000e+00
      vertex   7.311765e-01 8.124184e-01 1.270000e+01
    endloop
  endfacet
  facet normal -1.000000e+00 -0.000000e+00 -0.000000e+00
    outer loop
      vertex   0.000000e+00 8.953664e+00 5.231354e+00
      vertex   0.000000e+00 1.270000e+01 0.000000e+00
      vertex   0.000000e+00 4.158256e+00 5.231354e+00
    endloop
  endfacet
  facet normal -1.000000e+00 0.000000e+00 -0.000000e+00
    outer loop
      vertex   0.000000e+00 4.158256e+00 5.231354e+00
      vertex   0.000000e+00 1.270000e+01 0.000000e+00
      vertex   0.000000e+00 0.000000e+00 0.000000e+00
    endloop
  endfacet
  facet normal -1.000000e+00 -0.000000e+00 0.000000e+00
    outer loop
      vertex   0.000000e+00 4.158256e+00 5.231354e+00
      vertex   0.000000e+00 0.000000e+00 0.000000e+00
      vertex   0.000000e+00 4.158256e+00 7.209879e+00
    endloop
  endfacet
  facet normal -1.000000e+00 -0.000000e+00 0.000000e+00
    outer loop
      vertex   0.000000e+00 4.158256e+00 7.209879e+00
      vertex   0.000000e+00 0.000000e+00 0.000000e+00
      vertex   0.000000e+00 0.000000e+00 1.270000e+01
    endloop
  endfacet
  facet normal -1.000000e+00 0.000000e+00 0.000000e+00
    outer loop
      vertex   0.000000e+00 4.158256e+00 7.209879e+00
      vertex   0.000000e+00 0.000000e+00 1.270000e+01
      vertex   0.000000e+00 1.270000e+01 1.270000e+01
    endloop
  endfacet
  facet normal -1.000000e+00 0.000000e+00 0.000000e+00
    outer loop
      vertex   0.000000e+00 8.953664e+00 5.231354e+00
      vertex   0.000000e+00 8.953664e+00 7.209879e+00
      vertex   0.000000e+00 1.270000e+01 0.000000e+00
    endloop
  endfacet
  facet normal -1.000000e+00 0.000000e+00 0.000000e+00
    outer loop
      vertex   0.000000e+00 1.270000e+01 0.000000e+00
      vertex   0.000000e+00 8.953664e+00 7.209879e+00
      vertex   0.000000e+00 1.270000e+01 1.270000e+01
    endloop
  endfacet
  facet normal -1.000000e+00 0.000000e+00 0.000000e+00
    outer loop
      vertex   0.000000e+00 1.270000e+01 1.270000e+01
      vertex   0.000000e+00 8.953664e+00 7.209879e+00
      vertex   0.000000e+00 4.158256e+00 7.209879e+00
    endloop
  endfacet
  facet normal 0.000000e+00 1.000000e+00 0.000000e+00
    outer loop
      vertex   9.020733e+00 1.270000e+01 7.008673e+00
      vertex   1.270000e+01 1.270000e+01 0.000000e+00
      vertex   9.020733e+00 1.270000e+01 4.091187e+00
    endloop
  endfacet
  facet normal 0.000000e+00 1.000000e+00 0.000000e+00
    outer loop
      vertex   9.020733e+00 1.270000e+01 4.091187e+00
      vertex   1.270000e+01 1.270000e+01 0.000000e+00
      vertex   0.000000e+00 1.270000e+01 0.000000e+00
    endloop
  endfacet
  facet normal 0.000000e+00 1.000000e+00 0.000000e+00
    outer loop
      vertex   9.020733e+00 1.270000e+01 4.091187e+00
      vertex   0.000000e+00 1.270000e+01 0.000000e+00
      vertex   3.118692e+00 1.270000e+01 4.091187e+00
    endloop
  endfacet
  facet normal 0.000000e+00 1.000000e+00 -0.000000e+00
    outer loop
      vertex   3.118692e+00 1.270000e+01 4.091187e+00
      vertex   0.000000e+00 1.270000e+01 0.000000e+00
      vertex   3.118692e+00 1.270000e+01 7.008673e+00
    endloop
  endfacet
  facet normal 0.000000e+00 1.000000e+00 0.000000e+00
    outer loop
      vertex   3.118692e+00 1.270000e+01 7.008673e+00
      vertex   0.000000e+00 1.270000e+01 0.000000e+00
      vertex   0.000000e+00 1.270000e+01 1.270000e+01
    endloop
  endfacet
  facet normal 0.000000e+00 1.000000e+00 -0.000000e+00
    outer loop
      vertex   3.118692e+00 1.270000e+01 7.008673e+00
      vertex   0.000000e+00 1.270000e+01 1.270000e+01
      vertex   9.020733e+00 1.270000e+01 7.008673e+00
    endloop
  endfacet
  facet normal 0.000000e+00 1.000000e+00 -0.000000e+00
    outer loop
      vertex   9.020733e+00 1.270000e+01 7.008673e+00
      vertex   0.000000e+00 1.270000e+01 1.270000e+01
      vertex   1.270000e+01 1.270000e+01 1.270000e+01
    endloop
  endfacet
  facet normal -0.000000e+00 1.000000e+00 0.000000e+00
    outer loop
      vertex   9.020733e+00 1.270000e+01 7.008673e+00
      vertex   1.270000e+01 1.270000e+01 1.270000e+01
      vertex   1.270000e+01 1.270000e+01 0.000000e+00
    endloop
  endfacet
  facet normal 1.000000e+00 0.000000e+00 0.000000e+00
    outer loop
      vertex   1.270000e+01 9.926159e+00 8.383581e+00
      vertex   1.270000e+01 9.926159e+00 4.057653e+00
      vertex   1.270000e+01 1.270000e+01 0.000000e+00
    endloop
  endfacet
  facet normal 1.000000e+00 0.000000e+00 0.000000e+00
    outer loop
      vertex   1.270000e+01 1.270000e+01 0.000000e+00
      vertex   1.270000e+01 9.926159e+00 4.057653e+00
      vertex   1.270000e+01 8.282978e+00 4.057653e+00
    endloop
  endfacet
  facet normal 1.000000e+00 0.000000e+00 0.000000e+00
    outer loop
      vertex   1.270000e+01 1.270000e+01 0.000000e+00
      vertex   1.270000e+01 8.282978e+00 4.057653e+00
      vertex   1.270000e+01 0.000000e+00 0.000000e+00
    endloop
  endfacet
  facet normal 1.000000e+00 0.000000e+00 0.000000e+00
    outer loop
      vertex   1.270000e+01 0.000000e+00 0.000000e+00
      vertex   1.270000e+01 8.282978e+00 4.057653e+00
      vertex   1.270000e+01 8.282978e+00 8.383581e+00
    endloop
  endfacet
  facet normal 1.000000e+00 0.000000e+00 0.000000e+00
    outer loop
      vertex   1.270000e+01 0.000000e+00 0.000000e+00
      vertex   1.270000e+01 8.282978e+00 8.383581e+00
      vertex   1.270000e+01 0.000000e+00 1.270000e+01
    endloop
  endfacet
  facet normal 1.000000e+00 -0.000000e+00 0.000000e+00
    outer loop
      vertex   1.270000e+01 0.000000e+00 1.270000e+01
      vertex   1.270000e+01 8.282978e+00 8.383581e+00
      vertex   1.270000e+01 1.270000e+01 1.270000e+01
    endloop
  endfacet
  facet normal 1.000000e+00 0.000000e+00 0.000000e+00
    outer loop
      vertex   1.270000e+01 1.270000e+01 1.270000e+01
      vertex   1.270000e+01 8.282978e+00 8.383581e+00
      vertex   1.270000e+01 9.926159e+00 8.383581e+00
    endloop
  endfacet
  facet normal 1.000000e+00 0.000000e+00 0.000000e+00
    outer loop
      vertex   1.270000e+01 1.270000e+01 1.270000e+01
      vertex   1.270000e+01 9.926159e+00 8.383581e+00
      vertex   1.270000e+01 1.270000e+01 0.000000e+00
    endloop
  endfacet
  facet normal 0.000000e+00 -1.000000e+00 0.000000e+00
    outer loop
      vertex   9.020733e+00 0.000000e+00 4.091187e+00
      vertex   1.270000e+01 0.000000e+00 0.000000e+00
      vertex   9.020733e+00 0.000000e+00 7.008673e+00
    endloop
  endfacet
  facet normal 0.000000e+00 -1.000000e+00 0.000000e+00
    outer loop
      vertex   9.020733e+00 0.000000e+00 7.008673e+00
      vertex   1.270000e+01 0.000000e+00 0.000000e+00
      vertex   1.270000e+01 0.000000e+00 1.270000e+01
    endloop
  endfacet
  facet normal 0.000000e+00 -1.000000e+00 0.000000e+00
    outer loop
      vertex   9.020733e+00 0.000000e+00 7.008673e+00
      vertex   1.270000e+01 0.000000e+00 1.270000e+01
      vertex   0.000000e+00 0.000000e+00 1.270000e+01
    endloop
  endfacet
  facet normal 0.000000e+00 -1.000000e+00 0.000000e+00
    outer loop
      vertex   1.270000e+01 0.000000e+00 0.000000e+00
      vertex   9.020733e+00 0.000000e+00 4.091187e+00
      vertex   0.000000e+00 0.000000e+00 0.000000e+00
    endloop
  endfacet
  facet normal 0.000000e+00 -1.000000e+00 0.000000e+00
    outer loop
      vertex   0.000000e+00 0.000000e+00 0.000000e+00
      vertex   9.020733e+00 0.000000e+00 4.091187e+00
      vertex   3.118692e+00 0.000000e+00 4.091187e+00
    endloop
  endfacet
  facet normal 0.000000e+00 -1.000000e+00 0.000000e+00
    outer loop
      vertex   0.000000e+00 0.000000e+00 0.000000e+00
      vertex   3.118692e+00 0.000000e+00 4.091187e+00
      vertex   3.118692e+00 0.000000e+00 7.008673e+00
    endloop
  endfacet
  facet normal 0.000000e+00 -1.000000e+00 0.000000e+00
    outer loop
      vertex   0.000000e+00 0.000000e+00 0.000000e+00
      vertex   3.118692e+00 0.000000e+00 7.008673e+00
      vertex   0.000000e+00 0.000000e+00 1.270000e+01
    endloop
  endfacet
  facet normal 0.000000e+00 -1.000000e+00 0.000000e+00
    outer loop
      vertex   0.000000e+00 0.000000e+00 1.270000e+01
      vertex   3.118692e+00 0.000000e+00 7.008673e+00
      vertex   9.020733e+00 0.000000e+00 7.008673e+00
    endloop
  endfacet
  facet normal 0.000000e+00 0.000000e+00 1.000000e+00
    outer loop
      vertex   7.311765e-01 1.190193e+01 1.270000e+01
      vertex   0.000000e+00 1.270000e+01 1.270000e+01
      vertex   7.311765e-01 8.124184e-01 1.270000e+01
    endloop
  endfacet
  facet normal 0.000000e+00 0.000000e+00 1.000000e+00
    outer loop
      vertex   7.311765e-01 8.124184e-01 1.270000e+01
      vertex   0.000000e+00 1.270000e+01 1.270000e+01
      vertex   0.000000e+00 0.000000e+00 1.270000e+01
    endloop
  endfacet
  facet normal 0.000000e+00 0.000000e+00 1.000000e+00
    outer loop
      vertex   7.311765e-01 8.124184e-01 1.270000e+01
      vertex   0.000000e+00 0.000000e+00 1.270000e+01
      vertex   1.270000e+01 0.000000e+00 1.270000e+01
    endloop
  endfacet
  facet normal -0.000000e+00 0.000000e+00 1.000000e+00
    outer loop
      vertex   0.000000e+00 1.270000e+01 1.270000e+01
      vertex   7.311765e-01 1.190193e+01 1.270000e+01
      vertex   1.270000e+01 1.270000e+01 1.270000e+01
    endloop
  endfacet
  facet normal 0.000000e+00 0.000000e+00 1.000000e+00
    outer loop
      vertex   1.270000e+01 1.270000e+01 1.270000e+01
      vertex   7.311765e-01 1.190193e+01 1.270000e+01
      vertex   1.218628e+01 1.190193e+01 1.270000e+01
    endloop
  endfacet
  facet normal 0.000000e+00 0.000000e+00 1.000000e+00
    outer loop
      vertex   1.270000e+01 1.270000e+01 1.270000e+01
      vertex   1.218628e+01 1.190193e+01 1.270000e+01
      vertex   1.218628e+01 8.124184e-01 1.270000e+01
    endloop
  endfacet
  facet normal 0.000000e+00 0.000000e+00 1.000000e+00
    outer loop
      vertex   1.270000e+01 1.270000e+01 1.270000e+01
      vertex   1.218628e+01 8.124184e-01 1.270000e+01
      vertex   1.270000e+01 0.000000e+00 1.270000e+01
    endloop
  endfacet
  facet normal 0.000000e+00 0.000000e+00 1.000000e+00
    outer loop
      vertex   1.270000e+01 0.000000e+00 1.270000e+01
      vertex   1.218628e+01 8.124184e-01 1.270000e+01
      vertex   7.311765e-01 8.124184e-01 1.270000e+01
    endloop
  endfacet
  facet normal 0.000000e+00 0.000000e+00 -1.000000e+00
    outer loop
      vertex   7.311765e-01 8.124184e-01 0.000000e+00
      vertex   0.000000e+00 1.270000e+01 0.000000e+00
      vertex   7.311765e-01 1.190193e+01 0.000000e+00
    endloop
  endfacet
  facet normal 0.000000e+00 0.000000e+00 -1.000000e+00
    outer loop
      vertex   7.311765e-01 1.190193e+01 0.000000e+00
      vertex   0.000000e+00 1.270000e+01 0.000000e+00
      vertex   1.270000e+01 1.270000e+01 0.000000e+00
    endloop
  endfacet
  facet normal 0.000000e+00 0.000000e+00 -1.000000e+00
    outer loop
      vertex   7.311765e-01 1.190193e+01 0.000000e+00
      vertex   1.270000e+01 1.270000e+01 0.000000e+00
      vertex   1.218628e+01 1.190193e+01 0.000000e+00
    endloop
  endfacet
  facet normal 0.000000e+00 0.000000e+00 -1.000000e+00
    outer loop
      vertex   1.218628e+01 1.190193e+01 0.000000e+00
      vertex   1.270000e+01 1.270000e+01 0.000000e+00
      vertex   1.218628e+01 8.124184e-01 0.000000e+00
    endloop
  endfacet
  facet normal 0.000000e+00 0.000000e+00 -1.000000e+00
    outer loop
      vertex   1.218628e+01 8.124184e-01 0.000000e+00
      vertex   1.270000e+01 1.270000e+01 0.000000e+00
      vertex   1.270000e+01 0.000000e+00 0.000000e+00
    endloop
  endfacet
  facet normal -0.000000e+00 -0.000000e+00 -1.000000e+00
    outer loop
      vertex   1.218628e+01 8.124184e-01 0.000000e+00
      vertex   1.270000e+01 0.000000e+00 0.000000e+00
      vertex   7.311765e-01 8.124184e-01 0.000000e+00
    endloop
  endfacet
  facet normal 0.000000e+00 -0.000000e+00 -1.000000e+00
    outer loop
      vertex   7.311765e-01 8.124184e-01 0.000000e+00
      vertex   1.270000e+01 0.000000e+00 0.000000e+00
      vertex   0.000000e+00 0.000000e+00 0.000000e+00
    endloop
  endfacet
  facet normal -0.000000e+00 0.000000e+00 -1.000000e+00
    outer loop
      vertex   7.311765e-01 8.124184e-01 0.000000e+00
      vertex   0.000000e+00 0.000000e+00 0.000000e+00
      vertex   0.000000e+00 1.270000e+01 0.000000e+00
    endloop
  endfacet
endsolid
