solid ASCII
  facet normal 9.951847e-01 0.000000e+00 -9.801714e-02
    outer loop
      vertex   2.046422e+01 -5.000000e+00 4.544535e+00
      vertex   2.046422e+01 0.000000e+00 4.544535e+00
      vertex   2.052186e+01 -5.000000e+00 5.129806e+00
    endloop
  endfacet
  facet normal 9.951847e-01 0.000000e+00 -9.801714e-02
    outer loop
      vertex   2.052186e+01 -5.000000e+00 5.129806e+00
      vertex   2.046422e+01 0.000000e+00 4.544535e+00
      vertex   2.052186e+01 0.000000e+00 5.129806e+00
    endloop
  endfacet
  facet normal 9.951847e-01 -0.000000e+00 9.801714e-02
    outer loop
      vertex   2.052186e+01 -5.000000e+00 5.129806e+00
      vertex   2.052186e+01 0.000000e+00 5.129806e+00
      vertex   2.046422e+01 -5.000000e+00 5.715077e+00
    endloop
  endfacet
  facet normal 9.951847e-01 -0.000000e+00 9.801714e-02
    outer loop
      vertex   2.046422e+01 -5.000000e+00 5.715077e+00
      vertex   2.052186e+01 0.000000e+00 5.129806e+00
      vertex   2.046422e+01 0.000000e+00 5.715077e+00
    endloop
  endfacet
  facet normal 9.569403e-01 -0.000000e+00 2.902847e-01
    outer loop
      vertex   2.046422e+01 -5.000000e+00 5.715077e+00
      vertex   2.046422e+01 0.000000e+00 5.715077e+00
      vertex   2.029350e+01 -5.000000e+00 6.277856e+00
    endloop
  endfacet
  facet normal 9.569403e-01 -5.156492e-17 2.902847e-01
    outer loop
      vertex   2.029350e+01 -5.000000e+00 6.277856e+00
      vertex   2.046422e+01 0.000000e+00 5.715077e+00
      vertex   2.029350e+01 0.000000e+00 6.277856e+00
    endloop
  endfacet
  facet normal 8.819213e-01 -8.373688e-17 4.713967e-01
    outer loop
      vertex   2.029350e+01 -5.000000e+00 6.277856e+00
      vertex   2.029350e+01 0.000000e+00 6.277856e+00
      vertex   2.001627e+01 -5.000000e+00 6.796517e+00
    endloop
  endfacet
  facet normal 8.819213e-01 -0.000000e+00 4.713967e-01
    outer loop
      vertex   2.001627e+01 -5.000000e+00 6.796517e+00
      vertex   2.029350e+01 0.000000e+00 6.277856e+00
      vertex   2.001627e+01 0.000000e+00 6.796517e+00
    endloop
  endfacet
  facet normal 7.730105e-01 -0.000000e+00 6.343933e-01
    outer loop
      vertex   2.001627e+01 -5.000000e+00 6.796517e+00
      vertex   2.001627e+01 0.000000e+00 6.796517e+00
      vertex   1.964318e+01 -5.000000e+00 7.251126e+00
    endloop
  endfacet
  facet normal 7.730105e-01 -0.000000e+00 6.343933e-01
    outer loop
      vertex   1.964318e+01 -5.000000e+00 7.251126e+00
      vertex   2.001627e+01 0.000000e+00 6.796517e+00
      vertex   1.964318e+01 0.000000e+00 7.251126e+00
    endloop
  endfacet
  facet normal 6.343933e-01 -0.000000e+00 7.730105e-01
    outer loop
      vertex   1.964318e+01 -5.000000e+00 7.251126e+00
      vertex   1.964318e+01 0.000000e+00 7.251126e+00
      vertex   1.918857e+01 -5.000000e+00 7.624215e+00
    endloop
  endfacet
  facet normal 6.343933e-01 -0.000000e+00 7.730105e-01
    outer loop
      vertex   1.918857e+01 -5.000000e+00 7.624215e+00
      vertex   1.964318e+01 0.000000e+00 7.251126e+00
      vertex   1.918857e+01 0.000000e+00 7.624215e+00
    endloop
  endfacet
  facet normal 4.713967e-01 -0.000000e+00 8.819213e-01
    outer loop
      vertex   1.918857e+01 -5.000000e+00 7.624215e+00
      vertex   1.918857e+01 0.000000e+00 7.624215e+00
      vertex   1.866991e+01 -5.000000e+00 7.901445e+00
    endloop
  endfacet
  facet normal 4.713967e-01 -3.349475e-16 8.819213e-01
    outer loop
      vertex   1.866991e+01 -5.000000e+00 7.901445e+00
      vertex   1.918857e+01 0.000000e+00 7.624215e+00
      vertex   1.866991e+01 0.000000e+00 7.901445e+00
    endloop
  endfacet
  facet normal 2.902847e-01 -2.062597e-16 9.569403e-01
    outer loop
      vertex   1.866991e+01 -5.000000e+00 7.901445e+00
      vertex   1.866991e+01 0.000000e+00 7.901445e+00
      vertex   1.810713e+01 -5.000000e+00 8.072162e+00
    endloop
  endfacet
  facet normal 2.902847e-01 -0.000000e+00 9.569403e-01
    outer loop
      vertex   1.810713e+01 -5.000000e+00 8.072162e+00
      vertex   1.866991e+01 0.000000e+00 7.901445e+00
      vertex   1.810713e+01 0.000000e+00 8.072162e+00
    endloop
  endfacet
  facet normal 9.801714e-02 -0.000000e+00 9.951847e-01
    outer loop
      vertex   1.810713e+01 -5.000000e+00 8.072162e+00
      vertex   1.810713e+01 0.000000e+00 8.072162e+00
      vertex   1.752186e+01 -5.000000e+00 8.129806e+00
    endloop
  endfacet
  facet normal 9.801714e-02 -0.000000e+00 9.951847e-01
    outer loop
      vertex   1.752186e+01 -5.000000e+00 8.129806e+00
      vertex   1.810713e+01 0.000000e+00 8.072162e+00
      vertex   1.752186e+01 0.000000e+00 8.129806e+00
    endloop
  endfacet
  facet normal -9.801714e-02 0.000000e+00 9.951847e-01
    outer loop
      vertex   1.752186e+01 -5.000000e+00 8.129806e+00
      vertex   1.752186e+01 0.000000e+00 8.129806e+00
      vertex   1.693659e+01 -5.000000e+00 8.072162e+00
    endloop
  endfacet
  facet normal -9.801714e-02 0.000000e+00 9.951847e-01
    outer loop
      vertex   1.693659e+01 -5.000000e+00 8.072162e+00
      vertex   1.752186e+01 0.000000e+00 8.129806e+00
      vertex   1.693659e+01 0.000000e+00 8.072162e+00
    endloop
  endfacet
  facet normal -2.902847e-01 0.000000e+00 9.569403e-01
    outer loop
      vertex   1.693659e+01 -5.000000e+00 8.072162e+00
      vertex   1.693659e+01 0.000000e+00 8.072162e+00
      vertex   1.637381e+01 -5.000000e+00 7.901445e+00
    endloop
  endfacet
  facet normal -2.902847e-01 3.399735e-16 9.569403e-01
    outer loop
      vertex   1.637381e+01 -5.000000e+00 7.901445e+00
      vertex   1.693659e+01 0.000000e+00 8.072162e+00
      vertex   1.637381e+01 0.000000e+00 7.901445e+00
    endloop
  endfacet
  facet normal -4.713967e-01 3.133214e-16 8.819213e-01
    outer loop
      vertex   1.637381e+01 -5.000000e+00 7.901445e+00
      vertex   1.637381e+01 0.000000e+00 7.901445e+00
      vertex   1.585515e+01 -5.000000e+00 7.624215e+00
    endloop
  endfacet
  facet normal -4.713967e-01 0.000000e+00 8.819213e-01
    outer loop
      vertex   1.585515e+01 -5.000000e+00 7.624215e+00
      vertex   1.637381e+01 0.000000e+00 7.901445e+00
      vertex   1.585515e+01 0.000000e+00 7.624215e+00
    endloop
  endfacet
  facet normal -6.343933e-01 0.000000e+00 7.730105e-01
    outer loop
      vertex   1.585515e+01 -5.000000e+00 7.624215e+00
      vertex   1.585515e+01 0.000000e+00 7.624215e+00
      vertex   1.540054e+01 -5.000000e+00 7.251126e+00
    endloop
  endfacet
  facet normal -6.343933e-01 0.000000e+00 7.730105e-01
    outer loop
      vertex   1.540054e+01 -5.000000e+00 7.251126e+00
      vertex   1.585515e+01 0.000000e+00 7.624215e+00
      vertex   1.540054e+01 0.000000e+00 7.251126e+00
    endloop
  endfacet
  facet normal -7.730105e-01 0.000000e+00 6.343933e-01
    outer loop
      vertex   1.540054e+01 -5.000000e+00 7.251126e+00
      vertex   1.540054e+01 0.000000e+00 7.251126e+00
      vertex   1.502745e+01 -5.000000e+00 6.796517e+00
    endloop
  endfacet
  facet normal -7.730105e-01 0.000000e+00 6.343933e-01
    outer loop
      vertex   1.502745e+01 -5.000000e+00 6.796517e+00
      vertex   1.540054e+01 0.000000e+00 7.251126e+00
      vertex   1.502745e+01 0.000000e+00 6.796517e+00
    endloop
  endfacet
  facet normal -8.819213e-01 0.000000e+00 4.713967e-01
    outer loop
      vertex   1.502745e+01 -5.000000e+00 6.796517e+00
      vertex   1.502745e+01 0.000000e+00 6.796517e+00
      vertex   1.475022e+01 -5.000000e+00 6.277856e+00
    endloop
  endfacet
  facet normal -8.819213e-01 0.000000e+00 4.713967e-01
    outer loop
      vertex   1.475022e+01 -5.000000e+00 6.277856e+00
      vertex   1.502745e+01 0.000000e+00 6.796517e+00
      vertex   1.475022e+01 0.000000e+00 6.277856e+00
    endloop
  endfacet
  facet normal -9.569403e-01 0.000000e+00 2.902847e-01
    outer loop
      vertex   1.475022e+01 -5.000000e+00 6.277856e+00
      vertex   1.475022e+01 0.000000e+00 6.277856e+00
      vertex   1.457951e+01 -5.000000e+00 5.715077e+00
    endloop
  endfacet
  facet normal -9.569403e-01 0.000000e+00 2.902847e-01
    outer loop
      vertex   1.457951e+01 -5.000000e+00 5.715077e+00
      vertex   1.475022e+01 0.000000e+00 6.277856e+00
      vertex   1.457951e+01 0.000000e+00 5.715077e+00
    endloop
  endfacet
  facet normal -9.951847e-01 0.000000e+00 9.801714e-02
    outer loop
      vertex   1.457951e+01 -5.000000e+00 5.715077e+00
      vertex   1.457951e+01 0.000000e+00 5.715077e+00
      vertex   1.452186e+01 -5.000000e+00 5.129806e+00
    endloop
  endfacet
  facet normal -9.951847e-01 0.000000e+00 9.801714e-02
    outer loop
      vertex   1.452186e+01 -5.000000e+00 5.129806e+00
      vertex   1.457951e+01 0.000000e+00 5.715077e+00
      vertex   1.452186e+01 0.000000e+00 5.129806e+00
    endloop
  endfacet
  facet normal -9.951847e-01 0.000000e+00 -9.801714e-02
    outer loop
      vertex   1.452186e+01 -5.000000e+00 5.129806e+00
      vertex   1.452186e+01 0.000000e+00 5.129806e+00
      vertex   1.457951e+01 -5.000000e+00 4.544535e+00
    endloop
  endfacet
  facet normal -9.951847e-01 0.000000e+00 -9.801714e-02
    outer loop
      vertex   1.457951e+01 -5.000000e+00 4.544535e+00
      vertex   1.452186e+01 0.000000e+00 5.129806e+00
      vertex   1.457951e+01 0.000000e+00 4.544535e+00
    endloop
  endfacet
  facet normal -9.569403e-01 0.000000e+00 -2.902847e-01
    outer loop
      vertex   1.457951e+01 -5.000000e+00 4.544535e+00
      vertex   1.457951e+01 0.000000e+00 4.544535e+00
      vertex   1.475022e+01 -5.000000e+00 3.981756e+00
    endloop
  endfacet
  facet normal -9.569403e-01 0.000000e+00 -2.902847e-01
    outer loop
      vertex   1.475022e+01 -5.000000e+00 3.981756e+00
      vertex   1.457951e+01 0.000000e+00 4.544535e+00
      vertex   1.475022e+01 0.000000e+00 3.981756e+00
    endloop
  endfacet
  facet normal -8.819213e-01 0.000000e+00 -4.713967e-01
    outer loop
      vertex   1.475022e+01 -5.000000e+00 3.981756e+00
      vertex   1.475022e+01 0.000000e+00 3.981756e+00
      vertex   1.502745e+01 -5.000000e+00 3.463095e+00
    endloop
  endfacet
  facet normal -8.819213e-01 0.000000e+00 -4.713967e-01
    outer loop
      vertex   1.502745e+01 -5.000000e+00 3.463095e+00
      vertex   1.475022e+01 0.000000e+00 3.981756e+00
      vertex   1.502745e+01 0.000000e+00 3.463095e+00
    endloop
  endfacet
  facet normal -7.730105e-01 0.000000e+00 -6.343933e-01
    outer loop
      vertex   1.502745e+01 -5.000000e+00 3.463095e+00
      vertex   1.502745e+01 0.000000e+00 3.463095e+00
      vertex   1.540054e+01 -5.000000e+00 3.008486e+00
    endloop
  endfacet
  facet normal -7.730105e-01 0.000000e+00 -6.343933e-01
    outer loop
      vertex   1.540054e+01 -5.000000e+00 3.008486e+00
      vertex   1.502745e+01 0.000000e+00 3.463095e+00
      vertex   1.540054e+01 0.000000e+00 3.008486e+00
    endloop
  endfacet
  facet normal -6.343933e-01 0.000000e+00 -7.730105e-01
    outer loop
      vertex   1.540054e+01 -5.000000e+00 3.008486e+00
      vertex   1.540054e+01 0.000000e+00 3.008486e+00
      vertex   1.585515e+01 -5.000000e+00 2.635397e+00
    endloop
  endfacet
  facet normal -6.343933e-01 0.000000e+00 -7.730105e-01
    outer loop
      vertex   1.585515e+01 -5.000000e+00 2.635397e+00
      vertex   1.540054e+01 0.000000e+00 3.008486e+00
      vertex   1.585515e+01 0.000000e+00 2.635397e+00
    endloop
  endfacet
  facet normal -4.713967e-01 0.000000e+00 -8.819213e-01
    outer loop
      vertex   1.585515e+01 -5.000000e+00 2.635397e+00
      vertex   1.585515e+01 0.000000e+00 2.635397e+00
      vertex   1.637381e+01 -5.000000e+00 2.358167e+00
    endloop
  endfacet
  facet normal -4.713967e-01 -2.349910e-16 -8.819213e-01
    outer loop
      vertex   1.637381e+01 -5.000000e+00 2.358167e+00
      vertex   1.585515e+01 0.000000e+00 2.635397e+00
      vertex   1.637381e+01 0.000000e+00 2.358167e+00
    endloop
  endfacet
  facet normal -2.902847e-01 -2.549801e-16 -9.569403e-01
    outer loop
      vertex   1.637381e+01 -5.000000e+00 2.358167e+00
      vertex   1.637381e+01 0.000000e+00 2.358167e+00
      vertex   1.693659e+01 -5.000000e+00 2.187450e+00
    endloop
  endfacet
  facet normal -2.902847e-01 0.000000e+00 -9.569403e-01
    outer loop
      vertex   1.693659e+01 -5.000000e+00 2.187450e+00
      vertex   1.637381e+01 0.000000e+00 2.358167e+00
      vertex   1.693659e+01 0.000000e+00 2.187450e+00
    endloop
  endfacet
  facet normal -9.801714e-02 0.000000e+00 -9.951847e-01
    outer loop
      vertex   1.693659e+01 -5.000000e+00 2.187450e+00
      vertex   1.693659e+01 0.000000e+00 2.187450e+00
      vertex   1.752186e+01 -5.000000e+00 2.129806e+00
    endloop
  endfacet
  facet normal -9.801714e-02 0.000000e+00 -9.951847e-01
    outer loop
      vertex   1.752186e+01 -5.000000e+00 2.129806e+00
      vertex   1.693659e+01 0.000000e+00 2.187450e+00
      vertex   1.752186e+01 0.000000e+00 2.129806e+00
    endloop
  endfacet
  facet normal 9.801714e-02 0.000000e+00 -9.951847e-01
    outer loop
      vertex   1.752186e+01 -5.000000e+00 2.129806e+00
      vertex   1.752186e+01 0.000000e+00 2.129806e+00
      vertex   1.810713e+01 -5.000000e+00 2.187450e+00
    endloop
  endfacet
  facet normal 9.801714e-02 0.000000e+00 -9.951847e-01
    outer loop
      vertex   1.810713e+01 -5.000000e+00 2.187450e+00
      vertex   1.752186e+01 0.000000e+00 2.129806e+00
      vertex   1.810713e+01 0.000000e+00 2.187450e+00
    endloop
  endfacet
  facet normal 2.902847e-01 0.000000e+00 -9.569403e-01
    outer loop
      vertex   1.810713e+01 -5.000000e+00 2.187450e+00
      vertex   1.810713e+01 0.000000e+00 2.187450e+00
      vertex   1.866991e+01 -5.000000e+00 2.358167e+00
    endloop
  endfacet
  facet normal 2.902847e-01 1.212663e-16 -9.569403e-01
    outer loop
      vertex   1.866991e+01 -5.000000e+00 2.358167e+00
      vertex   1.810713e+01 0.000000e+00 2.187450e+00
      vertex   1.866991e+01 0.000000e+00 2.358167e+00
    endloop
  endfacet
  facet normal 4.713967e-01 2.566172e-16 -8.819213e-01
    outer loop
      vertex   1.866991e+01 -5.000000e+00 2.358167e+00
      vertex   1.866991e+01 0.000000e+00 2.358167e+00
      vertex   1.918857e+01 -5.000000e+00 2.635397e+00
    endloop
  endfacet
  facet normal 4.713967e-01 0.000000e+00 -8.819213e-01
    outer loop
      vertex   1.918857e+01 -5.000000e+00 2.635397e+00
      vertex   1.866991e+01 0.000000e+00 2.358167e+00
      vertex   1.918857e+01 0.000000e+00 2.635397e+00
    endloop
  endfacet
  facet normal 6.343933e-01 0.000000e+00 -7.730105e-01
    outer loop
      vertex   1.918857e+01 -5.000000e+00 2.635397e+00
      vertex   1.918857e+01 0.000000e+00 2.635397e+00
      vertex   1.964318e+01 -5.000000e+00 3.008486e+00
    endloop
  endfacet
  facet normal 6.343933e-01 0.000000e+00 -7.730105e-01
    outer loop
      vertex   1.964318e+01 -5.000000e+00 3.008486e+00
      vertex   1.918857e+01 0.000000e+00 2.635397e+00
      vertex   1.964318e+01 0.000000e+00 3.008486e+00
    endloop
  endfacet
  facet normal 7.730105e-01 0.000000e+00 -6.343933e-01
    outer loop
      vertex   1.964318e+01 -5.000000e+00 3.008486e+00
      vertex   1.964318e+01 0.000000e+00 3.008486e+00
      vertex   2.001627e+01 -5.000000e+00 3.463095e+00
    endloop
  endfacet
  facet normal 7.730105e-01 0.000000e+00 -6.343933e-01
    outer loop
      vertex   2.001627e+01 -5.000000e+00 3.463095e+00
      vertex   1.964318e+01 0.000000e+00 3.008486e+00
      vertex   2.001627e+01 0.000000e+00 3.463095e+00
    endloop
  endfacet
  facet normal 8.819213e-01 0.000000e+00 -4.713967e-01
    outer loop
      vertex   2.001627e+01 -5.000000e+00 3.463095e+00
      vertex   2.001627e+01 0.000000e+00 3.463095e+00
      vertex   2.029350e+01 -5.000000e+00 3.981756e+00
    endloop
  endfacet
  facet normal 8.819213e-01 8.373688e-17 -4.713967e-01
    outer loop
      vertex   2.029350e+01 -5.000000e+00 3.981756e+00
      vertex   2.001627e+01 0.000000e+00 3.463095e+00
      vertex   2.029350e+01 0.000000e+00 3.981756e+00
    endloop
  endfacet
  facet normal 9.569403e-01 5.156492e-17 -2.902847e-01
    outer loop
      vertex   2.029350e+01 -5.000000e+00 3.981756e+00
      vertex   2.029350e+01 0.000000e+00 3.981756e+00
      vertex   2.046422e+01 -5.000000e+00 4.544535e+00
    endloop
  endfacet
  facet normal 9.569403e-01 0.000000e+00 -2.902847e-01
    outer loop
      vertex   2.046422e+01 -5.000000e+00 4.544535e+00
      vertex   2.029350e+01 0.000000e+00 3.981756e+00
      vertex   2.046422e+01 0.000000e+00 4.544535e+00
    endloop
  endfacet
  facet normal -0.000000e+00 -1.000000e+00 0.000000e+00
    outer loop
      vertex   2.052186e+01 -5.000000e+00 5.129806e+00
      vertex   2.046422e+01 -5.000000e+00 5.715077e+00
      vertex   2.046422e+01 -5.000000e+00 4.544535e+00
    endloop
  endfacet
  facet normal -0.000000e+00 -1.000000e+00 0.000000e+00
    outer loop
      vertex   2.046422e+01 -5.000000e+00 4.544535e+00
      vertex   2.046422e+01 -5.000000e+00 5.715077e+00
      vertex   2.029350e+01 -5.000000e+00 3.981756e+00
    endloop
  endfacet
  facet normal 0.000000e+00 -1.000000e+00 0.000000e+00
    outer loop
      vertex   2.029350e+01 -5.000000e+00 3.981756e+00
      vertex   2.046422e+01 -5.000000e+00 5.715077e+00
      vertex   2.029350e+01 -5.000000e+00 6.277856e+00
    endloop
  endfacet
  facet normal -0.000000e+00 -1.000000e+00 0.000000e+00
    outer loop
      vertex   2.029350e+01 -5.000000e+00 3.981756e+00
      vertex   2.029350e+01 -5.000000e+00 6.277856e+00
      vertex   2.001627e+01 -5.000000e+00 3.463095e+00
    endloop
  endfacet
  facet normal 0.000000e+00 -1.000000e+00 0.000000e+00
    outer loop
      vertex   2.001627e+01 -5.000000e+00 3.463095e+00
      vertex   2.029350e+01 -5.000000e+00 6.277856e+00
      vertex   2.001627e+01 -5.000000e+00 6.796517e+00
    endloop
  endfacet
  facet normal -0.000000e+00 -1.000000e+00 0.000000e+00
    outer loop
      vertex   2.001627e+01 -5.000000e+00 3.463095e+00
      vertex   2.001627e+01 -5.000000e+00 6.796517e+00
      vertex   1.964318e+01 -5.000000e+00 3.008486e+00
    endloop
  endfacet
  facet normal 0.000000e+00 -1.000000e+00 0.000000e+00
    outer loop
      vertex   1.964318e+01 -5.000000e+00 3.008486e+00
      vertex   2.001627e+01 -5.000000e+00 6.796517e+00
      vertex   1.964318e+01 -5.000000e+00 7.251126e+00
    endloop
  endfacet
  facet normal -0.000000e+00 -1.000000e+00 0.000000e+00
    outer loop
      vertex   1.964318e+01 -5.000000e+00 3.008486e+00
      vertex   1.964318e+01 -5.000000e+00 7.251126e+00
      vertex   1.918857e+01 -5.000000e+00 2.635397e+00
    endloop
  endfacet
  facet normal 0.000000e+00 -1.000000e+00 0.000000e+00
    outer loop
      vertex   1.918857e+01 -5.000000e+00 2.635397e+00
      vertex   1.964318e+01 -5.000000e+00 7.251126e+00
      vertex   1.918857e+01 -5.000000e+00 7.624215e+00
    endloop
  endfacet
  facet normal -0.000000e+00 -1.000000e+00 0.000000e+00
    outer loop
      vertex   1.918857e+01 -5.000000e+00 2.635397e+00
      vertex   1.918857e+01 -5.000000e+00 7.624215e+00
      vertex   1.866991e+01 -5.000000e+00 2.358167e+00
    endloop
  endfacet
  facet normal 0.000000e+00 -1.000000e+00 0.000000e+00
    outer loop
      vertex   1.866991e+01 -5.000000e+00 2.358167e+00
      vertex   1.918857e+01 -5.000000e+00 7.624215e+00
      vertex   1.866991e+01 -5.000000e+00 7.901445e+00
    endloop
  endfacet
  facet normal -0.000000e+00 -1.000000e+00 0.000000e+00
    outer loop
      vertex   1.866991e+01 -5.000000e+00 2.358167e+00
      vertex   1.866991e+01 -5.000000e+00 7.901445e+00
      vertex   1.810713e+01 -5.000000e+00 2.187450e+00
    endloop
  endfacet
  facet normal 0.000000e+00 -1.000000e+00 0.000000e+00
    outer loop
      vertex   1.810713e+01 -5.000000e+00 2.187450e+00
      vertex   1.866991e+01 -5.000000e+00 7.901445e+00
      vertex   1.810713e+01 -5.000000e+00 8.072162e+00
    endloop
  endfacet
  facet normal -0.000000e+00 -1.000000e+00 0.000000e+00
    outer loop
      vertex   1.810713e+01 -5.000000e+00 2.187450e+00
      vertex   1.810713e+01 -5.000000e+00 8.072162e+00
      vertex   1.752186e+01 -5.000000e+00 2.129806e+00
    endloop
  endfacet
  facet normal 0.000000e+00 -1.000000e+00 0.000000e+00
    outer loop
      vertex   1.752186e+01 -5.000000e+00 2.129806e+00
      vertex   1.810713e+01 -5.000000e+00 8.072162e+00
      vertex   1.752186e+01 -5.000000e+00 8.129806e+00
    endloop
  endfacet
  facet normal 0.000000e+00 -1.000000e+00 0.000000e+00
    outer loop
      vertex   1.752186e+01 -5.000000e+00 2.129806e+00
      vertex   1.752186e+01 -5.000000e+00 8.129806e+00
      vertex   1.693659e+01 -5.000000e+00 2.187450e+00
    endloop
  endfacet
  facet normal 0.000000e+00 -1.000000e+00 0.000000e+00
    outer loop
      vertex   1.693659e+01 -5.000000e+00 2.187450e+00
      vertex   1.752186e+01 -5.000000e+00 8.129806e+00
      vertex   1.693659e+01 -5.000000e+00 8.072162e+00
    endloop
  endfacet
  facet normal 0.000000e+00 -1.000000e+00 0.000000e+00
    outer loop
      vertex   1.693659e+01 -5.000000e+00 2.187450e+00
      vertex   1.693659e+01 -5.000000e+00 8.072162e+00
      vertex   1.637381e+01 -5.000000e+00 2.358167e+00
    endloop
  endfacet
  facet normal 0.000000e+00 -1.000000e+00 0.000000e+00
    outer loop
      vertex   1.637381e+01 -5.000000e+00 2.358167e+00
      vertex   1.693659e+01 -5.000000e+00 8.072162e+00
      vertex   1.637381e+01 -5.000000e+00 7.901445e+00
    endloop
  endfacet
  facet normal 0.000000e+00 -1.000000e+00 0.000000e+00
    outer loop
      vertex   1.637381e+01 -5.000000e+00 2.358167e+00
      vertex   1.637381e+01 -5.000000e+00 7.901445e+00
      vertex   1.585515e+01 -5.000000e+00 2.635397e+00
    endloop
  endfacet
  facet normal 0.000000e+00 -1.000000e+00 0.000000e+00
    outer loop
      vertex   1.585515e+01 -5.000000e+00 2.635397e+00
      vertex   1.637381e+01 -5.000000e+00 7.901445e+00
      vertex   1.585515e+01 -5.000000e+00 7.624215e+00
    endloop
  endfacet
  facet normal 0.000000e+00 -1.000000e+00 0.000000e+00
    outer loop
      vertex   1.585515e+01 -5.000000e+00 2.635397e+00
      vertex   1.585515e+01 -5.000000e+00 7.624215e+00
      vertex   1.540054e+01 -5.000000e+00 3.008486e+00
    endloop
  endfacet
  facet normal 0.000000e+00 -1.000000e+00 0.000000e+00
    outer loop
      vertex   1.540054e+01 -5.000000e+00 3.008486e+00
      vertex   1.585515e+01 -5.000000e+00 7.624215e+00
      vertex   1.540054e+01 -5.000000e+00 7.251126e+00
    endloop
  endfacet
  facet normal 0.000000e+00 -1.000000e+00 0.000000e+00
    outer loop
      vertex   1.540054e+01 -5.000000e+00 3.008486e+00
      vertex   1.540054e+01 -5.000000e+00 7.251126e+00
      vertex   1.502745e+01 -5.000000e+00 3.463095e+00
    endloop
  endfacet
  facet normal 0.000000e+00 -1.000000e+00 0.000000e+00
    outer loop
      vertex   1.502745e+01 -5.000000e+00 3.463095e+00
      vertex   1.540054e+01 -5.000000e+00 7.251126e+00
      vertex   1.502745e+01 -5.000000e+00 6.796517e+00
    endloop
  endfacet
  facet normal 0.000000e+00 -1.000000e+00 0.000000e+00
    outer loop
      vertex   1.502745e+01 -5.000000e+00 3.463095e+00
      vertex   1.502745e+01 -5.000000e+00 6.796517e+00
      vertex   1.475022e+01 -5.000000e+00 3.981756e+00
    endloop
  endfacet
  facet normal 0.000000e+00 -1.000000e+00 0.000000e+00
    outer loop
      vertex   1.475022e+01 -5.000000e+00 3.981756e+00
      vertex   1.502745e+01 -5.000000e+00 6.796517e+00
      vertex   1.475022e+01 -5.000000e+00 6.277856e+00
    endloop
  endfacet
  facet normal 0.000000e+00 -1.000000e+00 0.000000e+00
    outer loop
      vertex   1.475022e+01 -5.000000e+00 3.981756e+00
      vertex   1.475022e+01 -5.000000e+00 6.277856e+00
      vertex   1.457951e+01 -5.000000e+00 4.544535e+00
    endloop
  endfacet
  facet normal 0.000000e+00 -1.000000e+00 0.000000e+00
    outer loop
      vertex   1.457951e+01 -5.000000e+00 4.544535e+00
      vertex   1.475022e+01 -5.000000e+00 6.277856e+00
      vertex   1.457951e+01 -5.000000e+00 5.715077e+00
    endloop
  endfacet
  facet normal 0.000000e+00 -1.000000e+00 0.000000e+00
    outer loop
      vertex   1.457951e+01 -5.000000e+00 4.544535e+00
      vertex   1.457951e+01 -5.000000e+00 5.715077e+00
      vertex   1.452186e+01 -5.000000e+00 5.129806e+00
    endloop
  endfacet
  facet normal 9.954719e-01 0.000000e+00 9.505604e-02
    outer loop
      vertex   8.955135e+00 2.100000e+01 5.583251e+00
      vertex   8.955135e+00 1.500000e+01 5.583251e+00
      vertex   9.012082e+00 2.100000e+01 4.986880e+00
    endloop
  endfacet
  facet normal 9.954719e-01 0.000000e+00 9.505604e-02
    outer loop
      vertex   9.012082e+00 2.100000e+01 4.986880e+00
      vertex   8.955135e+00 1.500000e+01 5.583251e+00
      vertex   9.012082e+00 1.500000e+01 4.986880e+00
    endloop
  endfacet
  facet normal 9.954719e-01 0.000000e+00 -9.505604e-02
    outer loop
      vertex   9.012082e+00 2.100000e+01 4.986880e+00
      vertex   9.012082e+00 1.500000e+01 4.986880e+00
      vertex   8.955135e+00 2.100000e+01 4.390509e+00
    endloop
  endfacet
  facet normal 9.954719e-01 0.000000e+00 -9.505604e-02
    outer loop
      vertex   8.955135e+00 2.100000e+01 4.390509e+00
      vertex   9.012082e+00 1.500000e+01 4.986880e+00
      vertex   8.955135e+00 1.500000e+01 4.390509e+00
    endloop
  endfacet
  facet normal 9.594930e-01 0.000000e+00 -2.817326e-01
    outer loop
      vertex   8.955135e+00 2.100000e+01 4.390509e+00
      vertex   8.955135e+00 1.500000e+01 4.390509e+00
      vertex   8.786354e+00 2.100000e+01 3.815692e+00
    endloop
  endfacet
  facet normal 9.594930e-01 -2.423622e-16 -2.817326e-01
    outer loop
      vertex   8.786354e+00 2.100000e+01 3.815692e+00
      vertex   8.955135e+00 1.500000e+01 4.390509e+00
      vertex   8.786354e+00 1.500000e+01 3.815692e+00
    endloop
  endfacet
  facet normal 8.888354e-01 -1.953170e-16 -4.582265e-01
    outer loop
      vertex   8.786354e+00 2.100000e+01 3.815692e+00
      vertex   8.786354e+00 1.500000e+01 3.815692e+00
      vertex   8.511838e+00 2.100000e+01 3.283205e+00
    endloop
  endfacet
  facet normal 8.888354e-01 6.783115e-17 -4.582265e-01
    outer loop
      vertex   8.511838e+00 2.100000e+01 3.283205e+00
      vertex   8.786354e+00 1.500000e+01 3.815692e+00
      vertex   8.511838e+00 1.500000e+01 3.283205e+00
    endloop
  endfacet
  facet normal 7.860531e-01 9.150591e-17 -6.181590e-01
    outer loop
      vertex   8.511838e+00 2.100000e+01 3.283205e+00
      vertex   8.511838e+00 1.500000e+01 3.283205e+00
      vertex   8.141509e+00 2.100000e+01 2.812294e+00
    endloop
  endfacet
  facet normal 7.860531e-01 0.000000e+00 -6.181590e-01
    outer loop
      vertex   8.141509e+00 2.100000e+01 2.812294e+00
      vertex   8.511838e+00 1.500000e+01 3.283205e+00
      vertex   8.141509e+00 1.500000e+01 2.812294e+00
    endloop
  endfacet
  facet normal 6.548607e-01 0.000000e+00 -7.557496e-01
    outer loop
      vertex   8.141509e+00 2.100000e+01 2.812294e+00
      vertex   8.141509e+00 1.500000e+01 2.812294e+00
      vertex   7.688752e+00 2.100000e+01 2.419977e+00
    endloop
  endfacet
  facet normal 6.548607e-01 0.000000e+00 -7.557496e-01
    outer loop
      vertex   7.688752e+00 2.100000e+01 2.419977e+00
      vertex   8.141509e+00 1.500000e+01 2.812294e+00
      vertex   7.688752e+00 1.500000e+01 2.419977e+00
    endloop
  endfacet
  facet normal 5.000000e-01 0.000000e+00 -8.660254e-01
    outer loop
      vertex   7.688752e+00 2.100000e+01 2.419977e+00
      vertex   7.688752e+00 1.500000e+01 2.419977e+00
      vertex   7.169930e+00 2.100000e+01 2.120436e+00
    endloop
  endfacet
  facet normal 5.000000e-01 0.000000e+00 -8.660254e-01
    outer loop
      vertex   7.169930e+00 2.100000e+01 2.120436e+00
      vertex   7.688752e+00 1.500000e+01 2.419977e+00
      vertex   7.169930e+00 1.500000e+01 2.120436e+00
    endloop
  endfacet
  facet normal 3.270680e-01 0.000000e+00 -9.450008e-01
    outer loop
      vertex   7.169930e+00 2.100000e+01 2.120436e+00
      vertex   7.169930e+00 1.500000e+01 2.120436e+00
      vertex   6.603795e+00 2.100000e+01 1.924495e+00
    endloop
  endfacet
  facet normal 3.270680e-01 5.650038e-17 -9.450008e-01
    outer loop
      vertex   6.603795e+00 2.100000e+01 1.924495e+00
      vertex   7.169930e+00 1.500000e+01 2.120436e+00
      vertex   6.603795e+00 1.500000e+01 1.924495e+00
    endloop
  endfacet
  facet normal 1.423148e-01 8.882543e-17 -9.898214e-01
    outer loop
      vertex   6.603795e+00 2.100000e+01 1.924495e+00
      vertex   6.603795e+00 1.500000e+01 1.924495e+00
      vertex   6.010809e+00 2.100000e+01 1.839236e+00
    endloop
  endfacet
  facet normal 1.423148e-01 2.106683e-17 -9.898214e-01
    outer loop
      vertex   6.010809e+00 2.100000e+01 1.839236e+00
      vertex   6.603795e+00 1.500000e+01 1.924495e+00
      vertex   6.010809e+00 1.500000e+01 1.839236e+00
    endloop
  endfacet
  facet normal -4.758192e-02 -7.043538e-18 -9.988673e-01
    outer loop
      vertex   6.010809e+00 2.100000e+01 1.839236e+00
      vertex   6.010809e+00 1.500000e+01 1.839236e+00
      vertex   5.412404e+00 2.100000e+01 1.867742e+00
    endloop
  endfacet
  facet normal -4.758192e-02 -0.000000e+00 -9.988673e-01
    outer loop
      vertex   5.412404e+00 2.100000e+01 1.867742e+00
      vertex   6.010809e+00 1.500000e+01 1.839236e+00
      vertex   5.412404e+00 1.500000e+01 1.867742e+00
    endloop
  endfacet
  facet normal -2.357589e-01 -0.000000e+00 -9.718116e-01
    outer loop
      vertex   5.412404e+00 2.100000e+01 1.867742e+00
      vertex   5.412404e+00 1.500000e+01 1.867742e+00
      vertex   4.830208e+00 2.100000e+01 2.008981e+00
    endloop
  endfacet
  facet normal -2.357589e-01 3.489933e-17 -9.718116e-01
    outer loop
      vertex   4.830208e+00 2.100000e+01 2.008981e+00
      vertex   5.412404e+00 1.500000e+01 1.867742e+00
      vertex   4.830208e+00 1.500000e+01 2.008981e+00
    endloop
  endfacet
  facet normal -4.154150e-01 6.149377e-17 -9.096320e-01
    outer loop
      vertex   4.830208e+00 2.100000e+01 2.008981e+00
      vertex   4.830208e+00 1.500000e+01 2.008981e+00
      vertex   4.285262e+00 2.100000e+01 2.257849e+00
    endloop
  endfacet
  facet normal -4.154150e-01 5.566126e-17 -9.096320e-01
    outer loop
      vertex   4.285262e+00 2.100000e+01 2.257849e+00
      vertex   4.830208e+00 1.500000e+01 2.008981e+00
      vertex   4.285262e+00 1.500000e+01 2.257849e+00
    endloop
  endfacet
  facet normal -5.800569e-01 1.114406e-16 -8.145760e-01
    outer loop
      vertex   4.285262e+00 2.100000e+01 2.257849e+00
      vertex   4.285262e+00 1.500000e+01 2.257849e+00
      vertex   3.797263e+00 2.100000e+01 2.605352e+00
    endloop
  endfacet
  facet normal -5.800569e-01 -0.000000e+00 -8.145760e-01
    outer loop
      vertex   3.797263e+00 2.100000e+01 2.605352e+00
      vertex   4.285262e+00 1.500000e+01 2.257849e+00
      vertex   3.797263e+00 1.500000e+01 2.605352e+00
    endloop
  endfacet
  facet normal -7.237340e-01 -0.000000e+00 -6.900790e-01
    outer loop
      vertex   3.797263e+00 2.100000e+01 2.605352e+00
      vertex   3.797263e+00 1.500000e+01 2.605352e+00
      vertex   3.383848e+00 2.100000e+01 3.038929e+00
    endloop
  endfacet
  facet normal -7.237340e-01 -1.532283e-16 -6.900790e-01
    outer loop
      vertex   3.383848e+00 2.100000e+01 3.038929e+00
      vertex   3.797263e+00 1.500000e+01 2.605352e+00
      vertex   3.383848e+00 1.500000e+01 3.038929e+00
    endloop
  endfacet
  facet normal -8.412535e-01 -1.200464e-16 -5.406408e-01
    outer loop
      vertex   3.383848e+00 2.100000e+01 3.038929e+00
      vertex   3.383848e+00 1.500000e+01 3.038929e+00
      vertex   3.059959e+00 2.100000e+01 3.542910e+00
    endloop
  endfacet
  facet normal -8.412535e-01 -0.000000e+00 -5.406408e-01
    outer loop
      vertex   3.059959e+00 2.100000e+01 3.542910e+00
      vertex   3.383848e+00 1.500000e+01 3.038929e+00
      vertex   3.059959e+00 1.500000e+01 3.542910e+00
    endloop
  endfacet
  facet normal -9.283679e-01 -0.000000e+00 -3.716625e-01
    outer loop
      vertex   3.059959e+00 2.100000e+01 3.542910e+00
      vertex   3.059959e+00 1.500000e+01 3.542910e+00
      vertex   2.837302e+00 2.100000e+01 4.099080e+00
    endloop
  endfacet
  facet normal -9.283679e-01 -4.132116e-17 -3.716625e-01
    outer loop
      vertex   2.837302e+00 2.100000e+01 4.099080e+00
      vertex   3.059959e+00 1.500000e+01 3.542910e+00
      vertex   2.837302e+00 1.500000e+01 4.099080e+00
    endloop
  endfacet
  facet normal -9.819287e-01 1.664770e-17 -1.892512e-01
    outer loop
      vertex   2.837302e+00 2.100000e+01 4.099080e+00
      vertex   2.837302e+00 1.500000e+01 4.099080e+00
      vertex   2.723925e+00 2.100000e+01 4.687338e+00
    endloop
  endfacet
  facet normal -9.819287e-01 -0.000000e+00 -1.892512e-01
    outer loop
      vertex   2.723925e+00 2.100000e+01 4.687338e+00
      vertex   2.837302e+00 1.500000e+01 4.099080e+00
      vertex   2.723925e+00 1.500000e+01 4.687338e+00
    endloop
  endfacet
  facet normal -1.000000e+00 0.000000e+00 0.000000e+00
    outer loop
      vertex   2.723925e+00 2.100000e+01 4.687338e+00
      vertex   2.723925e+00 1.500000e+01 4.687338e+00
      vertex   2.723925e+00 2.100000e+01 5.286422e+00
    endloop
  endfacet
  facet normal -1.000000e+00 -0.000000e+00 0.000000e+00
    outer loop
      vertex   2.723925e+00 2.100000e+01 5.286422e+00
      vertex   2.723925e+00 1.500000e+01 4.687338e+00
      vertex   2.723925e+00 1.500000e+01 5.286422e+00
    endloop
  endfacet
  facet normal -9.819287e-01 0.000000e+00 1.892512e-01
    outer loop
      vertex   2.723925e+00 2.100000e+01 5.286422e+00
      vertex   2.723925e+00 1.500000e+01 5.286422e+00
      vertex   2.837302e+00 2.100000e+01 5.874679e+00
    endloop
  endfacet
  facet normal -9.819287e-01 -4.466251e-17 1.892512e-01
    outer loop
      vertex   2.837302e+00 2.100000e+01 5.874679e+00
      vertex   2.723925e+00 1.500000e+01 5.286422e+00
      vertex   2.837302e+00 1.500000e+01 5.874679e+00
    endloop
  endfacet
  facet normal -9.283679e-01 -1.369593e-17 3.716625e-01
    outer loop
      vertex   2.837302e+00 2.100000e+01 5.874679e+00
      vertex   2.837302e+00 1.500000e+01 5.874679e+00
      vertex   3.059959e+00 2.100000e+01 6.430849e+00
    endloop
  endfacet
  facet normal -9.283679e-01 0.000000e+00 3.716625e-01
    outer loop
      vertex   3.059959e+00 2.100000e+01 6.430849e+00
      vertex   2.837302e+00 1.500000e+01 5.874679e+00
      vertex   3.059959e+00 1.500000e+01 6.430849e+00
    endloop
  endfacet
  facet normal -8.412535e-01 0.000000e+00 5.406408e-01
    outer loop
      vertex   3.059959e+00 2.100000e+01 6.430849e+00
      vertex   3.059959e+00 1.500000e+01 6.430849e+00
      vertex   3.383848e+00 2.100000e+01 6.934830e+00
    endloop
  endfacet
  facet normal -8.412535e-01 8.003092e-17 5.406408e-01
    outer loop
      vertex   3.383848e+00 2.100000e+01 6.934830e+00
      vertex   3.059959e+00 1.500000e+01 6.430849e+00
      vertex   3.383848e+00 1.500000e+01 6.934830e+00
    endloop
  endfacet
  facet normal -7.237340e-01 1.021522e-16 6.900790e-01
    outer loop
      vertex   3.383848e+00 2.100000e+01 6.934830e+00
      vertex   3.383848e+00 1.500000e+01 6.934830e+00
      vertex   3.797263e+00 2.100000e+01 7.368408e+00
    endloop
  endfacet
  facet normal -7.237340e-01 0.000000e+00 6.900790e-01
    outer loop
      vertex   3.797263e+00 2.100000e+01 7.368408e+00
      vertex   3.383848e+00 1.500000e+01 6.934830e+00
      vertex   3.797263e+00 1.500000e+01 7.368408e+00
    endloop
  endfacet
  facet normal -5.800569e-01 0.000000e+00 8.145760e-01
    outer loop
      vertex   3.797263e+00 2.100000e+01 7.368408e+00
      vertex   3.797263e+00 1.500000e+01 7.368408e+00
      vertex   4.285262e+00 2.100000e+01 7.715910e+00
    endloop
  endfacet
  facet normal -5.800569e-01 6.943158e-17 8.145760e-01
    outer loop
      vertex   4.285262e+00 2.100000e+01 7.715910e+00
      vertex   3.797263e+00 1.500000e+01 7.368408e+00
      vertex   4.285262e+00 1.500000e+01 7.715910e+00
    endloop
  endfacet
  facet normal -4.154150e-01 1.463176e-16 9.096320e-01
    outer loop
      vertex   4.285262e+00 2.100000e+01 7.715910e+00
      vertex   4.285262e+00 1.500000e+01 7.715910e+00
      vertex   4.830208e+00 2.100000e+01 7.964779e+00
    endloop
  endfacet
  facet normal -4.154150e-01 -6.149377e-17 9.096320e-01
    outer loop
      vertex   4.830208e+00 2.100000e+01 7.964779e+00
      vertex   4.285262e+00 1.500000e+01 7.715910e+00
      vertex   4.830208e+00 1.500000e+01 7.964779e+00
    endloop
  endfacet
  facet normal -2.357589e-01 -3.489933e-17 9.718116e-01
    outer loop
      vertex   4.830208e+00 2.100000e+01 7.964779e+00
      vertex   4.830208e+00 1.500000e+01 7.964779e+00
      vertex   5.412404e+00 2.100000e+01 8.106018e+00
    endloop
  endfacet
  facet normal -2.357589e-01 0.000000e+00 9.718116e-01
    outer loop
      vertex   5.412404e+00 2.100000e+01 8.106018e+00
      vertex   4.830208e+00 1.500000e+01 7.964779e+00
      vertex   5.412404e+00 1.500000e+01 8.106018e+00
    endloop
  endfacet
  facet normal -4.758192e-02 0.000000e+00 9.988673e-01
    outer loop
      vertex   5.412404e+00 2.100000e+01 8.106018e+00
      vertex   5.412404e+00 1.500000e+01 8.106018e+00
      vertex   6.010809e+00 2.100000e+01 8.134523e+00
    endloop
  endfacet
  facet normal -4.758192e-02 7.043538e-18 9.988673e-01
    outer loop
      vertex   6.010809e+00 2.100000e+01 8.134523e+00
      vertex   5.412404e+00 1.500000e+01 8.106018e+00
      vertex   6.010809e+00 1.500000e+01 8.134523e+00
    endloop
  endfacet
  facet normal 1.423148e-01 -2.106683e-17 9.898214e-01
    outer loop
      vertex   6.010809e+00 2.100000e+01 8.134523e+00
      vertex   6.010809e+00 1.500000e+01 8.134523e+00
      vertex   6.603795e+00 2.100000e+01 8.049265e+00
    endloop
  endfacet
  facet normal 1.423148e-01 -2.719792e-16 9.898214e-01
    outer loop
      vertex   6.603795e+00 2.100000e+01 8.049265e+00
      vertex   6.010809e+00 1.500000e+01 8.134523e+00
      vertex   6.603795e+00 1.500000e+01 8.049265e+00
    endloop
  endfacet
  facet normal 3.270680e-01 -2.313607e-16 9.450008e-01
    outer loop
      vertex   6.603795e+00 2.100000e+01 8.049265e+00
      vertex   6.603795e+00 1.500000e+01 8.049265e+00
      vertex   7.169930e+00 2.100000e+01 7.853324e+00
    endloop
  endfacet
  facet normal 3.270680e-01 0.000000e+00 9.450008e-01
    outer loop
      vertex   7.169930e+00 2.100000e+01 7.853324e+00
      vertex   6.603795e+00 1.500000e+01 8.049265e+00
      vertex   7.169930e+00 1.500000e+01 7.853324e+00
    endloop
  endfacet
  facet normal 5.000000e-01 0.000000e+00 8.660254e-01
    outer loop
      vertex   7.169930e+00 2.100000e+01 7.853324e+00
      vertex   7.169930e+00 1.500000e+01 7.853324e+00
      vertex   7.688752e+00 2.100000e+01 7.553782e+00
    endloop
  endfacet
  facet normal 5.000000e-01 0.000000e+00 8.660254e-01
    outer loop
      vertex   7.688752e+00 2.100000e+01 7.553782e+00
      vertex   7.169930e+00 1.500000e+01 7.853324e+00
      vertex   7.688752e+00 1.500000e+01 7.553782e+00
    endloop
  endfacet
  facet normal 6.548607e-01 0.000000e+00 7.557496e-01
    outer loop
      vertex   7.688752e+00 2.100000e+01 7.553782e+00
      vertex   7.688752e+00 1.500000e+01 7.553782e+00
      vertex   8.141509e+00 2.100000e+01 7.161466e+00
    endloop
  endfacet
  facet normal 6.548607e-01 0.000000e+00 7.557496e-01
    outer loop
      vertex   8.141509e+00 2.100000e+01 7.161466e+00
      vertex   7.688752e+00 1.500000e+01 7.553782e+00
      vertex   8.141509e+00 1.500000e+01 7.161466e+00
    endloop
  endfacet
  facet normal 7.860531e-01 0.000000e+00 6.181590e-01
    outer loop
      vertex   8.141509e+00 2.100000e+01 7.161466e+00
      vertex   8.141509e+00 1.500000e+01 7.161466e+00
      vertex   8.511838e+00 2.100000e+01 6.690554e+00
    endloop
  endfacet
  facet normal 7.860531e-01 0.000000e+00 6.181590e-01
    outer loop
      vertex   8.511838e+00 2.100000e+01 6.690554e+00
      vertex   8.141509e+00 1.500000e+01 7.161466e+00
      vertex   8.511838e+00 1.500000e+01 6.690554e+00
    endloop
  endfacet
  facet normal 8.888354e-01 0.000000e+00 4.582265e-01
    outer loop
      vertex   8.511838e+00 2.100000e+01 6.690554e+00
      vertex   8.511838e+00 1.500000e+01 6.690554e+00
      vertex   8.786354e+00 2.100000e+01 6.158067e+00
    endloop
  endfacet
  facet normal 8.888354e-01 1.953170e-16 4.582265e-01
    outer loop
      vertex   8.786354e+00 2.100000e+01 6.158067e+00
      vertex   8.511838e+00 1.500000e+01 6.690554e+00
      vertex   8.786354e+00 1.500000e+01 6.158067e+00
    endloop
  endfacet
  facet normal 9.594930e-01 2.423622e-16 2.817326e-01
    outer loop
      vertex   8.786354e+00 2.100000e+01 6.158067e+00
      vertex   8.786354e+00 1.500000e+01 6.158067e+00
      vertex   8.955135e+00 2.100000e+01 5.583251e+00
    endloop
  endfacet
  facet normal 9.594930e-01 0.000000e+00 2.817326e-01
    outer loop
      vertex   8.955135e+00 2.100000e+01 5.583251e+00
      vertex   8.786354e+00 1.500000e+01 6.158067e+00
      vertex   8.955135e+00 1.500000e+01 5.583251e+00
    endloop
  endfacet
  facet normal 0.000000e+00 1.000000e+00 0.000000e+00
    outer loop
      vertex   9.012082e+00 2.100000e+01 4.986880e+00
      vertex   8.955135e+00 2.100000e+01 4.390509e+00
      vertex   8.955135e+00 2.100000e+01 5.583251e+00
    endloop
  endfacet
  facet normal 0.000000e+00 1.000000e+00 0.000000e+00
    outer loop
      vertex   8.955135e+00 2.100000e+01 5.583251e+00
      vertex   8.955135e+00 2.100000e+01 4.390509e+00
      vertex   8.786354e+00 2.100000e+01 6.158067e+00
    endloop
  endfacet
  facet normal 0.000000e+00 1.000000e+00 0.000000e+00
    outer loop
      vertex   8.786354e+00 2.100000e+01 6.158067e+00
      vertex   8.955135e+00 2.100000e+01 4.390509e+00
      vertex   8.786354e+00 2.100000e+01 3.815692e+00
    endloop
  endfacet
  facet normal 0.000000e+00 1.000000e+00 0.000000e+00
    outer loop
      vertex   8.786354e+00 2.100000e+01 6.158067e+00
      vertex   8.786354e+00 2.100000e+01 3.815692e+00
      vertex   8.511838e+00 2.100000e+01 6.690554e+00
    endloop
  endfacet
  facet normal 0.000000e+00 1.000000e+00 0.000000e+00
    outer loop
      vertex   8.511838e+00 2.100000e+01 6.690554e+00
      vertex   8.786354e+00 2.100000e+01 3.815692e+00
      vertex   8.511838e+00 2.100000e+01 3.283205e+00
    endloop
  endfacet
  facet normal 0.000000e+00 1.000000e+00 0.000000e+00
    outer loop
      vertex   8.511838e+00 2.100000e+01 6.690554e+00
      vertex   8.511838e+00 2.100000e+01 3.283205e+00
      vertex   8.141509e+00 2.100000e+01 7.161466e+00
    endloop
  endfacet
  facet normal 0.000000e+00 1.000000e+00 0.000000e+00
    outer loop
      vertex   8.141509e+00 2.100000e+01 7.161466e+00
      vertex   8.511838e+00 2.100000e+01 3.283205e+00
      vertex   8.141509e+00 2.100000e+01 2.812294e+00
    endloop
  endfacet
  facet normal 0.000000e+00 1.000000e+00 0.000000e+00
    outer loop
      vertex   8.141509e+00 2.100000e+01 7.161466e+00
      vertex   8.141509e+00 2.100000e+01 2.812294e+00
      vertex   7.688752e+00 2.100000e+01 7.553782e+00
    endloop
  endfacet
  facet normal 0.000000e+00 1.000000e+00 0.000000e+00
    outer loop
      vertex   7.688752e+00 2.100000e+01 7.553782e+00
      vertex   8.141509e+00 2.100000e+01 2.812294e+00
      vertex   7.688752e+00 2.100000e+01 2.419977e+00
    endloop
  endfacet
  facet normal 0.000000e+00 1.000000e+00 0.000000e+00
    outer loop
      vertex   7.688752e+00 2.100000e+01 7.553782e+00
      vertex   7.688752e+00 2.100000e+01 2.419977e+00
      vertex   7.169930e+00 2.100000e+01 7.853324e+00
    endloop
  endfacet
  facet normal 0.000000e+00 1.000000e+00 0.000000e+00
    outer loop
      vertex   7.169930e+00 2.100000e+01 7.853324e+00
      vertex   7.688752e+00 2.100000e+01 2.419977e+00
      vertex   7.169930e+00 2.100000e+01 2.120436e+00
    endloop
  endfacet
  facet normal 0.000000e+00 1.000000e+00 0.000000e+00
    outer loop
      vertex   7.169930e+00 2.100000e+01 7.853324e+00
      vertex   7.169930e+00 2.100000e+01 2.120436e+00
      vertex   6.603795e+00 2.100000e+01 8.049265e+00
    endloop
  endfacet
  facet normal 0.000000e+00 1.000000e+00 0.000000e+00
    outer loop
      vertex   6.603795e+00 2.100000e+01 8.049265e+00
      vertex   7.169930e+00 2.100000e+01 2.120436e+00
      vertex   6.603795e+00 2.100000e+01 1.924495e+00
    endloop
  endfacet
  facet normal 0.000000e+00 1.000000e+00 0.000000e+00
    outer loop
      vertex   6.603795e+00 2.100000e+01 8.049265e+00
      vertex   6.603795e+00 2.100000e+01 1.924495e+00
      vertex   6.010809e+00 2.100000e+01 8.134523e+00
    endloop
  endfacet
  facet normal 0.000000e+00 1.000000e+00 0.000000e+00
    outer loop
      vertex   6.010809e+00 2.100000e+01 8.134523e+00
      vertex   6.603795e+00 2.100000e+01 1.924495e+00
      vertex   6.010809e+00 2.100000e+01 1.839236e+00
    endloop
  endfacet
  facet normal 0.000000e+00 1.000000e+00 0.000000e+00
    outer loop
      vertex   6.010809e+00 2.100000e+01 8.134523e+00
      vertex   6.010809e+00 2.100000e+01 1.839236e+00
      vertex   5.412404e+00 2.100000e+01 8.106018e+00
    endloop
  endfacet
  facet normal 0.000000e+00 1.000000e+00 0.000000e+00
    outer loop
      vertex   5.412404e+00 2.100000e+01 8.106018e+00
      vertex   6.010809e+00 2.100000e+01 1.839236e+00
      vertex   5.412404e+00 2.100000e+01 1.867742e+00
    endloop
  endfacet
  facet normal 0.000000e+00 1.000000e+00 0.000000e+00
    outer loop
      vertex   5.412404e+00 2.100000e+01 8.106018e+00
      vertex   5.412404e+00 2.100000e+01 1.867742e+00
      vertex   4.830208e+00 2.100000e+01 7.964779e+00
    endloop
  endfacet
  facet normal 0.000000e+00 1.000000e+00 0.000000e+00
    outer loop
      vertex   4.830208e+00 2.100000e+01 7.964779e+00
      vertex   5.412404e+00 2.100000e+01 1.867742e+00
      vertex   4.830208e+00 2.100000e+01 2.008981e+00
    endloop
  endfacet
  facet normal 0.000000e+00 1.000000e+00 0.000000e+00
    outer loop
      vertex   4.830208e+00 2.100000e+01 7.964779e+00
      vertex   4.830208e+00 2.100000e+01 2.008981e+00
      vertex   4.285262e+00 2.100000e+01 7.715910e+00
    endloop
  endfacet
  facet normal 0.000000e+00 1.000000e+00 0.000000e+00
    outer loop
      vertex   4.285262e+00 2.100000e+01 7.715910e+00
      vertex   4.830208e+00 2.100000e+01 2.008981e+00
      vertex   4.285262e+00 2.100000e+01 2.257849e+00
    endloop
  endfacet
  facet normal 0.000000e+00 1.000000e+00 0.000000e+00
    outer loop
      vertex   4.285262e+00 2.100000e+01 7.715910e+00
      vertex   4.285262e+00 2.100000e+01 2.257849e+00
      vertex   3.797263e+00 2.100000e+01 7.368408e+00
    endloop
  endfacet
  facet normal 0.000000e+00 1.000000e+00 0.000000e+00
    outer loop
      vertex   3.797263e+00 2.100000e+01 7.368408e+00
      vertex   4.285262e+00 2.100000e+01 2.257849e+00
      vertex   3.797263e+00 2.100000e+01 2.605352e+00
    endloop
  endfacet
  facet normal 0.000000e+00 1.000000e+00 0.000000e+00
    outer loop
      vertex   3.797263e+00 2.100000e+01 7.368408e+00
      vertex   3.797263e+00 2.100000e+01 2.605352e+00
      vertex   3.383848e+00 2.100000e+01 6.934830e+00
    endloop
  endfacet
  facet normal 0.000000e+00 1.000000e+00 0.000000e+00
    outer loop
      vertex   3.383848e+00 2.100000e+01 6.934830e+00
      vertex   3.797263e+00 2.100000e+01 2.605352e+00
      vertex   3.383848e+00 2.100000e+01 3.038929e+00
    endloop
  endfacet
  facet normal 0.000000e+00 1.000000e+00 0.000000e+00
    outer loop
      vertex   3.383848e+00 2.100000e+01 6.934830e+00
      vertex   3.383848e+00 2.100000e+01 3.038929e+00
      vertex   3.059959e+00 2.100000e+01 6.430849e+00
    endloop
  endfacet
  facet normal 0.000000e+00 1.000000e+00 0.000000e+00
    outer loop
      vertex   3.059959e+00 2.100000e+01 6.430849e+00
      vertex   3.383848e+00 2.100000e+01 3.038929e+00
      vertex   3.059959e+00 2.100000e+01 3.542910e+00
    endloop
  endfacet
  facet normal 0.000000e+00 1.000000e+00 0.000000e+00
    outer loop
      vertex   3.059959e+00 2.100000e+01 6.430849e+00
      vertex   3.059959e+00 2.100000e+01 3.542910e+00
      vertex   2.837302e+00 2.100000e+01 5.874679e+00
    endloop
  endfacet
  facet normal 0.000000e+00 1.000000e+00 0.000000e+00
    outer loop
      vertex   2.837302e+00 2.100000e+01 5.874679e+00
      vertex   3.059959e+00 2.100000e+01 3.542910e+00
      vertex   2.837302e+00 2.100000e+01 4.099080e+00
    endloop
  endfacet
  facet normal 0.000000e+00 1.000000e+00 0.000000e+00
    outer loop
      vertex   2.837302e+00 2.100000e+01 5.874679e+00
      vertex   2.837302e+00 2.100000e+01 4.099080e+00
      vertex   2.723925e+00 2.100000e+01 5.286422e+00
    endloop
  endfacet
  facet normal 0.000000e+00 1.000000e+00 0.000000e+00
    outer loop
      vertex   2.723925e+00 2.100000e+01 5.286422e+00
      vertex   2.837302e+00 2.100000e+01 4.099080e+00
      vertex   2.723925e+00 2.100000e+01 4.687338e+00
    endloop
  endfacet
  facet normal -1.000000e+00 0.000000e+00 0.000000e+00
    outer loop
      vertex   2.426605e+01 1.028223e+00 1.000000e+01
      vertex   2.426605e+01 1.398383e+01 1.000000e+01
      vertex   2.426605e+01 1.028223e+00 4.000000e+00
    endloop
  endfacet
  facet normal -1.000000e+00 0.000000e+00 0.000000e+00
    outer loop
      vertex   2.426605e+01 1.028223e+00 4.000000e+00
      vertex   2.426605e+01 1.398383e+01 1.000000e+01
      vertex   2.426605e+01 1.398383e+01 4.000000e+00
    endloop
  endfacet
  facet normal -0.000000e+00 -1.000000e+00 -0.000000e+00
    outer loop
      vertex   2.426605e+01 1.398383e+01 1.000000e+01
      vertex   7.711670e-01 1.398383e+01 1.000000e+01
      vertex   2.426605e+01 1.398383e+01 4.000000e+00
    endloop
  endfacet
  facet normal 0.000000e+00 -1.000000e+00 0.000000e+00
    outer loop
      vertex   2.426605e+01 1.398383e+01 4.000000e+00
      vertex   7.711670e-01 1.398383e+01 1.000000e+01
      vertex   7.711670e-01 1.398383e+01 4.000000e+00
    endloop
  endfacet
  facet normal 1.000000e+00 0.000000e+00 0.000000e+00
    outer loop
      vertex   7.711670e-01 1.398383e+01 1.000000e+01
      vertex   7.711670e-01 1.028223e+00 1.000000e+01
      vertex   7.711670e-01 1.398383e+01 4.000000e+00
    endloop
  endfacet
  facet normal 1.000000e+00 0.000000e+00 0.000000e+00
    outer loop
      vertex   7.711670e-01 1.398383e+01 4.000000e+00
      vertex   7.711670e-01 1.028223e+00 1.000000e+01
      vertex   7.711670e-01 1.028223e+00 4.000000e+00
    endloop
  endfacet
  facet normal -0.000000e+00 1.000000e+00 0.000000e+00
    outer loop
      vertex   7.711670e-01 1.028223e+00 1.000000e+01
      vertex   2.426605e+01 1.028223e+00 1.000000e+01
      vertex   7.711670e-01 1.028223e+00 4.000000e+00
    endloop
  endfacet
  facet normal 0.000000e+00 1.000000e+00 0.000000e+00
    outer loop
      vertex   7.711670e-01 1.028223e+00 4.000000e+00
      vertex   2.426605e+01 1.028223e+00 1.000000e+01
      vertex   2.426605e+01 1.028223e+00 4.000000e+00
    endloop
  endfacet
  facet normal 0.000000e+00 0.000000e+00 1.000000e+00
    outer loop
      vertex   7.711670e-01 1.028223e+00 4.000000e+00
      vertex   2.426605e+01 1.028223e+00 4.000000e+00
      vertex   7.711670e-01 1.398383e+01 4.000000e+00
    endloop
  endfacet
  facet normal -0.000000e+00 0.000000e+00 1.000000e+00
    outer loop
      vertex   7.711670e-01 1.398383e+01 4.000000e+00
      vertex   2.426605e+01 1.028223e+00 4.000000e+00
      vertex   2.426605e+01 1.398383e+01 4.000000e+00
    endloop
  endfacet
  facet normal -1.000000e+00 0.000000e+00 0.000000e+00
    outer loop
      vertex   0.000000e+00 1.500000e+01 0.000000e+00
      vertex   0.000000e+00 0.000000e+00 0.000000e+00
      vertex   0.000000e+00 1.500000e+01 1.000000e+01
    endloop
  endfacet
  facet normal -1.000000e+00 -0.000000e+00 0.000000e+00
    outer loop
      vertex   0.000000e+00 1.500000e+01 1.000000e+01
      vertex   0.000000e+00 0.000000e+00 0.000000e+00
      vertex   0.000000e+00 0.000000e+00 1.000000e+01
    endloop
  endfacet
  facet normal -0.000000e+00 1.000000e+00 0.000000e+00
    outer loop
      vertex   8.955135e+00 1.500000e+01 5.583251e+00
      vertex   2.500000e+01 1.500000e+01 1.000000e+01
      vertex   9.012082e+00 1.500000e+01 4.986880e+00
    endloop
  endfacet
  facet normal -0.000000e+00 1.000000e+00 0.000000e+00
    outer loop
      vertex   9.012082e+00 1.500000e+01 4.986880e+00
      vertex   2.500000e+01 1.500000e+01 1.000000e+01
      vertex   2.500000e+01 1.500000e+01 0.000000e+00
    endloop
  endfacet
  facet normal 0.000000e+00 1.000000e+00 0.000000e+00
    outer loop
      vertex   9.012082e+00 1.500000e+01 4.986880e+00
      vertex   2.500000e+01 1.500000e+01 0.000000e+00
      vertex   8.955135e+00 1.500000e+01 4.390509e+00
    endloop
  endfacet
  facet normal 0.000000e+00 1.000000e+00 0.000000e+00
    outer loop
      vertex   8.955135e+00 1.500000e+01 4.390509e+00
      vertex   2.500000e+01 1.500000e+01 0.000000e+00
      vertex   8.786354e+00 1.500000e+01 3.815692e+00
    endloop
  endfacet
  facet normal 0.000000e+00 1.000000e+00 0.000000e+00
    outer loop
      vertex   8.786354e+00 1.500000e+01 3.815692e+00
      vertex   2.500000e+01 1.500000e+01 0.000000e+00
      vertex   8.511838e+00 1.500000e+01 3.283205e+00
    endloop
  endfacet
  facet normal 0.000000e+00 1.000000e+00 0.000000e+00
    outer loop
      vertex   8.511838e+00 1.500000e+01 3.283205e+00
      vertex   2.500000e+01 1.500000e+01 0.000000e+00
      vertex   8.141509e+00 1.500000e+01 2.812294e+00
    endloop
  endfacet
  facet normal 0.000000e+00 1.000000e+00 0.000000e+00
    outer loop
      vertex   8.141509e+00 1.500000e+01 2.812294e+00
      vertex   2.500000e+01 1.500000e+01 0.000000e+00
      vertex   7.688752e+00 1.500000e+01 2.419977e+00
    endloop
  endfacet
  facet normal 0.000000e+00 1.000000e+00 0.000000e+00
    outer loop
      vertex   7.688752e+00 1.500000e+01 2.419977e+00
      vertex   2.500000e+01 1.500000e+01 0.000000e+00
      vertex   7.169930e+00 1.500000e+01 2.120436e+00
    endloop
  endfacet
  facet normal 0.000000e+00 1.000000e+00 0.000000e+00
    outer loop
      vertex   7.169930e+00 1.500000e+01 2.120436e+00
      vertex   2.500000e+01 1.500000e+01 0.000000e+00
      vertex   6.603795e+00 1.500000e+01 1.924495e+00
    endloop
  endfacet
  facet normal 0.000000e+00 1.000000e+00 0.000000e+00
    outer loop
      vertex   6.603795e+00 1.500000e+01 1.924495e+00
      vertex   2.500000e+01 1.500000e+01 0.000000e+00
      vertex   0.000000e+00 1.500000e+01 0.000000e+00
    endloop
  endfacet
  facet normal 0.000000e+00 1.000000e+00 0.000000e+00
    outer loop
      vertex   6.603795e+00 1.500000e+01 1.924495e+00
      vertex   0.000000e+00 1.500000e+01 0.000000e+00
      vertex   6.010809e+00 1.500000e+01 1.839236e+00
    endloop
  endfacet
  facet normal 0.000000e+00 1.000000e+00 0.000000e+00
    outer loop
      vertex   6.010809e+00 1.500000e+01 1.839236e+00
      vertex   0.000000e+00 1.500000e+01 0.000000e+00
      vertex   5.412404e+00 1.500000e+01 1.867742e+00
    endloop
  endfacet
  facet normal 0.000000e+00 1.000000e+00 0.000000e+00
    outer loop
      vertex   5.412404e+00 1.500000e+01 1.867742e+00
      vertex   0.000000e+00 1.500000e+01 0.000000e+00
      vertex   4.830208e+00 1.500000e+01 2.008981e+00
    endloop
  endfacet
  facet normal 0.000000e+00 1.000000e+00 0.000000e+00
    outer loop
      vertex   4.830208e+00 1.500000e+01 2.008981e+00
      vertex   0.000000e+00 1.500000e+01 0.000000e+00
      vertex   4.285262e+00 1.500000e+01 2.257849e+00
    endloop
  endfacet
  facet normal 0.000000e+00 1.000000e+00 0.000000e+00
    outer loop
      vertex   4.285262e+00 1.500000e+01 2.257849e+00
      vertex   0.000000e+00 1.500000e+01 0.000000e+00
      vertex   3.797263e+00 1.500000e+01 2.605352e+00
    endloop
  endfacet
  facet normal 0.000000e+00 1.000000e+00 0.000000e+00
    outer loop
      vertex   3.797263e+00 1.500000e+01 2.605352e+00
      vertex   0.000000e+00 1.500000e+01 0.000000e+00
      vertex   3.383848e+00 1.500000e+01 3.038929e+00
    endloop
  endfacet
  facet normal 0.000000e+00 1.000000e+00 0.000000e+00
    outer loop
      vertex   3.383848e+00 1.500000e+01 3.038929e+00
      vertex   0.000000e+00 1.500000e+01 0.000000e+00
      vertex   3.059959e+00 1.500000e+01 3.542910e+00
    endloop
  endfacet
  facet normal 0.000000e+00 1.000000e+00 0.000000e+00
    outer loop
      vertex   3.059959e+00 1.500000e+01 3.542910e+00
      vertex   0.000000e+00 1.500000e+01 0.000000e+00
      vertex   2.837302e+00 1.500000e+01 4.099080e+00
    endloop
  endfacet
  facet normal 0.000000e+00 1.000000e+00 0.000000e+00
    outer loop
      vertex   2.837302e+00 1.500000e+01 4.099080e+00
      vertex   0.000000e+00 1.500000e+01 0.000000e+00
      vertex   2.723925e+00 1.500000e+01 4.687338e+00
    endloop
  endfacet
  facet normal 0.000000e+00 1.000000e+00 -0.000000e+00
    outer loop
      vertex   2.723925e+00 1.500000e+01 4.687338e+00
      vertex   0.000000e+00 1.500000e+01 0.000000e+00
      vertex   2.723925e+00 1.500000e+01 5.286422e+00
    endloop
  endfacet
  facet normal 0.000000e+00 1.000000e+00 0.000000e+00
    outer loop
      vertex   2.723925e+00 1.500000e+01 5.286422e+00
      vertex   0.000000e+00 1.500000e+01 0.000000e+00
      vertex   0.000000e+00 1.500000e+01 1.000000e+01
    endloop
  endfacet
  facet normal 0.000000e+00 1.000000e+00 -0.000000e+00
    outer loop
      vertex   2.723925e+00 1.500000e+01 5.286422e+00
      vertex   0.000000e+00 1.500000e+01 1.000000e+01
      vertex   2.837302e+00 1.500000e+01 5.874679e+00
    endloop
  endfacet
  facet normal 0.000000e+00 1.000000e+00 -0.000000e+00
    outer loop
      vertex   2.837302e+00 1.500000e+01 5.874679e+00
      vertex   0.000000e+00 1.500000e+01 1.000000e+01
      vertex   3.059959e+00 1.500000e+01 6.430849e+00
    endloop
  endfacet
  facet normal 0.000000e+00 1.000000e+00 -0.000000e+00
    outer loop
      vertex   3.059959e+00 1.500000e+01 6.430849e+00
      vertex   0.000000e+00 1.500000e+01 1.000000e+01
      vertex   3.383848e+00 1.500000e+01 6.934830e+00
    endloop
  endfacet
  facet normal 0.000000e+00 1.000000e+00 -0.000000e+00
    outer loop
      vertex   3.383848e+00 1.500000e+01 6.934830e+00
      vertex   0.000000e+00 1.500000e+01 1.000000e+01
      vertex   3.797263e+00 1.500000e+01 7.368408e+00
    endloop
  endfacet
  facet normal 0.000000e+00 1.000000e+00 -0.000000e+00
    outer loop
      vertex   3.797263e+00 1.500000e+01 7.368408e+00
      vertex   0.000000e+00 1.500000e+01 1.000000e+01
      vertex   4.285262e+00 1.500000e+01 7.715910e+00
    endloop
  endfacet
  facet normal 0.000000e+00 1.000000e+00 -0.000000e+00
    outer loop
      vertex   4.285262e+00 1.500000e+01 7.715910e+00
      vertex   0.000000e+00 1.500000e+01 1.000000e+01
      vertex   4.830208e+00 1.500000e+01 7.964779e+00
    endloop
  endfacet
  facet normal 0.000000e+00 1.000000e+00 -0.000000e+00
    outer loop
      vertex   4.830208e+00 1.500000e+01 7.964779e+00
      vertex   0.000000e+00 1.500000e+01 1.000000e+01
      vertex   5.412404e+00 1.500000e+01 8.106018e+00
    endloop
  endfacet
  facet normal 0.000000e+00 1.000000e+00 -0.000000e+00
    outer loop
      vertex   5.412404e+00 1.500000e+01 8.106018e+00
      vertex   0.000000e+00 1.500000e+01 1.000000e+01
      vertex   6.010809e+00 1.500000e+01 8.134523e+00
    endloop
  endfacet
  facet normal -0.000000e+00 1.000000e+00 -0.000000e+00
    outer loop
      vertex   6.010809e+00 1.500000e+01 8.134523e+00
      vertex   0.000000e+00 1.500000e+01 1.000000e+01
      vertex   6.603795e+00 1.500000e+01 8.049265e+00
    endloop
  endfacet
  facet normal 0.000000e+00 1.000000e+00 -0.000000e+00
    outer loop
      vertex   6.603795e+00 1.500000e+01 8.049265e+00
      vertex   0.000000e+00 1.500000e+01 1.000000e+01
      vertex   2.500000e+01 1.500000e+01 1.000000e+01
    endloop
  endfacet
  facet normal -0.000000e+00 1.000000e+00 0.000000e+00
    outer loop
      vertex   6.603795e+00 1.500000e+01 8.049265e+00
      vertex   2.500000e+01 1.500000e+01 1.000000e+01
      vertex   7.169930e+00 1.500000e+01 7.853324e+00
    endloop
  endfacet
  facet normal -0.000000e+00 1.000000e+00 0.000000e+00
    outer loop
      vertex   7.169930e+00 1.500000e+01 7.853324e+00
      vertex   2.500000e+01 1.500000e+01 1.000000e+01
      vertex   7.688752e+00 1.500000e+01 7.553782e+00
    endloop
  endfacet
  facet normal -0.000000e+00 1.000000e+00 0.000000e+00
    outer loop
      vertex   7.688752e+00 1.500000e+01 7.553782e+00
      vertex   2.500000e+01 1.500000e+01 1.000000e+01
      vertex   8.141509e+00 1.500000e+01 7.161466e+00
    endloop
  endfacet
  facet normal -0.000000e+00 1.000000e+00 0.000000e+00
    outer loop
      vertex   8.141509e+00 1.500000e+01 7.161466e+00
      vertex   2.500000e+01 1.500000e+01 1.000000e+01
      vertex   8.511838e+00 1.500000e+01 6.690554e+00
    endloop
  endfacet
  facet normal -0.000000e+00 1.000000e+00 0.000000e+00
    outer loop
      vertex   8.511838e+00 1.500000e+01 6.690554e+00
      vertex   2.500000e+01 1.500000e+01 1.000000e+01
      vertex   8.786354e+00 1.500000e+01 6.158067e+00
    endloop
  endfacet
  facet normal -0.000000e+00 1.000000e+00 0.000000e+00
    outer loop
      vertex   8.786354e+00 1.500000e+01 6.158067e+00
      vertex   2.500000e+01 1.500000e+01 1.000000e+01
      vertex   8.955135e+00 1.500000e+01 5.583251e+00
    endloop
  endfacet
  facet normal 1.000000e+00 0.000000e+00 0.000000e+00
    outer loop
      vertex   2.500000e+01 0.000000e+00 0.000000e+00
      vertex   2.500000e+01 1.500000e+01 0.000000e+00
      vertex   2.500000e+01 0.000000e+00 1.000000e+01
    endloop
  endfacet
  facet normal 1.000000e+00 -0.000000e+00 0.000000e+00
    outer loop
      vertex   2.500000e+01 0.000000e+00 1.000000e+01
      vertex   2.500000e+01 1.500000e+01 0.000000e+00
      vertex   2.500000e+01 1.500000e+01 1.000000e+01
    endloop
  endfacet
  facet normal 0.000000e+00 -1.000000e+00 0.000000e+00
    outer loop
      vertex   2.046422e+01 0.000000e+00 4.544535e+00
      vertex   2.500000e+01 0.000000e+00 0.000000e+00
      vertex   2.052186e+01 0.000000e+00 5.129806e+00
    endloop
  endfacet
  facet normal 0.000000e+00 -1.000000e+00 0.000000e+00
    outer loop
      vertex   2.052186e+01 0.000000e+00 5.129806e+00
      vertex   2.500000e+01 0.000000e+00 0.000000e+00
      vertex   2.500000e+01 0.000000e+00 1.000000e+01
    endloop
  endfacet
  facet normal 0.000000e+00 -1.000000e+00 0.000000e+00
    outer loop
      vertex   2.052186e+01 0.000000e+00 5.129806e+00
      vertex   2.500000e+01 0.000000e+00 1.000000e+01
      vertex   2.046422e+01 0.000000e+00 5.715077e+00
    endloop
  endfacet
  facet normal 0.000000e+00 -1.000000e+00 0.000000e+00
    outer loop
      vertex   2.046422e+01 0.000000e+00 5.715077e+00
      vertex   2.500000e+01 0.000000e+00 1.000000e+01
      vertex   2.029350e+01 0.000000e+00 6.277856e+00
    endloop
  endfacet
  facet normal 0.000000e+00 -1.000000e+00 0.000000e+00
    outer loop
      vertex   2.029350e+01 0.000000e+00 6.277856e+00
      vertex   2.500000e+01 0.000000e+00 1.000000e+01
      vertex   2.001627e+01 0.000000e+00 6.796517e+00
    endloop
  endfacet
  facet normal 0.000000e+00 -1.000000e+00 0.000000e+00
    outer loop
      vertex   2.001627e+01 0.000000e+00 6.796517e+00
      vertex   2.500000e+01 0.000000e+00 1.000000e+01
      vertex   1.964318e+01 0.000000e+00 7.251126e+00
    endloop
  endfacet
  facet normal 0.000000e+00 -1.000000e+00 0.000000e+00
    outer loop
      vertex   1.964318e+01 0.000000e+00 7.251126e+00
      vertex   2.500000e+01 0.000000e+00 1.000000e+01
      vertex   1.918857e+01 0.000000e+00 7.624215e+00
    endloop
  endfacet
  facet normal 0.000000e+00 -1.000000e+00 0.000000e+00
    outer loop
      vertex   1.918857e+01 0.000000e+00 7.624215e+00
      vertex   2.500000e+01 0.000000e+00 1.000000e+01
      vertex   1.866991e+01 0.000000e+00 7.901445e+00
    endloop
  endfacet
  facet normal 0.000000e+00 -1.000000e+00 0.000000e+00
    outer loop
      vertex   1.866991e+01 0.000000e+00 7.901445e+00
      vertex   2.500000e+01 0.000000e+00 1.000000e+01
      vertex   1.810713e+01 0.000000e+00 8.072162e+00
    endloop
  endfacet
  facet normal 0.000000e+00 -1.000000e+00 0.000000e+00
    outer loop
      vertex   1.810713e+01 0.000000e+00 8.072162e+00
      vertex   2.500000e+01 0.000000e+00 1.000000e+01
      vertex   1.752186e+01 0.000000e+00 8.129806e+00
    endloop
  endfacet
  facet normal -0.000000e+00 -1.000000e+00 0.000000e+00
    outer loop
      vertex   1.752186e+01 0.000000e+00 8.129806e+00
      vertex   2.500000e+01 0.000000e+00 1.000000e+01
      vertex   1.693659e+01 0.000000e+00 8.072162e+00
    endloop
  endfacet
  facet normal 0.000000e+00 -1.000000e+00 0.000000e+00
    outer loop
      vertex   1.693659e+01 0.000000e+00 8.072162e+00
      vertex   2.500000e+01 0.000000e+00 1.000000e+01
      vertex   0.000000e+00 0.000000e+00 1.000000e+01
    endloop
  endfacet
  facet normal -0.000000e+00 -1.000000e+00 0.000000e+00
    outer loop
      vertex   1.693659e+01 0.000000e+00 8.072162e+00
      vertex   0.000000e+00 0.000000e+00 1.000000e+01
      vertex   1.637381e+01 0.000000e+00 7.901445e+00
    endloop
  endfacet
  facet normal -0.000000e+00 -1.000000e+00 0.000000e+00
    outer loop
      vertex   1.637381e+01 0.000000e+00 7.901445e+00
      vertex   0.000000e+00 0.000000e+00 1.000000e+01
      vertex   1.585515e+01 0.000000e+00 7.624215e+00
    endloop
  endfacet
  facet normal -0.000000e+00 -1.000000e+00 0.000000e+00
    outer loop
      vertex   1.585515e+01 0.000000e+00 7.624215e+00
      vertex   0.000000e+00 0.000000e+00 1.000000e+01
      vertex   1.540054e+01 0.000000e+00 7.251126e+00
    endloop
  endfacet
  facet normal -0.000000e+00 -1.000000e+00 0.000000e+00
    outer loop
      vertex   1.540054e+01 0.000000e+00 7.251126e+00
      vertex   0.000000e+00 0.000000e+00 1.000000e+01
      vertex   1.502745e+01 0.000000e+00 6.796517e+00
    endloop
  endfacet
  facet normal -0.000000e+00 -1.000000e+00 0.000000e+00
    outer loop
      vertex   1.502745e+01 0.000000e+00 6.796517e+00
      vertex   0.000000e+00 0.000000e+00 1.000000e+01
      vertex   1.475022e+01 0.000000e+00 6.277856e+00
    endloop
  endfacet
  facet normal -0.000000e+00 -1.000000e+00 0.000000e+00
    outer loop
      vertex   1.475022e+01 0.000000e+00 6.277856e+00
      vertex   0.000000e+00 0.000000e+00 1.000000e+01
      vertex   1.457951e+01 0.000000e+00 5.715077e+00
    endloop
  endfacet
  facet normal -0.000000e+00 -1.000000e+00 0.000000e+00
    outer loop
      vertex   1.457951e+01 0.000000e+00 5.715077e+00
      vertex   0.000000e+00 0.000000e+00 1.000000e+01
      vertex   1.452186e+01 0.000000e+00 5.129806e+00
    endloop
  endfacet
  facet normal -0.000000e+00 -1.000000e+00 0.000000e+00
    outer loop
      vertex   1.452186e+01 0.000000e+00 5.129806e+00
      vertex   0.000000e+00 0.000000e+00 1.000000e+01
      vertex   0.000000e+00 0.000000e+00 0.000000e+00
    endloop
  endfacet
  facet normal 0.000000e+00 -1.000000e+00 -0.000000e+00
    outer loop
      vertex   1.452186e+01 0.000000e+00 5.129806e+00
      vertex   0.000000e+00 0.000000e+00 0.000000e+00
      vertex   1.457951e+01 0.000000e+00 4.544535e+00
    endloop
  endfacet
  facet normal 0.000000e+00 -1.000000e+00 -0.000000e+00
    outer loop
      vertex   1.457951e+01 0.000000e+00 4.544535e+00
      vertex   0.000000e+00 0.000000e+00 0.000000e+00
      vertex   1.475022e+01 0.000000e+00 3.981756e+00
    endloop
  endfacet
  facet normal 0.000000e+00 -1.000000e+00 -0.000000e+00
    outer loop
      vertex   1.475022e+01 0.000000e+00 3.981756e+00
      vertex   0.000000e+00 0.000000e+00 0.000000e+00
      vertex   1.502745e+01 0.000000e+00 3.463095e+00
    endloop
  endfacet
  facet normal 0.000000e+00 -1.000000e+00 -0.000000e+00
    outer loop
      vertex   1.502745e+01 0.000000e+00 3.463095e+00
      vertex   0.000000e+00 0.000000e+00 0.000000e+00
      vertex   1.540054e+01 0.000000e+00 3.008486e+00
    endloop
  endfacet
  facet normal 0.000000e+00 -1.000000e+00 -0.000000e+00
    outer loop
      vertex   1.540054e+01 0.000000e+00 3.008486e+00
      vertex   0.000000e+00 0.000000e+00 0.000000e+00
      vertex   1.585515e+01 0.000000e+00 2.635397e+00
    endloop
  endfacet
  facet normal 0.000000e+00 -1.000000e+00 -0.000000e+00
    outer loop
      vertex   1.585515e+01 0.000000e+00 2.635397e+00
      vertex   0.000000e+00 0.000000e+00 0.000000e+00
      vertex   1.637381e+01 0.000000e+00 2.358167e+00
    endloop
  endfacet
  facet normal 0.000000e+00 -1.000000e+00 -0.000000e+00
    outer loop
      vertex   1.637381e+01 0.000000e+00 2.358167e+00
      vertex   0.000000e+00 0.000000e+00 0.000000e+00
      vertex   1.693659e+01 0.000000e+00 2.187450e+00
    endloop
  endfacet
  facet normal 0.000000e+00 -1.000000e+00 -0.000000e+00
    outer loop
      vertex   1.693659e+01 0.000000e+00 2.187450e+00
      vertex   0.000000e+00 0.000000e+00 0.000000e+00
      vertex   2.500000e+01 0.000000e+00 0.000000e+00
    endloop
  endfacet
  facet normal 0.000000e+00 -1.000000e+00 0.000000e+00
    outer loop
      vertex   1.693659e+01 0.000000e+00 2.187450e+00
      vertex   2.500000e+01 0.000000e+00 0.000000e+00
      vertex   1.752186e+01 0.000000e+00 2.129806e+00
    endloop
  endfacet
  facet normal 0.000000e+00 -1.000000e+00 0.000000e+00
    outer loop
      vertex   1.752186e+01 0.000000e+00 2.129806e+00
      vertex   2.500000e+01 0.000000e+00 0.000000e+00
      vertex   1.810713e+01 0.000000e+00 2.187450e+00
    endloop
  endfacet
  facet normal 0.000000e+00 -1.000000e+00 0.000000e+00
    outer loop
      vertex   1.810713e+01 0.000000e+00 2.187450e+00
      vertex   2.500000e+01 0.000000e+00 0.000000e+00
      vertex   1.866991e+01 0.000000e+00 2.358167e+00
    endloop
  endfacet
  facet normal 0.000000e+00 -1.000000e+00 0.000000e+00
    outer loop
      vertex   1.866991e+01 0.000000e+00 2.358167e+00
      vertex   2.500000e+01 0.000000e+00 0.000000e+00
      vertex   1.918857e+01 0.000000e+00 2.635397e+00
    endloop
  endfacet
  facet normal 0.000000e+00 -1.000000e+00 0.000000e+00
    outer loop
      vertex   1.918857e+01 0.000000e+00 2.635397e+00
      vertex   2.500000e+01 0.000000e+00 0.000000e+00
      vertex   1.964318e+01 0.000000e+00 3.008486e+00
    endloop
  endfacet
  facet normal 0.000000e+00 -1.000000e+00 0.000000e+00
    outer loop
      vertex   1.964318e+01 0.000000e+00 3.008486e+00
      vertex   2.500000e+01 0.000000e+00 0.000000e+00
      vertex   2.001627e+01 0.000000e+00 3.463095e+00
    endloop
  endfacet
  facet normal 0.000000e+00 -1.000000e+00 0.000000e+00
    outer loop
      vertex   2.001627e+01 0.000000e+00 3.463095e+00
      vertex   2.500000e+01 0.000000e+00 0.000000e+00
      vertex   2.029350e+01 0.000000e+00 3.981756e+00
    endloop
  endfacet
  facet normal 0.000000e+00 -1.000000e+00 0.000000e+00
    outer loop
      vertex   2.029350e+01 0.000000e+00 3.981756e+00
      vertex   2.500000e+01 0.000000e+00 0.000000e+00
      vertex   2.046422e+01 0.000000e+00 4.544535e+00
    endloop
  endfacet
  facet normal 0.000000e+00 0.000000e+00 1.000000e+00
    outer loop
      vertex   7.711670e-01 1.398383e+01 1.000000e+01
      vertex   2.426605e+01 1.398383e+01 1.000000e+01
      vertex   2.500000e+01 1.500000e+01 1.000000e+01
    endloop
  endfacet
  facet normal 0.000000e+00 0.000000e+00 1.000000e+00
    outer loop
      vertex   2.500000e+01 1.500000e+01 1.000000e+01
      vertex   2.426605e+01 1.398383e+01 1.000000e+01
      vertex   2.426605e+01 1.028223e+00 1.000000e+01
    endloop
  endfacet
  facet normal 0.000000e+00 0.000000e+00 1.000000e+00
    outer loop
      vertex   2.500000e+01 1.500000e+01 1.000000e+01
      vertex   2.426605e+01 1.028223e+00 1.000000e+01
      vertex   2.500000e+01 0.000000e+00 1.000000e+01
    endloop
  endfacet
  facet normal 0.000000e+00 0.000000e+00 1.000000e+00
    outer loop
      vertex   2.500000e+01 0.000000e+00 1.000000e+01
      vertex   2.426605e+01 1.028223e+00 1.000000e+01
      vertex   7.711670e-01 1.028223e+00 1.000000e+01
    endloop
  endfacet
  facet normal 0.000000e+00 0.000000e+00 1.000000e+00
    outer loop
      vertex   2.500000e+01 0.000000e+00 1.000000e+01
      vertex   7.711670e-01 1.028223e+00 1.000000e+01
      vertex   0.000000e+00 0.000000e+00 1.000000e+01
    endloop
  endfacet
  facet normal 0.000000e+00 0.000000e+00 1.000000e+00
    outer loop
      vertex   0.000000e+00 0.000000e+00 1.000000e+01
      vertex   7.711670e-01 1.028223e+00 1.000000e+01
      vertex   0.000000e+00 1.500000e+01 1.000000e+01
    endloop
  endfacet
  facet normal 0.000000e+00 0.000000e+00 1.000000e+00
    outer loop
      vertex   0.000000e+00 1.500000e+01 1.000000e+01
      vertex   7.711670e-01 1.028223e+00 1.000000e+01
      vertex   7.711670e-01 1.398383e+01 1.000000e+01
    endloop
  endfacet
  facet normal -0.000000e+00 0.000000e+00 1.000000e+00
    outer loop
      vertex   0.000000e+00 1.500000e+01 1.000000e+01
      vertex   7.711670e-01 1.398383e+01 1.000000e+01
      vertex   2.500000e+01 1.500000e+01 1.000000e+01
    endloop
  endfacet
  facet normal 0.000000e+00 0.000000e+00 -1.000000e+00
    outer loop
      vertex   2.500000e+01 0.000000e+00 0.000000e+00
      vertex   0.000000e+00 0.000000e+00 0.000000e+00
      vertex   2.500000e+01 1.500000e+01 0.000000e+00
    endloop
  endfacet
  facet normal -0.000000e+00 0.000000e+00 -1.000000e+00
    outer loop
      vertex   2.500000e+01 1.500000e+01 0.000000e+00
      vertex   0.000000e+00 0.000000e+00 0.000000e+00
      vertex   0.000000e+00 1.500000e+01 0.000000e+00
    endloop
  endfacet
endsolid
